%TF.GenerationSoftware,KiCad,Pcbnew,9.0.6+1*%
%TF.CreationDate,Date%
%TF.ProjectId,FCU3,46435533-2e6b-4696-9361-645f70636258,+ (Unreleased)*%
%TF.SameCoordinates,Original*%
%TF.FileFunction,Soldermask,Bot*%
%TF.FilePolarity,Negative*%
%FSLAX46Y46*%
G04 Gerber Fmt 4.6, Leading zero omitted, Abs format (unit mm)*
G04 Created by KiCad*
%MOMM*%
%LPD*%
G01*
G04 APERTURE LIST*
G04 Aperture macros list*
%AMRoundRect*
0 Rectangle with rounded corners*
0 $1 Rounding radius*
0 $2 $3 $4 $5 $6 $7 $8 $9 X,Y pos of 4 corners*
0 Add a 4 corners polygon primitive as box body*
4,1,4,$2,$3,$4,$5,$6,$7,$8,$9,$2,$3,0*
0 Add four circle primitives for the rounded corners*
1,1,$1+$1,$2,$3*
1,1,$1+$1,$4,$5*
1,1,$1+$1,$6,$7*
1,1,$1+$1,$8,$9*
0 Add four rect primitives between the rounded corners*
20,1,$1+$1,$2,$3,$4,$5,0*
20,1,$1+$1,$4,$5,$6,$7,0*
20,1,$1+$1,$6,$7,$8,$9,0*
20,1,$1+$1,$8,$9,$2,$3,0*%
G04 Aperture macros list end*
%ADD10C,0.010000*%
%ADD11C,0.750000*%
%ADD12O,1.204000X2.304000*%
%ADD13O,1.204000X2.004000*%
%ADD14C,5.700000*%
%ADD15C,1.000000*%
%ADD16RoundRect,0.262500X0.275000X0.262500X-0.275000X0.262500X-0.275000X-0.262500X0.275000X-0.262500X0*%
%ADD17RoundRect,0.270833X0.479167X-0.379167X0.479167X0.379167X-0.479167X0.379167X-0.479167X-0.379167X0*%
%ADD18RoundRect,0.262500X-0.262500X0.275000X-0.262500X-0.275000X0.262500X-0.275000X0.262500X0.275000X0*%
%ADD19RoundRect,0.262500X0.262500X-0.325000X0.262500X0.325000X-0.262500X0.325000X-0.262500X-0.325000X0*%
%ADD20RoundRect,0.271739X-0.678261X0.353261X-0.678261X-0.353261X0.678261X-0.353261X0.678261X0.353261X0*%
%ADD21RoundRect,0.262500X-0.275000X-0.262500X0.275000X-0.262500X0.275000X0.262500X-0.275000X0.262500X0*%
%ADD22RoundRect,0.175000X-0.612500X-0.175000X0.612500X-0.175000X0.612500X0.175000X-0.612500X0.175000X0*%
%ADD23RoundRect,0.050000X0.500000X0.750000X-0.500000X0.750000X-0.500000X-0.750000X0.500000X-0.750000X0*%
%ADD24RoundRect,0.175000X0.612500X0.175000X-0.612500X0.175000X-0.612500X-0.175000X0.612500X-0.175000X0*%
%ADD25RoundRect,0.262500X0.262500X-0.275000X0.262500X0.275000X-0.262500X0.275000X-0.262500X-0.275000X0*%
%ADD26RoundRect,0.262500X0.325000X0.262500X-0.325000X0.262500X-0.325000X-0.262500X0.325000X-0.262500X0*%
%ADD27RoundRect,0.050000X-0.750000X0.500000X-0.750000X-0.500000X0.750000X-0.500000X0.750000X0.500000X0*%
%ADD28C,1.600000*%
G04 APERTURE END LIST*
%TO.C,JP4*%
G36*
X148800000Y-80100000D02*
G01*
X148500000Y-80100000D01*
X148500000Y-81600000D01*
X148800000Y-81600000D01*
X148800000Y-80100000D01*
G37*
D10*
%TO.C,PS1*%
X153110000Y-87301000D02*
X153116000Y-87301000D01*
X153121000Y-87302000D01*
X153126000Y-87303000D01*
X153131000Y-87305000D01*
X153136000Y-87307000D01*
X153141000Y-87309000D01*
X153145000Y-87311000D01*
X153150000Y-87313000D01*
X153154000Y-87316000D01*
X153159000Y-87319000D01*
X153163000Y-87322000D01*
X153167000Y-87326000D01*
X153171000Y-87329000D01*
X153174000Y-87333000D01*
X153178000Y-87337000D01*
X153181000Y-87341000D01*
X153184000Y-87346000D01*
X153187000Y-87350000D01*
X153189000Y-87355000D01*
X153191000Y-87359000D01*
X153193000Y-87364000D01*
X153195000Y-87369000D01*
X153197000Y-87374000D01*
X153198000Y-87379000D01*
X153199000Y-87384000D01*
X153199000Y-87390000D01*
X153200000Y-87395000D01*
X153200000Y-87400000D01*
X153200000Y-87550000D01*
X153200000Y-87555000D01*
X153199000Y-87560000D01*
X153199000Y-87566000D01*
X153198000Y-87571000D01*
X153197000Y-87576000D01*
X153195000Y-87581000D01*
X153193000Y-87586000D01*
X153191000Y-87591000D01*
X153189000Y-87595000D01*
X153187000Y-87600000D01*
X153184000Y-87604000D01*
X153181000Y-87609000D01*
X153178000Y-87613000D01*
X153174000Y-87617000D01*
X153171000Y-87621000D01*
X153167000Y-87624000D01*
X153163000Y-87628000D01*
X153159000Y-87631000D01*
X153154000Y-87634000D01*
X153150000Y-87637000D01*
X153145000Y-87639000D01*
X153141000Y-87641000D01*
X153136000Y-87643000D01*
X153131000Y-87645000D01*
X153126000Y-87647000D01*
X153121000Y-87648000D01*
X153116000Y-87649000D01*
X153110000Y-87649000D01*
X153105000Y-87650000D01*
X153100000Y-87650000D01*
X152400000Y-87650000D01*
X152395000Y-87650000D01*
X152390000Y-87649000D01*
X152384000Y-87649000D01*
X152379000Y-87648000D01*
X152374000Y-87647000D01*
X152369000Y-87645000D01*
X152364000Y-87643000D01*
X152359000Y-87641000D01*
X152355000Y-87639000D01*
X152350000Y-87637000D01*
X152346000Y-87634000D01*
X152341000Y-87631000D01*
X152337000Y-87628000D01*
X152333000Y-87624000D01*
X152329000Y-87621000D01*
X152326000Y-87617000D01*
X152322000Y-87613000D01*
X152319000Y-87609000D01*
X152316000Y-87604000D01*
X152313000Y-87600000D01*
X152311000Y-87595000D01*
X152309000Y-87591000D01*
X152307000Y-87586000D01*
X152305000Y-87581000D01*
X152303000Y-87576000D01*
X152302000Y-87571000D01*
X152301000Y-87566000D01*
X152301000Y-87560000D01*
X152300000Y-87555000D01*
X152300000Y-87550000D01*
X152300000Y-87400000D01*
X152300000Y-87395000D01*
X152301000Y-87390000D01*
X152301000Y-87384000D01*
X152302000Y-87379000D01*
X152303000Y-87374000D01*
X152305000Y-87369000D01*
X152307000Y-87364000D01*
X152309000Y-87359000D01*
X152311000Y-87355000D01*
X152313000Y-87350000D01*
X152316000Y-87346000D01*
X152319000Y-87341000D01*
X152322000Y-87337000D01*
X152326000Y-87333000D01*
X152329000Y-87329000D01*
X152333000Y-87326000D01*
X152337000Y-87322000D01*
X152341000Y-87319000D01*
X152346000Y-87316000D01*
X152350000Y-87313000D01*
X152355000Y-87311000D01*
X152359000Y-87309000D01*
X152364000Y-87307000D01*
X152369000Y-87305000D01*
X152374000Y-87303000D01*
X152379000Y-87302000D01*
X152384000Y-87301000D01*
X152390000Y-87301000D01*
X152395000Y-87300000D01*
X152400000Y-87300000D01*
X153100000Y-87300000D01*
X153105000Y-87300000D01*
X153110000Y-87301000D01*
G36*
X153110000Y-87301000D02*
G01*
X153116000Y-87301000D01*
X153121000Y-87302000D01*
X153126000Y-87303000D01*
X153131000Y-87305000D01*
X153136000Y-87307000D01*
X153141000Y-87309000D01*
X153145000Y-87311000D01*
X153150000Y-87313000D01*
X153154000Y-87316000D01*
X153159000Y-87319000D01*
X153163000Y-87322000D01*
X153167000Y-87326000D01*
X153171000Y-87329000D01*
X153174000Y-87333000D01*
X153178000Y-87337000D01*
X153181000Y-87341000D01*
X153184000Y-87346000D01*
X153187000Y-87350000D01*
X153189000Y-87355000D01*
X153191000Y-87359000D01*
X153193000Y-87364000D01*
X153195000Y-87369000D01*
X153197000Y-87374000D01*
X153198000Y-87379000D01*
X153199000Y-87384000D01*
X153199000Y-87390000D01*
X153200000Y-87395000D01*
X153200000Y-87400000D01*
X153200000Y-87550000D01*
X153200000Y-87555000D01*
X153199000Y-87560000D01*
X153199000Y-87566000D01*
X153198000Y-87571000D01*
X153197000Y-87576000D01*
X153195000Y-87581000D01*
X153193000Y-87586000D01*
X153191000Y-87591000D01*
X153189000Y-87595000D01*
X153187000Y-87600000D01*
X153184000Y-87604000D01*
X153181000Y-87609000D01*
X153178000Y-87613000D01*
X153174000Y-87617000D01*
X153171000Y-87621000D01*
X153167000Y-87624000D01*
X153163000Y-87628000D01*
X153159000Y-87631000D01*
X153154000Y-87634000D01*
X153150000Y-87637000D01*
X153145000Y-87639000D01*
X153141000Y-87641000D01*
X153136000Y-87643000D01*
X153131000Y-87645000D01*
X153126000Y-87647000D01*
X153121000Y-87648000D01*
X153116000Y-87649000D01*
X153110000Y-87649000D01*
X153105000Y-87650000D01*
X153100000Y-87650000D01*
X152400000Y-87650000D01*
X152395000Y-87650000D01*
X152390000Y-87649000D01*
X152384000Y-87649000D01*
X152379000Y-87648000D01*
X152374000Y-87647000D01*
X152369000Y-87645000D01*
X152364000Y-87643000D01*
X152359000Y-87641000D01*
X152355000Y-87639000D01*
X152350000Y-87637000D01*
X152346000Y-87634000D01*
X152341000Y-87631000D01*
X152337000Y-87628000D01*
X152333000Y-87624000D01*
X152329000Y-87621000D01*
X152326000Y-87617000D01*
X152322000Y-87613000D01*
X152319000Y-87609000D01*
X152316000Y-87604000D01*
X152313000Y-87600000D01*
X152311000Y-87595000D01*
X152309000Y-87591000D01*
X152307000Y-87586000D01*
X152305000Y-87581000D01*
X152303000Y-87576000D01*
X152302000Y-87571000D01*
X152301000Y-87566000D01*
X152301000Y-87560000D01*
X152300000Y-87555000D01*
X152300000Y-87550000D01*
X152300000Y-87400000D01*
X152300000Y-87395000D01*
X152301000Y-87390000D01*
X152301000Y-87384000D01*
X152302000Y-87379000D01*
X152303000Y-87374000D01*
X152305000Y-87369000D01*
X152307000Y-87364000D01*
X152309000Y-87359000D01*
X152311000Y-87355000D01*
X152313000Y-87350000D01*
X152316000Y-87346000D01*
X152319000Y-87341000D01*
X152322000Y-87337000D01*
X152326000Y-87333000D01*
X152329000Y-87329000D01*
X152333000Y-87326000D01*
X152337000Y-87322000D01*
X152341000Y-87319000D01*
X152346000Y-87316000D01*
X152350000Y-87313000D01*
X152355000Y-87311000D01*
X152359000Y-87309000D01*
X152364000Y-87307000D01*
X152369000Y-87305000D01*
X152374000Y-87303000D01*
X152379000Y-87302000D01*
X152384000Y-87301000D01*
X152390000Y-87301000D01*
X152395000Y-87300000D01*
X152400000Y-87300000D01*
X153100000Y-87300000D01*
X153105000Y-87300000D01*
X153110000Y-87301000D01*
G37*
X153110000Y-87801000D02*
X153116000Y-87801000D01*
X153121000Y-87802000D01*
X153126000Y-87803000D01*
X153131000Y-87805000D01*
X153136000Y-87807000D01*
X153141000Y-87809000D01*
X153145000Y-87811000D01*
X153150000Y-87813000D01*
X153154000Y-87816000D01*
X153159000Y-87819000D01*
X153163000Y-87822000D01*
X153167000Y-87826000D01*
X153171000Y-87829000D01*
X153174000Y-87833000D01*
X153178000Y-87837000D01*
X153181000Y-87841000D01*
X153184000Y-87846000D01*
X153187000Y-87850000D01*
X153189000Y-87855000D01*
X153191000Y-87859000D01*
X153193000Y-87864000D01*
X153195000Y-87869000D01*
X153197000Y-87874000D01*
X153198000Y-87879000D01*
X153199000Y-87884000D01*
X153199000Y-87890000D01*
X153200000Y-87895000D01*
X153200000Y-87900000D01*
X153200000Y-88050000D01*
X153200000Y-88055000D01*
X153199000Y-88060000D01*
X153199000Y-88066000D01*
X153198000Y-88071000D01*
X153197000Y-88076000D01*
X153195000Y-88081000D01*
X153193000Y-88086000D01*
X153191000Y-88091000D01*
X153189000Y-88095000D01*
X153187000Y-88100000D01*
X153184000Y-88104000D01*
X153181000Y-88109000D01*
X153178000Y-88113000D01*
X153174000Y-88117000D01*
X153171000Y-88121000D01*
X153167000Y-88124000D01*
X153163000Y-88128000D01*
X153159000Y-88131000D01*
X153154000Y-88134000D01*
X153150000Y-88137000D01*
X153145000Y-88139000D01*
X153141000Y-88141000D01*
X153136000Y-88143000D01*
X153131000Y-88145000D01*
X153126000Y-88147000D01*
X153121000Y-88148000D01*
X153116000Y-88149000D01*
X153110000Y-88149000D01*
X153105000Y-88150000D01*
X153100000Y-88150000D01*
X152400000Y-88150000D01*
X152395000Y-88150000D01*
X152390000Y-88149000D01*
X152384000Y-88149000D01*
X152379000Y-88148000D01*
X152374000Y-88147000D01*
X152369000Y-88145000D01*
X152364000Y-88143000D01*
X152359000Y-88141000D01*
X152355000Y-88139000D01*
X152350000Y-88137000D01*
X152346000Y-88134000D01*
X152341000Y-88131000D01*
X152337000Y-88128000D01*
X152333000Y-88124000D01*
X152329000Y-88121000D01*
X152326000Y-88117000D01*
X152322000Y-88113000D01*
X152319000Y-88109000D01*
X152316000Y-88104000D01*
X152313000Y-88100000D01*
X152311000Y-88095000D01*
X152309000Y-88091000D01*
X152307000Y-88086000D01*
X152305000Y-88081000D01*
X152303000Y-88076000D01*
X152302000Y-88071000D01*
X152301000Y-88066000D01*
X152301000Y-88060000D01*
X152300000Y-88055000D01*
X152300000Y-88050000D01*
X152300000Y-87900000D01*
X152300000Y-87895000D01*
X152301000Y-87890000D01*
X152301000Y-87884000D01*
X152302000Y-87879000D01*
X152303000Y-87874000D01*
X152305000Y-87869000D01*
X152307000Y-87864000D01*
X152309000Y-87859000D01*
X152311000Y-87855000D01*
X152313000Y-87850000D01*
X152316000Y-87846000D01*
X152319000Y-87841000D01*
X152322000Y-87837000D01*
X152326000Y-87833000D01*
X152329000Y-87829000D01*
X152333000Y-87826000D01*
X152337000Y-87822000D01*
X152341000Y-87819000D01*
X152346000Y-87816000D01*
X152350000Y-87813000D01*
X152355000Y-87811000D01*
X152359000Y-87809000D01*
X152364000Y-87807000D01*
X152369000Y-87805000D01*
X152374000Y-87803000D01*
X152379000Y-87802000D01*
X152384000Y-87801000D01*
X152390000Y-87801000D01*
X152395000Y-87800000D01*
X152400000Y-87800000D01*
X153100000Y-87800000D01*
X153105000Y-87800000D01*
X153110000Y-87801000D01*
G36*
X153110000Y-87801000D02*
G01*
X153116000Y-87801000D01*
X153121000Y-87802000D01*
X153126000Y-87803000D01*
X153131000Y-87805000D01*
X153136000Y-87807000D01*
X153141000Y-87809000D01*
X153145000Y-87811000D01*
X153150000Y-87813000D01*
X153154000Y-87816000D01*
X153159000Y-87819000D01*
X153163000Y-87822000D01*
X153167000Y-87826000D01*
X153171000Y-87829000D01*
X153174000Y-87833000D01*
X153178000Y-87837000D01*
X153181000Y-87841000D01*
X153184000Y-87846000D01*
X153187000Y-87850000D01*
X153189000Y-87855000D01*
X153191000Y-87859000D01*
X153193000Y-87864000D01*
X153195000Y-87869000D01*
X153197000Y-87874000D01*
X153198000Y-87879000D01*
X153199000Y-87884000D01*
X153199000Y-87890000D01*
X153200000Y-87895000D01*
X153200000Y-87900000D01*
X153200000Y-88050000D01*
X153200000Y-88055000D01*
X153199000Y-88060000D01*
X153199000Y-88066000D01*
X153198000Y-88071000D01*
X153197000Y-88076000D01*
X153195000Y-88081000D01*
X153193000Y-88086000D01*
X153191000Y-88091000D01*
X153189000Y-88095000D01*
X153187000Y-88100000D01*
X153184000Y-88104000D01*
X153181000Y-88109000D01*
X153178000Y-88113000D01*
X153174000Y-88117000D01*
X153171000Y-88121000D01*
X153167000Y-88124000D01*
X153163000Y-88128000D01*
X153159000Y-88131000D01*
X153154000Y-88134000D01*
X153150000Y-88137000D01*
X153145000Y-88139000D01*
X153141000Y-88141000D01*
X153136000Y-88143000D01*
X153131000Y-88145000D01*
X153126000Y-88147000D01*
X153121000Y-88148000D01*
X153116000Y-88149000D01*
X153110000Y-88149000D01*
X153105000Y-88150000D01*
X153100000Y-88150000D01*
X152400000Y-88150000D01*
X152395000Y-88150000D01*
X152390000Y-88149000D01*
X152384000Y-88149000D01*
X152379000Y-88148000D01*
X152374000Y-88147000D01*
X152369000Y-88145000D01*
X152364000Y-88143000D01*
X152359000Y-88141000D01*
X152355000Y-88139000D01*
X152350000Y-88137000D01*
X152346000Y-88134000D01*
X152341000Y-88131000D01*
X152337000Y-88128000D01*
X152333000Y-88124000D01*
X152329000Y-88121000D01*
X152326000Y-88117000D01*
X152322000Y-88113000D01*
X152319000Y-88109000D01*
X152316000Y-88104000D01*
X152313000Y-88100000D01*
X152311000Y-88095000D01*
X152309000Y-88091000D01*
X152307000Y-88086000D01*
X152305000Y-88081000D01*
X152303000Y-88076000D01*
X152302000Y-88071000D01*
X152301000Y-88066000D01*
X152301000Y-88060000D01*
X152300000Y-88055000D01*
X152300000Y-88050000D01*
X152300000Y-87900000D01*
X152300000Y-87895000D01*
X152301000Y-87890000D01*
X152301000Y-87884000D01*
X152302000Y-87879000D01*
X152303000Y-87874000D01*
X152305000Y-87869000D01*
X152307000Y-87864000D01*
X152309000Y-87859000D01*
X152311000Y-87855000D01*
X152313000Y-87850000D01*
X152316000Y-87846000D01*
X152319000Y-87841000D01*
X152322000Y-87837000D01*
X152326000Y-87833000D01*
X152329000Y-87829000D01*
X152333000Y-87826000D01*
X152337000Y-87822000D01*
X152341000Y-87819000D01*
X152346000Y-87816000D01*
X152350000Y-87813000D01*
X152355000Y-87811000D01*
X152359000Y-87809000D01*
X152364000Y-87807000D01*
X152369000Y-87805000D01*
X152374000Y-87803000D01*
X152379000Y-87802000D01*
X152384000Y-87801000D01*
X152390000Y-87801000D01*
X152395000Y-87800000D01*
X152400000Y-87800000D01*
X153100000Y-87800000D01*
X153105000Y-87800000D01*
X153110000Y-87801000D01*
G37*
X154085000Y-88351000D02*
X154091000Y-88351000D01*
X154096000Y-88352000D01*
X154101000Y-88353000D01*
X154106000Y-88355000D01*
X154111000Y-88357000D01*
X154116000Y-88359000D01*
X154120000Y-88361000D01*
X154125000Y-88363000D01*
X154129000Y-88366000D01*
X154134000Y-88369000D01*
X154138000Y-88372000D01*
X154142000Y-88376000D01*
X154146000Y-88379000D01*
X154149000Y-88383000D01*
X154153000Y-88387000D01*
X154156000Y-88391000D01*
X154159000Y-88396000D01*
X154162000Y-88400000D01*
X154164000Y-88405000D01*
X154166000Y-88409000D01*
X154168000Y-88414000D01*
X154170000Y-88419000D01*
X154172000Y-88424000D01*
X154173000Y-88429000D01*
X154174000Y-88434000D01*
X154174000Y-88440000D01*
X154175000Y-88445000D01*
X154175000Y-88450000D01*
X154175000Y-88900000D01*
X154175000Y-88905000D01*
X154174000Y-88910000D01*
X154174000Y-88916000D01*
X154173000Y-88921000D01*
X154172000Y-88926000D01*
X154170000Y-88931000D01*
X154168000Y-88936000D01*
X154166000Y-88941000D01*
X154164000Y-88945000D01*
X154162000Y-88950000D01*
X154159000Y-88954000D01*
X154156000Y-88959000D01*
X154153000Y-88963000D01*
X154149000Y-88967000D01*
X154146000Y-88971000D01*
X154142000Y-88974000D01*
X154138000Y-88978000D01*
X154134000Y-88981000D01*
X154129000Y-88984000D01*
X154125000Y-88987000D01*
X154120000Y-88989000D01*
X154116000Y-88991000D01*
X154111000Y-88993000D01*
X154106000Y-88995000D01*
X154101000Y-88997000D01*
X154096000Y-88998000D01*
X154091000Y-88999000D01*
X154085000Y-88999000D01*
X154080000Y-89000000D01*
X154075000Y-89000000D01*
X153875000Y-89000000D01*
X153870000Y-89000000D01*
X153865000Y-88999000D01*
X153859000Y-88999000D01*
X153854000Y-88998000D01*
X153849000Y-88997000D01*
X153844000Y-88995000D01*
X153839000Y-88993000D01*
X153834000Y-88991000D01*
X153830000Y-88989000D01*
X153825000Y-88987000D01*
X153821000Y-88984000D01*
X153816000Y-88981000D01*
X153812000Y-88978000D01*
X153808000Y-88974000D01*
X153804000Y-88971000D01*
X153801000Y-88967000D01*
X153797000Y-88963000D01*
X153794000Y-88959000D01*
X153791000Y-88954000D01*
X153788000Y-88950000D01*
X153786000Y-88945000D01*
X153784000Y-88941000D01*
X153782000Y-88936000D01*
X153780000Y-88931000D01*
X153778000Y-88926000D01*
X153777000Y-88921000D01*
X153776000Y-88916000D01*
X153776000Y-88910000D01*
X153775000Y-88905000D01*
X153775000Y-88900000D01*
X153775000Y-88450000D01*
X153775000Y-88445000D01*
X153776000Y-88440000D01*
X153776000Y-88434000D01*
X153777000Y-88429000D01*
X153778000Y-88424000D01*
X153780000Y-88419000D01*
X153782000Y-88414000D01*
X153784000Y-88409000D01*
X153786000Y-88405000D01*
X153788000Y-88400000D01*
X153791000Y-88396000D01*
X153794000Y-88391000D01*
X153797000Y-88387000D01*
X153801000Y-88383000D01*
X153804000Y-88379000D01*
X153808000Y-88376000D01*
X153812000Y-88372000D01*
X153816000Y-88369000D01*
X153821000Y-88366000D01*
X153825000Y-88363000D01*
X153830000Y-88361000D01*
X153834000Y-88359000D01*
X153839000Y-88357000D01*
X153844000Y-88355000D01*
X153849000Y-88353000D01*
X153854000Y-88352000D01*
X153859000Y-88351000D01*
X153865000Y-88351000D01*
X153870000Y-88350000D01*
X153875000Y-88350000D01*
X154075000Y-88350000D01*
X154080000Y-88350000D01*
X154085000Y-88351000D01*
G36*
X154085000Y-88351000D02*
G01*
X154091000Y-88351000D01*
X154096000Y-88352000D01*
X154101000Y-88353000D01*
X154106000Y-88355000D01*
X154111000Y-88357000D01*
X154116000Y-88359000D01*
X154120000Y-88361000D01*
X154125000Y-88363000D01*
X154129000Y-88366000D01*
X154134000Y-88369000D01*
X154138000Y-88372000D01*
X154142000Y-88376000D01*
X154146000Y-88379000D01*
X154149000Y-88383000D01*
X154153000Y-88387000D01*
X154156000Y-88391000D01*
X154159000Y-88396000D01*
X154162000Y-88400000D01*
X154164000Y-88405000D01*
X154166000Y-88409000D01*
X154168000Y-88414000D01*
X154170000Y-88419000D01*
X154172000Y-88424000D01*
X154173000Y-88429000D01*
X154174000Y-88434000D01*
X154174000Y-88440000D01*
X154175000Y-88445000D01*
X154175000Y-88450000D01*
X154175000Y-88900000D01*
X154175000Y-88905000D01*
X154174000Y-88910000D01*
X154174000Y-88916000D01*
X154173000Y-88921000D01*
X154172000Y-88926000D01*
X154170000Y-88931000D01*
X154168000Y-88936000D01*
X154166000Y-88941000D01*
X154164000Y-88945000D01*
X154162000Y-88950000D01*
X154159000Y-88954000D01*
X154156000Y-88959000D01*
X154153000Y-88963000D01*
X154149000Y-88967000D01*
X154146000Y-88971000D01*
X154142000Y-88974000D01*
X154138000Y-88978000D01*
X154134000Y-88981000D01*
X154129000Y-88984000D01*
X154125000Y-88987000D01*
X154120000Y-88989000D01*
X154116000Y-88991000D01*
X154111000Y-88993000D01*
X154106000Y-88995000D01*
X154101000Y-88997000D01*
X154096000Y-88998000D01*
X154091000Y-88999000D01*
X154085000Y-88999000D01*
X154080000Y-89000000D01*
X154075000Y-89000000D01*
X153875000Y-89000000D01*
X153870000Y-89000000D01*
X153865000Y-88999000D01*
X153859000Y-88999000D01*
X153854000Y-88998000D01*
X153849000Y-88997000D01*
X153844000Y-88995000D01*
X153839000Y-88993000D01*
X153834000Y-88991000D01*
X153830000Y-88989000D01*
X153825000Y-88987000D01*
X153821000Y-88984000D01*
X153816000Y-88981000D01*
X153812000Y-88978000D01*
X153808000Y-88974000D01*
X153804000Y-88971000D01*
X153801000Y-88967000D01*
X153797000Y-88963000D01*
X153794000Y-88959000D01*
X153791000Y-88954000D01*
X153788000Y-88950000D01*
X153786000Y-88945000D01*
X153784000Y-88941000D01*
X153782000Y-88936000D01*
X153780000Y-88931000D01*
X153778000Y-88926000D01*
X153777000Y-88921000D01*
X153776000Y-88916000D01*
X153776000Y-88910000D01*
X153775000Y-88905000D01*
X153775000Y-88900000D01*
X153775000Y-88450000D01*
X153775000Y-88445000D01*
X153776000Y-88440000D01*
X153776000Y-88434000D01*
X153777000Y-88429000D01*
X153778000Y-88424000D01*
X153780000Y-88419000D01*
X153782000Y-88414000D01*
X153784000Y-88409000D01*
X153786000Y-88405000D01*
X153788000Y-88400000D01*
X153791000Y-88396000D01*
X153794000Y-88391000D01*
X153797000Y-88387000D01*
X153801000Y-88383000D01*
X153804000Y-88379000D01*
X153808000Y-88376000D01*
X153812000Y-88372000D01*
X153816000Y-88369000D01*
X153821000Y-88366000D01*
X153825000Y-88363000D01*
X153830000Y-88361000D01*
X153834000Y-88359000D01*
X153839000Y-88357000D01*
X153844000Y-88355000D01*
X153849000Y-88353000D01*
X153854000Y-88352000D01*
X153859000Y-88351000D01*
X153865000Y-88351000D01*
X153870000Y-88350000D01*
X153875000Y-88350000D01*
X154075000Y-88350000D01*
X154080000Y-88350000D01*
X154085000Y-88351000D01*
G37*
X153535000Y-88301000D02*
X153541000Y-88301000D01*
X153546000Y-88302000D01*
X153551000Y-88303000D01*
X153556000Y-88305000D01*
X153561000Y-88307000D01*
X153566000Y-88309000D01*
X153570000Y-88311000D01*
X153575000Y-88313000D01*
X153579000Y-88316000D01*
X153584000Y-88319000D01*
X153588000Y-88322000D01*
X153592000Y-88326000D01*
X153596000Y-88329000D01*
X153599000Y-88333000D01*
X153603000Y-88337000D01*
X153606000Y-88341000D01*
X153609000Y-88346000D01*
X153612000Y-88350000D01*
X153614000Y-88355000D01*
X153616000Y-88359000D01*
X153618000Y-88364000D01*
X153620000Y-88369000D01*
X153622000Y-88374000D01*
X153623000Y-88379000D01*
X153624000Y-88384000D01*
X153624000Y-88390000D01*
X153625000Y-88395000D01*
X153625000Y-88400000D01*
X153625000Y-88900000D01*
X153625000Y-88905000D01*
X153624000Y-88910000D01*
X153624000Y-88916000D01*
X153623000Y-88921000D01*
X153622000Y-88926000D01*
X153620000Y-88931000D01*
X153618000Y-88936000D01*
X153616000Y-88941000D01*
X153614000Y-88945000D01*
X153612000Y-88950000D01*
X153609000Y-88954000D01*
X153606000Y-88959000D01*
X153603000Y-88963000D01*
X153599000Y-88967000D01*
X153596000Y-88971000D01*
X153592000Y-88974000D01*
X153588000Y-88978000D01*
X153584000Y-88981000D01*
X153579000Y-88984000D01*
X153575000Y-88987000D01*
X153570000Y-88989000D01*
X153566000Y-88991000D01*
X153561000Y-88993000D01*
X153556000Y-88995000D01*
X153551000Y-88997000D01*
X153546000Y-88998000D01*
X153541000Y-88999000D01*
X153535000Y-88999000D01*
X153530000Y-89000000D01*
X153525000Y-89000000D01*
X153275000Y-89000000D01*
X153270000Y-89000000D01*
X153265000Y-88999000D01*
X153259000Y-88999000D01*
X153254000Y-88998000D01*
X153249000Y-88997000D01*
X153244000Y-88995000D01*
X153239000Y-88993000D01*
X153234000Y-88991000D01*
X153230000Y-88989000D01*
X153225000Y-88987000D01*
X153221000Y-88984000D01*
X153216000Y-88981000D01*
X153212000Y-88978000D01*
X153208000Y-88974000D01*
X153204000Y-88971000D01*
X153201000Y-88967000D01*
X153197000Y-88963000D01*
X153194000Y-88959000D01*
X153191000Y-88954000D01*
X153188000Y-88950000D01*
X153186000Y-88945000D01*
X153184000Y-88941000D01*
X153182000Y-88936000D01*
X153180000Y-88931000D01*
X153178000Y-88926000D01*
X153177000Y-88921000D01*
X153176000Y-88916000D01*
X153176000Y-88910000D01*
X153175000Y-88905000D01*
X153175000Y-88900000D01*
X153175000Y-88700000D01*
X153175000Y-88697000D01*
X153175000Y-88695000D01*
X153174000Y-88692000D01*
X153174000Y-88690000D01*
X153173000Y-88687000D01*
X153173000Y-88685000D01*
X153172000Y-88682000D01*
X153171000Y-88680000D01*
X153170000Y-88677000D01*
X153168000Y-88675000D01*
X153167000Y-88673000D01*
X153165000Y-88671000D01*
X153164000Y-88669000D01*
X153162000Y-88667000D01*
X153160000Y-88665000D01*
X153158000Y-88663000D01*
X153156000Y-88661000D01*
X153154000Y-88660000D01*
X153152000Y-88658000D01*
X153150000Y-88657000D01*
X153148000Y-88655000D01*
X153145000Y-88654000D01*
X153143000Y-88653000D01*
X153140000Y-88652000D01*
X153138000Y-88652000D01*
X153135000Y-88651000D01*
X153133000Y-88651000D01*
X153130000Y-88650000D01*
X153128000Y-88650000D01*
X153125000Y-88650000D01*
X152400000Y-88650000D01*
X152395000Y-88650000D01*
X152390000Y-88649000D01*
X152384000Y-88649000D01*
X152379000Y-88648000D01*
X152374000Y-88647000D01*
X152369000Y-88645000D01*
X152364000Y-88643000D01*
X152359000Y-88641000D01*
X152355000Y-88639000D01*
X152350000Y-88637000D01*
X152346000Y-88634000D01*
X152341000Y-88631000D01*
X152337000Y-88628000D01*
X152333000Y-88624000D01*
X152329000Y-88621000D01*
X152326000Y-88617000D01*
X152322000Y-88613000D01*
X152319000Y-88609000D01*
X152316000Y-88604000D01*
X152313000Y-88600000D01*
X152311000Y-88595000D01*
X152309000Y-88591000D01*
X152307000Y-88586000D01*
X152305000Y-88581000D01*
X152303000Y-88576000D01*
X152302000Y-88571000D01*
X152301000Y-88566000D01*
X152301000Y-88560000D01*
X152300000Y-88555000D01*
X152300000Y-88550000D01*
X152300000Y-88400000D01*
X152300000Y-88395000D01*
X152301000Y-88390000D01*
X152301000Y-88384000D01*
X152302000Y-88379000D01*
X152303000Y-88374000D01*
X152305000Y-88369000D01*
X152307000Y-88364000D01*
X152309000Y-88359000D01*
X152311000Y-88355000D01*
X152313000Y-88350000D01*
X152316000Y-88346000D01*
X152319000Y-88341000D01*
X152322000Y-88337000D01*
X152326000Y-88333000D01*
X152329000Y-88329000D01*
X152333000Y-88326000D01*
X152337000Y-88322000D01*
X152341000Y-88319000D01*
X152346000Y-88316000D01*
X152350000Y-88313000D01*
X152355000Y-88311000D01*
X152359000Y-88309000D01*
X152364000Y-88307000D01*
X152369000Y-88305000D01*
X152374000Y-88303000D01*
X152379000Y-88302000D01*
X152384000Y-88301000D01*
X152390000Y-88301000D01*
X152395000Y-88300000D01*
X152400000Y-88300000D01*
X153525000Y-88300000D01*
X153530000Y-88300000D01*
X153535000Y-88301000D01*
G36*
X153535000Y-88301000D02*
G01*
X153541000Y-88301000D01*
X153546000Y-88302000D01*
X153551000Y-88303000D01*
X153556000Y-88305000D01*
X153561000Y-88307000D01*
X153566000Y-88309000D01*
X153570000Y-88311000D01*
X153575000Y-88313000D01*
X153579000Y-88316000D01*
X153584000Y-88319000D01*
X153588000Y-88322000D01*
X153592000Y-88326000D01*
X153596000Y-88329000D01*
X153599000Y-88333000D01*
X153603000Y-88337000D01*
X153606000Y-88341000D01*
X153609000Y-88346000D01*
X153612000Y-88350000D01*
X153614000Y-88355000D01*
X153616000Y-88359000D01*
X153618000Y-88364000D01*
X153620000Y-88369000D01*
X153622000Y-88374000D01*
X153623000Y-88379000D01*
X153624000Y-88384000D01*
X153624000Y-88390000D01*
X153625000Y-88395000D01*
X153625000Y-88400000D01*
X153625000Y-88900000D01*
X153625000Y-88905000D01*
X153624000Y-88910000D01*
X153624000Y-88916000D01*
X153623000Y-88921000D01*
X153622000Y-88926000D01*
X153620000Y-88931000D01*
X153618000Y-88936000D01*
X153616000Y-88941000D01*
X153614000Y-88945000D01*
X153612000Y-88950000D01*
X153609000Y-88954000D01*
X153606000Y-88959000D01*
X153603000Y-88963000D01*
X153599000Y-88967000D01*
X153596000Y-88971000D01*
X153592000Y-88974000D01*
X153588000Y-88978000D01*
X153584000Y-88981000D01*
X153579000Y-88984000D01*
X153575000Y-88987000D01*
X153570000Y-88989000D01*
X153566000Y-88991000D01*
X153561000Y-88993000D01*
X153556000Y-88995000D01*
X153551000Y-88997000D01*
X153546000Y-88998000D01*
X153541000Y-88999000D01*
X153535000Y-88999000D01*
X153530000Y-89000000D01*
X153525000Y-89000000D01*
X153275000Y-89000000D01*
X153270000Y-89000000D01*
X153265000Y-88999000D01*
X153259000Y-88999000D01*
X153254000Y-88998000D01*
X153249000Y-88997000D01*
X153244000Y-88995000D01*
X153239000Y-88993000D01*
X153234000Y-88991000D01*
X153230000Y-88989000D01*
X153225000Y-88987000D01*
X153221000Y-88984000D01*
X153216000Y-88981000D01*
X153212000Y-88978000D01*
X153208000Y-88974000D01*
X153204000Y-88971000D01*
X153201000Y-88967000D01*
X153197000Y-88963000D01*
X153194000Y-88959000D01*
X153191000Y-88954000D01*
X153188000Y-88950000D01*
X153186000Y-88945000D01*
X153184000Y-88941000D01*
X153182000Y-88936000D01*
X153180000Y-88931000D01*
X153178000Y-88926000D01*
X153177000Y-88921000D01*
X153176000Y-88916000D01*
X153176000Y-88910000D01*
X153175000Y-88905000D01*
X153175000Y-88900000D01*
X153175000Y-88700000D01*
X153175000Y-88697000D01*
X153175000Y-88695000D01*
X153174000Y-88692000D01*
X153174000Y-88690000D01*
X153173000Y-88687000D01*
X153173000Y-88685000D01*
X153172000Y-88682000D01*
X153171000Y-88680000D01*
X153170000Y-88677000D01*
X153168000Y-88675000D01*
X153167000Y-88673000D01*
X153165000Y-88671000D01*
X153164000Y-88669000D01*
X153162000Y-88667000D01*
X153160000Y-88665000D01*
X153158000Y-88663000D01*
X153156000Y-88661000D01*
X153154000Y-88660000D01*
X153152000Y-88658000D01*
X153150000Y-88657000D01*
X153148000Y-88655000D01*
X153145000Y-88654000D01*
X153143000Y-88653000D01*
X153140000Y-88652000D01*
X153138000Y-88652000D01*
X153135000Y-88651000D01*
X153133000Y-88651000D01*
X153130000Y-88650000D01*
X153128000Y-88650000D01*
X153125000Y-88650000D01*
X152400000Y-88650000D01*
X152395000Y-88650000D01*
X152390000Y-88649000D01*
X152384000Y-88649000D01*
X152379000Y-88648000D01*
X152374000Y-88647000D01*
X152369000Y-88645000D01*
X152364000Y-88643000D01*
X152359000Y-88641000D01*
X152355000Y-88639000D01*
X152350000Y-88637000D01*
X152346000Y-88634000D01*
X152341000Y-88631000D01*
X152337000Y-88628000D01*
X152333000Y-88624000D01*
X152329000Y-88621000D01*
X152326000Y-88617000D01*
X152322000Y-88613000D01*
X152319000Y-88609000D01*
X152316000Y-88604000D01*
X152313000Y-88600000D01*
X152311000Y-88595000D01*
X152309000Y-88591000D01*
X152307000Y-88586000D01*
X152305000Y-88581000D01*
X152303000Y-88576000D01*
X152302000Y-88571000D01*
X152301000Y-88566000D01*
X152301000Y-88560000D01*
X152300000Y-88555000D01*
X152300000Y-88550000D01*
X152300000Y-88400000D01*
X152300000Y-88395000D01*
X152301000Y-88390000D01*
X152301000Y-88384000D01*
X152302000Y-88379000D01*
X152303000Y-88374000D01*
X152305000Y-88369000D01*
X152307000Y-88364000D01*
X152309000Y-88359000D01*
X152311000Y-88355000D01*
X152313000Y-88350000D01*
X152316000Y-88346000D01*
X152319000Y-88341000D01*
X152322000Y-88337000D01*
X152326000Y-88333000D01*
X152329000Y-88329000D01*
X152333000Y-88326000D01*
X152337000Y-88322000D01*
X152341000Y-88319000D01*
X152346000Y-88316000D01*
X152350000Y-88313000D01*
X152355000Y-88311000D01*
X152359000Y-88309000D01*
X152364000Y-88307000D01*
X152369000Y-88305000D01*
X152374000Y-88303000D01*
X152379000Y-88302000D01*
X152384000Y-88301000D01*
X152390000Y-88301000D01*
X152395000Y-88300000D01*
X152400000Y-88300000D01*
X153525000Y-88300000D01*
X153530000Y-88300000D01*
X153535000Y-88301000D01*
G37*
X156010000Y-88301000D02*
X156016000Y-88301000D01*
X156021000Y-88302000D01*
X156026000Y-88303000D01*
X156031000Y-88305000D01*
X156036000Y-88307000D01*
X156041000Y-88309000D01*
X156045000Y-88311000D01*
X156050000Y-88313000D01*
X156054000Y-88316000D01*
X156059000Y-88319000D01*
X156063000Y-88322000D01*
X156067000Y-88326000D01*
X156071000Y-88329000D01*
X156074000Y-88333000D01*
X156078000Y-88337000D01*
X156081000Y-88341000D01*
X156084000Y-88346000D01*
X156087000Y-88350000D01*
X156089000Y-88355000D01*
X156091000Y-88359000D01*
X156093000Y-88364000D01*
X156095000Y-88369000D01*
X156097000Y-88374000D01*
X156098000Y-88379000D01*
X156099000Y-88384000D01*
X156099000Y-88390000D01*
X156100000Y-88395000D01*
X156100000Y-88400000D01*
X156100000Y-88550000D01*
X156100000Y-88555000D01*
X156099000Y-88560000D01*
X156099000Y-88566000D01*
X156098000Y-88571000D01*
X156097000Y-88576000D01*
X156095000Y-88581000D01*
X156093000Y-88586000D01*
X156091000Y-88591000D01*
X156089000Y-88595000D01*
X156087000Y-88600000D01*
X156084000Y-88604000D01*
X156081000Y-88609000D01*
X156078000Y-88613000D01*
X156074000Y-88617000D01*
X156071000Y-88621000D01*
X156067000Y-88624000D01*
X156063000Y-88628000D01*
X156059000Y-88631000D01*
X156054000Y-88634000D01*
X156050000Y-88637000D01*
X156045000Y-88639000D01*
X156041000Y-88641000D01*
X156036000Y-88643000D01*
X156031000Y-88645000D01*
X156026000Y-88647000D01*
X156021000Y-88648000D01*
X156016000Y-88649000D01*
X156010000Y-88649000D01*
X156005000Y-88650000D01*
X156000000Y-88650000D01*
X155275000Y-88650000D01*
X155272000Y-88650000D01*
X155270000Y-88650000D01*
X155267000Y-88651000D01*
X155265000Y-88651000D01*
X155262000Y-88652000D01*
X155260000Y-88652000D01*
X155257000Y-88653000D01*
X155255000Y-88654000D01*
X155252000Y-88655000D01*
X155250000Y-88657000D01*
X155248000Y-88658000D01*
X155246000Y-88660000D01*
X155244000Y-88661000D01*
X155242000Y-88663000D01*
X155240000Y-88665000D01*
X155238000Y-88667000D01*
X155236000Y-88669000D01*
X155235000Y-88671000D01*
X155233000Y-88673000D01*
X155232000Y-88675000D01*
X155230000Y-88677000D01*
X155229000Y-88680000D01*
X155228000Y-88682000D01*
X155227000Y-88685000D01*
X155227000Y-88687000D01*
X155226000Y-88690000D01*
X155226000Y-88692000D01*
X155225000Y-88695000D01*
X155225000Y-88697000D01*
X155225000Y-88700000D01*
X155225000Y-88900000D01*
X155225000Y-88905000D01*
X155224000Y-88910000D01*
X155224000Y-88916000D01*
X155223000Y-88921000D01*
X155222000Y-88926000D01*
X155220000Y-88931000D01*
X155218000Y-88936000D01*
X155216000Y-88941000D01*
X155214000Y-88945000D01*
X155212000Y-88950000D01*
X155209000Y-88954000D01*
X155206000Y-88959000D01*
X155203000Y-88963000D01*
X155199000Y-88967000D01*
X155196000Y-88971000D01*
X155192000Y-88974000D01*
X155188000Y-88978000D01*
X155184000Y-88981000D01*
X155179000Y-88984000D01*
X155175000Y-88987000D01*
X155170000Y-88989000D01*
X155166000Y-88991000D01*
X155161000Y-88993000D01*
X155156000Y-88995000D01*
X155151000Y-88997000D01*
X155146000Y-88998000D01*
X155141000Y-88999000D01*
X155135000Y-88999000D01*
X155130000Y-89000000D01*
X155125000Y-89000000D01*
X154875000Y-89000000D01*
X154870000Y-89000000D01*
X154865000Y-88999000D01*
X154859000Y-88999000D01*
X154854000Y-88998000D01*
X154849000Y-88997000D01*
X154844000Y-88995000D01*
X154839000Y-88993000D01*
X154834000Y-88991000D01*
X154830000Y-88989000D01*
X154825000Y-88987000D01*
X154821000Y-88984000D01*
X154816000Y-88981000D01*
X154812000Y-88978000D01*
X154808000Y-88974000D01*
X154804000Y-88971000D01*
X154801000Y-88967000D01*
X154797000Y-88963000D01*
X154794000Y-88959000D01*
X154791000Y-88954000D01*
X154788000Y-88950000D01*
X154786000Y-88945000D01*
X154784000Y-88941000D01*
X154782000Y-88936000D01*
X154780000Y-88931000D01*
X154778000Y-88926000D01*
X154777000Y-88921000D01*
X154776000Y-88916000D01*
X154776000Y-88910000D01*
X154775000Y-88905000D01*
X154775000Y-88900000D01*
X154775000Y-88400000D01*
X154775000Y-88395000D01*
X154776000Y-88390000D01*
X154776000Y-88384000D01*
X154777000Y-88379000D01*
X154778000Y-88374000D01*
X154780000Y-88369000D01*
X154782000Y-88364000D01*
X154784000Y-88359000D01*
X154786000Y-88355000D01*
X154788000Y-88350000D01*
X154791000Y-88346000D01*
X154794000Y-88341000D01*
X154797000Y-88337000D01*
X154801000Y-88333000D01*
X154804000Y-88329000D01*
X154808000Y-88326000D01*
X154812000Y-88322000D01*
X154816000Y-88319000D01*
X154821000Y-88316000D01*
X154825000Y-88313000D01*
X154830000Y-88311000D01*
X154834000Y-88309000D01*
X154839000Y-88307000D01*
X154844000Y-88305000D01*
X154849000Y-88303000D01*
X154854000Y-88302000D01*
X154859000Y-88301000D01*
X154865000Y-88301000D01*
X154870000Y-88300000D01*
X154875000Y-88300000D01*
X156000000Y-88300000D01*
X156005000Y-88300000D01*
X156010000Y-88301000D01*
G36*
X156010000Y-88301000D02*
G01*
X156016000Y-88301000D01*
X156021000Y-88302000D01*
X156026000Y-88303000D01*
X156031000Y-88305000D01*
X156036000Y-88307000D01*
X156041000Y-88309000D01*
X156045000Y-88311000D01*
X156050000Y-88313000D01*
X156054000Y-88316000D01*
X156059000Y-88319000D01*
X156063000Y-88322000D01*
X156067000Y-88326000D01*
X156071000Y-88329000D01*
X156074000Y-88333000D01*
X156078000Y-88337000D01*
X156081000Y-88341000D01*
X156084000Y-88346000D01*
X156087000Y-88350000D01*
X156089000Y-88355000D01*
X156091000Y-88359000D01*
X156093000Y-88364000D01*
X156095000Y-88369000D01*
X156097000Y-88374000D01*
X156098000Y-88379000D01*
X156099000Y-88384000D01*
X156099000Y-88390000D01*
X156100000Y-88395000D01*
X156100000Y-88400000D01*
X156100000Y-88550000D01*
X156100000Y-88555000D01*
X156099000Y-88560000D01*
X156099000Y-88566000D01*
X156098000Y-88571000D01*
X156097000Y-88576000D01*
X156095000Y-88581000D01*
X156093000Y-88586000D01*
X156091000Y-88591000D01*
X156089000Y-88595000D01*
X156087000Y-88600000D01*
X156084000Y-88604000D01*
X156081000Y-88609000D01*
X156078000Y-88613000D01*
X156074000Y-88617000D01*
X156071000Y-88621000D01*
X156067000Y-88624000D01*
X156063000Y-88628000D01*
X156059000Y-88631000D01*
X156054000Y-88634000D01*
X156050000Y-88637000D01*
X156045000Y-88639000D01*
X156041000Y-88641000D01*
X156036000Y-88643000D01*
X156031000Y-88645000D01*
X156026000Y-88647000D01*
X156021000Y-88648000D01*
X156016000Y-88649000D01*
X156010000Y-88649000D01*
X156005000Y-88650000D01*
X156000000Y-88650000D01*
X155275000Y-88650000D01*
X155272000Y-88650000D01*
X155270000Y-88650000D01*
X155267000Y-88651000D01*
X155265000Y-88651000D01*
X155262000Y-88652000D01*
X155260000Y-88652000D01*
X155257000Y-88653000D01*
X155255000Y-88654000D01*
X155252000Y-88655000D01*
X155250000Y-88657000D01*
X155248000Y-88658000D01*
X155246000Y-88660000D01*
X155244000Y-88661000D01*
X155242000Y-88663000D01*
X155240000Y-88665000D01*
X155238000Y-88667000D01*
X155236000Y-88669000D01*
X155235000Y-88671000D01*
X155233000Y-88673000D01*
X155232000Y-88675000D01*
X155230000Y-88677000D01*
X155229000Y-88680000D01*
X155228000Y-88682000D01*
X155227000Y-88685000D01*
X155227000Y-88687000D01*
X155226000Y-88690000D01*
X155226000Y-88692000D01*
X155225000Y-88695000D01*
X155225000Y-88697000D01*
X155225000Y-88700000D01*
X155225000Y-88900000D01*
X155225000Y-88905000D01*
X155224000Y-88910000D01*
X155224000Y-88916000D01*
X155223000Y-88921000D01*
X155222000Y-88926000D01*
X155220000Y-88931000D01*
X155218000Y-88936000D01*
X155216000Y-88941000D01*
X155214000Y-88945000D01*
X155212000Y-88950000D01*
X155209000Y-88954000D01*
X155206000Y-88959000D01*
X155203000Y-88963000D01*
X155199000Y-88967000D01*
X155196000Y-88971000D01*
X155192000Y-88974000D01*
X155188000Y-88978000D01*
X155184000Y-88981000D01*
X155179000Y-88984000D01*
X155175000Y-88987000D01*
X155170000Y-88989000D01*
X155166000Y-88991000D01*
X155161000Y-88993000D01*
X155156000Y-88995000D01*
X155151000Y-88997000D01*
X155146000Y-88998000D01*
X155141000Y-88999000D01*
X155135000Y-88999000D01*
X155130000Y-89000000D01*
X155125000Y-89000000D01*
X154875000Y-89000000D01*
X154870000Y-89000000D01*
X154865000Y-88999000D01*
X154859000Y-88999000D01*
X154854000Y-88998000D01*
X154849000Y-88997000D01*
X154844000Y-88995000D01*
X154839000Y-88993000D01*
X154834000Y-88991000D01*
X154830000Y-88989000D01*
X154825000Y-88987000D01*
X154821000Y-88984000D01*
X154816000Y-88981000D01*
X154812000Y-88978000D01*
X154808000Y-88974000D01*
X154804000Y-88971000D01*
X154801000Y-88967000D01*
X154797000Y-88963000D01*
X154794000Y-88959000D01*
X154791000Y-88954000D01*
X154788000Y-88950000D01*
X154786000Y-88945000D01*
X154784000Y-88941000D01*
X154782000Y-88936000D01*
X154780000Y-88931000D01*
X154778000Y-88926000D01*
X154777000Y-88921000D01*
X154776000Y-88916000D01*
X154776000Y-88910000D01*
X154775000Y-88905000D01*
X154775000Y-88900000D01*
X154775000Y-88400000D01*
X154775000Y-88395000D01*
X154776000Y-88390000D01*
X154776000Y-88384000D01*
X154777000Y-88379000D01*
X154778000Y-88374000D01*
X154780000Y-88369000D01*
X154782000Y-88364000D01*
X154784000Y-88359000D01*
X154786000Y-88355000D01*
X154788000Y-88350000D01*
X154791000Y-88346000D01*
X154794000Y-88341000D01*
X154797000Y-88337000D01*
X154801000Y-88333000D01*
X154804000Y-88329000D01*
X154808000Y-88326000D01*
X154812000Y-88322000D01*
X154816000Y-88319000D01*
X154821000Y-88316000D01*
X154825000Y-88313000D01*
X154830000Y-88311000D01*
X154834000Y-88309000D01*
X154839000Y-88307000D01*
X154844000Y-88305000D01*
X154849000Y-88303000D01*
X154854000Y-88302000D01*
X154859000Y-88301000D01*
X154865000Y-88301000D01*
X154870000Y-88300000D01*
X154875000Y-88300000D01*
X156000000Y-88300000D01*
X156005000Y-88300000D01*
X156010000Y-88301000D01*
G37*
X154041000Y-86777000D02*
X154046000Y-86778000D01*
X154051000Y-86779000D01*
X154056000Y-86780000D01*
X154061000Y-86782000D01*
X154066000Y-86784000D01*
X154070000Y-86786000D01*
X154075000Y-86789000D01*
X154079000Y-86792000D01*
X154084000Y-86795000D01*
X154088000Y-86798000D01*
X154092000Y-86801000D01*
X154096000Y-86805000D01*
X154099000Y-86809000D01*
X154103000Y-86813000D01*
X154106000Y-86817000D01*
X154109000Y-86821000D01*
X154112000Y-86826000D01*
X154114000Y-86830000D01*
X154116000Y-86835000D01*
X154118000Y-86840000D01*
X154120000Y-86845000D01*
X154122000Y-86850000D01*
X154123000Y-86855000D01*
X154124000Y-86860000D01*
X154124000Y-86865000D01*
X154125000Y-86870000D01*
X154125000Y-86876000D01*
X154125000Y-88100000D01*
X154125000Y-88105000D01*
X154124000Y-88110000D01*
X154124000Y-88116000D01*
X154123000Y-88121000D01*
X154122000Y-88126000D01*
X154120000Y-88131000D01*
X154118000Y-88136000D01*
X154116000Y-88141000D01*
X154114000Y-88145000D01*
X154112000Y-88150000D01*
X154109000Y-88154000D01*
X154106000Y-88159000D01*
X154103000Y-88163000D01*
X154099000Y-88167000D01*
X154096000Y-88171000D01*
X154092000Y-88174000D01*
X154088000Y-88178000D01*
X154084000Y-88181000D01*
X154079000Y-88184000D01*
X154075000Y-88187000D01*
X154070000Y-88189000D01*
X154066000Y-88191000D01*
X154061000Y-88193000D01*
X154056000Y-88195000D01*
X154051000Y-88197000D01*
X154046000Y-88198000D01*
X154041000Y-88199000D01*
X154035000Y-88199000D01*
X154030000Y-88200000D01*
X154025000Y-88200000D01*
X153875000Y-88200000D01*
X153870000Y-88200000D01*
X153865000Y-88199000D01*
X153859000Y-88199000D01*
X153854000Y-88198000D01*
X153849000Y-88197000D01*
X153844000Y-88195000D01*
X153839000Y-88193000D01*
X153834000Y-88191000D01*
X153830000Y-88189000D01*
X153825000Y-88187000D01*
X153821000Y-88184000D01*
X153816000Y-88181000D01*
X153812000Y-88178000D01*
X153808000Y-88174000D01*
X153804000Y-88171000D01*
X153801000Y-88167000D01*
X153797000Y-88163000D01*
X153794000Y-88159000D01*
X153791000Y-88154000D01*
X153788000Y-88150000D01*
X153786000Y-88145000D01*
X153784000Y-88141000D01*
X153782000Y-88136000D01*
X153780000Y-88131000D01*
X153778000Y-88126000D01*
X153777000Y-88121000D01*
X153776000Y-88116000D01*
X153776000Y-88110000D01*
X153775000Y-88105000D01*
X153775000Y-88100000D01*
X153775000Y-87347000D01*
X153775000Y-87345000D01*
X153775000Y-87343000D01*
X153775000Y-87341000D01*
X153775000Y-87339000D01*
X153774000Y-87337000D01*
X153774000Y-87335000D01*
X153774000Y-87333000D01*
X153773000Y-87331000D01*
X153773000Y-87329000D01*
X153772000Y-87327000D01*
X153772000Y-87325000D01*
X153771000Y-87323000D01*
X153771000Y-87322000D01*
X153770000Y-87320000D01*
X153769000Y-87318000D01*
X153769000Y-87316000D01*
X153768000Y-87314000D01*
X153767000Y-87313000D01*
X153766000Y-87311000D01*
X153765000Y-87309000D01*
X153764000Y-87307000D01*
X153763000Y-87306000D01*
X153762000Y-87304000D01*
X153761000Y-87302000D01*
X153760000Y-87301000D01*
X153758000Y-87299000D01*
X153757000Y-87298000D01*
X153756000Y-87296000D01*
X153754000Y-87295000D01*
X153753000Y-87294000D01*
X153632000Y-87172000D01*
X153631000Y-87171000D01*
X153629000Y-87170000D01*
X153628000Y-87168000D01*
X153626000Y-87167000D01*
X153625000Y-87166000D01*
X153623000Y-87165000D01*
X153621000Y-87164000D01*
X153620000Y-87163000D01*
X153618000Y-87162000D01*
X153616000Y-87161000D01*
X153615000Y-87160000D01*
X153613000Y-87159000D01*
X153611000Y-87158000D01*
X153609000Y-87157000D01*
X153608000Y-87156000D01*
X153606000Y-87155000D01*
X153604000Y-87155000D01*
X153602000Y-87154000D01*
X153600000Y-87154000D01*
X153598000Y-87153000D01*
X153596000Y-87153000D01*
X153595000Y-87152000D01*
X153593000Y-87152000D01*
X153591000Y-87151000D01*
X153589000Y-87151000D01*
X153587000Y-87151000D01*
X153585000Y-87151000D01*
X153583000Y-87151000D01*
X153581000Y-87151000D01*
X153579000Y-87150000D01*
X152400000Y-87150000D01*
X152395000Y-87150000D01*
X152390000Y-87150000D01*
X152384000Y-87149000D01*
X152379000Y-87148000D01*
X152374000Y-87147000D01*
X152369000Y-87146000D01*
X152364000Y-87144000D01*
X152359000Y-87142000D01*
X152355000Y-87140000D01*
X152350000Y-87137000D01*
X152346000Y-87134000D01*
X152341000Y-87131000D01*
X152337000Y-87128000D01*
X152333000Y-87125000D01*
X152329000Y-87121000D01*
X152326000Y-87117000D01*
X152322000Y-87113000D01*
X152319000Y-87109000D01*
X152316000Y-87105000D01*
X152313000Y-87101000D01*
X152311000Y-87096000D01*
X152309000Y-87091000D01*
X152307000Y-87086000D01*
X152305000Y-87081000D01*
X152303000Y-87076000D01*
X152302000Y-87071000D01*
X152301000Y-87066000D01*
X152301000Y-87061000D01*
X152300000Y-87056000D01*
X152300000Y-87050000D01*
X152300000Y-86876000D01*
X152300000Y-86870000D01*
X152301000Y-86865000D01*
X152301000Y-86860000D01*
X152302000Y-86855000D01*
X152303000Y-86850000D01*
X152305000Y-86845000D01*
X152307000Y-86840000D01*
X152309000Y-86835000D01*
X152311000Y-86830000D01*
X152313000Y-86825000D01*
X152316000Y-86821000D01*
X152319000Y-86817000D01*
X152322000Y-86813000D01*
X152326000Y-86809000D01*
X152329000Y-86805000D01*
X152333000Y-86801000D01*
X152337000Y-86798000D01*
X152341000Y-86795000D01*
X152346000Y-86792000D01*
X152350000Y-86789000D01*
X152355000Y-86786000D01*
X152359000Y-86784000D01*
X152364000Y-86782000D01*
X152369000Y-86780000D01*
X152374000Y-86779000D01*
X152379000Y-86778000D01*
X152384000Y-86777000D01*
X152390000Y-86776000D01*
X152395000Y-86776000D01*
X152400000Y-86776000D01*
X154025000Y-86776000D01*
X154030000Y-86776000D01*
X154035000Y-86776000D01*
X154041000Y-86777000D01*
G36*
X154041000Y-86777000D02*
G01*
X154046000Y-86778000D01*
X154051000Y-86779000D01*
X154056000Y-86780000D01*
X154061000Y-86782000D01*
X154066000Y-86784000D01*
X154070000Y-86786000D01*
X154075000Y-86789000D01*
X154079000Y-86792000D01*
X154084000Y-86795000D01*
X154088000Y-86798000D01*
X154092000Y-86801000D01*
X154096000Y-86805000D01*
X154099000Y-86809000D01*
X154103000Y-86813000D01*
X154106000Y-86817000D01*
X154109000Y-86821000D01*
X154112000Y-86826000D01*
X154114000Y-86830000D01*
X154116000Y-86835000D01*
X154118000Y-86840000D01*
X154120000Y-86845000D01*
X154122000Y-86850000D01*
X154123000Y-86855000D01*
X154124000Y-86860000D01*
X154124000Y-86865000D01*
X154125000Y-86870000D01*
X154125000Y-86876000D01*
X154125000Y-88100000D01*
X154125000Y-88105000D01*
X154124000Y-88110000D01*
X154124000Y-88116000D01*
X154123000Y-88121000D01*
X154122000Y-88126000D01*
X154120000Y-88131000D01*
X154118000Y-88136000D01*
X154116000Y-88141000D01*
X154114000Y-88145000D01*
X154112000Y-88150000D01*
X154109000Y-88154000D01*
X154106000Y-88159000D01*
X154103000Y-88163000D01*
X154099000Y-88167000D01*
X154096000Y-88171000D01*
X154092000Y-88174000D01*
X154088000Y-88178000D01*
X154084000Y-88181000D01*
X154079000Y-88184000D01*
X154075000Y-88187000D01*
X154070000Y-88189000D01*
X154066000Y-88191000D01*
X154061000Y-88193000D01*
X154056000Y-88195000D01*
X154051000Y-88197000D01*
X154046000Y-88198000D01*
X154041000Y-88199000D01*
X154035000Y-88199000D01*
X154030000Y-88200000D01*
X154025000Y-88200000D01*
X153875000Y-88200000D01*
X153870000Y-88200000D01*
X153865000Y-88199000D01*
X153859000Y-88199000D01*
X153854000Y-88198000D01*
X153849000Y-88197000D01*
X153844000Y-88195000D01*
X153839000Y-88193000D01*
X153834000Y-88191000D01*
X153830000Y-88189000D01*
X153825000Y-88187000D01*
X153821000Y-88184000D01*
X153816000Y-88181000D01*
X153812000Y-88178000D01*
X153808000Y-88174000D01*
X153804000Y-88171000D01*
X153801000Y-88167000D01*
X153797000Y-88163000D01*
X153794000Y-88159000D01*
X153791000Y-88154000D01*
X153788000Y-88150000D01*
X153786000Y-88145000D01*
X153784000Y-88141000D01*
X153782000Y-88136000D01*
X153780000Y-88131000D01*
X153778000Y-88126000D01*
X153777000Y-88121000D01*
X153776000Y-88116000D01*
X153776000Y-88110000D01*
X153775000Y-88105000D01*
X153775000Y-88100000D01*
X153775000Y-87347000D01*
X153775000Y-87345000D01*
X153775000Y-87343000D01*
X153775000Y-87341000D01*
X153775000Y-87339000D01*
X153774000Y-87337000D01*
X153774000Y-87335000D01*
X153774000Y-87333000D01*
X153773000Y-87331000D01*
X153773000Y-87329000D01*
X153772000Y-87327000D01*
X153772000Y-87325000D01*
X153771000Y-87323000D01*
X153771000Y-87322000D01*
X153770000Y-87320000D01*
X153769000Y-87318000D01*
X153769000Y-87316000D01*
X153768000Y-87314000D01*
X153767000Y-87313000D01*
X153766000Y-87311000D01*
X153765000Y-87309000D01*
X153764000Y-87307000D01*
X153763000Y-87306000D01*
X153762000Y-87304000D01*
X153761000Y-87302000D01*
X153760000Y-87301000D01*
X153758000Y-87299000D01*
X153757000Y-87298000D01*
X153756000Y-87296000D01*
X153754000Y-87295000D01*
X153753000Y-87294000D01*
X153632000Y-87172000D01*
X153631000Y-87171000D01*
X153629000Y-87170000D01*
X153628000Y-87168000D01*
X153626000Y-87167000D01*
X153625000Y-87166000D01*
X153623000Y-87165000D01*
X153621000Y-87164000D01*
X153620000Y-87163000D01*
X153618000Y-87162000D01*
X153616000Y-87161000D01*
X153615000Y-87160000D01*
X153613000Y-87159000D01*
X153611000Y-87158000D01*
X153609000Y-87157000D01*
X153608000Y-87156000D01*
X153606000Y-87155000D01*
X153604000Y-87155000D01*
X153602000Y-87154000D01*
X153600000Y-87154000D01*
X153598000Y-87153000D01*
X153596000Y-87153000D01*
X153595000Y-87152000D01*
X153593000Y-87152000D01*
X153591000Y-87151000D01*
X153589000Y-87151000D01*
X153587000Y-87151000D01*
X153585000Y-87151000D01*
X153583000Y-87151000D01*
X153581000Y-87151000D01*
X153579000Y-87150000D01*
X152400000Y-87150000D01*
X152395000Y-87150000D01*
X152390000Y-87150000D01*
X152384000Y-87149000D01*
X152379000Y-87148000D01*
X152374000Y-87147000D01*
X152369000Y-87146000D01*
X152364000Y-87144000D01*
X152359000Y-87142000D01*
X152355000Y-87140000D01*
X152350000Y-87137000D01*
X152346000Y-87134000D01*
X152341000Y-87131000D01*
X152337000Y-87128000D01*
X152333000Y-87125000D01*
X152329000Y-87121000D01*
X152326000Y-87117000D01*
X152322000Y-87113000D01*
X152319000Y-87109000D01*
X152316000Y-87105000D01*
X152313000Y-87101000D01*
X152311000Y-87096000D01*
X152309000Y-87091000D01*
X152307000Y-87086000D01*
X152305000Y-87081000D01*
X152303000Y-87076000D01*
X152302000Y-87071000D01*
X152301000Y-87066000D01*
X152301000Y-87061000D01*
X152300000Y-87056000D01*
X152300000Y-87050000D01*
X152300000Y-86876000D01*
X152300000Y-86870000D01*
X152301000Y-86865000D01*
X152301000Y-86860000D01*
X152302000Y-86855000D01*
X152303000Y-86850000D01*
X152305000Y-86845000D01*
X152307000Y-86840000D01*
X152309000Y-86835000D01*
X152311000Y-86830000D01*
X152313000Y-86825000D01*
X152316000Y-86821000D01*
X152319000Y-86817000D01*
X152322000Y-86813000D01*
X152326000Y-86809000D01*
X152329000Y-86805000D01*
X152333000Y-86801000D01*
X152337000Y-86798000D01*
X152341000Y-86795000D01*
X152346000Y-86792000D01*
X152350000Y-86789000D01*
X152355000Y-86786000D01*
X152359000Y-86784000D01*
X152364000Y-86782000D01*
X152369000Y-86780000D01*
X152374000Y-86779000D01*
X152379000Y-86778000D01*
X152384000Y-86777000D01*
X152390000Y-86776000D01*
X152395000Y-86776000D01*
X152400000Y-86776000D01*
X154025000Y-86776000D01*
X154030000Y-86776000D01*
X154035000Y-86776000D01*
X154041000Y-86777000D01*
G37*
X156008000Y-87351000D02*
X156010000Y-87351000D01*
X156013000Y-87352000D01*
X156015000Y-87352000D01*
X156018000Y-87353000D01*
X156020000Y-87354000D01*
X156023000Y-87355000D01*
X156025000Y-87357000D01*
X156027000Y-87358000D01*
X156029000Y-87360000D01*
X156031000Y-87361000D01*
X156033000Y-87363000D01*
X156035000Y-87365000D01*
X156037000Y-87367000D01*
X156039000Y-87369000D01*
X156040000Y-87371000D01*
X156042000Y-87373000D01*
X156043000Y-87375000D01*
X156045000Y-87377000D01*
X156046000Y-87380000D01*
X156047000Y-87382000D01*
X156048000Y-87385000D01*
X156048000Y-87387000D01*
X156049000Y-87390000D01*
X156049000Y-87392000D01*
X156050000Y-87395000D01*
X156050000Y-87397000D01*
X156050000Y-87400000D01*
X156050000Y-87550000D01*
X156050000Y-87553000D01*
X156050000Y-87555000D01*
X156049000Y-87558000D01*
X156049000Y-87560000D01*
X156048000Y-87563000D01*
X156048000Y-87565000D01*
X156047000Y-87568000D01*
X156046000Y-87570000D01*
X156045000Y-87573000D01*
X156043000Y-87575000D01*
X156042000Y-87577000D01*
X156040000Y-87579000D01*
X156039000Y-87581000D01*
X156037000Y-87583000D01*
X156035000Y-87585000D01*
X156033000Y-87587000D01*
X156031000Y-87589000D01*
X156029000Y-87590000D01*
X156027000Y-87592000D01*
X156025000Y-87593000D01*
X156023000Y-87595000D01*
X156020000Y-87596000D01*
X156018000Y-87597000D01*
X156015000Y-87598000D01*
X156013000Y-87598000D01*
X156010000Y-87599000D01*
X156008000Y-87599000D01*
X156005000Y-87600000D01*
X156003000Y-87600000D01*
X156000000Y-87600000D01*
X155700000Y-87600000D01*
X155697000Y-87600000D01*
X155695000Y-87600000D01*
X155692000Y-87601000D01*
X155690000Y-87601000D01*
X155687000Y-87602000D01*
X155685000Y-87602000D01*
X155682000Y-87603000D01*
X155680000Y-87604000D01*
X155677000Y-87605000D01*
X155675000Y-87607000D01*
X155673000Y-87608000D01*
X155671000Y-87610000D01*
X155669000Y-87611000D01*
X155667000Y-87613000D01*
X155665000Y-87615000D01*
X155663000Y-87617000D01*
X155661000Y-87619000D01*
X155660000Y-87621000D01*
X155658000Y-87623000D01*
X155657000Y-87625000D01*
X155655000Y-87627000D01*
X155654000Y-87630000D01*
X155653000Y-87632000D01*
X155652000Y-87635000D01*
X155652000Y-87637000D01*
X155651000Y-87640000D01*
X155651000Y-87642000D01*
X155650000Y-87645000D01*
X155650000Y-87647000D01*
X155650000Y-87650000D01*
X155650000Y-87800000D01*
X155650000Y-87803000D01*
X155650000Y-87805000D01*
X155651000Y-87808000D01*
X155651000Y-87810000D01*
X155652000Y-87813000D01*
X155652000Y-87815000D01*
X155653000Y-87818000D01*
X155654000Y-87820000D01*
X155655000Y-87823000D01*
X155657000Y-87825000D01*
X155658000Y-87827000D01*
X155660000Y-87829000D01*
X155661000Y-87831000D01*
X155663000Y-87833000D01*
X155665000Y-87835000D01*
X155667000Y-87837000D01*
X155669000Y-87839000D01*
X155671000Y-87840000D01*
X155673000Y-87842000D01*
X155675000Y-87843000D01*
X155677000Y-87845000D01*
X155680000Y-87846000D01*
X155682000Y-87847000D01*
X155685000Y-87848000D01*
X155687000Y-87848000D01*
X155690000Y-87849000D01*
X155692000Y-87849000D01*
X155695000Y-87850000D01*
X155697000Y-87850000D01*
X155700000Y-87850000D01*
X156000000Y-87850000D01*
X156003000Y-87850000D01*
X156005000Y-87850000D01*
X156008000Y-87851000D01*
X156010000Y-87851000D01*
X156013000Y-87852000D01*
X156015000Y-87852000D01*
X156018000Y-87853000D01*
X156020000Y-87854000D01*
X156023000Y-87855000D01*
X156025000Y-87857000D01*
X156027000Y-87858000D01*
X156029000Y-87860000D01*
X156031000Y-87861000D01*
X156033000Y-87863000D01*
X156035000Y-87865000D01*
X156037000Y-87867000D01*
X156039000Y-87869000D01*
X156040000Y-87871000D01*
X156042000Y-87873000D01*
X156043000Y-87875000D01*
X156045000Y-87877000D01*
X156046000Y-87880000D01*
X156047000Y-87882000D01*
X156048000Y-87885000D01*
X156048000Y-87887000D01*
X156049000Y-87890000D01*
X156049000Y-87892000D01*
X156050000Y-87895000D01*
X156050000Y-87897000D01*
X156050000Y-87900000D01*
X156050000Y-88050000D01*
X156050000Y-88053000D01*
X156050000Y-88055000D01*
X156049000Y-88058000D01*
X156049000Y-88060000D01*
X156048000Y-88063000D01*
X156048000Y-88065000D01*
X156047000Y-88068000D01*
X156046000Y-88070000D01*
X156045000Y-88073000D01*
X156043000Y-88075000D01*
X156042000Y-88077000D01*
X156040000Y-88079000D01*
X156039000Y-88081000D01*
X156037000Y-88083000D01*
X156035000Y-88085000D01*
X156033000Y-88087000D01*
X156031000Y-88089000D01*
X156029000Y-88090000D01*
X156027000Y-88092000D01*
X156025000Y-88093000D01*
X156023000Y-88095000D01*
X156020000Y-88096000D01*
X156018000Y-88097000D01*
X156015000Y-88098000D01*
X156013000Y-88098000D01*
X156010000Y-88099000D01*
X156008000Y-88099000D01*
X156005000Y-88100000D01*
X156003000Y-88100000D01*
X156000000Y-88100000D01*
X154900000Y-88100000D01*
X154897000Y-88100000D01*
X154895000Y-88100000D01*
X154892000Y-88099000D01*
X154890000Y-88099000D01*
X154887000Y-88098000D01*
X154885000Y-88098000D01*
X154882000Y-88097000D01*
X154880000Y-88096000D01*
X154877000Y-88095000D01*
X154875000Y-88093000D01*
X154873000Y-88092000D01*
X154871000Y-88090000D01*
X154869000Y-88089000D01*
X154867000Y-88087000D01*
X154865000Y-88085000D01*
X154863000Y-88083000D01*
X154861000Y-88081000D01*
X154860000Y-88079000D01*
X154858000Y-88077000D01*
X154857000Y-88075000D01*
X154855000Y-88073000D01*
X154854000Y-88070000D01*
X154853000Y-88068000D01*
X154852000Y-88065000D01*
X154852000Y-88063000D01*
X154851000Y-88060000D01*
X154851000Y-88058000D01*
X154850000Y-88055000D01*
X154850000Y-88053000D01*
X154850000Y-88050000D01*
X154850000Y-87400000D01*
X154850000Y-87397000D01*
X154850000Y-87395000D01*
X154851000Y-87392000D01*
X154851000Y-87390000D01*
X154852000Y-87387000D01*
X154852000Y-87385000D01*
X154853000Y-87382000D01*
X154854000Y-87380000D01*
X154855000Y-87377000D01*
X154857000Y-87375000D01*
X154858000Y-87373000D01*
X154860000Y-87371000D01*
X154861000Y-87369000D01*
X154863000Y-87367000D01*
X154865000Y-87365000D01*
X154867000Y-87363000D01*
X154869000Y-87361000D01*
X154871000Y-87360000D01*
X154873000Y-87358000D01*
X154875000Y-87357000D01*
X154877000Y-87355000D01*
X154880000Y-87354000D01*
X154882000Y-87353000D01*
X154885000Y-87352000D01*
X154887000Y-87352000D01*
X154890000Y-87351000D01*
X154892000Y-87351000D01*
X154895000Y-87350000D01*
X154897000Y-87350000D01*
X154900000Y-87350000D01*
X156000000Y-87350000D01*
X156003000Y-87350000D01*
X156005000Y-87350000D01*
X156008000Y-87351000D01*
G36*
X156008000Y-87351000D02*
G01*
X156010000Y-87351000D01*
X156013000Y-87352000D01*
X156015000Y-87352000D01*
X156018000Y-87353000D01*
X156020000Y-87354000D01*
X156023000Y-87355000D01*
X156025000Y-87357000D01*
X156027000Y-87358000D01*
X156029000Y-87360000D01*
X156031000Y-87361000D01*
X156033000Y-87363000D01*
X156035000Y-87365000D01*
X156037000Y-87367000D01*
X156039000Y-87369000D01*
X156040000Y-87371000D01*
X156042000Y-87373000D01*
X156043000Y-87375000D01*
X156045000Y-87377000D01*
X156046000Y-87380000D01*
X156047000Y-87382000D01*
X156048000Y-87385000D01*
X156048000Y-87387000D01*
X156049000Y-87390000D01*
X156049000Y-87392000D01*
X156050000Y-87395000D01*
X156050000Y-87397000D01*
X156050000Y-87400000D01*
X156050000Y-87550000D01*
X156050000Y-87553000D01*
X156050000Y-87555000D01*
X156049000Y-87558000D01*
X156049000Y-87560000D01*
X156048000Y-87563000D01*
X156048000Y-87565000D01*
X156047000Y-87568000D01*
X156046000Y-87570000D01*
X156045000Y-87573000D01*
X156043000Y-87575000D01*
X156042000Y-87577000D01*
X156040000Y-87579000D01*
X156039000Y-87581000D01*
X156037000Y-87583000D01*
X156035000Y-87585000D01*
X156033000Y-87587000D01*
X156031000Y-87589000D01*
X156029000Y-87590000D01*
X156027000Y-87592000D01*
X156025000Y-87593000D01*
X156023000Y-87595000D01*
X156020000Y-87596000D01*
X156018000Y-87597000D01*
X156015000Y-87598000D01*
X156013000Y-87598000D01*
X156010000Y-87599000D01*
X156008000Y-87599000D01*
X156005000Y-87600000D01*
X156003000Y-87600000D01*
X156000000Y-87600000D01*
X155700000Y-87600000D01*
X155697000Y-87600000D01*
X155695000Y-87600000D01*
X155692000Y-87601000D01*
X155690000Y-87601000D01*
X155687000Y-87602000D01*
X155685000Y-87602000D01*
X155682000Y-87603000D01*
X155680000Y-87604000D01*
X155677000Y-87605000D01*
X155675000Y-87607000D01*
X155673000Y-87608000D01*
X155671000Y-87610000D01*
X155669000Y-87611000D01*
X155667000Y-87613000D01*
X155665000Y-87615000D01*
X155663000Y-87617000D01*
X155661000Y-87619000D01*
X155660000Y-87621000D01*
X155658000Y-87623000D01*
X155657000Y-87625000D01*
X155655000Y-87627000D01*
X155654000Y-87630000D01*
X155653000Y-87632000D01*
X155652000Y-87635000D01*
X155652000Y-87637000D01*
X155651000Y-87640000D01*
X155651000Y-87642000D01*
X155650000Y-87645000D01*
X155650000Y-87647000D01*
X155650000Y-87650000D01*
X155650000Y-87800000D01*
X155650000Y-87803000D01*
X155650000Y-87805000D01*
X155651000Y-87808000D01*
X155651000Y-87810000D01*
X155652000Y-87813000D01*
X155652000Y-87815000D01*
X155653000Y-87818000D01*
X155654000Y-87820000D01*
X155655000Y-87823000D01*
X155657000Y-87825000D01*
X155658000Y-87827000D01*
X155660000Y-87829000D01*
X155661000Y-87831000D01*
X155663000Y-87833000D01*
X155665000Y-87835000D01*
X155667000Y-87837000D01*
X155669000Y-87839000D01*
X155671000Y-87840000D01*
X155673000Y-87842000D01*
X155675000Y-87843000D01*
X155677000Y-87845000D01*
X155680000Y-87846000D01*
X155682000Y-87847000D01*
X155685000Y-87848000D01*
X155687000Y-87848000D01*
X155690000Y-87849000D01*
X155692000Y-87849000D01*
X155695000Y-87850000D01*
X155697000Y-87850000D01*
X155700000Y-87850000D01*
X156000000Y-87850000D01*
X156003000Y-87850000D01*
X156005000Y-87850000D01*
X156008000Y-87851000D01*
X156010000Y-87851000D01*
X156013000Y-87852000D01*
X156015000Y-87852000D01*
X156018000Y-87853000D01*
X156020000Y-87854000D01*
X156023000Y-87855000D01*
X156025000Y-87857000D01*
X156027000Y-87858000D01*
X156029000Y-87860000D01*
X156031000Y-87861000D01*
X156033000Y-87863000D01*
X156035000Y-87865000D01*
X156037000Y-87867000D01*
X156039000Y-87869000D01*
X156040000Y-87871000D01*
X156042000Y-87873000D01*
X156043000Y-87875000D01*
X156045000Y-87877000D01*
X156046000Y-87880000D01*
X156047000Y-87882000D01*
X156048000Y-87885000D01*
X156048000Y-87887000D01*
X156049000Y-87890000D01*
X156049000Y-87892000D01*
X156050000Y-87895000D01*
X156050000Y-87897000D01*
X156050000Y-87900000D01*
X156050000Y-88050000D01*
X156050000Y-88053000D01*
X156050000Y-88055000D01*
X156049000Y-88058000D01*
X156049000Y-88060000D01*
X156048000Y-88063000D01*
X156048000Y-88065000D01*
X156047000Y-88068000D01*
X156046000Y-88070000D01*
X156045000Y-88073000D01*
X156043000Y-88075000D01*
X156042000Y-88077000D01*
X156040000Y-88079000D01*
X156039000Y-88081000D01*
X156037000Y-88083000D01*
X156035000Y-88085000D01*
X156033000Y-88087000D01*
X156031000Y-88089000D01*
X156029000Y-88090000D01*
X156027000Y-88092000D01*
X156025000Y-88093000D01*
X156023000Y-88095000D01*
X156020000Y-88096000D01*
X156018000Y-88097000D01*
X156015000Y-88098000D01*
X156013000Y-88098000D01*
X156010000Y-88099000D01*
X156008000Y-88099000D01*
X156005000Y-88100000D01*
X156003000Y-88100000D01*
X156000000Y-88100000D01*
X154900000Y-88100000D01*
X154897000Y-88100000D01*
X154895000Y-88100000D01*
X154892000Y-88099000D01*
X154890000Y-88099000D01*
X154887000Y-88098000D01*
X154885000Y-88098000D01*
X154882000Y-88097000D01*
X154880000Y-88096000D01*
X154877000Y-88095000D01*
X154875000Y-88093000D01*
X154873000Y-88092000D01*
X154871000Y-88090000D01*
X154869000Y-88089000D01*
X154867000Y-88087000D01*
X154865000Y-88085000D01*
X154863000Y-88083000D01*
X154861000Y-88081000D01*
X154860000Y-88079000D01*
X154858000Y-88077000D01*
X154857000Y-88075000D01*
X154855000Y-88073000D01*
X154854000Y-88070000D01*
X154853000Y-88068000D01*
X154852000Y-88065000D01*
X154852000Y-88063000D01*
X154851000Y-88060000D01*
X154851000Y-88058000D01*
X154850000Y-88055000D01*
X154850000Y-88053000D01*
X154850000Y-88050000D01*
X154850000Y-87400000D01*
X154850000Y-87397000D01*
X154850000Y-87395000D01*
X154851000Y-87392000D01*
X154851000Y-87390000D01*
X154852000Y-87387000D01*
X154852000Y-87385000D01*
X154853000Y-87382000D01*
X154854000Y-87380000D01*
X154855000Y-87377000D01*
X154857000Y-87375000D01*
X154858000Y-87373000D01*
X154860000Y-87371000D01*
X154861000Y-87369000D01*
X154863000Y-87367000D01*
X154865000Y-87365000D01*
X154867000Y-87363000D01*
X154869000Y-87361000D01*
X154871000Y-87360000D01*
X154873000Y-87358000D01*
X154875000Y-87357000D01*
X154877000Y-87355000D01*
X154880000Y-87354000D01*
X154882000Y-87353000D01*
X154885000Y-87352000D01*
X154887000Y-87352000D01*
X154890000Y-87351000D01*
X154892000Y-87351000D01*
X154895000Y-87350000D01*
X154897000Y-87350000D01*
X154900000Y-87350000D01*
X156000000Y-87350000D01*
X156003000Y-87350000D01*
X156005000Y-87350000D01*
X156008000Y-87351000D01*
G37*
X153708000Y-84451000D02*
X153710000Y-84451000D01*
X153713000Y-84452000D01*
X153715000Y-84452000D01*
X153718000Y-84453000D01*
X153720000Y-84454000D01*
X153723000Y-84455000D01*
X153725000Y-84457000D01*
X153727000Y-84458000D01*
X153729000Y-84460000D01*
X153731000Y-84461000D01*
X153733000Y-84463000D01*
X153735000Y-84465000D01*
X153737000Y-84467000D01*
X153739000Y-84469000D01*
X153740000Y-84471000D01*
X153742000Y-84473000D01*
X153743000Y-84475000D01*
X153745000Y-84477000D01*
X153746000Y-84480000D01*
X153747000Y-84482000D01*
X153748000Y-84485000D01*
X153748000Y-84487000D01*
X153749000Y-84490000D01*
X153749000Y-84492000D01*
X153750000Y-84495000D01*
X153750000Y-84497000D01*
X153750000Y-84500000D01*
X153750000Y-86325000D01*
X153750000Y-86328000D01*
X153750000Y-86330000D01*
X153749000Y-86333000D01*
X153749000Y-86335000D01*
X153748000Y-86338000D01*
X153748000Y-86340000D01*
X153747000Y-86343000D01*
X153746000Y-86345000D01*
X153745000Y-86348000D01*
X153743000Y-86350000D01*
X153742000Y-86352000D01*
X153740000Y-86354000D01*
X153739000Y-86356000D01*
X153737000Y-86358000D01*
X153735000Y-86360000D01*
X153733000Y-86362000D01*
X153731000Y-86364000D01*
X153729000Y-86365000D01*
X153727000Y-86367000D01*
X153725000Y-86368000D01*
X153723000Y-86370000D01*
X153720000Y-86371000D01*
X153718000Y-86372000D01*
X153715000Y-86373000D01*
X153713000Y-86373000D01*
X153710000Y-86374000D01*
X153708000Y-86374000D01*
X153705000Y-86375000D01*
X153703000Y-86375000D01*
X153700000Y-86375000D01*
X152800000Y-86375000D01*
X152797000Y-86375000D01*
X152795000Y-86375000D01*
X152792000Y-86374000D01*
X152790000Y-86374000D01*
X152787000Y-86373000D01*
X152785000Y-86373000D01*
X152782000Y-86372000D01*
X152780000Y-86371000D01*
X152777000Y-86370000D01*
X152775000Y-86368000D01*
X152773000Y-86367000D01*
X152771000Y-86365000D01*
X152769000Y-86364000D01*
X152767000Y-86362000D01*
X152765000Y-86360000D01*
X152763000Y-86358000D01*
X152761000Y-86356000D01*
X152760000Y-86354000D01*
X152758000Y-86352000D01*
X152757000Y-86350000D01*
X152755000Y-86348000D01*
X152754000Y-86345000D01*
X152753000Y-86343000D01*
X152752000Y-86340000D01*
X152752000Y-86338000D01*
X152751000Y-86335000D01*
X152751000Y-86333000D01*
X152750000Y-86330000D01*
X152750000Y-86328000D01*
X152750000Y-86325000D01*
X152750000Y-86010000D01*
X152750000Y-86007000D01*
X152750000Y-86005000D01*
X152749000Y-86002000D01*
X152749000Y-86000000D01*
X152748000Y-85997000D01*
X152748000Y-85995000D01*
X152747000Y-85992000D01*
X152746000Y-85990000D01*
X152745000Y-85987000D01*
X152743000Y-85985000D01*
X152742000Y-85983000D01*
X152740000Y-85981000D01*
X152739000Y-85979000D01*
X152737000Y-85977000D01*
X152735000Y-85975000D01*
X152733000Y-85973000D01*
X152731000Y-85971000D01*
X152729000Y-85970000D01*
X152727000Y-85968000D01*
X152725000Y-85967000D01*
X152723000Y-85965000D01*
X152720000Y-85964000D01*
X152718000Y-85963000D01*
X152715000Y-85962000D01*
X152713000Y-85962000D01*
X152710000Y-85961000D01*
X152708000Y-85961000D01*
X152705000Y-85960000D01*
X152703000Y-85960000D01*
X152700000Y-85960000D01*
X152400000Y-85960000D01*
X152397000Y-85960000D01*
X152395000Y-85960000D01*
X152392000Y-85959000D01*
X152390000Y-85959000D01*
X152387000Y-85958000D01*
X152385000Y-85958000D01*
X152382000Y-85957000D01*
X152380000Y-85956000D01*
X152377000Y-85955000D01*
X152375000Y-85953000D01*
X152373000Y-85952000D01*
X152371000Y-85950000D01*
X152369000Y-85949000D01*
X152367000Y-85947000D01*
X152365000Y-85945000D01*
X152363000Y-85943000D01*
X152361000Y-85941000D01*
X152360000Y-85939000D01*
X152358000Y-85937000D01*
X152357000Y-85935000D01*
X152355000Y-85933000D01*
X152354000Y-85930000D01*
X152353000Y-85928000D01*
X152352000Y-85925000D01*
X152352000Y-85923000D01*
X152351000Y-85920000D01*
X152351000Y-85918000D01*
X152350000Y-85915000D01*
X152350000Y-85913000D01*
X152350000Y-85910000D01*
X152350000Y-85760000D01*
X152350000Y-85757000D01*
X152350000Y-85755000D01*
X152351000Y-85752000D01*
X152351000Y-85750000D01*
X152352000Y-85747000D01*
X152352000Y-85745000D01*
X152353000Y-85742000D01*
X152354000Y-85740000D01*
X152355000Y-85737000D01*
X152357000Y-85735000D01*
X152358000Y-85733000D01*
X152360000Y-85731000D01*
X152361000Y-85729000D01*
X152363000Y-85727000D01*
X152365000Y-85725000D01*
X152367000Y-85723000D01*
X152369000Y-85721000D01*
X152371000Y-85720000D01*
X152373000Y-85718000D01*
X152375000Y-85717000D01*
X152377000Y-85715000D01*
X152380000Y-85714000D01*
X152382000Y-85713000D01*
X152385000Y-85712000D01*
X152387000Y-85712000D01*
X152390000Y-85711000D01*
X152392000Y-85711000D01*
X152395000Y-85710000D01*
X152397000Y-85710000D01*
X152400000Y-85710000D01*
X152700000Y-85710000D01*
X152703000Y-85710000D01*
X152705000Y-85710000D01*
X152708000Y-85709000D01*
X152710000Y-85709000D01*
X152713000Y-85708000D01*
X152715000Y-85708000D01*
X152718000Y-85707000D01*
X152720000Y-85706000D01*
X152723000Y-85705000D01*
X152725000Y-85703000D01*
X152727000Y-85702000D01*
X152729000Y-85700000D01*
X152731000Y-85699000D01*
X152733000Y-85697000D01*
X152735000Y-85695000D01*
X152737000Y-85693000D01*
X152739000Y-85691000D01*
X152740000Y-85689000D01*
X152742000Y-85687000D01*
X152743000Y-85685000D01*
X152745000Y-85683000D01*
X152746000Y-85680000D01*
X152747000Y-85678000D01*
X152748000Y-85675000D01*
X152748000Y-85673000D01*
X152749000Y-85670000D01*
X152749000Y-85668000D01*
X152750000Y-85665000D01*
X152750000Y-85663000D01*
X152750000Y-85660000D01*
X152750000Y-85510000D01*
X152750000Y-85507000D01*
X152750000Y-85505000D01*
X152749000Y-85502000D01*
X152749000Y-85500000D01*
X152748000Y-85497000D01*
X152748000Y-85495000D01*
X152747000Y-85492000D01*
X152746000Y-85490000D01*
X152745000Y-85487000D01*
X152743000Y-85485000D01*
X152742000Y-85483000D01*
X152740000Y-85481000D01*
X152739000Y-85479000D01*
X152737000Y-85477000D01*
X152735000Y-85475000D01*
X152733000Y-85473000D01*
X152731000Y-85471000D01*
X152729000Y-85470000D01*
X152727000Y-85468000D01*
X152725000Y-85467000D01*
X152723000Y-85465000D01*
X152720000Y-85464000D01*
X152718000Y-85463000D01*
X152715000Y-85462000D01*
X152713000Y-85462000D01*
X152710000Y-85461000D01*
X152708000Y-85461000D01*
X152705000Y-85460000D01*
X152703000Y-85460000D01*
X152700000Y-85460000D01*
X152400000Y-85460000D01*
X152397000Y-85460000D01*
X152395000Y-85460000D01*
X152392000Y-85459000D01*
X152390000Y-85459000D01*
X152387000Y-85458000D01*
X152385000Y-85458000D01*
X152382000Y-85457000D01*
X152380000Y-85456000D01*
X152377000Y-85455000D01*
X152375000Y-85453000D01*
X152373000Y-85452000D01*
X152371000Y-85450000D01*
X152369000Y-85449000D01*
X152367000Y-85447000D01*
X152365000Y-85445000D01*
X152363000Y-85443000D01*
X152361000Y-85441000D01*
X152360000Y-85439000D01*
X152358000Y-85437000D01*
X152357000Y-85435000D01*
X152355000Y-85433000D01*
X152354000Y-85430000D01*
X152353000Y-85428000D01*
X152352000Y-85425000D01*
X152352000Y-85423000D01*
X152351000Y-85420000D01*
X152351000Y-85418000D01*
X152350000Y-85415000D01*
X152350000Y-85413000D01*
X152350000Y-85410000D01*
X152350000Y-85260000D01*
X152350000Y-85257000D01*
X152350000Y-85255000D01*
X152351000Y-85252000D01*
X152351000Y-85250000D01*
X152352000Y-85247000D01*
X152352000Y-85245000D01*
X152353000Y-85242000D01*
X152354000Y-85240000D01*
X152355000Y-85237000D01*
X152357000Y-85235000D01*
X152358000Y-85233000D01*
X152360000Y-85231000D01*
X152361000Y-85229000D01*
X152363000Y-85227000D01*
X152365000Y-85225000D01*
X152367000Y-85223000D01*
X152369000Y-85221000D01*
X152371000Y-85220000D01*
X152373000Y-85218000D01*
X152375000Y-85217000D01*
X152377000Y-85215000D01*
X152380000Y-85214000D01*
X152382000Y-85213000D01*
X152385000Y-85212000D01*
X152387000Y-85212000D01*
X152390000Y-85211000D01*
X152392000Y-85211000D01*
X152395000Y-85210000D01*
X152397000Y-85210000D01*
X152400000Y-85210000D01*
X152700000Y-85210000D01*
X152703000Y-85210000D01*
X152705000Y-85210000D01*
X152708000Y-85209000D01*
X152710000Y-85209000D01*
X152713000Y-85208000D01*
X152715000Y-85208000D01*
X152718000Y-85207000D01*
X152720000Y-85206000D01*
X152723000Y-85205000D01*
X152725000Y-85203000D01*
X152727000Y-85202000D01*
X152729000Y-85200000D01*
X152731000Y-85199000D01*
X152733000Y-85197000D01*
X152735000Y-85195000D01*
X152737000Y-85193000D01*
X152739000Y-85191000D01*
X152740000Y-85189000D01*
X152742000Y-85187000D01*
X152743000Y-85185000D01*
X152745000Y-85183000D01*
X152746000Y-85180000D01*
X152747000Y-85178000D01*
X152748000Y-85175000D01*
X152748000Y-85173000D01*
X152749000Y-85170000D01*
X152749000Y-85168000D01*
X152750000Y-85165000D01*
X152750000Y-85163000D01*
X152750000Y-85160000D01*
X152750000Y-85010000D01*
X152750000Y-85007000D01*
X152750000Y-85005000D01*
X152749000Y-85002000D01*
X152749000Y-85000000D01*
X152748000Y-84997000D01*
X152748000Y-84995000D01*
X152747000Y-84992000D01*
X152746000Y-84990000D01*
X152745000Y-84987000D01*
X152743000Y-84985000D01*
X152742000Y-84983000D01*
X152740000Y-84981000D01*
X152739000Y-84979000D01*
X152737000Y-84977000D01*
X152735000Y-84975000D01*
X152733000Y-84973000D01*
X152731000Y-84971000D01*
X152729000Y-84970000D01*
X152727000Y-84968000D01*
X152725000Y-84967000D01*
X152723000Y-84965000D01*
X152720000Y-84964000D01*
X152718000Y-84963000D01*
X152715000Y-84962000D01*
X152713000Y-84962000D01*
X152710000Y-84961000D01*
X152708000Y-84961000D01*
X152705000Y-84960000D01*
X152703000Y-84960000D01*
X152700000Y-84960000D01*
X152400000Y-84960000D01*
X152397000Y-84960000D01*
X152395000Y-84960000D01*
X152392000Y-84959000D01*
X152390000Y-84959000D01*
X152387000Y-84958000D01*
X152385000Y-84958000D01*
X152382000Y-84957000D01*
X152380000Y-84956000D01*
X152377000Y-84955000D01*
X152375000Y-84953000D01*
X152373000Y-84952000D01*
X152371000Y-84950000D01*
X152369000Y-84949000D01*
X152367000Y-84947000D01*
X152365000Y-84945000D01*
X152363000Y-84943000D01*
X152361000Y-84941000D01*
X152360000Y-84939000D01*
X152358000Y-84937000D01*
X152357000Y-84935000D01*
X152355000Y-84933000D01*
X152354000Y-84930000D01*
X152353000Y-84928000D01*
X152352000Y-84925000D01*
X152352000Y-84923000D01*
X152351000Y-84920000D01*
X152351000Y-84918000D01*
X152350000Y-84915000D01*
X152350000Y-84913000D01*
X152350000Y-84910000D01*
X152350000Y-84760000D01*
X152350000Y-84757000D01*
X152350000Y-84755000D01*
X152351000Y-84752000D01*
X152351000Y-84750000D01*
X152352000Y-84747000D01*
X152352000Y-84745000D01*
X152353000Y-84742000D01*
X152354000Y-84740000D01*
X152355000Y-84737000D01*
X152357000Y-84735000D01*
X152358000Y-84733000D01*
X152360000Y-84731000D01*
X152361000Y-84729000D01*
X152363000Y-84727000D01*
X152365000Y-84725000D01*
X152367000Y-84723000D01*
X152369000Y-84721000D01*
X152371000Y-84720000D01*
X152373000Y-84718000D01*
X152375000Y-84717000D01*
X152377000Y-84715000D01*
X152380000Y-84714000D01*
X152382000Y-84713000D01*
X152385000Y-84712000D01*
X152387000Y-84712000D01*
X152390000Y-84711000D01*
X152392000Y-84711000D01*
X152395000Y-84710000D01*
X152397000Y-84710000D01*
X152400000Y-84710000D01*
X152700000Y-84710000D01*
X152703000Y-84710000D01*
X152705000Y-84710000D01*
X152708000Y-84709000D01*
X152710000Y-84709000D01*
X152713000Y-84708000D01*
X152715000Y-84708000D01*
X152718000Y-84707000D01*
X152720000Y-84706000D01*
X152723000Y-84705000D01*
X152725000Y-84703000D01*
X152727000Y-84702000D01*
X152729000Y-84700000D01*
X152731000Y-84699000D01*
X152733000Y-84697000D01*
X152735000Y-84695000D01*
X152737000Y-84693000D01*
X152739000Y-84691000D01*
X152740000Y-84689000D01*
X152742000Y-84687000D01*
X152743000Y-84685000D01*
X152745000Y-84683000D01*
X152746000Y-84680000D01*
X152747000Y-84678000D01*
X152748000Y-84675000D01*
X152748000Y-84673000D01*
X152749000Y-84670000D01*
X152749000Y-84668000D01*
X152750000Y-84665000D01*
X152750000Y-84663000D01*
X152750000Y-84660000D01*
X152750000Y-84500000D01*
X152750000Y-84497000D01*
X152750000Y-84495000D01*
X152751000Y-84492000D01*
X152751000Y-84490000D01*
X152752000Y-84487000D01*
X152752000Y-84485000D01*
X152753000Y-84482000D01*
X152754000Y-84480000D01*
X152755000Y-84477000D01*
X152757000Y-84475000D01*
X152758000Y-84473000D01*
X152760000Y-84471000D01*
X152761000Y-84469000D01*
X152763000Y-84467000D01*
X152765000Y-84465000D01*
X152767000Y-84463000D01*
X152769000Y-84461000D01*
X152771000Y-84460000D01*
X152773000Y-84458000D01*
X152775000Y-84457000D01*
X152777000Y-84455000D01*
X152780000Y-84454000D01*
X152782000Y-84453000D01*
X152785000Y-84452000D01*
X152787000Y-84452000D01*
X152790000Y-84451000D01*
X152792000Y-84451000D01*
X152795000Y-84450000D01*
X152797000Y-84450000D01*
X152800000Y-84450000D01*
X153700000Y-84450000D01*
X153703000Y-84450000D01*
X153705000Y-84450000D01*
X153708000Y-84451000D01*
G36*
X153708000Y-84451000D02*
G01*
X153710000Y-84451000D01*
X153713000Y-84452000D01*
X153715000Y-84452000D01*
X153718000Y-84453000D01*
X153720000Y-84454000D01*
X153723000Y-84455000D01*
X153725000Y-84457000D01*
X153727000Y-84458000D01*
X153729000Y-84460000D01*
X153731000Y-84461000D01*
X153733000Y-84463000D01*
X153735000Y-84465000D01*
X153737000Y-84467000D01*
X153739000Y-84469000D01*
X153740000Y-84471000D01*
X153742000Y-84473000D01*
X153743000Y-84475000D01*
X153745000Y-84477000D01*
X153746000Y-84480000D01*
X153747000Y-84482000D01*
X153748000Y-84485000D01*
X153748000Y-84487000D01*
X153749000Y-84490000D01*
X153749000Y-84492000D01*
X153750000Y-84495000D01*
X153750000Y-84497000D01*
X153750000Y-84500000D01*
X153750000Y-86325000D01*
X153750000Y-86328000D01*
X153750000Y-86330000D01*
X153749000Y-86333000D01*
X153749000Y-86335000D01*
X153748000Y-86338000D01*
X153748000Y-86340000D01*
X153747000Y-86343000D01*
X153746000Y-86345000D01*
X153745000Y-86348000D01*
X153743000Y-86350000D01*
X153742000Y-86352000D01*
X153740000Y-86354000D01*
X153739000Y-86356000D01*
X153737000Y-86358000D01*
X153735000Y-86360000D01*
X153733000Y-86362000D01*
X153731000Y-86364000D01*
X153729000Y-86365000D01*
X153727000Y-86367000D01*
X153725000Y-86368000D01*
X153723000Y-86370000D01*
X153720000Y-86371000D01*
X153718000Y-86372000D01*
X153715000Y-86373000D01*
X153713000Y-86373000D01*
X153710000Y-86374000D01*
X153708000Y-86374000D01*
X153705000Y-86375000D01*
X153703000Y-86375000D01*
X153700000Y-86375000D01*
X152800000Y-86375000D01*
X152797000Y-86375000D01*
X152795000Y-86375000D01*
X152792000Y-86374000D01*
X152790000Y-86374000D01*
X152787000Y-86373000D01*
X152785000Y-86373000D01*
X152782000Y-86372000D01*
X152780000Y-86371000D01*
X152777000Y-86370000D01*
X152775000Y-86368000D01*
X152773000Y-86367000D01*
X152771000Y-86365000D01*
X152769000Y-86364000D01*
X152767000Y-86362000D01*
X152765000Y-86360000D01*
X152763000Y-86358000D01*
X152761000Y-86356000D01*
X152760000Y-86354000D01*
X152758000Y-86352000D01*
X152757000Y-86350000D01*
X152755000Y-86348000D01*
X152754000Y-86345000D01*
X152753000Y-86343000D01*
X152752000Y-86340000D01*
X152752000Y-86338000D01*
X152751000Y-86335000D01*
X152751000Y-86333000D01*
X152750000Y-86330000D01*
X152750000Y-86328000D01*
X152750000Y-86325000D01*
X152750000Y-86010000D01*
X152750000Y-86007000D01*
X152750000Y-86005000D01*
X152749000Y-86002000D01*
X152749000Y-86000000D01*
X152748000Y-85997000D01*
X152748000Y-85995000D01*
X152747000Y-85992000D01*
X152746000Y-85990000D01*
X152745000Y-85987000D01*
X152743000Y-85985000D01*
X152742000Y-85983000D01*
X152740000Y-85981000D01*
X152739000Y-85979000D01*
X152737000Y-85977000D01*
X152735000Y-85975000D01*
X152733000Y-85973000D01*
X152731000Y-85971000D01*
X152729000Y-85970000D01*
X152727000Y-85968000D01*
X152725000Y-85967000D01*
X152723000Y-85965000D01*
X152720000Y-85964000D01*
X152718000Y-85963000D01*
X152715000Y-85962000D01*
X152713000Y-85962000D01*
X152710000Y-85961000D01*
X152708000Y-85961000D01*
X152705000Y-85960000D01*
X152703000Y-85960000D01*
X152700000Y-85960000D01*
X152400000Y-85960000D01*
X152397000Y-85960000D01*
X152395000Y-85960000D01*
X152392000Y-85959000D01*
X152390000Y-85959000D01*
X152387000Y-85958000D01*
X152385000Y-85958000D01*
X152382000Y-85957000D01*
X152380000Y-85956000D01*
X152377000Y-85955000D01*
X152375000Y-85953000D01*
X152373000Y-85952000D01*
X152371000Y-85950000D01*
X152369000Y-85949000D01*
X152367000Y-85947000D01*
X152365000Y-85945000D01*
X152363000Y-85943000D01*
X152361000Y-85941000D01*
X152360000Y-85939000D01*
X152358000Y-85937000D01*
X152357000Y-85935000D01*
X152355000Y-85933000D01*
X152354000Y-85930000D01*
X152353000Y-85928000D01*
X152352000Y-85925000D01*
X152352000Y-85923000D01*
X152351000Y-85920000D01*
X152351000Y-85918000D01*
X152350000Y-85915000D01*
X152350000Y-85913000D01*
X152350000Y-85910000D01*
X152350000Y-85760000D01*
X152350000Y-85757000D01*
X152350000Y-85755000D01*
X152351000Y-85752000D01*
X152351000Y-85750000D01*
X152352000Y-85747000D01*
X152352000Y-85745000D01*
X152353000Y-85742000D01*
X152354000Y-85740000D01*
X152355000Y-85737000D01*
X152357000Y-85735000D01*
X152358000Y-85733000D01*
X152360000Y-85731000D01*
X152361000Y-85729000D01*
X152363000Y-85727000D01*
X152365000Y-85725000D01*
X152367000Y-85723000D01*
X152369000Y-85721000D01*
X152371000Y-85720000D01*
X152373000Y-85718000D01*
X152375000Y-85717000D01*
X152377000Y-85715000D01*
X152380000Y-85714000D01*
X152382000Y-85713000D01*
X152385000Y-85712000D01*
X152387000Y-85712000D01*
X152390000Y-85711000D01*
X152392000Y-85711000D01*
X152395000Y-85710000D01*
X152397000Y-85710000D01*
X152400000Y-85710000D01*
X152700000Y-85710000D01*
X152703000Y-85710000D01*
X152705000Y-85710000D01*
X152708000Y-85709000D01*
X152710000Y-85709000D01*
X152713000Y-85708000D01*
X152715000Y-85708000D01*
X152718000Y-85707000D01*
X152720000Y-85706000D01*
X152723000Y-85705000D01*
X152725000Y-85703000D01*
X152727000Y-85702000D01*
X152729000Y-85700000D01*
X152731000Y-85699000D01*
X152733000Y-85697000D01*
X152735000Y-85695000D01*
X152737000Y-85693000D01*
X152739000Y-85691000D01*
X152740000Y-85689000D01*
X152742000Y-85687000D01*
X152743000Y-85685000D01*
X152745000Y-85683000D01*
X152746000Y-85680000D01*
X152747000Y-85678000D01*
X152748000Y-85675000D01*
X152748000Y-85673000D01*
X152749000Y-85670000D01*
X152749000Y-85668000D01*
X152750000Y-85665000D01*
X152750000Y-85663000D01*
X152750000Y-85660000D01*
X152750000Y-85510000D01*
X152750000Y-85507000D01*
X152750000Y-85505000D01*
X152749000Y-85502000D01*
X152749000Y-85500000D01*
X152748000Y-85497000D01*
X152748000Y-85495000D01*
X152747000Y-85492000D01*
X152746000Y-85490000D01*
X152745000Y-85487000D01*
X152743000Y-85485000D01*
X152742000Y-85483000D01*
X152740000Y-85481000D01*
X152739000Y-85479000D01*
X152737000Y-85477000D01*
X152735000Y-85475000D01*
X152733000Y-85473000D01*
X152731000Y-85471000D01*
X152729000Y-85470000D01*
X152727000Y-85468000D01*
X152725000Y-85467000D01*
X152723000Y-85465000D01*
X152720000Y-85464000D01*
X152718000Y-85463000D01*
X152715000Y-85462000D01*
X152713000Y-85462000D01*
X152710000Y-85461000D01*
X152708000Y-85461000D01*
X152705000Y-85460000D01*
X152703000Y-85460000D01*
X152700000Y-85460000D01*
X152400000Y-85460000D01*
X152397000Y-85460000D01*
X152395000Y-85460000D01*
X152392000Y-85459000D01*
X152390000Y-85459000D01*
X152387000Y-85458000D01*
X152385000Y-85458000D01*
X152382000Y-85457000D01*
X152380000Y-85456000D01*
X152377000Y-85455000D01*
X152375000Y-85453000D01*
X152373000Y-85452000D01*
X152371000Y-85450000D01*
X152369000Y-85449000D01*
X152367000Y-85447000D01*
X152365000Y-85445000D01*
X152363000Y-85443000D01*
X152361000Y-85441000D01*
X152360000Y-85439000D01*
X152358000Y-85437000D01*
X152357000Y-85435000D01*
X152355000Y-85433000D01*
X152354000Y-85430000D01*
X152353000Y-85428000D01*
X152352000Y-85425000D01*
X152352000Y-85423000D01*
X152351000Y-85420000D01*
X152351000Y-85418000D01*
X152350000Y-85415000D01*
X152350000Y-85413000D01*
X152350000Y-85410000D01*
X152350000Y-85260000D01*
X152350000Y-85257000D01*
X152350000Y-85255000D01*
X152351000Y-85252000D01*
X152351000Y-85250000D01*
X152352000Y-85247000D01*
X152352000Y-85245000D01*
X152353000Y-85242000D01*
X152354000Y-85240000D01*
X152355000Y-85237000D01*
X152357000Y-85235000D01*
X152358000Y-85233000D01*
X152360000Y-85231000D01*
X152361000Y-85229000D01*
X152363000Y-85227000D01*
X152365000Y-85225000D01*
X152367000Y-85223000D01*
X152369000Y-85221000D01*
X152371000Y-85220000D01*
X152373000Y-85218000D01*
X152375000Y-85217000D01*
X152377000Y-85215000D01*
X152380000Y-85214000D01*
X152382000Y-85213000D01*
X152385000Y-85212000D01*
X152387000Y-85212000D01*
X152390000Y-85211000D01*
X152392000Y-85211000D01*
X152395000Y-85210000D01*
X152397000Y-85210000D01*
X152400000Y-85210000D01*
X152700000Y-85210000D01*
X152703000Y-85210000D01*
X152705000Y-85210000D01*
X152708000Y-85209000D01*
X152710000Y-85209000D01*
X152713000Y-85208000D01*
X152715000Y-85208000D01*
X152718000Y-85207000D01*
X152720000Y-85206000D01*
X152723000Y-85205000D01*
X152725000Y-85203000D01*
X152727000Y-85202000D01*
X152729000Y-85200000D01*
X152731000Y-85199000D01*
X152733000Y-85197000D01*
X152735000Y-85195000D01*
X152737000Y-85193000D01*
X152739000Y-85191000D01*
X152740000Y-85189000D01*
X152742000Y-85187000D01*
X152743000Y-85185000D01*
X152745000Y-85183000D01*
X152746000Y-85180000D01*
X152747000Y-85178000D01*
X152748000Y-85175000D01*
X152748000Y-85173000D01*
X152749000Y-85170000D01*
X152749000Y-85168000D01*
X152750000Y-85165000D01*
X152750000Y-85163000D01*
X152750000Y-85160000D01*
X152750000Y-85010000D01*
X152750000Y-85007000D01*
X152750000Y-85005000D01*
X152749000Y-85002000D01*
X152749000Y-85000000D01*
X152748000Y-84997000D01*
X152748000Y-84995000D01*
X152747000Y-84992000D01*
X152746000Y-84990000D01*
X152745000Y-84987000D01*
X152743000Y-84985000D01*
X152742000Y-84983000D01*
X152740000Y-84981000D01*
X152739000Y-84979000D01*
X152737000Y-84977000D01*
X152735000Y-84975000D01*
X152733000Y-84973000D01*
X152731000Y-84971000D01*
X152729000Y-84970000D01*
X152727000Y-84968000D01*
X152725000Y-84967000D01*
X152723000Y-84965000D01*
X152720000Y-84964000D01*
X152718000Y-84963000D01*
X152715000Y-84962000D01*
X152713000Y-84962000D01*
X152710000Y-84961000D01*
X152708000Y-84961000D01*
X152705000Y-84960000D01*
X152703000Y-84960000D01*
X152700000Y-84960000D01*
X152400000Y-84960000D01*
X152397000Y-84960000D01*
X152395000Y-84960000D01*
X152392000Y-84959000D01*
X152390000Y-84959000D01*
X152387000Y-84958000D01*
X152385000Y-84958000D01*
X152382000Y-84957000D01*
X152380000Y-84956000D01*
X152377000Y-84955000D01*
X152375000Y-84953000D01*
X152373000Y-84952000D01*
X152371000Y-84950000D01*
X152369000Y-84949000D01*
X152367000Y-84947000D01*
X152365000Y-84945000D01*
X152363000Y-84943000D01*
X152361000Y-84941000D01*
X152360000Y-84939000D01*
X152358000Y-84937000D01*
X152357000Y-84935000D01*
X152355000Y-84933000D01*
X152354000Y-84930000D01*
X152353000Y-84928000D01*
X152352000Y-84925000D01*
X152352000Y-84923000D01*
X152351000Y-84920000D01*
X152351000Y-84918000D01*
X152350000Y-84915000D01*
X152350000Y-84913000D01*
X152350000Y-84910000D01*
X152350000Y-84760000D01*
X152350000Y-84757000D01*
X152350000Y-84755000D01*
X152351000Y-84752000D01*
X152351000Y-84750000D01*
X152352000Y-84747000D01*
X152352000Y-84745000D01*
X152353000Y-84742000D01*
X152354000Y-84740000D01*
X152355000Y-84737000D01*
X152357000Y-84735000D01*
X152358000Y-84733000D01*
X152360000Y-84731000D01*
X152361000Y-84729000D01*
X152363000Y-84727000D01*
X152365000Y-84725000D01*
X152367000Y-84723000D01*
X152369000Y-84721000D01*
X152371000Y-84720000D01*
X152373000Y-84718000D01*
X152375000Y-84717000D01*
X152377000Y-84715000D01*
X152380000Y-84714000D01*
X152382000Y-84713000D01*
X152385000Y-84712000D01*
X152387000Y-84712000D01*
X152390000Y-84711000D01*
X152392000Y-84711000D01*
X152395000Y-84710000D01*
X152397000Y-84710000D01*
X152400000Y-84710000D01*
X152700000Y-84710000D01*
X152703000Y-84710000D01*
X152705000Y-84710000D01*
X152708000Y-84709000D01*
X152710000Y-84709000D01*
X152713000Y-84708000D01*
X152715000Y-84708000D01*
X152718000Y-84707000D01*
X152720000Y-84706000D01*
X152723000Y-84705000D01*
X152725000Y-84703000D01*
X152727000Y-84702000D01*
X152729000Y-84700000D01*
X152731000Y-84699000D01*
X152733000Y-84697000D01*
X152735000Y-84695000D01*
X152737000Y-84693000D01*
X152739000Y-84691000D01*
X152740000Y-84689000D01*
X152742000Y-84687000D01*
X152743000Y-84685000D01*
X152745000Y-84683000D01*
X152746000Y-84680000D01*
X152747000Y-84678000D01*
X152748000Y-84675000D01*
X152748000Y-84673000D01*
X152749000Y-84670000D01*
X152749000Y-84668000D01*
X152750000Y-84665000D01*
X152750000Y-84663000D01*
X152750000Y-84660000D01*
X152750000Y-84500000D01*
X152750000Y-84497000D01*
X152750000Y-84495000D01*
X152751000Y-84492000D01*
X152751000Y-84490000D01*
X152752000Y-84487000D01*
X152752000Y-84485000D01*
X152753000Y-84482000D01*
X152754000Y-84480000D01*
X152755000Y-84477000D01*
X152757000Y-84475000D01*
X152758000Y-84473000D01*
X152760000Y-84471000D01*
X152761000Y-84469000D01*
X152763000Y-84467000D01*
X152765000Y-84465000D01*
X152767000Y-84463000D01*
X152769000Y-84461000D01*
X152771000Y-84460000D01*
X152773000Y-84458000D01*
X152775000Y-84457000D01*
X152777000Y-84455000D01*
X152780000Y-84454000D01*
X152782000Y-84453000D01*
X152785000Y-84452000D01*
X152787000Y-84452000D01*
X152790000Y-84451000D01*
X152792000Y-84451000D01*
X152795000Y-84450000D01*
X152797000Y-84450000D01*
X152800000Y-84450000D01*
X153700000Y-84450000D01*
X153703000Y-84450000D01*
X153705000Y-84450000D01*
X153708000Y-84451000D01*
G37*
X155608000Y-84451000D02*
X155610000Y-84451000D01*
X155613000Y-84452000D01*
X155615000Y-84452000D01*
X155618000Y-84453000D01*
X155620000Y-84454000D01*
X155623000Y-84455000D01*
X155625000Y-84457000D01*
X155627000Y-84458000D01*
X155629000Y-84460000D01*
X155631000Y-84461000D01*
X155633000Y-84463000D01*
X155635000Y-84465000D01*
X155637000Y-84467000D01*
X155639000Y-84469000D01*
X155640000Y-84471000D01*
X155642000Y-84473000D01*
X155643000Y-84475000D01*
X155645000Y-84477000D01*
X155646000Y-84480000D01*
X155647000Y-84482000D01*
X155648000Y-84485000D01*
X155648000Y-84487000D01*
X155649000Y-84490000D01*
X155649000Y-84492000D01*
X155650000Y-84495000D01*
X155650000Y-84497000D01*
X155650000Y-84500000D01*
X155650000Y-84660000D01*
X155650000Y-84663000D01*
X155650000Y-84665000D01*
X155651000Y-84668000D01*
X155651000Y-84670000D01*
X155652000Y-84673000D01*
X155652000Y-84675000D01*
X155653000Y-84678000D01*
X155654000Y-84680000D01*
X155655000Y-84683000D01*
X155657000Y-84685000D01*
X155658000Y-84687000D01*
X155660000Y-84689000D01*
X155661000Y-84691000D01*
X155663000Y-84693000D01*
X155665000Y-84695000D01*
X155667000Y-84697000D01*
X155669000Y-84699000D01*
X155671000Y-84700000D01*
X155673000Y-84702000D01*
X155675000Y-84703000D01*
X155677000Y-84705000D01*
X155680000Y-84706000D01*
X155682000Y-84707000D01*
X155685000Y-84708000D01*
X155687000Y-84708000D01*
X155690000Y-84709000D01*
X155692000Y-84709000D01*
X155695000Y-84710000D01*
X155697000Y-84710000D01*
X155700000Y-84710000D01*
X156000000Y-84710000D01*
X156003000Y-84710000D01*
X156005000Y-84710000D01*
X156008000Y-84711000D01*
X156010000Y-84711000D01*
X156013000Y-84712000D01*
X156015000Y-84712000D01*
X156018000Y-84713000D01*
X156020000Y-84714000D01*
X156023000Y-84715000D01*
X156025000Y-84717000D01*
X156027000Y-84718000D01*
X156029000Y-84720000D01*
X156031000Y-84721000D01*
X156033000Y-84723000D01*
X156035000Y-84725000D01*
X156037000Y-84727000D01*
X156039000Y-84729000D01*
X156040000Y-84731000D01*
X156042000Y-84733000D01*
X156043000Y-84735000D01*
X156045000Y-84737000D01*
X156046000Y-84740000D01*
X156047000Y-84742000D01*
X156048000Y-84745000D01*
X156048000Y-84747000D01*
X156049000Y-84750000D01*
X156049000Y-84752000D01*
X156050000Y-84755000D01*
X156050000Y-84757000D01*
X156050000Y-84760000D01*
X156050000Y-84910000D01*
X156050000Y-84913000D01*
X156050000Y-84915000D01*
X156049000Y-84918000D01*
X156049000Y-84920000D01*
X156048000Y-84923000D01*
X156048000Y-84925000D01*
X156047000Y-84928000D01*
X156046000Y-84930000D01*
X156045000Y-84933000D01*
X156043000Y-84935000D01*
X156042000Y-84937000D01*
X156040000Y-84939000D01*
X156039000Y-84941000D01*
X156037000Y-84943000D01*
X156035000Y-84945000D01*
X156033000Y-84947000D01*
X156031000Y-84949000D01*
X156029000Y-84950000D01*
X156027000Y-84952000D01*
X156025000Y-84953000D01*
X156023000Y-84955000D01*
X156020000Y-84956000D01*
X156018000Y-84957000D01*
X156015000Y-84958000D01*
X156013000Y-84958000D01*
X156010000Y-84959000D01*
X156008000Y-84959000D01*
X156005000Y-84960000D01*
X156003000Y-84960000D01*
X156000000Y-84960000D01*
X155700000Y-84960000D01*
X155697000Y-84960000D01*
X155695000Y-84960000D01*
X155692000Y-84961000D01*
X155690000Y-84961000D01*
X155687000Y-84962000D01*
X155685000Y-84962000D01*
X155682000Y-84963000D01*
X155680000Y-84964000D01*
X155677000Y-84965000D01*
X155675000Y-84967000D01*
X155673000Y-84968000D01*
X155671000Y-84970000D01*
X155669000Y-84971000D01*
X155667000Y-84973000D01*
X155665000Y-84975000D01*
X155663000Y-84977000D01*
X155661000Y-84979000D01*
X155660000Y-84981000D01*
X155658000Y-84983000D01*
X155657000Y-84985000D01*
X155655000Y-84987000D01*
X155654000Y-84990000D01*
X155653000Y-84992000D01*
X155652000Y-84995000D01*
X155652000Y-84997000D01*
X155651000Y-85000000D01*
X155651000Y-85002000D01*
X155650000Y-85005000D01*
X155650000Y-85007000D01*
X155650000Y-85010000D01*
X155650000Y-85160000D01*
X155650000Y-85163000D01*
X155650000Y-85165000D01*
X155651000Y-85168000D01*
X155651000Y-85170000D01*
X155652000Y-85173000D01*
X155652000Y-85175000D01*
X155653000Y-85178000D01*
X155654000Y-85180000D01*
X155655000Y-85183000D01*
X155657000Y-85185000D01*
X155658000Y-85187000D01*
X155660000Y-85189000D01*
X155661000Y-85191000D01*
X155663000Y-85193000D01*
X155665000Y-85195000D01*
X155667000Y-85197000D01*
X155669000Y-85199000D01*
X155671000Y-85200000D01*
X155673000Y-85202000D01*
X155675000Y-85203000D01*
X155677000Y-85205000D01*
X155680000Y-85206000D01*
X155682000Y-85207000D01*
X155685000Y-85208000D01*
X155687000Y-85208000D01*
X155690000Y-85209000D01*
X155692000Y-85209000D01*
X155695000Y-85210000D01*
X155697000Y-85210000D01*
X155700000Y-85210000D01*
X156000000Y-85210000D01*
X156003000Y-85210000D01*
X156005000Y-85210000D01*
X156008000Y-85211000D01*
X156010000Y-85211000D01*
X156013000Y-85212000D01*
X156015000Y-85212000D01*
X156018000Y-85213000D01*
X156020000Y-85214000D01*
X156023000Y-85215000D01*
X156025000Y-85217000D01*
X156027000Y-85218000D01*
X156029000Y-85220000D01*
X156031000Y-85221000D01*
X156033000Y-85223000D01*
X156035000Y-85225000D01*
X156037000Y-85227000D01*
X156039000Y-85229000D01*
X156040000Y-85231000D01*
X156042000Y-85233000D01*
X156043000Y-85235000D01*
X156045000Y-85237000D01*
X156046000Y-85240000D01*
X156047000Y-85242000D01*
X156048000Y-85245000D01*
X156048000Y-85247000D01*
X156049000Y-85250000D01*
X156049000Y-85252000D01*
X156050000Y-85255000D01*
X156050000Y-85257000D01*
X156050000Y-85260000D01*
X156050000Y-85410000D01*
X156050000Y-85413000D01*
X156050000Y-85415000D01*
X156049000Y-85418000D01*
X156049000Y-85420000D01*
X156048000Y-85423000D01*
X156048000Y-85425000D01*
X156047000Y-85428000D01*
X156046000Y-85430000D01*
X156045000Y-85433000D01*
X156043000Y-85435000D01*
X156042000Y-85437000D01*
X156040000Y-85439000D01*
X156039000Y-85441000D01*
X156037000Y-85443000D01*
X156035000Y-85445000D01*
X156033000Y-85447000D01*
X156031000Y-85449000D01*
X156029000Y-85450000D01*
X156027000Y-85452000D01*
X156025000Y-85453000D01*
X156023000Y-85455000D01*
X156020000Y-85456000D01*
X156018000Y-85457000D01*
X156015000Y-85458000D01*
X156013000Y-85458000D01*
X156010000Y-85459000D01*
X156008000Y-85459000D01*
X156005000Y-85460000D01*
X156003000Y-85460000D01*
X156000000Y-85460000D01*
X155700000Y-85460000D01*
X155697000Y-85460000D01*
X155695000Y-85460000D01*
X155692000Y-85461000D01*
X155690000Y-85461000D01*
X155687000Y-85462000D01*
X155685000Y-85462000D01*
X155682000Y-85463000D01*
X155680000Y-85464000D01*
X155677000Y-85465000D01*
X155675000Y-85467000D01*
X155673000Y-85468000D01*
X155671000Y-85470000D01*
X155669000Y-85471000D01*
X155667000Y-85473000D01*
X155665000Y-85475000D01*
X155663000Y-85477000D01*
X155661000Y-85479000D01*
X155660000Y-85481000D01*
X155658000Y-85483000D01*
X155657000Y-85485000D01*
X155655000Y-85487000D01*
X155654000Y-85490000D01*
X155653000Y-85492000D01*
X155652000Y-85495000D01*
X155652000Y-85497000D01*
X155651000Y-85500000D01*
X155651000Y-85502000D01*
X155650000Y-85505000D01*
X155650000Y-85507000D01*
X155650000Y-85510000D01*
X155650000Y-85660000D01*
X155650000Y-85663000D01*
X155650000Y-85665000D01*
X155651000Y-85668000D01*
X155651000Y-85670000D01*
X155652000Y-85673000D01*
X155652000Y-85675000D01*
X155653000Y-85678000D01*
X155654000Y-85680000D01*
X155655000Y-85683000D01*
X155657000Y-85685000D01*
X155658000Y-85687000D01*
X155660000Y-85689000D01*
X155661000Y-85691000D01*
X155663000Y-85693000D01*
X155665000Y-85695000D01*
X155667000Y-85697000D01*
X155669000Y-85699000D01*
X155671000Y-85700000D01*
X155673000Y-85702000D01*
X155675000Y-85703000D01*
X155677000Y-85705000D01*
X155680000Y-85706000D01*
X155682000Y-85707000D01*
X155685000Y-85708000D01*
X155687000Y-85708000D01*
X155690000Y-85709000D01*
X155692000Y-85709000D01*
X155695000Y-85710000D01*
X155697000Y-85710000D01*
X155700000Y-85710000D01*
X156000000Y-85710000D01*
X156003000Y-85710000D01*
X156005000Y-85710000D01*
X156008000Y-85711000D01*
X156010000Y-85711000D01*
X156013000Y-85712000D01*
X156015000Y-85712000D01*
X156018000Y-85713000D01*
X156020000Y-85714000D01*
X156023000Y-85715000D01*
X156025000Y-85717000D01*
X156027000Y-85718000D01*
X156029000Y-85720000D01*
X156031000Y-85721000D01*
X156033000Y-85723000D01*
X156035000Y-85725000D01*
X156037000Y-85727000D01*
X156039000Y-85729000D01*
X156040000Y-85731000D01*
X156042000Y-85733000D01*
X156043000Y-85735000D01*
X156045000Y-85737000D01*
X156046000Y-85740000D01*
X156047000Y-85742000D01*
X156048000Y-85745000D01*
X156048000Y-85747000D01*
X156049000Y-85750000D01*
X156049000Y-85752000D01*
X156050000Y-85755000D01*
X156050000Y-85757000D01*
X156050000Y-85760000D01*
X156050000Y-85910000D01*
X156050000Y-85913000D01*
X156050000Y-85915000D01*
X156049000Y-85918000D01*
X156049000Y-85920000D01*
X156048000Y-85923000D01*
X156048000Y-85925000D01*
X156047000Y-85928000D01*
X156046000Y-85930000D01*
X156045000Y-85933000D01*
X156043000Y-85935000D01*
X156042000Y-85937000D01*
X156040000Y-85939000D01*
X156039000Y-85941000D01*
X156037000Y-85943000D01*
X156035000Y-85945000D01*
X156033000Y-85947000D01*
X156031000Y-85949000D01*
X156029000Y-85950000D01*
X156027000Y-85952000D01*
X156025000Y-85953000D01*
X156023000Y-85955000D01*
X156020000Y-85956000D01*
X156018000Y-85957000D01*
X156015000Y-85958000D01*
X156013000Y-85958000D01*
X156010000Y-85959000D01*
X156008000Y-85959000D01*
X156005000Y-85960000D01*
X156003000Y-85960000D01*
X156000000Y-85960000D01*
X155700000Y-85960000D01*
X155697000Y-85960000D01*
X155695000Y-85960000D01*
X155692000Y-85961000D01*
X155690000Y-85961000D01*
X155687000Y-85962000D01*
X155685000Y-85962000D01*
X155682000Y-85963000D01*
X155680000Y-85964000D01*
X155677000Y-85965000D01*
X155675000Y-85967000D01*
X155673000Y-85968000D01*
X155671000Y-85970000D01*
X155669000Y-85971000D01*
X155667000Y-85973000D01*
X155665000Y-85975000D01*
X155663000Y-85977000D01*
X155661000Y-85979000D01*
X155660000Y-85981000D01*
X155658000Y-85983000D01*
X155657000Y-85985000D01*
X155655000Y-85987000D01*
X155654000Y-85990000D01*
X155653000Y-85992000D01*
X155652000Y-85995000D01*
X155652000Y-85997000D01*
X155651000Y-86000000D01*
X155651000Y-86002000D01*
X155650000Y-86005000D01*
X155650000Y-86007000D01*
X155650000Y-86010000D01*
X155650000Y-86325000D01*
X155650000Y-86328000D01*
X155650000Y-86330000D01*
X155649000Y-86333000D01*
X155649000Y-86335000D01*
X155648000Y-86338000D01*
X155648000Y-86340000D01*
X155647000Y-86343000D01*
X155646000Y-86345000D01*
X155645000Y-86348000D01*
X155643000Y-86350000D01*
X155642000Y-86352000D01*
X155640000Y-86354000D01*
X155639000Y-86356000D01*
X155637000Y-86358000D01*
X155635000Y-86360000D01*
X155633000Y-86362000D01*
X155631000Y-86364000D01*
X155629000Y-86365000D01*
X155627000Y-86367000D01*
X155625000Y-86368000D01*
X155623000Y-86370000D01*
X155620000Y-86371000D01*
X155618000Y-86372000D01*
X155615000Y-86373000D01*
X155613000Y-86373000D01*
X155610000Y-86374000D01*
X155608000Y-86374000D01*
X155605000Y-86375000D01*
X155603000Y-86375000D01*
X155600000Y-86375000D01*
X154700000Y-86375000D01*
X154697000Y-86375000D01*
X154695000Y-86375000D01*
X154692000Y-86374000D01*
X154690000Y-86374000D01*
X154687000Y-86373000D01*
X154685000Y-86373000D01*
X154682000Y-86372000D01*
X154680000Y-86371000D01*
X154677000Y-86370000D01*
X154675000Y-86368000D01*
X154673000Y-86367000D01*
X154671000Y-86365000D01*
X154669000Y-86364000D01*
X154667000Y-86362000D01*
X154665000Y-86360000D01*
X154663000Y-86358000D01*
X154661000Y-86356000D01*
X154660000Y-86354000D01*
X154658000Y-86352000D01*
X154657000Y-86350000D01*
X154655000Y-86348000D01*
X154654000Y-86345000D01*
X154653000Y-86343000D01*
X154652000Y-86340000D01*
X154652000Y-86338000D01*
X154651000Y-86335000D01*
X154651000Y-86333000D01*
X154650000Y-86330000D01*
X154650000Y-86328000D01*
X154650000Y-86325000D01*
X154650000Y-84500000D01*
X154650000Y-84497000D01*
X154650000Y-84495000D01*
X154651000Y-84492000D01*
X154651000Y-84490000D01*
X154652000Y-84487000D01*
X154652000Y-84485000D01*
X154653000Y-84482000D01*
X154654000Y-84480000D01*
X154655000Y-84477000D01*
X154657000Y-84475000D01*
X154658000Y-84473000D01*
X154660000Y-84471000D01*
X154661000Y-84469000D01*
X154663000Y-84467000D01*
X154665000Y-84465000D01*
X154667000Y-84463000D01*
X154669000Y-84461000D01*
X154671000Y-84460000D01*
X154673000Y-84458000D01*
X154675000Y-84457000D01*
X154677000Y-84455000D01*
X154680000Y-84454000D01*
X154682000Y-84453000D01*
X154685000Y-84452000D01*
X154687000Y-84452000D01*
X154690000Y-84451000D01*
X154692000Y-84451000D01*
X154695000Y-84450000D01*
X154697000Y-84450000D01*
X154700000Y-84450000D01*
X155600000Y-84450000D01*
X155603000Y-84450000D01*
X155605000Y-84450000D01*
X155608000Y-84451000D01*
G36*
X155608000Y-84451000D02*
G01*
X155610000Y-84451000D01*
X155613000Y-84452000D01*
X155615000Y-84452000D01*
X155618000Y-84453000D01*
X155620000Y-84454000D01*
X155623000Y-84455000D01*
X155625000Y-84457000D01*
X155627000Y-84458000D01*
X155629000Y-84460000D01*
X155631000Y-84461000D01*
X155633000Y-84463000D01*
X155635000Y-84465000D01*
X155637000Y-84467000D01*
X155639000Y-84469000D01*
X155640000Y-84471000D01*
X155642000Y-84473000D01*
X155643000Y-84475000D01*
X155645000Y-84477000D01*
X155646000Y-84480000D01*
X155647000Y-84482000D01*
X155648000Y-84485000D01*
X155648000Y-84487000D01*
X155649000Y-84490000D01*
X155649000Y-84492000D01*
X155650000Y-84495000D01*
X155650000Y-84497000D01*
X155650000Y-84500000D01*
X155650000Y-84660000D01*
X155650000Y-84663000D01*
X155650000Y-84665000D01*
X155651000Y-84668000D01*
X155651000Y-84670000D01*
X155652000Y-84673000D01*
X155652000Y-84675000D01*
X155653000Y-84678000D01*
X155654000Y-84680000D01*
X155655000Y-84683000D01*
X155657000Y-84685000D01*
X155658000Y-84687000D01*
X155660000Y-84689000D01*
X155661000Y-84691000D01*
X155663000Y-84693000D01*
X155665000Y-84695000D01*
X155667000Y-84697000D01*
X155669000Y-84699000D01*
X155671000Y-84700000D01*
X155673000Y-84702000D01*
X155675000Y-84703000D01*
X155677000Y-84705000D01*
X155680000Y-84706000D01*
X155682000Y-84707000D01*
X155685000Y-84708000D01*
X155687000Y-84708000D01*
X155690000Y-84709000D01*
X155692000Y-84709000D01*
X155695000Y-84710000D01*
X155697000Y-84710000D01*
X155700000Y-84710000D01*
X156000000Y-84710000D01*
X156003000Y-84710000D01*
X156005000Y-84710000D01*
X156008000Y-84711000D01*
X156010000Y-84711000D01*
X156013000Y-84712000D01*
X156015000Y-84712000D01*
X156018000Y-84713000D01*
X156020000Y-84714000D01*
X156023000Y-84715000D01*
X156025000Y-84717000D01*
X156027000Y-84718000D01*
X156029000Y-84720000D01*
X156031000Y-84721000D01*
X156033000Y-84723000D01*
X156035000Y-84725000D01*
X156037000Y-84727000D01*
X156039000Y-84729000D01*
X156040000Y-84731000D01*
X156042000Y-84733000D01*
X156043000Y-84735000D01*
X156045000Y-84737000D01*
X156046000Y-84740000D01*
X156047000Y-84742000D01*
X156048000Y-84745000D01*
X156048000Y-84747000D01*
X156049000Y-84750000D01*
X156049000Y-84752000D01*
X156050000Y-84755000D01*
X156050000Y-84757000D01*
X156050000Y-84760000D01*
X156050000Y-84910000D01*
X156050000Y-84913000D01*
X156050000Y-84915000D01*
X156049000Y-84918000D01*
X156049000Y-84920000D01*
X156048000Y-84923000D01*
X156048000Y-84925000D01*
X156047000Y-84928000D01*
X156046000Y-84930000D01*
X156045000Y-84933000D01*
X156043000Y-84935000D01*
X156042000Y-84937000D01*
X156040000Y-84939000D01*
X156039000Y-84941000D01*
X156037000Y-84943000D01*
X156035000Y-84945000D01*
X156033000Y-84947000D01*
X156031000Y-84949000D01*
X156029000Y-84950000D01*
X156027000Y-84952000D01*
X156025000Y-84953000D01*
X156023000Y-84955000D01*
X156020000Y-84956000D01*
X156018000Y-84957000D01*
X156015000Y-84958000D01*
X156013000Y-84958000D01*
X156010000Y-84959000D01*
X156008000Y-84959000D01*
X156005000Y-84960000D01*
X156003000Y-84960000D01*
X156000000Y-84960000D01*
X155700000Y-84960000D01*
X155697000Y-84960000D01*
X155695000Y-84960000D01*
X155692000Y-84961000D01*
X155690000Y-84961000D01*
X155687000Y-84962000D01*
X155685000Y-84962000D01*
X155682000Y-84963000D01*
X155680000Y-84964000D01*
X155677000Y-84965000D01*
X155675000Y-84967000D01*
X155673000Y-84968000D01*
X155671000Y-84970000D01*
X155669000Y-84971000D01*
X155667000Y-84973000D01*
X155665000Y-84975000D01*
X155663000Y-84977000D01*
X155661000Y-84979000D01*
X155660000Y-84981000D01*
X155658000Y-84983000D01*
X155657000Y-84985000D01*
X155655000Y-84987000D01*
X155654000Y-84990000D01*
X155653000Y-84992000D01*
X155652000Y-84995000D01*
X155652000Y-84997000D01*
X155651000Y-85000000D01*
X155651000Y-85002000D01*
X155650000Y-85005000D01*
X155650000Y-85007000D01*
X155650000Y-85010000D01*
X155650000Y-85160000D01*
X155650000Y-85163000D01*
X155650000Y-85165000D01*
X155651000Y-85168000D01*
X155651000Y-85170000D01*
X155652000Y-85173000D01*
X155652000Y-85175000D01*
X155653000Y-85178000D01*
X155654000Y-85180000D01*
X155655000Y-85183000D01*
X155657000Y-85185000D01*
X155658000Y-85187000D01*
X155660000Y-85189000D01*
X155661000Y-85191000D01*
X155663000Y-85193000D01*
X155665000Y-85195000D01*
X155667000Y-85197000D01*
X155669000Y-85199000D01*
X155671000Y-85200000D01*
X155673000Y-85202000D01*
X155675000Y-85203000D01*
X155677000Y-85205000D01*
X155680000Y-85206000D01*
X155682000Y-85207000D01*
X155685000Y-85208000D01*
X155687000Y-85208000D01*
X155690000Y-85209000D01*
X155692000Y-85209000D01*
X155695000Y-85210000D01*
X155697000Y-85210000D01*
X155700000Y-85210000D01*
X156000000Y-85210000D01*
X156003000Y-85210000D01*
X156005000Y-85210000D01*
X156008000Y-85211000D01*
X156010000Y-85211000D01*
X156013000Y-85212000D01*
X156015000Y-85212000D01*
X156018000Y-85213000D01*
X156020000Y-85214000D01*
X156023000Y-85215000D01*
X156025000Y-85217000D01*
X156027000Y-85218000D01*
X156029000Y-85220000D01*
X156031000Y-85221000D01*
X156033000Y-85223000D01*
X156035000Y-85225000D01*
X156037000Y-85227000D01*
X156039000Y-85229000D01*
X156040000Y-85231000D01*
X156042000Y-85233000D01*
X156043000Y-85235000D01*
X156045000Y-85237000D01*
X156046000Y-85240000D01*
X156047000Y-85242000D01*
X156048000Y-85245000D01*
X156048000Y-85247000D01*
X156049000Y-85250000D01*
X156049000Y-85252000D01*
X156050000Y-85255000D01*
X156050000Y-85257000D01*
X156050000Y-85260000D01*
X156050000Y-85410000D01*
X156050000Y-85413000D01*
X156050000Y-85415000D01*
X156049000Y-85418000D01*
X156049000Y-85420000D01*
X156048000Y-85423000D01*
X156048000Y-85425000D01*
X156047000Y-85428000D01*
X156046000Y-85430000D01*
X156045000Y-85433000D01*
X156043000Y-85435000D01*
X156042000Y-85437000D01*
X156040000Y-85439000D01*
X156039000Y-85441000D01*
X156037000Y-85443000D01*
X156035000Y-85445000D01*
X156033000Y-85447000D01*
X156031000Y-85449000D01*
X156029000Y-85450000D01*
X156027000Y-85452000D01*
X156025000Y-85453000D01*
X156023000Y-85455000D01*
X156020000Y-85456000D01*
X156018000Y-85457000D01*
X156015000Y-85458000D01*
X156013000Y-85458000D01*
X156010000Y-85459000D01*
X156008000Y-85459000D01*
X156005000Y-85460000D01*
X156003000Y-85460000D01*
X156000000Y-85460000D01*
X155700000Y-85460000D01*
X155697000Y-85460000D01*
X155695000Y-85460000D01*
X155692000Y-85461000D01*
X155690000Y-85461000D01*
X155687000Y-85462000D01*
X155685000Y-85462000D01*
X155682000Y-85463000D01*
X155680000Y-85464000D01*
X155677000Y-85465000D01*
X155675000Y-85467000D01*
X155673000Y-85468000D01*
X155671000Y-85470000D01*
X155669000Y-85471000D01*
X155667000Y-85473000D01*
X155665000Y-85475000D01*
X155663000Y-85477000D01*
X155661000Y-85479000D01*
X155660000Y-85481000D01*
X155658000Y-85483000D01*
X155657000Y-85485000D01*
X155655000Y-85487000D01*
X155654000Y-85490000D01*
X155653000Y-85492000D01*
X155652000Y-85495000D01*
X155652000Y-85497000D01*
X155651000Y-85500000D01*
X155651000Y-85502000D01*
X155650000Y-85505000D01*
X155650000Y-85507000D01*
X155650000Y-85510000D01*
X155650000Y-85660000D01*
X155650000Y-85663000D01*
X155650000Y-85665000D01*
X155651000Y-85668000D01*
X155651000Y-85670000D01*
X155652000Y-85673000D01*
X155652000Y-85675000D01*
X155653000Y-85678000D01*
X155654000Y-85680000D01*
X155655000Y-85683000D01*
X155657000Y-85685000D01*
X155658000Y-85687000D01*
X155660000Y-85689000D01*
X155661000Y-85691000D01*
X155663000Y-85693000D01*
X155665000Y-85695000D01*
X155667000Y-85697000D01*
X155669000Y-85699000D01*
X155671000Y-85700000D01*
X155673000Y-85702000D01*
X155675000Y-85703000D01*
X155677000Y-85705000D01*
X155680000Y-85706000D01*
X155682000Y-85707000D01*
X155685000Y-85708000D01*
X155687000Y-85708000D01*
X155690000Y-85709000D01*
X155692000Y-85709000D01*
X155695000Y-85710000D01*
X155697000Y-85710000D01*
X155700000Y-85710000D01*
X156000000Y-85710000D01*
X156003000Y-85710000D01*
X156005000Y-85710000D01*
X156008000Y-85711000D01*
X156010000Y-85711000D01*
X156013000Y-85712000D01*
X156015000Y-85712000D01*
X156018000Y-85713000D01*
X156020000Y-85714000D01*
X156023000Y-85715000D01*
X156025000Y-85717000D01*
X156027000Y-85718000D01*
X156029000Y-85720000D01*
X156031000Y-85721000D01*
X156033000Y-85723000D01*
X156035000Y-85725000D01*
X156037000Y-85727000D01*
X156039000Y-85729000D01*
X156040000Y-85731000D01*
X156042000Y-85733000D01*
X156043000Y-85735000D01*
X156045000Y-85737000D01*
X156046000Y-85740000D01*
X156047000Y-85742000D01*
X156048000Y-85745000D01*
X156048000Y-85747000D01*
X156049000Y-85750000D01*
X156049000Y-85752000D01*
X156050000Y-85755000D01*
X156050000Y-85757000D01*
X156050000Y-85760000D01*
X156050000Y-85910000D01*
X156050000Y-85913000D01*
X156050000Y-85915000D01*
X156049000Y-85918000D01*
X156049000Y-85920000D01*
X156048000Y-85923000D01*
X156048000Y-85925000D01*
X156047000Y-85928000D01*
X156046000Y-85930000D01*
X156045000Y-85933000D01*
X156043000Y-85935000D01*
X156042000Y-85937000D01*
X156040000Y-85939000D01*
X156039000Y-85941000D01*
X156037000Y-85943000D01*
X156035000Y-85945000D01*
X156033000Y-85947000D01*
X156031000Y-85949000D01*
X156029000Y-85950000D01*
X156027000Y-85952000D01*
X156025000Y-85953000D01*
X156023000Y-85955000D01*
X156020000Y-85956000D01*
X156018000Y-85957000D01*
X156015000Y-85958000D01*
X156013000Y-85958000D01*
X156010000Y-85959000D01*
X156008000Y-85959000D01*
X156005000Y-85960000D01*
X156003000Y-85960000D01*
X156000000Y-85960000D01*
X155700000Y-85960000D01*
X155697000Y-85960000D01*
X155695000Y-85960000D01*
X155692000Y-85961000D01*
X155690000Y-85961000D01*
X155687000Y-85962000D01*
X155685000Y-85962000D01*
X155682000Y-85963000D01*
X155680000Y-85964000D01*
X155677000Y-85965000D01*
X155675000Y-85967000D01*
X155673000Y-85968000D01*
X155671000Y-85970000D01*
X155669000Y-85971000D01*
X155667000Y-85973000D01*
X155665000Y-85975000D01*
X155663000Y-85977000D01*
X155661000Y-85979000D01*
X155660000Y-85981000D01*
X155658000Y-85983000D01*
X155657000Y-85985000D01*
X155655000Y-85987000D01*
X155654000Y-85990000D01*
X155653000Y-85992000D01*
X155652000Y-85995000D01*
X155652000Y-85997000D01*
X155651000Y-86000000D01*
X155651000Y-86002000D01*
X155650000Y-86005000D01*
X155650000Y-86007000D01*
X155650000Y-86010000D01*
X155650000Y-86325000D01*
X155650000Y-86328000D01*
X155650000Y-86330000D01*
X155649000Y-86333000D01*
X155649000Y-86335000D01*
X155648000Y-86338000D01*
X155648000Y-86340000D01*
X155647000Y-86343000D01*
X155646000Y-86345000D01*
X155645000Y-86348000D01*
X155643000Y-86350000D01*
X155642000Y-86352000D01*
X155640000Y-86354000D01*
X155639000Y-86356000D01*
X155637000Y-86358000D01*
X155635000Y-86360000D01*
X155633000Y-86362000D01*
X155631000Y-86364000D01*
X155629000Y-86365000D01*
X155627000Y-86367000D01*
X155625000Y-86368000D01*
X155623000Y-86370000D01*
X155620000Y-86371000D01*
X155618000Y-86372000D01*
X155615000Y-86373000D01*
X155613000Y-86373000D01*
X155610000Y-86374000D01*
X155608000Y-86374000D01*
X155605000Y-86375000D01*
X155603000Y-86375000D01*
X155600000Y-86375000D01*
X154700000Y-86375000D01*
X154697000Y-86375000D01*
X154695000Y-86375000D01*
X154692000Y-86374000D01*
X154690000Y-86374000D01*
X154687000Y-86373000D01*
X154685000Y-86373000D01*
X154682000Y-86372000D01*
X154680000Y-86371000D01*
X154677000Y-86370000D01*
X154675000Y-86368000D01*
X154673000Y-86367000D01*
X154671000Y-86365000D01*
X154669000Y-86364000D01*
X154667000Y-86362000D01*
X154665000Y-86360000D01*
X154663000Y-86358000D01*
X154661000Y-86356000D01*
X154660000Y-86354000D01*
X154658000Y-86352000D01*
X154657000Y-86350000D01*
X154655000Y-86348000D01*
X154654000Y-86345000D01*
X154653000Y-86343000D01*
X154652000Y-86340000D01*
X154652000Y-86338000D01*
X154651000Y-86335000D01*
X154651000Y-86333000D01*
X154650000Y-86330000D01*
X154650000Y-86328000D01*
X154650000Y-86325000D01*
X154650000Y-84500000D01*
X154650000Y-84497000D01*
X154650000Y-84495000D01*
X154651000Y-84492000D01*
X154651000Y-84490000D01*
X154652000Y-84487000D01*
X154652000Y-84485000D01*
X154653000Y-84482000D01*
X154654000Y-84480000D01*
X154655000Y-84477000D01*
X154657000Y-84475000D01*
X154658000Y-84473000D01*
X154660000Y-84471000D01*
X154661000Y-84469000D01*
X154663000Y-84467000D01*
X154665000Y-84465000D01*
X154667000Y-84463000D01*
X154669000Y-84461000D01*
X154671000Y-84460000D01*
X154673000Y-84458000D01*
X154675000Y-84457000D01*
X154677000Y-84455000D01*
X154680000Y-84454000D01*
X154682000Y-84453000D01*
X154685000Y-84452000D01*
X154687000Y-84452000D01*
X154690000Y-84451000D01*
X154692000Y-84451000D01*
X154695000Y-84450000D01*
X154697000Y-84450000D01*
X154700000Y-84450000D01*
X155600000Y-84450000D01*
X155603000Y-84450000D01*
X155605000Y-84450000D01*
X155608000Y-84451000D01*
G37*
%TO.C,JP3*%
G36*
X149125000Y-105350000D02*
G01*
X150625000Y-105350000D01*
X150625000Y-105650000D01*
X149125000Y-105650000D01*
X149125000Y-105350000D01*
G37*
%TD*%
D11*
%TO.C,J6*%
X147920000Y-77640000D03*
X142140000Y-77640000D03*
D12*
X149350000Y-78140000D03*
X140710000Y-78140000D03*
D13*
X149350000Y-73960000D03*
X140710000Y-73960000D03*
%TD*%
D14*
%TO.C,H1*%
X132450000Y-74450000D03*
%TD*%
%TO.C,H4*%
X132450000Y-104950000D03*
%TD*%
D15*
%TO.C,S1*%
X156200000Y-73750000D03*
X153900000Y-73750000D03*
%TD*%
D14*
%TO.C,H2*%
X162950000Y-74450000D03*
%TD*%
%TO.C,H3*%
X162950000Y-104950000D03*
%TD*%
D16*
%TO.C,R11*%
X151050000Y-88625000D03*
X149225000Y-88625000D03*
%TD*%
D17*
%TO.C,R15*%
X144050000Y-74572500D03*
X144050000Y-72572500D03*
%TD*%
D16*
%TO.C,R7*%
X164150000Y-81950000D03*
X162325000Y-81950000D03*
%TD*%
D18*
%TO.C,R2*%
X133525000Y-89637500D03*
X133525000Y-91462500D03*
%TD*%
D19*
%TO.C,C2*%
X146175000Y-82062500D03*
X146175000Y-80337500D03*
%TD*%
D20*
%TO.C,C21*%
X145850000Y-83950000D03*
X145850000Y-86900000D03*
%TD*%
D21*
%TO.C,R6*%
X149225000Y-90225000D03*
X151050000Y-90225000D03*
%TD*%
D22*
%TO.C,Q2*%
X131900000Y-84350000D03*
X131900000Y-82450000D03*
X133775000Y-83400000D03*
%TD*%
D23*
%TO.C,JP4*%
X149300000Y-80850000D03*
X148000000Y-80850000D03*
%TD*%
D24*
%TO.C,U3*%
X144350000Y-80250000D03*
X144350000Y-82150000D03*
X142475000Y-81200000D03*
%TD*%
D25*
%TO.C,R5*%
X152850000Y-91837500D03*
X152850000Y-90012500D03*
%TD*%
D21*
%TO.C,R3*%
X131687500Y-80850000D03*
X133512500Y-80850000D03*
%TD*%
D16*
%TO.C,R8*%
X155962500Y-72250000D03*
X154137500Y-72250000D03*
%TD*%
D20*
%TO.C,C23*%
X150705000Y-83950000D03*
X150705000Y-86900000D03*
%TD*%
D19*
%TO.C,C1*%
X140675000Y-82062500D03*
X140675000Y-80337500D03*
%TD*%
D17*
%TO.C,R9*%
X146050000Y-74572500D03*
X146050000Y-72572500D03*
%TD*%
D26*
%TO.C,C18*%
X156412500Y-91625000D03*
X154687500Y-91625000D03*
%TD*%
D20*
%TO.C,C20*%
X143450000Y-83950000D03*
X143450000Y-86900000D03*
%TD*%
D26*
%TO.C,C11*%
X156412500Y-90025000D03*
X154687500Y-90025000D03*
%TD*%
D16*
%TO.C,R4*%
X133512500Y-85950000D03*
X131687500Y-85950000D03*
%TD*%
D18*
%TO.C,R1*%
X131925000Y-91425000D03*
X131925000Y-93250000D03*
%TD*%
D20*
%TO.C,C22*%
X148250000Y-83950000D03*
X148250000Y-86900000D03*
%TD*%
%TO.C,C19*%
X141050000Y-83950000D03*
X141050000Y-86900000D03*
%TD*%
D16*
%TO.C,R10*%
X164150000Y-80350000D03*
X162325000Y-80350000D03*
%TD*%
D27*
%TO.C,JP3*%
X149875000Y-104850000D03*
X149875000Y-106150000D03*
%TD*%
D28*
%TO.C,Y1*%
X144425000Y-104600000D03*
X139545000Y-104600000D03*
%TD*%
M02*
