%TF.GenerationSoftware,KiCad,Pcbnew,9.0.6+1*%
%TF.CreationDate,Date%
%TF.ProjectId,FCU3,46435533-2e6b-4696-9361-645f70636258,+ (Unreleased)*%
%TF.SameCoordinates,Original*%
%TF.FileFunction,Copper,L4,Bot*%
%TF.FilePolarity,Positive*%
%FSLAX46Y46*%
G04 Gerber Fmt 4.6, Leading zero omitted, Abs format (unit mm)*
G04 Created by KiCad*
%MOMM*%
%LPD*%
G01*
G04 APERTURE LIST*
G04 Aperture macros list*
%AMRoundRect*
0 Rectangle with rounded corners*
0 $1 Rounding radius*
0 $2 $3 $4 $5 $6 $7 $8 $9 X,Y pos of 4 corners*
0 Add a 4 corners polygon primitive as box body*
4,1,4,$2,$3,$4,$5,$6,$7,$8,$9,$2,$3,0*
0 Add four circle primitives for the rounded corners*
1,1,$1+$1,$2,$3*
1,1,$1+$1,$4,$5*
1,1,$1+$1,$6,$7*
1,1,$1+$1,$8,$9*
0 Add four rect primitives between the rounded corners*
20,1,$1+$1,$2,$3,$4,$5,0*
20,1,$1+$1,$4,$5,$6,$7,0*
20,1,$1+$1,$6,$7,$8,$9,0*
20,1,$1+$1,$8,$9,$2,$3,0*%
%AMFreePoly0*
4,1,230,1.285236,0.141472,1.286180,0.141000,1.288000,0.141000,1.290236,0.140472,1.291920,0.139630,1.294581,0.138743,1.295236,0.138472,1.296920,0.137630,1.299581,0.136743,1.300236,0.136472,1.302236,0.135472,1.303536,0.134536,1.304964,0.133108,1.306236,0.132472,1.307536,0.131536,1.308964,0.130108,1.310236,0.129472,1.311536,0.128536,1.317536,0.122536,1.318472,0.121236,
1.319108,0.119964,1.320536,0.118536,1.321743,0.116581,1.322369,0.114703,1.323536,0.113536,1.324472,0.112236,1.325472,0.110236,1.325743,0.109581,1.326630,0.106920,1.327472,0.105236,1.328000,0.103000,1.328000,0.101180,1.328472,0.100236,1.329000,0.098000,1.329000,0.096180,1.329472,0.095236,1.330000,0.093000,1.330000,-1.142000,1.329743,-1.143581,1.329000,-1.145810,
1.329000,-1.147000,1.328743,-1.148581,1.328000,-1.150810,1.328000,-1.152000,1.327743,-1.153581,1.326743,-1.156581,1.326472,-1.157236,1.325630,-1.158920,1.324743,-1.161581,1.323536,-1.163536,1.322108,-1.164964,1.321472,-1.166236,1.320536,-1.167536,1.319108,-1.168964,1.318472,-1.170236,1.317536,-1.171536,1.309536,-1.179536,1.308236,-1.180472,1.306964,-1.181108,1.305536,-1.182536,
1.304236,-1.183472,1.302964,-1.184108,1.301536,-1.185536,1.299581,-1.186743,1.296920,-1.187630,1.295236,-1.188472,1.294581,-1.188743,1.291581,-1.189743,1.290000,-1.190000,1.288810,-1.190000,1.286581,-1.190743,1.285000,-1.191000,1.283810,-1.191000,1.281581,-1.191743,1.280000,-1.192000,1.120000,-1.192000,1.118419,-1.191743,1.116190,-1.191000,1.115000,-1.191000,1.113419,-1.190743,
1.111190,-1.190000,1.110000,-1.190000,1.108419,-1.189743,1.105419,-1.188743,1.104764,-1.188472,1.103080,-1.187630,1.100419,-1.186743,1.098464,-1.185536,1.097036,-1.184108,1.095764,-1.183472,1.094464,-1.182536,1.093036,-1.181108,1.091764,-1.180472,1.090464,-1.179536,1.082464,-1.171536,1.081528,-1.170236,1.080892,-1.168964,1.079464,-1.167536,1.078528,-1.166236,1.077892,-1.164964,
1.076464,-1.163536,1.075257,-1.161581,1.074370,-1.158920,1.073528,-1.157236,1.073257,-1.156581,1.072257,-1.153581,1.072000,-1.152000,1.072000,-1.150810,1.071257,-1.148581,1.071000,-1.147000,1.071000,-1.145810,1.070257,-1.143581,1.070000,-1.142000,1.070000,-0.343180,1.069528,-0.342236,1.069000,-0.340000,1.069000,-0.338180,1.068528,-0.337236,1.068000,-0.335000,1.068000,-0.334415,
1.067000,-0.332000,1.067000,-0.331415,1.066757,-0.330829,1.066464,-0.330536,1.065433,-0.328046,1.064892,-0.326964,1.064464,-0.326536,1.063757,-0.324829,1.061464,-0.322536,1.060757,-0.320829,1.056453,-0.316525,0.896464,-0.155536,0.894170,-0.153242,0.892464,-0.152536,0.890596,-0.150668,0.889764,-0.150472,0.887764,-0.149472,0.886464,-0.148536,0.886170,-0.148242,0.884464,-0.147536,
0.883596,-0.146668,0.882764,-0.146472,0.880953,-0.145566,0.879585,-0.145000,0.878000,-0.145000,0.875585,-0.144000,0.875000,-0.144000,0.872764,-0.143472,0.871820,-0.143000,-0.350000,-0.143000,-0.351581,-0.142743,-0.353810,-0.142000,-0.358000,-0.142000,-0.360236,-0.141472,-0.361180,-0.141000,-0.363000,-0.141000,-0.365236,-0.140472,-0.366920,-0.139630,-0.369581,-0.138743,-0.370236,-0.138472,
-0.371920,-0.137630,-0.374581,-0.136743,-0.375236,-0.136472,-0.377236,-0.135472,-0.378536,-0.134536,-0.379964,-0.133108,-0.381236,-0.132472,-0.382536,-0.131536,-0.383964,-0.130108,-0.385236,-0.129472,-0.386536,-0.128536,-0.392536,-0.122536,-0.393472,-0.121236,-0.394108,-0.119964,-0.395536,-0.118536,-0.396472,-0.117236,-0.397332,-0.115516,-0.399160,-0.112774,-0.399472,-0.112236,-0.400472,-0.110236,
-0.400743,-0.109581,-0.401630,-0.106920,-0.402472,-0.105236,-0.403000,-0.103000,-0.403000,-0.101180,-0.403472,-0.100236,-0.404000,-0.098000,-0.404000,-0.096180,-0.404472,-0.095236,-0.405000,-0.093000,-0.405000,0.093000,-0.404472,0.095236,-0.404000,0.096180,-0.404000,0.098000,-0.403472,0.100236,-0.403000,0.101180,-0.403000,0.103000,-0.402472,0.105236,-0.401630,0.106920,-0.400743,0.109581,
-0.400472,0.110236,-0.399472,0.112236,-0.398536,0.113536,-0.397369,0.114703,-0.396743,0.116581,-0.395536,0.118536,-0.394108,0.119964,-0.393472,0.121236,-0.392536,0.122536,-0.386536,0.128536,-0.385236,0.129472,-0.383964,0.130108,-0.382536,0.131536,-0.381236,0.132472,-0.379964,0.133108,-0.378536,0.134536,-0.377236,0.135472,-0.375236,0.136472,-0.374581,0.136743,-0.371920,0.137630,
-0.370236,0.138472,-0.369581,0.138743,-0.366920,0.139630,-0.365236,0.140472,-0.363000,0.141000,-0.361180,0.141000,-0.360236,0.141472,-0.358000,0.142000,1.283000,0.142000,1.285236,0.141472,1.285236,0.141472,$1*%
%AMFreePoly1*
4,1,153,0.480981,0.991903,0.485496,0.991000,0.491000,0.991000,0.491981,0.990903,0.501981,0.988903,0.502857,0.988642,0.517857,0.982642,0.518236,0.982472,0.522052,0.980564,0.526857,0.978642,0.528000,0.978000,0.531798,0.975151,0.536572,0.972287,0.537000,0.972000,0.541000,0.969000,0.541536,0.968536,0.545288,0.964784,0.549000,0.962000,0.550000,0.961000,0.552784,0.957288,
0.556536,0.953536,0.557000,0.953000,0.560000,0.949000,0.560287,0.948572,0.563151,0.943798,0.566000,0.940000,0.566642,0.938857,0.568564,0.934052,0.570472,0.930236,0.570642,0.929857,0.576642,0.914857,0.576903,0.913981,0.578903,0.903981,0.579000,0.903000,0.579000,0.897496,0.579903,0.892981,0.580000,0.892000,0.580000,-0.943000,0.579903,-0.943981,0.579000,-0.948496,
0.579000,-0.954000,0.578903,-0.954981,0.576903,-0.964981,0.576642,-0.965857,0.570642,-0.980857,0.570472,-0.981236,0.568564,-0.985052,0.566642,-0.989857,0.566000,-0.991000,0.563151,-0.994798,0.560287,-0.999572,0.560000,-1.000000,0.557000,-1.004000,0.556536,-1.004536,0.552784,-1.008288,0.550000,-1.012000,0.549000,-1.013000,0.545288,-1.015784,0.541536,-1.019536,0.541000,-1.020000,
0.537000,-1.023000,0.536572,-1.023287,0.531798,-1.026151,0.528000,-1.029000,0.526857,-1.029642,0.522052,-1.031564,0.518236,-1.033472,0.517857,-1.033642,0.502857,-1.039642,0.501981,-1.039903,0.491981,-1.041903,0.491000,-1.042000,0.485496,-1.042000,0.480981,-1.042903,0.480000,-1.043000,-0.830000,-1.043000,-0.830981,-1.042903,-0.835496,-1.042000,-0.841000,-1.042000,-0.841981,-1.041903,
-0.851981,-1.039903,-0.852857,-1.039642,-0.867857,-1.033642,-0.868236,-1.033472,-0.872052,-1.031564,-0.876857,-1.029642,-0.878000,-1.029000,-0.881798,-1.026151,-0.886572,-1.023287,-0.887000,-1.023000,-0.891000,-1.020000,-0.891536,-1.019536,-0.895288,-1.015784,-0.899000,-1.013000,-0.900000,-1.012000,-0.902784,-1.008288,-0.906536,-1.004536,-0.907000,-1.004000,-0.910000,-1.000000,-0.910287,-0.999572,
-0.913151,-0.994798,-0.916000,-0.991000,-0.916642,-0.989857,-0.918564,-0.985052,-0.920472,-0.981236,-0.920642,-0.980857,-0.926642,-0.965857,-0.926903,-0.964981,-0.928903,-0.954981,-0.929000,-0.954000,-0.929000,-0.948496,-0.929903,-0.943981,-0.930000,-0.943000,-0.930000,0.892000,-0.929903,0.892981,-0.929000,0.897496,-0.929000,0.903000,-0.928903,0.903981,-0.926903,0.913981,-0.926642,0.914857,
-0.920642,0.929857,-0.920472,0.930236,-0.918564,0.934052,-0.916642,0.938857,-0.916000,0.940000,-0.913151,0.943798,-0.910287,0.948572,-0.910000,0.949000,-0.907000,0.953000,-0.906536,0.953536,-0.902784,0.957288,-0.900000,0.961000,-0.899000,0.962000,-0.895288,0.964784,-0.891536,0.968536,-0.891000,0.969000,-0.887000,0.972000,-0.886572,0.972287,-0.881798,0.975151,-0.878000,0.978000,
-0.876857,0.978642,-0.872052,0.980564,-0.868236,0.982472,-0.867857,0.982642,-0.852857,0.988642,-0.851981,0.988903,-0.841981,0.990903,-0.841000,0.991000,-0.835496,0.991000,-0.830981,0.991903,-0.830000,0.992000,0.480000,0.992000,0.480981,0.991903,0.480981,0.991903,$1*%
%AMFreePoly2*
4,1,153,0.830981,0.991903,0.835496,0.991000,0.841000,0.991000,0.841981,0.990903,0.851981,0.988903,0.852857,0.988642,0.867857,0.982642,0.868236,0.982472,0.872052,0.980564,0.876857,0.978642,0.878000,0.978000,0.881798,0.975151,0.886572,0.972287,0.887000,0.972000,0.891000,0.969000,0.891536,0.968536,0.895288,0.964784,0.899000,0.962000,0.900000,0.961000,0.902784,0.957288,
0.906536,0.953536,0.907000,0.953000,0.910000,0.949000,0.910287,0.948572,0.913151,0.943798,0.916000,0.940000,0.916642,0.938857,0.918564,0.934052,0.920472,0.930236,0.920642,0.929857,0.926642,0.914857,0.926903,0.913981,0.928903,0.903981,0.929000,0.903000,0.929000,0.897496,0.929903,0.892981,0.930000,0.892000,0.930000,-0.943000,0.929903,-0.943981,0.929000,-0.948496,
0.929000,-0.954000,0.928903,-0.954981,0.926903,-0.964981,0.926642,-0.965857,0.920642,-0.980857,0.920472,-0.981236,0.918564,-0.985052,0.916642,-0.989857,0.916000,-0.991000,0.913151,-0.994798,0.910287,-0.999572,0.910000,-1.000000,0.907000,-1.004000,0.906536,-1.004536,0.902784,-1.008288,0.900000,-1.012000,0.899000,-1.013000,0.895288,-1.015784,0.891536,-1.019536,0.891000,-1.020000,
0.887000,-1.023000,0.886572,-1.023287,0.881798,-1.026151,0.878000,-1.029000,0.876857,-1.029642,0.872052,-1.031564,0.868236,-1.033472,0.867857,-1.033642,0.852857,-1.039642,0.851981,-1.039903,0.841981,-1.041903,0.841000,-1.042000,0.835496,-1.042000,0.830981,-1.042903,0.830000,-1.043000,-0.480000,-1.043000,-0.480981,-1.042903,-0.485496,-1.042000,-0.491000,-1.042000,-0.491981,-1.041903,
-0.501981,-1.039903,-0.502857,-1.039642,-0.517857,-1.033642,-0.518236,-1.033472,-0.522052,-1.031564,-0.526857,-1.029642,-0.528000,-1.029000,-0.531798,-1.026151,-0.536572,-1.023287,-0.537000,-1.023000,-0.541000,-1.020000,-0.541536,-1.019536,-0.545288,-1.015784,-0.549000,-1.013000,-0.550000,-1.012000,-0.552784,-1.008288,-0.556536,-1.004536,-0.557000,-1.004000,-0.560000,-1.000000,-0.560287,-0.999572,
-0.563151,-0.994798,-0.566000,-0.991000,-0.566642,-0.989857,-0.568564,-0.985052,-0.570472,-0.981236,-0.570642,-0.980857,-0.576642,-0.965857,-0.576903,-0.964981,-0.578903,-0.954981,-0.579000,-0.954000,-0.579000,-0.948496,-0.579903,-0.943981,-0.580000,-0.943000,-0.580000,0.892000,-0.579903,0.892981,-0.579000,0.897496,-0.579000,0.903000,-0.578903,0.903981,-0.576903,0.913981,-0.576642,0.914857,
-0.570642,0.929857,-0.570472,0.930236,-0.568564,0.934052,-0.566642,0.938857,-0.566000,0.940000,-0.563151,0.943798,-0.560287,0.948572,-0.560000,0.949000,-0.557000,0.953000,-0.556536,0.953536,-0.552784,0.957288,-0.550000,0.961000,-0.549000,0.962000,-0.545288,0.964784,-0.541536,0.968536,-0.541000,0.969000,-0.537000,0.972000,-0.536572,0.972287,-0.531798,0.975151,-0.528000,0.978000,
-0.526857,0.978642,-0.522052,0.980564,-0.518236,0.982472,-0.517857,0.982642,-0.502857,0.988642,-0.501981,0.988903,-0.491981,0.990903,-0.491000,0.991000,-0.485496,0.991000,-0.480981,0.991903,-0.480000,0.992000,0.830000,0.992000,0.830981,0.991903,0.830981,0.991903,$1*%
%AMFreePoly3*
4,1,153,0.805981,0.429903,0.810496,0.429000,0.816000,0.429000,0.816981,0.428903,0.826981,0.426903,0.827857,0.426642,0.842857,0.420642,0.843236,0.420472,0.847052,0.418564,0.851857,0.416642,0.853000,0.416000,0.856798,0.413151,0.861572,0.410287,0.862000,0.410000,0.866000,0.407000,0.866536,0.406536,0.870288,0.402784,0.874000,0.400000,0.875000,0.399000,0.877784,0.395288,
0.881536,0.391536,0.882000,0.391000,0.885000,0.387000,0.885287,0.386572,0.888151,0.381798,0.891000,0.378000,0.891642,0.376857,0.893564,0.372052,0.895472,0.368236,0.895642,0.367857,0.901642,0.352857,0.901903,0.351981,0.903903,0.341981,0.904000,0.341000,0.904000,0.335496,0.904903,0.330981,0.905000,0.330000,0.905000,-0.330000,0.904903,-0.330981,0.904000,-0.335496,
0.904000,-0.341000,0.903903,-0.341981,0.901903,-0.351981,0.901642,-0.352857,0.895642,-0.367857,0.895472,-0.368236,0.893564,-0.372052,0.891642,-0.376857,0.891000,-0.378000,0.888151,-0.381798,0.885287,-0.386572,0.885000,-0.387000,0.882000,-0.391000,0.881536,-0.391536,0.877784,-0.395288,0.875000,-0.399000,0.874000,-0.400000,0.870288,-0.402784,0.866536,-0.406536,0.866000,-0.407000,
0.862000,-0.410000,0.861572,-0.410287,0.856798,-0.413151,0.853000,-0.416000,0.851857,-0.416642,0.847052,-0.418564,0.843236,-0.420472,0.842857,-0.420642,0.827857,-0.426642,0.826981,-0.426903,0.816981,-0.428903,0.816000,-0.429000,0.810496,-0.429000,0.805981,-0.429903,0.805000,-0.430000,-0.305000,-0.430000,-0.305981,-0.429903,-0.310496,-0.429000,-0.316000,-0.429000,-0.316981,-0.428903,
-0.326981,-0.426903,-0.327857,-0.426642,-0.342857,-0.420642,-0.343236,-0.420472,-0.347052,-0.418564,-0.351857,-0.416642,-0.353000,-0.416000,-0.356798,-0.413151,-0.361572,-0.410287,-0.362000,-0.410000,-0.366000,-0.407000,-0.366536,-0.406536,-0.370288,-0.402784,-0.374000,-0.400000,-0.375000,-0.399000,-0.377784,-0.395288,-0.381536,-0.391536,-0.382000,-0.391000,-0.385000,-0.387000,-0.385287,-0.386572,
-0.388151,-0.381798,-0.391000,-0.378000,-0.391642,-0.376857,-0.393564,-0.372052,-0.395472,-0.368236,-0.395642,-0.367857,-0.401642,-0.352857,-0.401903,-0.351981,-0.403903,-0.341981,-0.404000,-0.341000,-0.404000,-0.335496,-0.404903,-0.330981,-0.405000,-0.330000,-0.405000,0.330000,-0.404903,0.330981,-0.404000,0.335496,-0.404000,0.341000,-0.403903,0.341981,-0.401903,0.351981,-0.401642,0.352857,
-0.395642,0.367857,-0.395472,0.368236,-0.393564,0.372052,-0.391642,0.376857,-0.391000,0.378000,-0.388151,0.381798,-0.385287,0.386572,-0.385000,0.387000,-0.382000,0.391000,-0.381536,0.391536,-0.377784,0.395288,-0.375000,0.399000,-0.374000,0.400000,-0.370288,0.402784,-0.366536,0.406536,-0.366000,0.407000,-0.362000,0.410000,-0.361572,0.410287,-0.356798,0.413151,-0.353000,0.416000,
-0.351857,0.416642,-0.347052,0.418564,-0.343236,0.420472,-0.342857,0.420642,-0.327857,0.426642,-0.326981,0.426903,-0.316981,0.428903,-0.316000,0.429000,-0.310496,0.429000,-0.305981,0.429903,-0.305000,0.430000,0.805000,0.430000,0.805981,0.429903,0.805981,0.429903,$1*%
%AMFreePoly4*
4,1,222,1.006581,0.304743,1.008810,0.304000,1.010000,0.304000,1.011581,0.303743,1.013810,0.303000,1.015000,0.303000,1.016581,0.302743,1.019581,0.301743,1.020236,0.301472,1.021920,0.300630,1.024581,0.299743,1.026536,0.298536,1.027964,0.297108,1.029236,0.296472,1.030536,0.295536,1.031964,0.294108,1.033236,0.293472,1.034536,0.292536,1.042536,0.284536,1.043472,0.283236,
1.044108,0.281964,1.045536,0.280536,1.046472,0.279236,1.047108,0.277964,1.048536,0.276536,1.049743,0.274581,1.050630,0.271920,1.051472,0.270236,1.051743,0.269581,1.052743,0.266581,1.053000,0.265000,1.053000,0.263810,1.053743,0.261581,1.054000,0.260000,1.054000,0.258810,1.054743,0.256581,1.055000,0.255000,1.055000,0.095000,1.054743,0.093419,1.054000,0.091190,
1.054000,0.090000,1.053743,0.088419,1.053000,0.086190,1.053000,0.085000,1.052743,0.083419,1.051743,0.080419,1.051472,0.079764,1.050630,0.078080,1.049743,0.075419,1.048536,0.073464,1.047108,0.072036,1.046472,0.070764,1.045536,0.069464,1.044108,0.068036,1.043472,0.066764,1.042536,0.065464,1.034536,0.057464,1.033236,0.056528,1.031964,0.055892,1.030536,0.054464,
1.029236,0.053528,1.027964,0.052892,1.026536,0.051464,1.024581,0.050257,1.021920,0.049370,1.020236,0.048528,1.019581,0.048257,1.016581,0.047257,1.015000,0.047000,1.013810,0.047000,1.011581,0.046257,1.010000,0.046000,1.008810,0.046000,1.006581,0.045257,1.005000,0.045000,0.270496,0.045000,0.265981,0.044097,0.265000,0.044000,0.259496,0.044000,0.250428,0.042186,
0.236052,0.036436,0.232236,0.034528,0.231857,0.034358,0.227472,0.032604,0.224000,0.030000,0.223572,0.029713,0.218798,0.026849,0.215288,0.024216,0.211536,0.020464,0.211000,0.020000,0.207571,0.017428,0.205000,0.014000,0.204536,0.013464,0.200784,0.009712,0.198151,0.006201,0.195287,0.001428,0.195000,0.001000,0.192396,-0.002472,0.190642,-0.006857,0.190472,-0.007236,
0.188564,-0.011052,0.182813,-0.025428,0.181000,-0.034496,0.181000,-0.040000,0.180903,-0.040981,0.180000,-0.045496,0.180000,-0.255000,0.179743,-0.256581,0.179000,-0.258810,0.179000,-0.260000,0.178743,-0.261581,0.178000,-0.263810,0.178000,-0.265000,0.177743,-0.266581,0.176743,-0.269581,0.176472,-0.270236,0.175630,-0.271920,0.174743,-0.274581,0.173536,-0.276536,0.172108,-0.277964,
0.171472,-0.279236,0.170536,-0.280536,0.169108,-0.281964,0.168472,-0.283236,0.167536,-0.284536,0.159536,-0.292536,0.158236,-0.293472,0.156964,-0.294108,0.155536,-0.295536,0.154236,-0.296472,0.152964,-0.297108,0.151536,-0.298536,0.149581,-0.299743,0.146920,-0.300630,0.145236,-0.301472,0.144581,-0.301743,0.141581,-0.302743,0.140000,-0.303000,0.138810,-0.303000,0.136581,-0.303743,
0.135000,-0.304000,0.133810,-0.304000,0.131581,-0.304743,0.130000,-0.305000,-0.130000,-0.305000,-0.131581,-0.304743,-0.133810,-0.304000,-0.135000,-0.304000,-0.136581,-0.303743,-0.138810,-0.303000,-0.140000,-0.303000,-0.141581,-0.302743,-0.144581,-0.301743,-0.145236,-0.301472,-0.146920,-0.300630,-0.149581,-0.299743,-0.151536,-0.298536,-0.152964,-0.297108,-0.154236,-0.296472,-0.155536,-0.295536,
-0.156964,-0.294108,-0.158236,-0.293472,-0.159536,-0.292536,-0.167536,-0.284536,-0.168472,-0.283236,-0.169108,-0.281964,-0.170536,-0.280536,-0.171472,-0.279236,-0.172108,-0.277964,-0.173536,-0.276536,-0.174743,-0.274581,-0.175630,-0.271920,-0.176472,-0.270236,-0.176743,-0.269581,-0.177743,-0.266581,-0.178000,-0.265000,-0.178000,-0.263810,-0.178743,-0.261581,-0.179000,-0.260000,-0.179000,-0.258810,
-0.179743,-0.256581,-0.180000,-0.255000,-0.180000,0.255000,-0.179743,0.256581,-0.179000,0.258810,-0.179000,0.260000,-0.178743,0.261581,-0.178000,0.263810,-0.178000,0.265000,-0.177743,0.266581,-0.176743,0.269581,-0.176472,0.270236,-0.175630,0.271920,-0.174743,0.274581,-0.173536,0.276536,-0.172108,0.277964,-0.171472,0.279236,-0.170536,0.280536,-0.169108,0.281964,-0.168472,0.283236,
-0.167536,0.284536,-0.159536,0.292536,-0.158236,0.293472,-0.156964,0.294108,-0.155536,0.295536,-0.154236,0.296472,-0.152964,0.297108,-0.151536,0.298536,-0.149581,0.299743,-0.146920,0.300630,-0.145236,0.301472,-0.144581,0.301743,-0.141581,0.302743,-0.140000,0.303000,-0.138810,0.303000,-0.136581,0.303743,-0.135000,0.304000,-0.133810,0.304000,-0.131581,0.304743,-0.130000,0.305000,
1.005000,0.305000,1.006581,0.304743,1.006581,0.304743,$1*%
%AMFreePoly5*
4,1,222,0.131581,0.304743,0.133810,0.304000,0.135000,0.304000,0.136581,0.303743,0.138810,0.303000,0.140000,0.303000,0.141581,0.302743,0.144581,0.301743,0.145236,0.301472,0.146920,0.300630,0.149581,0.299743,0.151536,0.298536,0.152964,0.297108,0.154236,0.296472,0.155536,0.295536,0.156964,0.294108,0.158236,0.293472,0.159536,0.292536,0.167536,0.284536,0.168472,0.283236,
0.169108,0.281964,0.170536,0.280536,0.171472,0.279236,0.172108,0.277964,0.173536,0.276536,0.174743,0.274581,0.175630,0.271920,0.176472,0.270236,0.176743,0.269581,0.177743,0.266581,0.178000,0.265000,0.178000,0.263810,0.178743,0.261581,0.179000,0.260000,0.179000,0.258810,0.179743,0.256581,0.180000,0.255000,0.180000,-0.255000,0.179743,-0.256581,0.179000,-0.258810,
0.179000,-0.260000,0.178743,-0.261581,0.178000,-0.263810,0.178000,-0.265000,0.177743,-0.266581,0.176743,-0.269581,0.176472,-0.270236,0.175630,-0.271920,0.174743,-0.274581,0.173536,-0.276536,0.172108,-0.277964,0.171472,-0.279236,0.170536,-0.280536,0.169108,-0.281964,0.168472,-0.283236,0.167536,-0.284536,0.159536,-0.292536,0.158236,-0.293472,0.156964,-0.294108,0.155536,-0.295536,
0.154236,-0.296472,0.152964,-0.297108,0.151536,-0.298536,0.149581,-0.299743,0.146920,-0.300630,0.145236,-0.301472,0.144581,-0.301743,0.141581,-0.302743,0.140000,-0.303000,0.138810,-0.303000,0.136581,-0.303743,0.135000,-0.304000,0.133810,-0.304000,0.131581,-0.304743,0.130000,-0.305000,-0.130000,-0.305000,-0.131581,-0.304743,-0.133810,-0.304000,-0.135000,-0.304000,-0.136581,-0.303743,
-0.138810,-0.303000,-0.140000,-0.303000,-0.141581,-0.302743,-0.144581,-0.301743,-0.145236,-0.301472,-0.146920,-0.300630,-0.149581,-0.299743,-0.151536,-0.298536,-0.152964,-0.297108,-0.154236,-0.296472,-0.155536,-0.295536,-0.156964,-0.294108,-0.158236,-0.293472,-0.159536,-0.292536,-0.167536,-0.284536,-0.168472,-0.283236,-0.169108,-0.281964,-0.170536,-0.280536,-0.171472,-0.279236,-0.172108,-0.277964,
-0.173536,-0.276536,-0.174743,-0.274581,-0.175630,-0.271920,-0.176472,-0.270236,-0.176743,-0.269581,-0.177743,-0.266581,-0.178000,-0.265000,-0.178000,-0.263810,-0.178743,-0.261581,-0.179000,-0.260000,-0.179000,-0.258810,-0.179743,-0.256581,-0.180000,-0.255000,-0.180000,-0.045496,-0.180903,-0.040981,-0.181000,-0.040000,-0.181000,-0.034496,-0.182813,-0.025428,-0.188564,-0.011052,-0.190472,-0.007236,
-0.190642,-0.006857,-0.192396,-0.002472,-0.195000,0.001000,-0.195287,0.001428,-0.198151,0.006201,-0.200784,0.009712,-0.204536,0.013464,-0.205000,0.014000,-0.207571,0.017428,-0.211000,0.020000,-0.211536,0.020464,-0.215288,0.024216,-0.218798,0.026849,-0.223572,0.029713,-0.224000,0.030000,-0.227472,0.032604,-0.231857,0.034358,-0.232236,0.034528,-0.236052,0.036436,-0.250428,0.042186,
-0.259496,0.044000,-0.265000,0.044000,-0.265981,0.044097,-0.270496,0.045000,-1.005000,0.045000,-1.006581,0.045257,-1.008810,0.046000,-1.010000,0.046000,-1.011581,0.046257,-1.013810,0.047000,-1.015000,0.047000,-1.016581,0.047257,-1.019581,0.048257,-1.020236,0.048528,-1.021920,0.049370,-1.024581,0.050257,-1.026536,0.051464,-1.027964,0.052892,-1.029236,0.053528,-1.030536,0.054464,
-1.031964,0.055892,-1.033236,0.056528,-1.034536,0.057464,-1.042536,0.065464,-1.043472,0.066764,-1.044108,0.068036,-1.045536,0.069464,-1.046472,0.070764,-1.047108,0.072036,-1.048536,0.073464,-1.049743,0.075419,-1.050630,0.078080,-1.051472,0.079764,-1.051743,0.080419,-1.052743,0.083419,-1.053000,0.085000,-1.053000,0.086190,-1.053743,0.088419,-1.054000,0.090000,-1.054000,0.091190,
-1.054743,0.093419,-1.055000,0.095000,-1.055000,0.255000,-1.054743,0.256581,-1.054000,0.258810,-1.054000,0.260000,-1.053743,0.261581,-1.053000,0.263810,-1.053000,0.265000,-1.052743,0.266581,-1.051743,0.269581,-1.051472,0.270236,-1.050630,0.271920,-1.049743,0.274581,-1.048536,0.276536,-1.047108,0.277964,-1.046472,0.279236,-1.045536,0.280536,-1.044108,0.281964,-1.043472,0.283236,
-1.042536,0.284536,-1.034536,0.292536,-1.033236,0.293472,-1.031964,0.294108,-1.030536,0.295536,-1.029236,0.296472,-1.027964,0.297108,-1.026536,0.298536,-1.024581,0.299743,-1.021920,0.300630,-1.020236,0.301472,-1.019581,0.301743,-1.016581,0.302743,-1.015000,0.303000,-1.013810,0.303000,-1.011581,0.303743,-1.010000,0.304000,-1.008810,0.304000,-1.006581,0.304743,-1.005000,0.305000,
0.130000,0.305000,0.131581,0.304743,0.131581,0.304743,$1*%
G04 Aperture macros list end*
%TA.AperFunction,EtchedComponent*%
%ADD10C,0.000000*%
%TD*%
%TA.AperFunction,ComponentPad*%
%ADD11O,1.000000X2.100000*%
%TD*%
%TA.AperFunction,ComponentPad*%
%ADD12O,1.000000X1.800000*%
%TD*%
%TA.AperFunction,ComponentPad*%
%ADD13C,5.600000*%
%TD*%
%TA.AperFunction,SMDPad,CuDef*%
%ADD14RoundRect,0.237500X0.250000X0.237500X-0.250000X0.237500X-0.250000X-0.237500X0.250000X-0.237500X0*%
%TD*%
%TA.AperFunction,SMDPad,CuDef*%
%ADD15RoundRect,0.250000X0.450000X-0.350000X0.450000X0.350000X-0.450000X0.350000X-0.450000X-0.350000X0*%
%TD*%
%TA.AperFunction,SMDPad,CuDef*%
%ADD16RoundRect,0.237500X-0.237500X0.250000X-0.237500X-0.250000X0.237500X-0.250000X0.237500X0.250000X0*%
%TD*%
%TA.AperFunction,SMDPad,CuDef*%
%ADD17RoundRect,0.237500X0.237500X-0.300000X0.237500X0.300000X-0.237500X0.300000X-0.237500X-0.300000X0*%
%TD*%
%TA.AperFunction,SMDPad,CuDef*%
%ADD18RoundRect,0.250000X-0.650000X0.325000X-0.650000X-0.325000X0.650000X-0.325000X0.650000X0.325000X0*%
%TD*%
%TA.AperFunction,SMDPad,CuDef*%
%ADD19RoundRect,0.237500X-0.250000X-0.237500X0.250000X-0.237500X0.250000X0.237500X-0.250000X0.237500X0*%
%TD*%
%TA.AperFunction,SMDPad,CuDef*%
%ADD20RoundRect,0.150000X-0.587500X-0.150000X0.587500X-0.150000X0.587500X0.150000X-0.587500X0.150000X0*%
%TD*%
%TA.AperFunction,SMDPad,CuDef*%
%ADD21R,1.000000X1.500000*%
%TD*%
%TA.AperFunction,SMDPad,CuDef*%
%ADD22RoundRect,0.150000X0.587500X0.150000X-0.587500X0.150000X-0.587500X-0.150000X0.587500X-0.150000X0*%
%TD*%
%TA.AperFunction,SMDPad,CuDef*%
%ADD23RoundRect,0.237500X0.237500X-0.250000X0.237500X0.250000X-0.237500X0.250000X-0.237500X-0.250000X0*%
%TD*%
%TA.AperFunction,SMDPad,CuDef*%
%ADD24RoundRect,0.237500X0.300000X0.237500X-0.300000X0.237500X-0.300000X-0.237500X0.300000X-0.237500X0*%
%TD*%
%TA.AperFunction,SMDPad,CuDef*%
%ADD25RoundRect,0.050000X-0.350000X-0.075000X0.350000X-0.075000X0.350000X0.075000X-0.350000X0.075000X0*%
%TD*%
%TA.AperFunction,SMDPad,CuDef*%
%ADD26FreePoly0,0.000000*%
%TD*%
%TA.AperFunction,SMDPad,CuDef*%
%ADD27FreePoly1,0.000000*%
%TD*%
%TA.AperFunction,ComponentPad*%
%ADD28C,0.300000*%
%TD*%
%TA.AperFunction,SMDPad,CuDef*%
%ADD29FreePoly2,0.000000*%
%TD*%
%TA.AperFunction,SMDPad,CuDef*%
%ADD30FreePoly3,0.000000*%
%TD*%
%TA.AperFunction,SMDPad,CuDef*%
%ADD31FreePoly4,0.000000*%
%TD*%
%TA.AperFunction,SMDPad,CuDef*%
%ADD32RoundRect,0.049500X-0.100500X-0.225500X0.100500X-0.225500X0.100500X0.225500X-0.100500X0.225500X0*%
%TD*%
%TA.AperFunction,SMDPad,CuDef*%
%ADD33FreePoly5,0.000000*%
%TD*%
%TA.AperFunction,SMDPad,CuDef*%
%ADD34R,1.500000X1.000000*%
%TD*%
%TA.AperFunction,ComponentPad*%
%ADD35C,1.500000*%
%TD*%
%TA.AperFunction,ViaPad*%
%ADD36C,0.550000*%
%TD*%
%TA.AperFunction,Conductor*%
%ADD37C,0.200000*%
%TD*%
%TA.AperFunction,Conductor*%
%ADD38C,0.700000*%
%TD*%
G04 APERTURE END LIST*
D10*
%TA.AperFunction,EtchedComponent*%
%TO.C,JP4*%
G36*
X148900000Y-80650000D02*
G01*
X148400000Y-80650000D01*
X148400000Y-80250000D01*
X148900000Y-80250000D01*
X148900000Y-80650000D01*
G37*
%TD.AperFunction*%
%TA.AperFunction,EtchedComponent*%
G36*
X148900000Y-81450000D02*
G01*
X148400000Y-81450000D01*
X148400000Y-81050000D01*
X148900000Y-81050000D01*
X148900000Y-81450000D01*
G37*
%TD.AperFunction*%
%TA.AperFunction,EtchedComponent*%
%TO.C,JP3*%
G36*
X149675000Y-105750000D02*
G01*
X149275000Y-105750000D01*
X149275000Y-105250000D01*
X149675000Y-105250000D01*
X149675000Y-105750000D01*
G37*
%TD.AperFunction*%
%TA.AperFunction,EtchedComponent*%
G36*
X150475000Y-105750000D02*
G01*
X150075000Y-105750000D01*
X150075000Y-105250000D01*
X150475000Y-105250000D01*
X150475000Y-105750000D01*
G37*
%TD.AperFunction*%
%TD*%
D11*
%TO.P,J6,SH1,SHIELD*%
%TO.N,PGND*%
X149350000Y-78140000D03*
%TO.P,J6,SH2,SHIELD*%
X140710000Y-78140000D03*
D12*
%TO.P,J6,SH3,SHIELD*%
X149350000Y-73960000D03*
%TO.P,J6,SH4,SHIELD*%
X140710000Y-73960000D03*
%TD*%
D13*
%TO.P,H1,1*%
%TO.N,N/C*%
X132450000Y-74450000D03*
%TD*%
%TO.P,H4,1*%
%TO.N,N/C*%
X132450000Y-104950000D03*
%TD*%
%TO.P,H2,1*%
%TO.N,N/C*%
X162950000Y-74450000D03*
%TD*%
%TO.P,H3,1*%
%TO.N,N/C*%
X162950000Y-104950000D03*
%TD*%
D14*
%TO.P,R11,1*%
%TO.N,Net-(PS1-FB)*%
X151050000Y-88625000D03*
%TO.P,R11,2*%
%TO.N,PGND*%
X149225000Y-88625000D03*
%TD*%
D15*
%TO.P,R15,1*%
%TO.N,/Project Architecture/USB_CC2*%
X144050000Y-74572500D03*
%TO.P,R15,2*%
%TO.N,PGND*%
X144050000Y-72572500D03*
%TD*%
D14*
%TO.P,R7,1*%
%TO.N,/Project Architecture/I2C1_SCL*%
X164150000Y-81950000D03*
%TO.P,R7,2*%
%TO.N,+3V3*%
X162325000Y-81950000D03*
%TD*%
D16*
%TO.P,R2,1*%
%TO.N,AGND*%
X133525000Y-89637500D03*
%TO.P,R2,2*%
%TO.N,/Project Architecture/ANA_ADC_VBAT*%
X133525000Y-91462500D03*
%TD*%
D17*
%TO.P,C2,1*%
%TO.N,+3V3*%
X146175000Y-82062500D03*
%TO.P,C2,2*%
%TO.N,DGND*%
X146175000Y-80337500D03*
%TD*%
D18*
%TO.P,C21,1*%
%TO.N,+9V*%
X145850000Y-83950000D03*
%TO.P,C21,2*%
%TO.N,PGND*%
X145850000Y-86900000D03*
%TD*%
D19*
%TO.P,R6,1*%
%TO.N,+9V*%
X149225000Y-90225000D03*
%TO.P,R6,2*%
%TO.N,Net-(PS1-FB)*%
X151050000Y-90225000D03*
%TD*%
D20*
%TO.P,Q2,1,B*%
%TO.N,Net-(Q2-B)*%
X131900000Y-84350000D03*
%TO.P,Q2,2,E*%
%TO.N,DGND*%
X131900000Y-82450000D03*
%TO.P,Q2,3,C*%
%TO.N,/Project Architecture/UART2_RX*%
X133775000Y-83400000D03*
%TD*%
D21*
%TO.P,JP4,1,A*%
%TO.N,PGND*%
X149300000Y-80850000D03*
%TO.P,JP4,2,B*%
%TO.N,DGND*%
X148000000Y-80850000D03*
%TD*%
D22*
%TO.P,U3,1,GND*%
%TO.N,DGND*%
X144350000Y-80250000D03*
%TO.P,U3,2,VO*%
%TO.N,+3V3*%
X144350000Y-82150000D03*
%TO.P,U3,3,VI*%
%TO.N,Net-(D1-K)*%
X142475000Y-81200000D03*
%TD*%
D23*
%TO.P,R5,1*%
%TO.N,Net-(PS1-MODE)*%
X152850000Y-91837500D03*
%TO.P,R5,2*%
%TO.N,PGND*%
X152850000Y-90012500D03*
%TD*%
D19*
%TO.P,R3,1*%
%TO.N,+3.3V*%
X131687500Y-80850000D03*
%TO.P,R3,2*%
%TO.N,/Project Architecture/UART2_RX*%
X133512500Y-80850000D03*
%TD*%
D14*
%TO.P,R8,1*%
%TO.N,/Project Architecture/Microcontroller/DFU_Enable*%
X155962500Y-72250000D03*
%TO.P,R8,2*%
%TO.N,DGND*%
X154137500Y-72250000D03*
%TD*%
D18*
%TO.P,C23,1*%
%TO.N,+9V*%
X150705000Y-83950000D03*
%TO.P,C23,2*%
%TO.N,PGND*%
X150705000Y-86900000D03*
%TD*%
D17*
%TO.P,C1,1*%
%TO.N,Net-(D1-K)*%
X140675000Y-82062500D03*
%TO.P,C1,2*%
%TO.N,PGND*%
X140675000Y-80337500D03*
%TD*%
D15*
%TO.P,R9,1*%
%TO.N,/Project Architecture/USB_CC1*%
X146050000Y-74572500D03*
%TO.P,R9,2*%
%TO.N,PGND*%
X146050000Y-72572500D03*
%TD*%
D24*
%TO.P,C18,1*%
%TO.N,+VBAT*%
X156412500Y-91625000D03*
%TO.P,C18,2*%
%TO.N,PGND*%
X154687500Y-91625000D03*
%TD*%
D18*
%TO.P,C20,1*%
%TO.N,+9V*%
X143450000Y-83950000D03*
%TO.P,C20,2*%
%TO.N,PGND*%
X143450000Y-86900000D03*
%TD*%
D24*
%TO.P,C11,1*%
%TO.N,+VBAT*%
X156412500Y-90025000D03*
%TO.P,C11,2*%
%TO.N,PGND*%
X154687500Y-90025000D03*
%TD*%
D14*
%TO.P,R4,1*%
%TO.N,Net-(Q2-B)*%
X133512500Y-85950000D03*
%TO.P,R4,2*%
%TO.N,/Project Architecture/SBUS_TX*%
X131687500Y-85950000D03*
%TD*%
D16*
%TO.P,R1,1*%
%TO.N,/Project Architecture/ANA_ADC_VBAT*%
X131925000Y-91425000D03*
%TO.P,R1,2*%
%TO.N,+VBAT*%
X131925000Y-93250000D03*
%TD*%
D18*
%TO.P,C22,1*%
%TO.N,+9V*%
X148250000Y-83950000D03*
%TO.P,C22,2*%
%TO.N,PGND*%
X148250000Y-86900000D03*
%TD*%
D25*
%TO.P,PS1,1,EN*%
%TO.N,unconnected-(PS1-EN-Pad1)*%
X152700000Y-87925000D03*
%TO.P,PS1,2,FB*%
%TO.N,Net-(PS1-FB)*%
X152700000Y-87425000D03*
D26*
%TO.P,PS1,3,GND*%
%TO.N,PGND*%
X152700000Y-86913000D03*
D27*
%TO.P,PS1,4,VOUT*%
%TO.N,+9V*%
X153175000Y-85337000D03*
D28*
%TO.P,PS1,4_1*%
%TO.N,N/C*%
X152850000Y-86125000D03*
%TO.P,PS1,4_2*%
X152850000Y-85337000D03*
%TO.P,PS1,4_3*%
X152850000Y-84550000D03*
%TO.P,PS1,4_4*%
X153500000Y-86125000D03*
%TO.P,PS1,4_5*%
X153500000Y-85337000D03*
%TO.P,PS1,4_6*%
X153500000Y-84550000D03*
D29*
%TO.P,PS1,5,SW*%
%TO.N,unconnected-(PS1-SW-Pad5)*%
X155125000Y-85337000D03*
D28*
%TO.P,PS1,5_1*%
%TO.N,N/C*%
X155450000Y-86125000D03*
%TO.P,PS1,5_2*%
X155450000Y-85337000D03*
%TO.P,PS1,5_3*%
X155450000Y-84550000D03*
%TO.P,PS1,5_4*%
X154800000Y-86125000D03*
%TO.P,PS1,5_5*%
X154800000Y-85337000D03*
%TO.P,PS1,5_6*%
X154800000Y-84550000D03*
D30*
%TO.P,PS1,6,VIN*%
%TO.N,+VBAT*%
X155150000Y-87675000D03*
D31*
%TO.P,PS1,7,MODE*%
%TO.N,Net-(PS1-MODE)*%
X154950000Y-88600000D03*
D32*
%TO.P,PS1,8,SS/PG*%
%TO.N,unconnected-(PS1-SS{slash}PG-Pad8)*%
X153925000Y-88625000D03*
D33*
%TO.P,PS1,9,RT/SYNC*%
%TO.N,PGND*%
X153350000Y-88600000D03*
%TD*%
D18*
%TO.P,C19,1*%
%TO.N,+9V*%
X141050000Y-83950000D03*
%TO.P,C19,2*%
%TO.N,PGND*%
X141050000Y-86900000D03*
%TD*%
D14*
%TO.P,R10,1*%
%TO.N,/Project Architecture/I2C1_SDA*%
X164150000Y-80350000D03*
%TO.P,R10,2*%
%TO.N,+3V3*%
X162325000Y-80350000D03*
%TD*%
D34*
%TO.P,JP3,1,A*%
%TO.N,DGND*%
X149875000Y-104850000D03*
%TO.P,JP3,2,B*%
%TO.N,AGND*%
X149875000Y-106150000D03*
%TD*%
D35*
%TO.P,Y1,1,1*%
%TO.N,/Project Architecture/Microcontroller/CLK_OUT*%
X144425000Y-104600000D03*
%TO.P,Y1,2,2*%
%TO.N,+3V3*%
X139545000Y-104600000D03*
%TD*%
D36*
%TO.N,Net-(D1-K)*%
X139250000Y-78650000D03*
X139250000Y-79550000D03*
X139250000Y-77750000D03*
%TO.N,PGND*%
X140200000Y-85900000D03*
X143200000Y-85900000D03*
X130100000Y-78200000D03*
X142200000Y-85900000D03*
X132100000Y-78900000D03*
X131987500Y-88612500D03*
X132100000Y-78200000D03*
X131100000Y-78200000D03*
X132100000Y-79800000D03*
X141200000Y-85900000D03*
X133200000Y-82400000D03*
%TO.N,DGND*%
X155668750Y-93668750D03*
X162050000Y-83950000D03*
X159000000Y-94100000D03*
X138200000Y-99475000D03*
X151400000Y-104900000D03*
X164625000Y-86150000D03*
X143675000Y-106400000D03*
X148700000Y-82100000D03*
X138900000Y-102800000D03*
X152950000Y-72250000D03*
X161000000Y-93875000D03*
X156100000Y-99562500D03*
X163150000Y-79250000D03*
X130500000Y-82450000D03*
X139549000Y-88400000D03*
%TO.N,+3.3V*%
X130500000Y-80850000D03*
%TO.N,+3V3*%
X142600000Y-82400000D03*
X147600000Y-82200000D03*
X140100000Y-89025000D03*
X162900000Y-95600000D03*
X159200000Y-83000000D03*
X155400000Y-98737500D03*
X152287575Y-90900566D03*
X139300000Y-87336412D03*
X151400000Y-105800000D03*
X151550000Y-75050000D03*
%TO.N,AGND*%
X147812500Y-107000000D03*
%TO.N,+VBAT*%
X157500000Y-92000000D03*
X155600000Y-92800000D03*
X131500000Y-94400000D03*
X157600000Y-91300000D03*
X132700000Y-92300000D03*
X137900000Y-94200000D03*
X135600000Y-90800000D03*
X133100000Y-93250000D03*
X156600000Y-92800000D03*
X132300000Y-94400000D03*
X157600000Y-90600000D03*
%TO.N,+9V*%
X139250000Y-83550000D03*
X142200000Y-85000000D03*
X152250000Y-83525000D03*
X140300000Y-85000000D03*
X135500000Y-79800000D03*
X143200000Y-85000000D03*
X133300000Y-79800000D03*
X139250000Y-84350000D03*
X139250000Y-85250000D03*
X134400000Y-79800000D03*
X148050000Y-88625000D03*
X141200000Y-85000000D03*
%TO.N,/Project Architecture/SBUS_TX*%
X130500000Y-85950000D03*
%TO.N,/Project Architecture/UART4_RX*%
X149900000Y-101000000D03*
%TO.N,/Project Architecture/UART4_TX*%
X148900000Y-101000000D03*
X137400000Y-87100000D03*
X137400000Y-89100000D03*
%TO.N,/Project Architecture/UART5_TX*%
X142300000Y-94400000D03*
X162050000Y-84950000D03*
X145500000Y-94000000D03*
%TO.N,/Project Architecture/UART5_RX*%
X155633550Y-94833550D03*
X142300000Y-95900000D03*
X162050000Y-85950000D03*
X145100000Y-96800000D03*
%TO.N,/Project Architecture/I2C1_SDA*%
X142600000Y-99475000D03*
X165350000Y-80950000D03*
X154000000Y-96325000D03*
%TO.N,/Project Architecture/I2C1_SCL*%
X145600000Y-97600000D03*
X139700000Y-98500000D03*
X164100000Y-83000000D03*
X155600000Y-95700000D03*
%TO.N,/Project Architecture/UART1_RX*%
X135900000Y-99300000D03*
X145400000Y-92400000D03*
%TO.N,/Project Architecture/ANA_ADC_CURR*%
X133300000Y-98250000D03*
X147400000Y-101000000D03*
%TO.N,/Project Architecture/ESC_SIG_M4*%
X133300000Y-95500000D03*
X147400000Y-89600000D03*
%TO.N,/Project Architecture/ESC_SIG_M1*%
X146400000Y-89600000D03*
X133200000Y-94250000D03*
%TO.N,/Project Architecture/ESC_SIG_M2*%
X146900000Y-92400000D03*
X135800000Y-95250000D03*
%TO.N,/Project Architecture/ESC_SIG_M3*%
X148900000Y-92400000D03*
X133200000Y-97250000D03*
%TO.N,/Project Architecture/USB_+DATA*%
X144205000Y-81200000D03*
X145355000Y-81200000D03*
%TO.N,/Project Architecture/USB_CC1*%
X146013288Y-77586712D03*
%TO.N,/Project Architecture/USB_CC2*%
X143750000Y-77550000D03*
%TO.N,Net-(PS1-MODE)*%
X155550000Y-89200000D03*
X152000000Y-91837500D03*
%TO.N,/Project Architecture/UART2_RX*%
X152700000Y-101200000D03*
X138300000Y-87600000D03*
X150256587Y-99343413D03*
%TO.N,/Project Architecture/ANA_ADC_VBAT*%
X145900000Y-101000000D03*
%TO.N,/Project Architecture/Microcontroller/DFU_Enable*%
X155050000Y-75050000D03*
X158550000Y-75050000D03*
X142600000Y-98325000D03*
X149191912Y-93491912D03*
%TO.N,/Project Architecture/SPI1_SDO*%
X156800000Y-97475000D03*
X162400000Y-100200000D03*
%TO.N,/Project Architecture/SPI1_SDI*%
X161027500Y-94800000D03*
X155400000Y-97975000D03*
%TO.N,/Project Architecture/Microcontroller/LED1*%
X139600000Y-92900000D03*
%TO.N,/Project Architecture/Microcontroller/LED0*%
X143900000Y-92399000D03*
%TD*%
D37*
%TO.N,Net-(D1-K)*%
X140675000Y-82062500D02*
X141612500Y-82062500D01*
X139250000Y-80637500D02*
X139250000Y-79550000D01*
X141612500Y-82062500D02*
X142475000Y-81200000D01*
X140675000Y-82062500D02*
X139250000Y-80637500D01*
%TO.N,PGND*%
X154687500Y-90025000D02*
X154400000Y-89737500D01*
X153350000Y-88600000D02*
X153350000Y-89512500D01*
X152700000Y-86913000D02*
X150718000Y-86913000D01*
X154687500Y-90025000D02*
X154687500Y-91625000D01*
X153196774Y-86999000D02*
X152786000Y-86999000D01*
X149225000Y-88625000D02*
X149225000Y-88380000D01*
X141200000Y-86750000D02*
X141050000Y-86900000D01*
X140675000Y-78175000D02*
X140710000Y-78140000D01*
X142097500Y-72572500D02*
X140710000Y-73960000D01*
X154400000Y-89737500D02*
X154400000Y-88276946D01*
X146050000Y-72572500D02*
X147962500Y-72572500D01*
X149300000Y-80850000D02*
X149300000Y-78190000D01*
X143200000Y-86650000D02*
X143450000Y-86900000D01*
X142200000Y-85900000D02*
X142050000Y-85900000D01*
X153350000Y-89512500D02*
X152850000Y-90012500D01*
X154004027Y-87880973D02*
X153836000Y-88049000D01*
X154460000Y-90025000D02*
X154687500Y-90025000D01*
X150718000Y-86913000D02*
X150705000Y-86900000D01*
X140200000Y-85900000D02*
X140200000Y-86050000D01*
X149300000Y-78190000D02*
X149350000Y-78140000D01*
X143200000Y-85900000D02*
X143200000Y-86650000D01*
X152786000Y-86999000D02*
X152700000Y-86913000D01*
X147962500Y-72572500D02*
X149350000Y-73960000D01*
X142450000Y-85900000D02*
X143450000Y-86900000D01*
X140200000Y-86050000D02*
X141050000Y-86900000D01*
X153350000Y-88915000D02*
X154460000Y-90025000D01*
X144050000Y-72572500D02*
X142097500Y-72572500D01*
X144050000Y-72572500D02*
X146050000Y-72572500D01*
X150705000Y-86900000D02*
X141050000Y-86900000D01*
X154400000Y-88276946D02*
X154004027Y-87880973D01*
X140710000Y-73960000D02*
X140710000Y-78140000D01*
X141200000Y-85900000D02*
X141200000Y-86750000D01*
X140675000Y-80337500D02*
X140675000Y-78175000D01*
X142200000Y-85900000D02*
X142450000Y-85900000D01*
X153350000Y-88600000D02*
X153350000Y-88915000D01*
X142050000Y-85900000D02*
X141050000Y-86900000D01*
X149225000Y-88380000D02*
X150705000Y-86900000D01*
X149350000Y-73960000D02*
X149350000Y-78140000D01*
%TO.N,DGND*%
X148000000Y-81400000D02*
X148000000Y-80850000D01*
X144350000Y-80250000D02*
X146087500Y-80250000D01*
X147487500Y-80337500D02*
X148000000Y-80850000D01*
X148700000Y-82100000D02*
X148000000Y-81400000D01*
X149875000Y-104850000D02*
X151350000Y-104850000D01*
X146087500Y-80250000D02*
X146175000Y-80337500D01*
X154137500Y-72250000D02*
X152950000Y-72250000D01*
X130500000Y-82450000D02*
X131900000Y-82450000D01*
X151350000Y-104850000D02*
X151400000Y-104900000D01*
X146175000Y-80337500D02*
X147487500Y-80337500D01*
%TO.N,+3.3V*%
X131687500Y-80850000D02*
X130500000Y-80850000D01*
%TO.N,+3V3*%
X156224000Y-97965588D02*
X156224000Y-97236412D01*
X147462500Y-82062500D02*
X147600000Y-82200000D01*
X155400000Y-98737500D02*
X155452088Y-98737500D01*
X144350000Y-82150000D02*
X142850000Y-82150000D01*
X155394962Y-94257550D02*
X155814017Y-94257550D01*
X139545000Y-104600000D02*
X141545000Y-102600000D01*
X149200000Y-82900000D02*
X151550000Y-80550000D01*
X140125000Y-88161412D02*
X140125000Y-89000000D01*
X157000000Y-94300000D02*
X159200000Y-92100000D01*
X159200000Y-83000000D02*
X161575000Y-83000000D01*
X142850000Y-82150000D02*
X142600000Y-82400000D01*
X152287575Y-90900566D02*
X151999434Y-90900566D01*
X155826817Y-94244750D02*
X155907338Y-94244750D01*
X161575000Y-83000000D02*
X162325000Y-82250000D01*
X151400000Y-91500000D02*
X151400000Y-94300000D01*
X162900000Y-95600000D02*
X162900000Y-94571567D01*
X159200000Y-92100000D02*
X159200000Y-90871567D01*
X159200000Y-83000000D02*
X159100000Y-82900000D01*
X159200000Y-90871567D02*
X159200000Y-83000000D01*
X146087500Y-82150000D02*
X146175000Y-82062500D01*
X144350000Y-82150000D02*
X146087500Y-82150000D01*
X140125000Y-89000000D02*
X140100000Y-89025000D01*
X147012500Y-82900000D02*
X149200000Y-82900000D01*
X141545000Y-102600000D02*
X154600000Y-102600000D01*
X151999434Y-90900566D02*
X151400000Y-91500000D01*
X154600000Y-102600000D02*
X155400000Y-101800000D01*
X157860412Y-95600000D02*
X162900000Y-95600000D01*
X162900000Y-94571567D02*
X159200000Y-90871567D01*
X139300000Y-87336412D02*
X140125000Y-88161412D01*
X151550000Y-80550000D02*
X151550000Y-75050000D01*
X146512500Y-82400000D02*
X146175000Y-82062500D01*
X155400000Y-101800000D02*
X155400000Y-98737500D01*
X146512500Y-82400000D02*
X147012500Y-82900000D01*
X156224000Y-97236412D02*
X157860412Y-95600000D01*
X155814017Y-94257550D02*
X155826817Y-94244750D01*
X159100000Y-82900000D02*
X147012500Y-82900000D01*
X155907338Y-94244750D02*
X155962588Y-94300000D01*
X155352512Y-94300000D02*
X155394962Y-94257550D01*
X155962588Y-94300000D02*
X157000000Y-94300000D01*
X151400000Y-94300000D02*
X155352512Y-94300000D01*
X151400000Y-105800000D02*
X154600000Y-102600000D01*
X146175000Y-82062500D02*
X147462500Y-82062500D01*
X162325000Y-82250000D02*
X162325000Y-80650000D01*
X155452088Y-98737500D02*
X156224000Y-97965588D01*
%TO.N,AGND*%
X130100000Y-91798591D02*
X130100000Y-97200000D01*
X130100000Y-97200000D02*
X139900000Y-107000000D01*
X147812500Y-107000000D02*
X148662500Y-106150000D01*
X148662500Y-106150000D02*
X149875000Y-106150000D01*
X139900000Y-107000000D02*
X147812500Y-107000000D01*
X133525000Y-89637500D02*
X132261091Y-89637500D01*
X132261091Y-89637500D02*
X130100000Y-91798591D01*
D38*
%TO.N,+VBAT*%
X155150000Y-87675000D02*
X156175000Y-87675000D01*
D37*
X156412500Y-90025000D02*
X157025000Y-90025000D01*
X156600000Y-89837500D02*
X156412500Y-90025000D01*
X156412500Y-91625000D02*
X156575000Y-91625000D01*
X133100000Y-93250000D02*
X131925000Y-93250000D01*
X156412500Y-91625000D02*
X157275000Y-91625000D01*
X155600000Y-92800000D02*
X155600000Y-92437500D01*
D38*
X156175000Y-87675000D02*
X156600000Y-88100000D01*
D37*
X156575000Y-91625000D02*
X157600000Y-90600000D01*
X156600000Y-91812500D02*
X156412500Y-91625000D01*
X156412500Y-90025000D02*
X156412500Y-91625000D01*
X155600000Y-92437500D02*
X156412500Y-91625000D01*
X156787500Y-92000000D02*
X156412500Y-91625000D01*
X157600000Y-91300000D02*
X157600000Y-91212500D01*
X157500000Y-92000000D02*
X156787500Y-92000000D01*
X157600000Y-91212500D02*
X156412500Y-90025000D01*
X157025000Y-90025000D02*
X157600000Y-90600000D01*
X157275000Y-91625000D02*
X157600000Y-91300000D01*
X156600000Y-92800000D02*
X156600000Y-91812500D01*
D38*
X156600000Y-88100000D02*
X156600000Y-89837500D01*
D37*
%TO.N,+9V*%
X143200000Y-85000000D02*
X143200000Y-84200000D01*
X141200000Y-84100000D02*
X141050000Y-83950000D01*
X148050000Y-89050000D02*
X148050000Y-88625000D01*
X142200000Y-85000000D02*
X142400000Y-85000000D01*
X150705000Y-83950000D02*
X152486000Y-85731000D01*
X149225000Y-90225000D02*
X148050000Y-89050000D01*
X140300000Y-85000000D02*
X140300000Y-84700000D01*
X143200000Y-84200000D02*
X143450000Y-83950000D01*
X142400000Y-85000000D02*
X143450000Y-83950000D01*
X147925000Y-83750000D02*
X146805000Y-83750000D01*
X141200000Y-85000000D02*
X141200000Y-84100000D01*
X142200000Y-85000000D02*
X142100000Y-85000000D01*
X152250000Y-83525000D02*
X151130000Y-83525000D01*
X142100000Y-85000000D02*
X141050000Y-83950000D01*
X151130000Y-83525000D02*
X150705000Y-83950000D01*
X140300000Y-84700000D02*
X141050000Y-83950000D01*
X139250000Y-83550000D02*
X140650000Y-83550000D01*
X140650000Y-84350000D02*
X141050000Y-83950000D01*
X140650000Y-83550000D02*
X141050000Y-83950000D01*
X139250000Y-84350000D02*
X140650000Y-84350000D01*
X150705000Y-83950000D02*
X141050000Y-83950000D01*
X152486000Y-85731000D02*
X152493053Y-85731000D01*
%TO.N,/Project Architecture/SBUS_TX*%
X131687500Y-85950000D02*
X130500000Y-85950000D01*
%TO.N,/Project Architecture/UART4_TX*%
X137400000Y-89100000D02*
X137400000Y-87100000D01*
%TO.N,/Project Architecture/UART5_TX*%
X145500000Y-94000000D02*
X145100000Y-94400000D01*
X145100000Y-94400000D02*
X142300000Y-94400000D01*
%TO.N,/Project Architecture/UART5_RX*%
X149866450Y-94833550D02*
X148700000Y-96000000D01*
X145900000Y-96000000D02*
X145100000Y-96800000D01*
X148700000Y-96000000D02*
X145900000Y-96000000D01*
X155633550Y-94833550D02*
X149866450Y-94833550D01*
%TO.N,/Project Architecture/I2C1_SDA*%
X142725000Y-99475000D02*
X143800000Y-98400000D01*
X151925000Y-98400000D02*
X154000000Y-96325000D01*
X142600000Y-99475000D02*
X142725000Y-99475000D01*
X143800000Y-98400000D02*
X151925000Y-98400000D01*
X164750000Y-80350000D02*
X164450000Y-80350000D01*
X165350000Y-80950000D02*
X164750000Y-80350000D01*
%TO.N,/Project Architecture/I2C1_SCL*%
X164150000Y-82950000D02*
X164150000Y-82250000D01*
X151300000Y-95700000D02*
X149400000Y-97600000D01*
X164100000Y-83000000D02*
X164150000Y-82950000D01*
X155600000Y-95700000D02*
X151300000Y-95700000D01*
X149400000Y-97600000D02*
X145600000Y-97600000D01*
%TO.N,/Project Architecture/UART1_RX*%
X135900000Y-99300000D02*
X141500000Y-93700000D01*
X141500000Y-93700000D02*
X144100000Y-93700000D01*
X144100000Y-93700000D02*
X145400000Y-92400000D01*
%TO.N,/Project Architecture/ANA_ADC_CURR*%
X146800000Y-100400000D02*
X147400000Y-101000000D01*
X133300000Y-98250000D02*
X135450000Y-100400000D01*
X135450000Y-100400000D02*
X146800000Y-100400000D01*
%TO.N,/Project Architecture/ESC_SIG_M4*%
X146600000Y-90400000D02*
X147400000Y-89600000D01*
X133300000Y-95500000D02*
X138400000Y-90400000D01*
X138400000Y-90400000D02*
X146600000Y-90400000D01*
%TO.N,/Project Architecture/ESC_SIG_M1*%
X133200000Y-94250000D02*
X137850000Y-89600000D01*
X137850000Y-89600000D02*
X146400000Y-89600000D01*
%TO.N,/Project Architecture/ESC_SIG_M2*%
X135800000Y-95250000D02*
X135800000Y-95200000D01*
X139176000Y-91824000D02*
X146324000Y-91824000D01*
X135800000Y-95200000D02*
X139176000Y-91824000D01*
X146324000Y-91824000D02*
X146900000Y-92400000D01*
%TO.N,/Project Architecture/ESC_SIG_M3*%
X133200000Y-96600000D02*
X138700000Y-91100000D01*
X133200000Y-97250000D02*
X133200000Y-96600000D01*
X138700000Y-91100000D02*
X147600000Y-91100000D01*
X147600000Y-91100000D02*
X148900000Y-92400000D01*
%TO.N,/Project Architecture/USB_+DATA*%
X145355000Y-81200000D02*
X144205000Y-81200000D01*
%TO.N,/Project Architecture/USB_CC1*%
X146050000Y-77550000D02*
X146050000Y-74572500D01*
X146013288Y-77586712D02*
X146050000Y-77550000D01*
X146280000Y-74502500D02*
X146250000Y-74472500D01*
%TO.N,/Project Architecture/USB_CC2*%
X143750000Y-77550000D02*
X144050000Y-77250000D01*
X144050000Y-77250000D02*
X144050000Y-74572500D01*
%TO.N,Net-(PS1-MODE)*%
X152850000Y-91837500D02*
X152000000Y-91837500D01*
X154950000Y-88600000D02*
X155550000Y-89200000D01*
%TO.N,Net-(PS1-FB)*%
X152250000Y-87425000D02*
X151150000Y-88525000D01*
X152700000Y-87425000D02*
X152250000Y-87425000D01*
X151050000Y-88625000D02*
X151050000Y-90225000D01*
%TO.N,/Project Architecture/UART2_RX*%
X133775000Y-83400000D02*
X133775000Y-81112500D01*
X138300000Y-86500000D02*
X135200000Y-83400000D01*
X150843413Y-99343413D02*
X150256587Y-99343413D01*
X152700000Y-101200000D02*
X150843413Y-99343413D01*
X135200000Y-83400000D02*
X133775000Y-83400000D01*
X133775000Y-81112500D02*
X133512500Y-80850000D01*
X138300000Y-87600000D02*
X138300000Y-86500000D01*
%TO.N,Net-(Q2-B)*%
X133500000Y-85950000D02*
X133512500Y-85950000D01*
X131900000Y-84350000D02*
X133500000Y-85950000D01*
%TO.N,/Project Architecture/ANA_ADC_VBAT*%
X134900000Y-101000000D02*
X145900000Y-101000000D01*
X130700000Y-92650000D02*
X130700000Y-96800000D01*
X130700000Y-96800000D02*
X134900000Y-101000000D01*
X131925000Y-91425000D02*
X130700000Y-92650000D01*
X131962500Y-91462500D02*
X131925000Y-91425000D01*
X133525000Y-91462500D02*
X131962500Y-91462500D01*
%TO.N,/Project Architecture/Microcontroller/DFU_Enable*%
X146000000Y-94700000D02*
X147983824Y-94700000D01*
X155050000Y-75050000D02*
X155050000Y-73162500D01*
X142800000Y-98125000D02*
X142800000Y-97900000D01*
X142800000Y-97900000D02*
X146000000Y-94700000D01*
X142600000Y-98325000D02*
X142800000Y-98125000D01*
X155050000Y-73162500D02*
X155962500Y-72250000D01*
X147983824Y-94700000D02*
X149191912Y-93491912D01*
%TO.N,/Project Architecture/SPI1_SDO*%
X162400000Y-100200000D02*
X159525000Y-100200000D01*
X159525000Y-100200000D02*
X156800000Y-97475000D01*
%TO.N,/Project Architecture/SPI1_SDI*%
X157600000Y-94800000D02*
X161027500Y-94800000D01*
X155400000Y-97975000D02*
X155400000Y-97000000D01*
X155400000Y-97000000D02*
X157600000Y-94800000D01*
%TD*%
%TA.AperFunction,Conductor*%
%TO.N,+9V*%
G36*
X150648039Y-83719685D02*
G01*
X150693794Y-83772489D01*
X150705000Y-83824000D01*
X150705000Y-83950000D01*
X150831000Y-83950000D01*
X150898039Y-83969685D01*
X150943794Y-84022489D01*
X150955000Y-84074000D01*
X150955000Y-85024999D01*
X151404972Y-85024999D01*
X151404986Y-85024998D01*
X151507697Y-85014505D01*
X151571996Y-84993199D01*
X151596648Y-84992351D01*
X151620790Y-84987292D01*
X151630952Y-84991170D01*
X151641824Y-84990797D01*
X151663020Y-85003411D01*
X151686066Y-85012208D01*
X151692518Y-85020966D01*
X151701866Y-85026529D01*
X151712878Y-85048601D01*
X151727509Y-85068460D01*
X151730093Y-85083105D01*
X151733059Y-85089049D01*
X151734748Y-85103003D01*
X151743336Y-85237500D01*
X152371500Y-85237500D01*
X152438539Y-85257185D01*
X152484294Y-85309989D01*
X152495500Y-85361500D01*
X152495500Y-85363500D01*
X152477441Y-85425000D01*
X151625977Y-85425000D01*
X151625922Y-85424900D01*
X151623138Y-85425000D01*
X149995801Y-85425000D01*
X149960865Y-85419977D01*
X149902458Y-85402826D01*
X149901809Y-85402732D01*
X149844553Y-85394500D01*
X149110445Y-85394500D01*
X149110444Y-85394500D01*
X149055946Y-85401858D01*
X148992517Y-85419304D01*
X148991346Y-85419660D01*
X148991084Y-85419698D01*
X148990960Y-85419733D01*
X148990955Y-85419717D01*
X148955348Y-85425000D01*
X147540801Y-85425000D01*
X147505865Y-85419977D01*
X147447458Y-85402826D01*
X147446809Y-85402732D01*
X147389553Y-85394500D01*
X146710445Y-85394500D01*
X146710444Y-85394500D01*
X146655946Y-85401858D01*
X146592517Y-85419304D01*
X146591346Y-85419660D01*
X146591084Y-85419698D01*
X146590960Y-85419733D01*
X146590955Y-85419717D01*
X146555348Y-85425000D01*
X145150598Y-85425000D01*
X145121894Y-85421632D01*
X145108099Y-85418349D01*
X145103134Y-85415792D01*
X145072912Y-85409977D01*
X145070264Y-85409347D01*
X145069826Y-85409096D01*
X145064040Y-85407694D01*
X145047450Y-85402824D01*
X145047444Y-85402822D01*
X145047442Y-85402822D01*
X145047440Y-85402821D01*
X145047437Y-85402821D01*
X144989557Y-85394500D01*
X144989553Y-85394500D01*
X144310445Y-85394500D01*
X144310444Y-85394500D01*
X144255946Y-85401858D01*
X144192517Y-85419304D01*
X144191346Y-85419660D01*
X144191084Y-85419698D01*
X144190960Y-85419733D01*
X144190955Y-85419717D01*
X144155348Y-85425000D01*
X143264467Y-85425000D01*
X143262601Y-85424500D01*
X143137399Y-85424500D01*
X143135533Y-85425000D01*
X142740801Y-85425000D01*
X142705865Y-85419977D01*
X142647458Y-85402826D01*
X142646809Y-85402732D01*
X142589553Y-85394500D01*
X141910445Y-85394500D01*
X141910444Y-85394500D01*
X141855946Y-85401858D01*
X141792517Y-85419304D01*
X141791346Y-85419660D01*
X141791084Y-85419698D01*
X141790960Y-85419733D01*
X141790955Y-85419717D01*
X141755348Y-85425000D01*
X141264467Y-85425000D01*
X141262601Y-85424500D01*
X141137399Y-85424500D01*
X141135533Y-85425000D01*
X140274525Y-85425000D01*
X140266896Y-85424500D01*
X140262601Y-85424500D01*
X140137399Y-85424500D01*
X140133104Y-85424500D01*
X140125475Y-85425000D01*
X140024000Y-85425000D01*
X139956961Y-85405315D01*
X139911206Y-85352511D01*
X139900000Y-85301000D01*
X139900000Y-85069654D01*
X139919685Y-85002615D01*
X139972489Y-84956860D01*
X140041647Y-84946916D01*
X140076403Y-84957271D01*
X140080877Y-84959357D01*
X140247302Y-85014505D01*
X140247309Y-85014506D01*
X140350019Y-85024999D01*
X140799999Y-85024999D01*
X141300000Y-85024999D01*
X141749972Y-85024999D01*
X141749986Y-85024998D01*
X141852697Y-85014505D01*
X142019119Y-84959358D01*
X142019124Y-84959356D01*
X142168343Y-84867316D01*
X142173084Y-84863568D01*
X142237877Y-84837424D01*
X142306520Y-84850460D01*
X142326916Y-84863568D01*
X142331656Y-84867316D01*
X142480875Y-84959356D01*
X142480880Y-84959358D01*
X142647302Y-85014505D01*
X142647309Y-85014506D01*
X142750019Y-85024999D01*
X143199999Y-85024999D01*
X143700000Y-85024999D01*
X144149972Y-85024999D01*
X144149986Y-85024998D01*
X144252697Y-85014505D01*
X144419119Y-84959358D01*
X144419124Y-84959356D01*
X144568343Y-84867316D01*
X144573084Y-84863568D01*
X144637877Y-84837424D01*
X144706520Y-84850460D01*
X144726916Y-84863568D01*
X144731656Y-84867316D01*
X144880875Y-84959356D01*
X144880880Y-84959358D01*
X145047302Y-85014505D01*
X145047309Y-85014506D01*
X145150019Y-85024999D01*
X145599999Y-85024999D01*
X146100000Y-85024999D01*
X146549972Y-85024999D01*
X146549986Y-85024998D01*
X146652697Y-85014505D01*
X146819119Y-84959358D01*
X146819124Y-84959356D01*
X146968343Y-84867316D01*
X146973084Y-84863568D01*
X147037877Y-84837424D01*
X147106520Y-84850460D01*
X147126916Y-84863568D01*
X147131656Y-84867316D01*
X147280875Y-84959356D01*
X147280880Y-84959358D01*
X147447302Y-85014505D01*
X147447309Y-85014506D01*
X147550019Y-85024999D01*
X147999999Y-85024999D01*
X148500000Y-85024999D01*
X148949972Y-85024999D01*
X148949986Y-85024998D01*
X149052697Y-85014505D01*
X149219119Y-84959358D01*
X149219124Y-84959356D01*
X149368345Y-84867315D01*
X149389819Y-84845842D01*
X149451142Y-84812357D01*
X149520834Y-84817341D01*
X149565181Y-84845842D01*
X149586654Y-84867315D01*
X149735875Y-84959356D01*
X149735880Y-84959358D01*
X149902302Y-85014505D01*
X149902309Y-85014506D01*
X150005019Y-85024999D01*
X150454999Y-85024999D01*
X150455000Y-85024998D01*
X150455000Y-84200000D01*
X148500000Y-84200000D01*
X148500000Y-85024999D01*
X147999999Y-85024999D01*
X148000000Y-85024998D01*
X148000000Y-84200000D01*
X146100000Y-84200000D01*
X146100000Y-85024999D01*
X145599999Y-85024999D01*
X145600000Y-85024998D01*
X145600000Y-84200000D01*
X143700000Y-84200000D01*
X143700000Y-85024999D01*
X143199999Y-85024999D01*
X143200000Y-85024998D01*
X143200000Y-84200000D01*
X141300000Y-84200000D01*
X141300000Y-85024999D01*
X140799999Y-85024999D01*
X140800000Y-85024998D01*
X140800000Y-84074000D01*
X140819685Y-84006961D01*
X140872489Y-83961206D01*
X140924000Y-83950000D01*
X141050000Y-83950000D01*
X141050000Y-83824000D01*
X141069685Y-83756961D01*
X141122489Y-83711206D01*
X141174000Y-83700000D01*
X150581000Y-83700000D01*
X150648039Y-83719685D01*
G37*
%TD.AperFunction*%
%TA.AperFunction,Conductor*%
G36*
X153843039Y-83220185D02*
G01*
X153888794Y-83272989D01*
X153900000Y-83324500D01*
X153900000Y-83721972D01*
X153895096Y-83738669D01*
X153895219Y-83756071D01*
X153885457Y-83771497D01*
X153880315Y-83789011D01*
X153867165Y-83800404D01*
X153857859Y-83815113D01*
X153841304Y-83822814D01*
X153827511Y-83834766D01*
X153810287Y-83837242D01*
X153794508Y-83844583D01*
X153759215Y-83844831D01*
X153706493Y-83837628D01*
X153704747Y-83837455D01*
X153704691Y-83837451D01*
X153655032Y-83835000D01*
X153125000Y-83835000D01*
X153125000Y-84095081D01*
X153117955Y-84119070D01*
X153114986Y-84143899D01*
X153108281Y-84152018D01*
X153105315Y-84162120D01*
X153086421Y-84178491D01*
X153070498Y-84197775D01*
X153060467Y-84200980D01*
X153052511Y-84207875D01*
X153027763Y-84211433D01*
X153003945Y-84219046D01*
X152988046Y-84217144D01*
X152983353Y-84217819D01*
X152968901Y-84214854D01*
X152966901Y-84214318D01*
X152907242Y-84177951D01*
X152876716Y-84115102D01*
X152875000Y-84094545D01*
X152875000Y-83835000D01*
X152344967Y-83835000D01*
X152295308Y-83837451D01*
X152295265Y-83837454D01*
X152293431Y-83837636D01*
X152245632Y-83844106D01*
X152211919Y-83838974D01*
X152178077Y-83834289D01*
X152177416Y-83833722D01*
X152176558Y-83833592D01*
X152150942Y-83811023D01*
X152125035Y-83788810D01*
X152124786Y-83787978D01*
X152124133Y-83787403D01*
X152114774Y-83754529D01*
X152105001Y-83721874D01*
X152104999Y-83721227D01*
X152104999Y-83575028D01*
X152104998Y-83575013D01*
X152094505Y-83472302D01*
X152058453Y-83363504D01*
X152056051Y-83293676D01*
X152091783Y-83233634D01*
X152154303Y-83202441D01*
X152176159Y-83200500D01*
X153776000Y-83200500D01*
X153843039Y-83220185D01*
G37*
%TD.AperFunction*%
%TD*%
%TA.AperFunction,Conductor*%
%TO.N,PGND*%
G36*
X150648039Y-86669685D02*
G01*
X150693794Y-86722489D01*
X150705000Y-86774000D01*
X150705000Y-87026000D01*
X150685315Y-87093039D01*
X150632511Y-87138794D01*
X150581000Y-87150000D01*
X141174000Y-87150000D01*
X141106961Y-87130315D01*
X141061206Y-87077511D01*
X141050000Y-87026000D01*
X141050000Y-86774000D01*
X141069685Y-86706961D01*
X141122489Y-86661206D01*
X141174000Y-86650000D01*
X150581000Y-86650000D01*
X150648039Y-86669685D01*
G37*
%TD.AperFunction*%
%TA.AperFunction,Conductor*%
G36*
X142656592Y-85619685D02*
G01*
X142702347Y-85672489D01*
X142712291Y-85741647D01*
X142683266Y-85805203D01*
X142628557Y-85841706D01*
X142480880Y-85890641D01*
X142480875Y-85890643D01*
X142331653Y-85982685D01*
X142326911Y-85986435D01*
X142262115Y-86012576D01*
X142193473Y-85999535D01*
X142173089Y-85986435D01*
X142168346Y-85982685D01*
X142019124Y-85890643D01*
X142019119Y-85890641D01*
X141871441Y-85841706D01*
X141813996Y-85801934D01*
X141787173Y-85737418D01*
X141799488Y-85668642D01*
X141847031Y-85617442D01*
X141910445Y-85600000D01*
X142589553Y-85600000D01*
X142656592Y-85619685D01*
G37*
%TD.AperFunction*%
%TD*%
%TA.AperFunction,Conductor*%
%TO.N,PGND*%
G36*
X153005539Y-88619685D02*
G01*
X153051294Y-88672489D01*
X153062500Y-88724000D01*
X153062500Y-88895000D01*
X153063681Y-88896181D01*
X153097166Y-88957504D01*
X153100000Y-88983862D01*
X153100000Y-89762500D01*
X153891138Y-89762500D01*
X153933708Y-89775000D01*
X154563500Y-89775000D01*
X154630539Y-89794685D01*
X154676294Y-89847489D01*
X154687500Y-89899000D01*
X154687500Y-90025000D01*
X154813500Y-90025000D01*
X154880539Y-90044685D01*
X154926294Y-90097489D01*
X154937500Y-90149000D01*
X154937500Y-91501000D01*
X154917815Y-91568039D01*
X154865011Y-91613794D01*
X154813500Y-91625000D01*
X154561500Y-91625000D01*
X154494461Y-91605315D01*
X154448706Y-91552511D01*
X154437500Y-91501000D01*
X154437500Y-90275000D01*
X153583862Y-90275000D01*
X153541292Y-90262500D01*
X152974000Y-90262500D01*
X152906961Y-90242815D01*
X152861206Y-90190011D01*
X152850000Y-90138500D01*
X152850000Y-90012500D01*
X152724000Y-90012500D01*
X152656961Y-89992815D01*
X152611206Y-89940011D01*
X152600000Y-89888500D01*
X152600000Y-89019000D01*
X152619685Y-88951961D01*
X152672489Y-88906206D01*
X152724000Y-88895000D01*
X152762500Y-88895000D01*
X152762500Y-88724000D01*
X152765050Y-88715314D01*
X152763762Y-88706353D01*
X152774740Y-88682312D01*
X152782185Y-88656961D01*
X152789025Y-88651033D01*
X152792787Y-88642797D01*
X152815021Y-88628507D01*
X152834989Y-88611206D01*
X152845503Y-88608918D01*
X152851565Y-88605023D01*
X152886500Y-88600000D01*
X152938500Y-88600000D01*
X153005539Y-88619685D01*
G37*
%TD.AperFunction*%
%TD*%
M02*
