%TF.GenerationSoftware,KiCad,Pcbnew,9.0.6+1*%
%TF.CreationDate,Date%
%TF.ProjectId,FCU3,46435533-2e6b-4696-9361-645f70636258,+ (Unreleased)*%
%TF.SameCoordinates,Original*%
%TF.FileFunction,Soldermask,Bot*%
%TF.FilePolarity,Negative*%
%FSLAX46Y46*%
G04 Gerber Fmt 4.6, Leading zero omitted, Abs format (unit mm)*
G04 Created by KiCad*
%MOMM*%
%LPD*%
G01*
G04 APERTURE LIST*
G04 Aperture macros list*
%AMRoundRect*
0 Rectangle with rounded corners*
0 $1 Rounding radius*
0 $2 $3 $4 $5 $6 $7 $8 $9 X,Y pos of 4 corners*
0 Add a 4 corners polygon primitive as box body*
4,1,4,$2,$3,$4,$5,$6,$7,$8,$9,$2,$3,0*
0 Add four circle primitives for the rounded corners*
1,1,$1+$1,$2,$3*
1,1,$1+$1,$4,$5*
1,1,$1+$1,$6,$7*
1,1,$1+$1,$8,$9*
0 Add four rect primitives between the rounded corners*
20,1,$1+$1,$2,$3,$4,$5,0*
20,1,$1+$1,$4,$5,$6,$7,0*
20,1,$1+$1,$6,$7,$8,$9,0*
20,1,$1+$1,$8,$9,$2,$3,0*%
G04 Aperture macros list end*
%ADD10C,0.010000*%
%ADD11C,0.750000*%
%ADD12O,1.204000X2.304000*%
%ADD13O,1.204000X2.004000*%
%ADD14C,5.700000*%
%ADD15C,1.000000*%
%ADD16RoundRect,0.262500X0.275000X0.262500X-0.275000X0.262500X-0.275000X-0.262500X0.275000X-0.262500X0*%
%ADD17RoundRect,0.270833X0.479167X-0.379167X0.479167X0.379167X-0.479167X0.379167X-0.479167X-0.379167X0*%
%ADD18RoundRect,0.262500X-0.262500X0.275000X-0.262500X-0.275000X0.262500X-0.275000X0.262500X0.275000X0*%
%ADD19RoundRect,0.262500X0.262500X-0.325000X0.262500X0.325000X-0.262500X0.325000X-0.262500X-0.325000X0*%
%ADD20RoundRect,0.271739X-0.678261X0.353261X-0.678261X-0.353261X0.678261X-0.353261X0.678261X0.353261X0*%
%ADD21RoundRect,0.262500X-0.275000X-0.262500X0.275000X-0.262500X0.275000X0.262500X-0.275000X0.262500X0*%
%ADD22RoundRect,0.175000X-0.612500X-0.175000X0.612500X-0.175000X0.612500X0.175000X-0.612500X0.175000X0*%
%ADD23RoundRect,0.050000X0.500000X0.750000X-0.500000X0.750000X-0.500000X-0.750000X0.500000X-0.750000X0*%
%ADD24RoundRect,0.175000X0.612500X0.175000X-0.612500X0.175000X-0.612500X-0.175000X0.612500X-0.175000X0*%
%ADD25RoundRect,0.262500X0.262500X-0.275000X0.262500X0.275000X-0.262500X0.275000X-0.262500X-0.275000X0*%
%ADD26RoundRect,0.262500X0.325000X0.262500X-0.325000X0.262500X-0.325000X-0.262500X0.325000X-0.262500X0*%
%ADD27RoundRect,0.050000X-0.750000X0.500000X-0.750000X-0.500000X0.750000X-0.500000X0.750000X0.500000X0*%
%ADD28C,1.600000*%
G04 APERTURE END LIST*
%TO.C,JP4*%
G36*
X148800000Y-80100000D02*
G01*
X148500000Y-80100000D01*
X148500000Y-81600000D01*
X148800000Y-81600000D01*
X148800000Y-80100000D01*
G37*
D10*
%TO.C,PS1*%
X153060000Y-87251000D02*
X153066000Y-87251000D01*
X153071000Y-87252000D01*
X153076000Y-87253000D01*
X153081000Y-87255000D01*
X153086000Y-87257000D01*
X153091000Y-87259000D01*
X153095000Y-87261000D01*
X153100000Y-87263000D01*
X153104000Y-87266000D01*
X153109000Y-87269000D01*
X153113000Y-87272000D01*
X153117000Y-87276000D01*
X153121000Y-87279000D01*
X153124000Y-87283000D01*
X153128000Y-87287000D01*
X153131000Y-87291000D01*
X153134000Y-87296000D01*
X153137000Y-87300000D01*
X153139000Y-87305000D01*
X153141000Y-87309000D01*
X153143000Y-87314000D01*
X153145000Y-87319000D01*
X153147000Y-87324000D01*
X153148000Y-87329000D01*
X153149000Y-87334000D01*
X153149000Y-87340000D01*
X153150000Y-87345000D01*
X153150000Y-87350000D01*
X153150000Y-87500000D01*
X153150000Y-87505000D01*
X153149000Y-87510000D01*
X153149000Y-87516000D01*
X153148000Y-87521000D01*
X153147000Y-87526000D01*
X153145000Y-87531000D01*
X153143000Y-87536000D01*
X153141000Y-87541000D01*
X153139000Y-87545000D01*
X153137000Y-87550000D01*
X153134000Y-87554000D01*
X153131000Y-87559000D01*
X153128000Y-87563000D01*
X153124000Y-87567000D01*
X153121000Y-87571000D01*
X153117000Y-87574000D01*
X153113000Y-87578000D01*
X153109000Y-87581000D01*
X153104000Y-87584000D01*
X153100000Y-87587000D01*
X153095000Y-87589000D01*
X153091000Y-87591000D01*
X153086000Y-87593000D01*
X153081000Y-87595000D01*
X153076000Y-87597000D01*
X153071000Y-87598000D01*
X153066000Y-87599000D01*
X153060000Y-87599000D01*
X153055000Y-87600000D01*
X153050000Y-87600000D01*
X152350000Y-87600000D01*
X152345000Y-87600000D01*
X152340000Y-87599000D01*
X152334000Y-87599000D01*
X152329000Y-87598000D01*
X152324000Y-87597000D01*
X152319000Y-87595000D01*
X152314000Y-87593000D01*
X152309000Y-87591000D01*
X152305000Y-87589000D01*
X152300000Y-87587000D01*
X152296000Y-87584000D01*
X152291000Y-87581000D01*
X152287000Y-87578000D01*
X152283000Y-87574000D01*
X152279000Y-87571000D01*
X152276000Y-87567000D01*
X152272000Y-87563000D01*
X152269000Y-87559000D01*
X152266000Y-87554000D01*
X152263000Y-87550000D01*
X152261000Y-87545000D01*
X152259000Y-87541000D01*
X152257000Y-87536000D01*
X152255000Y-87531000D01*
X152253000Y-87526000D01*
X152252000Y-87521000D01*
X152251000Y-87516000D01*
X152251000Y-87510000D01*
X152250000Y-87505000D01*
X152250000Y-87500000D01*
X152250000Y-87350000D01*
X152250000Y-87345000D01*
X152251000Y-87340000D01*
X152251000Y-87334000D01*
X152252000Y-87329000D01*
X152253000Y-87324000D01*
X152255000Y-87319000D01*
X152257000Y-87314000D01*
X152259000Y-87309000D01*
X152261000Y-87305000D01*
X152263000Y-87300000D01*
X152266000Y-87296000D01*
X152269000Y-87291000D01*
X152272000Y-87287000D01*
X152276000Y-87283000D01*
X152279000Y-87279000D01*
X152283000Y-87276000D01*
X152287000Y-87272000D01*
X152291000Y-87269000D01*
X152296000Y-87266000D01*
X152300000Y-87263000D01*
X152305000Y-87261000D01*
X152309000Y-87259000D01*
X152314000Y-87257000D01*
X152319000Y-87255000D01*
X152324000Y-87253000D01*
X152329000Y-87252000D01*
X152334000Y-87251000D01*
X152340000Y-87251000D01*
X152345000Y-87250000D01*
X152350000Y-87250000D01*
X153050000Y-87250000D01*
X153055000Y-87250000D01*
X153060000Y-87251000D01*
G36*
X153060000Y-87251000D02*
G01*
X153066000Y-87251000D01*
X153071000Y-87252000D01*
X153076000Y-87253000D01*
X153081000Y-87255000D01*
X153086000Y-87257000D01*
X153091000Y-87259000D01*
X153095000Y-87261000D01*
X153100000Y-87263000D01*
X153104000Y-87266000D01*
X153109000Y-87269000D01*
X153113000Y-87272000D01*
X153117000Y-87276000D01*
X153121000Y-87279000D01*
X153124000Y-87283000D01*
X153128000Y-87287000D01*
X153131000Y-87291000D01*
X153134000Y-87296000D01*
X153137000Y-87300000D01*
X153139000Y-87305000D01*
X153141000Y-87309000D01*
X153143000Y-87314000D01*
X153145000Y-87319000D01*
X153147000Y-87324000D01*
X153148000Y-87329000D01*
X153149000Y-87334000D01*
X153149000Y-87340000D01*
X153150000Y-87345000D01*
X153150000Y-87350000D01*
X153150000Y-87500000D01*
X153150000Y-87505000D01*
X153149000Y-87510000D01*
X153149000Y-87516000D01*
X153148000Y-87521000D01*
X153147000Y-87526000D01*
X153145000Y-87531000D01*
X153143000Y-87536000D01*
X153141000Y-87541000D01*
X153139000Y-87545000D01*
X153137000Y-87550000D01*
X153134000Y-87554000D01*
X153131000Y-87559000D01*
X153128000Y-87563000D01*
X153124000Y-87567000D01*
X153121000Y-87571000D01*
X153117000Y-87574000D01*
X153113000Y-87578000D01*
X153109000Y-87581000D01*
X153104000Y-87584000D01*
X153100000Y-87587000D01*
X153095000Y-87589000D01*
X153091000Y-87591000D01*
X153086000Y-87593000D01*
X153081000Y-87595000D01*
X153076000Y-87597000D01*
X153071000Y-87598000D01*
X153066000Y-87599000D01*
X153060000Y-87599000D01*
X153055000Y-87600000D01*
X153050000Y-87600000D01*
X152350000Y-87600000D01*
X152345000Y-87600000D01*
X152340000Y-87599000D01*
X152334000Y-87599000D01*
X152329000Y-87598000D01*
X152324000Y-87597000D01*
X152319000Y-87595000D01*
X152314000Y-87593000D01*
X152309000Y-87591000D01*
X152305000Y-87589000D01*
X152300000Y-87587000D01*
X152296000Y-87584000D01*
X152291000Y-87581000D01*
X152287000Y-87578000D01*
X152283000Y-87574000D01*
X152279000Y-87571000D01*
X152276000Y-87567000D01*
X152272000Y-87563000D01*
X152269000Y-87559000D01*
X152266000Y-87554000D01*
X152263000Y-87550000D01*
X152261000Y-87545000D01*
X152259000Y-87541000D01*
X152257000Y-87536000D01*
X152255000Y-87531000D01*
X152253000Y-87526000D01*
X152252000Y-87521000D01*
X152251000Y-87516000D01*
X152251000Y-87510000D01*
X152250000Y-87505000D01*
X152250000Y-87500000D01*
X152250000Y-87350000D01*
X152250000Y-87345000D01*
X152251000Y-87340000D01*
X152251000Y-87334000D01*
X152252000Y-87329000D01*
X152253000Y-87324000D01*
X152255000Y-87319000D01*
X152257000Y-87314000D01*
X152259000Y-87309000D01*
X152261000Y-87305000D01*
X152263000Y-87300000D01*
X152266000Y-87296000D01*
X152269000Y-87291000D01*
X152272000Y-87287000D01*
X152276000Y-87283000D01*
X152279000Y-87279000D01*
X152283000Y-87276000D01*
X152287000Y-87272000D01*
X152291000Y-87269000D01*
X152296000Y-87266000D01*
X152300000Y-87263000D01*
X152305000Y-87261000D01*
X152309000Y-87259000D01*
X152314000Y-87257000D01*
X152319000Y-87255000D01*
X152324000Y-87253000D01*
X152329000Y-87252000D01*
X152334000Y-87251000D01*
X152340000Y-87251000D01*
X152345000Y-87250000D01*
X152350000Y-87250000D01*
X153050000Y-87250000D01*
X153055000Y-87250000D01*
X153060000Y-87251000D01*
G37*
X153060000Y-87751000D02*
X153066000Y-87751000D01*
X153071000Y-87752000D01*
X153076000Y-87753000D01*
X153081000Y-87755000D01*
X153086000Y-87757000D01*
X153091000Y-87759000D01*
X153095000Y-87761000D01*
X153100000Y-87763000D01*
X153104000Y-87766000D01*
X153109000Y-87769000D01*
X153113000Y-87772000D01*
X153117000Y-87776000D01*
X153121000Y-87779000D01*
X153124000Y-87783000D01*
X153128000Y-87787000D01*
X153131000Y-87791000D01*
X153134000Y-87796000D01*
X153137000Y-87800000D01*
X153139000Y-87805000D01*
X153141000Y-87809000D01*
X153143000Y-87814000D01*
X153145000Y-87819000D01*
X153147000Y-87824000D01*
X153148000Y-87829000D01*
X153149000Y-87834000D01*
X153149000Y-87840000D01*
X153150000Y-87845000D01*
X153150000Y-87850000D01*
X153150000Y-88000000D01*
X153150000Y-88005000D01*
X153149000Y-88010000D01*
X153149000Y-88016000D01*
X153148000Y-88021000D01*
X153147000Y-88026000D01*
X153145000Y-88031000D01*
X153143000Y-88036000D01*
X153141000Y-88041000D01*
X153139000Y-88045000D01*
X153137000Y-88050000D01*
X153134000Y-88054000D01*
X153131000Y-88059000D01*
X153128000Y-88063000D01*
X153124000Y-88067000D01*
X153121000Y-88071000D01*
X153117000Y-88074000D01*
X153113000Y-88078000D01*
X153109000Y-88081000D01*
X153104000Y-88084000D01*
X153100000Y-88087000D01*
X153095000Y-88089000D01*
X153091000Y-88091000D01*
X153086000Y-88093000D01*
X153081000Y-88095000D01*
X153076000Y-88097000D01*
X153071000Y-88098000D01*
X153066000Y-88099000D01*
X153060000Y-88099000D01*
X153055000Y-88100000D01*
X153050000Y-88100000D01*
X152350000Y-88100000D01*
X152345000Y-88100000D01*
X152340000Y-88099000D01*
X152334000Y-88099000D01*
X152329000Y-88098000D01*
X152324000Y-88097000D01*
X152319000Y-88095000D01*
X152314000Y-88093000D01*
X152309000Y-88091000D01*
X152305000Y-88089000D01*
X152300000Y-88087000D01*
X152296000Y-88084000D01*
X152291000Y-88081000D01*
X152287000Y-88078000D01*
X152283000Y-88074000D01*
X152279000Y-88071000D01*
X152276000Y-88067000D01*
X152272000Y-88063000D01*
X152269000Y-88059000D01*
X152266000Y-88054000D01*
X152263000Y-88050000D01*
X152261000Y-88045000D01*
X152259000Y-88041000D01*
X152257000Y-88036000D01*
X152255000Y-88031000D01*
X152253000Y-88026000D01*
X152252000Y-88021000D01*
X152251000Y-88016000D01*
X152251000Y-88010000D01*
X152250000Y-88005000D01*
X152250000Y-88000000D01*
X152250000Y-87850000D01*
X152250000Y-87845000D01*
X152251000Y-87840000D01*
X152251000Y-87834000D01*
X152252000Y-87829000D01*
X152253000Y-87824000D01*
X152255000Y-87819000D01*
X152257000Y-87814000D01*
X152259000Y-87809000D01*
X152261000Y-87805000D01*
X152263000Y-87800000D01*
X152266000Y-87796000D01*
X152269000Y-87791000D01*
X152272000Y-87787000D01*
X152276000Y-87783000D01*
X152279000Y-87779000D01*
X152283000Y-87776000D01*
X152287000Y-87772000D01*
X152291000Y-87769000D01*
X152296000Y-87766000D01*
X152300000Y-87763000D01*
X152305000Y-87761000D01*
X152309000Y-87759000D01*
X152314000Y-87757000D01*
X152319000Y-87755000D01*
X152324000Y-87753000D01*
X152329000Y-87752000D01*
X152334000Y-87751000D01*
X152340000Y-87751000D01*
X152345000Y-87750000D01*
X152350000Y-87750000D01*
X153050000Y-87750000D01*
X153055000Y-87750000D01*
X153060000Y-87751000D01*
G36*
X153060000Y-87751000D02*
G01*
X153066000Y-87751000D01*
X153071000Y-87752000D01*
X153076000Y-87753000D01*
X153081000Y-87755000D01*
X153086000Y-87757000D01*
X153091000Y-87759000D01*
X153095000Y-87761000D01*
X153100000Y-87763000D01*
X153104000Y-87766000D01*
X153109000Y-87769000D01*
X153113000Y-87772000D01*
X153117000Y-87776000D01*
X153121000Y-87779000D01*
X153124000Y-87783000D01*
X153128000Y-87787000D01*
X153131000Y-87791000D01*
X153134000Y-87796000D01*
X153137000Y-87800000D01*
X153139000Y-87805000D01*
X153141000Y-87809000D01*
X153143000Y-87814000D01*
X153145000Y-87819000D01*
X153147000Y-87824000D01*
X153148000Y-87829000D01*
X153149000Y-87834000D01*
X153149000Y-87840000D01*
X153150000Y-87845000D01*
X153150000Y-87850000D01*
X153150000Y-88000000D01*
X153150000Y-88005000D01*
X153149000Y-88010000D01*
X153149000Y-88016000D01*
X153148000Y-88021000D01*
X153147000Y-88026000D01*
X153145000Y-88031000D01*
X153143000Y-88036000D01*
X153141000Y-88041000D01*
X153139000Y-88045000D01*
X153137000Y-88050000D01*
X153134000Y-88054000D01*
X153131000Y-88059000D01*
X153128000Y-88063000D01*
X153124000Y-88067000D01*
X153121000Y-88071000D01*
X153117000Y-88074000D01*
X153113000Y-88078000D01*
X153109000Y-88081000D01*
X153104000Y-88084000D01*
X153100000Y-88087000D01*
X153095000Y-88089000D01*
X153091000Y-88091000D01*
X153086000Y-88093000D01*
X153081000Y-88095000D01*
X153076000Y-88097000D01*
X153071000Y-88098000D01*
X153066000Y-88099000D01*
X153060000Y-88099000D01*
X153055000Y-88100000D01*
X153050000Y-88100000D01*
X152350000Y-88100000D01*
X152345000Y-88100000D01*
X152340000Y-88099000D01*
X152334000Y-88099000D01*
X152329000Y-88098000D01*
X152324000Y-88097000D01*
X152319000Y-88095000D01*
X152314000Y-88093000D01*
X152309000Y-88091000D01*
X152305000Y-88089000D01*
X152300000Y-88087000D01*
X152296000Y-88084000D01*
X152291000Y-88081000D01*
X152287000Y-88078000D01*
X152283000Y-88074000D01*
X152279000Y-88071000D01*
X152276000Y-88067000D01*
X152272000Y-88063000D01*
X152269000Y-88059000D01*
X152266000Y-88054000D01*
X152263000Y-88050000D01*
X152261000Y-88045000D01*
X152259000Y-88041000D01*
X152257000Y-88036000D01*
X152255000Y-88031000D01*
X152253000Y-88026000D01*
X152252000Y-88021000D01*
X152251000Y-88016000D01*
X152251000Y-88010000D01*
X152250000Y-88005000D01*
X152250000Y-88000000D01*
X152250000Y-87850000D01*
X152250000Y-87845000D01*
X152251000Y-87840000D01*
X152251000Y-87834000D01*
X152252000Y-87829000D01*
X152253000Y-87824000D01*
X152255000Y-87819000D01*
X152257000Y-87814000D01*
X152259000Y-87809000D01*
X152261000Y-87805000D01*
X152263000Y-87800000D01*
X152266000Y-87796000D01*
X152269000Y-87791000D01*
X152272000Y-87787000D01*
X152276000Y-87783000D01*
X152279000Y-87779000D01*
X152283000Y-87776000D01*
X152287000Y-87772000D01*
X152291000Y-87769000D01*
X152296000Y-87766000D01*
X152300000Y-87763000D01*
X152305000Y-87761000D01*
X152309000Y-87759000D01*
X152314000Y-87757000D01*
X152319000Y-87755000D01*
X152324000Y-87753000D01*
X152329000Y-87752000D01*
X152334000Y-87751000D01*
X152340000Y-87751000D01*
X152345000Y-87750000D01*
X152350000Y-87750000D01*
X153050000Y-87750000D01*
X153055000Y-87750000D01*
X153060000Y-87751000D01*
G37*
X154035000Y-88301000D02*
X154041000Y-88301000D01*
X154046000Y-88302000D01*
X154051000Y-88303000D01*
X154056000Y-88305000D01*
X154061000Y-88307000D01*
X154066000Y-88309000D01*
X154070000Y-88311000D01*
X154075000Y-88313000D01*
X154079000Y-88316000D01*
X154084000Y-88319000D01*
X154088000Y-88322000D01*
X154092000Y-88326000D01*
X154096000Y-88329000D01*
X154099000Y-88333000D01*
X154103000Y-88337000D01*
X154106000Y-88341000D01*
X154109000Y-88346000D01*
X154112000Y-88350000D01*
X154114000Y-88355000D01*
X154116000Y-88359000D01*
X154118000Y-88364000D01*
X154120000Y-88369000D01*
X154122000Y-88374000D01*
X154123000Y-88379000D01*
X154124000Y-88384000D01*
X154124000Y-88390000D01*
X154125000Y-88395000D01*
X154125000Y-88400000D01*
X154125000Y-88850000D01*
X154125000Y-88855000D01*
X154124000Y-88860000D01*
X154124000Y-88866000D01*
X154123000Y-88871000D01*
X154122000Y-88876000D01*
X154120000Y-88881000D01*
X154118000Y-88886000D01*
X154116000Y-88891000D01*
X154114000Y-88895000D01*
X154112000Y-88900000D01*
X154109000Y-88904000D01*
X154106000Y-88909000D01*
X154103000Y-88913000D01*
X154099000Y-88917000D01*
X154096000Y-88921000D01*
X154092000Y-88924000D01*
X154088000Y-88928000D01*
X154084000Y-88931000D01*
X154079000Y-88934000D01*
X154075000Y-88937000D01*
X154070000Y-88939000D01*
X154066000Y-88941000D01*
X154061000Y-88943000D01*
X154056000Y-88945000D01*
X154051000Y-88947000D01*
X154046000Y-88948000D01*
X154041000Y-88949000D01*
X154035000Y-88949000D01*
X154030000Y-88950000D01*
X154025000Y-88950000D01*
X153825000Y-88950000D01*
X153820000Y-88950000D01*
X153815000Y-88949000D01*
X153809000Y-88949000D01*
X153804000Y-88948000D01*
X153799000Y-88947000D01*
X153794000Y-88945000D01*
X153789000Y-88943000D01*
X153784000Y-88941000D01*
X153780000Y-88939000D01*
X153775000Y-88937000D01*
X153771000Y-88934000D01*
X153766000Y-88931000D01*
X153762000Y-88928000D01*
X153758000Y-88924000D01*
X153754000Y-88921000D01*
X153751000Y-88917000D01*
X153747000Y-88913000D01*
X153744000Y-88909000D01*
X153741000Y-88904000D01*
X153738000Y-88900000D01*
X153736000Y-88895000D01*
X153734000Y-88891000D01*
X153732000Y-88886000D01*
X153730000Y-88881000D01*
X153728000Y-88876000D01*
X153727000Y-88871000D01*
X153726000Y-88866000D01*
X153726000Y-88860000D01*
X153725000Y-88855000D01*
X153725000Y-88850000D01*
X153725000Y-88400000D01*
X153725000Y-88395000D01*
X153726000Y-88390000D01*
X153726000Y-88384000D01*
X153727000Y-88379000D01*
X153728000Y-88374000D01*
X153730000Y-88369000D01*
X153732000Y-88364000D01*
X153734000Y-88359000D01*
X153736000Y-88355000D01*
X153738000Y-88350000D01*
X153741000Y-88346000D01*
X153744000Y-88341000D01*
X153747000Y-88337000D01*
X153751000Y-88333000D01*
X153754000Y-88329000D01*
X153758000Y-88326000D01*
X153762000Y-88322000D01*
X153766000Y-88319000D01*
X153771000Y-88316000D01*
X153775000Y-88313000D01*
X153780000Y-88311000D01*
X153784000Y-88309000D01*
X153789000Y-88307000D01*
X153794000Y-88305000D01*
X153799000Y-88303000D01*
X153804000Y-88302000D01*
X153809000Y-88301000D01*
X153815000Y-88301000D01*
X153820000Y-88300000D01*
X153825000Y-88300000D01*
X154025000Y-88300000D01*
X154030000Y-88300000D01*
X154035000Y-88301000D01*
G36*
X154035000Y-88301000D02*
G01*
X154041000Y-88301000D01*
X154046000Y-88302000D01*
X154051000Y-88303000D01*
X154056000Y-88305000D01*
X154061000Y-88307000D01*
X154066000Y-88309000D01*
X154070000Y-88311000D01*
X154075000Y-88313000D01*
X154079000Y-88316000D01*
X154084000Y-88319000D01*
X154088000Y-88322000D01*
X154092000Y-88326000D01*
X154096000Y-88329000D01*
X154099000Y-88333000D01*
X154103000Y-88337000D01*
X154106000Y-88341000D01*
X154109000Y-88346000D01*
X154112000Y-88350000D01*
X154114000Y-88355000D01*
X154116000Y-88359000D01*
X154118000Y-88364000D01*
X154120000Y-88369000D01*
X154122000Y-88374000D01*
X154123000Y-88379000D01*
X154124000Y-88384000D01*
X154124000Y-88390000D01*
X154125000Y-88395000D01*
X154125000Y-88400000D01*
X154125000Y-88850000D01*
X154125000Y-88855000D01*
X154124000Y-88860000D01*
X154124000Y-88866000D01*
X154123000Y-88871000D01*
X154122000Y-88876000D01*
X154120000Y-88881000D01*
X154118000Y-88886000D01*
X154116000Y-88891000D01*
X154114000Y-88895000D01*
X154112000Y-88900000D01*
X154109000Y-88904000D01*
X154106000Y-88909000D01*
X154103000Y-88913000D01*
X154099000Y-88917000D01*
X154096000Y-88921000D01*
X154092000Y-88924000D01*
X154088000Y-88928000D01*
X154084000Y-88931000D01*
X154079000Y-88934000D01*
X154075000Y-88937000D01*
X154070000Y-88939000D01*
X154066000Y-88941000D01*
X154061000Y-88943000D01*
X154056000Y-88945000D01*
X154051000Y-88947000D01*
X154046000Y-88948000D01*
X154041000Y-88949000D01*
X154035000Y-88949000D01*
X154030000Y-88950000D01*
X154025000Y-88950000D01*
X153825000Y-88950000D01*
X153820000Y-88950000D01*
X153815000Y-88949000D01*
X153809000Y-88949000D01*
X153804000Y-88948000D01*
X153799000Y-88947000D01*
X153794000Y-88945000D01*
X153789000Y-88943000D01*
X153784000Y-88941000D01*
X153780000Y-88939000D01*
X153775000Y-88937000D01*
X153771000Y-88934000D01*
X153766000Y-88931000D01*
X153762000Y-88928000D01*
X153758000Y-88924000D01*
X153754000Y-88921000D01*
X153751000Y-88917000D01*
X153747000Y-88913000D01*
X153744000Y-88909000D01*
X153741000Y-88904000D01*
X153738000Y-88900000D01*
X153736000Y-88895000D01*
X153734000Y-88891000D01*
X153732000Y-88886000D01*
X153730000Y-88881000D01*
X153728000Y-88876000D01*
X153727000Y-88871000D01*
X153726000Y-88866000D01*
X153726000Y-88860000D01*
X153725000Y-88855000D01*
X153725000Y-88850000D01*
X153725000Y-88400000D01*
X153725000Y-88395000D01*
X153726000Y-88390000D01*
X153726000Y-88384000D01*
X153727000Y-88379000D01*
X153728000Y-88374000D01*
X153730000Y-88369000D01*
X153732000Y-88364000D01*
X153734000Y-88359000D01*
X153736000Y-88355000D01*
X153738000Y-88350000D01*
X153741000Y-88346000D01*
X153744000Y-88341000D01*
X153747000Y-88337000D01*
X153751000Y-88333000D01*
X153754000Y-88329000D01*
X153758000Y-88326000D01*
X153762000Y-88322000D01*
X153766000Y-88319000D01*
X153771000Y-88316000D01*
X153775000Y-88313000D01*
X153780000Y-88311000D01*
X153784000Y-88309000D01*
X153789000Y-88307000D01*
X153794000Y-88305000D01*
X153799000Y-88303000D01*
X153804000Y-88302000D01*
X153809000Y-88301000D01*
X153815000Y-88301000D01*
X153820000Y-88300000D01*
X153825000Y-88300000D01*
X154025000Y-88300000D01*
X154030000Y-88300000D01*
X154035000Y-88301000D01*
G37*
X153485000Y-88251000D02*
X153491000Y-88251000D01*
X153496000Y-88252000D01*
X153501000Y-88253000D01*
X153506000Y-88255000D01*
X153511000Y-88257000D01*
X153516000Y-88259000D01*
X153520000Y-88261000D01*
X153525000Y-88263000D01*
X153529000Y-88266000D01*
X153534000Y-88269000D01*
X153538000Y-88272000D01*
X153542000Y-88276000D01*
X153546000Y-88279000D01*
X153549000Y-88283000D01*
X153553000Y-88287000D01*
X153556000Y-88291000D01*
X153559000Y-88296000D01*
X153562000Y-88300000D01*
X153564000Y-88305000D01*
X153566000Y-88309000D01*
X153568000Y-88314000D01*
X153570000Y-88319000D01*
X153572000Y-88324000D01*
X153573000Y-88329000D01*
X153574000Y-88334000D01*
X153574000Y-88340000D01*
X153575000Y-88345000D01*
X153575000Y-88350000D01*
X153575000Y-88850000D01*
X153575000Y-88855000D01*
X153574000Y-88860000D01*
X153574000Y-88866000D01*
X153573000Y-88871000D01*
X153572000Y-88876000D01*
X153570000Y-88881000D01*
X153568000Y-88886000D01*
X153566000Y-88891000D01*
X153564000Y-88895000D01*
X153562000Y-88900000D01*
X153559000Y-88904000D01*
X153556000Y-88909000D01*
X153553000Y-88913000D01*
X153549000Y-88917000D01*
X153546000Y-88921000D01*
X153542000Y-88924000D01*
X153538000Y-88928000D01*
X153534000Y-88931000D01*
X153529000Y-88934000D01*
X153525000Y-88937000D01*
X153520000Y-88939000D01*
X153516000Y-88941000D01*
X153511000Y-88943000D01*
X153506000Y-88945000D01*
X153501000Y-88947000D01*
X153496000Y-88948000D01*
X153491000Y-88949000D01*
X153485000Y-88949000D01*
X153480000Y-88950000D01*
X153475000Y-88950000D01*
X153225000Y-88950000D01*
X153220000Y-88950000D01*
X153215000Y-88949000D01*
X153209000Y-88949000D01*
X153204000Y-88948000D01*
X153199000Y-88947000D01*
X153194000Y-88945000D01*
X153189000Y-88943000D01*
X153184000Y-88941000D01*
X153180000Y-88939000D01*
X153175000Y-88937000D01*
X153171000Y-88934000D01*
X153166000Y-88931000D01*
X153162000Y-88928000D01*
X153158000Y-88924000D01*
X153154000Y-88921000D01*
X153151000Y-88917000D01*
X153147000Y-88913000D01*
X153144000Y-88909000D01*
X153141000Y-88904000D01*
X153138000Y-88900000D01*
X153136000Y-88895000D01*
X153134000Y-88891000D01*
X153132000Y-88886000D01*
X153130000Y-88881000D01*
X153128000Y-88876000D01*
X153127000Y-88871000D01*
X153126000Y-88866000D01*
X153126000Y-88860000D01*
X153125000Y-88855000D01*
X153125000Y-88850000D01*
X153125000Y-88650000D01*
X153125000Y-88647000D01*
X153125000Y-88645000D01*
X153124000Y-88642000D01*
X153124000Y-88640000D01*
X153123000Y-88637000D01*
X153123000Y-88635000D01*
X153122000Y-88632000D01*
X153121000Y-88630000D01*
X153120000Y-88627000D01*
X153118000Y-88625000D01*
X153117000Y-88623000D01*
X153115000Y-88621000D01*
X153114000Y-88619000D01*
X153112000Y-88617000D01*
X153110000Y-88615000D01*
X153108000Y-88613000D01*
X153106000Y-88611000D01*
X153104000Y-88610000D01*
X153102000Y-88608000D01*
X153100000Y-88607000D01*
X153098000Y-88605000D01*
X153095000Y-88604000D01*
X153093000Y-88603000D01*
X153090000Y-88602000D01*
X153088000Y-88602000D01*
X153085000Y-88601000D01*
X153083000Y-88601000D01*
X153080000Y-88600000D01*
X153078000Y-88600000D01*
X153075000Y-88600000D01*
X152350000Y-88600000D01*
X152345000Y-88600000D01*
X152340000Y-88599000D01*
X152334000Y-88599000D01*
X152329000Y-88598000D01*
X152324000Y-88597000D01*
X152319000Y-88595000D01*
X152314000Y-88593000D01*
X152309000Y-88591000D01*
X152305000Y-88589000D01*
X152300000Y-88587000D01*
X152296000Y-88584000D01*
X152291000Y-88581000D01*
X152287000Y-88578000D01*
X152283000Y-88574000D01*
X152279000Y-88571000D01*
X152276000Y-88567000D01*
X152272000Y-88563000D01*
X152269000Y-88559000D01*
X152266000Y-88554000D01*
X152263000Y-88550000D01*
X152261000Y-88545000D01*
X152259000Y-88541000D01*
X152257000Y-88536000D01*
X152255000Y-88531000D01*
X152253000Y-88526000D01*
X152252000Y-88521000D01*
X152251000Y-88516000D01*
X152251000Y-88510000D01*
X152250000Y-88505000D01*
X152250000Y-88500000D01*
X152250000Y-88350000D01*
X152250000Y-88345000D01*
X152251000Y-88340000D01*
X152251000Y-88334000D01*
X152252000Y-88329000D01*
X152253000Y-88324000D01*
X152255000Y-88319000D01*
X152257000Y-88314000D01*
X152259000Y-88309000D01*
X152261000Y-88305000D01*
X152263000Y-88300000D01*
X152266000Y-88296000D01*
X152269000Y-88291000D01*
X152272000Y-88287000D01*
X152276000Y-88283000D01*
X152279000Y-88279000D01*
X152283000Y-88276000D01*
X152287000Y-88272000D01*
X152291000Y-88269000D01*
X152296000Y-88266000D01*
X152300000Y-88263000D01*
X152305000Y-88261000D01*
X152309000Y-88259000D01*
X152314000Y-88257000D01*
X152319000Y-88255000D01*
X152324000Y-88253000D01*
X152329000Y-88252000D01*
X152334000Y-88251000D01*
X152340000Y-88251000D01*
X152345000Y-88250000D01*
X152350000Y-88250000D01*
X153475000Y-88250000D01*
X153480000Y-88250000D01*
X153485000Y-88251000D01*
G36*
X153485000Y-88251000D02*
G01*
X153491000Y-88251000D01*
X153496000Y-88252000D01*
X153501000Y-88253000D01*
X153506000Y-88255000D01*
X153511000Y-88257000D01*
X153516000Y-88259000D01*
X153520000Y-88261000D01*
X153525000Y-88263000D01*
X153529000Y-88266000D01*
X153534000Y-88269000D01*
X153538000Y-88272000D01*
X153542000Y-88276000D01*
X153546000Y-88279000D01*
X153549000Y-88283000D01*
X153553000Y-88287000D01*
X153556000Y-88291000D01*
X153559000Y-88296000D01*
X153562000Y-88300000D01*
X153564000Y-88305000D01*
X153566000Y-88309000D01*
X153568000Y-88314000D01*
X153570000Y-88319000D01*
X153572000Y-88324000D01*
X153573000Y-88329000D01*
X153574000Y-88334000D01*
X153574000Y-88340000D01*
X153575000Y-88345000D01*
X153575000Y-88350000D01*
X153575000Y-88850000D01*
X153575000Y-88855000D01*
X153574000Y-88860000D01*
X153574000Y-88866000D01*
X153573000Y-88871000D01*
X153572000Y-88876000D01*
X153570000Y-88881000D01*
X153568000Y-88886000D01*
X153566000Y-88891000D01*
X153564000Y-88895000D01*
X153562000Y-88900000D01*
X153559000Y-88904000D01*
X153556000Y-88909000D01*
X153553000Y-88913000D01*
X153549000Y-88917000D01*
X153546000Y-88921000D01*
X153542000Y-88924000D01*
X153538000Y-88928000D01*
X153534000Y-88931000D01*
X153529000Y-88934000D01*
X153525000Y-88937000D01*
X153520000Y-88939000D01*
X153516000Y-88941000D01*
X153511000Y-88943000D01*
X153506000Y-88945000D01*
X153501000Y-88947000D01*
X153496000Y-88948000D01*
X153491000Y-88949000D01*
X153485000Y-88949000D01*
X153480000Y-88950000D01*
X153475000Y-88950000D01*
X153225000Y-88950000D01*
X153220000Y-88950000D01*
X153215000Y-88949000D01*
X153209000Y-88949000D01*
X153204000Y-88948000D01*
X153199000Y-88947000D01*
X153194000Y-88945000D01*
X153189000Y-88943000D01*
X153184000Y-88941000D01*
X153180000Y-88939000D01*
X153175000Y-88937000D01*
X153171000Y-88934000D01*
X153166000Y-88931000D01*
X153162000Y-88928000D01*
X153158000Y-88924000D01*
X153154000Y-88921000D01*
X153151000Y-88917000D01*
X153147000Y-88913000D01*
X153144000Y-88909000D01*
X153141000Y-88904000D01*
X153138000Y-88900000D01*
X153136000Y-88895000D01*
X153134000Y-88891000D01*
X153132000Y-88886000D01*
X153130000Y-88881000D01*
X153128000Y-88876000D01*
X153127000Y-88871000D01*
X153126000Y-88866000D01*
X153126000Y-88860000D01*
X153125000Y-88855000D01*
X153125000Y-88850000D01*
X153125000Y-88650000D01*
X153125000Y-88647000D01*
X153125000Y-88645000D01*
X153124000Y-88642000D01*
X153124000Y-88640000D01*
X153123000Y-88637000D01*
X153123000Y-88635000D01*
X153122000Y-88632000D01*
X153121000Y-88630000D01*
X153120000Y-88627000D01*
X153118000Y-88625000D01*
X153117000Y-88623000D01*
X153115000Y-88621000D01*
X153114000Y-88619000D01*
X153112000Y-88617000D01*
X153110000Y-88615000D01*
X153108000Y-88613000D01*
X153106000Y-88611000D01*
X153104000Y-88610000D01*
X153102000Y-88608000D01*
X153100000Y-88607000D01*
X153098000Y-88605000D01*
X153095000Y-88604000D01*
X153093000Y-88603000D01*
X153090000Y-88602000D01*
X153088000Y-88602000D01*
X153085000Y-88601000D01*
X153083000Y-88601000D01*
X153080000Y-88600000D01*
X153078000Y-88600000D01*
X153075000Y-88600000D01*
X152350000Y-88600000D01*
X152345000Y-88600000D01*
X152340000Y-88599000D01*
X152334000Y-88599000D01*
X152329000Y-88598000D01*
X152324000Y-88597000D01*
X152319000Y-88595000D01*
X152314000Y-88593000D01*
X152309000Y-88591000D01*
X152305000Y-88589000D01*
X152300000Y-88587000D01*
X152296000Y-88584000D01*
X152291000Y-88581000D01*
X152287000Y-88578000D01*
X152283000Y-88574000D01*
X152279000Y-88571000D01*
X152276000Y-88567000D01*
X152272000Y-88563000D01*
X152269000Y-88559000D01*
X152266000Y-88554000D01*
X152263000Y-88550000D01*
X152261000Y-88545000D01*
X152259000Y-88541000D01*
X152257000Y-88536000D01*
X152255000Y-88531000D01*
X152253000Y-88526000D01*
X152252000Y-88521000D01*
X152251000Y-88516000D01*
X152251000Y-88510000D01*
X152250000Y-88505000D01*
X152250000Y-88500000D01*
X152250000Y-88350000D01*
X152250000Y-88345000D01*
X152251000Y-88340000D01*
X152251000Y-88334000D01*
X152252000Y-88329000D01*
X152253000Y-88324000D01*
X152255000Y-88319000D01*
X152257000Y-88314000D01*
X152259000Y-88309000D01*
X152261000Y-88305000D01*
X152263000Y-88300000D01*
X152266000Y-88296000D01*
X152269000Y-88291000D01*
X152272000Y-88287000D01*
X152276000Y-88283000D01*
X152279000Y-88279000D01*
X152283000Y-88276000D01*
X152287000Y-88272000D01*
X152291000Y-88269000D01*
X152296000Y-88266000D01*
X152300000Y-88263000D01*
X152305000Y-88261000D01*
X152309000Y-88259000D01*
X152314000Y-88257000D01*
X152319000Y-88255000D01*
X152324000Y-88253000D01*
X152329000Y-88252000D01*
X152334000Y-88251000D01*
X152340000Y-88251000D01*
X152345000Y-88250000D01*
X152350000Y-88250000D01*
X153475000Y-88250000D01*
X153480000Y-88250000D01*
X153485000Y-88251000D01*
G37*
X155960000Y-88251000D02*
X155966000Y-88251000D01*
X155971000Y-88252000D01*
X155976000Y-88253000D01*
X155981000Y-88255000D01*
X155986000Y-88257000D01*
X155991000Y-88259000D01*
X155995000Y-88261000D01*
X156000000Y-88263000D01*
X156004000Y-88266000D01*
X156009000Y-88269000D01*
X156013000Y-88272000D01*
X156017000Y-88276000D01*
X156021000Y-88279000D01*
X156024000Y-88283000D01*
X156028000Y-88287000D01*
X156031000Y-88291000D01*
X156034000Y-88296000D01*
X156037000Y-88300000D01*
X156039000Y-88305000D01*
X156041000Y-88309000D01*
X156043000Y-88314000D01*
X156045000Y-88319000D01*
X156047000Y-88324000D01*
X156048000Y-88329000D01*
X156049000Y-88334000D01*
X156049000Y-88340000D01*
X156050000Y-88345000D01*
X156050000Y-88350000D01*
X156050000Y-88500000D01*
X156050000Y-88505000D01*
X156049000Y-88510000D01*
X156049000Y-88516000D01*
X156048000Y-88521000D01*
X156047000Y-88526000D01*
X156045000Y-88531000D01*
X156043000Y-88536000D01*
X156041000Y-88541000D01*
X156039000Y-88545000D01*
X156037000Y-88550000D01*
X156034000Y-88554000D01*
X156031000Y-88559000D01*
X156028000Y-88563000D01*
X156024000Y-88567000D01*
X156021000Y-88571000D01*
X156017000Y-88574000D01*
X156013000Y-88578000D01*
X156009000Y-88581000D01*
X156004000Y-88584000D01*
X156000000Y-88587000D01*
X155995000Y-88589000D01*
X155991000Y-88591000D01*
X155986000Y-88593000D01*
X155981000Y-88595000D01*
X155976000Y-88597000D01*
X155971000Y-88598000D01*
X155966000Y-88599000D01*
X155960000Y-88599000D01*
X155955000Y-88600000D01*
X155950000Y-88600000D01*
X155225000Y-88600000D01*
X155222000Y-88600000D01*
X155220000Y-88600000D01*
X155217000Y-88601000D01*
X155215000Y-88601000D01*
X155212000Y-88602000D01*
X155210000Y-88602000D01*
X155207000Y-88603000D01*
X155205000Y-88604000D01*
X155202000Y-88605000D01*
X155200000Y-88607000D01*
X155198000Y-88608000D01*
X155196000Y-88610000D01*
X155194000Y-88611000D01*
X155192000Y-88613000D01*
X155190000Y-88615000D01*
X155188000Y-88617000D01*
X155186000Y-88619000D01*
X155185000Y-88621000D01*
X155183000Y-88623000D01*
X155182000Y-88625000D01*
X155180000Y-88627000D01*
X155179000Y-88630000D01*
X155178000Y-88632000D01*
X155177000Y-88635000D01*
X155177000Y-88637000D01*
X155176000Y-88640000D01*
X155176000Y-88642000D01*
X155175000Y-88645000D01*
X155175000Y-88647000D01*
X155175000Y-88650000D01*
X155175000Y-88850000D01*
X155175000Y-88855000D01*
X155174000Y-88860000D01*
X155174000Y-88866000D01*
X155173000Y-88871000D01*
X155172000Y-88876000D01*
X155170000Y-88881000D01*
X155168000Y-88886000D01*
X155166000Y-88891000D01*
X155164000Y-88895000D01*
X155162000Y-88900000D01*
X155159000Y-88904000D01*
X155156000Y-88909000D01*
X155153000Y-88913000D01*
X155149000Y-88917000D01*
X155146000Y-88921000D01*
X155142000Y-88924000D01*
X155138000Y-88928000D01*
X155134000Y-88931000D01*
X155129000Y-88934000D01*
X155125000Y-88937000D01*
X155120000Y-88939000D01*
X155116000Y-88941000D01*
X155111000Y-88943000D01*
X155106000Y-88945000D01*
X155101000Y-88947000D01*
X155096000Y-88948000D01*
X155091000Y-88949000D01*
X155085000Y-88949000D01*
X155080000Y-88950000D01*
X155075000Y-88950000D01*
X154825000Y-88950000D01*
X154820000Y-88950000D01*
X154815000Y-88949000D01*
X154809000Y-88949000D01*
X154804000Y-88948000D01*
X154799000Y-88947000D01*
X154794000Y-88945000D01*
X154789000Y-88943000D01*
X154784000Y-88941000D01*
X154780000Y-88939000D01*
X154775000Y-88937000D01*
X154771000Y-88934000D01*
X154766000Y-88931000D01*
X154762000Y-88928000D01*
X154758000Y-88924000D01*
X154754000Y-88921000D01*
X154751000Y-88917000D01*
X154747000Y-88913000D01*
X154744000Y-88909000D01*
X154741000Y-88904000D01*
X154738000Y-88900000D01*
X154736000Y-88895000D01*
X154734000Y-88891000D01*
X154732000Y-88886000D01*
X154730000Y-88881000D01*
X154728000Y-88876000D01*
X154727000Y-88871000D01*
X154726000Y-88866000D01*
X154726000Y-88860000D01*
X154725000Y-88855000D01*
X154725000Y-88850000D01*
X154725000Y-88350000D01*
X154725000Y-88345000D01*
X154726000Y-88340000D01*
X154726000Y-88334000D01*
X154727000Y-88329000D01*
X154728000Y-88324000D01*
X154730000Y-88319000D01*
X154732000Y-88314000D01*
X154734000Y-88309000D01*
X154736000Y-88305000D01*
X154738000Y-88300000D01*
X154741000Y-88296000D01*
X154744000Y-88291000D01*
X154747000Y-88287000D01*
X154751000Y-88283000D01*
X154754000Y-88279000D01*
X154758000Y-88276000D01*
X154762000Y-88272000D01*
X154766000Y-88269000D01*
X154771000Y-88266000D01*
X154775000Y-88263000D01*
X154780000Y-88261000D01*
X154784000Y-88259000D01*
X154789000Y-88257000D01*
X154794000Y-88255000D01*
X154799000Y-88253000D01*
X154804000Y-88252000D01*
X154809000Y-88251000D01*
X154815000Y-88251000D01*
X154820000Y-88250000D01*
X154825000Y-88250000D01*
X155950000Y-88250000D01*
X155955000Y-88250000D01*
X155960000Y-88251000D01*
G36*
X155960000Y-88251000D02*
G01*
X155966000Y-88251000D01*
X155971000Y-88252000D01*
X155976000Y-88253000D01*
X155981000Y-88255000D01*
X155986000Y-88257000D01*
X155991000Y-88259000D01*
X155995000Y-88261000D01*
X156000000Y-88263000D01*
X156004000Y-88266000D01*
X156009000Y-88269000D01*
X156013000Y-88272000D01*
X156017000Y-88276000D01*
X156021000Y-88279000D01*
X156024000Y-88283000D01*
X156028000Y-88287000D01*
X156031000Y-88291000D01*
X156034000Y-88296000D01*
X156037000Y-88300000D01*
X156039000Y-88305000D01*
X156041000Y-88309000D01*
X156043000Y-88314000D01*
X156045000Y-88319000D01*
X156047000Y-88324000D01*
X156048000Y-88329000D01*
X156049000Y-88334000D01*
X156049000Y-88340000D01*
X156050000Y-88345000D01*
X156050000Y-88350000D01*
X156050000Y-88500000D01*
X156050000Y-88505000D01*
X156049000Y-88510000D01*
X156049000Y-88516000D01*
X156048000Y-88521000D01*
X156047000Y-88526000D01*
X156045000Y-88531000D01*
X156043000Y-88536000D01*
X156041000Y-88541000D01*
X156039000Y-88545000D01*
X156037000Y-88550000D01*
X156034000Y-88554000D01*
X156031000Y-88559000D01*
X156028000Y-88563000D01*
X156024000Y-88567000D01*
X156021000Y-88571000D01*
X156017000Y-88574000D01*
X156013000Y-88578000D01*
X156009000Y-88581000D01*
X156004000Y-88584000D01*
X156000000Y-88587000D01*
X155995000Y-88589000D01*
X155991000Y-88591000D01*
X155986000Y-88593000D01*
X155981000Y-88595000D01*
X155976000Y-88597000D01*
X155971000Y-88598000D01*
X155966000Y-88599000D01*
X155960000Y-88599000D01*
X155955000Y-88600000D01*
X155950000Y-88600000D01*
X155225000Y-88600000D01*
X155222000Y-88600000D01*
X155220000Y-88600000D01*
X155217000Y-88601000D01*
X155215000Y-88601000D01*
X155212000Y-88602000D01*
X155210000Y-88602000D01*
X155207000Y-88603000D01*
X155205000Y-88604000D01*
X155202000Y-88605000D01*
X155200000Y-88607000D01*
X155198000Y-88608000D01*
X155196000Y-88610000D01*
X155194000Y-88611000D01*
X155192000Y-88613000D01*
X155190000Y-88615000D01*
X155188000Y-88617000D01*
X155186000Y-88619000D01*
X155185000Y-88621000D01*
X155183000Y-88623000D01*
X155182000Y-88625000D01*
X155180000Y-88627000D01*
X155179000Y-88630000D01*
X155178000Y-88632000D01*
X155177000Y-88635000D01*
X155177000Y-88637000D01*
X155176000Y-88640000D01*
X155176000Y-88642000D01*
X155175000Y-88645000D01*
X155175000Y-88647000D01*
X155175000Y-88650000D01*
X155175000Y-88850000D01*
X155175000Y-88855000D01*
X155174000Y-88860000D01*
X155174000Y-88866000D01*
X155173000Y-88871000D01*
X155172000Y-88876000D01*
X155170000Y-88881000D01*
X155168000Y-88886000D01*
X155166000Y-88891000D01*
X155164000Y-88895000D01*
X155162000Y-88900000D01*
X155159000Y-88904000D01*
X155156000Y-88909000D01*
X155153000Y-88913000D01*
X155149000Y-88917000D01*
X155146000Y-88921000D01*
X155142000Y-88924000D01*
X155138000Y-88928000D01*
X155134000Y-88931000D01*
X155129000Y-88934000D01*
X155125000Y-88937000D01*
X155120000Y-88939000D01*
X155116000Y-88941000D01*
X155111000Y-88943000D01*
X155106000Y-88945000D01*
X155101000Y-88947000D01*
X155096000Y-88948000D01*
X155091000Y-88949000D01*
X155085000Y-88949000D01*
X155080000Y-88950000D01*
X155075000Y-88950000D01*
X154825000Y-88950000D01*
X154820000Y-88950000D01*
X154815000Y-88949000D01*
X154809000Y-88949000D01*
X154804000Y-88948000D01*
X154799000Y-88947000D01*
X154794000Y-88945000D01*
X154789000Y-88943000D01*
X154784000Y-88941000D01*
X154780000Y-88939000D01*
X154775000Y-88937000D01*
X154771000Y-88934000D01*
X154766000Y-88931000D01*
X154762000Y-88928000D01*
X154758000Y-88924000D01*
X154754000Y-88921000D01*
X154751000Y-88917000D01*
X154747000Y-88913000D01*
X154744000Y-88909000D01*
X154741000Y-88904000D01*
X154738000Y-88900000D01*
X154736000Y-88895000D01*
X154734000Y-88891000D01*
X154732000Y-88886000D01*
X154730000Y-88881000D01*
X154728000Y-88876000D01*
X154727000Y-88871000D01*
X154726000Y-88866000D01*
X154726000Y-88860000D01*
X154725000Y-88855000D01*
X154725000Y-88850000D01*
X154725000Y-88350000D01*
X154725000Y-88345000D01*
X154726000Y-88340000D01*
X154726000Y-88334000D01*
X154727000Y-88329000D01*
X154728000Y-88324000D01*
X154730000Y-88319000D01*
X154732000Y-88314000D01*
X154734000Y-88309000D01*
X154736000Y-88305000D01*
X154738000Y-88300000D01*
X154741000Y-88296000D01*
X154744000Y-88291000D01*
X154747000Y-88287000D01*
X154751000Y-88283000D01*
X154754000Y-88279000D01*
X154758000Y-88276000D01*
X154762000Y-88272000D01*
X154766000Y-88269000D01*
X154771000Y-88266000D01*
X154775000Y-88263000D01*
X154780000Y-88261000D01*
X154784000Y-88259000D01*
X154789000Y-88257000D01*
X154794000Y-88255000D01*
X154799000Y-88253000D01*
X154804000Y-88252000D01*
X154809000Y-88251000D01*
X154815000Y-88251000D01*
X154820000Y-88250000D01*
X154825000Y-88250000D01*
X155950000Y-88250000D01*
X155955000Y-88250000D01*
X155960000Y-88251000D01*
G37*
X153991000Y-86727000D02*
X153996000Y-86728000D01*
X154001000Y-86729000D01*
X154006000Y-86730000D01*
X154011000Y-86732000D01*
X154016000Y-86734000D01*
X154020000Y-86736000D01*
X154025000Y-86739000D01*
X154029000Y-86742000D01*
X154034000Y-86745000D01*
X154038000Y-86748000D01*
X154042000Y-86751000D01*
X154046000Y-86755000D01*
X154049000Y-86759000D01*
X154053000Y-86763000D01*
X154056000Y-86767000D01*
X154059000Y-86771000D01*
X154062000Y-86776000D01*
X154064000Y-86780000D01*
X154066000Y-86785000D01*
X154068000Y-86790000D01*
X154070000Y-86795000D01*
X154072000Y-86800000D01*
X154073000Y-86805000D01*
X154074000Y-86810000D01*
X154074000Y-86815000D01*
X154075000Y-86820000D01*
X154075000Y-86826000D01*
X154075000Y-88050000D01*
X154075000Y-88055000D01*
X154074000Y-88060000D01*
X154074000Y-88066000D01*
X154073000Y-88071000D01*
X154072000Y-88076000D01*
X154070000Y-88081000D01*
X154068000Y-88086000D01*
X154066000Y-88091000D01*
X154064000Y-88095000D01*
X154062000Y-88100000D01*
X154059000Y-88104000D01*
X154056000Y-88109000D01*
X154053000Y-88113000D01*
X154049000Y-88117000D01*
X154046000Y-88121000D01*
X154042000Y-88124000D01*
X154038000Y-88128000D01*
X154034000Y-88131000D01*
X154029000Y-88134000D01*
X154025000Y-88137000D01*
X154020000Y-88139000D01*
X154016000Y-88141000D01*
X154011000Y-88143000D01*
X154006000Y-88145000D01*
X154001000Y-88147000D01*
X153996000Y-88148000D01*
X153991000Y-88149000D01*
X153985000Y-88149000D01*
X153980000Y-88150000D01*
X153975000Y-88150000D01*
X153825000Y-88150000D01*
X153820000Y-88150000D01*
X153815000Y-88149000D01*
X153809000Y-88149000D01*
X153804000Y-88148000D01*
X153799000Y-88147000D01*
X153794000Y-88145000D01*
X153789000Y-88143000D01*
X153784000Y-88141000D01*
X153780000Y-88139000D01*
X153775000Y-88137000D01*
X153771000Y-88134000D01*
X153766000Y-88131000D01*
X153762000Y-88128000D01*
X153758000Y-88124000D01*
X153754000Y-88121000D01*
X153751000Y-88117000D01*
X153747000Y-88113000D01*
X153744000Y-88109000D01*
X153741000Y-88104000D01*
X153738000Y-88100000D01*
X153736000Y-88095000D01*
X153734000Y-88091000D01*
X153732000Y-88086000D01*
X153730000Y-88081000D01*
X153728000Y-88076000D01*
X153727000Y-88071000D01*
X153726000Y-88066000D01*
X153726000Y-88060000D01*
X153725000Y-88055000D01*
X153725000Y-88050000D01*
X153725000Y-87297000D01*
X153725000Y-87295000D01*
X153725000Y-87293000D01*
X153725000Y-87291000D01*
X153725000Y-87289000D01*
X153724000Y-87287000D01*
X153724000Y-87285000D01*
X153724000Y-87283000D01*
X153723000Y-87281000D01*
X153723000Y-87279000D01*
X153722000Y-87277000D01*
X153722000Y-87275000D01*
X153721000Y-87273000D01*
X153721000Y-87272000D01*
X153720000Y-87270000D01*
X153719000Y-87268000D01*
X153719000Y-87266000D01*
X153718000Y-87264000D01*
X153717000Y-87263000D01*
X153716000Y-87261000D01*
X153715000Y-87259000D01*
X153714000Y-87257000D01*
X153713000Y-87256000D01*
X153712000Y-87254000D01*
X153711000Y-87252000D01*
X153710000Y-87251000D01*
X153708000Y-87249000D01*
X153707000Y-87248000D01*
X153706000Y-87246000D01*
X153704000Y-87245000D01*
X153703000Y-87244000D01*
X153582000Y-87122000D01*
X153581000Y-87121000D01*
X153579000Y-87120000D01*
X153578000Y-87118000D01*
X153576000Y-87117000D01*
X153575000Y-87116000D01*
X153573000Y-87115000D01*
X153571000Y-87114000D01*
X153570000Y-87113000D01*
X153568000Y-87112000D01*
X153566000Y-87111000D01*
X153565000Y-87110000D01*
X153563000Y-87109000D01*
X153561000Y-87108000D01*
X153559000Y-87107000D01*
X153558000Y-87106000D01*
X153556000Y-87105000D01*
X153554000Y-87105000D01*
X153552000Y-87104000D01*
X153550000Y-87104000D01*
X153548000Y-87103000D01*
X153546000Y-87103000D01*
X153545000Y-87102000D01*
X153543000Y-87102000D01*
X153541000Y-87101000D01*
X153539000Y-87101000D01*
X153537000Y-87101000D01*
X153535000Y-87101000D01*
X153533000Y-87101000D01*
X153531000Y-87101000D01*
X153529000Y-87100000D01*
X152350000Y-87100000D01*
X152345000Y-87100000D01*
X152340000Y-87100000D01*
X152334000Y-87099000D01*
X152329000Y-87098000D01*
X152324000Y-87097000D01*
X152319000Y-87096000D01*
X152314000Y-87094000D01*
X152309000Y-87092000D01*
X152305000Y-87090000D01*
X152300000Y-87087000D01*
X152296000Y-87084000D01*
X152291000Y-87081000D01*
X152287000Y-87078000D01*
X152283000Y-87075000D01*
X152279000Y-87071000D01*
X152276000Y-87067000D01*
X152272000Y-87063000D01*
X152269000Y-87059000D01*
X152266000Y-87055000D01*
X152263000Y-87051000D01*
X152261000Y-87046000D01*
X152259000Y-87041000D01*
X152257000Y-87036000D01*
X152255000Y-87031000D01*
X152253000Y-87026000D01*
X152252000Y-87021000D01*
X152251000Y-87016000D01*
X152251000Y-87011000D01*
X152250000Y-87006000D01*
X152250000Y-87000000D01*
X152250000Y-86826000D01*
X152250000Y-86820000D01*
X152251000Y-86815000D01*
X152251000Y-86810000D01*
X152252000Y-86805000D01*
X152253000Y-86800000D01*
X152255000Y-86795000D01*
X152257000Y-86790000D01*
X152259000Y-86785000D01*
X152261000Y-86780000D01*
X152263000Y-86775000D01*
X152266000Y-86771000D01*
X152269000Y-86767000D01*
X152272000Y-86763000D01*
X152276000Y-86759000D01*
X152279000Y-86755000D01*
X152283000Y-86751000D01*
X152287000Y-86748000D01*
X152291000Y-86745000D01*
X152296000Y-86742000D01*
X152300000Y-86739000D01*
X152305000Y-86736000D01*
X152309000Y-86734000D01*
X152314000Y-86732000D01*
X152319000Y-86730000D01*
X152324000Y-86729000D01*
X152329000Y-86728000D01*
X152334000Y-86727000D01*
X152340000Y-86726000D01*
X152345000Y-86726000D01*
X152350000Y-86726000D01*
X153975000Y-86726000D01*
X153980000Y-86726000D01*
X153985000Y-86726000D01*
X153991000Y-86727000D01*
G36*
X153991000Y-86727000D02*
G01*
X153996000Y-86728000D01*
X154001000Y-86729000D01*
X154006000Y-86730000D01*
X154011000Y-86732000D01*
X154016000Y-86734000D01*
X154020000Y-86736000D01*
X154025000Y-86739000D01*
X154029000Y-86742000D01*
X154034000Y-86745000D01*
X154038000Y-86748000D01*
X154042000Y-86751000D01*
X154046000Y-86755000D01*
X154049000Y-86759000D01*
X154053000Y-86763000D01*
X154056000Y-86767000D01*
X154059000Y-86771000D01*
X154062000Y-86776000D01*
X154064000Y-86780000D01*
X154066000Y-86785000D01*
X154068000Y-86790000D01*
X154070000Y-86795000D01*
X154072000Y-86800000D01*
X154073000Y-86805000D01*
X154074000Y-86810000D01*
X154074000Y-86815000D01*
X154075000Y-86820000D01*
X154075000Y-86826000D01*
X154075000Y-88050000D01*
X154075000Y-88055000D01*
X154074000Y-88060000D01*
X154074000Y-88066000D01*
X154073000Y-88071000D01*
X154072000Y-88076000D01*
X154070000Y-88081000D01*
X154068000Y-88086000D01*
X154066000Y-88091000D01*
X154064000Y-88095000D01*
X154062000Y-88100000D01*
X154059000Y-88104000D01*
X154056000Y-88109000D01*
X154053000Y-88113000D01*
X154049000Y-88117000D01*
X154046000Y-88121000D01*
X154042000Y-88124000D01*
X154038000Y-88128000D01*
X154034000Y-88131000D01*
X154029000Y-88134000D01*
X154025000Y-88137000D01*
X154020000Y-88139000D01*
X154016000Y-88141000D01*
X154011000Y-88143000D01*
X154006000Y-88145000D01*
X154001000Y-88147000D01*
X153996000Y-88148000D01*
X153991000Y-88149000D01*
X153985000Y-88149000D01*
X153980000Y-88150000D01*
X153975000Y-88150000D01*
X153825000Y-88150000D01*
X153820000Y-88150000D01*
X153815000Y-88149000D01*
X153809000Y-88149000D01*
X153804000Y-88148000D01*
X153799000Y-88147000D01*
X153794000Y-88145000D01*
X153789000Y-88143000D01*
X153784000Y-88141000D01*
X153780000Y-88139000D01*
X153775000Y-88137000D01*
X153771000Y-88134000D01*
X153766000Y-88131000D01*
X153762000Y-88128000D01*
X153758000Y-88124000D01*
X153754000Y-88121000D01*
X153751000Y-88117000D01*
X153747000Y-88113000D01*
X153744000Y-88109000D01*
X153741000Y-88104000D01*
X153738000Y-88100000D01*
X153736000Y-88095000D01*
X153734000Y-88091000D01*
X153732000Y-88086000D01*
X153730000Y-88081000D01*
X153728000Y-88076000D01*
X153727000Y-88071000D01*
X153726000Y-88066000D01*
X153726000Y-88060000D01*
X153725000Y-88055000D01*
X153725000Y-88050000D01*
X153725000Y-87297000D01*
X153725000Y-87295000D01*
X153725000Y-87293000D01*
X153725000Y-87291000D01*
X153725000Y-87289000D01*
X153724000Y-87287000D01*
X153724000Y-87285000D01*
X153724000Y-87283000D01*
X153723000Y-87281000D01*
X153723000Y-87279000D01*
X153722000Y-87277000D01*
X153722000Y-87275000D01*
X153721000Y-87273000D01*
X153721000Y-87272000D01*
X153720000Y-87270000D01*
X153719000Y-87268000D01*
X153719000Y-87266000D01*
X153718000Y-87264000D01*
X153717000Y-87263000D01*
X153716000Y-87261000D01*
X153715000Y-87259000D01*
X153714000Y-87257000D01*
X153713000Y-87256000D01*
X153712000Y-87254000D01*
X153711000Y-87252000D01*
X153710000Y-87251000D01*
X153708000Y-87249000D01*
X153707000Y-87248000D01*
X153706000Y-87246000D01*
X153704000Y-87245000D01*
X153703000Y-87244000D01*
X153582000Y-87122000D01*
X153581000Y-87121000D01*
X153579000Y-87120000D01*
X153578000Y-87118000D01*
X153576000Y-87117000D01*
X153575000Y-87116000D01*
X153573000Y-87115000D01*
X153571000Y-87114000D01*
X153570000Y-87113000D01*
X153568000Y-87112000D01*
X153566000Y-87111000D01*
X153565000Y-87110000D01*
X153563000Y-87109000D01*
X153561000Y-87108000D01*
X153559000Y-87107000D01*
X153558000Y-87106000D01*
X153556000Y-87105000D01*
X153554000Y-87105000D01*
X153552000Y-87104000D01*
X153550000Y-87104000D01*
X153548000Y-87103000D01*
X153546000Y-87103000D01*
X153545000Y-87102000D01*
X153543000Y-87102000D01*
X153541000Y-87101000D01*
X153539000Y-87101000D01*
X153537000Y-87101000D01*
X153535000Y-87101000D01*
X153533000Y-87101000D01*
X153531000Y-87101000D01*
X153529000Y-87100000D01*
X152350000Y-87100000D01*
X152345000Y-87100000D01*
X152340000Y-87100000D01*
X152334000Y-87099000D01*
X152329000Y-87098000D01*
X152324000Y-87097000D01*
X152319000Y-87096000D01*
X152314000Y-87094000D01*
X152309000Y-87092000D01*
X152305000Y-87090000D01*
X152300000Y-87087000D01*
X152296000Y-87084000D01*
X152291000Y-87081000D01*
X152287000Y-87078000D01*
X152283000Y-87075000D01*
X152279000Y-87071000D01*
X152276000Y-87067000D01*
X152272000Y-87063000D01*
X152269000Y-87059000D01*
X152266000Y-87055000D01*
X152263000Y-87051000D01*
X152261000Y-87046000D01*
X152259000Y-87041000D01*
X152257000Y-87036000D01*
X152255000Y-87031000D01*
X152253000Y-87026000D01*
X152252000Y-87021000D01*
X152251000Y-87016000D01*
X152251000Y-87011000D01*
X152250000Y-87006000D01*
X152250000Y-87000000D01*
X152250000Y-86826000D01*
X152250000Y-86820000D01*
X152251000Y-86815000D01*
X152251000Y-86810000D01*
X152252000Y-86805000D01*
X152253000Y-86800000D01*
X152255000Y-86795000D01*
X152257000Y-86790000D01*
X152259000Y-86785000D01*
X152261000Y-86780000D01*
X152263000Y-86775000D01*
X152266000Y-86771000D01*
X152269000Y-86767000D01*
X152272000Y-86763000D01*
X152276000Y-86759000D01*
X152279000Y-86755000D01*
X152283000Y-86751000D01*
X152287000Y-86748000D01*
X152291000Y-86745000D01*
X152296000Y-86742000D01*
X152300000Y-86739000D01*
X152305000Y-86736000D01*
X152309000Y-86734000D01*
X152314000Y-86732000D01*
X152319000Y-86730000D01*
X152324000Y-86729000D01*
X152329000Y-86728000D01*
X152334000Y-86727000D01*
X152340000Y-86726000D01*
X152345000Y-86726000D01*
X152350000Y-86726000D01*
X153975000Y-86726000D01*
X153980000Y-86726000D01*
X153985000Y-86726000D01*
X153991000Y-86727000D01*
G37*
X155958000Y-87301000D02*
X155960000Y-87301000D01*
X155963000Y-87302000D01*
X155965000Y-87302000D01*
X155968000Y-87303000D01*
X155970000Y-87304000D01*
X155973000Y-87305000D01*
X155975000Y-87307000D01*
X155977000Y-87308000D01*
X155979000Y-87310000D01*
X155981000Y-87311000D01*
X155983000Y-87313000D01*
X155985000Y-87315000D01*
X155987000Y-87317000D01*
X155989000Y-87319000D01*
X155990000Y-87321000D01*
X155992000Y-87323000D01*
X155993000Y-87325000D01*
X155995000Y-87327000D01*
X155996000Y-87330000D01*
X155997000Y-87332000D01*
X155998000Y-87335000D01*
X155998000Y-87337000D01*
X155999000Y-87340000D01*
X155999000Y-87342000D01*
X156000000Y-87345000D01*
X156000000Y-87347000D01*
X156000000Y-87350000D01*
X156000000Y-87500000D01*
X156000000Y-87503000D01*
X156000000Y-87505000D01*
X155999000Y-87508000D01*
X155999000Y-87510000D01*
X155998000Y-87513000D01*
X155998000Y-87515000D01*
X155997000Y-87518000D01*
X155996000Y-87520000D01*
X155995000Y-87523000D01*
X155993000Y-87525000D01*
X155992000Y-87527000D01*
X155990000Y-87529000D01*
X155989000Y-87531000D01*
X155987000Y-87533000D01*
X155985000Y-87535000D01*
X155983000Y-87537000D01*
X155981000Y-87539000D01*
X155979000Y-87540000D01*
X155977000Y-87542000D01*
X155975000Y-87543000D01*
X155973000Y-87545000D01*
X155970000Y-87546000D01*
X155968000Y-87547000D01*
X155965000Y-87548000D01*
X155963000Y-87548000D01*
X155960000Y-87549000D01*
X155958000Y-87549000D01*
X155955000Y-87550000D01*
X155953000Y-87550000D01*
X155950000Y-87550000D01*
X155650000Y-87550000D01*
X155647000Y-87550000D01*
X155645000Y-87550000D01*
X155642000Y-87551000D01*
X155640000Y-87551000D01*
X155637000Y-87552000D01*
X155635000Y-87552000D01*
X155632000Y-87553000D01*
X155630000Y-87554000D01*
X155627000Y-87555000D01*
X155625000Y-87557000D01*
X155623000Y-87558000D01*
X155621000Y-87560000D01*
X155619000Y-87561000D01*
X155617000Y-87563000D01*
X155615000Y-87565000D01*
X155613000Y-87567000D01*
X155611000Y-87569000D01*
X155610000Y-87571000D01*
X155608000Y-87573000D01*
X155607000Y-87575000D01*
X155605000Y-87577000D01*
X155604000Y-87580000D01*
X155603000Y-87582000D01*
X155602000Y-87585000D01*
X155602000Y-87587000D01*
X155601000Y-87590000D01*
X155601000Y-87592000D01*
X155600000Y-87595000D01*
X155600000Y-87597000D01*
X155600000Y-87600000D01*
X155600000Y-87750000D01*
X155600000Y-87753000D01*
X155600000Y-87755000D01*
X155601000Y-87758000D01*
X155601000Y-87760000D01*
X155602000Y-87763000D01*
X155602000Y-87765000D01*
X155603000Y-87768000D01*
X155604000Y-87770000D01*
X155605000Y-87773000D01*
X155607000Y-87775000D01*
X155608000Y-87777000D01*
X155610000Y-87779000D01*
X155611000Y-87781000D01*
X155613000Y-87783000D01*
X155615000Y-87785000D01*
X155617000Y-87787000D01*
X155619000Y-87789000D01*
X155621000Y-87790000D01*
X155623000Y-87792000D01*
X155625000Y-87793000D01*
X155627000Y-87795000D01*
X155630000Y-87796000D01*
X155632000Y-87797000D01*
X155635000Y-87798000D01*
X155637000Y-87798000D01*
X155640000Y-87799000D01*
X155642000Y-87799000D01*
X155645000Y-87800000D01*
X155647000Y-87800000D01*
X155650000Y-87800000D01*
X155950000Y-87800000D01*
X155953000Y-87800000D01*
X155955000Y-87800000D01*
X155958000Y-87801000D01*
X155960000Y-87801000D01*
X155963000Y-87802000D01*
X155965000Y-87802000D01*
X155968000Y-87803000D01*
X155970000Y-87804000D01*
X155973000Y-87805000D01*
X155975000Y-87807000D01*
X155977000Y-87808000D01*
X155979000Y-87810000D01*
X155981000Y-87811000D01*
X155983000Y-87813000D01*
X155985000Y-87815000D01*
X155987000Y-87817000D01*
X155989000Y-87819000D01*
X155990000Y-87821000D01*
X155992000Y-87823000D01*
X155993000Y-87825000D01*
X155995000Y-87827000D01*
X155996000Y-87830000D01*
X155997000Y-87832000D01*
X155998000Y-87835000D01*
X155998000Y-87837000D01*
X155999000Y-87840000D01*
X155999000Y-87842000D01*
X156000000Y-87845000D01*
X156000000Y-87847000D01*
X156000000Y-87850000D01*
X156000000Y-88000000D01*
X156000000Y-88003000D01*
X156000000Y-88005000D01*
X155999000Y-88008000D01*
X155999000Y-88010000D01*
X155998000Y-88013000D01*
X155998000Y-88015000D01*
X155997000Y-88018000D01*
X155996000Y-88020000D01*
X155995000Y-88023000D01*
X155993000Y-88025000D01*
X155992000Y-88027000D01*
X155990000Y-88029000D01*
X155989000Y-88031000D01*
X155987000Y-88033000D01*
X155985000Y-88035000D01*
X155983000Y-88037000D01*
X155981000Y-88039000D01*
X155979000Y-88040000D01*
X155977000Y-88042000D01*
X155975000Y-88043000D01*
X155973000Y-88045000D01*
X155970000Y-88046000D01*
X155968000Y-88047000D01*
X155965000Y-88048000D01*
X155963000Y-88048000D01*
X155960000Y-88049000D01*
X155958000Y-88049000D01*
X155955000Y-88050000D01*
X155953000Y-88050000D01*
X155950000Y-88050000D01*
X154850000Y-88050000D01*
X154847000Y-88050000D01*
X154845000Y-88050000D01*
X154842000Y-88049000D01*
X154840000Y-88049000D01*
X154837000Y-88048000D01*
X154835000Y-88048000D01*
X154832000Y-88047000D01*
X154830000Y-88046000D01*
X154827000Y-88045000D01*
X154825000Y-88043000D01*
X154823000Y-88042000D01*
X154821000Y-88040000D01*
X154819000Y-88039000D01*
X154817000Y-88037000D01*
X154815000Y-88035000D01*
X154813000Y-88033000D01*
X154811000Y-88031000D01*
X154810000Y-88029000D01*
X154808000Y-88027000D01*
X154807000Y-88025000D01*
X154805000Y-88023000D01*
X154804000Y-88020000D01*
X154803000Y-88018000D01*
X154802000Y-88015000D01*
X154802000Y-88013000D01*
X154801000Y-88010000D01*
X154801000Y-88008000D01*
X154800000Y-88005000D01*
X154800000Y-88003000D01*
X154800000Y-88000000D01*
X154800000Y-87350000D01*
X154800000Y-87347000D01*
X154800000Y-87345000D01*
X154801000Y-87342000D01*
X154801000Y-87340000D01*
X154802000Y-87337000D01*
X154802000Y-87335000D01*
X154803000Y-87332000D01*
X154804000Y-87330000D01*
X154805000Y-87327000D01*
X154807000Y-87325000D01*
X154808000Y-87323000D01*
X154810000Y-87321000D01*
X154811000Y-87319000D01*
X154813000Y-87317000D01*
X154815000Y-87315000D01*
X154817000Y-87313000D01*
X154819000Y-87311000D01*
X154821000Y-87310000D01*
X154823000Y-87308000D01*
X154825000Y-87307000D01*
X154827000Y-87305000D01*
X154830000Y-87304000D01*
X154832000Y-87303000D01*
X154835000Y-87302000D01*
X154837000Y-87302000D01*
X154840000Y-87301000D01*
X154842000Y-87301000D01*
X154845000Y-87300000D01*
X154847000Y-87300000D01*
X154850000Y-87300000D01*
X155950000Y-87300000D01*
X155953000Y-87300000D01*
X155955000Y-87300000D01*
X155958000Y-87301000D01*
G36*
X155958000Y-87301000D02*
G01*
X155960000Y-87301000D01*
X155963000Y-87302000D01*
X155965000Y-87302000D01*
X155968000Y-87303000D01*
X155970000Y-87304000D01*
X155973000Y-87305000D01*
X155975000Y-87307000D01*
X155977000Y-87308000D01*
X155979000Y-87310000D01*
X155981000Y-87311000D01*
X155983000Y-87313000D01*
X155985000Y-87315000D01*
X155987000Y-87317000D01*
X155989000Y-87319000D01*
X155990000Y-87321000D01*
X155992000Y-87323000D01*
X155993000Y-87325000D01*
X155995000Y-87327000D01*
X155996000Y-87330000D01*
X155997000Y-87332000D01*
X155998000Y-87335000D01*
X155998000Y-87337000D01*
X155999000Y-87340000D01*
X155999000Y-87342000D01*
X156000000Y-87345000D01*
X156000000Y-87347000D01*
X156000000Y-87350000D01*
X156000000Y-87500000D01*
X156000000Y-87503000D01*
X156000000Y-87505000D01*
X155999000Y-87508000D01*
X155999000Y-87510000D01*
X155998000Y-87513000D01*
X155998000Y-87515000D01*
X155997000Y-87518000D01*
X155996000Y-87520000D01*
X155995000Y-87523000D01*
X155993000Y-87525000D01*
X155992000Y-87527000D01*
X155990000Y-87529000D01*
X155989000Y-87531000D01*
X155987000Y-87533000D01*
X155985000Y-87535000D01*
X155983000Y-87537000D01*
X155981000Y-87539000D01*
X155979000Y-87540000D01*
X155977000Y-87542000D01*
X155975000Y-87543000D01*
X155973000Y-87545000D01*
X155970000Y-87546000D01*
X155968000Y-87547000D01*
X155965000Y-87548000D01*
X155963000Y-87548000D01*
X155960000Y-87549000D01*
X155958000Y-87549000D01*
X155955000Y-87550000D01*
X155953000Y-87550000D01*
X155950000Y-87550000D01*
X155650000Y-87550000D01*
X155647000Y-87550000D01*
X155645000Y-87550000D01*
X155642000Y-87551000D01*
X155640000Y-87551000D01*
X155637000Y-87552000D01*
X155635000Y-87552000D01*
X155632000Y-87553000D01*
X155630000Y-87554000D01*
X155627000Y-87555000D01*
X155625000Y-87557000D01*
X155623000Y-87558000D01*
X155621000Y-87560000D01*
X155619000Y-87561000D01*
X155617000Y-87563000D01*
X155615000Y-87565000D01*
X155613000Y-87567000D01*
X155611000Y-87569000D01*
X155610000Y-87571000D01*
X155608000Y-87573000D01*
X155607000Y-87575000D01*
X155605000Y-87577000D01*
X155604000Y-87580000D01*
X155603000Y-87582000D01*
X155602000Y-87585000D01*
X155602000Y-87587000D01*
X155601000Y-87590000D01*
X155601000Y-87592000D01*
X155600000Y-87595000D01*
X155600000Y-87597000D01*
X155600000Y-87600000D01*
X155600000Y-87750000D01*
X155600000Y-87753000D01*
X155600000Y-87755000D01*
X155601000Y-87758000D01*
X155601000Y-87760000D01*
X155602000Y-87763000D01*
X155602000Y-87765000D01*
X155603000Y-87768000D01*
X155604000Y-87770000D01*
X155605000Y-87773000D01*
X155607000Y-87775000D01*
X155608000Y-87777000D01*
X155610000Y-87779000D01*
X155611000Y-87781000D01*
X155613000Y-87783000D01*
X155615000Y-87785000D01*
X155617000Y-87787000D01*
X155619000Y-87789000D01*
X155621000Y-87790000D01*
X155623000Y-87792000D01*
X155625000Y-87793000D01*
X155627000Y-87795000D01*
X155630000Y-87796000D01*
X155632000Y-87797000D01*
X155635000Y-87798000D01*
X155637000Y-87798000D01*
X155640000Y-87799000D01*
X155642000Y-87799000D01*
X155645000Y-87800000D01*
X155647000Y-87800000D01*
X155650000Y-87800000D01*
X155950000Y-87800000D01*
X155953000Y-87800000D01*
X155955000Y-87800000D01*
X155958000Y-87801000D01*
X155960000Y-87801000D01*
X155963000Y-87802000D01*
X155965000Y-87802000D01*
X155968000Y-87803000D01*
X155970000Y-87804000D01*
X155973000Y-87805000D01*
X155975000Y-87807000D01*
X155977000Y-87808000D01*
X155979000Y-87810000D01*
X155981000Y-87811000D01*
X155983000Y-87813000D01*
X155985000Y-87815000D01*
X155987000Y-87817000D01*
X155989000Y-87819000D01*
X155990000Y-87821000D01*
X155992000Y-87823000D01*
X155993000Y-87825000D01*
X155995000Y-87827000D01*
X155996000Y-87830000D01*
X155997000Y-87832000D01*
X155998000Y-87835000D01*
X155998000Y-87837000D01*
X155999000Y-87840000D01*
X155999000Y-87842000D01*
X156000000Y-87845000D01*
X156000000Y-87847000D01*
X156000000Y-87850000D01*
X156000000Y-88000000D01*
X156000000Y-88003000D01*
X156000000Y-88005000D01*
X155999000Y-88008000D01*
X155999000Y-88010000D01*
X155998000Y-88013000D01*
X155998000Y-88015000D01*
X155997000Y-88018000D01*
X155996000Y-88020000D01*
X155995000Y-88023000D01*
X155993000Y-88025000D01*
X155992000Y-88027000D01*
X155990000Y-88029000D01*
X155989000Y-88031000D01*
X155987000Y-88033000D01*
X155985000Y-88035000D01*
X155983000Y-88037000D01*
X155981000Y-88039000D01*
X155979000Y-88040000D01*
X155977000Y-88042000D01*
X155975000Y-88043000D01*
X155973000Y-88045000D01*
X155970000Y-88046000D01*
X155968000Y-88047000D01*
X155965000Y-88048000D01*
X155963000Y-88048000D01*
X155960000Y-88049000D01*
X155958000Y-88049000D01*
X155955000Y-88050000D01*
X155953000Y-88050000D01*
X155950000Y-88050000D01*
X154850000Y-88050000D01*
X154847000Y-88050000D01*
X154845000Y-88050000D01*
X154842000Y-88049000D01*
X154840000Y-88049000D01*
X154837000Y-88048000D01*
X154835000Y-88048000D01*
X154832000Y-88047000D01*
X154830000Y-88046000D01*
X154827000Y-88045000D01*
X154825000Y-88043000D01*
X154823000Y-88042000D01*
X154821000Y-88040000D01*
X154819000Y-88039000D01*
X154817000Y-88037000D01*
X154815000Y-88035000D01*
X154813000Y-88033000D01*
X154811000Y-88031000D01*
X154810000Y-88029000D01*
X154808000Y-88027000D01*
X154807000Y-88025000D01*
X154805000Y-88023000D01*
X154804000Y-88020000D01*
X154803000Y-88018000D01*
X154802000Y-88015000D01*
X154802000Y-88013000D01*
X154801000Y-88010000D01*
X154801000Y-88008000D01*
X154800000Y-88005000D01*
X154800000Y-88003000D01*
X154800000Y-88000000D01*
X154800000Y-87350000D01*
X154800000Y-87347000D01*
X154800000Y-87345000D01*
X154801000Y-87342000D01*
X154801000Y-87340000D01*
X154802000Y-87337000D01*
X154802000Y-87335000D01*
X154803000Y-87332000D01*
X154804000Y-87330000D01*
X154805000Y-87327000D01*
X154807000Y-87325000D01*
X154808000Y-87323000D01*
X154810000Y-87321000D01*
X154811000Y-87319000D01*
X154813000Y-87317000D01*
X154815000Y-87315000D01*
X154817000Y-87313000D01*
X154819000Y-87311000D01*
X154821000Y-87310000D01*
X154823000Y-87308000D01*
X154825000Y-87307000D01*
X154827000Y-87305000D01*
X154830000Y-87304000D01*
X154832000Y-87303000D01*
X154835000Y-87302000D01*
X154837000Y-87302000D01*
X154840000Y-87301000D01*
X154842000Y-87301000D01*
X154845000Y-87300000D01*
X154847000Y-87300000D01*
X154850000Y-87300000D01*
X155950000Y-87300000D01*
X155953000Y-87300000D01*
X155955000Y-87300000D01*
X155958000Y-87301000D01*
G37*
X153658000Y-84401000D02*
X153660000Y-84401000D01*
X153663000Y-84402000D01*
X153665000Y-84402000D01*
X153668000Y-84403000D01*
X153670000Y-84404000D01*
X153673000Y-84405000D01*
X153675000Y-84407000D01*
X153677000Y-84408000D01*
X153679000Y-84410000D01*
X153681000Y-84411000D01*
X153683000Y-84413000D01*
X153685000Y-84415000D01*
X153687000Y-84417000D01*
X153689000Y-84419000D01*
X153690000Y-84421000D01*
X153692000Y-84423000D01*
X153693000Y-84425000D01*
X153695000Y-84427000D01*
X153696000Y-84430000D01*
X153697000Y-84432000D01*
X153698000Y-84435000D01*
X153698000Y-84437000D01*
X153699000Y-84440000D01*
X153699000Y-84442000D01*
X153700000Y-84445000D01*
X153700000Y-84447000D01*
X153700000Y-84450000D01*
X153700000Y-86275000D01*
X153700000Y-86278000D01*
X153700000Y-86280000D01*
X153699000Y-86283000D01*
X153699000Y-86285000D01*
X153698000Y-86288000D01*
X153698000Y-86290000D01*
X153697000Y-86293000D01*
X153696000Y-86295000D01*
X153695000Y-86298000D01*
X153693000Y-86300000D01*
X153692000Y-86302000D01*
X153690000Y-86304000D01*
X153689000Y-86306000D01*
X153687000Y-86308000D01*
X153685000Y-86310000D01*
X153683000Y-86312000D01*
X153681000Y-86314000D01*
X153679000Y-86315000D01*
X153677000Y-86317000D01*
X153675000Y-86318000D01*
X153673000Y-86320000D01*
X153670000Y-86321000D01*
X153668000Y-86322000D01*
X153665000Y-86323000D01*
X153663000Y-86323000D01*
X153660000Y-86324000D01*
X153658000Y-86324000D01*
X153655000Y-86325000D01*
X153653000Y-86325000D01*
X153650000Y-86325000D01*
X152750000Y-86325000D01*
X152747000Y-86325000D01*
X152745000Y-86325000D01*
X152742000Y-86324000D01*
X152740000Y-86324000D01*
X152737000Y-86323000D01*
X152735000Y-86323000D01*
X152732000Y-86322000D01*
X152730000Y-86321000D01*
X152727000Y-86320000D01*
X152725000Y-86318000D01*
X152723000Y-86317000D01*
X152721000Y-86315000D01*
X152719000Y-86314000D01*
X152717000Y-86312000D01*
X152715000Y-86310000D01*
X152713000Y-86308000D01*
X152711000Y-86306000D01*
X152710000Y-86304000D01*
X152708000Y-86302000D01*
X152707000Y-86300000D01*
X152705000Y-86298000D01*
X152704000Y-86295000D01*
X152703000Y-86293000D01*
X152702000Y-86290000D01*
X152702000Y-86288000D01*
X152701000Y-86285000D01*
X152701000Y-86283000D01*
X152700000Y-86280000D01*
X152700000Y-86278000D01*
X152700000Y-86275000D01*
X152700000Y-85960000D01*
X152700000Y-85957000D01*
X152700000Y-85955000D01*
X152699000Y-85952000D01*
X152699000Y-85950000D01*
X152698000Y-85947000D01*
X152698000Y-85945000D01*
X152697000Y-85942000D01*
X152696000Y-85940000D01*
X152695000Y-85937000D01*
X152693000Y-85935000D01*
X152692000Y-85933000D01*
X152690000Y-85931000D01*
X152689000Y-85929000D01*
X152687000Y-85927000D01*
X152685000Y-85925000D01*
X152683000Y-85923000D01*
X152681000Y-85921000D01*
X152679000Y-85920000D01*
X152677000Y-85918000D01*
X152675000Y-85917000D01*
X152673000Y-85915000D01*
X152670000Y-85914000D01*
X152668000Y-85913000D01*
X152665000Y-85912000D01*
X152663000Y-85912000D01*
X152660000Y-85911000D01*
X152658000Y-85911000D01*
X152655000Y-85910000D01*
X152653000Y-85910000D01*
X152650000Y-85910000D01*
X152350000Y-85910000D01*
X152347000Y-85910000D01*
X152345000Y-85910000D01*
X152342000Y-85909000D01*
X152340000Y-85909000D01*
X152337000Y-85908000D01*
X152335000Y-85908000D01*
X152332000Y-85907000D01*
X152330000Y-85906000D01*
X152327000Y-85905000D01*
X152325000Y-85903000D01*
X152323000Y-85902000D01*
X152321000Y-85900000D01*
X152319000Y-85899000D01*
X152317000Y-85897000D01*
X152315000Y-85895000D01*
X152313000Y-85893000D01*
X152311000Y-85891000D01*
X152310000Y-85889000D01*
X152308000Y-85887000D01*
X152307000Y-85885000D01*
X152305000Y-85883000D01*
X152304000Y-85880000D01*
X152303000Y-85878000D01*
X152302000Y-85875000D01*
X152302000Y-85873000D01*
X152301000Y-85870000D01*
X152301000Y-85868000D01*
X152300000Y-85865000D01*
X152300000Y-85863000D01*
X152300000Y-85860000D01*
X152300000Y-85710000D01*
X152300000Y-85707000D01*
X152300000Y-85705000D01*
X152301000Y-85702000D01*
X152301000Y-85700000D01*
X152302000Y-85697000D01*
X152302000Y-85695000D01*
X152303000Y-85692000D01*
X152304000Y-85690000D01*
X152305000Y-85687000D01*
X152307000Y-85685000D01*
X152308000Y-85683000D01*
X152310000Y-85681000D01*
X152311000Y-85679000D01*
X152313000Y-85677000D01*
X152315000Y-85675000D01*
X152317000Y-85673000D01*
X152319000Y-85671000D01*
X152321000Y-85670000D01*
X152323000Y-85668000D01*
X152325000Y-85667000D01*
X152327000Y-85665000D01*
X152330000Y-85664000D01*
X152332000Y-85663000D01*
X152335000Y-85662000D01*
X152337000Y-85662000D01*
X152340000Y-85661000D01*
X152342000Y-85661000D01*
X152345000Y-85660000D01*
X152347000Y-85660000D01*
X152350000Y-85660000D01*
X152650000Y-85660000D01*
X152653000Y-85660000D01*
X152655000Y-85660000D01*
X152658000Y-85659000D01*
X152660000Y-85659000D01*
X152663000Y-85658000D01*
X152665000Y-85658000D01*
X152668000Y-85657000D01*
X152670000Y-85656000D01*
X152673000Y-85655000D01*
X152675000Y-85653000D01*
X152677000Y-85652000D01*
X152679000Y-85650000D01*
X152681000Y-85649000D01*
X152683000Y-85647000D01*
X152685000Y-85645000D01*
X152687000Y-85643000D01*
X152689000Y-85641000D01*
X152690000Y-85639000D01*
X152692000Y-85637000D01*
X152693000Y-85635000D01*
X152695000Y-85633000D01*
X152696000Y-85630000D01*
X152697000Y-85628000D01*
X152698000Y-85625000D01*
X152698000Y-85623000D01*
X152699000Y-85620000D01*
X152699000Y-85618000D01*
X152700000Y-85615000D01*
X152700000Y-85613000D01*
X152700000Y-85610000D01*
X152700000Y-85460000D01*
X152700000Y-85457000D01*
X152700000Y-85455000D01*
X152699000Y-85452000D01*
X152699000Y-85450000D01*
X152698000Y-85447000D01*
X152698000Y-85445000D01*
X152697000Y-85442000D01*
X152696000Y-85440000D01*
X152695000Y-85437000D01*
X152693000Y-85435000D01*
X152692000Y-85433000D01*
X152690000Y-85431000D01*
X152689000Y-85429000D01*
X152687000Y-85427000D01*
X152685000Y-85425000D01*
X152683000Y-85423000D01*
X152681000Y-85421000D01*
X152679000Y-85420000D01*
X152677000Y-85418000D01*
X152675000Y-85417000D01*
X152673000Y-85415000D01*
X152670000Y-85414000D01*
X152668000Y-85413000D01*
X152665000Y-85412000D01*
X152663000Y-85412000D01*
X152660000Y-85411000D01*
X152658000Y-85411000D01*
X152655000Y-85410000D01*
X152653000Y-85410000D01*
X152650000Y-85410000D01*
X152350000Y-85410000D01*
X152347000Y-85410000D01*
X152345000Y-85410000D01*
X152342000Y-85409000D01*
X152340000Y-85409000D01*
X152337000Y-85408000D01*
X152335000Y-85408000D01*
X152332000Y-85407000D01*
X152330000Y-85406000D01*
X152327000Y-85405000D01*
X152325000Y-85403000D01*
X152323000Y-85402000D01*
X152321000Y-85400000D01*
X152319000Y-85399000D01*
X152317000Y-85397000D01*
X152315000Y-85395000D01*
X152313000Y-85393000D01*
X152311000Y-85391000D01*
X152310000Y-85389000D01*
X152308000Y-85387000D01*
X152307000Y-85385000D01*
X152305000Y-85383000D01*
X152304000Y-85380000D01*
X152303000Y-85378000D01*
X152302000Y-85375000D01*
X152302000Y-85373000D01*
X152301000Y-85370000D01*
X152301000Y-85368000D01*
X152300000Y-85365000D01*
X152300000Y-85363000D01*
X152300000Y-85360000D01*
X152300000Y-85210000D01*
X152300000Y-85207000D01*
X152300000Y-85205000D01*
X152301000Y-85202000D01*
X152301000Y-85200000D01*
X152302000Y-85197000D01*
X152302000Y-85195000D01*
X152303000Y-85192000D01*
X152304000Y-85190000D01*
X152305000Y-85187000D01*
X152307000Y-85185000D01*
X152308000Y-85183000D01*
X152310000Y-85181000D01*
X152311000Y-85179000D01*
X152313000Y-85177000D01*
X152315000Y-85175000D01*
X152317000Y-85173000D01*
X152319000Y-85171000D01*
X152321000Y-85170000D01*
X152323000Y-85168000D01*
X152325000Y-85167000D01*
X152327000Y-85165000D01*
X152330000Y-85164000D01*
X152332000Y-85163000D01*
X152335000Y-85162000D01*
X152337000Y-85162000D01*
X152340000Y-85161000D01*
X152342000Y-85161000D01*
X152345000Y-85160000D01*
X152347000Y-85160000D01*
X152350000Y-85160000D01*
X152650000Y-85160000D01*
X152653000Y-85160000D01*
X152655000Y-85160000D01*
X152658000Y-85159000D01*
X152660000Y-85159000D01*
X152663000Y-85158000D01*
X152665000Y-85158000D01*
X152668000Y-85157000D01*
X152670000Y-85156000D01*
X152673000Y-85155000D01*
X152675000Y-85153000D01*
X152677000Y-85152000D01*
X152679000Y-85150000D01*
X152681000Y-85149000D01*
X152683000Y-85147000D01*
X152685000Y-85145000D01*
X152687000Y-85143000D01*
X152689000Y-85141000D01*
X152690000Y-85139000D01*
X152692000Y-85137000D01*
X152693000Y-85135000D01*
X152695000Y-85133000D01*
X152696000Y-85130000D01*
X152697000Y-85128000D01*
X152698000Y-85125000D01*
X152698000Y-85123000D01*
X152699000Y-85120000D01*
X152699000Y-85118000D01*
X152700000Y-85115000D01*
X152700000Y-85113000D01*
X152700000Y-85110000D01*
X152700000Y-84960000D01*
X152700000Y-84957000D01*
X152700000Y-84955000D01*
X152699000Y-84952000D01*
X152699000Y-84950000D01*
X152698000Y-84947000D01*
X152698000Y-84945000D01*
X152697000Y-84942000D01*
X152696000Y-84940000D01*
X152695000Y-84937000D01*
X152693000Y-84935000D01*
X152692000Y-84933000D01*
X152690000Y-84931000D01*
X152689000Y-84929000D01*
X152687000Y-84927000D01*
X152685000Y-84925000D01*
X152683000Y-84923000D01*
X152681000Y-84921000D01*
X152679000Y-84920000D01*
X152677000Y-84918000D01*
X152675000Y-84917000D01*
X152673000Y-84915000D01*
X152670000Y-84914000D01*
X152668000Y-84913000D01*
X152665000Y-84912000D01*
X152663000Y-84912000D01*
X152660000Y-84911000D01*
X152658000Y-84911000D01*
X152655000Y-84910000D01*
X152653000Y-84910000D01*
X152650000Y-84910000D01*
X152350000Y-84910000D01*
X152347000Y-84910000D01*
X152345000Y-84910000D01*
X152342000Y-84909000D01*
X152340000Y-84909000D01*
X152337000Y-84908000D01*
X152335000Y-84908000D01*
X152332000Y-84907000D01*
X152330000Y-84906000D01*
X152327000Y-84905000D01*
X152325000Y-84903000D01*
X152323000Y-84902000D01*
X152321000Y-84900000D01*
X152319000Y-84899000D01*
X152317000Y-84897000D01*
X152315000Y-84895000D01*
X152313000Y-84893000D01*
X152311000Y-84891000D01*
X152310000Y-84889000D01*
X152308000Y-84887000D01*
X152307000Y-84885000D01*
X152305000Y-84883000D01*
X152304000Y-84880000D01*
X152303000Y-84878000D01*
X152302000Y-84875000D01*
X152302000Y-84873000D01*
X152301000Y-84870000D01*
X152301000Y-84868000D01*
X152300000Y-84865000D01*
X152300000Y-84863000D01*
X152300000Y-84860000D01*
X152300000Y-84710000D01*
X152300000Y-84707000D01*
X152300000Y-84705000D01*
X152301000Y-84702000D01*
X152301000Y-84700000D01*
X152302000Y-84697000D01*
X152302000Y-84695000D01*
X152303000Y-84692000D01*
X152304000Y-84690000D01*
X152305000Y-84687000D01*
X152307000Y-84685000D01*
X152308000Y-84683000D01*
X152310000Y-84681000D01*
X152311000Y-84679000D01*
X152313000Y-84677000D01*
X152315000Y-84675000D01*
X152317000Y-84673000D01*
X152319000Y-84671000D01*
X152321000Y-84670000D01*
X152323000Y-84668000D01*
X152325000Y-84667000D01*
X152327000Y-84665000D01*
X152330000Y-84664000D01*
X152332000Y-84663000D01*
X152335000Y-84662000D01*
X152337000Y-84662000D01*
X152340000Y-84661000D01*
X152342000Y-84661000D01*
X152345000Y-84660000D01*
X152347000Y-84660000D01*
X152350000Y-84660000D01*
X152650000Y-84660000D01*
X152653000Y-84660000D01*
X152655000Y-84660000D01*
X152658000Y-84659000D01*
X152660000Y-84659000D01*
X152663000Y-84658000D01*
X152665000Y-84658000D01*
X152668000Y-84657000D01*
X152670000Y-84656000D01*
X152673000Y-84655000D01*
X152675000Y-84653000D01*
X152677000Y-84652000D01*
X152679000Y-84650000D01*
X152681000Y-84649000D01*
X152683000Y-84647000D01*
X152685000Y-84645000D01*
X152687000Y-84643000D01*
X152689000Y-84641000D01*
X152690000Y-84639000D01*
X152692000Y-84637000D01*
X152693000Y-84635000D01*
X152695000Y-84633000D01*
X152696000Y-84630000D01*
X152697000Y-84628000D01*
X152698000Y-84625000D01*
X152698000Y-84623000D01*
X152699000Y-84620000D01*
X152699000Y-84618000D01*
X152700000Y-84615000D01*
X152700000Y-84613000D01*
X152700000Y-84610000D01*
X152700000Y-84450000D01*
X152700000Y-84447000D01*
X152700000Y-84445000D01*
X152701000Y-84442000D01*
X152701000Y-84440000D01*
X152702000Y-84437000D01*
X152702000Y-84435000D01*
X152703000Y-84432000D01*
X152704000Y-84430000D01*
X152705000Y-84427000D01*
X152707000Y-84425000D01*
X152708000Y-84423000D01*
X152710000Y-84421000D01*
X152711000Y-84419000D01*
X152713000Y-84417000D01*
X152715000Y-84415000D01*
X152717000Y-84413000D01*
X152719000Y-84411000D01*
X152721000Y-84410000D01*
X152723000Y-84408000D01*
X152725000Y-84407000D01*
X152727000Y-84405000D01*
X152730000Y-84404000D01*
X152732000Y-84403000D01*
X152735000Y-84402000D01*
X152737000Y-84402000D01*
X152740000Y-84401000D01*
X152742000Y-84401000D01*
X152745000Y-84400000D01*
X152747000Y-84400000D01*
X152750000Y-84400000D01*
X153650000Y-84400000D01*
X153653000Y-84400000D01*
X153655000Y-84400000D01*
X153658000Y-84401000D01*
G36*
X153658000Y-84401000D02*
G01*
X153660000Y-84401000D01*
X153663000Y-84402000D01*
X153665000Y-84402000D01*
X153668000Y-84403000D01*
X153670000Y-84404000D01*
X153673000Y-84405000D01*
X153675000Y-84407000D01*
X153677000Y-84408000D01*
X153679000Y-84410000D01*
X153681000Y-84411000D01*
X153683000Y-84413000D01*
X153685000Y-84415000D01*
X153687000Y-84417000D01*
X153689000Y-84419000D01*
X153690000Y-84421000D01*
X153692000Y-84423000D01*
X153693000Y-84425000D01*
X153695000Y-84427000D01*
X153696000Y-84430000D01*
X153697000Y-84432000D01*
X153698000Y-84435000D01*
X153698000Y-84437000D01*
X153699000Y-84440000D01*
X153699000Y-84442000D01*
X153700000Y-84445000D01*
X153700000Y-84447000D01*
X153700000Y-84450000D01*
X153700000Y-86275000D01*
X153700000Y-86278000D01*
X153700000Y-86280000D01*
X153699000Y-86283000D01*
X153699000Y-86285000D01*
X153698000Y-86288000D01*
X153698000Y-86290000D01*
X153697000Y-86293000D01*
X153696000Y-86295000D01*
X153695000Y-86298000D01*
X153693000Y-86300000D01*
X153692000Y-86302000D01*
X153690000Y-86304000D01*
X153689000Y-86306000D01*
X153687000Y-86308000D01*
X153685000Y-86310000D01*
X153683000Y-86312000D01*
X153681000Y-86314000D01*
X153679000Y-86315000D01*
X153677000Y-86317000D01*
X153675000Y-86318000D01*
X153673000Y-86320000D01*
X153670000Y-86321000D01*
X153668000Y-86322000D01*
X153665000Y-86323000D01*
X153663000Y-86323000D01*
X153660000Y-86324000D01*
X153658000Y-86324000D01*
X153655000Y-86325000D01*
X153653000Y-86325000D01*
X153650000Y-86325000D01*
X152750000Y-86325000D01*
X152747000Y-86325000D01*
X152745000Y-86325000D01*
X152742000Y-86324000D01*
X152740000Y-86324000D01*
X152737000Y-86323000D01*
X152735000Y-86323000D01*
X152732000Y-86322000D01*
X152730000Y-86321000D01*
X152727000Y-86320000D01*
X152725000Y-86318000D01*
X152723000Y-86317000D01*
X152721000Y-86315000D01*
X152719000Y-86314000D01*
X152717000Y-86312000D01*
X152715000Y-86310000D01*
X152713000Y-86308000D01*
X152711000Y-86306000D01*
X152710000Y-86304000D01*
X152708000Y-86302000D01*
X152707000Y-86300000D01*
X152705000Y-86298000D01*
X152704000Y-86295000D01*
X152703000Y-86293000D01*
X152702000Y-86290000D01*
X152702000Y-86288000D01*
X152701000Y-86285000D01*
X152701000Y-86283000D01*
X152700000Y-86280000D01*
X152700000Y-86278000D01*
X152700000Y-86275000D01*
X152700000Y-85960000D01*
X152700000Y-85957000D01*
X152700000Y-85955000D01*
X152699000Y-85952000D01*
X152699000Y-85950000D01*
X152698000Y-85947000D01*
X152698000Y-85945000D01*
X152697000Y-85942000D01*
X152696000Y-85940000D01*
X152695000Y-85937000D01*
X152693000Y-85935000D01*
X152692000Y-85933000D01*
X152690000Y-85931000D01*
X152689000Y-85929000D01*
X152687000Y-85927000D01*
X152685000Y-85925000D01*
X152683000Y-85923000D01*
X152681000Y-85921000D01*
X152679000Y-85920000D01*
X152677000Y-85918000D01*
X152675000Y-85917000D01*
X152673000Y-85915000D01*
X152670000Y-85914000D01*
X152668000Y-85913000D01*
X152665000Y-85912000D01*
X152663000Y-85912000D01*
X152660000Y-85911000D01*
X152658000Y-85911000D01*
X152655000Y-85910000D01*
X152653000Y-85910000D01*
X152650000Y-85910000D01*
X152350000Y-85910000D01*
X152347000Y-85910000D01*
X152345000Y-85910000D01*
X152342000Y-85909000D01*
X152340000Y-85909000D01*
X152337000Y-85908000D01*
X152335000Y-85908000D01*
X152332000Y-85907000D01*
X152330000Y-85906000D01*
X152327000Y-85905000D01*
X152325000Y-85903000D01*
X152323000Y-85902000D01*
X152321000Y-85900000D01*
X152319000Y-85899000D01*
X152317000Y-85897000D01*
X152315000Y-85895000D01*
X152313000Y-85893000D01*
X152311000Y-85891000D01*
X152310000Y-85889000D01*
X152308000Y-85887000D01*
X152307000Y-85885000D01*
X152305000Y-85883000D01*
X152304000Y-85880000D01*
X152303000Y-85878000D01*
X152302000Y-85875000D01*
X152302000Y-85873000D01*
X152301000Y-85870000D01*
X152301000Y-85868000D01*
X152300000Y-85865000D01*
X152300000Y-85863000D01*
X152300000Y-85860000D01*
X152300000Y-85710000D01*
X152300000Y-85707000D01*
X152300000Y-85705000D01*
X152301000Y-85702000D01*
X152301000Y-85700000D01*
X152302000Y-85697000D01*
X152302000Y-85695000D01*
X152303000Y-85692000D01*
X152304000Y-85690000D01*
X152305000Y-85687000D01*
X152307000Y-85685000D01*
X152308000Y-85683000D01*
X152310000Y-85681000D01*
X152311000Y-85679000D01*
X152313000Y-85677000D01*
X152315000Y-85675000D01*
X152317000Y-85673000D01*
X152319000Y-85671000D01*
X152321000Y-85670000D01*
X152323000Y-85668000D01*
X152325000Y-85667000D01*
X152327000Y-85665000D01*
X152330000Y-85664000D01*
X152332000Y-85663000D01*
X152335000Y-85662000D01*
X152337000Y-85662000D01*
X152340000Y-85661000D01*
X152342000Y-85661000D01*
X152345000Y-85660000D01*
X152347000Y-85660000D01*
X152350000Y-85660000D01*
X152650000Y-85660000D01*
X152653000Y-85660000D01*
X152655000Y-85660000D01*
X152658000Y-85659000D01*
X152660000Y-85659000D01*
X152663000Y-85658000D01*
X152665000Y-85658000D01*
X152668000Y-85657000D01*
X152670000Y-85656000D01*
X152673000Y-85655000D01*
X152675000Y-85653000D01*
X152677000Y-85652000D01*
X152679000Y-85650000D01*
X152681000Y-85649000D01*
X152683000Y-85647000D01*
X152685000Y-85645000D01*
X152687000Y-85643000D01*
X152689000Y-85641000D01*
X152690000Y-85639000D01*
X152692000Y-85637000D01*
X152693000Y-85635000D01*
X152695000Y-85633000D01*
X152696000Y-85630000D01*
X152697000Y-85628000D01*
X152698000Y-85625000D01*
X152698000Y-85623000D01*
X152699000Y-85620000D01*
X152699000Y-85618000D01*
X152700000Y-85615000D01*
X152700000Y-85613000D01*
X152700000Y-85610000D01*
X152700000Y-85460000D01*
X152700000Y-85457000D01*
X152700000Y-85455000D01*
X152699000Y-85452000D01*
X152699000Y-85450000D01*
X152698000Y-85447000D01*
X152698000Y-85445000D01*
X152697000Y-85442000D01*
X152696000Y-85440000D01*
X152695000Y-85437000D01*
X152693000Y-85435000D01*
X152692000Y-85433000D01*
X152690000Y-85431000D01*
X152689000Y-85429000D01*
X152687000Y-85427000D01*
X152685000Y-85425000D01*
X152683000Y-85423000D01*
X152681000Y-85421000D01*
X152679000Y-85420000D01*
X152677000Y-85418000D01*
X152675000Y-85417000D01*
X152673000Y-85415000D01*
X152670000Y-85414000D01*
X152668000Y-85413000D01*
X152665000Y-85412000D01*
X152663000Y-85412000D01*
X152660000Y-85411000D01*
X152658000Y-85411000D01*
X152655000Y-85410000D01*
X152653000Y-85410000D01*
X152650000Y-85410000D01*
X152350000Y-85410000D01*
X152347000Y-85410000D01*
X152345000Y-85410000D01*
X152342000Y-85409000D01*
X152340000Y-85409000D01*
X152337000Y-85408000D01*
X152335000Y-85408000D01*
X152332000Y-85407000D01*
X152330000Y-85406000D01*
X152327000Y-85405000D01*
X152325000Y-85403000D01*
X152323000Y-85402000D01*
X152321000Y-85400000D01*
X152319000Y-85399000D01*
X152317000Y-85397000D01*
X152315000Y-85395000D01*
X152313000Y-85393000D01*
X152311000Y-85391000D01*
X152310000Y-85389000D01*
X152308000Y-85387000D01*
X152307000Y-85385000D01*
X152305000Y-85383000D01*
X152304000Y-85380000D01*
X152303000Y-85378000D01*
X152302000Y-85375000D01*
X152302000Y-85373000D01*
X152301000Y-85370000D01*
X152301000Y-85368000D01*
X152300000Y-85365000D01*
X152300000Y-85363000D01*
X152300000Y-85360000D01*
X152300000Y-85210000D01*
X152300000Y-85207000D01*
X152300000Y-85205000D01*
X152301000Y-85202000D01*
X152301000Y-85200000D01*
X152302000Y-85197000D01*
X152302000Y-85195000D01*
X152303000Y-85192000D01*
X152304000Y-85190000D01*
X152305000Y-85187000D01*
X152307000Y-85185000D01*
X152308000Y-85183000D01*
X152310000Y-85181000D01*
X152311000Y-85179000D01*
X152313000Y-85177000D01*
X152315000Y-85175000D01*
X152317000Y-85173000D01*
X152319000Y-85171000D01*
X152321000Y-85170000D01*
X152323000Y-85168000D01*
X152325000Y-85167000D01*
X152327000Y-85165000D01*
X152330000Y-85164000D01*
X152332000Y-85163000D01*
X152335000Y-85162000D01*
X152337000Y-85162000D01*
X152340000Y-85161000D01*
X152342000Y-85161000D01*
X152345000Y-85160000D01*
X152347000Y-85160000D01*
X152350000Y-85160000D01*
X152650000Y-85160000D01*
X152653000Y-85160000D01*
X152655000Y-85160000D01*
X152658000Y-85159000D01*
X152660000Y-85159000D01*
X152663000Y-85158000D01*
X152665000Y-85158000D01*
X152668000Y-85157000D01*
X152670000Y-85156000D01*
X152673000Y-85155000D01*
X152675000Y-85153000D01*
X152677000Y-85152000D01*
X152679000Y-85150000D01*
X152681000Y-85149000D01*
X152683000Y-85147000D01*
X152685000Y-85145000D01*
X152687000Y-85143000D01*
X152689000Y-85141000D01*
X152690000Y-85139000D01*
X152692000Y-85137000D01*
X152693000Y-85135000D01*
X152695000Y-85133000D01*
X152696000Y-85130000D01*
X152697000Y-85128000D01*
X152698000Y-85125000D01*
X152698000Y-85123000D01*
X152699000Y-85120000D01*
X152699000Y-85118000D01*
X152700000Y-85115000D01*
X152700000Y-85113000D01*
X152700000Y-85110000D01*
X152700000Y-84960000D01*
X152700000Y-84957000D01*
X152700000Y-84955000D01*
X152699000Y-84952000D01*
X152699000Y-84950000D01*
X152698000Y-84947000D01*
X152698000Y-84945000D01*
X152697000Y-84942000D01*
X152696000Y-84940000D01*
X152695000Y-84937000D01*
X152693000Y-84935000D01*
X152692000Y-84933000D01*
X152690000Y-84931000D01*
X152689000Y-84929000D01*
X152687000Y-84927000D01*
X152685000Y-84925000D01*
X152683000Y-84923000D01*
X152681000Y-84921000D01*
X152679000Y-84920000D01*
X152677000Y-84918000D01*
X152675000Y-84917000D01*
X152673000Y-84915000D01*
X152670000Y-84914000D01*
X152668000Y-84913000D01*
X152665000Y-84912000D01*
X152663000Y-84912000D01*
X152660000Y-84911000D01*
X152658000Y-84911000D01*
X152655000Y-84910000D01*
X152653000Y-84910000D01*
X152650000Y-84910000D01*
X152350000Y-84910000D01*
X152347000Y-84910000D01*
X152345000Y-84910000D01*
X152342000Y-84909000D01*
X152340000Y-84909000D01*
X152337000Y-84908000D01*
X152335000Y-84908000D01*
X152332000Y-84907000D01*
X152330000Y-84906000D01*
X152327000Y-84905000D01*
X152325000Y-84903000D01*
X152323000Y-84902000D01*
X152321000Y-84900000D01*
X152319000Y-84899000D01*
X152317000Y-84897000D01*
X152315000Y-84895000D01*
X152313000Y-84893000D01*
X152311000Y-84891000D01*
X152310000Y-84889000D01*
X152308000Y-84887000D01*
X152307000Y-84885000D01*
X152305000Y-84883000D01*
X152304000Y-84880000D01*
X152303000Y-84878000D01*
X152302000Y-84875000D01*
X152302000Y-84873000D01*
X152301000Y-84870000D01*
X152301000Y-84868000D01*
X152300000Y-84865000D01*
X152300000Y-84863000D01*
X152300000Y-84860000D01*
X152300000Y-84710000D01*
X152300000Y-84707000D01*
X152300000Y-84705000D01*
X152301000Y-84702000D01*
X152301000Y-84700000D01*
X152302000Y-84697000D01*
X152302000Y-84695000D01*
X152303000Y-84692000D01*
X152304000Y-84690000D01*
X152305000Y-84687000D01*
X152307000Y-84685000D01*
X152308000Y-84683000D01*
X152310000Y-84681000D01*
X152311000Y-84679000D01*
X152313000Y-84677000D01*
X152315000Y-84675000D01*
X152317000Y-84673000D01*
X152319000Y-84671000D01*
X152321000Y-84670000D01*
X152323000Y-84668000D01*
X152325000Y-84667000D01*
X152327000Y-84665000D01*
X152330000Y-84664000D01*
X152332000Y-84663000D01*
X152335000Y-84662000D01*
X152337000Y-84662000D01*
X152340000Y-84661000D01*
X152342000Y-84661000D01*
X152345000Y-84660000D01*
X152347000Y-84660000D01*
X152350000Y-84660000D01*
X152650000Y-84660000D01*
X152653000Y-84660000D01*
X152655000Y-84660000D01*
X152658000Y-84659000D01*
X152660000Y-84659000D01*
X152663000Y-84658000D01*
X152665000Y-84658000D01*
X152668000Y-84657000D01*
X152670000Y-84656000D01*
X152673000Y-84655000D01*
X152675000Y-84653000D01*
X152677000Y-84652000D01*
X152679000Y-84650000D01*
X152681000Y-84649000D01*
X152683000Y-84647000D01*
X152685000Y-84645000D01*
X152687000Y-84643000D01*
X152689000Y-84641000D01*
X152690000Y-84639000D01*
X152692000Y-84637000D01*
X152693000Y-84635000D01*
X152695000Y-84633000D01*
X152696000Y-84630000D01*
X152697000Y-84628000D01*
X152698000Y-84625000D01*
X152698000Y-84623000D01*
X152699000Y-84620000D01*
X152699000Y-84618000D01*
X152700000Y-84615000D01*
X152700000Y-84613000D01*
X152700000Y-84610000D01*
X152700000Y-84450000D01*
X152700000Y-84447000D01*
X152700000Y-84445000D01*
X152701000Y-84442000D01*
X152701000Y-84440000D01*
X152702000Y-84437000D01*
X152702000Y-84435000D01*
X152703000Y-84432000D01*
X152704000Y-84430000D01*
X152705000Y-84427000D01*
X152707000Y-84425000D01*
X152708000Y-84423000D01*
X152710000Y-84421000D01*
X152711000Y-84419000D01*
X152713000Y-84417000D01*
X152715000Y-84415000D01*
X152717000Y-84413000D01*
X152719000Y-84411000D01*
X152721000Y-84410000D01*
X152723000Y-84408000D01*
X152725000Y-84407000D01*
X152727000Y-84405000D01*
X152730000Y-84404000D01*
X152732000Y-84403000D01*
X152735000Y-84402000D01*
X152737000Y-84402000D01*
X152740000Y-84401000D01*
X152742000Y-84401000D01*
X152745000Y-84400000D01*
X152747000Y-84400000D01*
X152750000Y-84400000D01*
X153650000Y-84400000D01*
X153653000Y-84400000D01*
X153655000Y-84400000D01*
X153658000Y-84401000D01*
G37*
X155558000Y-84401000D02*
X155560000Y-84401000D01*
X155563000Y-84402000D01*
X155565000Y-84402000D01*
X155568000Y-84403000D01*
X155570000Y-84404000D01*
X155573000Y-84405000D01*
X155575000Y-84407000D01*
X155577000Y-84408000D01*
X155579000Y-84410000D01*
X155581000Y-84411000D01*
X155583000Y-84413000D01*
X155585000Y-84415000D01*
X155587000Y-84417000D01*
X155589000Y-84419000D01*
X155590000Y-84421000D01*
X155592000Y-84423000D01*
X155593000Y-84425000D01*
X155595000Y-84427000D01*
X155596000Y-84430000D01*
X155597000Y-84432000D01*
X155598000Y-84435000D01*
X155598000Y-84437000D01*
X155599000Y-84440000D01*
X155599000Y-84442000D01*
X155600000Y-84445000D01*
X155600000Y-84447000D01*
X155600000Y-84450000D01*
X155600000Y-84610000D01*
X155600000Y-84613000D01*
X155600000Y-84615000D01*
X155601000Y-84618000D01*
X155601000Y-84620000D01*
X155602000Y-84623000D01*
X155602000Y-84625000D01*
X155603000Y-84628000D01*
X155604000Y-84630000D01*
X155605000Y-84633000D01*
X155607000Y-84635000D01*
X155608000Y-84637000D01*
X155610000Y-84639000D01*
X155611000Y-84641000D01*
X155613000Y-84643000D01*
X155615000Y-84645000D01*
X155617000Y-84647000D01*
X155619000Y-84649000D01*
X155621000Y-84650000D01*
X155623000Y-84652000D01*
X155625000Y-84653000D01*
X155627000Y-84655000D01*
X155630000Y-84656000D01*
X155632000Y-84657000D01*
X155635000Y-84658000D01*
X155637000Y-84658000D01*
X155640000Y-84659000D01*
X155642000Y-84659000D01*
X155645000Y-84660000D01*
X155647000Y-84660000D01*
X155650000Y-84660000D01*
X155950000Y-84660000D01*
X155953000Y-84660000D01*
X155955000Y-84660000D01*
X155958000Y-84661000D01*
X155960000Y-84661000D01*
X155963000Y-84662000D01*
X155965000Y-84662000D01*
X155968000Y-84663000D01*
X155970000Y-84664000D01*
X155973000Y-84665000D01*
X155975000Y-84667000D01*
X155977000Y-84668000D01*
X155979000Y-84670000D01*
X155981000Y-84671000D01*
X155983000Y-84673000D01*
X155985000Y-84675000D01*
X155987000Y-84677000D01*
X155989000Y-84679000D01*
X155990000Y-84681000D01*
X155992000Y-84683000D01*
X155993000Y-84685000D01*
X155995000Y-84687000D01*
X155996000Y-84690000D01*
X155997000Y-84692000D01*
X155998000Y-84695000D01*
X155998000Y-84697000D01*
X155999000Y-84700000D01*
X155999000Y-84702000D01*
X156000000Y-84705000D01*
X156000000Y-84707000D01*
X156000000Y-84710000D01*
X156000000Y-84860000D01*
X156000000Y-84863000D01*
X156000000Y-84865000D01*
X155999000Y-84868000D01*
X155999000Y-84870000D01*
X155998000Y-84873000D01*
X155998000Y-84875000D01*
X155997000Y-84878000D01*
X155996000Y-84880000D01*
X155995000Y-84883000D01*
X155993000Y-84885000D01*
X155992000Y-84887000D01*
X155990000Y-84889000D01*
X155989000Y-84891000D01*
X155987000Y-84893000D01*
X155985000Y-84895000D01*
X155983000Y-84897000D01*
X155981000Y-84899000D01*
X155979000Y-84900000D01*
X155977000Y-84902000D01*
X155975000Y-84903000D01*
X155973000Y-84905000D01*
X155970000Y-84906000D01*
X155968000Y-84907000D01*
X155965000Y-84908000D01*
X155963000Y-84908000D01*
X155960000Y-84909000D01*
X155958000Y-84909000D01*
X155955000Y-84910000D01*
X155953000Y-84910000D01*
X155950000Y-84910000D01*
X155650000Y-84910000D01*
X155647000Y-84910000D01*
X155645000Y-84910000D01*
X155642000Y-84911000D01*
X155640000Y-84911000D01*
X155637000Y-84912000D01*
X155635000Y-84912000D01*
X155632000Y-84913000D01*
X155630000Y-84914000D01*
X155627000Y-84915000D01*
X155625000Y-84917000D01*
X155623000Y-84918000D01*
X155621000Y-84920000D01*
X155619000Y-84921000D01*
X155617000Y-84923000D01*
X155615000Y-84925000D01*
X155613000Y-84927000D01*
X155611000Y-84929000D01*
X155610000Y-84931000D01*
X155608000Y-84933000D01*
X155607000Y-84935000D01*
X155605000Y-84937000D01*
X155604000Y-84940000D01*
X155603000Y-84942000D01*
X155602000Y-84945000D01*
X155602000Y-84947000D01*
X155601000Y-84950000D01*
X155601000Y-84952000D01*
X155600000Y-84955000D01*
X155600000Y-84957000D01*
X155600000Y-84960000D01*
X155600000Y-85110000D01*
X155600000Y-85113000D01*
X155600000Y-85115000D01*
X155601000Y-85118000D01*
X155601000Y-85120000D01*
X155602000Y-85123000D01*
X155602000Y-85125000D01*
X155603000Y-85128000D01*
X155604000Y-85130000D01*
X155605000Y-85133000D01*
X155607000Y-85135000D01*
X155608000Y-85137000D01*
X155610000Y-85139000D01*
X155611000Y-85141000D01*
X155613000Y-85143000D01*
X155615000Y-85145000D01*
X155617000Y-85147000D01*
X155619000Y-85149000D01*
X155621000Y-85150000D01*
X155623000Y-85152000D01*
X155625000Y-85153000D01*
X155627000Y-85155000D01*
X155630000Y-85156000D01*
X155632000Y-85157000D01*
X155635000Y-85158000D01*
X155637000Y-85158000D01*
X155640000Y-85159000D01*
X155642000Y-85159000D01*
X155645000Y-85160000D01*
X155647000Y-85160000D01*
X155650000Y-85160000D01*
X155950000Y-85160000D01*
X155953000Y-85160000D01*
X155955000Y-85160000D01*
X155958000Y-85161000D01*
X155960000Y-85161000D01*
X155963000Y-85162000D01*
X155965000Y-85162000D01*
X155968000Y-85163000D01*
X155970000Y-85164000D01*
X155973000Y-85165000D01*
X155975000Y-85167000D01*
X155977000Y-85168000D01*
X155979000Y-85170000D01*
X155981000Y-85171000D01*
X155983000Y-85173000D01*
X155985000Y-85175000D01*
X155987000Y-85177000D01*
X155989000Y-85179000D01*
X155990000Y-85181000D01*
X155992000Y-85183000D01*
X155993000Y-85185000D01*
X155995000Y-85187000D01*
X155996000Y-85190000D01*
X155997000Y-85192000D01*
X155998000Y-85195000D01*
X155998000Y-85197000D01*
X155999000Y-85200000D01*
X155999000Y-85202000D01*
X156000000Y-85205000D01*
X156000000Y-85207000D01*
X156000000Y-85210000D01*
X156000000Y-85360000D01*
X156000000Y-85363000D01*
X156000000Y-85365000D01*
X155999000Y-85368000D01*
X155999000Y-85370000D01*
X155998000Y-85373000D01*
X155998000Y-85375000D01*
X155997000Y-85378000D01*
X155996000Y-85380000D01*
X155995000Y-85383000D01*
X155993000Y-85385000D01*
X155992000Y-85387000D01*
X155990000Y-85389000D01*
X155989000Y-85391000D01*
X155987000Y-85393000D01*
X155985000Y-85395000D01*
X155983000Y-85397000D01*
X155981000Y-85399000D01*
X155979000Y-85400000D01*
X155977000Y-85402000D01*
X155975000Y-85403000D01*
X155973000Y-85405000D01*
X155970000Y-85406000D01*
X155968000Y-85407000D01*
X155965000Y-85408000D01*
X155963000Y-85408000D01*
X155960000Y-85409000D01*
X155958000Y-85409000D01*
X155955000Y-85410000D01*
X155953000Y-85410000D01*
X155950000Y-85410000D01*
X155650000Y-85410000D01*
X155647000Y-85410000D01*
X155645000Y-85410000D01*
X155642000Y-85411000D01*
X155640000Y-85411000D01*
X155637000Y-85412000D01*
X155635000Y-85412000D01*
X155632000Y-85413000D01*
X155630000Y-85414000D01*
X155627000Y-85415000D01*
X155625000Y-85417000D01*
X155623000Y-85418000D01*
X155621000Y-85420000D01*
X155619000Y-85421000D01*
X155617000Y-85423000D01*
X155615000Y-85425000D01*
X155613000Y-85427000D01*
X155611000Y-85429000D01*
X155610000Y-85431000D01*
X155608000Y-85433000D01*
X155607000Y-85435000D01*
X155605000Y-85437000D01*
X155604000Y-85440000D01*
X155603000Y-85442000D01*
X155602000Y-85445000D01*
X155602000Y-85447000D01*
X155601000Y-85450000D01*
X155601000Y-85452000D01*
X155600000Y-85455000D01*
X155600000Y-85457000D01*
X155600000Y-85460000D01*
X155600000Y-85610000D01*
X155600000Y-85613000D01*
X155600000Y-85615000D01*
X155601000Y-85618000D01*
X155601000Y-85620000D01*
X155602000Y-85623000D01*
X155602000Y-85625000D01*
X155603000Y-85628000D01*
X155604000Y-85630000D01*
X155605000Y-85633000D01*
X155607000Y-85635000D01*
X155608000Y-85637000D01*
X155610000Y-85639000D01*
X155611000Y-85641000D01*
X155613000Y-85643000D01*
X155615000Y-85645000D01*
X155617000Y-85647000D01*
X155619000Y-85649000D01*
X155621000Y-85650000D01*
X155623000Y-85652000D01*
X155625000Y-85653000D01*
X155627000Y-85655000D01*
X155630000Y-85656000D01*
X155632000Y-85657000D01*
X155635000Y-85658000D01*
X155637000Y-85658000D01*
X155640000Y-85659000D01*
X155642000Y-85659000D01*
X155645000Y-85660000D01*
X155647000Y-85660000D01*
X155650000Y-85660000D01*
X155950000Y-85660000D01*
X155953000Y-85660000D01*
X155955000Y-85660000D01*
X155958000Y-85661000D01*
X155960000Y-85661000D01*
X155963000Y-85662000D01*
X155965000Y-85662000D01*
X155968000Y-85663000D01*
X155970000Y-85664000D01*
X155973000Y-85665000D01*
X155975000Y-85667000D01*
X155977000Y-85668000D01*
X155979000Y-85670000D01*
X155981000Y-85671000D01*
X155983000Y-85673000D01*
X155985000Y-85675000D01*
X155987000Y-85677000D01*
X155989000Y-85679000D01*
X155990000Y-85681000D01*
X155992000Y-85683000D01*
X155993000Y-85685000D01*
X155995000Y-85687000D01*
X155996000Y-85690000D01*
X155997000Y-85692000D01*
X155998000Y-85695000D01*
X155998000Y-85697000D01*
X155999000Y-85700000D01*
X155999000Y-85702000D01*
X156000000Y-85705000D01*
X156000000Y-85707000D01*
X156000000Y-85710000D01*
X156000000Y-85860000D01*
X156000000Y-85863000D01*
X156000000Y-85865000D01*
X155999000Y-85868000D01*
X155999000Y-85870000D01*
X155998000Y-85873000D01*
X155998000Y-85875000D01*
X155997000Y-85878000D01*
X155996000Y-85880000D01*
X155995000Y-85883000D01*
X155993000Y-85885000D01*
X155992000Y-85887000D01*
X155990000Y-85889000D01*
X155989000Y-85891000D01*
X155987000Y-85893000D01*
X155985000Y-85895000D01*
X155983000Y-85897000D01*
X155981000Y-85899000D01*
X155979000Y-85900000D01*
X155977000Y-85902000D01*
X155975000Y-85903000D01*
X155973000Y-85905000D01*
X155970000Y-85906000D01*
X155968000Y-85907000D01*
X155965000Y-85908000D01*
X155963000Y-85908000D01*
X155960000Y-85909000D01*
X155958000Y-85909000D01*
X155955000Y-85910000D01*
X155953000Y-85910000D01*
X155950000Y-85910000D01*
X155650000Y-85910000D01*
X155647000Y-85910000D01*
X155645000Y-85910000D01*
X155642000Y-85911000D01*
X155640000Y-85911000D01*
X155637000Y-85912000D01*
X155635000Y-85912000D01*
X155632000Y-85913000D01*
X155630000Y-85914000D01*
X155627000Y-85915000D01*
X155625000Y-85917000D01*
X155623000Y-85918000D01*
X155621000Y-85920000D01*
X155619000Y-85921000D01*
X155617000Y-85923000D01*
X155615000Y-85925000D01*
X155613000Y-85927000D01*
X155611000Y-85929000D01*
X155610000Y-85931000D01*
X155608000Y-85933000D01*
X155607000Y-85935000D01*
X155605000Y-85937000D01*
X155604000Y-85940000D01*
X155603000Y-85942000D01*
X155602000Y-85945000D01*
X155602000Y-85947000D01*
X155601000Y-85950000D01*
X155601000Y-85952000D01*
X155600000Y-85955000D01*
X155600000Y-85957000D01*
X155600000Y-85960000D01*
X155600000Y-86275000D01*
X155600000Y-86278000D01*
X155600000Y-86280000D01*
X155599000Y-86283000D01*
X155599000Y-86285000D01*
X155598000Y-86288000D01*
X155598000Y-86290000D01*
X155597000Y-86293000D01*
X155596000Y-86295000D01*
X155595000Y-86298000D01*
X155593000Y-86300000D01*
X155592000Y-86302000D01*
X155590000Y-86304000D01*
X155589000Y-86306000D01*
X155587000Y-86308000D01*
X155585000Y-86310000D01*
X155583000Y-86312000D01*
X155581000Y-86314000D01*
X155579000Y-86315000D01*
X155577000Y-86317000D01*
X155575000Y-86318000D01*
X155573000Y-86320000D01*
X155570000Y-86321000D01*
X155568000Y-86322000D01*
X155565000Y-86323000D01*
X155563000Y-86323000D01*
X155560000Y-86324000D01*
X155558000Y-86324000D01*
X155555000Y-86325000D01*
X155553000Y-86325000D01*
X155550000Y-86325000D01*
X154650000Y-86325000D01*
X154647000Y-86325000D01*
X154645000Y-86325000D01*
X154642000Y-86324000D01*
X154640000Y-86324000D01*
X154637000Y-86323000D01*
X154635000Y-86323000D01*
X154632000Y-86322000D01*
X154630000Y-86321000D01*
X154627000Y-86320000D01*
X154625000Y-86318000D01*
X154623000Y-86317000D01*
X154621000Y-86315000D01*
X154619000Y-86314000D01*
X154617000Y-86312000D01*
X154615000Y-86310000D01*
X154613000Y-86308000D01*
X154611000Y-86306000D01*
X154610000Y-86304000D01*
X154608000Y-86302000D01*
X154607000Y-86300000D01*
X154605000Y-86298000D01*
X154604000Y-86295000D01*
X154603000Y-86293000D01*
X154602000Y-86290000D01*
X154602000Y-86288000D01*
X154601000Y-86285000D01*
X154601000Y-86283000D01*
X154600000Y-86280000D01*
X154600000Y-86278000D01*
X154600000Y-86275000D01*
X154600000Y-84450000D01*
X154600000Y-84447000D01*
X154600000Y-84445000D01*
X154601000Y-84442000D01*
X154601000Y-84440000D01*
X154602000Y-84437000D01*
X154602000Y-84435000D01*
X154603000Y-84432000D01*
X154604000Y-84430000D01*
X154605000Y-84427000D01*
X154607000Y-84425000D01*
X154608000Y-84423000D01*
X154610000Y-84421000D01*
X154611000Y-84419000D01*
X154613000Y-84417000D01*
X154615000Y-84415000D01*
X154617000Y-84413000D01*
X154619000Y-84411000D01*
X154621000Y-84410000D01*
X154623000Y-84408000D01*
X154625000Y-84407000D01*
X154627000Y-84405000D01*
X154630000Y-84404000D01*
X154632000Y-84403000D01*
X154635000Y-84402000D01*
X154637000Y-84402000D01*
X154640000Y-84401000D01*
X154642000Y-84401000D01*
X154645000Y-84400000D01*
X154647000Y-84400000D01*
X154650000Y-84400000D01*
X155550000Y-84400000D01*
X155553000Y-84400000D01*
X155555000Y-84400000D01*
X155558000Y-84401000D01*
G36*
X155558000Y-84401000D02*
G01*
X155560000Y-84401000D01*
X155563000Y-84402000D01*
X155565000Y-84402000D01*
X155568000Y-84403000D01*
X155570000Y-84404000D01*
X155573000Y-84405000D01*
X155575000Y-84407000D01*
X155577000Y-84408000D01*
X155579000Y-84410000D01*
X155581000Y-84411000D01*
X155583000Y-84413000D01*
X155585000Y-84415000D01*
X155587000Y-84417000D01*
X155589000Y-84419000D01*
X155590000Y-84421000D01*
X155592000Y-84423000D01*
X155593000Y-84425000D01*
X155595000Y-84427000D01*
X155596000Y-84430000D01*
X155597000Y-84432000D01*
X155598000Y-84435000D01*
X155598000Y-84437000D01*
X155599000Y-84440000D01*
X155599000Y-84442000D01*
X155600000Y-84445000D01*
X155600000Y-84447000D01*
X155600000Y-84450000D01*
X155600000Y-84610000D01*
X155600000Y-84613000D01*
X155600000Y-84615000D01*
X155601000Y-84618000D01*
X155601000Y-84620000D01*
X155602000Y-84623000D01*
X155602000Y-84625000D01*
X155603000Y-84628000D01*
X155604000Y-84630000D01*
X155605000Y-84633000D01*
X155607000Y-84635000D01*
X155608000Y-84637000D01*
X155610000Y-84639000D01*
X155611000Y-84641000D01*
X155613000Y-84643000D01*
X155615000Y-84645000D01*
X155617000Y-84647000D01*
X155619000Y-84649000D01*
X155621000Y-84650000D01*
X155623000Y-84652000D01*
X155625000Y-84653000D01*
X155627000Y-84655000D01*
X155630000Y-84656000D01*
X155632000Y-84657000D01*
X155635000Y-84658000D01*
X155637000Y-84658000D01*
X155640000Y-84659000D01*
X155642000Y-84659000D01*
X155645000Y-84660000D01*
X155647000Y-84660000D01*
X155650000Y-84660000D01*
X155950000Y-84660000D01*
X155953000Y-84660000D01*
X155955000Y-84660000D01*
X155958000Y-84661000D01*
X155960000Y-84661000D01*
X155963000Y-84662000D01*
X155965000Y-84662000D01*
X155968000Y-84663000D01*
X155970000Y-84664000D01*
X155973000Y-84665000D01*
X155975000Y-84667000D01*
X155977000Y-84668000D01*
X155979000Y-84670000D01*
X155981000Y-84671000D01*
X155983000Y-84673000D01*
X155985000Y-84675000D01*
X155987000Y-84677000D01*
X155989000Y-84679000D01*
X155990000Y-84681000D01*
X155992000Y-84683000D01*
X155993000Y-84685000D01*
X155995000Y-84687000D01*
X155996000Y-84690000D01*
X155997000Y-84692000D01*
X155998000Y-84695000D01*
X155998000Y-84697000D01*
X155999000Y-84700000D01*
X155999000Y-84702000D01*
X156000000Y-84705000D01*
X156000000Y-84707000D01*
X156000000Y-84710000D01*
X156000000Y-84860000D01*
X156000000Y-84863000D01*
X156000000Y-84865000D01*
X155999000Y-84868000D01*
X155999000Y-84870000D01*
X155998000Y-84873000D01*
X155998000Y-84875000D01*
X155997000Y-84878000D01*
X155996000Y-84880000D01*
X155995000Y-84883000D01*
X155993000Y-84885000D01*
X155992000Y-84887000D01*
X155990000Y-84889000D01*
X155989000Y-84891000D01*
X155987000Y-84893000D01*
X155985000Y-84895000D01*
X155983000Y-84897000D01*
X155981000Y-84899000D01*
X155979000Y-84900000D01*
X155977000Y-84902000D01*
X155975000Y-84903000D01*
X155973000Y-84905000D01*
X155970000Y-84906000D01*
X155968000Y-84907000D01*
X155965000Y-84908000D01*
X155963000Y-84908000D01*
X155960000Y-84909000D01*
X155958000Y-84909000D01*
X155955000Y-84910000D01*
X155953000Y-84910000D01*
X155950000Y-84910000D01*
X155650000Y-84910000D01*
X155647000Y-84910000D01*
X155645000Y-84910000D01*
X155642000Y-84911000D01*
X155640000Y-84911000D01*
X155637000Y-84912000D01*
X155635000Y-84912000D01*
X155632000Y-84913000D01*
X155630000Y-84914000D01*
X155627000Y-84915000D01*
X155625000Y-84917000D01*
X155623000Y-84918000D01*
X155621000Y-84920000D01*
X155619000Y-84921000D01*
X155617000Y-84923000D01*
X155615000Y-84925000D01*
X155613000Y-84927000D01*
X155611000Y-84929000D01*
X155610000Y-84931000D01*
X155608000Y-84933000D01*
X155607000Y-84935000D01*
X155605000Y-84937000D01*
X155604000Y-84940000D01*
X155603000Y-84942000D01*
X155602000Y-84945000D01*
X155602000Y-84947000D01*
X155601000Y-84950000D01*
X155601000Y-84952000D01*
X155600000Y-84955000D01*
X155600000Y-84957000D01*
X155600000Y-84960000D01*
X155600000Y-85110000D01*
X155600000Y-85113000D01*
X155600000Y-85115000D01*
X155601000Y-85118000D01*
X155601000Y-85120000D01*
X155602000Y-85123000D01*
X155602000Y-85125000D01*
X155603000Y-85128000D01*
X155604000Y-85130000D01*
X155605000Y-85133000D01*
X155607000Y-85135000D01*
X155608000Y-85137000D01*
X155610000Y-85139000D01*
X155611000Y-85141000D01*
X155613000Y-85143000D01*
X155615000Y-85145000D01*
X155617000Y-85147000D01*
X155619000Y-85149000D01*
X155621000Y-85150000D01*
X155623000Y-85152000D01*
X155625000Y-85153000D01*
X155627000Y-85155000D01*
X155630000Y-85156000D01*
X155632000Y-85157000D01*
X155635000Y-85158000D01*
X155637000Y-85158000D01*
X155640000Y-85159000D01*
X155642000Y-85159000D01*
X155645000Y-85160000D01*
X155647000Y-85160000D01*
X155650000Y-85160000D01*
X155950000Y-85160000D01*
X155953000Y-85160000D01*
X155955000Y-85160000D01*
X155958000Y-85161000D01*
X155960000Y-85161000D01*
X155963000Y-85162000D01*
X155965000Y-85162000D01*
X155968000Y-85163000D01*
X155970000Y-85164000D01*
X155973000Y-85165000D01*
X155975000Y-85167000D01*
X155977000Y-85168000D01*
X155979000Y-85170000D01*
X155981000Y-85171000D01*
X155983000Y-85173000D01*
X155985000Y-85175000D01*
X155987000Y-85177000D01*
X155989000Y-85179000D01*
X155990000Y-85181000D01*
X155992000Y-85183000D01*
X155993000Y-85185000D01*
X155995000Y-85187000D01*
X155996000Y-85190000D01*
X155997000Y-85192000D01*
X155998000Y-85195000D01*
X155998000Y-85197000D01*
X155999000Y-85200000D01*
X155999000Y-85202000D01*
X156000000Y-85205000D01*
X156000000Y-85207000D01*
X156000000Y-85210000D01*
X156000000Y-85360000D01*
X156000000Y-85363000D01*
X156000000Y-85365000D01*
X155999000Y-85368000D01*
X155999000Y-85370000D01*
X155998000Y-85373000D01*
X155998000Y-85375000D01*
X155997000Y-85378000D01*
X155996000Y-85380000D01*
X155995000Y-85383000D01*
X155993000Y-85385000D01*
X155992000Y-85387000D01*
X155990000Y-85389000D01*
X155989000Y-85391000D01*
X155987000Y-85393000D01*
X155985000Y-85395000D01*
X155983000Y-85397000D01*
X155981000Y-85399000D01*
X155979000Y-85400000D01*
X155977000Y-85402000D01*
X155975000Y-85403000D01*
X155973000Y-85405000D01*
X155970000Y-85406000D01*
X155968000Y-85407000D01*
X155965000Y-85408000D01*
X155963000Y-85408000D01*
X155960000Y-85409000D01*
X155958000Y-85409000D01*
X155955000Y-85410000D01*
X155953000Y-85410000D01*
X155950000Y-85410000D01*
X155650000Y-85410000D01*
X155647000Y-85410000D01*
X155645000Y-85410000D01*
X155642000Y-85411000D01*
X155640000Y-85411000D01*
X155637000Y-85412000D01*
X155635000Y-85412000D01*
X155632000Y-85413000D01*
X155630000Y-85414000D01*
X155627000Y-85415000D01*
X155625000Y-85417000D01*
X155623000Y-85418000D01*
X155621000Y-85420000D01*
X155619000Y-85421000D01*
X155617000Y-85423000D01*
X155615000Y-85425000D01*
X155613000Y-85427000D01*
X155611000Y-85429000D01*
X155610000Y-85431000D01*
X155608000Y-85433000D01*
X155607000Y-85435000D01*
X155605000Y-85437000D01*
X155604000Y-85440000D01*
X155603000Y-85442000D01*
X155602000Y-85445000D01*
X155602000Y-85447000D01*
X155601000Y-85450000D01*
X155601000Y-85452000D01*
X155600000Y-85455000D01*
X155600000Y-85457000D01*
X155600000Y-85460000D01*
X155600000Y-85610000D01*
X155600000Y-85613000D01*
X155600000Y-85615000D01*
X155601000Y-85618000D01*
X155601000Y-85620000D01*
X155602000Y-85623000D01*
X155602000Y-85625000D01*
X155603000Y-85628000D01*
X155604000Y-85630000D01*
X155605000Y-85633000D01*
X155607000Y-85635000D01*
X155608000Y-85637000D01*
X155610000Y-85639000D01*
X155611000Y-85641000D01*
X155613000Y-85643000D01*
X155615000Y-85645000D01*
X155617000Y-85647000D01*
X155619000Y-85649000D01*
X155621000Y-85650000D01*
X155623000Y-85652000D01*
X155625000Y-85653000D01*
X155627000Y-85655000D01*
X155630000Y-85656000D01*
X155632000Y-85657000D01*
X155635000Y-85658000D01*
X155637000Y-85658000D01*
X155640000Y-85659000D01*
X155642000Y-85659000D01*
X155645000Y-85660000D01*
X155647000Y-85660000D01*
X155650000Y-85660000D01*
X155950000Y-85660000D01*
X155953000Y-85660000D01*
X155955000Y-85660000D01*
X155958000Y-85661000D01*
X155960000Y-85661000D01*
X155963000Y-85662000D01*
X155965000Y-85662000D01*
X155968000Y-85663000D01*
X155970000Y-85664000D01*
X155973000Y-85665000D01*
X155975000Y-85667000D01*
X155977000Y-85668000D01*
X155979000Y-85670000D01*
X155981000Y-85671000D01*
X155983000Y-85673000D01*
X155985000Y-85675000D01*
X155987000Y-85677000D01*
X155989000Y-85679000D01*
X155990000Y-85681000D01*
X155992000Y-85683000D01*
X155993000Y-85685000D01*
X155995000Y-85687000D01*
X155996000Y-85690000D01*
X155997000Y-85692000D01*
X155998000Y-85695000D01*
X155998000Y-85697000D01*
X155999000Y-85700000D01*
X155999000Y-85702000D01*
X156000000Y-85705000D01*
X156000000Y-85707000D01*
X156000000Y-85710000D01*
X156000000Y-85860000D01*
X156000000Y-85863000D01*
X156000000Y-85865000D01*
X155999000Y-85868000D01*
X155999000Y-85870000D01*
X155998000Y-85873000D01*
X155998000Y-85875000D01*
X155997000Y-85878000D01*
X155996000Y-85880000D01*
X155995000Y-85883000D01*
X155993000Y-85885000D01*
X155992000Y-85887000D01*
X155990000Y-85889000D01*
X155989000Y-85891000D01*
X155987000Y-85893000D01*
X155985000Y-85895000D01*
X155983000Y-85897000D01*
X155981000Y-85899000D01*
X155979000Y-85900000D01*
X155977000Y-85902000D01*
X155975000Y-85903000D01*
X155973000Y-85905000D01*
X155970000Y-85906000D01*
X155968000Y-85907000D01*
X155965000Y-85908000D01*
X155963000Y-85908000D01*
X155960000Y-85909000D01*
X155958000Y-85909000D01*
X155955000Y-85910000D01*
X155953000Y-85910000D01*
X155950000Y-85910000D01*
X155650000Y-85910000D01*
X155647000Y-85910000D01*
X155645000Y-85910000D01*
X155642000Y-85911000D01*
X155640000Y-85911000D01*
X155637000Y-85912000D01*
X155635000Y-85912000D01*
X155632000Y-85913000D01*
X155630000Y-85914000D01*
X155627000Y-85915000D01*
X155625000Y-85917000D01*
X155623000Y-85918000D01*
X155621000Y-85920000D01*
X155619000Y-85921000D01*
X155617000Y-85923000D01*
X155615000Y-85925000D01*
X155613000Y-85927000D01*
X155611000Y-85929000D01*
X155610000Y-85931000D01*
X155608000Y-85933000D01*
X155607000Y-85935000D01*
X155605000Y-85937000D01*
X155604000Y-85940000D01*
X155603000Y-85942000D01*
X155602000Y-85945000D01*
X155602000Y-85947000D01*
X155601000Y-85950000D01*
X155601000Y-85952000D01*
X155600000Y-85955000D01*
X155600000Y-85957000D01*
X155600000Y-85960000D01*
X155600000Y-86275000D01*
X155600000Y-86278000D01*
X155600000Y-86280000D01*
X155599000Y-86283000D01*
X155599000Y-86285000D01*
X155598000Y-86288000D01*
X155598000Y-86290000D01*
X155597000Y-86293000D01*
X155596000Y-86295000D01*
X155595000Y-86298000D01*
X155593000Y-86300000D01*
X155592000Y-86302000D01*
X155590000Y-86304000D01*
X155589000Y-86306000D01*
X155587000Y-86308000D01*
X155585000Y-86310000D01*
X155583000Y-86312000D01*
X155581000Y-86314000D01*
X155579000Y-86315000D01*
X155577000Y-86317000D01*
X155575000Y-86318000D01*
X155573000Y-86320000D01*
X155570000Y-86321000D01*
X155568000Y-86322000D01*
X155565000Y-86323000D01*
X155563000Y-86323000D01*
X155560000Y-86324000D01*
X155558000Y-86324000D01*
X155555000Y-86325000D01*
X155553000Y-86325000D01*
X155550000Y-86325000D01*
X154650000Y-86325000D01*
X154647000Y-86325000D01*
X154645000Y-86325000D01*
X154642000Y-86324000D01*
X154640000Y-86324000D01*
X154637000Y-86323000D01*
X154635000Y-86323000D01*
X154632000Y-86322000D01*
X154630000Y-86321000D01*
X154627000Y-86320000D01*
X154625000Y-86318000D01*
X154623000Y-86317000D01*
X154621000Y-86315000D01*
X154619000Y-86314000D01*
X154617000Y-86312000D01*
X154615000Y-86310000D01*
X154613000Y-86308000D01*
X154611000Y-86306000D01*
X154610000Y-86304000D01*
X154608000Y-86302000D01*
X154607000Y-86300000D01*
X154605000Y-86298000D01*
X154604000Y-86295000D01*
X154603000Y-86293000D01*
X154602000Y-86290000D01*
X154602000Y-86288000D01*
X154601000Y-86285000D01*
X154601000Y-86283000D01*
X154600000Y-86280000D01*
X154600000Y-86278000D01*
X154600000Y-86275000D01*
X154600000Y-84450000D01*
X154600000Y-84447000D01*
X154600000Y-84445000D01*
X154601000Y-84442000D01*
X154601000Y-84440000D01*
X154602000Y-84437000D01*
X154602000Y-84435000D01*
X154603000Y-84432000D01*
X154604000Y-84430000D01*
X154605000Y-84427000D01*
X154607000Y-84425000D01*
X154608000Y-84423000D01*
X154610000Y-84421000D01*
X154611000Y-84419000D01*
X154613000Y-84417000D01*
X154615000Y-84415000D01*
X154617000Y-84413000D01*
X154619000Y-84411000D01*
X154621000Y-84410000D01*
X154623000Y-84408000D01*
X154625000Y-84407000D01*
X154627000Y-84405000D01*
X154630000Y-84404000D01*
X154632000Y-84403000D01*
X154635000Y-84402000D01*
X154637000Y-84402000D01*
X154640000Y-84401000D01*
X154642000Y-84401000D01*
X154645000Y-84400000D01*
X154647000Y-84400000D01*
X154650000Y-84400000D01*
X155550000Y-84400000D01*
X155553000Y-84400000D01*
X155555000Y-84400000D01*
X155558000Y-84401000D01*
G37*
%TO.C,JP3*%
G36*
X149125000Y-105350000D02*
G01*
X150625000Y-105350000D01*
X150625000Y-105650000D01*
X149125000Y-105650000D01*
X149125000Y-105350000D01*
G37*
%TD*%
D11*
%TO.C,J6*%
X147920000Y-77640000D03*
X142140000Y-77640000D03*
D12*
X149350000Y-78140000D03*
X140710000Y-78140000D03*
D13*
X149350000Y-73960000D03*
X140710000Y-73960000D03*
%TD*%
D14*
%TO.C,H1*%
X132450000Y-74450000D03*
%TD*%
%TO.C,H4*%
X132450000Y-104950000D03*
%TD*%
D15*
%TO.C,S1*%
X156200000Y-73750000D03*
X153900000Y-73750000D03*
%TD*%
D14*
%TO.C,H2*%
X162950000Y-74450000D03*
%TD*%
%TO.C,H3*%
X162950000Y-104950000D03*
%TD*%
D16*
%TO.C,R11*%
X151050000Y-88625000D03*
X149225000Y-88625000D03*
%TD*%
D17*
%TO.C,R15*%
X144050000Y-74572500D03*
X144050000Y-72572500D03*
%TD*%
D16*
%TO.C,R7*%
X164150000Y-81950000D03*
X162325000Y-81950000D03*
%TD*%
D18*
%TO.C,R2*%
X133525000Y-89637500D03*
X133525000Y-91462500D03*
%TD*%
D19*
%TO.C,C2*%
X146175000Y-82062500D03*
X146175000Y-80337500D03*
%TD*%
D20*
%TO.C,C21*%
X145850000Y-83950000D03*
X145850000Y-86900000D03*
%TD*%
D21*
%TO.C,R6*%
X149225000Y-90225000D03*
X151050000Y-90225000D03*
%TD*%
D22*
%TO.C,Q2*%
X131900000Y-84350000D03*
X131900000Y-82450000D03*
X133775000Y-83400000D03*
%TD*%
D23*
%TO.C,JP4*%
X149300000Y-80850000D03*
X148000000Y-80850000D03*
%TD*%
D24*
%TO.C,U3*%
X144350000Y-80250000D03*
X144350000Y-82150000D03*
X142475000Y-81200000D03*
%TD*%
D25*
%TO.C,R5*%
X152850000Y-91837500D03*
X152850000Y-90012500D03*
%TD*%
D21*
%TO.C,R3*%
X131687500Y-80850000D03*
X133512500Y-80850000D03*
%TD*%
D16*
%TO.C,R8*%
X155962500Y-72250000D03*
X154137500Y-72250000D03*
%TD*%
D20*
%TO.C,C23*%
X150705000Y-83950000D03*
X150705000Y-86900000D03*
%TD*%
D19*
%TO.C,C1*%
X140675000Y-82062500D03*
X140675000Y-80337500D03*
%TD*%
D17*
%TO.C,R9*%
X146050000Y-74572500D03*
X146050000Y-72572500D03*
%TD*%
D26*
%TO.C,C18*%
X156412500Y-91625000D03*
X154687500Y-91625000D03*
%TD*%
D20*
%TO.C,C20*%
X143450000Y-83950000D03*
X143450000Y-86900000D03*
%TD*%
D26*
%TO.C,C11*%
X156412500Y-90025000D03*
X154687500Y-90025000D03*
%TD*%
D16*
%TO.C,R4*%
X133512500Y-85950000D03*
X131687500Y-85950000D03*
%TD*%
D18*
%TO.C,R1*%
X131925000Y-91425000D03*
X131925000Y-93250000D03*
%TD*%
D20*
%TO.C,C22*%
X148250000Y-83950000D03*
X148250000Y-86900000D03*
%TD*%
%TO.C,C19*%
X141050000Y-83950000D03*
X141050000Y-86900000D03*
%TD*%
D16*
%TO.C,R10*%
X164150000Y-80350000D03*
X162325000Y-80350000D03*
%TD*%
D27*
%TO.C,JP3*%
X149875000Y-104850000D03*
X149875000Y-106150000D03*
%TD*%
D28*
%TO.C,Y1*%
X144425000Y-104600000D03*
X139545000Y-104600000D03*
%TD*%
M02*
