%TF.GenerationSoftware,KiCad,Pcbnew,9.0.6+1*%
%TF.CreationDate,Date%
%TF.ProjectId,FCU3,46435533-2e6b-4696-9361-645f70636258,+ (Unreleased)*%
%TF.SameCoordinates,Original*%
%TF.FileFunction,Copper,L1,Top*%
%TF.FilePolarity,Positive*%
%FSLAX46Y46*%
G04 Gerber Fmt 4.6, Leading zero omitted, Abs format (unit mm)*
G04 Created by KiCad*
%MOMM*%
%LPD*%
G01*
G04 APERTURE LIST*
G04 Aperture macros list*
%AMRoundRect*
0 Rectangle with rounded corners*
0 $1 Rounding radius*
0 $2 $3 $4 $5 $6 $7 $8 $9 X,Y pos of 4 corners*
0 Add a 4 corners polygon primitive as box body*
4,1,4,$2,$3,$4,$5,$6,$7,$8,$9,$2,$3,0*
0 Add four circle primitives for the rounded corners*
1,1,$1+$1,$2,$3*
1,1,$1+$1,$4,$5*
1,1,$1+$1,$6,$7*
1,1,$1+$1,$8,$9*
0 Add four rect primitives between the rounded corners*
20,1,$1+$1,$2,$3,$4,$5,0*
20,1,$1+$1,$4,$5,$6,$7,0*
20,1,$1+$1,$6,$7,$8,$9,0*
20,1,$1+$1,$8,$9,$2,$3,0*%
%AMFreePoly0*
4,1,230,1.281581,1.191743,1.283810,1.191000,1.285000,1.191000,1.286581,1.190743,1.288810,1.190000,1.290000,1.190000,1.291581,1.189743,1.294581,1.188743,1.295236,1.188472,1.296920,1.187630,1.299581,1.186743,1.301536,1.185536,1.302964,1.184108,1.304236,1.183472,1.305536,1.182536,1.306964,1.181108,1.308236,1.180472,1.309536,1.179536,1.317536,1.171536,1.318472,1.170236,
1.319108,1.168964,1.320536,1.167536,1.321472,1.166236,1.322108,1.164964,1.323536,1.163536,1.324743,1.161581,1.325630,1.158920,1.326472,1.157236,1.326743,1.156581,1.327743,1.153581,1.328000,1.152000,1.328000,1.150810,1.328743,1.148581,1.329000,1.147000,1.329000,1.145810,1.329743,1.143581,1.330000,1.142000,1.330000,-0.093000,1.329472,-0.095236,1.329000,-0.096180,
1.329000,-0.098000,1.328472,-0.100236,1.328000,-0.101180,1.328000,-0.103000,1.327472,-0.105236,1.326630,-0.106920,1.325743,-0.109581,1.325472,-0.110236,1.324472,-0.112236,1.323536,-0.113536,1.322369,-0.114703,1.321743,-0.116581,1.320536,-0.118536,1.319108,-0.119964,1.318472,-0.121236,1.317536,-0.122536,1.311536,-0.128536,1.310236,-0.129472,1.308964,-0.130108,1.307536,-0.131536,
1.306236,-0.132472,1.304964,-0.133108,1.303536,-0.134536,1.302236,-0.135472,1.300236,-0.136472,1.299581,-0.136743,1.296920,-0.137630,1.295236,-0.138472,1.294581,-0.138743,1.291920,-0.139630,1.290236,-0.140472,1.288000,-0.141000,1.286180,-0.141000,1.285236,-0.141472,1.283000,-0.142000,-0.358000,-0.142000,-0.360236,-0.141472,-0.361180,-0.141000,-0.363000,-0.141000,-0.365236,-0.140472,
-0.366920,-0.139630,-0.369581,-0.138743,-0.370236,-0.138472,-0.371920,-0.137630,-0.374581,-0.136743,-0.375236,-0.136472,-0.377236,-0.135472,-0.378536,-0.134536,-0.379964,-0.133108,-0.381236,-0.132472,-0.382536,-0.131536,-0.383964,-0.130108,-0.385236,-0.129472,-0.386536,-0.128536,-0.392536,-0.122536,-0.393472,-0.121236,-0.394108,-0.119964,-0.395536,-0.118536,-0.396743,-0.116581,-0.397369,-0.114703,
-0.398536,-0.113536,-0.399472,-0.112236,-0.400472,-0.110236,-0.400743,-0.109581,-0.401630,-0.106920,-0.402472,-0.105236,-0.403000,-0.103000,-0.403000,-0.101180,-0.403472,-0.100236,-0.404000,-0.098000,-0.404000,-0.096180,-0.404472,-0.095236,-0.405000,-0.093000,-0.405000,0.093000,-0.404472,0.095236,-0.404000,0.096180,-0.404000,0.098000,-0.403472,0.100236,-0.403000,0.101180,-0.403000,0.103000,
-0.402472,0.105236,-0.401630,0.106920,-0.400743,0.109581,-0.400472,0.110236,-0.399472,0.112236,-0.399160,0.112774,-0.397332,0.115516,-0.396472,0.117236,-0.395536,0.118536,-0.394108,0.119964,-0.393472,0.121236,-0.392536,0.122536,-0.386536,0.128536,-0.385236,0.129472,-0.383964,0.130108,-0.382536,0.131536,-0.381236,0.132472,-0.379964,0.133108,-0.378536,0.134536,-0.377236,0.135472,
-0.375236,0.136472,-0.374581,0.136743,-0.371920,0.137630,-0.370236,0.138472,-0.369581,0.138743,-0.366920,0.139630,-0.365236,0.140472,-0.363000,0.141000,-0.361180,0.141000,-0.360236,0.141472,-0.358000,0.142000,-0.353810,0.142000,-0.351581,0.142743,-0.350000,0.143000,0.871820,0.143000,0.872764,0.143472,0.875000,0.144000,0.875585,0.144000,0.878000,0.145000,0.879585,0.145000,
0.880953,0.145566,0.882764,0.146472,0.883596,0.146668,0.884464,0.147536,0.886170,0.148242,0.886464,0.148536,0.887764,0.149472,0.889764,0.150472,0.890596,0.150668,0.892464,0.152536,0.894170,0.153242,0.896464,0.155536,1.056453,0.316525,1.060757,0.320829,1.061464,0.322536,1.063757,0.324829,1.064464,0.326536,1.064892,0.326964,1.065433,0.328046,1.066464,0.330536,
1.066757,0.330829,1.067000,0.331415,1.067000,0.332000,1.068000,0.334415,1.068000,0.335000,1.068528,0.337236,1.069000,0.338180,1.069000,0.340000,1.069528,0.342236,1.070000,0.343180,1.070000,1.142000,1.070257,1.143581,1.071000,1.145810,1.071000,1.147000,1.071257,1.148581,1.072000,1.150810,1.072000,1.152000,1.072257,1.153581,1.073257,1.156581,1.073528,1.157236,
1.074370,1.158920,1.075257,1.161581,1.076464,1.163536,1.077892,1.164964,1.078528,1.166236,1.079464,1.167536,1.080892,1.168964,1.081528,1.170236,1.082464,1.171536,1.090464,1.179536,1.091764,1.180472,1.093036,1.181108,1.094464,1.182536,1.095764,1.183472,1.097036,1.184108,1.098464,1.185536,1.100419,1.186743,1.103080,1.187630,1.104764,1.188472,1.105419,1.188743,
1.108419,1.189743,1.110000,1.190000,1.111190,1.190000,1.113419,1.190743,1.115000,1.191000,1.116190,1.191000,1.118419,1.191743,1.120000,1.192000,1.280000,1.192000,1.281581,1.191743,1.281581,1.191743,$1*%
%AMFreePoly1*
4,1,153,0.480981,1.042903,0.485496,1.042000,0.491000,1.042000,0.491981,1.041903,0.501981,1.039903,0.502857,1.039642,0.517857,1.033642,0.518236,1.033472,0.522052,1.031564,0.526857,1.029642,0.528000,1.029000,0.531798,1.026151,0.536572,1.023287,0.537000,1.023000,0.541000,1.020000,0.541536,1.019536,0.545288,1.015784,0.549000,1.013000,0.550000,1.012000,0.552784,1.008288,
0.556536,1.004536,0.557000,1.004000,0.560000,1.000000,0.560287,0.999572,0.563151,0.994798,0.566000,0.991000,0.566642,0.989857,0.568564,0.985052,0.570472,0.981236,0.570642,0.980857,0.576642,0.965857,0.576903,0.964981,0.578903,0.954981,0.579000,0.954000,0.579000,0.948496,0.579903,0.943981,0.580000,0.943000,0.580000,-0.892000,0.579903,-0.892981,0.579000,-0.897496,
0.579000,-0.903000,0.578903,-0.903981,0.576903,-0.913981,0.576642,-0.914857,0.570642,-0.929857,0.570472,-0.930236,0.568564,-0.934052,0.566642,-0.938857,0.566000,-0.940000,0.563151,-0.943798,0.560287,-0.948572,0.560000,-0.949000,0.557000,-0.953000,0.556536,-0.953536,0.552784,-0.957288,0.550000,-0.961000,0.549000,-0.962000,0.545288,-0.964784,0.541536,-0.968536,0.541000,-0.969000,
0.537000,-0.972000,0.536572,-0.972287,0.531798,-0.975151,0.528000,-0.978000,0.526857,-0.978642,0.522052,-0.980564,0.518236,-0.982472,0.517857,-0.982642,0.502857,-0.988642,0.501981,-0.988903,0.491981,-0.990903,0.491000,-0.991000,0.485496,-0.991000,0.480981,-0.991903,0.480000,-0.992000,-0.830000,-0.992000,-0.830981,-0.991903,-0.835496,-0.991000,-0.841000,-0.991000,-0.841981,-0.990903,
-0.851981,-0.988903,-0.852857,-0.988642,-0.867857,-0.982642,-0.868236,-0.982472,-0.872052,-0.980564,-0.876857,-0.978642,-0.878000,-0.978000,-0.881798,-0.975151,-0.886572,-0.972287,-0.887000,-0.972000,-0.891000,-0.969000,-0.891536,-0.968536,-0.895288,-0.964784,-0.899000,-0.962000,-0.900000,-0.961000,-0.902784,-0.957288,-0.906536,-0.953536,-0.907000,-0.953000,-0.910000,-0.949000,-0.910287,-0.948572,
-0.913151,-0.943798,-0.916000,-0.940000,-0.916642,-0.938857,-0.918564,-0.934052,-0.920472,-0.930236,-0.920642,-0.929857,-0.926642,-0.914857,-0.926903,-0.913981,-0.928903,-0.903981,-0.929000,-0.903000,-0.929000,-0.897496,-0.929903,-0.892981,-0.930000,-0.892000,-0.930000,0.943000,-0.929903,0.943981,-0.929000,0.948496,-0.929000,0.954000,-0.928903,0.954981,-0.926903,0.964981,-0.926642,0.965857,
-0.920642,0.980857,-0.920472,0.981236,-0.918564,0.985052,-0.916642,0.989857,-0.916000,0.991000,-0.913151,0.994798,-0.910287,0.999572,-0.910000,1.000000,-0.907000,1.004000,-0.906536,1.004536,-0.902784,1.008288,-0.900000,1.012000,-0.899000,1.013000,-0.895288,1.015784,-0.891536,1.019536,-0.891000,1.020000,-0.887000,1.023000,-0.886572,1.023287,-0.881798,1.026151,-0.878000,1.029000,
-0.876857,1.029642,-0.872052,1.031564,-0.868236,1.033472,-0.867857,1.033642,-0.852857,1.039642,-0.851981,1.039903,-0.841981,1.041903,-0.841000,1.042000,-0.835496,1.042000,-0.830981,1.042903,-0.830000,1.043000,0.480000,1.043000,0.480981,1.042903,0.480981,1.042903,$1*%
%AMFreePoly2*
4,1,153,0.830981,1.042903,0.835496,1.042000,0.841000,1.042000,0.841981,1.041903,0.851981,1.039903,0.852857,1.039642,0.867857,1.033642,0.868236,1.033472,0.872052,1.031564,0.876857,1.029642,0.878000,1.029000,0.881798,1.026151,0.886572,1.023287,0.887000,1.023000,0.891000,1.020000,0.891536,1.019536,0.895288,1.015784,0.899000,1.013000,0.900000,1.012000,0.902784,1.008288,
0.906536,1.004536,0.907000,1.004000,0.910000,1.000000,0.910287,0.999572,0.913151,0.994798,0.916000,0.991000,0.916642,0.989857,0.918564,0.985052,0.920472,0.981236,0.920642,0.980857,0.926642,0.965857,0.926903,0.964981,0.928903,0.954981,0.929000,0.954000,0.929000,0.948496,0.929903,0.943981,0.930000,0.943000,0.930000,-0.892000,0.929903,-0.892981,0.929000,-0.897496,
0.929000,-0.903000,0.928903,-0.903981,0.926903,-0.913981,0.926642,-0.914857,0.920642,-0.929857,0.920472,-0.930236,0.918564,-0.934052,0.916642,-0.938857,0.916000,-0.940000,0.913151,-0.943798,0.910287,-0.948572,0.910000,-0.949000,0.907000,-0.953000,0.906536,-0.953536,0.902784,-0.957288,0.900000,-0.961000,0.899000,-0.962000,0.895288,-0.964784,0.891536,-0.968536,0.891000,-0.969000,
0.887000,-0.972000,0.886572,-0.972287,0.881798,-0.975151,0.878000,-0.978000,0.876857,-0.978642,0.872052,-0.980564,0.868236,-0.982472,0.867857,-0.982642,0.852857,-0.988642,0.851981,-0.988903,0.841981,-0.990903,0.841000,-0.991000,0.835496,-0.991000,0.830981,-0.991903,0.830000,-0.992000,-0.480000,-0.992000,-0.480981,-0.991903,-0.485496,-0.991000,-0.491000,-0.991000,-0.491981,-0.990903,
-0.501981,-0.988903,-0.502857,-0.988642,-0.517857,-0.982642,-0.518236,-0.982472,-0.522052,-0.980564,-0.526857,-0.978642,-0.528000,-0.978000,-0.531798,-0.975151,-0.536572,-0.972287,-0.537000,-0.972000,-0.541000,-0.969000,-0.541536,-0.968536,-0.545288,-0.964784,-0.549000,-0.962000,-0.550000,-0.961000,-0.552784,-0.957288,-0.556536,-0.953536,-0.557000,-0.953000,-0.560000,-0.949000,-0.560287,-0.948572,
-0.563151,-0.943798,-0.566000,-0.940000,-0.566642,-0.938857,-0.568564,-0.934052,-0.570472,-0.930236,-0.570642,-0.929857,-0.576642,-0.914857,-0.576903,-0.913981,-0.578903,-0.903981,-0.579000,-0.903000,-0.579000,-0.897496,-0.579903,-0.892981,-0.580000,-0.892000,-0.580000,0.943000,-0.579903,0.943981,-0.579000,0.948496,-0.579000,0.954000,-0.578903,0.954981,-0.576903,0.964981,-0.576642,0.965857,
-0.570642,0.980857,-0.570472,0.981236,-0.568564,0.985052,-0.566642,0.989857,-0.566000,0.991000,-0.563151,0.994798,-0.560287,0.999572,-0.560000,1.000000,-0.557000,1.004000,-0.556536,1.004536,-0.552784,1.008288,-0.550000,1.012000,-0.549000,1.013000,-0.545288,1.015784,-0.541536,1.019536,-0.541000,1.020000,-0.537000,1.023000,-0.536572,1.023287,-0.531798,1.026151,-0.528000,1.029000,
-0.526857,1.029642,-0.522052,1.031564,-0.518236,1.033472,-0.517857,1.033642,-0.502857,1.039642,-0.501981,1.039903,-0.491981,1.041903,-0.491000,1.042000,-0.485496,1.042000,-0.480981,1.042903,-0.480000,1.043000,0.830000,1.043000,0.830981,1.042903,0.830981,1.042903,$1*%
%AMFreePoly3*
4,1,153,0.805981,0.429903,0.810496,0.429000,0.816000,0.429000,0.816981,0.428903,0.826981,0.426903,0.827857,0.426642,0.842857,0.420642,0.843236,0.420472,0.847052,0.418564,0.851857,0.416642,0.853000,0.416000,0.856798,0.413151,0.861572,0.410287,0.862000,0.410000,0.866000,0.407000,0.866536,0.406536,0.870288,0.402784,0.874000,0.400000,0.875000,0.399000,0.877784,0.395288,
0.881536,0.391536,0.882000,0.391000,0.885000,0.387000,0.885287,0.386572,0.888151,0.381798,0.891000,0.378000,0.891642,0.376857,0.893564,0.372052,0.895472,0.368236,0.895642,0.367857,0.901642,0.352857,0.901903,0.351981,0.903903,0.341981,0.904000,0.341000,0.904000,0.335496,0.904903,0.330981,0.905000,0.330000,0.905000,-0.330000,0.904903,-0.330981,0.904000,-0.335496,
0.904000,-0.341000,0.903903,-0.341981,0.901903,-0.351981,0.901642,-0.352857,0.895642,-0.367857,0.895472,-0.368236,0.893564,-0.372052,0.891642,-0.376857,0.891000,-0.378000,0.888151,-0.381798,0.885287,-0.386572,0.885000,-0.387000,0.882000,-0.391000,0.881536,-0.391536,0.877784,-0.395288,0.875000,-0.399000,0.874000,-0.400000,0.870288,-0.402784,0.866536,-0.406536,0.866000,-0.407000,
0.862000,-0.410000,0.861572,-0.410287,0.856798,-0.413151,0.853000,-0.416000,0.851857,-0.416642,0.847052,-0.418564,0.843236,-0.420472,0.842857,-0.420642,0.827857,-0.426642,0.826981,-0.426903,0.816981,-0.428903,0.816000,-0.429000,0.810496,-0.429000,0.805981,-0.429903,0.805000,-0.430000,-0.305000,-0.430000,-0.305981,-0.429903,-0.310496,-0.429000,-0.316000,-0.429000,-0.316981,-0.428903,
-0.326981,-0.426903,-0.327857,-0.426642,-0.342857,-0.420642,-0.343236,-0.420472,-0.347052,-0.418564,-0.351857,-0.416642,-0.353000,-0.416000,-0.356798,-0.413151,-0.361572,-0.410287,-0.362000,-0.410000,-0.366000,-0.407000,-0.366536,-0.406536,-0.370288,-0.402784,-0.374000,-0.400000,-0.375000,-0.399000,-0.377784,-0.395288,-0.381536,-0.391536,-0.382000,-0.391000,-0.385000,-0.387000,-0.385287,-0.386572,
-0.388151,-0.381798,-0.391000,-0.378000,-0.391642,-0.376857,-0.393564,-0.372052,-0.395472,-0.368236,-0.395642,-0.367857,-0.401642,-0.352857,-0.401903,-0.351981,-0.403903,-0.341981,-0.404000,-0.341000,-0.404000,-0.335496,-0.404903,-0.330981,-0.405000,-0.330000,-0.405000,0.330000,-0.404903,0.330981,-0.404000,0.335496,-0.404000,0.341000,-0.403903,0.341981,-0.401903,0.351981,-0.401642,0.352857,
-0.395642,0.367857,-0.395472,0.368236,-0.393564,0.372052,-0.391642,0.376857,-0.391000,0.378000,-0.388151,0.381798,-0.385287,0.386572,-0.385000,0.387000,-0.382000,0.391000,-0.381536,0.391536,-0.377784,0.395288,-0.375000,0.399000,-0.374000,0.400000,-0.370288,0.402784,-0.366536,0.406536,-0.366000,0.407000,-0.362000,0.410000,-0.361572,0.410287,-0.356798,0.413151,-0.353000,0.416000,
-0.351857,0.416642,-0.347052,0.418564,-0.343236,0.420472,-0.342857,0.420642,-0.327857,0.426642,-0.326981,0.426903,-0.316981,0.428903,-0.316000,0.429000,-0.310496,0.429000,-0.305981,0.429903,-0.305000,0.430000,0.805000,0.430000,0.805981,0.429903,0.805981,0.429903,$1*%
%AMFreePoly4*
4,1,222,0.131581,0.304743,0.133810,0.304000,0.135000,0.304000,0.136581,0.303743,0.138810,0.303000,0.140000,0.303000,0.141581,0.302743,0.144581,0.301743,0.145236,0.301472,0.146920,0.300630,0.149581,0.299743,0.151536,0.298536,0.152964,0.297108,0.154236,0.296472,0.155536,0.295536,0.156964,0.294108,0.158236,0.293472,0.159536,0.292536,0.167536,0.284536,0.168472,0.283236,
0.169108,0.281964,0.170536,0.280536,0.171472,0.279236,0.172108,0.277964,0.173536,0.276536,0.174743,0.274581,0.175630,0.271920,0.176472,0.270236,0.176743,0.269581,0.177743,0.266581,0.178000,0.265000,0.178000,0.263810,0.178743,0.261581,0.179000,0.260000,0.179000,0.258810,0.179743,0.256581,0.180000,0.255000,0.180000,0.045496,0.180903,0.040981,0.181000,0.040000,
0.181000,0.034496,0.182813,0.025428,0.188564,0.011052,0.190472,0.007236,0.190642,0.006857,0.192396,0.002472,0.195000,-0.001000,0.195287,-0.001428,0.198151,-0.006201,0.200784,-0.009712,0.204536,-0.013464,0.205000,-0.014000,0.207571,-0.017428,0.211000,-0.020000,0.211536,-0.020464,0.215288,-0.024216,0.218798,-0.026849,0.223572,-0.029713,0.224000,-0.030000,0.227472,-0.032604,
0.231857,-0.034358,0.232236,-0.034528,0.236052,-0.036436,0.250428,-0.042186,0.259496,-0.044000,0.265000,-0.044000,0.265981,-0.044097,0.270496,-0.045000,1.005000,-0.045000,1.006581,-0.045257,1.008810,-0.046000,1.010000,-0.046000,1.011581,-0.046257,1.013810,-0.047000,1.015000,-0.047000,1.016581,-0.047257,1.019581,-0.048257,1.020236,-0.048528,1.021920,-0.049370,1.024581,-0.050257,
1.026536,-0.051464,1.027964,-0.052892,1.029236,-0.053528,1.030536,-0.054464,1.031964,-0.055892,1.033236,-0.056528,1.034536,-0.057464,1.042536,-0.065464,1.043472,-0.066764,1.044108,-0.068036,1.045536,-0.069464,1.046472,-0.070764,1.047108,-0.072036,1.048536,-0.073464,1.049743,-0.075419,1.050630,-0.078080,1.051472,-0.079764,1.051743,-0.080419,1.052743,-0.083419,1.053000,-0.085000,
1.053000,-0.086190,1.053743,-0.088419,1.054000,-0.090000,1.054000,-0.091190,1.054743,-0.093419,1.055000,-0.095000,1.055000,-0.255000,1.054743,-0.256581,1.054000,-0.258810,1.054000,-0.260000,1.053743,-0.261581,1.053000,-0.263810,1.053000,-0.265000,1.052743,-0.266581,1.051743,-0.269581,1.051472,-0.270236,1.050630,-0.271920,1.049743,-0.274581,1.048536,-0.276536,1.047108,-0.277964,
1.046472,-0.279236,1.045536,-0.280536,1.044108,-0.281964,1.043472,-0.283236,1.042536,-0.284536,1.034536,-0.292536,1.033236,-0.293472,1.031964,-0.294108,1.030536,-0.295536,1.029236,-0.296472,1.027964,-0.297108,1.026536,-0.298536,1.024581,-0.299743,1.021920,-0.300630,1.020236,-0.301472,1.019581,-0.301743,1.016581,-0.302743,1.015000,-0.303000,1.013810,-0.303000,1.011581,-0.303743,
1.010000,-0.304000,1.008810,-0.304000,1.006581,-0.304743,1.005000,-0.305000,-0.130000,-0.305000,-0.131581,-0.304743,-0.133810,-0.304000,-0.135000,-0.304000,-0.136581,-0.303743,-0.138810,-0.303000,-0.140000,-0.303000,-0.141581,-0.302743,-0.144581,-0.301743,-0.145236,-0.301472,-0.146920,-0.300630,-0.149581,-0.299743,-0.151536,-0.298536,-0.152964,-0.297108,-0.154236,-0.296472,-0.155536,-0.295536,
-0.156964,-0.294108,-0.158236,-0.293472,-0.159536,-0.292536,-0.167536,-0.284536,-0.168472,-0.283236,-0.169108,-0.281964,-0.170536,-0.280536,-0.171472,-0.279236,-0.172108,-0.277964,-0.173536,-0.276536,-0.174743,-0.274581,-0.175630,-0.271920,-0.176472,-0.270236,-0.176743,-0.269581,-0.177743,-0.266581,-0.178000,-0.265000,-0.178000,-0.263810,-0.178743,-0.261581,-0.179000,-0.260000,-0.179000,-0.258810,
-0.179743,-0.256581,-0.180000,-0.255000,-0.180000,0.255000,-0.179743,0.256581,-0.179000,0.258810,-0.179000,0.260000,-0.178743,0.261581,-0.178000,0.263810,-0.178000,0.265000,-0.177743,0.266581,-0.176743,0.269581,-0.176472,0.270236,-0.175630,0.271920,-0.174743,0.274581,-0.173536,0.276536,-0.172108,0.277964,-0.171472,0.279236,-0.170536,0.280536,-0.169108,0.281964,-0.168472,0.283236,
-0.167536,0.284536,-0.159536,0.292536,-0.158236,0.293472,-0.156964,0.294108,-0.155536,0.295536,-0.154236,0.296472,-0.152964,0.297108,-0.151536,0.298536,-0.149581,0.299743,-0.146920,0.300630,-0.145236,0.301472,-0.144581,0.301743,-0.141581,0.302743,-0.140000,0.303000,-0.138810,0.303000,-0.136581,0.303743,-0.135000,0.304000,-0.133810,0.304000,-0.131581,0.304743,-0.130000,0.305000,
0.130000,0.305000,0.131581,0.304743,0.131581,0.304743,$1*%
%AMFreePoly5*
4,1,222,0.131581,0.304743,0.133810,0.304000,0.135000,0.304000,0.136581,0.303743,0.138810,0.303000,0.140000,0.303000,0.141581,0.302743,0.144581,0.301743,0.145236,0.301472,0.146920,0.300630,0.149581,0.299743,0.151536,0.298536,0.152964,0.297108,0.154236,0.296472,0.155536,0.295536,0.156964,0.294108,0.158236,0.293472,0.159536,0.292536,0.167536,0.284536,0.168472,0.283236,
0.169108,0.281964,0.170536,0.280536,0.171472,0.279236,0.172108,0.277964,0.173536,0.276536,0.174743,0.274581,0.175630,0.271920,0.176472,0.270236,0.176743,0.269581,0.177743,0.266581,0.178000,0.265000,0.178000,0.263810,0.178743,0.261581,0.179000,0.260000,0.179000,0.258810,0.179743,0.256581,0.180000,0.255000,0.180000,-0.255000,0.179743,-0.256581,0.179000,-0.258810,
0.179000,-0.260000,0.178743,-0.261581,0.178000,-0.263810,0.178000,-0.265000,0.177743,-0.266581,0.176743,-0.269581,0.176472,-0.270236,0.175630,-0.271920,0.174743,-0.274581,0.173536,-0.276536,0.172108,-0.277964,0.171472,-0.279236,0.170536,-0.280536,0.169108,-0.281964,0.168472,-0.283236,0.167536,-0.284536,0.159536,-0.292536,0.158236,-0.293472,0.156964,-0.294108,0.155536,-0.295536,
0.154236,-0.296472,0.152964,-0.297108,0.151536,-0.298536,0.149581,-0.299743,0.146920,-0.300630,0.145236,-0.301472,0.144581,-0.301743,0.141581,-0.302743,0.140000,-0.303000,0.138810,-0.303000,0.136581,-0.303743,0.135000,-0.304000,0.133810,-0.304000,0.131581,-0.304743,0.130000,-0.305000,-1.005000,-0.305000,-1.006581,-0.304743,-1.008810,-0.304000,-1.010000,-0.304000,-1.011581,-0.303743,
-1.013810,-0.303000,-1.015000,-0.303000,-1.016581,-0.302743,-1.019581,-0.301743,-1.020236,-0.301472,-1.021920,-0.300630,-1.024581,-0.299743,-1.026536,-0.298536,-1.027964,-0.297108,-1.029236,-0.296472,-1.030536,-0.295536,-1.031964,-0.294108,-1.033236,-0.293472,-1.034536,-0.292536,-1.042536,-0.284536,-1.043472,-0.283236,-1.044108,-0.281964,-1.045536,-0.280536,-1.046472,-0.279236,-1.047108,-0.277964,
-1.048536,-0.276536,-1.049743,-0.274581,-1.050630,-0.271920,-1.051472,-0.270236,-1.051743,-0.269581,-1.052743,-0.266581,-1.053000,-0.265000,-1.053000,-0.263810,-1.053743,-0.261581,-1.054000,-0.260000,-1.054000,-0.258810,-1.054743,-0.256581,-1.055000,-0.255000,-1.055000,-0.095000,-1.054743,-0.093419,-1.054000,-0.091190,-1.054000,-0.090000,-1.053743,-0.088419,-1.053000,-0.086190,-1.053000,-0.085000,
-1.052743,-0.083419,-1.051743,-0.080419,-1.051472,-0.079764,-1.050630,-0.078080,-1.049743,-0.075419,-1.048536,-0.073464,-1.047108,-0.072036,-1.046472,-0.070764,-1.045536,-0.069464,-1.044108,-0.068036,-1.043472,-0.066764,-1.042536,-0.065464,-1.034536,-0.057464,-1.033236,-0.056528,-1.031964,-0.055892,-1.030536,-0.054464,-1.029236,-0.053528,-1.027964,-0.052892,-1.026536,-0.051464,-1.024581,-0.050257,
-1.021920,-0.049370,-1.020236,-0.048528,-1.019581,-0.048257,-1.016581,-0.047257,-1.015000,-0.047000,-1.013810,-0.047000,-1.011581,-0.046257,-1.010000,-0.046000,-1.008810,-0.046000,-1.006581,-0.045257,-1.005000,-0.045000,-0.270496,-0.045000,-0.265981,-0.044097,-0.265000,-0.044000,-0.259496,-0.044000,-0.250428,-0.042186,-0.236052,-0.036436,-0.232236,-0.034528,-0.231857,-0.034358,-0.227472,-0.032604,
-0.224000,-0.030000,-0.223572,-0.029713,-0.218798,-0.026849,-0.215288,-0.024216,-0.211536,-0.020464,-0.211000,-0.020000,-0.207571,-0.017428,-0.205000,-0.014000,-0.204536,-0.013464,-0.200784,-0.009712,-0.198151,-0.006201,-0.195287,-0.001428,-0.195000,-0.001000,-0.192396,0.002472,-0.190642,0.006857,-0.190472,0.007236,-0.188564,0.011052,-0.182813,0.025428,-0.181000,0.034496,-0.181000,0.040000,
-0.180903,0.040981,-0.180000,0.045496,-0.180000,0.255000,-0.179743,0.256581,-0.179000,0.258810,-0.179000,0.260000,-0.178743,0.261581,-0.178000,0.263810,-0.178000,0.265000,-0.177743,0.266581,-0.176743,0.269581,-0.176472,0.270236,-0.175630,0.271920,-0.174743,0.274581,-0.173536,0.276536,-0.172108,0.277964,-0.171472,0.279236,-0.170536,0.280536,-0.169108,0.281964,-0.168472,0.283236,
-0.167536,0.284536,-0.159536,0.292536,-0.158236,0.293472,-0.156964,0.294108,-0.155536,0.295536,-0.154236,0.296472,-0.152964,0.297108,-0.151536,0.298536,-0.149581,0.299743,-0.146920,0.300630,-0.145236,0.301472,-0.144581,0.301743,-0.141581,0.302743,-0.140000,0.303000,-0.138810,0.303000,-0.136581,0.303743,-0.135000,0.304000,-0.133810,0.304000,-0.131581,0.304743,-0.130000,0.305000,
0.130000,0.305000,0.131581,0.304743,0.131581,0.304743,$1*%
%AMFreePoly6*
4,1,17,0.403536,0.703536,0.405000,0.700000,0.405000,0.005000,1.100000,0.005000,1.103536,0.003536,1.105000,0.000000,1.105000,-0.800000,1.103536,-0.803536,1.100000,-0.805000,-0.400000,-0.805000,-0.403536,-0.803536,-0.405000,-0.800000,-0.405000,0.700000,-0.403536,0.703536,-0.400000,0.705000,0.400000,0.705000,0.403536,0.703536,0.403536,0.703536,$1*%
%AMFreePoly7*
4,1,17,0.403536,0.703536,0.405000,0.700000,0.405000,-0.800000,0.403536,-0.803536,0.400000,-0.805000,-1.100000,-0.805000,-1.103536,-0.803536,-1.105000,-0.800000,-1.105000,0.000000,-1.103536,0.003536,-1.100000,0.005000,-0.405000,0.005000,-0.405000,0.700000,-0.403536,0.703536,-0.400000,0.705000,0.400000,0.705000,0.403536,0.703536,0.403536,0.703536,$1*%
G04 Aperture macros list end*
%TA.AperFunction,SMDPad,CuDef*%
%ADD10RoundRect,0.140000X0.170000X-0.140000X0.170000X0.140000X-0.170000X0.140000X-0.170000X-0.140000X0*%
%TD*%
%TA.AperFunction,SMDPad,CuDef*%
%ADD11RoundRect,0.140000X0.140000X0.170000X-0.140000X0.170000X-0.140000X-0.170000X0.140000X-0.170000X0*%
%TD*%
%TA.AperFunction,SMDPad,CuDef*%
%ADD12RoundRect,0.218750X0.256250X-0.218750X0.256250X0.218750X-0.256250X0.218750X-0.256250X-0.218750X0*%
%TD*%
%TA.AperFunction,SMDPad,CuDef*%
%ADD13RoundRect,0.250000X-0.650000X1.000000X-0.650000X-1.000000X0.650000X-1.000000X0.650000X1.000000X0*%
%TD*%
%TA.AperFunction,SMDPad,CuDef*%
%ADD14RoundRect,0.140000X-0.140000X-0.170000X0.140000X-0.170000X0.140000X0.170000X-0.140000X0.170000X0*%
%TD*%
%TA.AperFunction,SMDPad,CuDef*%
%ADD15RoundRect,0.135000X-0.135000X-0.185000X0.135000X-0.185000X0.135000X0.185000X-0.135000X0.185000X0*%
%TD*%
%TA.AperFunction,SMDPad,CuDef*%
%ADD16RoundRect,0.135000X-0.185000X0.135000X-0.185000X-0.135000X0.185000X-0.135000X0.185000X0.135000X0*%
%TD*%
%TA.AperFunction,SMDPad,CuDef*%
%ADD17RoundRect,0.135000X0.185000X-0.135000X0.185000X0.135000X-0.185000X0.135000X-0.185000X-0.135000X0*%
%TD*%
%TA.AperFunction,SMDPad,CuDef*%
%ADD18R,1.550000X0.600000*%
%TD*%
%TA.AperFunction,SMDPad,CuDef*%
%ADD19R,1.800000X1.200000*%
%TD*%
%TA.AperFunction,SMDPad,CuDef*%
%ADD20RoundRect,0.250000X-0.325000X-0.650000X0.325000X-0.650000X0.325000X0.650000X-0.325000X0.650000X0*%
%TD*%
%TA.AperFunction,SMDPad,CuDef*%
%ADD21R,1.400000X1.200000*%
%TD*%
%TA.AperFunction,SMDPad,CuDef*%
%ADD22RoundRect,0.225000X-0.250000X0.225000X-0.250000X-0.225000X0.250000X-0.225000X0.250000X0.225000X0*%
%TD*%
%TA.AperFunction,SMDPad,CuDef*%
%ADD23RoundRect,0.250000X0.650000X-0.325000X0.650000X0.325000X-0.650000X0.325000X-0.650000X-0.325000X0*%
%TD*%
%TA.AperFunction,SMDPad,CuDef*%
%ADD24R,1.270000X0.558800*%
%TD*%
%TA.AperFunction,SMDPad,CuDef*%
%ADD25RoundRect,0.135000X0.135000X0.185000X-0.135000X0.185000X-0.135000X-0.185000X0.135000X-0.185000X0*%
%TD*%
%TA.AperFunction,SMDPad,CuDef*%
%ADD26RoundRect,0.050000X-0.075000X0.350000X-0.075000X-0.350000X0.075000X-0.350000X0.075000X0.350000X0*%
%TD*%
%TA.AperFunction,SMDPad,CuDef*%
%ADD27FreePoly0,270.000000*%
%TD*%
%TA.AperFunction,ComponentPad*%
%ADD28C,0.450000*%
%TD*%
%TA.AperFunction,SMDPad,CuDef*%
%ADD29FreePoly1,270.000000*%
%TD*%
%TA.AperFunction,SMDPad,CuDef*%
%ADD30FreePoly2,270.000000*%
%TD*%
%TA.AperFunction,SMDPad,CuDef*%
%ADD31FreePoly3,270.000000*%
%TD*%
%TA.AperFunction,SMDPad,CuDef*%
%ADD32FreePoly4,270.000000*%
%TD*%
%TA.AperFunction,SMDPad,CuDef*%
%ADD33RoundRect,0.049500X-0.225500X0.100500X-0.225500X-0.100500X0.225500X-0.100500X0.225500X0.100500X0*%
%TD*%
%TA.AperFunction,SMDPad,CuDef*%
%ADD34FreePoly5,270.000000*%
%TD*%
%TA.AperFunction,SMDPad,CuDef*%
%ADD35RoundRect,0.075000X0.075000X-0.700000X0.075000X0.700000X-0.075000X0.700000X-0.075000X-0.700000X0*%
%TD*%
%TA.AperFunction,SMDPad,CuDef*%
%ADD36RoundRect,0.075000X0.700000X-0.075000X0.700000X0.075000X-0.700000X0.075000X-0.700000X-0.075000X0*%
%TD*%
%TA.AperFunction,SMDPad,CuDef*%
%ADD37RoundRect,0.140000X-0.170000X0.140000X-0.170000X-0.140000X0.170000X-0.140000X0.170000X0.140000X0*%
%TD*%
%TA.AperFunction,SMDPad,CuDef*%
%ADD38RoundRect,0.150000X-0.587500X-0.150000X0.587500X-0.150000X0.587500X0.150000X-0.587500X0.150000X0*%
%TD*%
%TA.AperFunction,SMDPad,CuDef*%
%ADD39RoundRect,0.027500X0.082500X-0.292500X0.082500X0.292500X-0.082500X0.292500X-0.082500X-0.292500X0*%
%TD*%
%TA.AperFunction,SMDPad,CuDef*%
%ADD40RoundRect,0.027500X0.292500X-0.082500X0.292500X0.082500X-0.292500X0.082500X-0.292500X-0.082500X0*%
%TD*%
%TA.AperFunction,SMDPad,CuDef*%
%ADD41R,1.700000X1.540000*%
%TD*%
%TA.AperFunction,SMDPad,CuDef*%
%ADD42R,0.900000X1.200000*%
%TD*%
%TA.AperFunction,SMDPad,CuDef*%
%ADD43FreePoly6,0.000000*%
%TD*%
%TA.AperFunction,SMDPad,CuDef*%
%ADD44FreePoly7,0.000000*%
%TD*%
%TA.AperFunction,SMDPad,CuDef*%
%ADD45RoundRect,0.225000X-0.225000X-0.250000X0.225000X-0.250000X0.225000X0.250000X-0.225000X0.250000X0*%
%TD*%
%TA.AperFunction,SMDPad,CuDef*%
%ADD46R,0.600000X1.150000*%
%TD*%
%TA.AperFunction,SMDPad,CuDef*%
%ADD47R,0.300000X1.150000*%
%TD*%
%TA.AperFunction,ComponentPad*%
%ADD48O,1.000000X2.100000*%
%TD*%
%TA.AperFunction,ComponentPad*%
%ADD49O,1.000000X1.800000*%
%TD*%
%TA.AperFunction,ViaPad*%
%ADD50C,0.550000*%
%TD*%
%TA.AperFunction,Conductor*%
%ADD51C,0.700000*%
%TD*%
%TA.AperFunction,Conductor*%
%ADD52C,0.200000*%
%TD*%
%TA.AperFunction,Conductor*%
%ADD53C,0.500000*%
%TD*%
%TA.AperFunction,Conductor*%
%ADD54C,1.000000*%
%TD*%
%TA.AperFunction,Conductor*%
%ADD55C,0.600000*%
%TD*%
%TA.AperFunction,Conductor*%
%ADD56C,0.550000*%
%TD*%
%TA.AperFunction,Conductor*%
%ADD57C,0.350000*%
%TD*%
%TA.AperFunction,Conductor*%
%ADD58C,1.100000*%
%TD*%
%TA.AperFunction,Conductor*%
%ADD59C,0.400000*%
%TD*%
%TA.AperFunction,Conductor*%
%ADD60C,0.250000*%
%TD*%
G04 APERTURE END LIST*
D10*
%TO.P,C27,1*%
%TO.N,+3V3*%
X136125000Y-97505000D03*
%TO.P,C27,2*%
%TO.N,DGND*%
X136125000Y-96545000D03*
%TD*%
D11*
%TO.P,C31,1*%
%TO.N,+3V3*%
X145830000Y-101745000D03*
%TO.P,C31,2*%
%TO.N,AGND*%
X144870000Y-101745000D03*
%TD*%
D12*
%TO.P,D2,1,K*%
%TO.N,DGND*%
X147750000Y-102850000D03*
%TO.P,D2,2,A*%
%TO.N,Net-(D2-A)*%
X147750000Y-101275000D03*
%TD*%
%TO.P,D4,1,K*%
%TO.N,DGND*%
X149450000Y-102850000D03*
%TO.P,D4,2,A*%
%TO.N,Net-(D4-A)*%
X149450000Y-101275000D03*
%TD*%
D13*
%TO.P,D1,1,K*%
%TO.N,Net-(D1-K)*%
X148450000Y-68595000D03*
%TO.P,D1,2,A*%
%TO.N,/Project Architecture/V_USB*%
X148450000Y-72595000D03*
%TD*%
D14*
%TO.P,C17,1*%
%TO.N,Net-(U1-REGOUT)*%
X150730000Y-83825000D03*
%TO.P,C17,2*%
%TO.N,DGND*%
X151690000Y-83825000D03*
%TD*%
D11*
%TO.P,C28,1*%
%TO.N,+3V3*%
X145830000Y-100745000D03*
%TO.P,C28,2*%
%TO.N,AGND*%
X144870000Y-100745000D03*
%TD*%
D15*
%TO.P,R17,1*%
%TO.N,/Project Architecture/USB_CC2*%
X132020000Y-74495000D03*
%TO.P,R17,2*%
%TO.N,PGND*%
X133040000Y-74495000D03*
%TD*%
D16*
%TO.P,R11,1*%
%TO.N,+3V3*%
X155537500Y-95077500D03*
%TO.P,R11,2*%
%TO.N,/Project Architecture/UART2_RX*%
X155537500Y-96097500D03*
%TD*%
D13*
%TO.P,D3,1,K*%
%TO.N,Net-(D1-K)*%
X157250000Y-68595000D03*
%TO.P,D3,2,A*%
%TO.N,+9V*%
X157250000Y-72595000D03*
%TD*%
D17*
%TO.P,R8,1*%
%TO.N,/Project Architecture/Microcontroller/DFU_Enable*%
X151600000Y-98710000D03*
%TO.P,R8,2*%
%TO.N,DGND*%
X151600000Y-97690000D03*
%TD*%
D18*
%TO.P,J5,1,1*%
%TO.N,+9V*%
X160400000Y-80495000D03*
%TO.P,J5,2,2*%
%TO.N,PGND*%
X160400000Y-79495000D03*
%TO.P,J5,3,3*%
%TO.N,/Project Architecture/UART4_TX*%
X160400000Y-78495000D03*
%TO.P,J5,4,4*%
%TO.N,/Project Architecture/UART4_RX*%
X160400000Y-77495000D03*
%TO.P,J5,5,5*%
%TO.N,DGND*%
X160400000Y-76495000D03*
%TO.P,J5,6,6*%
%TO.N,/Project Architecture/SBUS_TX*%
X160400000Y-75495000D03*
D19*
%TO.P,J5,MP,MP*%
%TO.N,PGND*%
X164275000Y-81795000D03*
X164275000Y-74195000D03*
%TD*%
D11*
%TO.P,C22,1*%
%TO.N,+3V3*%
X147835000Y-81500000D03*
%TO.P,C22,2*%
%TO.N,DGND*%
X146875000Y-81500000D03*
%TD*%
%TO.P,C29,1*%
%TO.N,Net-(U3-VCAP_2)*%
X140085000Y-86295000D03*
%TO.P,C29,2*%
%TO.N,DGND*%
X139125000Y-86295000D03*
%TD*%
D10*
%TO.P,C20,1*%
%TO.N,+3V3*%
X154350000Y-72200000D03*
%TO.P,C20,2*%
%TO.N,DGND*%
X154350000Y-71240000D03*
%TD*%
D20*
%TO.P,C21,1*%
%TO.N,+9V*%
X156600000Y-86325000D03*
%TO.P,C21,2*%
%TO.N,PGND*%
X159550000Y-86325000D03*
%TD*%
D15*
%TO.P,R14,1*%
%TO.N,+VBAT*%
X135490000Y-84400000D03*
%TO.P,R14,2*%
%TO.N,/Project Architecture/ANA_ADC_VBAT*%
X136510000Y-84400000D03*
%TD*%
D10*
%TO.P,C24,1*%
%TO.N,+3V3*%
X149150000Y-88855000D03*
%TO.P,C24,2*%
%TO.N,DGND*%
X149150000Y-87895000D03*
%TD*%
D21*
%TO.P,Y1,1,1*%
%TO.N,/Project Architecture/Microcontroller/CLK_OUT*%
X139800000Y-101200000D03*
%TO.P,Y1,2,2*%
%TO.N,+3V3*%
X137600000Y-101200000D03*
%TO.P,Y1,3,GND*%
%TO.N,DGND*%
X137600000Y-102800000D03*
%TO.P,Y1,4,GND*%
X139800000Y-102800000D03*
%TD*%
D14*
%TO.P,C23,1*%
%TO.N,+3V3*%
X150730000Y-84875000D03*
%TO.P,C23,2*%
%TO.N,DGND*%
X151690000Y-84875000D03*
%TD*%
D22*
%TO.P,C3,1*%
%TO.N,+3V3*%
X135800000Y-101420000D03*
%TO.P,C3,2*%
%TO.N,DGND*%
X135800000Y-102970000D03*
%TD*%
D16*
%TO.P,R5,1*%
%TO.N,Net-(PS1-FB)*%
X162550000Y-86915000D03*
%TO.P,R5,2*%
%TO.N,PGND*%
X162550000Y-87935000D03*
%TD*%
D10*
%TO.P,C18,1*%
%TO.N,+VBAT*%
X162550000Y-89905000D03*
%TO.P,C18,2*%
%TO.N,PGND*%
X162550000Y-88945000D03*
%TD*%
D16*
%TO.P,R1,1*%
%TO.N,+3V3*%
X136050000Y-92485000D03*
%TO.P,R1,2*%
%TO.N,/Project Architecture/I2C1_SDA*%
X136050000Y-93505000D03*
%TD*%
D23*
%TO.P,C11,1*%
%TO.N,+VBAT*%
X164250000Y-91925000D03*
%TO.P,C11,2*%
%TO.N,PGND*%
X164250000Y-88975000D03*
%TD*%
D10*
%TO.P,C1,1*%
%TO.N,Net-(D1-K)*%
X154325000Y-69075000D03*
%TO.P,C1,2*%
%TO.N,PGND*%
X154325000Y-68115000D03*
%TD*%
D16*
%TO.P,R12,1*%
%TO.N,Net-(PS1-MODE)*%
X163650000Y-86625000D03*
%TO.P,R12,2*%
%TO.N,PGND*%
X163650000Y-87645000D03*
%TD*%
D15*
%TO.P,R4,1*%
%TO.N,/Project Architecture/Microcontroller/LED1*%
X150540000Y-93050000D03*
%TO.P,R4,2*%
%TO.N,Net-(D2-A)*%
X151560000Y-93050000D03*
%TD*%
D24*
%TO.P,U2,1,VIN*%
%TO.N,Net-(D1-K)*%
X151834800Y-69230001D03*
%TO.P,U2,2,VOUT*%
%TO.N,+3V3*%
X151834800Y-71059999D03*
%TO.P,U2,3,GND*%
%TO.N,DGND*%
X153765200Y-70145000D03*
%TD*%
D10*
%TO.P,C30,1*%
%TO.N,Net-(U3-VCAP_1)*%
X150575000Y-90275000D03*
%TO.P,C30,2*%
%TO.N,DGND*%
X150575000Y-89315000D03*
%TD*%
D25*
%TO.P,R13,1*%
%TO.N,/Project Architecture/ANA_ADC_VBAT*%
X136510000Y-85500000D03*
%TO.P,R13,2*%
%TO.N,AGND*%
X135490000Y-85500000D03*
%TD*%
D20*
%TO.P,C19,1*%
%TO.N,+9V*%
X156600000Y-83925000D03*
%TO.P,C19,2*%
%TO.N,PGND*%
X159550000Y-83925000D03*
%TD*%
D26*
%TO.P,PS1,1,EN*%
%TO.N,unconnected-(PS1-EN-Pad1)*%
X160725000Y-88225000D03*
%TO.P,PS1,2,FB*%
%TO.N,Net-(PS1-FB)*%
X160225000Y-88225000D03*
D27*
%TO.P,PS1,3,GND*%
%TO.N,PGND*%
X159713000Y-88225000D03*
D28*
%TO.P,PS1,4,VOUT*%
%TO.N,+9V*%
X158925000Y-88375000D03*
X158137000Y-88375000D03*
X157400000Y-88375000D03*
D29*
X158137000Y-88700000D03*
D28*
X158925000Y-89025000D03*
X158137000Y-89025000D03*
X157400000Y-89025000D03*
%TO.P,PS1,5,SW*%
%TO.N,unconnected-(PS1-SW-Pad5)_4*%
X158925000Y-90325000D03*
%TO.N,unconnected-(PS1-SW-Pad5)_3*%
X158137000Y-90325000D03*
%TO.N,unconnected-(PS1-SW-Pad5)_6*%
X157400000Y-90325000D03*
D30*
%TO.N,unconnected-(PS1-SW-Pad5)*%
X158137000Y-90650000D03*
D28*
%TO.N,unconnected-(PS1-SW-Pad5)_2*%
X158925000Y-90975000D03*
%TO.N,unconnected-(PS1-SW-Pad5)_5*%
X158137000Y-90975000D03*
%TO.N,unconnected-(PS1-SW-Pad5)_1*%
X157400000Y-90975000D03*
D31*
%TO.P,PS1,6,VIN*%
%TO.N,+VBAT*%
X160475000Y-90675000D03*
D32*
%TO.P,PS1,7,MODE*%
%TO.N,Net-(PS1-MODE)*%
X161400000Y-90475000D03*
D33*
%TO.P,PS1,8,SS/PG*%
%TO.N,unconnected-(PS1-SS{slash}PG-Pad8)*%
X161425000Y-89450000D03*
D34*
%TO.P,PS1,9,RT/SYNC*%
%TO.N,PGND*%
X161400000Y-88875000D03*
%TD*%
D16*
%TO.P,R2,1*%
%TO.N,+3V3*%
X136050000Y-94525000D03*
%TO.P,R2,2*%
%TO.N,/Project Architecture/I2C1_SCL*%
X136050000Y-95545000D03*
%TD*%
D15*
%TO.P,R7,1*%
%TO.N,/Project Architecture/Microcontroller/LED0*%
X150540000Y-92000000D03*
%TO.P,R7,2*%
%TO.N,Net-(D4-A)*%
X151560000Y-92000000D03*
%TD*%
D35*
%TO.P,U3,1,VBAT*%
%TO.N,unconnected-(U3-VBAT-Pad1)*%
X139600000Y-99195000D03*
%TO.P,U3,2,PC13*%
%TO.N,unconnected-(U3-PC13-Pad2)*%
X140100000Y-99195000D03*
%TO.P,U3,3,PC14*%
%TO.N,unconnected-(U3-PC14-Pad3)*%
X140600000Y-99195000D03*
%TO.P,U3,4,PC15*%
%TO.N,unconnected-(U3-PC15-Pad4)*%
X141100000Y-99195000D03*
%TO.P,U3,5,PH0*%
%TO.N,/Project Architecture/Microcontroller/CLK_OUT*%
X141600000Y-99195000D03*
%TO.P,U3,6,PH1*%
%TO.N,unconnected-(U3-PH1-Pad6)*%
X142100000Y-99195000D03*
%TO.P,U3,7,NRST*%
%TO.N,Net-(U3-NRST)*%
X142600000Y-99195000D03*
%TO.P,U3,8,PC0*%
%TO.N,/Project Architecture/ANA_ADC_VBAT*%
X143100000Y-99195000D03*
%TO.P,U3,9,PC1*%
%TO.N,/Project Architecture/ANA_ADC_CURR*%
X143600000Y-99195000D03*
%TO.P,U3,10,PC2*%
%TO.N,unconnected-(U3-PC2-Pad10)*%
X144100000Y-99195000D03*
%TO.P,U3,11,PC3*%
%TO.N,unconnected-(U3-PC3-Pad11)*%
X144600000Y-99195000D03*
%TO.P,U3,12,VSSA*%
%TO.N,AGND*%
X145100000Y-99195000D03*
%TO.P,U3,13,VDDA*%
%TO.N,+3V3*%
X145600000Y-99195000D03*
%TO.P,U3,14,PA0*%
%TO.N,/Project Architecture/UART4_TX*%
X146100000Y-99195000D03*
%TO.P,U3,15,PA1*%
%TO.N,/Project Architecture/UART4_RX*%
X146600000Y-99195000D03*
%TO.P,U3,16,PA2*%
%TO.N,unconnected-(U3-PA2-Pad16)*%
X147100000Y-99195000D03*
D36*
%TO.P,U3,17,PA3*%
%TO.N,/Project Architecture/UART2_RX*%
X149025000Y-97270000D03*
%TO.P,U3,18,VSS*%
%TO.N,DGND*%
X149025000Y-96770000D03*
%TO.P,U3,19,VDD*%
%TO.N,+3V3*%
X149025000Y-96270000D03*
%TO.P,U3,20,PA4*%
%TO.N,/Project Architecture/DIG_IMU_CS*%
X149025000Y-95770000D03*
%TO.P,U3,21,PA5*%
%TO.N,/Project Architecture/SPI1_SCK*%
X149025000Y-95270000D03*
%TO.P,U3,22,PA6*%
%TO.N,/Project Architecture/SPI1_SDI*%
X149025000Y-94770000D03*
%TO.P,U3,23,PA7*%
%TO.N,/Project Architecture/SPI1_SDO*%
X149025000Y-94270000D03*
%TO.P,U3,24,PC4*%
%TO.N,/Project Architecture/DIG_IMU_EXTI*%
X149025000Y-93770000D03*
%TO.P,U3,25,PC5*%
%TO.N,unconnected-(U3-PC5-Pad25)*%
X149025000Y-93270000D03*
%TO.P,U3,26,PB0*%
%TO.N,/Project Architecture/Microcontroller/LED1*%
X149025000Y-92770000D03*
%TO.P,U3,27,PB1*%
%TO.N,/Project Architecture/Microcontroller/LED0*%
X149025000Y-92270000D03*
%TO.P,U3,28,PB2*%
%TO.N,DGND*%
X149025000Y-91770000D03*
%TO.P,U3,29,PB10*%
%TO.N,unconnected-(U3-PB10-Pad29)*%
X149025000Y-91270000D03*
%TO.P,U3,30,PB11*%
%TO.N,unconnected-(U3-PB11-Pad30)*%
X149025000Y-90770000D03*
%TO.P,U3,31,VCAP_1*%
%TO.N,Net-(U3-VCAP_1)*%
X149025000Y-90270000D03*
%TO.P,U3,32,VDD*%
%TO.N,+3V3*%
X149025000Y-89770000D03*
D35*
%TO.P,U3,33,PB12*%
%TO.N,unconnected-(U3-PB12-Pad33)*%
X147100000Y-87845000D03*
%TO.P,U3,34,PB13*%
%TO.N,unconnected-(U3-PB13-Pad34)*%
X146600000Y-87845000D03*
%TO.P,U3,35,PB14*%
%TO.N,unconnected-(U3-PB14-Pad35)*%
X146100000Y-87845000D03*
%TO.P,U3,36,PB15*%
%TO.N,/Project Architecture/ESC_SIG_M3*%
X145600000Y-87845000D03*
%TO.P,U3,37,PC6*%
%TO.N,unconnected-(U3-PC6-Pad37)*%
X145100000Y-87845000D03*
%TO.P,U3,38,PC7*%
%TO.N,unconnected-(U3-PC7-Pad38)*%
X144600000Y-87845000D03*
%TO.P,U3,39,PC8*%
%TO.N,/Project Architecture/ESC_SIG_M4*%
X144100000Y-87845000D03*
%TO.P,U3,40,PC9*%
%TO.N,/Project Architecture/ESC_SIG_M2*%
X143600000Y-87845000D03*
%TO.P,U3,41,PA8*%
%TO.N,/Project Architecture/ESC_SIG_M1*%
X143100000Y-87845000D03*
%TO.P,U3,42,PA9*%
%TO.N,unconnected-(U3-PA9-Pad42)*%
X142600000Y-87845000D03*
%TO.P,U3,43,PA10*%
%TO.N,/Project Architecture/UART1_RX*%
X142100000Y-87845000D03*
%TO.P,U3,44,PA11*%
%TO.N,/Project Architecture/USB_+DATA*%
X141600000Y-87845000D03*
%TO.P,U3,45,PA12*%
%TO.N,/Project Architecture/USB_-DATA*%
X141100000Y-87845000D03*
%TO.P,U3,46,PA13*%
%TO.N,/Project Architecture/Microcontroller/SWDIO*%
X140600000Y-87845000D03*
%TO.P,U3,47,VCAP_2*%
%TO.N,Net-(U3-VCAP_2)*%
X140100000Y-87845000D03*
%TO.P,U3,48,VDD*%
%TO.N,+3V3*%
X139600000Y-87845000D03*
D36*
%TO.P,U3,49,PA14*%
%TO.N,/Project Architecture/Microcontroller/SWCLK*%
X137675000Y-89770000D03*
%TO.P,U3,50,PA15*%
%TO.N,unconnected-(U3-PA15-Pad50)*%
X137675000Y-90270000D03*
%TO.P,U3,51,PC10*%
%TO.N,unconnected-(U3-PC10-Pad51)*%
X137675000Y-90770000D03*
%TO.P,U3,52,PC11*%
%TO.N,unconnected-(U3-PC11-Pad52)*%
X137675000Y-91270000D03*
%TO.P,U3,53,PC12*%
%TO.N,/Project Architecture/UART5_TX*%
X137675000Y-91770000D03*
%TO.P,U3,54,PD2*%
%TO.N,/Project Architecture/UART5_RX*%
X137675000Y-92270000D03*
%TO.P,U3,55,PB3*%
%TO.N,unconnected-(U3-PB3-Pad55)*%
X137675000Y-92770000D03*
%TO.P,U3,56,PB4*%
%TO.N,unconnected-(U3-PB4-Pad56)*%
X137675000Y-93270000D03*
%TO.P,U3,57,PB5*%
%TO.N,unconnected-(U3-PB5-Pad57)*%
X137675000Y-93770000D03*
%TO.P,U3,58,PB6*%
%TO.N,unconnected-(U3-PB6-Pad58)*%
X137675000Y-94270000D03*
%TO.P,U3,59,PB7*%
%TO.N,unconnected-(U3-PB7-Pad59)*%
X137675000Y-94770000D03*
%TO.P,U3,60,BOOT0*%
%TO.N,/Project Architecture/Microcontroller/DFU_Enable*%
X137675000Y-95270000D03*
%TO.P,U3,61,PB8*%
%TO.N,/Project Architecture/I2C1_SCL*%
X137675000Y-95770000D03*
%TO.P,U3,62,PB9*%
%TO.N,/Project Architecture/I2C1_SDA*%
X137675000Y-96270000D03*
%TO.P,U3,63,VSS*%
%TO.N,DGND*%
X137675000Y-96770000D03*
%TO.P,U3,64,VDD*%
%TO.N,+3V3*%
X137675000Y-97270000D03*
%TD*%
D18*
%TO.P,J2,1,1*%
%TO.N,/Project Architecture/UART1_RX*%
X133775000Y-78850000D03*
%TO.P,J2,2,2*%
%TO.N,/Project Architecture/ANA_ADC_CURR*%
X133775000Y-79850000D03*
%TO.P,J2,3,3*%
%TO.N,/Project Architecture/ESC_SIG_M1*%
X133775000Y-80850000D03*
%TO.P,J2,4,4*%
%TO.N,/Project Architecture/ESC_SIG_M2*%
X133775000Y-81850000D03*
%TO.P,J2,5,5*%
%TO.N,/Project Architecture/ESC_SIG_M3*%
X133775000Y-82850000D03*
%TO.P,J2,6,6*%
%TO.N,/Project Architecture/ESC_SIG_M4*%
X133775000Y-83850000D03*
%TO.P,J2,7,7*%
%TO.N,+VBAT*%
X133775000Y-84850000D03*
%TO.P,J2,8,8*%
%TO.N,PGND*%
X133775000Y-85850000D03*
D19*
%TO.P,J2,MP,MP*%
X129900000Y-77550000D03*
X129900000Y-87150000D03*
%TD*%
D37*
%TO.P,C34,1*%
%TO.N,+3V3*%
X137500000Y-98215000D03*
%TO.P,C34,2*%
%TO.N,DGND*%
X137500000Y-99175000D03*
%TD*%
D38*
%TO.P,Q1,1,B*%
%TO.N,Net-(Q1-B)*%
X153162500Y-96187500D03*
%TO.P,Q1,2,E*%
%TO.N,DGND*%
X153162500Y-98087500D03*
%TO.P,Q1,3,C*%
%TO.N,/Project Architecture/UART2_RX*%
X155037500Y-97137500D03*
%TD*%
D11*
%TO.P,C26,1*%
%TO.N,+3V3*%
X138680000Y-87720000D03*
%TO.P,C26,2*%
%TO.N,DGND*%
X137720000Y-87720000D03*
%TD*%
D39*
%TO.P,U1,1*%
%TO.N,N/C*%
X146350000Y-85695000D03*
%TO.P,U1,2*%
X146750000Y-85695000D03*
%TO.P,U1,3*%
X147150000Y-85695000D03*
%TO.P,U1,4*%
X147550000Y-85695000D03*
%TO.P,U1,5*%
X147950000Y-85695000D03*
%TO.P,U1,6*%
X148350000Y-85695000D03*
D40*
%TO.P,U1,7,AUX_CL*%
%TO.N,unconnected-(U1-AUX_CL-Pad7)*%
X148895000Y-85150000D03*
%TO.P,U1,8,VDDIO*%
%TO.N,+3V3*%
X148895000Y-84750000D03*
%TO.P,U1,9,AD0/SDO*%
%TO.N,/Project Architecture/SPI1_SDI*%
X148895000Y-84350000D03*
%TO.P,U1,10,REGOUT*%
%TO.N,Net-(U1-REGOUT)*%
X148895000Y-83950000D03*
%TO.P,U1,11,FSYNC*%
%TO.N,DGND*%
X148895000Y-83550000D03*
%TO.P,U1,12,INT*%
%TO.N,/Project Architecture/DIG_IMU_EXTI*%
X148895000Y-83150000D03*
D39*
%TO.P,U1,13,VDD*%
%TO.N,+3V3*%
X148350000Y-82605000D03*
%TO.P,U1,14*%
%TO.N,N/C*%
X147950000Y-82605000D03*
%TO.P,U1,15*%
X147550000Y-82605000D03*
%TO.P,U1,16*%
X147150000Y-82605000D03*
%TO.P,U1,17*%
X146750000Y-82605000D03*
%TO.P,U1,18,GND*%
%TO.N,DGND*%
X146350000Y-82605000D03*
D40*
%TO.P,U1,19,RESV_1*%
%TO.N,unconnected-(U1-RESV_1-Pad19)*%
X145805000Y-83150000D03*
%TO.P,U1,20,RESV_2*%
%TO.N,unconnected-(U1-RESV_2-Pad20)*%
X145805000Y-83550000D03*
%TO.P,U1,21,AUX_DA*%
%TO.N,unconnected-(U1-AUX_DA-Pad21)*%
X145805000Y-83950000D03*
%TO.P,U1,22,NCS*%
%TO.N,/Project Architecture/DIG_IMU_CS*%
X145805000Y-84350000D03*
%TO.P,U1,23,SCL/SCLK*%
%TO.N,/Project Architecture/SPI1_SCK*%
X145805000Y-84750000D03*
%TO.P,U1,24,SDA/SDI*%
%TO.N,/Project Architecture/SPI1_SDO*%
X145805000Y-85150000D03*
D41*
%TO.P,U1,25,EXP*%
%TO.N,DGND*%
X147350000Y-84150000D03*
%TD*%
D37*
%TO.P,C25,1*%
%TO.N,+3V3*%
X150575000Y-96200000D03*
%TO.P,C25,2*%
%TO.N,DGND*%
X150575000Y-97160000D03*
%TD*%
D16*
%TO.P,R6,1*%
%TO.N,+9V*%
X160950000Y-85490000D03*
%TO.P,R6,2*%
%TO.N,Net-(PS1-FB)*%
X160950000Y-86510000D03*
%TD*%
D25*
%TO.P,R3,1*%
%TO.N,/Project Architecture/SBUS_TX*%
X154522500Y-94887500D03*
%TO.P,R3,2*%
%TO.N,Net-(Q1-B)*%
X153502500Y-94887500D03*
%TD*%
D42*
%TO.P,S1,1*%
%TO.N,+3V3*%
X152650000Y-100070000D03*
%TO.P,S1,2*%
%TO.N,/Project Architecture/Microcontroller/DFU_Enable*%
X156850000Y-100070000D03*
D43*
%TO.P,S1,SH1,MP*%
%TO.N,DGND*%
X150950000Y-101870000D03*
D44*
%TO.P,S1,SH2,MP*%
X158550000Y-101870000D03*
%TD*%
D45*
%TO.P,C2,1*%
%TO.N,/Project Architecture/Microcontroller/CLK_OUT*%
X141600000Y-101020000D03*
%TO.P,C2,2*%
%TO.N,DGND*%
X143150000Y-101020000D03*
%TD*%
D15*
%TO.P,R16,1*%
%TO.N,/Project Architecture/USB_CC1*%
X132030000Y-75595000D03*
%TO.P,R16,2*%
%TO.N,PGND*%
X133050000Y-75595000D03*
%TD*%
D46*
%TO.P,J3,A1_B12,GND*%
%TO.N,PGND*%
X144380000Y-74190000D03*
%TO.P,J3,A4_B9,VBUS*%
%TO.N,/Project Architecture/V_USB*%
X143580000Y-74190000D03*
D47*
%TO.P,J3,A5,CC1*%
%TO.N,/Project Architecture/USB_CC1*%
X142430000Y-74190000D03*
%TO.P,J3,A6,DATA+*%
%TO.N,/Project Architecture/USB_+DATA*%
X141430000Y-74190000D03*
%TO.P,J3,A7,DATA-*%
%TO.N,/Project Architecture/USB_-DATA*%
X140930000Y-74190000D03*
%TO.P,J3,A8,SBU1*%
%TO.N,unconnected-(J3-SBU1-PadA8)*%
X139930000Y-74190000D03*
D46*
%TO.P,J3,B1_A12,GND*%
%TO.N,PGND*%
X137980000Y-74190000D03*
%TO.P,J3,B4_A9,VBUS*%
%TO.N,/Project Architecture/V_USB*%
X138780000Y-74190000D03*
D47*
%TO.P,J3,B5,CC2*%
%TO.N,/Project Architecture/USB_CC2*%
X139430000Y-74190000D03*
%TO.P,J3,B6,DATA+*%
%TO.N,/Project Architecture/USB_+DATA*%
X140430000Y-74190000D03*
%TO.P,J3,B7,DATA-*%
%TO.N,/Project Architecture/USB_-DATA*%
X141930000Y-74190000D03*
%TO.P,J3,B8,SBU2*%
%TO.N,unconnected-(J3-SBU2-PadB8)*%
X142930000Y-74190000D03*
D48*
%TO.P,J3,SH1,SHIELD*%
%TO.N,PGND*%
X145500000Y-73625000D03*
%TO.P,J3,SH2,SHIELD*%
X136860000Y-73625000D03*
D49*
%TO.P,J3,SH3,SHIELD*%
X145500000Y-69445000D03*
%TO.P,J3,SH4,SHIELD*%
X136860000Y-69445000D03*
%TD*%
D18*
%TO.P,J1,1,1*%
%TO.N,/Project Architecture/UART5_RX*%
X133700000Y-90195000D03*
%TO.P,J1,2,2*%
%TO.N,/Project Architecture/UART5_TX*%
X133700000Y-91195000D03*
%TO.P,J1,3,3*%
%TO.N,DGND*%
X133700000Y-92195000D03*
%TO.P,J1,4,4*%
%TO.N,+3V3*%
X133700000Y-93195000D03*
%TO.P,J1,5,5*%
%TO.N,/Project Architecture/I2C1_SCL*%
X133700000Y-94195000D03*
%TO.P,J1,6,6*%
%TO.N,/Project Architecture/I2C1_SDA*%
X133700000Y-95195000D03*
D19*
%TO.P,J1,MP,MP*%
%TO.N,PGND*%
X129825000Y-88895000D03*
X129825000Y-96495000D03*
%TD*%
D50*
%TO.N,PGND*%
X129500000Y-78700000D03*
X130400000Y-78700000D03*
X133725000Y-76270000D03*
X164750000Y-87150000D03*
X131400000Y-77900000D03*
X155115200Y-68115000D03*
X160637500Y-82837500D03*
X129850000Y-95250000D03*
X161562500Y-81912500D03*
X162300000Y-80250000D03*
X164475000Y-90525000D03*
X131400000Y-77000000D03*
X164750000Y-87950000D03*
X129800000Y-85900000D03*
X131400000Y-78700000D03*
X163800000Y-90050000D03*
X129850000Y-90100000D03*
%TO.N,DGND*%
X151600000Y-96800000D03*
X147850000Y-91800000D03*
X151250000Y-79550000D03*
X146105000Y-81500000D03*
X136550000Y-98695000D03*
X155115200Y-71240000D03*
X151690000Y-85700000D03*
X134650000Y-102950000D03*
X154550000Y-98105000D03*
X132350000Y-92195000D03*
X151525000Y-77525000D03*
X156200000Y-102845000D03*
X151690000Y-82950000D03*
X158500000Y-76500000D03*
X150187500Y-88307500D03*
X141375000Y-103145000D03*
X138125000Y-86695000D03*
X135100000Y-97000000D03*
X153300000Y-102845000D03*
X151250000Y-78750000D03*
X141375000Y-102395000D03*
%TO.N,+3V3*%
X152900000Y-84650000D03*
X135235000Y-92485000D03*
X135800000Y-99395000D03*
X150730000Y-86150000D03*
X151950000Y-86476000D03*
X148580000Y-81500000D03*
X135100000Y-95445000D03*
X145825000Y-102800000D03*
X153050000Y-82900000D03*
X151250000Y-100070000D03*
X151900000Y-72350000D03*
X137500000Y-88750000D03*
X152900000Y-83650000D03*
X152000000Y-95075000D03*
%TO.N,AGND*%
X134400000Y-87000000D03*
X144875000Y-102800000D03*
%TO.N,Net-(D2-A)*%
X147750000Y-100350000D03*
X152250000Y-93050000D03*
%TO.N,+VBAT*%
X131525000Y-80545000D03*
X130525000Y-81700000D03*
X163450000Y-93000000D03*
X131475000Y-81700000D03*
X161700000Y-93000000D03*
X161000000Y-92900000D03*
X164250000Y-92950000D03*
X130575000Y-80545000D03*
X162550000Y-93000000D03*
%TO.N,Net-(D4-A)*%
X149450000Y-100350000D03*
X152250000Y-92000000D03*
%TO.N,+9V*%
X161825000Y-85450000D03*
%TO.N,/Project Architecture/SBUS_TX*%
X154522500Y-94155000D03*
X158500000Y-75450000D03*
%TO.N,/Project Architecture/UART4_RX*%
X158500000Y-77500000D03*
X146650000Y-100745000D03*
%TO.N,/Project Architecture/UART4_TX*%
X158450000Y-78500000D03*
X146100000Y-98020000D03*
%TO.N,Net-(U3-NRST)*%
X143350000Y-95850000D03*
X143000000Y-92700000D03*
X147300000Y-89600000D03*
%TO.N,Net-(PS1-MODE)*%
X162250000Y-91025000D03*
X162650000Y-86025000D03*
%TO.N,/Project Architecture/Microcontroller/SWDIO*%
X139474000Y-80000000D03*
X140600000Y-88995000D03*
X136300000Y-89500000D03*
%TO.N,/Project Architecture/UART5_RX*%
X139100000Y-92900000D03*
X132500000Y-90195000D03*
%TO.N,/Project Architecture/I2C1_SDA*%
X138825000Y-96270000D03*
X135100000Y-93500000D03*
%TO.N,/Project Architecture/USB_-DATA*%
X142200000Y-75500000D03*
X140930000Y-75500000D03*
%TO.N,/Project Architecture/USB_CC1*%
X131250000Y-75595000D03*
X141545750Y-72739000D03*
%TO.N,/Project Architecture/USB_CC2*%
X131250000Y-74495000D03*
X140795750Y-72732500D03*
%TO.N,/Project Architecture/UART2_RX*%
X152600000Y-97115000D03*
X147650000Y-96800000D03*
%TO.N,/Project Architecture/ANA_ADC_VBAT*%
X136300000Y-90250003D03*
X143450000Y-97200000D03*
%TO.N,/Project Architecture/SPI1_SCK*%
X146750000Y-95300000D03*
X151987569Y-87487569D03*
X144980000Y-85125000D03*
%TO.N,/Project Architecture/SPI1_SDO*%
X145580000Y-85900000D03*
X146900000Y-93450000D03*
%TO.N,/Project Architecture/DIG_IMU_CS*%
X147250000Y-96100000D03*
X145055000Y-83950000D03*
%TO.N,/Project Architecture/SPI1_SDI*%
X151018413Y-87268413D03*
X149980000Y-84351000D03*
%TO.N,/Project Architecture/DIG_IMU_EXTI*%
X148980000Y-82550000D03*
X147800000Y-93300000D03*
%TO.N,/Project Architecture/ESC_SIG_M4*%
X144050000Y-89100000D03*
X137000000Y-82175000D03*
%TO.N,/Project Architecture/ESC_SIG_M3*%
X145600000Y-89000000D03*
X135500000Y-82200000D03*
%TO.N,/Project Architecture/UART1_RX*%
X141250000Y-90500000D03*
X132200000Y-79200000D03*
%TO.N,/Project Architecture/Microcontroller/SWCLK*%
X140050000Y-80650000D03*
%TO.N,/Project Architecture/ANA_ADC_CURR*%
X132300000Y-83500000D03*
X144100000Y-97700000D03*
%TO.N,/Project Architecture/ESC_SIG_M2*%
X138899000Y-82172500D03*
X143127500Y-86272500D03*
%TO.N,/Project Architecture/ESC_SIG_M1*%
X135200000Y-79000000D03*
X142900000Y-89300000D03*
%TD*%
D51*
%TO.N,Net-(D1-K)*%
X154325000Y-69075000D02*
X156770000Y-69075000D01*
X151199799Y-68595000D02*
X151834800Y-69230001D01*
D52*
X156770000Y-69075000D02*
X157250000Y-68595000D01*
D51*
X148450000Y-68595000D02*
X151199799Y-68595000D01*
D53*
X154325000Y-69075000D02*
X151989801Y-69075000D01*
D52*
X151989801Y-69075000D02*
X151834800Y-69230001D01*
D54*
%TO.N,PGND*%
X162300000Y-81175000D02*
X161562500Y-81912500D01*
D53*
X130400000Y-78050000D02*
X129900000Y-77550000D01*
D54*
X161562500Y-81912500D02*
X160637500Y-82837500D01*
D52*
X129850000Y-85950000D02*
X129800000Y-85900000D01*
X137980000Y-74190000D02*
X137425000Y-74190000D01*
X129850000Y-88920000D02*
X129825000Y-88895000D01*
D54*
X160637500Y-82837500D02*
X159550000Y-83925000D01*
D53*
X130400000Y-78700000D02*
X130400000Y-78050000D01*
D52*
X133725000Y-76270000D02*
X134215000Y-76270000D01*
X129850000Y-90100000D02*
X129825000Y-90075000D01*
X154325000Y-68115000D02*
X155115200Y-68115000D01*
D53*
X131400000Y-78700000D02*
X131400000Y-77900000D01*
D55*
X160400000Y-79495000D02*
X161895000Y-79495000D01*
D52*
X129825000Y-95275000D02*
X129825000Y-96495000D01*
D53*
X130400000Y-78700000D02*
X131400000Y-78700000D01*
X164250000Y-88550000D02*
X164750000Y-88050000D01*
X131400000Y-77900000D02*
X131400000Y-77000000D01*
D52*
X163650000Y-87645000D02*
X162840000Y-87645000D01*
X129850000Y-90100000D02*
X129850000Y-88920000D01*
X129850000Y-85850000D02*
X133775000Y-85850000D01*
X133040000Y-74495000D02*
X135990000Y-74495000D01*
X129850000Y-95250000D02*
X129825000Y-95275000D01*
X144935000Y-74190000D02*
X145500000Y-73625000D01*
X159713000Y-86488000D02*
X159550000Y-86325000D01*
D54*
X162300000Y-80250000D02*
X162300000Y-81175000D01*
D53*
X129500000Y-78700000D02*
X129500000Y-77950000D01*
D54*
X161895000Y-79495000D02*
X162300000Y-79900000D01*
D53*
X164250000Y-88975000D02*
X164250000Y-89600000D01*
D56*
X162550000Y-88945000D02*
X164220000Y-88945000D01*
D52*
X164275000Y-74195000D02*
X164275000Y-76595000D01*
D53*
X129500000Y-77950000D02*
X129900000Y-77550000D01*
D52*
X129800000Y-85900000D02*
X129800000Y-87050000D01*
X133725000Y-76270000D02*
X133050000Y-75595000D01*
X133050000Y-75595000D02*
X133050000Y-74505000D01*
X129825000Y-90075000D02*
X129825000Y-90050000D01*
D53*
X130250000Y-77900000D02*
X129900000Y-77550000D01*
D52*
X144380000Y-74190000D02*
X144935000Y-74190000D01*
D53*
X129500000Y-78700000D02*
X130400000Y-78700000D01*
X129500000Y-83400000D02*
X129500000Y-78700000D01*
D52*
X129900000Y-87150000D02*
X129900000Y-88820000D01*
X162492500Y-88887500D02*
X162550000Y-88945000D01*
X133050000Y-74505000D02*
X133040000Y-74495000D01*
D53*
X131050000Y-78700000D02*
X129900000Y-77550000D01*
X131400000Y-77900000D02*
X130250000Y-77900000D01*
X131400000Y-78700000D02*
X131050000Y-78700000D01*
D52*
X161940000Y-87935000D02*
X162550000Y-87935000D01*
X134215000Y-76270000D02*
X136860000Y-73625000D01*
X164250000Y-88975000D02*
X164250000Y-88550000D01*
X162840000Y-87645000D02*
X162550000Y-87935000D01*
D53*
X133775000Y-85850000D02*
X131950000Y-85850000D01*
D57*
X161400000Y-88887500D02*
X162492500Y-88887500D01*
D53*
X164250000Y-89600000D02*
X163800000Y-90050000D01*
D52*
X129800000Y-85900000D02*
X129850000Y-85850000D01*
X129800000Y-87050000D02*
X129900000Y-87150000D01*
X135990000Y-74495000D02*
X136860000Y-73625000D01*
D53*
X164000000Y-90050000D02*
X164475000Y-90525000D01*
D52*
X161375000Y-79495000D02*
X160400000Y-79495000D01*
D53*
X131400000Y-77000000D02*
X130450000Y-77000000D01*
D52*
X129900000Y-88820000D02*
X129825000Y-88895000D01*
D54*
X162300000Y-79900000D02*
X162300000Y-80250000D01*
D58*
X159550000Y-86325000D02*
X159550000Y-83925000D01*
D52*
X164275000Y-81795000D02*
X161975000Y-79495000D01*
X161250000Y-88625000D02*
X161940000Y-87935000D01*
X161975000Y-79495000D02*
X160400000Y-79495000D01*
D53*
X131950000Y-85850000D02*
X129500000Y-83400000D01*
X163800000Y-90050000D02*
X164000000Y-90050000D01*
X130450000Y-77000000D02*
X129900000Y-77550000D01*
D52*
X137425000Y-74190000D02*
X136860000Y-73625000D01*
X164275000Y-76595000D02*
X161375000Y-79495000D01*
X136860000Y-73625000D02*
X136860000Y-73635000D01*
D59*
X159713000Y-88237500D02*
X159713000Y-86488000D01*
D52*
X133725000Y-85900000D02*
X133775000Y-85850000D01*
X164750000Y-88050000D02*
X164750000Y-87950000D01*
X164220000Y-88945000D02*
X164250000Y-88975000D01*
D53*
X164750000Y-87950000D02*
X164750000Y-87150000D01*
D52*
%TO.N,DGND*%
X146350000Y-82605000D02*
X146350000Y-83150000D01*
X150575000Y-96995000D02*
X150361000Y-96781000D01*
X158500000Y-76500000D02*
X159100000Y-76500000D01*
X132150000Y-92200000D02*
X132155000Y-92195000D01*
X149362900Y-83550000D02*
X149698900Y-83214000D01*
X141375000Y-102395000D02*
X140205000Y-102395000D01*
X140145000Y-103145000D02*
X139800000Y-102800000D01*
X154350000Y-71240000D02*
X154350000Y-70729800D01*
X140205000Y-102395000D02*
X139800000Y-102800000D01*
X135780000Y-102950000D02*
X135800000Y-102970000D01*
X133700000Y-92195000D02*
X132350000Y-92195000D01*
X147880000Y-91770000D02*
X147850000Y-91800000D01*
X146105000Y-81500000D02*
X146875000Y-81500000D01*
X150950000Y-101870000D02*
X151925000Y-102845000D01*
X140200000Y-102395000D02*
X139800000Y-102795000D01*
X143150000Y-101370000D02*
X141375000Y-103145000D01*
X143150000Y-101370000D02*
X142125000Y-102395000D01*
X139800000Y-102795000D02*
X137600000Y-102795000D01*
X137720000Y-87100000D02*
X138125000Y-86695000D01*
X157575000Y-102845000D02*
X156200000Y-102845000D01*
X146350000Y-82605000D02*
X146350000Y-82025000D01*
X140150000Y-103145000D02*
X139800000Y-102795000D01*
X146350000Y-83150000D02*
X147350000Y-84150000D01*
X151690000Y-83825000D02*
X151690000Y-82950000D01*
X153162500Y-98087500D02*
X154532500Y-98087500D01*
X151690000Y-83825000D02*
X151690000Y-84875000D01*
X149698900Y-83214000D02*
X151079000Y-83214000D01*
X151400000Y-96995000D02*
X150575000Y-96995000D01*
X150218450Y-96781000D02*
X150207450Y-96770000D01*
X138525000Y-86295000D02*
X139125000Y-86295000D01*
X150187500Y-88307500D02*
X149775000Y-87895000D01*
X154532500Y-98087500D02*
X154550000Y-98105000D01*
X154350000Y-70729800D02*
X153765200Y-70145000D01*
X150575000Y-89315000D02*
X150575000Y-88695000D01*
X142125000Y-102395000D02*
X141375000Y-102395000D01*
X151079000Y-83214000D02*
X151690000Y-83825000D01*
X159105000Y-76495000D02*
X160400000Y-76495000D01*
X143150000Y-101020000D02*
X143150000Y-101370000D01*
X137600000Y-102800000D02*
X139800000Y-102800000D01*
X148895000Y-83550000D02*
X147950000Y-83550000D01*
X151600000Y-97690000D02*
X152765000Y-97690000D01*
X136350000Y-96770000D02*
X136125000Y-96545000D01*
X132350000Y-92195000D02*
X132155000Y-92195000D01*
X141375000Y-102395000D02*
X140200000Y-102395000D01*
X141375000Y-103145000D02*
X140150000Y-103145000D01*
X149450000Y-102850000D02*
X147750000Y-102850000D01*
X150207450Y-96770000D02*
X149025000Y-96770000D01*
X151690000Y-84875000D02*
X151690000Y-85700000D01*
X151690000Y-82950000D02*
X151690000Y-82910000D01*
X154350000Y-71240000D02*
X155115200Y-71240000D01*
X138125000Y-86695000D02*
X138525000Y-86295000D01*
X159100000Y-76500000D02*
X159105000Y-76495000D01*
X137625000Y-102720000D02*
X137600000Y-102745000D01*
X141375000Y-103145000D02*
X140145000Y-103145000D01*
X146350000Y-82025000D02*
X146875000Y-81500000D01*
X151600000Y-96800000D02*
X151600000Y-97690000D01*
X151595000Y-96800000D02*
X151400000Y-96995000D01*
X151600000Y-96800000D02*
X151595000Y-96800000D01*
X149025000Y-91770000D02*
X147880000Y-91770000D01*
X158550000Y-101870000D02*
X157575000Y-102845000D01*
X151690000Y-85700000D02*
X151690000Y-85790000D01*
X149970000Y-102850000D02*
X150950000Y-101870000D01*
X134650000Y-102950000D02*
X135780000Y-102950000D01*
X151690000Y-85790000D02*
X151700000Y-85800000D01*
X135555000Y-96545000D02*
X135100000Y-97000000D01*
X151690000Y-82910000D02*
X151700000Y-82900000D01*
X149362900Y-83550000D02*
X148895000Y-83550000D01*
X140275000Y-102795000D02*
X139800000Y-102795000D01*
X136125000Y-96545000D02*
X135555000Y-96545000D01*
X135970000Y-102800000D02*
X135800000Y-102970000D01*
X150575000Y-88695000D02*
X150187500Y-88307500D01*
X147950000Y-83550000D02*
X147350000Y-84150000D01*
X149775000Y-87895000D02*
X149150000Y-87895000D01*
X152765000Y-97690000D02*
X153162500Y-98087500D01*
X150361000Y-96781000D02*
X150218450Y-96781000D01*
X137720000Y-87720000D02*
X137720000Y-87100000D01*
X137675000Y-96770000D02*
X136350000Y-96770000D01*
X137600000Y-102800000D02*
X135970000Y-102800000D01*
X151925000Y-102845000D02*
X153300000Y-102845000D01*
X149450000Y-102850000D02*
X149970000Y-102850000D01*
X137600000Y-102795000D02*
X135825000Y-102795000D01*
X137030000Y-99175000D02*
X136550000Y-98695000D01*
X137500000Y-99175000D02*
X137030000Y-99175000D01*
X141375000Y-103145000D02*
X141375000Y-102395000D01*
%TO.N,Net-(U3-VCAP_2)*%
X140100000Y-86310000D02*
X140085000Y-86295000D01*
X140100000Y-87845000D02*
X140100000Y-86310000D01*
%TO.N,+3V3*%
X135800000Y-101220000D02*
X135800000Y-99395000D01*
D55*
X152900000Y-83650000D02*
X152900000Y-84650000D01*
X152424000Y-86476000D02*
X151950000Y-86476000D01*
X150730000Y-86150000D02*
X150730000Y-84875000D01*
D52*
X138680000Y-88070000D02*
X138000000Y-88750000D01*
X147835000Y-81500000D02*
X148580000Y-81500000D01*
D55*
X153050000Y-82900000D02*
X152900000Y-83050000D01*
D52*
X135235000Y-92485000D02*
X135065000Y-92485000D01*
X150340000Y-96270000D02*
X149025000Y-96270000D01*
X135670000Y-94525000D02*
X135100000Y-95095000D01*
X137600000Y-101200000D02*
X136020000Y-101200000D01*
X149706000Y-84926000D02*
X149530000Y-84750000D01*
X150925000Y-95685000D02*
X150340000Y-96270000D01*
X152000000Y-95075000D02*
X151775000Y-95300000D01*
X149150000Y-89645000D02*
X149025000Y-89770000D01*
X138680000Y-87720000D02*
X138680000Y-88070000D01*
X149150000Y-88855000D02*
X149150000Y-89645000D01*
X137600000Y-101195000D02*
X135825000Y-101195000D01*
X148580000Y-81500000D02*
X151650000Y-81500000D01*
X151775000Y-95300000D02*
X151200000Y-95300000D01*
X152974801Y-72200000D02*
X151834800Y-71059999D01*
D55*
X152900000Y-86000000D02*
X152424000Y-86476000D01*
D52*
X137500000Y-98215000D02*
X137500000Y-97445000D01*
D55*
X148100000Y-88450000D02*
X148505000Y-88855000D01*
D52*
X150925000Y-95575000D02*
X150925000Y-95685000D01*
X145600000Y-99195000D02*
X145600000Y-100515000D01*
X155537500Y-90063500D02*
X154812000Y-89338000D01*
X155537500Y-95077500D02*
X155537500Y-90063500D01*
X151834800Y-72284800D02*
X151900000Y-72350000D01*
X134355000Y-93195000D02*
X133700000Y-93195000D01*
X136050000Y-94525000D02*
X135670000Y-94525000D01*
X150479000Y-84926000D02*
X149706000Y-84926000D01*
X145830000Y-102590000D02*
X145830000Y-101745000D01*
X136125000Y-97505000D02*
X136360000Y-97270000D01*
X149530000Y-84750000D02*
X148895000Y-84750000D01*
D55*
X150730000Y-86150000D02*
X149450000Y-86150000D01*
D52*
X136360000Y-97270000D02*
X137675000Y-97270000D01*
X135800000Y-99395000D02*
X135800000Y-97830000D01*
X138000000Y-88750000D02*
X137500000Y-88750000D01*
X145600000Y-100515000D02*
X145830000Y-100745000D01*
X135235000Y-92485000D02*
X136050000Y-92485000D01*
X135100000Y-95095000D02*
X135100000Y-95445000D01*
X151834800Y-71059999D02*
X151834800Y-72284800D01*
X135800000Y-97830000D02*
X136125000Y-97505000D01*
X152650000Y-100070000D02*
X151250000Y-100070000D01*
X154350000Y-72200000D02*
X152974801Y-72200000D01*
X150530000Y-84875000D02*
X150479000Y-84926000D01*
X138805000Y-87845000D02*
X138680000Y-87720000D01*
X151650000Y-81500000D02*
X153050000Y-82900000D01*
X145830000Y-100745000D02*
X145830000Y-101745000D01*
X145825000Y-102800000D02*
X145825000Y-102595000D01*
X145825000Y-102595000D02*
X145830000Y-102590000D01*
X148350000Y-82605000D02*
X148350000Y-82015000D01*
D55*
X149450000Y-86150000D02*
X148100000Y-87500000D01*
X154350000Y-72200000D02*
X154350000Y-81600000D01*
D52*
X154400000Y-72200000D02*
X154350000Y-72200000D01*
X135065000Y-92485000D02*
X134355000Y-93195000D01*
D55*
X148505000Y-88855000D02*
X149150000Y-88855000D01*
X152900000Y-83050000D02*
X152900000Y-83650000D01*
D52*
X136020000Y-101200000D02*
X135800000Y-101420000D01*
X137500000Y-97445000D02*
X137675000Y-97270000D01*
X139600000Y-87845000D02*
X138805000Y-87845000D01*
X151200000Y-95300000D02*
X150925000Y-95575000D01*
D55*
X150730000Y-86180000D02*
X150730000Y-86150000D01*
D52*
X148350000Y-82015000D02*
X147835000Y-81500000D01*
D55*
X154350000Y-81600000D02*
X153050000Y-82900000D01*
X152900000Y-84650000D02*
X152900000Y-86000000D01*
X151026000Y-86476000D02*
X150730000Y-86180000D01*
X151950000Y-86476000D02*
X151026000Y-86476000D01*
D52*
X154812000Y-89338000D02*
X151950000Y-86476000D01*
D55*
X148100000Y-87500000D02*
X148100000Y-88450000D01*
D52*
%TO.N,AGND*%
X135490000Y-85910000D02*
X134400000Y-87000000D01*
X144875000Y-102800000D02*
X144875000Y-101750000D01*
X145100000Y-100515000D02*
X144870000Y-100745000D01*
X135490000Y-85500000D02*
X135490000Y-85910000D01*
X145100000Y-99195000D02*
X145100000Y-100515000D01*
X144870000Y-100745000D02*
X144870000Y-101745000D01*
X144875000Y-101750000D02*
X144870000Y-101745000D01*
%TO.N,Net-(U3-VCAP_1)*%
X150570000Y-90270000D02*
X150575000Y-90275000D01*
X149025000Y-90270000D02*
X150570000Y-90270000D01*
%TO.N,Net-(D2-A)*%
X151560000Y-93050000D02*
X152250000Y-93050000D01*
X147750000Y-101275000D02*
X147750000Y-100350000D01*
%TO.N,+VBAT*%
X164250000Y-92950000D02*
X164250000Y-93000000D01*
D60*
X162505000Y-89950000D02*
X160797500Y-89950000D01*
D53*
X131475000Y-81700000D02*
X130525000Y-81700000D01*
D51*
X160925000Y-92150000D02*
X161800000Y-92150000D01*
X164250000Y-91925000D02*
X164250000Y-92950000D01*
D55*
X131525000Y-80545000D02*
X130575000Y-80545000D01*
D51*
X164250000Y-93000000D02*
X163450000Y-93000000D01*
X163150000Y-92150000D02*
X163825000Y-92150000D01*
D52*
X161700000Y-92250000D02*
X161800000Y-92150000D01*
D53*
X131500000Y-83900000D02*
X131500000Y-81725000D01*
D55*
X130525000Y-81700000D02*
X130525000Y-80595000D01*
D51*
X161800000Y-92150000D02*
X162550000Y-92150000D01*
D52*
X163450000Y-92450000D02*
X163150000Y-92150000D01*
D51*
X163450000Y-93000000D02*
X162550000Y-93000000D01*
D53*
X131500000Y-81725000D02*
X131475000Y-81700000D01*
X132450000Y-84850000D02*
X130525000Y-82925000D01*
D51*
X162550000Y-93000000D02*
X162550000Y-92150000D01*
D60*
X160797500Y-89950000D02*
X160475000Y-90272500D01*
D53*
X132450000Y-84850000D02*
X131500000Y-83900000D01*
X133775000Y-84850000D02*
X132450000Y-84850000D01*
D52*
X131475000Y-83575000D02*
X131475000Y-81700000D01*
D53*
X130525000Y-82925000D02*
X130525000Y-81700000D01*
D55*
X131475000Y-81700000D02*
X131475000Y-80595000D01*
D52*
X131475000Y-80595000D02*
X131525000Y-80545000D01*
D51*
X162550000Y-93000000D02*
X161700000Y-93000000D01*
D60*
X160475000Y-92375000D02*
X161000000Y-92900000D01*
D52*
X164250000Y-91575000D02*
X164250000Y-91925000D01*
X134550000Y-84850000D02*
X135000000Y-84400000D01*
D51*
X162550000Y-92150000D02*
X163150000Y-92150000D01*
D52*
X135000000Y-84400000D02*
X135490000Y-84400000D01*
D51*
X163450000Y-93000000D02*
X163450000Y-92450000D01*
D52*
X162550000Y-89905000D02*
X162505000Y-89950000D01*
X130525000Y-80595000D02*
X130575000Y-80545000D01*
X133775000Y-84850000D02*
X134550000Y-84850000D01*
D51*
X160475000Y-91700000D02*
X160925000Y-92150000D01*
D56*
X162580000Y-89905000D02*
X164250000Y-91575000D01*
D60*
X160475000Y-90272500D02*
X160475000Y-90687500D01*
D52*
X162550000Y-89905000D02*
X162580000Y-89905000D01*
D60*
X160475000Y-90687500D02*
X160475000Y-92375000D01*
D51*
X161700000Y-93000000D02*
X161700000Y-92250000D01*
D52*
X163450000Y-93000000D02*
X163450000Y-92725000D01*
X132750000Y-84850000D02*
X131475000Y-83575000D01*
%TO.N,Net-(D4-A)*%
X151560000Y-92000000D02*
X152250000Y-92000000D01*
X149450000Y-101275000D02*
X149450000Y-100350000D01*
%TO.N,Net-(U1-REGOUT)*%
X149706000Y-83774000D02*
X149530000Y-83950000D01*
X150530000Y-83825000D02*
X150479000Y-83774000D01*
X150479000Y-83774000D02*
X149706000Y-83774000D01*
X149530000Y-83950000D02*
X148895000Y-83950000D01*
%TO.N,+9V*%
X160950000Y-85490000D02*
X161785000Y-85490000D01*
D54*
X157225000Y-81825000D02*
X157225000Y-72620000D01*
D55*
X160400000Y-80495000D02*
X158850000Y-80495000D01*
D54*
X158850000Y-80495000D02*
X158555000Y-80495000D01*
D58*
X158137000Y-87862000D02*
X156600000Y-86325000D01*
D54*
X156600000Y-82450000D02*
X156600000Y-83925000D01*
X158555000Y-80495000D02*
X156600000Y-82450000D01*
X156600000Y-83925000D02*
X156650000Y-83875000D01*
D52*
X158137000Y-88712500D02*
X158137000Y-87862000D01*
D54*
X156650000Y-83875000D02*
X156650000Y-82400000D01*
D52*
X161785000Y-85490000D02*
X161825000Y-85450000D01*
D58*
X156600000Y-86325000D02*
X156600000Y-83925000D01*
D54*
X156650000Y-82400000D02*
X157225000Y-81825000D01*
X157225000Y-72620000D02*
X157250000Y-72595000D01*
D52*
%TO.N,/Project Architecture/Microcontroller/CLK_OUT*%
X139975000Y-101020000D02*
X139800000Y-101195000D01*
X141600000Y-101020000D02*
X139980000Y-101020000D01*
X141600000Y-101020000D02*
X139975000Y-101020000D01*
X139980000Y-101020000D02*
X139800000Y-101200000D01*
X141600000Y-99195000D02*
X141600000Y-101020000D01*
D51*
%TO.N,/Project Architecture/V_USB*%
X148450000Y-72595000D02*
X147355000Y-71500000D01*
X142350000Y-71500000D02*
X141892500Y-71957500D01*
D53*
X140320750Y-71957500D02*
X141200000Y-71957500D01*
D52*
X143390000Y-73376750D02*
X143390000Y-74000000D01*
X138780000Y-74190000D02*
X138970000Y-74000000D01*
D53*
X141200000Y-71957500D02*
X141970750Y-71957500D01*
D52*
X138780000Y-74190000D02*
X138979000Y-73991000D01*
X138979000Y-73274250D02*
X139220750Y-73032500D01*
D53*
X141970750Y-71957500D02*
X143170750Y-73157500D01*
D52*
X138979000Y-73991000D02*
X138979000Y-73274250D01*
D53*
X140320750Y-71957500D02*
X140191518Y-71957500D01*
D52*
X143390000Y-73376750D02*
X143170750Y-73157500D01*
X141892500Y-71957500D02*
X141200000Y-71957500D01*
X143390000Y-74000000D02*
X143580000Y-74190000D01*
D51*
X147355000Y-71500000D02*
X142350000Y-71500000D01*
D53*
X140191518Y-71957500D02*
X139168634Y-72980384D01*
D52*
X143381000Y-73991000D02*
X143580000Y-74190000D01*
%TO.N,/Project Architecture/SBUS_TX*%
X154522500Y-94887500D02*
X154522500Y-94155000D01*
X158550000Y-75500000D02*
X160395000Y-75500000D01*
X158500000Y-75450000D02*
X158550000Y-75500000D01*
X154522500Y-94155000D02*
X154522500Y-94032500D01*
X160395000Y-75500000D02*
X160400000Y-75495000D01*
X154522500Y-94032500D02*
X154550000Y-94005000D01*
%TO.N,/Project Architecture/UART4_RX*%
X146650000Y-100745000D02*
X146650000Y-100295000D01*
X146600000Y-100245000D02*
X146600000Y-99195000D01*
X160400000Y-77495000D02*
X158505000Y-77495000D01*
X158505000Y-77495000D02*
X158500000Y-77500000D01*
X146650000Y-100295000D02*
X146600000Y-100245000D01*
%TO.N,/Project Architecture/UART4_TX*%
X158450000Y-78500000D02*
X159050000Y-78500000D01*
X159055000Y-78495000D02*
X160400000Y-78495000D01*
X159050000Y-78500000D02*
X159055000Y-78495000D01*
X146100000Y-99195000D02*
X146100000Y-98020000D01*
%TO.N,Net-(Q1-B)*%
X153162500Y-96187500D02*
X153162500Y-95227500D01*
X153162500Y-95227500D02*
X153502500Y-94887500D01*
%TO.N,Net-(U3-NRST)*%
X143000000Y-92700000D02*
X144200000Y-92700000D01*
X144200000Y-92700000D02*
X147300000Y-89600000D01*
X143350000Y-95850000D02*
X142600000Y-96600000D01*
X142600000Y-96600000D02*
X142600000Y-99195000D01*
%TO.N,/Project Architecture/Microcontroller/LED1*%
X149025000Y-92770000D02*
X150260000Y-92770000D01*
X150260000Y-92770000D02*
X150540000Y-93050000D01*
%TO.N,Net-(PS1-MODE)*%
X162250000Y-91025000D02*
X161937500Y-91025000D01*
X161937500Y-91025000D02*
X161400000Y-90487500D01*
X163050000Y-86025000D02*
X163650000Y-86625000D01*
X162650000Y-86025000D02*
X163050000Y-86025000D01*
%TO.N,Net-(PS1-FB)*%
X162550000Y-86915000D02*
X161355000Y-86915000D01*
X160950000Y-87050000D02*
X160950000Y-86510000D01*
X160225000Y-88237500D02*
X160225000Y-87775000D01*
X160225000Y-87775000D02*
X160950000Y-87050000D01*
X162430000Y-87035000D02*
X162550000Y-86915000D01*
X161355000Y-86915000D02*
X160950000Y-86510000D01*
%TO.N,/Project Architecture/Microcontroller/SWDIO*%
X136300000Y-89500000D02*
X136300000Y-89400000D01*
X139474000Y-83626000D02*
X139474000Y-80000000D01*
X136300000Y-89400000D02*
X135401000Y-88501000D01*
X140600000Y-87845000D02*
X140600000Y-88995000D01*
X135401000Y-87699000D02*
X139474000Y-83626000D01*
X135401000Y-88501000D02*
X135401000Y-87699000D01*
%TO.N,/Project Architecture/Microcontroller/LED0*%
X150270000Y-92270000D02*
X150540000Y-92000000D01*
X149025000Y-92270000D02*
X150270000Y-92270000D01*
%TO.N,/Project Architecture/UART5_RX*%
X138570000Y-92270000D02*
X137675000Y-92270000D01*
X139100000Y-92800000D02*
X138570000Y-92270000D01*
X139100000Y-92900000D02*
X139100000Y-92800000D01*
X133700000Y-90195000D02*
X132500000Y-90195000D01*
%TO.N,/Project Architecture/UART5_TX*%
X135172500Y-91195000D02*
X133700000Y-91195000D01*
X135747500Y-91770000D02*
X135172500Y-91195000D01*
X137675000Y-91770000D02*
X135747500Y-91770000D01*
%TO.N,/Project Architecture/I2C1_SDA*%
X136050000Y-93505000D02*
X135105000Y-93505000D01*
X133700000Y-95195000D02*
X134360000Y-95195000D01*
X135100000Y-93500000D02*
X135105000Y-93505000D01*
X134360000Y-95195000D02*
X136050000Y-93505000D01*
X137675000Y-96270000D02*
X138825000Y-96270000D01*
%TO.N,/Project Architecture/I2C1_SCL*%
X132500000Y-95750000D02*
X132500000Y-94750000D01*
X136050000Y-95545000D02*
X135445000Y-96150000D01*
X135445000Y-96150000D02*
X132900000Y-96150000D01*
X132500000Y-94750000D02*
X133055000Y-94195000D01*
X137675000Y-95770000D02*
X136275000Y-95770000D01*
X136275000Y-95770000D02*
X136050000Y-95545000D01*
X133055000Y-94195000D02*
X133700000Y-94195000D01*
X132900000Y-96150000D02*
X132500000Y-95750000D01*
%TO.N,/Project Architecture/USB_-DATA*%
X142001000Y-75301000D02*
X142001000Y-75020900D01*
X142200000Y-75500000D02*
X142250000Y-75450000D01*
X142001000Y-75020900D02*
X141930000Y-74949900D01*
X141930000Y-74949900D02*
X141930000Y-74190000D01*
X140930000Y-74190000D02*
X140930000Y-75500000D01*
X140930000Y-80080000D02*
X141100000Y-80250000D01*
X142150000Y-75450000D02*
X142001000Y-75301000D01*
X142250000Y-75450000D02*
X142150000Y-75450000D01*
X141100000Y-80250000D02*
X141100000Y-87845000D01*
X140930000Y-75500000D02*
X140930000Y-80080000D01*
%TO.N,/Project Architecture/USB_CC1*%
X141545750Y-72739000D02*
X141586661Y-72779911D01*
X142430000Y-73295900D02*
X142430000Y-74190000D01*
X132030000Y-75595000D02*
X131250000Y-75595000D01*
X131150000Y-75600000D02*
X131155000Y-75595000D01*
X141586661Y-72779911D02*
X141914011Y-72779911D01*
X131250000Y-75595000D02*
X131155000Y-75595000D01*
X141914011Y-72779911D02*
X142430000Y-73295900D01*
%TO.N,/Project Architecture/USB_+DATA*%
X141600000Y-87845000D02*
X141600000Y-75187000D01*
X141430000Y-75017000D02*
X141430000Y-74190000D01*
X140430000Y-74190000D02*
X140430000Y-73363000D01*
X141381000Y-73314000D02*
X141430000Y-73363000D01*
X141430000Y-73363000D02*
X141430000Y-74190000D01*
X141600000Y-75187000D02*
X141430000Y-75017000D01*
X140479000Y-73314000D02*
X141381000Y-73314000D01*
X140430000Y-73363000D02*
X140479000Y-73314000D01*
%TO.N,/Project Architecture/USB_CC2*%
X132020000Y-74495000D02*
X131250000Y-74495000D01*
X131155000Y-74495000D02*
X131150000Y-74500000D01*
X139430000Y-73498250D02*
X139430000Y-74190000D01*
X140195750Y-72732500D02*
X139430000Y-73498250D01*
X140795750Y-72732500D02*
X140195750Y-72732500D01*
X131250000Y-74495000D02*
X131155000Y-74495000D01*
%TO.N,/Project Architecture/UART2_RX*%
X152622500Y-97137500D02*
X155037500Y-97137500D01*
X155537500Y-96637500D02*
X155037500Y-97137500D01*
X148120000Y-97270000D02*
X147650000Y-96800000D01*
X152600000Y-97115000D02*
X152622500Y-97137500D01*
X155537500Y-96097500D02*
X155537500Y-96637500D01*
X152600000Y-96950000D02*
X152600000Y-97115000D01*
X149025000Y-97270000D02*
X148120000Y-97270000D01*
%TO.N,/Project Architecture/Microcontroller/DFU_Enable*%
X151790000Y-98900000D02*
X151600000Y-98710000D01*
X151600000Y-98710000D02*
X151410000Y-98710000D01*
X150750000Y-97800000D02*
X147400000Y-97800000D01*
X144870000Y-95270000D02*
X137675000Y-95270000D01*
X151410000Y-98710000D02*
X150900000Y-98200000D01*
X147400000Y-97800000D02*
X144870000Y-95270000D01*
X150900000Y-97950000D02*
X150750000Y-97800000D01*
X155680000Y-98900000D02*
X151790000Y-98900000D01*
X150900000Y-98200000D02*
X150900000Y-97950000D01*
X156850000Y-100070000D02*
X155680000Y-98900000D01*
%TO.N,/Project Architecture/ANA_ADC_VBAT*%
X135000000Y-87500000D02*
X136510000Y-85990000D01*
X136510000Y-85990000D02*
X136510000Y-85500000D01*
X136150003Y-90250003D02*
X135000000Y-89100000D01*
X136300000Y-90250003D02*
X136150003Y-90250003D01*
X136510000Y-84400000D02*
X136510000Y-85500000D01*
X135000000Y-89100000D02*
X135000000Y-87500000D01*
X143100000Y-97550000D02*
X143100000Y-99195000D01*
X143450000Y-97200000D02*
X143100000Y-97550000D01*
X143100000Y-99195000D02*
X143100000Y-98495000D01*
%TO.N,/Project Architecture/SPI1_SCK*%
X145055000Y-85050000D02*
X145055000Y-85025000D01*
X148949000Y-95346000D02*
X146796000Y-95346000D01*
X154000000Y-90200000D02*
X154050000Y-90150000D01*
X153150000Y-89250000D02*
X153150000Y-88650000D01*
X144980000Y-85125000D02*
X145055000Y-85050000D01*
X145330000Y-84750000D02*
X145805000Y-84750000D01*
X149025000Y-95270000D02*
X148949000Y-95346000D01*
X154050000Y-90150000D02*
X153150000Y-89250000D01*
X149025000Y-95270000D02*
X150130000Y-95270000D01*
X145055000Y-85025000D02*
X145330000Y-84750000D01*
X150130000Y-95270000D02*
X151000000Y-94400000D01*
X151000000Y-94400000D02*
X152850000Y-94400000D01*
X152850000Y-94400000D02*
X154000000Y-93250000D01*
X153150000Y-88650000D02*
X151987569Y-87487569D01*
X154000000Y-93250000D02*
X154000000Y-90200000D01*
X146796000Y-95346000D02*
X146750000Y-95300000D01*
%TO.N,/Project Architecture/SPI1_SDO*%
X145805000Y-85675000D02*
X145580000Y-85900000D01*
X147644000Y-94194000D02*
X147938588Y-94194000D01*
X145805000Y-85150000D02*
X145805000Y-85675000D01*
X147938588Y-94194000D02*
X148014588Y-94270000D01*
X148014588Y-94270000D02*
X149025000Y-94270000D01*
X146900000Y-93450000D02*
X147644000Y-94194000D01*
%TO.N,/Project Architecture/DIG_IMU_CS*%
X148230001Y-95750000D02*
X148250001Y-95770000D01*
X148250001Y-95770000D02*
X149025000Y-95770000D01*
X145055000Y-83950000D02*
X145055000Y-84150000D01*
X145055000Y-84150000D02*
X145255000Y-84350000D01*
X145255000Y-84350000D02*
X145805000Y-84350000D01*
X147250000Y-96100000D02*
X147600000Y-95750000D01*
X147600000Y-95750000D02*
X148230001Y-95750000D01*
%TO.N,/Project Architecture/SPI1_SDI*%
X151350000Y-87600000D02*
X151018413Y-87268413D01*
X151018413Y-87268413D02*
X151411569Y-87661569D01*
X152600000Y-93950000D02*
X153599000Y-92951000D01*
X149025000Y-94770000D02*
X149930000Y-94770000D01*
X151350000Y-88150000D02*
X151350000Y-87600000D01*
X149904000Y-84350000D02*
X148895000Y-84350000D01*
X149930000Y-94770000D02*
X150750000Y-93950000D01*
X153599000Y-90399000D02*
X151350000Y-88150000D01*
X150750000Y-93950000D02*
X152600000Y-93950000D01*
X153599000Y-92951000D02*
X153599000Y-90399000D01*
X149905000Y-84351000D02*
X149904000Y-84350000D01*
X149025000Y-94770000D02*
X149847100Y-94770000D01*
%TO.N,/Project Architecture/DIG_IMU_EXTI*%
X148980000Y-82550000D02*
X148895000Y-82635000D01*
X147900000Y-93770000D02*
X149025000Y-93770000D01*
X147800000Y-93670000D02*
X147900000Y-93770000D01*
X148895000Y-82635000D02*
X148895000Y-83150000D01*
X147800000Y-93300000D02*
X147800000Y-93670000D01*
%TO.N,/Project Architecture/ESC_SIG_M4*%
X136380913Y-82794087D02*
X135786245Y-82794087D01*
X144100000Y-89050000D02*
X144050000Y-89100000D01*
X134730332Y-83850000D02*
X133775000Y-83850000D01*
X137000000Y-82175000D02*
X136380913Y-82794087D01*
X135786245Y-82794087D02*
X134730332Y-83850000D01*
X144100000Y-87845000D02*
X144100000Y-89050000D01*
%TO.N,/Project Architecture/ESC_SIG_M3*%
X134850000Y-82850000D02*
X133775000Y-82850000D01*
X145600000Y-87845000D02*
X145600000Y-89000000D01*
X135500000Y-82200000D02*
X134850000Y-82850000D01*
X133725000Y-82900000D02*
X133775000Y-82850000D01*
%TO.N,/Project Architecture/UART1_RX*%
X132550000Y-78850000D02*
X132200000Y-79200000D01*
X133775000Y-78850000D02*
X132550000Y-78850000D01*
X142100000Y-89650000D02*
X142100000Y-87845000D01*
X141250000Y-90500000D02*
X142100000Y-89650000D01*
%TO.N,/Project Architecture/Microcontroller/SWCLK*%
X140050000Y-83750000D02*
X136700000Y-87100000D01*
X140050000Y-80650000D02*
X140050000Y-83750000D01*
X136700000Y-89000000D02*
X137470000Y-89770000D01*
X136700000Y-87100000D02*
X136700000Y-89000000D01*
X137470000Y-89770000D02*
X137675000Y-89770000D01*
%TO.N,/Project Architecture/ANA_ADC_CURR*%
X143600000Y-98200000D02*
X143600000Y-99195000D01*
X144100000Y-97700000D02*
X143600000Y-98200000D01*
X133775000Y-79850000D02*
X132800000Y-79850000D01*
X143600000Y-99195000D02*
X143600000Y-98495000D01*
X132800000Y-79850000D02*
X132300000Y-80350000D01*
X132300000Y-80350000D02*
X132300000Y-83500000D01*
%TO.N,/Project Architecture/ESC_SIG_M2*%
X134750000Y-81850000D02*
X133775000Y-81850000D01*
X133780000Y-81900000D02*
X133725000Y-81845000D01*
X138126500Y-81400000D02*
X135200000Y-81400000D01*
X143127500Y-86272500D02*
X143142226Y-86272500D01*
X138899000Y-82172500D02*
X138126500Y-81400000D01*
X143142226Y-86272500D02*
X143600000Y-86730274D01*
X135200000Y-81400000D02*
X134750000Y-81850000D01*
X143600000Y-86730274D02*
X143600000Y-87845000D01*
%TO.N,/Project Architecture/ESC_SIG_M1*%
X135200000Y-79000000D02*
X135200000Y-79800000D01*
X143100000Y-89100000D02*
X143100000Y-89095000D01*
X143100000Y-89100000D02*
X142900000Y-89300000D01*
X135200000Y-79800000D02*
X135195000Y-79805000D01*
X135200000Y-80300000D02*
X134650000Y-80850000D01*
X134650000Y-80850000D02*
X133775000Y-80850000D01*
X143100000Y-87845000D02*
X143100000Y-89100000D01*
X135200000Y-79000000D02*
X135200000Y-80300000D01*
%TD*%
M02*
