%TF.GenerationSoftware,KiCad,Pcbnew,9.0.6+1*%
%TF.CreationDate,Date%
%TF.ProjectId,FCU3,46435533-2e6b-4696-9361-645f70636258,+ (Unreleased)*%
%TF.SameCoordinates,Original*%
%TF.FileFunction,Copper,L4,Bot*%
%TF.FilePolarity,Positive*%
%FSLAX46Y46*%
G04 Gerber Fmt 4.6, Leading zero omitted, Abs format (unit mm)*
G04 Created by KiCad*
%MOMM*%
%LPD*%
G01*
G04 APERTURE LIST*
%TA.AperFunction,EtchedComponent*%
%ADD10C,0.000000*%
%TD*%
%TA.AperFunction,ComponentPad*%
%ADD11C,5.600000*%
%TD*%
%TA.AperFunction,ComponentPad*%
%ADD12C,0.300000*%
%TD*%
%TA.AperFunction,ComponentPad*%
%ADD13O,1.000000X2.100000*%
%TD*%
%TA.AperFunction,ComponentPad*%
%ADD14O,1.000000X1.800000*%
%TD*%
%TA.AperFunction,SMDPad,CuDef*%
%ADD15R,1.500000X1.000000*%
%TD*%
%TA.AperFunction,SMDPad,CuDef*%
%ADD16R,1.000000X1.500000*%
%TD*%
%TA.AperFunction,ViaPad*%
%ADD17C,0.550000*%
%TD*%
%TA.AperFunction,Conductor*%
%ADD18C,0.200000*%
%TD*%
%TA.AperFunction,Conductor*%
%ADD19C,1.000000*%
%TD*%
G04 APERTURE END LIST*
D10*
%TA.AperFunction,EtchedComponent*%
%TO.C,JP4*%
G36*
X153715200Y-69895000D02*
G01*
X153315200Y-69895000D01*
X153315200Y-69395000D01*
X153715200Y-69395000D01*
X153715200Y-69895000D01*
G37*
%TD.AperFunction*%
%TA.AperFunction,EtchedComponent*%
G36*
X154515200Y-69895000D02*
G01*
X154115200Y-69895000D01*
X154115200Y-69395000D01*
X154515200Y-69395000D01*
X154515200Y-69895000D01*
G37*
%TD.AperFunction*%
%TA.AperFunction,EtchedComponent*%
%TO.C,JP3*%
G36*
X143375000Y-102245000D02*
G01*
X142875000Y-102245000D01*
X142875000Y-101845000D01*
X143375000Y-101845000D01*
X143375000Y-102245000D01*
G37*
%TD.AperFunction*%
%TA.AperFunction,EtchedComponent*%
G36*
X143375000Y-103045000D02*
G01*
X142875000Y-103045000D01*
X142875000Y-102645000D01*
X143375000Y-102645000D01*
X143375000Y-103045000D01*
G37*
%TD.AperFunction*%
%TD*%
D11*
%TO.P,H2,1*%
%TO.N,N/C*%
X162400000Y-70045000D03*
%TD*%
D12*
%TO.P,PS1,4,VOUT*%
%TO.N,+9V*%
X158925000Y-88387500D03*
X158137000Y-88387500D03*
X157350000Y-88387500D03*
X158925000Y-89037500D03*
X158137000Y-89037500D03*
X157350000Y-89037500D03*
%TO.P,PS1,5,SW*%
%TO.N,unconnected-(PS1-SW-Pad5)_4*%
X158925000Y-90337500D03*
%TO.N,unconnected-(PS1-SW-Pad5)_1*%
X158137000Y-90337500D03*
%TO.N,unconnected-(PS1-SW-Pad5)_2*%
X157350000Y-90337500D03*
%TO.N,unconnected-(PS1-SW-Pad5)_6*%
X158925000Y-90987500D03*
%TO.N,unconnected-(PS1-SW-Pad5)*%
X158137000Y-90987500D03*
%TO.N,unconnected-(PS1-SW-Pad5)_3*%
X157350000Y-90987500D03*
%TD*%
D11*
%TO.P,H1,1*%
%TO.N,N/C*%
X132754125Y-70082500D03*
%TD*%
%TO.P,H4,1*%
%TO.N,N/C*%
X162400000Y-100545000D03*
%TD*%
%TO.P,H3,1*%
%TO.N,N/C*%
X131900000Y-100545000D03*
%TD*%
D13*
%TO.P,J3,SH1,SHIELD*%
%TO.N,PGND*%
X145500000Y-73625000D03*
%TO.P,J3,SH2,SHIELD*%
X136860000Y-73625000D03*
D14*
%TO.P,J3,SH3,SHIELD*%
X145500000Y-69445000D03*
%TO.P,J3,SH4,SHIELD*%
X136860000Y-69445000D03*
%TD*%
D15*
%TO.P,JP4,1,A*%
%TO.N,PGND*%
X153915200Y-68995000D03*
%TO.P,JP4,2,B*%
%TO.N,DGND*%
X153915200Y-70295000D03*
%TD*%
D16*
%TO.P,JP3,1,A*%
%TO.N,DGND*%
X142475000Y-102445000D03*
%TO.P,JP3,2,B*%
%TO.N,AGND*%
X143775000Y-102445000D03*
%TD*%
D17*
%TO.N,*%
X129850000Y-78595000D03*
X129825000Y-89895000D03*
X129825000Y-95445000D03*
X129850000Y-86095000D03*
%TO.N,PGND*%
X164750000Y-87150000D03*
X155115200Y-68115000D03*
X160637500Y-82837500D03*
X161562500Y-81912500D03*
X162300000Y-80250000D03*
X164550000Y-90600000D03*
X164750000Y-87950000D03*
X164250000Y-90050000D03*
%TO.N,DGND*%
X151450000Y-97045000D03*
X150300000Y-91770000D03*
X151250000Y-79550000D03*
X146105000Y-81500000D03*
X136550000Y-98695000D03*
X155115200Y-71240000D03*
X151690000Y-85700000D03*
X134750000Y-103320000D03*
X157400000Y-97150000D03*
X132350000Y-92195000D03*
X151525000Y-77525000D03*
X156200000Y-102845000D03*
X151690000Y-82950000D03*
X158500000Y-76500000D03*
X146850000Y-102882500D03*
X150187500Y-88307500D03*
X141375000Y-103145000D03*
X138125000Y-86695000D03*
X153300000Y-102845000D03*
X151250000Y-78750000D03*
X141375000Y-102395000D03*
%TO.N,+3V3*%
X152900000Y-84650000D03*
X135235000Y-92485000D03*
X135800000Y-99395000D03*
X150730000Y-86150000D03*
X151950000Y-86476000D03*
X148580000Y-81500000D03*
X135100000Y-95445000D03*
X145825000Y-102595000D03*
X153050000Y-82900000D03*
X151250000Y-100070000D03*
X137500000Y-88750000D03*
X152900000Y-83650000D03*
X152200000Y-95300000D03*
%TO.N,AGND*%
X144875000Y-102595000D03*
X144875000Y-103220000D03*
X139000000Y-79845000D03*
%TO.N,+VBAT*%
X129500000Y-79845000D03*
X132250000Y-79845000D03*
X130300000Y-81000000D03*
X131250000Y-81000000D03*
X129500000Y-81000000D03*
X132200000Y-81000000D03*
X130350000Y-79845000D03*
X131300000Y-79845000D03*
%TO.N,+9V*%
X161850000Y-86015000D03*
%TO.N,/Project Architecture/Power/VBAT*%
X163450000Y-93000000D03*
X161700000Y-93000000D03*
X164250000Y-92950000D03*
X162550000Y-93000000D03*
%TO.N,/Project Architecture/SBUS_TX*%
X157372500Y-93200000D03*
X158500000Y-75450000D03*
%TO.N,/Project Architecture/UART4_RX*%
X158500000Y-77500000D03*
X146650000Y-100745000D03*
%TO.N,/Project Architecture/UART4_TX*%
X158450000Y-78500000D03*
X146100000Y-98020000D03*
%TO.N,Net-(PS1-MODE)*%
X162250000Y-91025000D03*
X162650000Y-86025000D03*
%TO.N,/Project Architecture/UART5_RX*%
X138800000Y-92270000D03*
X132500000Y-90195000D03*
%TO.N,/Project Architecture/I2C1_SDA*%
X138825000Y-96270000D03*
X135100000Y-93500000D03*
%TO.N,/Project Architecture/USB_-DATA*%
X142200000Y-75500000D03*
X140930000Y-75500000D03*
%TO.N,/Project Architecture/USB_CC1*%
X131250000Y-75595000D03*
X141545750Y-72739000D03*
%TO.N,/Project Architecture/USB_CC2*%
X131250000Y-74495000D03*
X140795750Y-72732500D03*
%TO.N,/Project Architecture/UART2_RX*%
X151650000Y-96000000D03*
X147650000Y-96800000D03*
%TO.N,/Project Architecture/ANA_ADC_VBAT*%
X135950000Y-90900000D03*
X142600000Y-98020000D03*
%TO.N,/Project Architecture/SPI1_SCK*%
X151987569Y-87487569D03*
X144980000Y-85125000D03*
%TO.N,/Project Architecture/SPI1_SDO*%
X145580000Y-85900000D03*
X150300000Y-92921000D03*
%TO.N,/Project Architecture/DIG_IMU_CS*%
X147750000Y-95750000D03*
X145055000Y-83950000D03*
%TO.N,/Project Architecture/SPI1_SDI*%
X151018413Y-87268413D03*
X149980000Y-84351000D03*
X147700000Y-94770000D03*
%TO.N,/Project Architecture/DIG_IMU_EXTI*%
X148980000Y-82550000D03*
X147875000Y-93795000D03*
%TO.N,/Project Architecture/ESC_SIG_M4*%
X144050000Y-89100000D03*
X132400000Y-82400000D03*
%TO.N,/Project Architecture/ESC_SIG_M3*%
X145600000Y-88995000D03*
X132400000Y-83925000D03*
%TO.N,/Project Architecture/UART1_RX*%
X141000000Y-89800000D03*
X132300000Y-85845000D03*
%TO.N,/Project Architecture/ESC_SIG_M2*%
X135100000Y-81900000D03*
X143600000Y-86745000D03*
%TO.N,/Project Architecture/Microcontroller/LED1*%
X148150000Y-98700000D03*
X138825000Y-89770000D03*
%TO.N,/Project Architecture/ANA_ADC_CURR*%
X132350000Y-84845000D03*
X144100000Y-98020000D03*
%TO.N,/Project Architecture/Microcontroller/LED0*%
X150000000Y-99595000D03*
X140600000Y-88995000D03*
%TO.N,/Project Architecture/ESC_SIG_M1*%
X135200000Y-80850000D03*
X143100000Y-88970000D03*
%TD*%
D18*
%TO.N,PGND*%
X136872500Y-69432500D02*
X136860000Y-69445000D01*
X155115200Y-68115000D02*
X154795200Y-68115000D01*
X145487500Y-69432500D02*
X145500000Y-69445000D01*
X154795200Y-68115000D02*
X153915200Y-68995000D01*
%TO.N,DGND*%
X141775000Y-103145000D02*
X142475000Y-102445000D01*
X154860200Y-71240000D02*
X153915200Y-70295000D01*
X142425000Y-102395000D02*
X142475000Y-102445000D01*
X151250000Y-79550000D02*
X151250000Y-79600000D01*
D19*
X151250000Y-77800000D02*
X151250000Y-78750000D01*
X151525000Y-77525000D02*
X151250000Y-77800000D01*
D18*
X141375000Y-103145000D02*
X141775000Y-103145000D01*
X141375000Y-102395000D02*
X142425000Y-102395000D01*
D19*
X153915200Y-70295000D02*
X153915200Y-75134800D01*
X153915200Y-75134800D02*
X151525000Y-77525000D01*
D18*
X155115200Y-71240000D02*
X154860200Y-71240000D01*
D19*
X151250000Y-78750000D02*
X151250000Y-79550000D01*
D18*
%TO.N,+3V3*%
X135235000Y-92485000D02*
X135065000Y-92485000D01*
X135065000Y-92485000D02*
X134450000Y-93100000D01*
X134450000Y-94795000D02*
X135100000Y-95445000D01*
X134450000Y-93100000D02*
X134450000Y-94795000D01*
%TO.N,AGND*%
X144875000Y-103220000D02*
X144550000Y-103220000D01*
X144875000Y-91025000D02*
X144875000Y-102595000D01*
X144550000Y-103220000D02*
X143775000Y-102445000D01*
X146600000Y-89300000D02*
X144875000Y-91025000D01*
X139000000Y-80750000D02*
X146600000Y-88350000D01*
X144875000Y-102595000D02*
X143925000Y-102595000D01*
X146600000Y-88350000D02*
X146600000Y-89300000D01*
X143925000Y-102595000D02*
X143775000Y-102445000D01*
X139000000Y-79845000D02*
X139000000Y-80750000D01*
%TO.N,/Project Architecture/SBUS_TX*%
X160850000Y-91550000D02*
X160800000Y-91500000D01*
X160800000Y-91500000D02*
X160800000Y-84500000D01*
X160250000Y-84500000D02*
X158750000Y-83000000D01*
X160050000Y-75450000D02*
X158500000Y-75450000D01*
X157372500Y-93200000D02*
X159200000Y-93200000D01*
X158750000Y-83000000D02*
X161100000Y-80650000D01*
X159200000Y-93200000D02*
X160850000Y-91550000D01*
X160800000Y-84500000D02*
X160250000Y-84500000D01*
X161100000Y-80650000D02*
X161100000Y-76500000D01*
X161100000Y-76500000D02*
X160050000Y-75450000D01*
%TO.N,/Project Architecture/UART4_RX*%
X154899000Y-85389312D02*
X145524000Y-94764312D01*
X145524000Y-94764312D02*
X145524000Y-99619000D01*
X158500000Y-77500000D02*
X154899000Y-81101000D01*
X145524000Y-99619000D02*
X146650000Y-100745000D01*
X154899000Y-81101000D02*
X154899000Y-85389312D01*
%TO.N,/Project Architecture/UART4_TX*%
X155300000Y-92000000D02*
X154954000Y-92346000D01*
X154954000Y-92346000D02*
X148509412Y-92346000D01*
X146100000Y-94755412D02*
X146100000Y-98020000D01*
X148509412Y-92346000D02*
X146100000Y-94755412D01*
X158450000Y-78500000D02*
X155300000Y-81650000D01*
X155300000Y-81650000D02*
X155300000Y-92000000D01*
%TO.N,/Project Architecture/UART5_RX*%
X132500000Y-90195000D02*
X132505000Y-90200000D01*
X132505000Y-90200000D02*
X133950000Y-90200000D01*
X133950000Y-90200000D02*
X136020000Y-92270000D01*
X136020000Y-92270000D02*
X138800000Y-92270000D01*
%TO.N,/Project Architecture/I2C1_SDA*%
X137820000Y-96270000D02*
X138825000Y-96270000D01*
X135100000Y-93550000D02*
X137820000Y-96270000D01*
X135100000Y-93500000D02*
X135100000Y-93550000D01*
%TO.N,/Project Architecture/USB_-DATA*%
X142200000Y-75500000D02*
X140930000Y-75500000D01*
%TO.N,/Project Architecture/USB_CC1*%
X141545750Y-72739000D02*
X141545750Y-73154250D01*
X138900000Y-71900000D02*
X136600000Y-71900000D01*
X131255000Y-75600000D02*
X131250000Y-75595000D01*
X140450000Y-73450000D02*
X138900000Y-71900000D01*
X141545750Y-73154250D02*
X141250000Y-73450000D01*
X136600000Y-71900000D02*
X132900000Y-75600000D01*
X141600750Y-72684000D02*
X141545750Y-72739000D01*
X132900000Y-75600000D02*
X131255000Y-75600000D01*
X141250000Y-73450000D02*
X140450000Y-73450000D01*
%TO.N,/Project Architecture/USB_CC2*%
X140795750Y-72732500D02*
X139413250Y-71350000D01*
X139413250Y-71350000D02*
X136400000Y-71350000D01*
X133255000Y-74495000D02*
X131250000Y-74495000D01*
X136400000Y-71350000D02*
X133255000Y-74495000D01*
%TO.N,/Project Architecture/UART2_RX*%
X151650000Y-96000000D02*
X150850000Y-96000000D01*
X150850000Y-96000000D02*
X150050000Y-96800000D01*
X150050000Y-96800000D02*
X147650000Y-96800000D01*
%TO.N,/Project Architecture/ANA_ADC_VBAT*%
X135950000Y-90900000D02*
X139400000Y-90900000D01*
X139400000Y-90900000D02*
X142600000Y-94100000D01*
X142600000Y-94100000D02*
X142600000Y-98020000D01*
%TO.N,/Project Architecture/SPI1_SCK*%
X150250000Y-87550000D02*
X150250000Y-87300000D01*
X150250000Y-87300000D02*
X148075000Y-85125000D01*
X148075000Y-85125000D02*
X144980000Y-85125000D01*
X150887569Y-88187569D02*
X150250000Y-87550000D01*
X151287569Y-88187569D02*
X150887569Y-88187569D01*
X151987569Y-87487569D02*
X151287569Y-88187569D01*
%TO.N,/Project Architecture/SPI1_SDI*%
X149980000Y-86230000D02*
X149980000Y-84351000D01*
X151018413Y-87268413D02*
X149980000Y-86230000D01*
%TO.N,/Project Architecture/ESC_SIG_M4*%
X144050000Y-88200000D02*
X138695000Y-82845000D01*
X144050000Y-89100000D02*
X144050000Y-88200000D01*
X138695000Y-82845000D02*
X132845000Y-82845000D01*
X132845000Y-82845000D02*
X132400000Y-82400000D01*
%TO.N,/Project Architecture/ESC_SIG_M3*%
X144700000Y-89900000D02*
X142650000Y-89900000D01*
X145600000Y-88995000D02*
X145600000Y-89000000D01*
X132425000Y-83900000D02*
X132400000Y-83925000D01*
X142450000Y-89700000D02*
X142450000Y-88100000D01*
X138250000Y-83900000D02*
X132425000Y-83900000D01*
X145600000Y-89000000D02*
X144700000Y-89900000D01*
X142450000Y-88100000D02*
X138250000Y-83900000D01*
X142650000Y-89900000D02*
X142450000Y-89700000D01*
%TO.N,/Project Architecture/UART1_RX*%
X141000000Y-89800000D02*
X141250000Y-89550000D01*
X138445000Y-85845000D02*
X132300000Y-85845000D01*
X141250000Y-89550000D02*
X141250000Y-88650000D01*
X141250000Y-88650000D02*
X138445000Y-85845000D01*
%TO.N,/Project Architecture/ESC_SIG_M2*%
X135100000Y-81900000D02*
X138755000Y-81900000D01*
X138755000Y-81900000D02*
X143600000Y-86745000D01*
%TO.N,/Project Architecture/ANA_ADC_CURR*%
X144100000Y-92100000D02*
X144100000Y-98020000D01*
X138012100Y-84845000D02*
X141850000Y-88682900D01*
X141850000Y-89850000D02*
X144100000Y-92100000D01*
X132350000Y-84845000D02*
X138012100Y-84845000D01*
X141850000Y-88682900D02*
X141850000Y-89850000D01*
%TO.N,/Project Architecture/ESC_SIG_M1*%
X134350000Y-80850000D02*
X133450000Y-81750000D01*
X143100000Y-88050000D02*
X143100000Y-88970000D01*
X138400000Y-83350000D02*
X143100000Y-88050000D01*
X135200000Y-80850000D02*
X134350000Y-80850000D01*
X131524000Y-82068706D02*
X131524000Y-83124000D01*
X133450000Y-81750000D02*
X131842706Y-81750000D01*
X131750000Y-83350000D02*
X138400000Y-83350000D01*
X131842706Y-81750000D02*
X131524000Y-82068706D01*
X131524000Y-83124000D02*
X131750000Y-83350000D01*
%TD*%
M02*
