%TF.GenerationSoftware,KiCad,Pcbnew,9.0.6+1*%
%TF.CreationDate,Date%
%TF.ProjectId,FCU3,46435533-2e6b-4696-9361-645f70636258,+ (Unreleased)*%
%TF.SameCoordinates,Original*%
%TF.FileFunction,Paste,Top*%
%TF.FilePolarity,Positive*%
%FSLAX46Y46*%
G04 Gerber Fmt 4.6, Leading zero omitted, Abs format (unit mm)*
G04 Created by KiCad*
%MOMM*%
%LPD*%
G01*
G04 APERTURE LIST*
G04 Aperture macros list*
%AMRoundRect*
0 Rectangle with rounded corners*
0 $1 Rounding radius*
0 $2 $3 $4 $5 $6 $7 $8 $9 X,Y pos of 4 corners*
0 Add a 4 corners polygon primitive as box body*
4,1,4,$2,$3,$4,$5,$6,$7,$8,$9,$2,$3,0*
0 Add four circle primitives for the rounded corners*
1,1,$1+$1,$2,$3*
1,1,$1+$1,$4,$5*
1,1,$1+$1,$6,$7*
1,1,$1+$1,$8,$9*
0 Add four rect primitives between the rounded corners*
20,1,$1+$1,$2,$3,$4,$5,0*
20,1,$1+$1,$4,$5,$6,$7,0*
20,1,$1+$1,$6,$7,$8,$9,0*
20,1,$1+$1,$8,$9,$2,$3,0*%
G04 Aperture macros list end*
%ADD10C,0.010000*%
%ADD11RoundRect,0.140000X0.170000X-0.140000X0.170000X0.140000X-0.170000X0.140000X-0.170000X-0.140000X0*%
%ADD12RoundRect,0.140000X0.140000X0.170000X-0.140000X0.170000X-0.140000X-0.170000X0.140000X-0.170000X0*%
%ADD13RoundRect,0.218750X0.256250X-0.218750X0.256250X0.218750X-0.256250X0.218750X-0.256250X-0.218750X0*%
%ADD14RoundRect,0.250000X-0.650000X1.000000X-0.650000X-1.000000X0.650000X-1.000000X0.650000X1.000000X0*%
%ADD15RoundRect,0.140000X-0.140000X-0.170000X0.140000X-0.170000X0.140000X0.170000X-0.140000X0.170000X0*%
%ADD16RoundRect,0.135000X-0.135000X-0.185000X0.135000X-0.185000X0.135000X0.185000X-0.135000X0.185000X0*%
%ADD17RoundRect,0.135000X-0.185000X0.135000X-0.185000X-0.135000X0.185000X-0.135000X0.185000X0.135000X0*%
%ADD18RoundRect,0.135000X0.185000X-0.135000X0.185000X0.135000X-0.185000X0.135000X-0.185000X-0.135000X0*%
%ADD19R,1.550000X0.600000*%
%ADD20R,1.800000X1.200000*%
%ADD21RoundRect,0.050000X-0.075000X0.350000X-0.075000X-0.350000X0.075000X-0.350000X0.075000X0.350000X0*%
%ADD22RoundRect,0.049500X-0.225500X0.100500X-0.225500X-0.100500X0.225500X-0.100500X0.225500X0.100500X0*%
%ADD23RoundRect,0.250000X-0.325000X-0.650000X0.325000X-0.650000X0.325000X0.650000X-0.325000X0.650000X0*%
%ADD24R,1.400000X1.200000*%
%ADD25RoundRect,0.225000X-0.250000X0.225000X-0.250000X-0.225000X0.250000X-0.225000X0.250000X0.225000X0*%
%ADD26RoundRect,0.250000X0.650000X-0.325000X0.650000X0.325000X-0.650000X0.325000X-0.650000X-0.325000X0*%
%ADD27R,1.270000X0.558800*%
%ADD28RoundRect,0.135000X0.135000X0.185000X-0.135000X0.185000X-0.135000X-0.185000X0.135000X-0.185000X0*%
%ADD29RoundRect,0.075000X0.075000X-0.700000X0.075000X0.700000X-0.075000X0.700000X-0.075000X-0.700000X0*%
%ADD30RoundRect,0.075000X0.700000X-0.075000X0.700000X0.075000X-0.700000X0.075000X-0.700000X-0.075000X0*%
%ADD31RoundRect,0.140000X-0.170000X0.140000X-0.170000X-0.140000X0.170000X-0.140000X0.170000X0.140000X0*%
%ADD32RoundRect,0.150000X-0.587500X-0.150000X0.587500X-0.150000X0.587500X0.150000X-0.587500X0.150000X0*%
%ADD33RoundRect,0.027500X0.082500X-0.292500X0.082500X0.292500X-0.082500X0.292500X-0.082500X-0.292500X0*%
%ADD34RoundRect,0.027500X0.292500X-0.082500X0.292500X0.082500X-0.292500X0.082500X-0.292500X-0.082500X0*%
%ADD35R,0.900000X1.200000*%
%ADD36RoundRect,0.225000X-0.225000X-0.250000X0.225000X-0.250000X0.225000X0.250000X-0.225000X0.250000X0*%
%ADD37R,0.600000X1.150000*%
%ADD38R,0.300000X1.150000*%
G04 APERTURE END LIST*
D10*
%TO.C,PS1*%
X157668000Y-87838500D02*
X157670000Y-87838500D01*
X157673000Y-87839500D01*
X157675000Y-87839500D01*
X157678000Y-87840500D01*
X157680000Y-87841500D01*
X157683000Y-87842500D01*
X157685000Y-87844500D01*
X157687000Y-87845500D01*
X157689000Y-87847500D01*
X157691000Y-87848500D01*
X157693000Y-87850500D01*
X157695000Y-87852500D01*
X157697000Y-87854500D01*
X157699000Y-87856500D01*
X157700000Y-87858500D01*
X157702000Y-87860500D01*
X157703000Y-87862500D01*
X157705000Y-87864500D01*
X157706000Y-87867500D01*
X157707000Y-87869500D01*
X157708000Y-87872500D01*
X157708000Y-87874500D01*
X157709000Y-87877500D01*
X157709000Y-87879500D01*
X157710000Y-87882500D01*
X157710000Y-87884500D01*
X157710000Y-87887500D01*
X157710000Y-88237500D01*
X157710000Y-88240500D01*
X157710000Y-88242500D01*
X157709000Y-88245500D01*
X157709000Y-88247500D01*
X157708000Y-88250500D01*
X157708000Y-88252500D01*
X157707000Y-88255500D01*
X157706000Y-88257500D01*
X157705000Y-88260500D01*
X157703000Y-88262500D01*
X157702000Y-88264500D01*
X157700000Y-88266500D01*
X157699000Y-88268500D01*
X157697000Y-88270500D01*
X157695000Y-88272500D01*
X157693000Y-88274500D01*
X157691000Y-88276500D01*
X157689000Y-88277500D01*
X157687000Y-88279500D01*
X157685000Y-88280500D01*
X157683000Y-88282500D01*
X157680000Y-88283500D01*
X157678000Y-88284500D01*
X157675000Y-88285500D01*
X157673000Y-88285500D01*
X157670000Y-88286500D01*
X157668000Y-88286500D01*
X157665000Y-88287500D01*
X157663000Y-88287500D01*
X157660000Y-88287500D01*
X157510000Y-88287500D01*
X157507000Y-88287500D01*
X157505000Y-88287500D01*
X157502000Y-88286500D01*
X157500000Y-88286500D01*
X157497000Y-88285500D01*
X157495000Y-88285500D01*
X157492000Y-88284500D01*
X157490000Y-88283500D01*
X157487000Y-88282500D01*
X157485000Y-88280500D01*
X157483000Y-88279500D01*
X157481000Y-88277500D01*
X157479000Y-88276500D01*
X157477000Y-88274500D01*
X157475000Y-88272500D01*
X157473000Y-88270500D01*
X157471000Y-88268500D01*
X157470000Y-88266500D01*
X157468000Y-88264500D01*
X157467000Y-88262500D01*
X157465000Y-88260500D01*
X157464000Y-88257500D01*
X157463000Y-88255500D01*
X157462000Y-88252500D01*
X157462000Y-88250500D01*
X157461000Y-88247500D01*
X157461000Y-88245500D01*
X157460000Y-88242500D01*
X157460000Y-88240500D01*
X157460000Y-88237500D01*
X157460000Y-87887500D01*
X157460000Y-87884500D01*
X157460000Y-87882500D01*
X157461000Y-87879500D01*
X157461000Y-87877500D01*
X157462000Y-87874500D01*
X157462000Y-87872500D01*
X157463000Y-87869500D01*
X157464000Y-87867500D01*
X157465000Y-87864500D01*
X157467000Y-87862500D01*
X157468000Y-87860500D01*
X157470000Y-87858500D01*
X157471000Y-87856500D01*
X157473000Y-87854500D01*
X157475000Y-87852500D01*
X157477000Y-87850500D01*
X157479000Y-87848500D01*
X157481000Y-87847500D01*
X157483000Y-87845500D01*
X157485000Y-87844500D01*
X157487000Y-87842500D01*
X157490000Y-87841500D01*
X157492000Y-87840500D01*
X157495000Y-87839500D01*
X157497000Y-87839500D01*
X157500000Y-87838500D01*
X157502000Y-87838500D01*
X157505000Y-87837500D01*
X157507000Y-87837500D01*
X157510000Y-87837500D01*
X157660000Y-87837500D01*
X157663000Y-87837500D01*
X157665000Y-87837500D01*
X157668000Y-87838500D01*
G36*
X157668000Y-87838500D02*
G01*
X157670000Y-87838500D01*
X157673000Y-87839500D01*
X157675000Y-87839500D01*
X157678000Y-87840500D01*
X157680000Y-87841500D01*
X157683000Y-87842500D01*
X157685000Y-87844500D01*
X157687000Y-87845500D01*
X157689000Y-87847500D01*
X157691000Y-87848500D01*
X157693000Y-87850500D01*
X157695000Y-87852500D01*
X157697000Y-87854500D01*
X157699000Y-87856500D01*
X157700000Y-87858500D01*
X157702000Y-87860500D01*
X157703000Y-87862500D01*
X157705000Y-87864500D01*
X157706000Y-87867500D01*
X157707000Y-87869500D01*
X157708000Y-87872500D01*
X157708000Y-87874500D01*
X157709000Y-87877500D01*
X157709000Y-87879500D01*
X157710000Y-87882500D01*
X157710000Y-87884500D01*
X157710000Y-87887500D01*
X157710000Y-88237500D01*
X157710000Y-88240500D01*
X157710000Y-88242500D01*
X157709000Y-88245500D01*
X157709000Y-88247500D01*
X157708000Y-88250500D01*
X157708000Y-88252500D01*
X157707000Y-88255500D01*
X157706000Y-88257500D01*
X157705000Y-88260500D01*
X157703000Y-88262500D01*
X157702000Y-88264500D01*
X157700000Y-88266500D01*
X157699000Y-88268500D01*
X157697000Y-88270500D01*
X157695000Y-88272500D01*
X157693000Y-88274500D01*
X157691000Y-88276500D01*
X157689000Y-88277500D01*
X157687000Y-88279500D01*
X157685000Y-88280500D01*
X157683000Y-88282500D01*
X157680000Y-88283500D01*
X157678000Y-88284500D01*
X157675000Y-88285500D01*
X157673000Y-88285500D01*
X157670000Y-88286500D01*
X157668000Y-88286500D01*
X157665000Y-88287500D01*
X157663000Y-88287500D01*
X157660000Y-88287500D01*
X157510000Y-88287500D01*
X157507000Y-88287500D01*
X157505000Y-88287500D01*
X157502000Y-88286500D01*
X157500000Y-88286500D01*
X157497000Y-88285500D01*
X157495000Y-88285500D01*
X157492000Y-88284500D01*
X157490000Y-88283500D01*
X157487000Y-88282500D01*
X157485000Y-88280500D01*
X157483000Y-88279500D01*
X157481000Y-88277500D01*
X157479000Y-88276500D01*
X157477000Y-88274500D01*
X157475000Y-88272500D01*
X157473000Y-88270500D01*
X157471000Y-88268500D01*
X157470000Y-88266500D01*
X157468000Y-88264500D01*
X157467000Y-88262500D01*
X157465000Y-88260500D01*
X157464000Y-88257500D01*
X157463000Y-88255500D01*
X157462000Y-88252500D01*
X157462000Y-88250500D01*
X157461000Y-88247500D01*
X157461000Y-88245500D01*
X157460000Y-88242500D01*
X157460000Y-88240500D01*
X157460000Y-88237500D01*
X157460000Y-87887500D01*
X157460000Y-87884500D01*
X157460000Y-87882500D01*
X157461000Y-87879500D01*
X157461000Y-87877500D01*
X157462000Y-87874500D01*
X157462000Y-87872500D01*
X157463000Y-87869500D01*
X157464000Y-87867500D01*
X157465000Y-87864500D01*
X157467000Y-87862500D01*
X157468000Y-87860500D01*
X157470000Y-87858500D01*
X157471000Y-87856500D01*
X157473000Y-87854500D01*
X157475000Y-87852500D01*
X157477000Y-87850500D01*
X157479000Y-87848500D01*
X157481000Y-87847500D01*
X157483000Y-87845500D01*
X157485000Y-87844500D01*
X157487000Y-87842500D01*
X157490000Y-87841500D01*
X157492000Y-87840500D01*
X157495000Y-87839500D01*
X157497000Y-87839500D01*
X157500000Y-87838500D01*
X157502000Y-87838500D01*
X157505000Y-87837500D01*
X157507000Y-87837500D01*
X157510000Y-87837500D01*
X157660000Y-87837500D01*
X157663000Y-87837500D01*
X157665000Y-87837500D01*
X157668000Y-87838500D01*
G37*
X157668000Y-91088500D02*
X157670000Y-91088500D01*
X157673000Y-91089500D01*
X157675000Y-91089500D01*
X157678000Y-91090500D01*
X157680000Y-91091500D01*
X157683000Y-91092500D01*
X157685000Y-91094500D01*
X157687000Y-91095500D01*
X157689000Y-91097500D01*
X157691000Y-91098500D01*
X157693000Y-91100500D01*
X157695000Y-91102500D01*
X157697000Y-91104500D01*
X157699000Y-91106500D01*
X157700000Y-91108500D01*
X157702000Y-91110500D01*
X157703000Y-91112500D01*
X157705000Y-91114500D01*
X157706000Y-91117500D01*
X157707000Y-91119500D01*
X157708000Y-91122500D01*
X157708000Y-91124500D01*
X157709000Y-91127500D01*
X157709000Y-91129500D01*
X157710000Y-91132500D01*
X157710000Y-91134500D01*
X157710000Y-91137500D01*
X157710000Y-91487500D01*
X157710000Y-91490500D01*
X157710000Y-91492500D01*
X157709000Y-91495500D01*
X157709000Y-91497500D01*
X157708000Y-91500500D01*
X157708000Y-91502500D01*
X157707000Y-91505500D01*
X157706000Y-91507500D01*
X157705000Y-91510500D01*
X157703000Y-91512500D01*
X157702000Y-91514500D01*
X157700000Y-91516500D01*
X157699000Y-91518500D01*
X157697000Y-91520500D01*
X157695000Y-91522500D01*
X157693000Y-91524500D01*
X157691000Y-91526500D01*
X157689000Y-91527500D01*
X157687000Y-91529500D01*
X157685000Y-91530500D01*
X157683000Y-91532500D01*
X157680000Y-91533500D01*
X157678000Y-91534500D01*
X157675000Y-91535500D01*
X157673000Y-91535500D01*
X157670000Y-91536500D01*
X157668000Y-91536500D01*
X157665000Y-91537500D01*
X157663000Y-91537500D01*
X157660000Y-91537500D01*
X157510000Y-91537500D01*
X157507000Y-91537500D01*
X157505000Y-91537500D01*
X157502000Y-91536500D01*
X157500000Y-91536500D01*
X157497000Y-91535500D01*
X157495000Y-91535500D01*
X157492000Y-91534500D01*
X157490000Y-91533500D01*
X157487000Y-91532500D01*
X157485000Y-91530500D01*
X157483000Y-91529500D01*
X157481000Y-91527500D01*
X157479000Y-91526500D01*
X157477000Y-91524500D01*
X157475000Y-91522500D01*
X157473000Y-91520500D01*
X157471000Y-91518500D01*
X157470000Y-91516500D01*
X157468000Y-91514500D01*
X157467000Y-91512500D01*
X157465000Y-91510500D01*
X157464000Y-91507500D01*
X157463000Y-91505500D01*
X157462000Y-91502500D01*
X157462000Y-91500500D01*
X157461000Y-91497500D01*
X157461000Y-91495500D01*
X157460000Y-91492500D01*
X157460000Y-91490500D01*
X157460000Y-91487500D01*
X157460000Y-91137500D01*
X157460000Y-91134500D01*
X157460000Y-91132500D01*
X157461000Y-91129500D01*
X157461000Y-91127500D01*
X157462000Y-91124500D01*
X157462000Y-91122500D01*
X157463000Y-91119500D01*
X157464000Y-91117500D01*
X157465000Y-91114500D01*
X157467000Y-91112500D01*
X157468000Y-91110500D01*
X157470000Y-91108500D01*
X157471000Y-91106500D01*
X157473000Y-91104500D01*
X157475000Y-91102500D01*
X157477000Y-91100500D01*
X157479000Y-91098500D01*
X157481000Y-91097500D01*
X157483000Y-91095500D01*
X157485000Y-91094500D01*
X157487000Y-91092500D01*
X157490000Y-91091500D01*
X157492000Y-91090500D01*
X157495000Y-91089500D01*
X157497000Y-91089500D01*
X157500000Y-91088500D01*
X157502000Y-91088500D01*
X157505000Y-91087500D01*
X157507000Y-91087500D01*
X157510000Y-91087500D01*
X157660000Y-91087500D01*
X157663000Y-91087500D01*
X157665000Y-91087500D01*
X157668000Y-91088500D01*
G36*
X157668000Y-91088500D02*
G01*
X157670000Y-91088500D01*
X157673000Y-91089500D01*
X157675000Y-91089500D01*
X157678000Y-91090500D01*
X157680000Y-91091500D01*
X157683000Y-91092500D01*
X157685000Y-91094500D01*
X157687000Y-91095500D01*
X157689000Y-91097500D01*
X157691000Y-91098500D01*
X157693000Y-91100500D01*
X157695000Y-91102500D01*
X157697000Y-91104500D01*
X157699000Y-91106500D01*
X157700000Y-91108500D01*
X157702000Y-91110500D01*
X157703000Y-91112500D01*
X157705000Y-91114500D01*
X157706000Y-91117500D01*
X157707000Y-91119500D01*
X157708000Y-91122500D01*
X157708000Y-91124500D01*
X157709000Y-91127500D01*
X157709000Y-91129500D01*
X157710000Y-91132500D01*
X157710000Y-91134500D01*
X157710000Y-91137500D01*
X157710000Y-91487500D01*
X157710000Y-91490500D01*
X157710000Y-91492500D01*
X157709000Y-91495500D01*
X157709000Y-91497500D01*
X157708000Y-91500500D01*
X157708000Y-91502500D01*
X157707000Y-91505500D01*
X157706000Y-91507500D01*
X157705000Y-91510500D01*
X157703000Y-91512500D01*
X157702000Y-91514500D01*
X157700000Y-91516500D01*
X157699000Y-91518500D01*
X157697000Y-91520500D01*
X157695000Y-91522500D01*
X157693000Y-91524500D01*
X157691000Y-91526500D01*
X157689000Y-91527500D01*
X157687000Y-91529500D01*
X157685000Y-91530500D01*
X157683000Y-91532500D01*
X157680000Y-91533500D01*
X157678000Y-91534500D01*
X157675000Y-91535500D01*
X157673000Y-91535500D01*
X157670000Y-91536500D01*
X157668000Y-91536500D01*
X157665000Y-91537500D01*
X157663000Y-91537500D01*
X157660000Y-91537500D01*
X157510000Y-91537500D01*
X157507000Y-91537500D01*
X157505000Y-91537500D01*
X157502000Y-91536500D01*
X157500000Y-91536500D01*
X157497000Y-91535500D01*
X157495000Y-91535500D01*
X157492000Y-91534500D01*
X157490000Y-91533500D01*
X157487000Y-91532500D01*
X157485000Y-91530500D01*
X157483000Y-91529500D01*
X157481000Y-91527500D01*
X157479000Y-91526500D01*
X157477000Y-91524500D01*
X157475000Y-91522500D01*
X157473000Y-91520500D01*
X157471000Y-91518500D01*
X157470000Y-91516500D01*
X157468000Y-91514500D01*
X157467000Y-91512500D01*
X157465000Y-91510500D01*
X157464000Y-91507500D01*
X157463000Y-91505500D01*
X157462000Y-91502500D01*
X157462000Y-91500500D01*
X157461000Y-91497500D01*
X157461000Y-91495500D01*
X157460000Y-91492500D01*
X157460000Y-91490500D01*
X157460000Y-91487500D01*
X157460000Y-91137500D01*
X157460000Y-91134500D01*
X157460000Y-91132500D01*
X157461000Y-91129500D01*
X157461000Y-91127500D01*
X157462000Y-91124500D01*
X157462000Y-91122500D01*
X157463000Y-91119500D01*
X157464000Y-91117500D01*
X157465000Y-91114500D01*
X157467000Y-91112500D01*
X157468000Y-91110500D01*
X157470000Y-91108500D01*
X157471000Y-91106500D01*
X157473000Y-91104500D01*
X157475000Y-91102500D01*
X157477000Y-91100500D01*
X157479000Y-91098500D01*
X157481000Y-91097500D01*
X157483000Y-91095500D01*
X157485000Y-91094500D01*
X157487000Y-91092500D01*
X157490000Y-91091500D01*
X157492000Y-91090500D01*
X157495000Y-91089500D01*
X157497000Y-91089500D01*
X157500000Y-91088500D01*
X157502000Y-91088500D01*
X157505000Y-91087500D01*
X157507000Y-91087500D01*
X157510000Y-91087500D01*
X157660000Y-91087500D01*
X157663000Y-91087500D01*
X157665000Y-91087500D01*
X157668000Y-91088500D01*
G37*
X158168000Y-87838500D02*
X158170000Y-87838500D01*
X158173000Y-87839500D01*
X158175000Y-87839500D01*
X158178000Y-87840500D01*
X158180000Y-87841500D01*
X158183000Y-87842500D01*
X158185000Y-87844500D01*
X158187000Y-87845500D01*
X158189000Y-87847500D01*
X158191000Y-87848500D01*
X158193000Y-87850500D01*
X158195000Y-87852500D01*
X158197000Y-87854500D01*
X158199000Y-87856500D01*
X158200000Y-87858500D01*
X158202000Y-87860500D01*
X158203000Y-87862500D01*
X158205000Y-87864500D01*
X158206000Y-87867500D01*
X158207000Y-87869500D01*
X158208000Y-87872500D01*
X158208000Y-87874500D01*
X158209000Y-87877500D01*
X158209000Y-87879500D01*
X158210000Y-87882500D01*
X158210000Y-87884500D01*
X158210000Y-87887500D01*
X158210000Y-88237500D01*
X158210000Y-88240500D01*
X158210000Y-88242500D01*
X158209000Y-88245500D01*
X158209000Y-88247500D01*
X158208000Y-88250500D01*
X158208000Y-88252500D01*
X158207000Y-88255500D01*
X158206000Y-88257500D01*
X158205000Y-88260500D01*
X158203000Y-88262500D01*
X158202000Y-88264500D01*
X158200000Y-88266500D01*
X158199000Y-88268500D01*
X158197000Y-88270500D01*
X158195000Y-88272500D01*
X158193000Y-88274500D01*
X158191000Y-88276500D01*
X158189000Y-88277500D01*
X158187000Y-88279500D01*
X158185000Y-88280500D01*
X158183000Y-88282500D01*
X158180000Y-88283500D01*
X158178000Y-88284500D01*
X158175000Y-88285500D01*
X158173000Y-88285500D01*
X158170000Y-88286500D01*
X158168000Y-88286500D01*
X158165000Y-88287500D01*
X158163000Y-88287500D01*
X158160000Y-88287500D01*
X158010000Y-88287500D01*
X158007000Y-88287500D01*
X158005000Y-88287500D01*
X158002000Y-88286500D01*
X158000000Y-88286500D01*
X157997000Y-88285500D01*
X157995000Y-88285500D01*
X157992000Y-88284500D01*
X157990000Y-88283500D01*
X157987000Y-88282500D01*
X157985000Y-88280500D01*
X157983000Y-88279500D01*
X157981000Y-88277500D01*
X157979000Y-88276500D01*
X157977000Y-88274500D01*
X157975000Y-88272500D01*
X157973000Y-88270500D01*
X157971000Y-88268500D01*
X157970000Y-88266500D01*
X157968000Y-88264500D01*
X157967000Y-88262500D01*
X157965000Y-88260500D01*
X157964000Y-88257500D01*
X157963000Y-88255500D01*
X157962000Y-88252500D01*
X157962000Y-88250500D01*
X157961000Y-88247500D01*
X157961000Y-88245500D01*
X157960000Y-88242500D01*
X157960000Y-88240500D01*
X157960000Y-88237500D01*
X157960000Y-87887500D01*
X157960000Y-87884500D01*
X157960000Y-87882500D01*
X157961000Y-87879500D01*
X157961000Y-87877500D01*
X157962000Y-87874500D01*
X157962000Y-87872500D01*
X157963000Y-87869500D01*
X157964000Y-87867500D01*
X157965000Y-87864500D01*
X157967000Y-87862500D01*
X157968000Y-87860500D01*
X157970000Y-87858500D01*
X157971000Y-87856500D01*
X157973000Y-87854500D01*
X157975000Y-87852500D01*
X157977000Y-87850500D01*
X157979000Y-87848500D01*
X157981000Y-87847500D01*
X157983000Y-87845500D01*
X157985000Y-87844500D01*
X157987000Y-87842500D01*
X157990000Y-87841500D01*
X157992000Y-87840500D01*
X157995000Y-87839500D01*
X157997000Y-87839500D01*
X158000000Y-87838500D01*
X158002000Y-87838500D01*
X158005000Y-87837500D01*
X158007000Y-87837500D01*
X158010000Y-87837500D01*
X158160000Y-87837500D01*
X158163000Y-87837500D01*
X158165000Y-87837500D01*
X158168000Y-87838500D01*
G36*
X158168000Y-87838500D02*
G01*
X158170000Y-87838500D01*
X158173000Y-87839500D01*
X158175000Y-87839500D01*
X158178000Y-87840500D01*
X158180000Y-87841500D01*
X158183000Y-87842500D01*
X158185000Y-87844500D01*
X158187000Y-87845500D01*
X158189000Y-87847500D01*
X158191000Y-87848500D01*
X158193000Y-87850500D01*
X158195000Y-87852500D01*
X158197000Y-87854500D01*
X158199000Y-87856500D01*
X158200000Y-87858500D01*
X158202000Y-87860500D01*
X158203000Y-87862500D01*
X158205000Y-87864500D01*
X158206000Y-87867500D01*
X158207000Y-87869500D01*
X158208000Y-87872500D01*
X158208000Y-87874500D01*
X158209000Y-87877500D01*
X158209000Y-87879500D01*
X158210000Y-87882500D01*
X158210000Y-87884500D01*
X158210000Y-87887500D01*
X158210000Y-88237500D01*
X158210000Y-88240500D01*
X158210000Y-88242500D01*
X158209000Y-88245500D01*
X158209000Y-88247500D01*
X158208000Y-88250500D01*
X158208000Y-88252500D01*
X158207000Y-88255500D01*
X158206000Y-88257500D01*
X158205000Y-88260500D01*
X158203000Y-88262500D01*
X158202000Y-88264500D01*
X158200000Y-88266500D01*
X158199000Y-88268500D01*
X158197000Y-88270500D01*
X158195000Y-88272500D01*
X158193000Y-88274500D01*
X158191000Y-88276500D01*
X158189000Y-88277500D01*
X158187000Y-88279500D01*
X158185000Y-88280500D01*
X158183000Y-88282500D01*
X158180000Y-88283500D01*
X158178000Y-88284500D01*
X158175000Y-88285500D01*
X158173000Y-88285500D01*
X158170000Y-88286500D01*
X158168000Y-88286500D01*
X158165000Y-88287500D01*
X158163000Y-88287500D01*
X158160000Y-88287500D01*
X158010000Y-88287500D01*
X158007000Y-88287500D01*
X158005000Y-88287500D01*
X158002000Y-88286500D01*
X158000000Y-88286500D01*
X157997000Y-88285500D01*
X157995000Y-88285500D01*
X157992000Y-88284500D01*
X157990000Y-88283500D01*
X157987000Y-88282500D01*
X157985000Y-88280500D01*
X157983000Y-88279500D01*
X157981000Y-88277500D01*
X157979000Y-88276500D01*
X157977000Y-88274500D01*
X157975000Y-88272500D01*
X157973000Y-88270500D01*
X157971000Y-88268500D01*
X157970000Y-88266500D01*
X157968000Y-88264500D01*
X157967000Y-88262500D01*
X157965000Y-88260500D01*
X157964000Y-88257500D01*
X157963000Y-88255500D01*
X157962000Y-88252500D01*
X157962000Y-88250500D01*
X157961000Y-88247500D01*
X157961000Y-88245500D01*
X157960000Y-88242500D01*
X157960000Y-88240500D01*
X157960000Y-88237500D01*
X157960000Y-87887500D01*
X157960000Y-87884500D01*
X157960000Y-87882500D01*
X157961000Y-87879500D01*
X157961000Y-87877500D01*
X157962000Y-87874500D01*
X157962000Y-87872500D01*
X157963000Y-87869500D01*
X157964000Y-87867500D01*
X157965000Y-87864500D01*
X157967000Y-87862500D01*
X157968000Y-87860500D01*
X157970000Y-87858500D01*
X157971000Y-87856500D01*
X157973000Y-87854500D01*
X157975000Y-87852500D01*
X157977000Y-87850500D01*
X157979000Y-87848500D01*
X157981000Y-87847500D01*
X157983000Y-87845500D01*
X157985000Y-87844500D01*
X157987000Y-87842500D01*
X157990000Y-87841500D01*
X157992000Y-87840500D01*
X157995000Y-87839500D01*
X157997000Y-87839500D01*
X158000000Y-87838500D01*
X158002000Y-87838500D01*
X158005000Y-87837500D01*
X158007000Y-87837500D01*
X158010000Y-87837500D01*
X158160000Y-87837500D01*
X158163000Y-87837500D01*
X158165000Y-87837500D01*
X158168000Y-87838500D01*
G37*
X158168000Y-91088500D02*
X158170000Y-91088500D01*
X158173000Y-91089500D01*
X158175000Y-91089500D01*
X158178000Y-91090500D01*
X158180000Y-91091500D01*
X158183000Y-91092500D01*
X158185000Y-91094500D01*
X158187000Y-91095500D01*
X158189000Y-91097500D01*
X158191000Y-91098500D01*
X158193000Y-91100500D01*
X158195000Y-91102500D01*
X158197000Y-91104500D01*
X158199000Y-91106500D01*
X158200000Y-91108500D01*
X158202000Y-91110500D01*
X158203000Y-91112500D01*
X158205000Y-91114500D01*
X158206000Y-91117500D01*
X158207000Y-91119500D01*
X158208000Y-91122500D01*
X158208000Y-91124500D01*
X158209000Y-91127500D01*
X158209000Y-91129500D01*
X158210000Y-91132500D01*
X158210000Y-91134500D01*
X158210000Y-91137500D01*
X158210000Y-91487500D01*
X158210000Y-91490500D01*
X158210000Y-91492500D01*
X158209000Y-91495500D01*
X158209000Y-91497500D01*
X158208000Y-91500500D01*
X158208000Y-91502500D01*
X158207000Y-91505500D01*
X158206000Y-91507500D01*
X158205000Y-91510500D01*
X158203000Y-91512500D01*
X158202000Y-91514500D01*
X158200000Y-91516500D01*
X158199000Y-91518500D01*
X158197000Y-91520500D01*
X158195000Y-91522500D01*
X158193000Y-91524500D01*
X158191000Y-91526500D01*
X158189000Y-91527500D01*
X158187000Y-91529500D01*
X158185000Y-91530500D01*
X158183000Y-91532500D01*
X158180000Y-91533500D01*
X158178000Y-91534500D01*
X158175000Y-91535500D01*
X158173000Y-91535500D01*
X158170000Y-91536500D01*
X158168000Y-91536500D01*
X158165000Y-91537500D01*
X158163000Y-91537500D01*
X158160000Y-91537500D01*
X158010000Y-91537500D01*
X158007000Y-91537500D01*
X158005000Y-91537500D01*
X158002000Y-91536500D01*
X158000000Y-91536500D01*
X157997000Y-91535500D01*
X157995000Y-91535500D01*
X157992000Y-91534500D01*
X157990000Y-91533500D01*
X157987000Y-91532500D01*
X157985000Y-91530500D01*
X157983000Y-91529500D01*
X157981000Y-91527500D01*
X157979000Y-91526500D01*
X157977000Y-91524500D01*
X157975000Y-91522500D01*
X157973000Y-91520500D01*
X157971000Y-91518500D01*
X157970000Y-91516500D01*
X157968000Y-91514500D01*
X157967000Y-91512500D01*
X157965000Y-91510500D01*
X157964000Y-91507500D01*
X157963000Y-91505500D01*
X157962000Y-91502500D01*
X157962000Y-91500500D01*
X157961000Y-91497500D01*
X157961000Y-91495500D01*
X157960000Y-91492500D01*
X157960000Y-91490500D01*
X157960000Y-91487500D01*
X157960000Y-91137500D01*
X157960000Y-91134500D01*
X157960000Y-91132500D01*
X157961000Y-91129500D01*
X157961000Y-91127500D01*
X157962000Y-91124500D01*
X157962000Y-91122500D01*
X157963000Y-91119500D01*
X157964000Y-91117500D01*
X157965000Y-91114500D01*
X157967000Y-91112500D01*
X157968000Y-91110500D01*
X157970000Y-91108500D01*
X157971000Y-91106500D01*
X157973000Y-91104500D01*
X157975000Y-91102500D01*
X157977000Y-91100500D01*
X157979000Y-91098500D01*
X157981000Y-91097500D01*
X157983000Y-91095500D01*
X157985000Y-91094500D01*
X157987000Y-91092500D01*
X157990000Y-91091500D01*
X157992000Y-91090500D01*
X157995000Y-91089500D01*
X157997000Y-91089500D01*
X158000000Y-91088500D01*
X158002000Y-91088500D01*
X158005000Y-91087500D01*
X158007000Y-91087500D01*
X158010000Y-91087500D01*
X158160000Y-91087500D01*
X158163000Y-91087500D01*
X158165000Y-91087500D01*
X158168000Y-91088500D01*
G36*
X158168000Y-91088500D02*
G01*
X158170000Y-91088500D01*
X158173000Y-91089500D01*
X158175000Y-91089500D01*
X158178000Y-91090500D01*
X158180000Y-91091500D01*
X158183000Y-91092500D01*
X158185000Y-91094500D01*
X158187000Y-91095500D01*
X158189000Y-91097500D01*
X158191000Y-91098500D01*
X158193000Y-91100500D01*
X158195000Y-91102500D01*
X158197000Y-91104500D01*
X158199000Y-91106500D01*
X158200000Y-91108500D01*
X158202000Y-91110500D01*
X158203000Y-91112500D01*
X158205000Y-91114500D01*
X158206000Y-91117500D01*
X158207000Y-91119500D01*
X158208000Y-91122500D01*
X158208000Y-91124500D01*
X158209000Y-91127500D01*
X158209000Y-91129500D01*
X158210000Y-91132500D01*
X158210000Y-91134500D01*
X158210000Y-91137500D01*
X158210000Y-91487500D01*
X158210000Y-91490500D01*
X158210000Y-91492500D01*
X158209000Y-91495500D01*
X158209000Y-91497500D01*
X158208000Y-91500500D01*
X158208000Y-91502500D01*
X158207000Y-91505500D01*
X158206000Y-91507500D01*
X158205000Y-91510500D01*
X158203000Y-91512500D01*
X158202000Y-91514500D01*
X158200000Y-91516500D01*
X158199000Y-91518500D01*
X158197000Y-91520500D01*
X158195000Y-91522500D01*
X158193000Y-91524500D01*
X158191000Y-91526500D01*
X158189000Y-91527500D01*
X158187000Y-91529500D01*
X158185000Y-91530500D01*
X158183000Y-91532500D01*
X158180000Y-91533500D01*
X158178000Y-91534500D01*
X158175000Y-91535500D01*
X158173000Y-91535500D01*
X158170000Y-91536500D01*
X158168000Y-91536500D01*
X158165000Y-91537500D01*
X158163000Y-91537500D01*
X158160000Y-91537500D01*
X158010000Y-91537500D01*
X158007000Y-91537500D01*
X158005000Y-91537500D01*
X158002000Y-91536500D01*
X158000000Y-91536500D01*
X157997000Y-91535500D01*
X157995000Y-91535500D01*
X157992000Y-91534500D01*
X157990000Y-91533500D01*
X157987000Y-91532500D01*
X157985000Y-91530500D01*
X157983000Y-91529500D01*
X157981000Y-91527500D01*
X157979000Y-91526500D01*
X157977000Y-91524500D01*
X157975000Y-91522500D01*
X157973000Y-91520500D01*
X157971000Y-91518500D01*
X157970000Y-91516500D01*
X157968000Y-91514500D01*
X157967000Y-91512500D01*
X157965000Y-91510500D01*
X157964000Y-91507500D01*
X157963000Y-91505500D01*
X157962000Y-91502500D01*
X157962000Y-91500500D01*
X157961000Y-91497500D01*
X157961000Y-91495500D01*
X157960000Y-91492500D01*
X157960000Y-91490500D01*
X157960000Y-91487500D01*
X157960000Y-91137500D01*
X157960000Y-91134500D01*
X157960000Y-91132500D01*
X157961000Y-91129500D01*
X157961000Y-91127500D01*
X157962000Y-91124500D01*
X157962000Y-91122500D01*
X157963000Y-91119500D01*
X157964000Y-91117500D01*
X157965000Y-91114500D01*
X157967000Y-91112500D01*
X157968000Y-91110500D01*
X157970000Y-91108500D01*
X157971000Y-91106500D01*
X157973000Y-91104500D01*
X157975000Y-91102500D01*
X157977000Y-91100500D01*
X157979000Y-91098500D01*
X157981000Y-91097500D01*
X157983000Y-91095500D01*
X157985000Y-91094500D01*
X157987000Y-91092500D01*
X157990000Y-91091500D01*
X157992000Y-91090500D01*
X157995000Y-91089500D01*
X157997000Y-91089500D01*
X158000000Y-91088500D01*
X158002000Y-91088500D01*
X158005000Y-91087500D01*
X158007000Y-91087500D01*
X158010000Y-91087500D01*
X158160000Y-91087500D01*
X158163000Y-91087500D01*
X158165000Y-91087500D01*
X158168000Y-91088500D01*
G37*
X158668000Y-87838500D02*
X158670000Y-87838500D01*
X158673000Y-87839500D01*
X158675000Y-87839500D01*
X158678000Y-87840500D01*
X158680000Y-87841500D01*
X158683000Y-87842500D01*
X158685000Y-87844500D01*
X158687000Y-87845500D01*
X158689000Y-87847500D01*
X158691000Y-87848500D01*
X158693000Y-87850500D01*
X158695000Y-87852500D01*
X158697000Y-87854500D01*
X158699000Y-87856500D01*
X158700000Y-87858500D01*
X158702000Y-87860500D01*
X158703000Y-87862500D01*
X158705000Y-87864500D01*
X158706000Y-87867500D01*
X158707000Y-87869500D01*
X158708000Y-87872500D01*
X158708000Y-87874500D01*
X158709000Y-87877500D01*
X158709000Y-87879500D01*
X158710000Y-87882500D01*
X158710000Y-87884500D01*
X158710000Y-87887500D01*
X158710000Y-88237500D01*
X158710000Y-88240500D01*
X158710000Y-88242500D01*
X158709000Y-88245500D01*
X158709000Y-88247500D01*
X158708000Y-88250500D01*
X158708000Y-88252500D01*
X158707000Y-88255500D01*
X158706000Y-88257500D01*
X158705000Y-88260500D01*
X158703000Y-88262500D01*
X158702000Y-88264500D01*
X158700000Y-88266500D01*
X158699000Y-88268500D01*
X158697000Y-88270500D01*
X158695000Y-88272500D01*
X158693000Y-88274500D01*
X158691000Y-88276500D01*
X158689000Y-88277500D01*
X158687000Y-88279500D01*
X158685000Y-88280500D01*
X158683000Y-88282500D01*
X158680000Y-88283500D01*
X158678000Y-88284500D01*
X158675000Y-88285500D01*
X158673000Y-88285500D01*
X158670000Y-88286500D01*
X158668000Y-88286500D01*
X158665000Y-88287500D01*
X158663000Y-88287500D01*
X158660000Y-88287500D01*
X158510000Y-88287500D01*
X158507000Y-88287500D01*
X158505000Y-88287500D01*
X158502000Y-88286500D01*
X158500000Y-88286500D01*
X158497000Y-88285500D01*
X158495000Y-88285500D01*
X158492000Y-88284500D01*
X158490000Y-88283500D01*
X158487000Y-88282500D01*
X158485000Y-88280500D01*
X158483000Y-88279500D01*
X158481000Y-88277500D01*
X158479000Y-88276500D01*
X158477000Y-88274500D01*
X158475000Y-88272500D01*
X158473000Y-88270500D01*
X158471000Y-88268500D01*
X158470000Y-88266500D01*
X158468000Y-88264500D01*
X158467000Y-88262500D01*
X158465000Y-88260500D01*
X158464000Y-88257500D01*
X158463000Y-88255500D01*
X158462000Y-88252500D01*
X158462000Y-88250500D01*
X158461000Y-88247500D01*
X158461000Y-88245500D01*
X158460000Y-88242500D01*
X158460000Y-88240500D01*
X158460000Y-88237500D01*
X158460000Y-87887500D01*
X158460000Y-87884500D01*
X158460000Y-87882500D01*
X158461000Y-87879500D01*
X158461000Y-87877500D01*
X158462000Y-87874500D01*
X158462000Y-87872500D01*
X158463000Y-87869500D01*
X158464000Y-87867500D01*
X158465000Y-87864500D01*
X158467000Y-87862500D01*
X158468000Y-87860500D01*
X158470000Y-87858500D01*
X158471000Y-87856500D01*
X158473000Y-87854500D01*
X158475000Y-87852500D01*
X158477000Y-87850500D01*
X158479000Y-87848500D01*
X158481000Y-87847500D01*
X158483000Y-87845500D01*
X158485000Y-87844500D01*
X158487000Y-87842500D01*
X158490000Y-87841500D01*
X158492000Y-87840500D01*
X158495000Y-87839500D01*
X158497000Y-87839500D01*
X158500000Y-87838500D01*
X158502000Y-87838500D01*
X158505000Y-87837500D01*
X158507000Y-87837500D01*
X158510000Y-87837500D01*
X158660000Y-87837500D01*
X158663000Y-87837500D01*
X158665000Y-87837500D01*
X158668000Y-87838500D01*
G36*
X158668000Y-87838500D02*
G01*
X158670000Y-87838500D01*
X158673000Y-87839500D01*
X158675000Y-87839500D01*
X158678000Y-87840500D01*
X158680000Y-87841500D01*
X158683000Y-87842500D01*
X158685000Y-87844500D01*
X158687000Y-87845500D01*
X158689000Y-87847500D01*
X158691000Y-87848500D01*
X158693000Y-87850500D01*
X158695000Y-87852500D01*
X158697000Y-87854500D01*
X158699000Y-87856500D01*
X158700000Y-87858500D01*
X158702000Y-87860500D01*
X158703000Y-87862500D01*
X158705000Y-87864500D01*
X158706000Y-87867500D01*
X158707000Y-87869500D01*
X158708000Y-87872500D01*
X158708000Y-87874500D01*
X158709000Y-87877500D01*
X158709000Y-87879500D01*
X158710000Y-87882500D01*
X158710000Y-87884500D01*
X158710000Y-87887500D01*
X158710000Y-88237500D01*
X158710000Y-88240500D01*
X158710000Y-88242500D01*
X158709000Y-88245500D01*
X158709000Y-88247500D01*
X158708000Y-88250500D01*
X158708000Y-88252500D01*
X158707000Y-88255500D01*
X158706000Y-88257500D01*
X158705000Y-88260500D01*
X158703000Y-88262500D01*
X158702000Y-88264500D01*
X158700000Y-88266500D01*
X158699000Y-88268500D01*
X158697000Y-88270500D01*
X158695000Y-88272500D01*
X158693000Y-88274500D01*
X158691000Y-88276500D01*
X158689000Y-88277500D01*
X158687000Y-88279500D01*
X158685000Y-88280500D01*
X158683000Y-88282500D01*
X158680000Y-88283500D01*
X158678000Y-88284500D01*
X158675000Y-88285500D01*
X158673000Y-88285500D01*
X158670000Y-88286500D01*
X158668000Y-88286500D01*
X158665000Y-88287500D01*
X158663000Y-88287500D01*
X158660000Y-88287500D01*
X158510000Y-88287500D01*
X158507000Y-88287500D01*
X158505000Y-88287500D01*
X158502000Y-88286500D01*
X158500000Y-88286500D01*
X158497000Y-88285500D01*
X158495000Y-88285500D01*
X158492000Y-88284500D01*
X158490000Y-88283500D01*
X158487000Y-88282500D01*
X158485000Y-88280500D01*
X158483000Y-88279500D01*
X158481000Y-88277500D01*
X158479000Y-88276500D01*
X158477000Y-88274500D01*
X158475000Y-88272500D01*
X158473000Y-88270500D01*
X158471000Y-88268500D01*
X158470000Y-88266500D01*
X158468000Y-88264500D01*
X158467000Y-88262500D01*
X158465000Y-88260500D01*
X158464000Y-88257500D01*
X158463000Y-88255500D01*
X158462000Y-88252500D01*
X158462000Y-88250500D01*
X158461000Y-88247500D01*
X158461000Y-88245500D01*
X158460000Y-88242500D01*
X158460000Y-88240500D01*
X158460000Y-88237500D01*
X158460000Y-87887500D01*
X158460000Y-87884500D01*
X158460000Y-87882500D01*
X158461000Y-87879500D01*
X158461000Y-87877500D01*
X158462000Y-87874500D01*
X158462000Y-87872500D01*
X158463000Y-87869500D01*
X158464000Y-87867500D01*
X158465000Y-87864500D01*
X158467000Y-87862500D01*
X158468000Y-87860500D01*
X158470000Y-87858500D01*
X158471000Y-87856500D01*
X158473000Y-87854500D01*
X158475000Y-87852500D01*
X158477000Y-87850500D01*
X158479000Y-87848500D01*
X158481000Y-87847500D01*
X158483000Y-87845500D01*
X158485000Y-87844500D01*
X158487000Y-87842500D01*
X158490000Y-87841500D01*
X158492000Y-87840500D01*
X158495000Y-87839500D01*
X158497000Y-87839500D01*
X158500000Y-87838500D01*
X158502000Y-87838500D01*
X158505000Y-87837500D01*
X158507000Y-87837500D01*
X158510000Y-87837500D01*
X158660000Y-87837500D01*
X158663000Y-87837500D01*
X158665000Y-87837500D01*
X158668000Y-87838500D01*
G37*
X158668000Y-91088500D02*
X158670000Y-91088500D01*
X158673000Y-91089500D01*
X158675000Y-91089500D01*
X158678000Y-91090500D01*
X158680000Y-91091500D01*
X158683000Y-91092500D01*
X158685000Y-91094500D01*
X158687000Y-91095500D01*
X158689000Y-91097500D01*
X158691000Y-91098500D01*
X158693000Y-91100500D01*
X158695000Y-91102500D01*
X158697000Y-91104500D01*
X158699000Y-91106500D01*
X158700000Y-91108500D01*
X158702000Y-91110500D01*
X158703000Y-91112500D01*
X158705000Y-91114500D01*
X158706000Y-91117500D01*
X158707000Y-91119500D01*
X158708000Y-91122500D01*
X158708000Y-91124500D01*
X158709000Y-91127500D01*
X158709000Y-91129500D01*
X158710000Y-91132500D01*
X158710000Y-91134500D01*
X158710000Y-91137500D01*
X158710000Y-91487500D01*
X158710000Y-91490500D01*
X158710000Y-91492500D01*
X158709000Y-91495500D01*
X158709000Y-91497500D01*
X158708000Y-91500500D01*
X158708000Y-91502500D01*
X158707000Y-91505500D01*
X158706000Y-91507500D01*
X158705000Y-91510500D01*
X158703000Y-91512500D01*
X158702000Y-91514500D01*
X158700000Y-91516500D01*
X158699000Y-91518500D01*
X158697000Y-91520500D01*
X158695000Y-91522500D01*
X158693000Y-91524500D01*
X158691000Y-91526500D01*
X158689000Y-91527500D01*
X158687000Y-91529500D01*
X158685000Y-91530500D01*
X158683000Y-91532500D01*
X158680000Y-91533500D01*
X158678000Y-91534500D01*
X158675000Y-91535500D01*
X158673000Y-91535500D01*
X158670000Y-91536500D01*
X158668000Y-91536500D01*
X158665000Y-91537500D01*
X158663000Y-91537500D01*
X158660000Y-91537500D01*
X158510000Y-91537500D01*
X158507000Y-91537500D01*
X158505000Y-91537500D01*
X158502000Y-91536500D01*
X158500000Y-91536500D01*
X158497000Y-91535500D01*
X158495000Y-91535500D01*
X158492000Y-91534500D01*
X158490000Y-91533500D01*
X158487000Y-91532500D01*
X158485000Y-91530500D01*
X158483000Y-91529500D01*
X158481000Y-91527500D01*
X158479000Y-91526500D01*
X158477000Y-91524500D01*
X158475000Y-91522500D01*
X158473000Y-91520500D01*
X158471000Y-91518500D01*
X158470000Y-91516500D01*
X158468000Y-91514500D01*
X158467000Y-91512500D01*
X158465000Y-91510500D01*
X158464000Y-91507500D01*
X158463000Y-91505500D01*
X158462000Y-91502500D01*
X158462000Y-91500500D01*
X158461000Y-91497500D01*
X158461000Y-91495500D01*
X158460000Y-91492500D01*
X158460000Y-91490500D01*
X158460000Y-91487500D01*
X158460000Y-91137500D01*
X158460000Y-91134500D01*
X158460000Y-91132500D01*
X158461000Y-91129500D01*
X158461000Y-91127500D01*
X158462000Y-91124500D01*
X158462000Y-91122500D01*
X158463000Y-91119500D01*
X158464000Y-91117500D01*
X158465000Y-91114500D01*
X158467000Y-91112500D01*
X158468000Y-91110500D01*
X158470000Y-91108500D01*
X158471000Y-91106500D01*
X158473000Y-91104500D01*
X158475000Y-91102500D01*
X158477000Y-91100500D01*
X158479000Y-91098500D01*
X158481000Y-91097500D01*
X158483000Y-91095500D01*
X158485000Y-91094500D01*
X158487000Y-91092500D01*
X158490000Y-91091500D01*
X158492000Y-91090500D01*
X158495000Y-91089500D01*
X158497000Y-91089500D01*
X158500000Y-91088500D01*
X158502000Y-91088500D01*
X158505000Y-91087500D01*
X158507000Y-91087500D01*
X158510000Y-91087500D01*
X158660000Y-91087500D01*
X158663000Y-91087500D01*
X158665000Y-91087500D01*
X158668000Y-91088500D01*
G36*
X158668000Y-91088500D02*
G01*
X158670000Y-91088500D01*
X158673000Y-91089500D01*
X158675000Y-91089500D01*
X158678000Y-91090500D01*
X158680000Y-91091500D01*
X158683000Y-91092500D01*
X158685000Y-91094500D01*
X158687000Y-91095500D01*
X158689000Y-91097500D01*
X158691000Y-91098500D01*
X158693000Y-91100500D01*
X158695000Y-91102500D01*
X158697000Y-91104500D01*
X158699000Y-91106500D01*
X158700000Y-91108500D01*
X158702000Y-91110500D01*
X158703000Y-91112500D01*
X158705000Y-91114500D01*
X158706000Y-91117500D01*
X158707000Y-91119500D01*
X158708000Y-91122500D01*
X158708000Y-91124500D01*
X158709000Y-91127500D01*
X158709000Y-91129500D01*
X158710000Y-91132500D01*
X158710000Y-91134500D01*
X158710000Y-91137500D01*
X158710000Y-91487500D01*
X158710000Y-91490500D01*
X158710000Y-91492500D01*
X158709000Y-91495500D01*
X158709000Y-91497500D01*
X158708000Y-91500500D01*
X158708000Y-91502500D01*
X158707000Y-91505500D01*
X158706000Y-91507500D01*
X158705000Y-91510500D01*
X158703000Y-91512500D01*
X158702000Y-91514500D01*
X158700000Y-91516500D01*
X158699000Y-91518500D01*
X158697000Y-91520500D01*
X158695000Y-91522500D01*
X158693000Y-91524500D01*
X158691000Y-91526500D01*
X158689000Y-91527500D01*
X158687000Y-91529500D01*
X158685000Y-91530500D01*
X158683000Y-91532500D01*
X158680000Y-91533500D01*
X158678000Y-91534500D01*
X158675000Y-91535500D01*
X158673000Y-91535500D01*
X158670000Y-91536500D01*
X158668000Y-91536500D01*
X158665000Y-91537500D01*
X158663000Y-91537500D01*
X158660000Y-91537500D01*
X158510000Y-91537500D01*
X158507000Y-91537500D01*
X158505000Y-91537500D01*
X158502000Y-91536500D01*
X158500000Y-91536500D01*
X158497000Y-91535500D01*
X158495000Y-91535500D01*
X158492000Y-91534500D01*
X158490000Y-91533500D01*
X158487000Y-91532500D01*
X158485000Y-91530500D01*
X158483000Y-91529500D01*
X158481000Y-91527500D01*
X158479000Y-91526500D01*
X158477000Y-91524500D01*
X158475000Y-91522500D01*
X158473000Y-91520500D01*
X158471000Y-91518500D01*
X158470000Y-91516500D01*
X158468000Y-91514500D01*
X158467000Y-91512500D01*
X158465000Y-91510500D01*
X158464000Y-91507500D01*
X158463000Y-91505500D01*
X158462000Y-91502500D01*
X158462000Y-91500500D01*
X158461000Y-91497500D01*
X158461000Y-91495500D01*
X158460000Y-91492500D01*
X158460000Y-91490500D01*
X158460000Y-91487500D01*
X158460000Y-91137500D01*
X158460000Y-91134500D01*
X158460000Y-91132500D01*
X158461000Y-91129500D01*
X158461000Y-91127500D01*
X158462000Y-91124500D01*
X158462000Y-91122500D01*
X158463000Y-91119500D01*
X158464000Y-91117500D01*
X158465000Y-91114500D01*
X158467000Y-91112500D01*
X158468000Y-91110500D01*
X158470000Y-91108500D01*
X158471000Y-91106500D01*
X158473000Y-91104500D01*
X158475000Y-91102500D01*
X158477000Y-91100500D01*
X158479000Y-91098500D01*
X158481000Y-91097500D01*
X158483000Y-91095500D01*
X158485000Y-91094500D01*
X158487000Y-91092500D01*
X158490000Y-91091500D01*
X158492000Y-91090500D01*
X158495000Y-91089500D01*
X158497000Y-91089500D01*
X158500000Y-91088500D01*
X158502000Y-91088500D01*
X158505000Y-91087500D01*
X158507000Y-91087500D01*
X158510000Y-91087500D01*
X158660000Y-91087500D01*
X158663000Y-91087500D01*
X158665000Y-91087500D01*
X158668000Y-91088500D01*
G37*
X160858000Y-89313500D02*
X160860000Y-89313500D01*
X160863000Y-89314500D01*
X160865000Y-89314500D01*
X160868000Y-89315500D01*
X160870000Y-89316500D01*
X160873000Y-89317500D01*
X160875000Y-89319500D01*
X160877000Y-89320500D01*
X160879000Y-89322500D01*
X160881000Y-89323500D01*
X160883000Y-89325500D01*
X160885000Y-89327500D01*
X160887000Y-89329500D01*
X160889000Y-89331500D01*
X160890000Y-89333500D01*
X160892000Y-89335500D01*
X160893000Y-89337500D01*
X160895000Y-89339500D01*
X160896000Y-89342500D01*
X160897000Y-89344500D01*
X160898000Y-89347500D01*
X160898000Y-89349500D01*
X160899000Y-89352500D01*
X160899000Y-89354500D01*
X160900000Y-89357500D01*
X160900000Y-89359500D01*
X160900000Y-89362500D01*
X160900000Y-89512500D01*
X160900000Y-89515500D01*
X160900000Y-89517500D01*
X160899000Y-89520500D01*
X160899000Y-89522500D01*
X160898000Y-89525500D01*
X160898000Y-89527500D01*
X160897000Y-89530500D01*
X160896000Y-89532500D01*
X160895000Y-89535500D01*
X160893000Y-89537500D01*
X160892000Y-89539500D01*
X160890000Y-89541500D01*
X160889000Y-89543500D01*
X160887000Y-89545500D01*
X160885000Y-89547500D01*
X160883000Y-89549500D01*
X160881000Y-89551500D01*
X160879000Y-89552500D01*
X160877000Y-89554500D01*
X160875000Y-89555500D01*
X160873000Y-89557500D01*
X160870000Y-89558500D01*
X160868000Y-89559500D01*
X160865000Y-89560500D01*
X160863000Y-89560500D01*
X160860000Y-89561500D01*
X160858000Y-89561500D01*
X160855000Y-89562500D01*
X160853000Y-89562500D01*
X160850000Y-89562500D01*
X159625000Y-89562500D01*
X159622000Y-89562500D01*
X159620000Y-89562500D01*
X159617000Y-89561500D01*
X159615000Y-89561500D01*
X159612000Y-89560500D01*
X159610000Y-89560500D01*
X159607000Y-89559500D01*
X159605000Y-89558500D01*
X159602000Y-89557500D01*
X159600000Y-89555500D01*
X159598000Y-89554500D01*
X159596000Y-89552500D01*
X159594000Y-89551500D01*
X159592000Y-89549500D01*
X159590000Y-89547500D01*
X159588000Y-89545500D01*
X159586000Y-89543500D01*
X159585000Y-89541500D01*
X159583000Y-89539500D01*
X159582000Y-89537500D01*
X159580000Y-89535500D01*
X159579000Y-89532500D01*
X159578000Y-89530500D01*
X159577000Y-89527500D01*
X159577000Y-89525500D01*
X159576000Y-89522500D01*
X159576000Y-89520500D01*
X159575000Y-89517500D01*
X159575000Y-89515500D01*
X159575000Y-89512500D01*
X159575000Y-89362500D01*
X159575000Y-89359500D01*
X159575000Y-89357500D01*
X159576000Y-89354500D01*
X159576000Y-89352500D01*
X159577000Y-89349500D01*
X159577000Y-89347500D01*
X159578000Y-89344500D01*
X159579000Y-89342500D01*
X159580000Y-89339500D01*
X159582000Y-89337500D01*
X159583000Y-89335500D01*
X159585000Y-89333500D01*
X159586000Y-89331500D01*
X159588000Y-89329500D01*
X159590000Y-89327500D01*
X159592000Y-89325500D01*
X159594000Y-89323500D01*
X159596000Y-89322500D01*
X159598000Y-89320500D01*
X159600000Y-89319500D01*
X159602000Y-89317500D01*
X159605000Y-89316500D01*
X159607000Y-89315500D01*
X159610000Y-89314500D01*
X159612000Y-89314500D01*
X159615000Y-89313500D01*
X159617000Y-89313500D01*
X159620000Y-89312500D01*
X159622000Y-89312500D01*
X159625000Y-89312500D01*
X160850000Y-89312500D01*
X160853000Y-89312500D01*
X160855000Y-89312500D01*
X160858000Y-89313500D01*
G36*
X160858000Y-89313500D02*
G01*
X160860000Y-89313500D01*
X160863000Y-89314500D01*
X160865000Y-89314500D01*
X160868000Y-89315500D01*
X160870000Y-89316500D01*
X160873000Y-89317500D01*
X160875000Y-89319500D01*
X160877000Y-89320500D01*
X160879000Y-89322500D01*
X160881000Y-89323500D01*
X160883000Y-89325500D01*
X160885000Y-89327500D01*
X160887000Y-89329500D01*
X160889000Y-89331500D01*
X160890000Y-89333500D01*
X160892000Y-89335500D01*
X160893000Y-89337500D01*
X160895000Y-89339500D01*
X160896000Y-89342500D01*
X160897000Y-89344500D01*
X160898000Y-89347500D01*
X160898000Y-89349500D01*
X160899000Y-89352500D01*
X160899000Y-89354500D01*
X160900000Y-89357500D01*
X160900000Y-89359500D01*
X160900000Y-89362500D01*
X160900000Y-89512500D01*
X160900000Y-89515500D01*
X160900000Y-89517500D01*
X160899000Y-89520500D01*
X160899000Y-89522500D01*
X160898000Y-89525500D01*
X160898000Y-89527500D01*
X160897000Y-89530500D01*
X160896000Y-89532500D01*
X160895000Y-89535500D01*
X160893000Y-89537500D01*
X160892000Y-89539500D01*
X160890000Y-89541500D01*
X160889000Y-89543500D01*
X160887000Y-89545500D01*
X160885000Y-89547500D01*
X160883000Y-89549500D01*
X160881000Y-89551500D01*
X160879000Y-89552500D01*
X160877000Y-89554500D01*
X160875000Y-89555500D01*
X160873000Y-89557500D01*
X160870000Y-89558500D01*
X160868000Y-89559500D01*
X160865000Y-89560500D01*
X160863000Y-89560500D01*
X160860000Y-89561500D01*
X160858000Y-89561500D01*
X160855000Y-89562500D01*
X160853000Y-89562500D01*
X160850000Y-89562500D01*
X159625000Y-89562500D01*
X159622000Y-89562500D01*
X159620000Y-89562500D01*
X159617000Y-89561500D01*
X159615000Y-89561500D01*
X159612000Y-89560500D01*
X159610000Y-89560500D01*
X159607000Y-89559500D01*
X159605000Y-89558500D01*
X159602000Y-89557500D01*
X159600000Y-89555500D01*
X159598000Y-89554500D01*
X159596000Y-89552500D01*
X159594000Y-89551500D01*
X159592000Y-89549500D01*
X159590000Y-89547500D01*
X159588000Y-89545500D01*
X159586000Y-89543500D01*
X159585000Y-89541500D01*
X159583000Y-89539500D01*
X159582000Y-89537500D01*
X159580000Y-89535500D01*
X159579000Y-89532500D01*
X159578000Y-89530500D01*
X159577000Y-89527500D01*
X159577000Y-89525500D01*
X159576000Y-89522500D01*
X159576000Y-89520500D01*
X159575000Y-89517500D01*
X159575000Y-89515500D01*
X159575000Y-89512500D01*
X159575000Y-89362500D01*
X159575000Y-89359500D01*
X159575000Y-89357500D01*
X159576000Y-89354500D01*
X159576000Y-89352500D01*
X159577000Y-89349500D01*
X159577000Y-89347500D01*
X159578000Y-89344500D01*
X159579000Y-89342500D01*
X159580000Y-89339500D01*
X159582000Y-89337500D01*
X159583000Y-89335500D01*
X159585000Y-89333500D01*
X159586000Y-89331500D01*
X159588000Y-89329500D01*
X159590000Y-89327500D01*
X159592000Y-89325500D01*
X159594000Y-89323500D01*
X159596000Y-89322500D01*
X159598000Y-89320500D01*
X159600000Y-89319500D01*
X159602000Y-89317500D01*
X159605000Y-89316500D01*
X159607000Y-89315500D01*
X159610000Y-89314500D01*
X159612000Y-89314500D01*
X159615000Y-89313500D01*
X159617000Y-89313500D01*
X159620000Y-89312500D01*
X159622000Y-89312500D01*
X159625000Y-89312500D01*
X160850000Y-89312500D01*
X160853000Y-89312500D01*
X160855000Y-89312500D01*
X160858000Y-89313500D01*
G37*
X159058000Y-88488500D02*
X159060000Y-88488500D01*
X159063000Y-88489500D01*
X159065000Y-88490500D01*
X159068000Y-88491500D01*
X159070000Y-88492500D01*
X159073000Y-88493500D01*
X159075000Y-88495500D01*
X159077000Y-88496500D01*
X159079000Y-88498500D01*
X159081000Y-88499500D01*
X159083000Y-88501500D01*
X159085000Y-88503500D01*
X159086000Y-88505500D01*
X159088000Y-88507500D01*
X159089000Y-88509500D01*
X159091000Y-88512500D01*
X159092000Y-88514500D01*
X159093000Y-88516500D01*
X159094000Y-88519500D01*
X159095000Y-88521500D01*
X159096000Y-88524500D01*
X159096000Y-88526500D01*
X159097000Y-88529500D01*
X159097000Y-88531500D01*
X159097000Y-88534500D01*
X159098000Y-88536500D01*
X159098000Y-89162500D01*
X159097000Y-89164500D01*
X159097000Y-89167500D01*
X159097000Y-89169500D01*
X159096000Y-89172500D01*
X159096000Y-89174500D01*
X159095000Y-89177500D01*
X159094000Y-89179500D01*
X159093000Y-89182500D01*
X159092000Y-89184500D01*
X159091000Y-89187500D01*
X159089000Y-89189500D01*
X159088000Y-89191500D01*
X159086000Y-89193500D01*
X159085000Y-89195500D01*
X159083000Y-89197500D01*
X159081000Y-89199500D01*
X159079000Y-89200500D01*
X159077000Y-89202500D01*
X159075000Y-89203500D01*
X159073000Y-89205500D01*
X159070000Y-89206500D01*
X159068000Y-89207500D01*
X159065000Y-89208500D01*
X159063000Y-89209500D01*
X159060000Y-89210500D01*
X159058000Y-89210500D01*
X159055000Y-89211500D01*
X159053000Y-89211500D01*
X159050000Y-89211500D01*
X159047000Y-89212500D01*
X157278000Y-89212500D01*
X157275000Y-89211500D01*
X157272000Y-89211500D01*
X157270000Y-89211500D01*
X157267000Y-89210500D01*
X157265000Y-89210500D01*
X157262000Y-89209500D01*
X157260000Y-89208500D01*
X157257000Y-89207500D01*
X157255000Y-89206500D01*
X157252000Y-89205500D01*
X157250000Y-89203500D01*
X157248000Y-89202500D01*
X157246000Y-89200500D01*
X157244000Y-89199500D01*
X157242000Y-89197500D01*
X157240000Y-89195500D01*
X157239000Y-89193500D01*
X157237000Y-89191500D01*
X157236000Y-89189500D01*
X157234000Y-89187500D01*
X157233000Y-89184500D01*
X157232000Y-89182500D01*
X157231000Y-89179500D01*
X157230000Y-89177500D01*
X157229000Y-89174500D01*
X157229000Y-89172500D01*
X157228000Y-89169500D01*
X157228000Y-89167500D01*
X157228000Y-89164500D01*
X157228000Y-89162500D01*
X157227500Y-88537000D01*
X157228000Y-88536500D01*
X157228000Y-88534500D01*
X157228000Y-88531500D01*
X157228000Y-88529500D01*
X157229000Y-88526500D01*
X157229000Y-88524500D01*
X157230000Y-88521500D01*
X157231000Y-88519500D01*
X157232000Y-88516500D01*
X157233000Y-88514500D01*
X157234000Y-88512500D01*
X157236000Y-88509500D01*
X157237000Y-88507500D01*
X157239000Y-88505500D01*
X157240000Y-88503500D01*
X157242000Y-88501500D01*
X157244000Y-88499500D01*
X157246000Y-88498500D01*
X157248000Y-88496500D01*
X157250000Y-88495500D01*
X157252000Y-88493500D01*
X157255000Y-88492500D01*
X157257000Y-88491500D01*
X157260000Y-88490500D01*
X157262000Y-88489500D01*
X157265000Y-88488500D01*
X157267000Y-88488500D01*
X157270000Y-88487500D01*
X157272000Y-88487500D01*
X157275000Y-88487500D01*
X157278000Y-88487500D01*
X159047000Y-88487500D01*
X159050000Y-88487500D01*
X159053000Y-88487500D01*
X159055000Y-88487500D01*
X159058000Y-88488500D01*
G36*
X159058000Y-88488500D02*
G01*
X159060000Y-88488500D01*
X159063000Y-88489500D01*
X159065000Y-88490500D01*
X159068000Y-88491500D01*
X159070000Y-88492500D01*
X159073000Y-88493500D01*
X159075000Y-88495500D01*
X159077000Y-88496500D01*
X159079000Y-88498500D01*
X159081000Y-88499500D01*
X159083000Y-88501500D01*
X159085000Y-88503500D01*
X159086000Y-88505500D01*
X159088000Y-88507500D01*
X159089000Y-88509500D01*
X159091000Y-88512500D01*
X159092000Y-88514500D01*
X159093000Y-88516500D01*
X159094000Y-88519500D01*
X159095000Y-88521500D01*
X159096000Y-88524500D01*
X159096000Y-88526500D01*
X159097000Y-88529500D01*
X159097000Y-88531500D01*
X159097000Y-88534500D01*
X159098000Y-88536500D01*
X159098000Y-89162500D01*
X159097000Y-89164500D01*
X159097000Y-89167500D01*
X159097000Y-89169500D01*
X159096000Y-89172500D01*
X159096000Y-89174500D01*
X159095000Y-89177500D01*
X159094000Y-89179500D01*
X159093000Y-89182500D01*
X159092000Y-89184500D01*
X159091000Y-89187500D01*
X159089000Y-89189500D01*
X159088000Y-89191500D01*
X159086000Y-89193500D01*
X159085000Y-89195500D01*
X159083000Y-89197500D01*
X159081000Y-89199500D01*
X159079000Y-89200500D01*
X159077000Y-89202500D01*
X159075000Y-89203500D01*
X159073000Y-89205500D01*
X159070000Y-89206500D01*
X159068000Y-89207500D01*
X159065000Y-89208500D01*
X159063000Y-89209500D01*
X159060000Y-89210500D01*
X159058000Y-89210500D01*
X159055000Y-89211500D01*
X159053000Y-89211500D01*
X159050000Y-89211500D01*
X159047000Y-89212500D01*
X157278000Y-89212500D01*
X157275000Y-89211500D01*
X157272000Y-89211500D01*
X157270000Y-89211500D01*
X157267000Y-89210500D01*
X157265000Y-89210500D01*
X157262000Y-89209500D01*
X157260000Y-89208500D01*
X157257000Y-89207500D01*
X157255000Y-89206500D01*
X157252000Y-89205500D01*
X157250000Y-89203500D01*
X157248000Y-89202500D01*
X157246000Y-89200500D01*
X157244000Y-89199500D01*
X157242000Y-89197500D01*
X157240000Y-89195500D01*
X157239000Y-89193500D01*
X157237000Y-89191500D01*
X157236000Y-89189500D01*
X157234000Y-89187500D01*
X157233000Y-89184500D01*
X157232000Y-89182500D01*
X157231000Y-89179500D01*
X157230000Y-89177500D01*
X157229000Y-89174500D01*
X157229000Y-89172500D01*
X157228000Y-89169500D01*
X157228000Y-89167500D01*
X157228000Y-89164500D01*
X157228000Y-89162500D01*
X157227500Y-88537000D01*
X157228000Y-88536500D01*
X157228000Y-88534500D01*
X157228000Y-88531500D01*
X157228000Y-88529500D01*
X157229000Y-88526500D01*
X157229000Y-88524500D01*
X157230000Y-88521500D01*
X157231000Y-88519500D01*
X157232000Y-88516500D01*
X157233000Y-88514500D01*
X157234000Y-88512500D01*
X157236000Y-88509500D01*
X157237000Y-88507500D01*
X157239000Y-88505500D01*
X157240000Y-88503500D01*
X157242000Y-88501500D01*
X157244000Y-88499500D01*
X157246000Y-88498500D01*
X157248000Y-88496500D01*
X157250000Y-88495500D01*
X157252000Y-88493500D01*
X157255000Y-88492500D01*
X157257000Y-88491500D01*
X157260000Y-88490500D01*
X157262000Y-88489500D01*
X157265000Y-88488500D01*
X157267000Y-88488500D01*
X157270000Y-88487500D01*
X157272000Y-88487500D01*
X157275000Y-88487500D01*
X157278000Y-88487500D01*
X159047000Y-88487500D01*
X159050000Y-88487500D01*
X159053000Y-88487500D01*
X159055000Y-88487500D01*
X159058000Y-88488500D01*
G37*
X159050000Y-90163500D02*
X159053000Y-90163500D01*
X159055000Y-90163500D01*
X159058000Y-90164500D01*
X159060000Y-90164500D01*
X159063000Y-90165500D01*
X159065000Y-90166500D01*
X159068000Y-90167500D01*
X159070000Y-90168500D01*
X159073000Y-90169500D01*
X159075000Y-90171500D01*
X159077000Y-90172500D01*
X159079000Y-90174500D01*
X159081000Y-90175500D01*
X159083000Y-90177500D01*
X159085000Y-90179500D01*
X159086000Y-90181500D01*
X159088000Y-90183500D01*
X159089000Y-90185500D01*
X159091000Y-90187500D01*
X159092000Y-90190500D01*
X159093000Y-90192500D01*
X159094000Y-90195500D01*
X159095000Y-90197500D01*
X159096000Y-90200500D01*
X159096000Y-90202500D01*
X159097000Y-90205500D01*
X159097000Y-90207500D01*
X159097000Y-90210500D01*
X159098000Y-90212500D01*
X159098000Y-90838500D01*
X159097000Y-90840500D01*
X159097000Y-90843500D01*
X159097000Y-90845500D01*
X159096000Y-90848500D01*
X159096000Y-90850500D01*
X159095000Y-90853500D01*
X159094000Y-90855500D01*
X159093000Y-90858500D01*
X159092000Y-90860500D01*
X159091000Y-90862500D01*
X159089000Y-90865500D01*
X159088000Y-90867500D01*
X159086000Y-90869500D01*
X159085000Y-90871500D01*
X159083000Y-90873500D01*
X159081000Y-90875500D01*
X159079000Y-90876500D01*
X159077000Y-90878500D01*
X159075000Y-90879500D01*
X159073000Y-90881500D01*
X159070000Y-90882500D01*
X159068000Y-90883500D01*
X159065000Y-90884500D01*
X159063000Y-90885500D01*
X159060000Y-90886500D01*
X159058000Y-90886500D01*
X159055000Y-90887500D01*
X159053000Y-90887500D01*
X159050000Y-90887500D01*
X159047000Y-90887500D01*
X157278000Y-90887500D01*
X157275000Y-90887500D01*
X157272000Y-90887500D01*
X157270000Y-90887500D01*
X157267000Y-90886500D01*
X157265000Y-90886500D01*
X157262000Y-90885500D01*
X157260000Y-90884500D01*
X157257000Y-90883500D01*
X157255000Y-90882500D01*
X157252000Y-90881500D01*
X157250000Y-90879500D01*
X157248000Y-90878500D01*
X157246000Y-90876500D01*
X157244000Y-90875500D01*
X157242000Y-90873500D01*
X157240000Y-90871500D01*
X157239000Y-90869500D01*
X157237000Y-90867500D01*
X157236000Y-90865500D01*
X157234000Y-90862500D01*
X157233000Y-90860500D01*
X157232000Y-90858500D01*
X157231000Y-90855500D01*
X157230000Y-90853500D01*
X157229000Y-90850500D01*
X157229000Y-90848500D01*
X157228000Y-90845500D01*
X157228000Y-90843500D01*
X157228000Y-90840500D01*
X157228000Y-90838500D01*
X157227500Y-90838000D01*
X157228000Y-90212500D01*
X157228000Y-90210500D01*
X157228000Y-90207500D01*
X157228000Y-90205500D01*
X157229000Y-90202500D01*
X157229000Y-90200500D01*
X157230000Y-90197500D01*
X157231000Y-90195500D01*
X157232000Y-90192500D01*
X157233000Y-90190500D01*
X157234000Y-90187500D01*
X157236000Y-90185500D01*
X157237000Y-90183500D01*
X157239000Y-90181500D01*
X157240000Y-90179500D01*
X157242000Y-90177500D01*
X157244000Y-90175500D01*
X157246000Y-90174500D01*
X157248000Y-90172500D01*
X157250000Y-90171500D01*
X157252000Y-90169500D01*
X157255000Y-90168500D01*
X157257000Y-90167500D01*
X157260000Y-90166500D01*
X157262000Y-90165500D01*
X157265000Y-90164500D01*
X157267000Y-90164500D01*
X157270000Y-90163500D01*
X157272000Y-90163500D01*
X157275000Y-90163500D01*
X157278000Y-90162500D01*
X159047000Y-90162500D01*
X159050000Y-90163500D01*
G36*
X159050000Y-90163500D02*
G01*
X159053000Y-90163500D01*
X159055000Y-90163500D01*
X159058000Y-90164500D01*
X159060000Y-90164500D01*
X159063000Y-90165500D01*
X159065000Y-90166500D01*
X159068000Y-90167500D01*
X159070000Y-90168500D01*
X159073000Y-90169500D01*
X159075000Y-90171500D01*
X159077000Y-90172500D01*
X159079000Y-90174500D01*
X159081000Y-90175500D01*
X159083000Y-90177500D01*
X159085000Y-90179500D01*
X159086000Y-90181500D01*
X159088000Y-90183500D01*
X159089000Y-90185500D01*
X159091000Y-90187500D01*
X159092000Y-90190500D01*
X159093000Y-90192500D01*
X159094000Y-90195500D01*
X159095000Y-90197500D01*
X159096000Y-90200500D01*
X159096000Y-90202500D01*
X159097000Y-90205500D01*
X159097000Y-90207500D01*
X159097000Y-90210500D01*
X159098000Y-90212500D01*
X159098000Y-90838500D01*
X159097000Y-90840500D01*
X159097000Y-90843500D01*
X159097000Y-90845500D01*
X159096000Y-90848500D01*
X159096000Y-90850500D01*
X159095000Y-90853500D01*
X159094000Y-90855500D01*
X159093000Y-90858500D01*
X159092000Y-90860500D01*
X159091000Y-90862500D01*
X159089000Y-90865500D01*
X159088000Y-90867500D01*
X159086000Y-90869500D01*
X159085000Y-90871500D01*
X159083000Y-90873500D01*
X159081000Y-90875500D01*
X159079000Y-90876500D01*
X159077000Y-90878500D01*
X159075000Y-90879500D01*
X159073000Y-90881500D01*
X159070000Y-90882500D01*
X159068000Y-90883500D01*
X159065000Y-90884500D01*
X159063000Y-90885500D01*
X159060000Y-90886500D01*
X159058000Y-90886500D01*
X159055000Y-90887500D01*
X159053000Y-90887500D01*
X159050000Y-90887500D01*
X159047000Y-90887500D01*
X157278000Y-90887500D01*
X157275000Y-90887500D01*
X157272000Y-90887500D01*
X157270000Y-90887500D01*
X157267000Y-90886500D01*
X157265000Y-90886500D01*
X157262000Y-90885500D01*
X157260000Y-90884500D01*
X157257000Y-90883500D01*
X157255000Y-90882500D01*
X157252000Y-90881500D01*
X157250000Y-90879500D01*
X157248000Y-90878500D01*
X157246000Y-90876500D01*
X157244000Y-90875500D01*
X157242000Y-90873500D01*
X157240000Y-90871500D01*
X157239000Y-90869500D01*
X157237000Y-90867500D01*
X157236000Y-90865500D01*
X157234000Y-90862500D01*
X157233000Y-90860500D01*
X157232000Y-90858500D01*
X157231000Y-90855500D01*
X157230000Y-90853500D01*
X157229000Y-90850500D01*
X157229000Y-90848500D01*
X157228000Y-90845500D01*
X157228000Y-90843500D01*
X157228000Y-90840500D01*
X157228000Y-90838500D01*
X157227500Y-90838000D01*
X157228000Y-90212500D01*
X157228000Y-90210500D01*
X157228000Y-90207500D01*
X157228000Y-90205500D01*
X157229000Y-90202500D01*
X157229000Y-90200500D01*
X157230000Y-90197500D01*
X157231000Y-90195500D01*
X157232000Y-90192500D01*
X157233000Y-90190500D01*
X157234000Y-90187500D01*
X157236000Y-90185500D01*
X157237000Y-90183500D01*
X157239000Y-90181500D01*
X157240000Y-90179500D01*
X157242000Y-90177500D01*
X157244000Y-90175500D01*
X157246000Y-90174500D01*
X157248000Y-90172500D01*
X157250000Y-90171500D01*
X157252000Y-90169500D01*
X157255000Y-90168500D01*
X157257000Y-90167500D01*
X157260000Y-90166500D01*
X157262000Y-90165500D01*
X157265000Y-90164500D01*
X157267000Y-90164500D01*
X157270000Y-90163500D01*
X157272000Y-90163500D01*
X157275000Y-90163500D01*
X157278000Y-90162500D01*
X159047000Y-90162500D01*
X159050000Y-90163500D01*
G37*
X159808000Y-87838500D02*
X159811000Y-87838500D01*
X159813000Y-87839500D01*
X159816000Y-87839500D01*
X159818000Y-87840500D01*
X159821000Y-87841500D01*
X159823000Y-87842500D01*
X159826000Y-87844500D01*
X159828000Y-87845500D01*
X159830000Y-87847500D01*
X159832000Y-87848500D01*
X159834000Y-87850500D01*
X159836000Y-87852500D01*
X159838000Y-87854500D01*
X159839000Y-87856500D01*
X159841000Y-87858500D01*
X159842000Y-87860500D01*
X159844000Y-87862500D01*
X159845000Y-87864500D01*
X159846000Y-87867500D01*
X159847000Y-87869500D01*
X159848000Y-87872500D01*
X159849000Y-87874500D01*
X159849000Y-87877500D01*
X159850000Y-87879500D01*
X159850000Y-87882500D01*
X159850000Y-87884500D01*
X159851000Y-87887500D01*
X159851000Y-89062500D01*
X159850000Y-89065500D01*
X159850000Y-89067500D01*
X159850000Y-89070500D01*
X159849000Y-89072500D01*
X159849000Y-89075500D01*
X159848000Y-89077500D01*
X159847000Y-89080500D01*
X159846000Y-89082500D01*
X159845000Y-89085500D01*
X159844000Y-89087500D01*
X159842000Y-89089500D01*
X159841000Y-89091500D01*
X159839000Y-89093500D01*
X159838000Y-89095500D01*
X159836000Y-89097500D01*
X159834000Y-89099500D01*
X159832000Y-89101500D01*
X159830000Y-89102500D01*
X159828000Y-89104500D01*
X159826000Y-89105500D01*
X159823000Y-89107500D01*
X159821000Y-89108500D01*
X159818000Y-89109500D01*
X159816000Y-89110500D01*
X159813000Y-89110500D01*
X159811000Y-89111500D01*
X159808000Y-89111500D01*
X159806000Y-89112500D01*
X159803000Y-89112500D01*
X159800000Y-89112500D01*
X159626000Y-89112500D01*
X159623000Y-89112500D01*
X159620000Y-89112500D01*
X159618000Y-89111500D01*
X159615000Y-89111500D01*
X159613000Y-89110500D01*
X159610000Y-89110500D01*
X159608000Y-89109500D01*
X159605000Y-89108500D01*
X159603000Y-89107500D01*
X159601000Y-89105500D01*
X159598000Y-89104500D01*
X159596000Y-89102500D01*
X159594000Y-89101500D01*
X159592000Y-89099500D01*
X159590000Y-89097500D01*
X159588000Y-89095500D01*
X159587000Y-89093500D01*
X159585000Y-89091500D01*
X159584000Y-89089500D01*
X159582000Y-89087500D01*
X159581000Y-89085500D01*
X159580000Y-89082500D01*
X159579000Y-89080500D01*
X159578000Y-89077500D01*
X159577000Y-89075500D01*
X159577000Y-89072500D01*
X159576000Y-89070500D01*
X159576000Y-89067500D01*
X159576000Y-89065500D01*
X159576000Y-89062500D01*
X159575500Y-87887500D01*
X159576000Y-87887500D01*
X159576000Y-87884500D01*
X159576000Y-87882500D01*
X159576000Y-87879500D01*
X159577000Y-87877500D01*
X159577000Y-87874500D01*
X159578000Y-87872500D01*
X159579000Y-87869500D01*
X159580000Y-87867500D01*
X159581000Y-87864500D01*
X159582000Y-87862500D01*
X159584000Y-87860500D01*
X159585000Y-87858500D01*
X159587000Y-87856500D01*
X159588000Y-87854500D01*
X159590000Y-87852500D01*
X159592000Y-87850500D01*
X159594000Y-87848500D01*
X159596000Y-87847500D01*
X159598000Y-87845500D01*
X159601000Y-87844500D01*
X159603000Y-87842500D01*
X159605000Y-87841500D01*
X159608000Y-87840500D01*
X159610000Y-87839500D01*
X159613000Y-87839500D01*
X159615000Y-87838500D01*
X159618000Y-87838500D01*
X159620000Y-87837500D01*
X159623000Y-87837500D01*
X159626000Y-87837500D01*
X159800000Y-87837500D01*
X159803000Y-87837500D01*
X159806000Y-87837500D01*
X159808000Y-87838500D01*
G36*
X159808000Y-87838500D02*
G01*
X159811000Y-87838500D01*
X159813000Y-87839500D01*
X159816000Y-87839500D01*
X159818000Y-87840500D01*
X159821000Y-87841500D01*
X159823000Y-87842500D01*
X159826000Y-87844500D01*
X159828000Y-87845500D01*
X159830000Y-87847500D01*
X159832000Y-87848500D01*
X159834000Y-87850500D01*
X159836000Y-87852500D01*
X159838000Y-87854500D01*
X159839000Y-87856500D01*
X159841000Y-87858500D01*
X159842000Y-87860500D01*
X159844000Y-87862500D01*
X159845000Y-87864500D01*
X159846000Y-87867500D01*
X159847000Y-87869500D01*
X159848000Y-87872500D01*
X159849000Y-87874500D01*
X159849000Y-87877500D01*
X159850000Y-87879500D01*
X159850000Y-87882500D01*
X159850000Y-87884500D01*
X159851000Y-87887500D01*
X159851000Y-89062500D01*
X159850000Y-89065500D01*
X159850000Y-89067500D01*
X159850000Y-89070500D01*
X159849000Y-89072500D01*
X159849000Y-89075500D01*
X159848000Y-89077500D01*
X159847000Y-89080500D01*
X159846000Y-89082500D01*
X159845000Y-89085500D01*
X159844000Y-89087500D01*
X159842000Y-89089500D01*
X159841000Y-89091500D01*
X159839000Y-89093500D01*
X159838000Y-89095500D01*
X159836000Y-89097500D01*
X159834000Y-89099500D01*
X159832000Y-89101500D01*
X159830000Y-89102500D01*
X159828000Y-89104500D01*
X159826000Y-89105500D01*
X159823000Y-89107500D01*
X159821000Y-89108500D01*
X159818000Y-89109500D01*
X159816000Y-89110500D01*
X159813000Y-89110500D01*
X159811000Y-89111500D01*
X159808000Y-89111500D01*
X159806000Y-89112500D01*
X159803000Y-89112500D01*
X159800000Y-89112500D01*
X159626000Y-89112500D01*
X159623000Y-89112500D01*
X159620000Y-89112500D01*
X159618000Y-89111500D01*
X159615000Y-89111500D01*
X159613000Y-89110500D01*
X159610000Y-89110500D01*
X159608000Y-89109500D01*
X159605000Y-89108500D01*
X159603000Y-89107500D01*
X159601000Y-89105500D01*
X159598000Y-89104500D01*
X159596000Y-89102500D01*
X159594000Y-89101500D01*
X159592000Y-89099500D01*
X159590000Y-89097500D01*
X159588000Y-89095500D01*
X159587000Y-89093500D01*
X159585000Y-89091500D01*
X159584000Y-89089500D01*
X159582000Y-89087500D01*
X159581000Y-89085500D01*
X159580000Y-89082500D01*
X159579000Y-89080500D01*
X159578000Y-89077500D01*
X159577000Y-89075500D01*
X159577000Y-89072500D01*
X159576000Y-89070500D01*
X159576000Y-89067500D01*
X159576000Y-89065500D01*
X159576000Y-89062500D01*
X159575500Y-87887500D01*
X159576000Y-87887500D01*
X159576000Y-87884500D01*
X159576000Y-87882500D01*
X159576000Y-87879500D01*
X159577000Y-87877500D01*
X159577000Y-87874500D01*
X159578000Y-87872500D01*
X159579000Y-87869500D01*
X159580000Y-87867500D01*
X159581000Y-87864500D01*
X159582000Y-87862500D01*
X159584000Y-87860500D01*
X159585000Y-87858500D01*
X159587000Y-87856500D01*
X159588000Y-87854500D01*
X159590000Y-87852500D01*
X159592000Y-87850500D01*
X159594000Y-87848500D01*
X159596000Y-87847500D01*
X159598000Y-87845500D01*
X159601000Y-87844500D01*
X159603000Y-87842500D01*
X159605000Y-87841500D01*
X159608000Y-87840500D01*
X159610000Y-87839500D01*
X159613000Y-87839500D01*
X159615000Y-87838500D01*
X159618000Y-87838500D01*
X159620000Y-87837500D01*
X159623000Y-87837500D01*
X159626000Y-87837500D01*
X159800000Y-87837500D01*
X159803000Y-87837500D01*
X159806000Y-87837500D01*
X159808000Y-87838500D01*
G37*
X161308000Y-87838500D02*
X161310000Y-87838500D01*
X161313000Y-87839500D01*
X161315000Y-87839500D01*
X161318000Y-87840500D01*
X161320000Y-87841500D01*
X161323000Y-87842500D01*
X161325000Y-87844500D01*
X161327000Y-87845500D01*
X161329000Y-87847500D01*
X161331000Y-87848500D01*
X161333000Y-87850500D01*
X161335000Y-87852500D01*
X161337000Y-87854500D01*
X161339000Y-87856500D01*
X161340000Y-87858500D01*
X161342000Y-87860500D01*
X161343000Y-87862500D01*
X161345000Y-87864500D01*
X161346000Y-87867500D01*
X161347000Y-87869500D01*
X161348000Y-87872500D01*
X161348000Y-87874500D01*
X161349000Y-87877500D01*
X161349000Y-87879500D01*
X161350000Y-87882500D01*
X161350000Y-87884500D01*
X161350000Y-87887500D01*
X161350000Y-88612500D01*
X161350000Y-88617500D01*
X161351000Y-88622500D01*
X161351000Y-88628500D01*
X161352000Y-88633500D01*
X161353000Y-88638500D01*
X161355000Y-88643500D01*
X161357000Y-88648500D01*
X161359000Y-88653500D01*
X161361000Y-88657500D01*
X161363000Y-88662500D01*
X161366000Y-88666500D01*
X161369000Y-88671500D01*
X161372000Y-88675500D01*
X161376000Y-88679500D01*
X161379000Y-88683500D01*
X161383000Y-88686500D01*
X161387000Y-88690500D01*
X161391000Y-88693500D01*
X161396000Y-88696500D01*
X161400000Y-88699500D01*
X161405000Y-88701500D01*
X161409000Y-88703500D01*
X161414000Y-88705500D01*
X161419000Y-88707500D01*
X161424000Y-88709500D01*
X161429000Y-88710500D01*
X161434000Y-88711500D01*
X161440000Y-88711500D01*
X161445000Y-88712500D01*
X161450000Y-88712500D01*
X161650000Y-88712500D01*
X161653000Y-88712500D01*
X161655000Y-88712500D01*
X161658000Y-88713500D01*
X161660000Y-88713500D01*
X161663000Y-88714500D01*
X161665000Y-88714500D01*
X161668000Y-88715500D01*
X161670000Y-88716500D01*
X161673000Y-88717500D01*
X161675000Y-88719500D01*
X161677000Y-88720500D01*
X161679000Y-88722500D01*
X161681000Y-88723500D01*
X161683000Y-88725500D01*
X161685000Y-88727500D01*
X161687000Y-88729500D01*
X161689000Y-88731500D01*
X161690000Y-88733500D01*
X161692000Y-88735500D01*
X161693000Y-88737500D01*
X161695000Y-88739500D01*
X161696000Y-88742500D01*
X161697000Y-88744500D01*
X161698000Y-88747500D01*
X161698000Y-88749500D01*
X161699000Y-88752500D01*
X161699000Y-88754500D01*
X161700000Y-88757500D01*
X161700000Y-88759500D01*
X161700000Y-88762500D01*
X161700000Y-89012500D01*
X161700000Y-89015500D01*
X161700000Y-89017500D01*
X161699000Y-89020500D01*
X161699000Y-89022500D01*
X161698000Y-89025500D01*
X161698000Y-89027500D01*
X161697000Y-89030500D01*
X161696000Y-89032500D01*
X161695000Y-89035500D01*
X161693000Y-89037500D01*
X161692000Y-89039500D01*
X161690000Y-89041500D01*
X161689000Y-89043500D01*
X161687000Y-89045500D01*
X161685000Y-89047500D01*
X161683000Y-89049500D01*
X161681000Y-89051500D01*
X161679000Y-89052500D01*
X161677000Y-89054500D01*
X161675000Y-89055500D01*
X161673000Y-89057500D01*
X161670000Y-89058500D01*
X161668000Y-89059500D01*
X161665000Y-89060500D01*
X161663000Y-89060500D01*
X161660000Y-89061500D01*
X161658000Y-89061500D01*
X161655000Y-89062500D01*
X161653000Y-89062500D01*
X161650000Y-89062500D01*
X161150000Y-89062500D01*
X161147000Y-89062500D01*
X161145000Y-89062500D01*
X161142000Y-89061500D01*
X161140000Y-89061500D01*
X161137000Y-89060500D01*
X161135000Y-89060500D01*
X161132000Y-89059500D01*
X161130000Y-89058500D01*
X161127000Y-89057500D01*
X161125000Y-89055500D01*
X161123000Y-89054500D01*
X161121000Y-89052500D01*
X161119000Y-89051500D01*
X161117000Y-89049500D01*
X161115000Y-89047500D01*
X161113000Y-89045500D01*
X161111000Y-89043500D01*
X161110000Y-89041500D01*
X161108000Y-89039500D01*
X161107000Y-89037500D01*
X161105000Y-89035500D01*
X161104000Y-89032500D01*
X161103000Y-89030500D01*
X161102000Y-89027500D01*
X161102000Y-89025500D01*
X161101000Y-89022500D01*
X161101000Y-89020500D01*
X161100000Y-89017500D01*
X161100000Y-89015500D01*
X161100000Y-89012500D01*
X161100000Y-87887500D01*
X161100000Y-87884500D01*
X161100000Y-87882500D01*
X161101000Y-87879500D01*
X161101000Y-87877500D01*
X161102000Y-87874500D01*
X161102000Y-87872500D01*
X161103000Y-87869500D01*
X161104000Y-87867500D01*
X161105000Y-87864500D01*
X161107000Y-87862500D01*
X161108000Y-87860500D01*
X161110000Y-87858500D01*
X161111000Y-87856500D01*
X161113000Y-87854500D01*
X161115000Y-87852500D01*
X161117000Y-87850500D01*
X161119000Y-87848500D01*
X161121000Y-87847500D01*
X161123000Y-87845500D01*
X161125000Y-87844500D01*
X161127000Y-87842500D01*
X161130000Y-87841500D01*
X161132000Y-87840500D01*
X161135000Y-87839500D01*
X161137000Y-87839500D01*
X161140000Y-87838500D01*
X161142000Y-87838500D01*
X161145000Y-87837500D01*
X161147000Y-87837500D01*
X161150000Y-87837500D01*
X161300000Y-87837500D01*
X161303000Y-87837500D01*
X161305000Y-87837500D01*
X161308000Y-87838500D01*
G36*
X161308000Y-87838500D02*
G01*
X161310000Y-87838500D01*
X161313000Y-87839500D01*
X161315000Y-87839500D01*
X161318000Y-87840500D01*
X161320000Y-87841500D01*
X161323000Y-87842500D01*
X161325000Y-87844500D01*
X161327000Y-87845500D01*
X161329000Y-87847500D01*
X161331000Y-87848500D01*
X161333000Y-87850500D01*
X161335000Y-87852500D01*
X161337000Y-87854500D01*
X161339000Y-87856500D01*
X161340000Y-87858500D01*
X161342000Y-87860500D01*
X161343000Y-87862500D01*
X161345000Y-87864500D01*
X161346000Y-87867500D01*
X161347000Y-87869500D01*
X161348000Y-87872500D01*
X161348000Y-87874500D01*
X161349000Y-87877500D01*
X161349000Y-87879500D01*
X161350000Y-87882500D01*
X161350000Y-87884500D01*
X161350000Y-87887500D01*
X161350000Y-88612500D01*
X161350000Y-88617500D01*
X161351000Y-88622500D01*
X161351000Y-88628500D01*
X161352000Y-88633500D01*
X161353000Y-88638500D01*
X161355000Y-88643500D01*
X161357000Y-88648500D01*
X161359000Y-88653500D01*
X161361000Y-88657500D01*
X161363000Y-88662500D01*
X161366000Y-88666500D01*
X161369000Y-88671500D01*
X161372000Y-88675500D01*
X161376000Y-88679500D01*
X161379000Y-88683500D01*
X161383000Y-88686500D01*
X161387000Y-88690500D01*
X161391000Y-88693500D01*
X161396000Y-88696500D01*
X161400000Y-88699500D01*
X161405000Y-88701500D01*
X161409000Y-88703500D01*
X161414000Y-88705500D01*
X161419000Y-88707500D01*
X161424000Y-88709500D01*
X161429000Y-88710500D01*
X161434000Y-88711500D01*
X161440000Y-88711500D01*
X161445000Y-88712500D01*
X161450000Y-88712500D01*
X161650000Y-88712500D01*
X161653000Y-88712500D01*
X161655000Y-88712500D01*
X161658000Y-88713500D01*
X161660000Y-88713500D01*
X161663000Y-88714500D01*
X161665000Y-88714500D01*
X161668000Y-88715500D01*
X161670000Y-88716500D01*
X161673000Y-88717500D01*
X161675000Y-88719500D01*
X161677000Y-88720500D01*
X161679000Y-88722500D01*
X161681000Y-88723500D01*
X161683000Y-88725500D01*
X161685000Y-88727500D01*
X161687000Y-88729500D01*
X161689000Y-88731500D01*
X161690000Y-88733500D01*
X161692000Y-88735500D01*
X161693000Y-88737500D01*
X161695000Y-88739500D01*
X161696000Y-88742500D01*
X161697000Y-88744500D01*
X161698000Y-88747500D01*
X161698000Y-88749500D01*
X161699000Y-88752500D01*
X161699000Y-88754500D01*
X161700000Y-88757500D01*
X161700000Y-88759500D01*
X161700000Y-88762500D01*
X161700000Y-89012500D01*
X161700000Y-89015500D01*
X161700000Y-89017500D01*
X161699000Y-89020500D01*
X161699000Y-89022500D01*
X161698000Y-89025500D01*
X161698000Y-89027500D01*
X161697000Y-89030500D01*
X161696000Y-89032500D01*
X161695000Y-89035500D01*
X161693000Y-89037500D01*
X161692000Y-89039500D01*
X161690000Y-89041500D01*
X161689000Y-89043500D01*
X161687000Y-89045500D01*
X161685000Y-89047500D01*
X161683000Y-89049500D01*
X161681000Y-89051500D01*
X161679000Y-89052500D01*
X161677000Y-89054500D01*
X161675000Y-89055500D01*
X161673000Y-89057500D01*
X161670000Y-89058500D01*
X161668000Y-89059500D01*
X161665000Y-89060500D01*
X161663000Y-89060500D01*
X161660000Y-89061500D01*
X161658000Y-89061500D01*
X161655000Y-89062500D01*
X161653000Y-89062500D01*
X161650000Y-89062500D01*
X161150000Y-89062500D01*
X161147000Y-89062500D01*
X161145000Y-89062500D01*
X161142000Y-89061500D01*
X161140000Y-89061500D01*
X161137000Y-89060500D01*
X161135000Y-89060500D01*
X161132000Y-89059500D01*
X161130000Y-89058500D01*
X161127000Y-89057500D01*
X161125000Y-89055500D01*
X161123000Y-89054500D01*
X161121000Y-89052500D01*
X161119000Y-89051500D01*
X161117000Y-89049500D01*
X161115000Y-89047500D01*
X161113000Y-89045500D01*
X161111000Y-89043500D01*
X161110000Y-89041500D01*
X161108000Y-89039500D01*
X161107000Y-89037500D01*
X161105000Y-89035500D01*
X161104000Y-89032500D01*
X161103000Y-89030500D01*
X161102000Y-89027500D01*
X161102000Y-89025500D01*
X161101000Y-89022500D01*
X161101000Y-89020500D01*
X161100000Y-89017500D01*
X161100000Y-89015500D01*
X161100000Y-89012500D01*
X161100000Y-87887500D01*
X161100000Y-87884500D01*
X161100000Y-87882500D01*
X161101000Y-87879500D01*
X161101000Y-87877500D01*
X161102000Y-87874500D01*
X161102000Y-87872500D01*
X161103000Y-87869500D01*
X161104000Y-87867500D01*
X161105000Y-87864500D01*
X161107000Y-87862500D01*
X161108000Y-87860500D01*
X161110000Y-87858500D01*
X161111000Y-87856500D01*
X161113000Y-87854500D01*
X161115000Y-87852500D01*
X161117000Y-87850500D01*
X161119000Y-87848500D01*
X161121000Y-87847500D01*
X161123000Y-87845500D01*
X161125000Y-87844500D01*
X161127000Y-87842500D01*
X161130000Y-87841500D01*
X161132000Y-87840500D01*
X161135000Y-87839500D01*
X161137000Y-87839500D01*
X161140000Y-87838500D01*
X161142000Y-87838500D01*
X161145000Y-87837500D01*
X161147000Y-87837500D01*
X161150000Y-87837500D01*
X161300000Y-87837500D01*
X161303000Y-87837500D01*
X161305000Y-87837500D01*
X161308000Y-87838500D01*
G37*
X161658000Y-90313500D02*
X161660000Y-90313500D01*
X161663000Y-90314500D01*
X161665000Y-90314500D01*
X161668000Y-90315500D01*
X161670000Y-90316500D01*
X161673000Y-90317500D01*
X161675000Y-90319500D01*
X161677000Y-90320500D01*
X161679000Y-90322500D01*
X161681000Y-90323500D01*
X161683000Y-90325500D01*
X161685000Y-90327500D01*
X161687000Y-90329500D01*
X161689000Y-90331500D01*
X161690000Y-90333500D01*
X161692000Y-90335500D01*
X161693000Y-90337500D01*
X161695000Y-90339500D01*
X161696000Y-90342500D01*
X161697000Y-90344500D01*
X161698000Y-90347500D01*
X161698000Y-90349500D01*
X161699000Y-90352500D01*
X161699000Y-90354500D01*
X161700000Y-90357500D01*
X161700000Y-90359500D01*
X161700000Y-90362500D01*
X161700000Y-90612500D01*
X161700000Y-90615500D01*
X161700000Y-90617500D01*
X161699000Y-90620500D01*
X161699000Y-90622500D01*
X161698000Y-90625500D01*
X161698000Y-90627500D01*
X161697000Y-90630500D01*
X161696000Y-90632500D01*
X161695000Y-90635500D01*
X161693000Y-90637500D01*
X161692000Y-90639500D01*
X161690000Y-90641500D01*
X161689000Y-90643500D01*
X161687000Y-90645500D01*
X161685000Y-90647500D01*
X161683000Y-90649500D01*
X161681000Y-90651500D01*
X161679000Y-90652500D01*
X161677000Y-90654500D01*
X161675000Y-90655500D01*
X161673000Y-90657500D01*
X161670000Y-90658500D01*
X161668000Y-90659500D01*
X161665000Y-90660500D01*
X161663000Y-90660500D01*
X161660000Y-90661500D01*
X161658000Y-90661500D01*
X161655000Y-90662500D01*
X161653000Y-90662500D01*
X161650000Y-90662500D01*
X161450000Y-90662500D01*
X161445000Y-90662500D01*
X161440000Y-90663500D01*
X161434000Y-90663500D01*
X161429000Y-90664500D01*
X161424000Y-90665500D01*
X161419000Y-90667500D01*
X161414000Y-90669500D01*
X161409000Y-90671500D01*
X161405000Y-90673500D01*
X161400000Y-90675500D01*
X161396000Y-90678500D01*
X161391000Y-90681500D01*
X161387000Y-90684500D01*
X161383000Y-90688500D01*
X161379000Y-90691500D01*
X161376000Y-90695500D01*
X161372000Y-90699500D01*
X161369000Y-90703500D01*
X161366000Y-90708500D01*
X161363000Y-90712500D01*
X161361000Y-90717500D01*
X161359000Y-90721500D01*
X161357000Y-90726500D01*
X161355000Y-90731500D01*
X161353000Y-90736500D01*
X161352000Y-90741500D01*
X161351000Y-90746500D01*
X161351000Y-90752500D01*
X161350000Y-90757500D01*
X161350000Y-90762500D01*
X161350000Y-91487500D01*
X161350000Y-91490500D01*
X161350000Y-91492500D01*
X161349000Y-91495500D01*
X161349000Y-91497500D01*
X161348000Y-91500500D01*
X161348000Y-91502500D01*
X161347000Y-91505500D01*
X161346000Y-91507500D01*
X161345000Y-91510500D01*
X161343000Y-91512500D01*
X161342000Y-91514500D01*
X161340000Y-91516500D01*
X161339000Y-91518500D01*
X161337000Y-91520500D01*
X161335000Y-91522500D01*
X161333000Y-91524500D01*
X161331000Y-91526500D01*
X161329000Y-91527500D01*
X161327000Y-91529500D01*
X161325000Y-91530500D01*
X161323000Y-91532500D01*
X161320000Y-91533500D01*
X161318000Y-91534500D01*
X161315000Y-91535500D01*
X161313000Y-91535500D01*
X161310000Y-91536500D01*
X161308000Y-91536500D01*
X161305000Y-91537500D01*
X161303000Y-91537500D01*
X161300000Y-91537500D01*
X161150000Y-91537500D01*
X161147000Y-91537500D01*
X161145000Y-91537500D01*
X161142000Y-91536500D01*
X161140000Y-91536500D01*
X161137000Y-91535500D01*
X161135000Y-91535500D01*
X161132000Y-91534500D01*
X161130000Y-91533500D01*
X161127000Y-91532500D01*
X161125000Y-91530500D01*
X161123000Y-91529500D01*
X161121000Y-91527500D01*
X161119000Y-91526500D01*
X161117000Y-91524500D01*
X161115000Y-91522500D01*
X161113000Y-91520500D01*
X161111000Y-91518500D01*
X161110000Y-91516500D01*
X161108000Y-91514500D01*
X161107000Y-91512500D01*
X161105000Y-91510500D01*
X161104000Y-91507500D01*
X161103000Y-91505500D01*
X161102000Y-91502500D01*
X161102000Y-91500500D01*
X161101000Y-91497500D01*
X161101000Y-91495500D01*
X161100000Y-91492500D01*
X161100000Y-91490500D01*
X161100000Y-91487500D01*
X161100000Y-90362500D01*
X161100000Y-90359500D01*
X161100000Y-90357500D01*
X161101000Y-90354500D01*
X161101000Y-90352500D01*
X161102000Y-90349500D01*
X161102000Y-90347500D01*
X161103000Y-90344500D01*
X161104000Y-90342500D01*
X161105000Y-90339500D01*
X161107000Y-90337500D01*
X161108000Y-90335500D01*
X161110000Y-90333500D01*
X161111000Y-90331500D01*
X161113000Y-90329500D01*
X161115000Y-90327500D01*
X161117000Y-90325500D01*
X161119000Y-90323500D01*
X161121000Y-90322500D01*
X161123000Y-90320500D01*
X161125000Y-90319500D01*
X161127000Y-90317500D01*
X161130000Y-90316500D01*
X161132000Y-90315500D01*
X161135000Y-90314500D01*
X161137000Y-90314500D01*
X161140000Y-90313500D01*
X161142000Y-90313500D01*
X161145000Y-90312500D01*
X161147000Y-90312500D01*
X161150000Y-90312500D01*
X161650000Y-90312500D01*
X161653000Y-90312500D01*
X161655000Y-90312500D01*
X161658000Y-90313500D01*
G36*
X161658000Y-90313500D02*
G01*
X161660000Y-90313500D01*
X161663000Y-90314500D01*
X161665000Y-90314500D01*
X161668000Y-90315500D01*
X161670000Y-90316500D01*
X161673000Y-90317500D01*
X161675000Y-90319500D01*
X161677000Y-90320500D01*
X161679000Y-90322500D01*
X161681000Y-90323500D01*
X161683000Y-90325500D01*
X161685000Y-90327500D01*
X161687000Y-90329500D01*
X161689000Y-90331500D01*
X161690000Y-90333500D01*
X161692000Y-90335500D01*
X161693000Y-90337500D01*
X161695000Y-90339500D01*
X161696000Y-90342500D01*
X161697000Y-90344500D01*
X161698000Y-90347500D01*
X161698000Y-90349500D01*
X161699000Y-90352500D01*
X161699000Y-90354500D01*
X161700000Y-90357500D01*
X161700000Y-90359500D01*
X161700000Y-90362500D01*
X161700000Y-90612500D01*
X161700000Y-90615500D01*
X161700000Y-90617500D01*
X161699000Y-90620500D01*
X161699000Y-90622500D01*
X161698000Y-90625500D01*
X161698000Y-90627500D01*
X161697000Y-90630500D01*
X161696000Y-90632500D01*
X161695000Y-90635500D01*
X161693000Y-90637500D01*
X161692000Y-90639500D01*
X161690000Y-90641500D01*
X161689000Y-90643500D01*
X161687000Y-90645500D01*
X161685000Y-90647500D01*
X161683000Y-90649500D01*
X161681000Y-90651500D01*
X161679000Y-90652500D01*
X161677000Y-90654500D01*
X161675000Y-90655500D01*
X161673000Y-90657500D01*
X161670000Y-90658500D01*
X161668000Y-90659500D01*
X161665000Y-90660500D01*
X161663000Y-90660500D01*
X161660000Y-90661500D01*
X161658000Y-90661500D01*
X161655000Y-90662500D01*
X161653000Y-90662500D01*
X161650000Y-90662500D01*
X161450000Y-90662500D01*
X161445000Y-90662500D01*
X161440000Y-90663500D01*
X161434000Y-90663500D01*
X161429000Y-90664500D01*
X161424000Y-90665500D01*
X161419000Y-90667500D01*
X161414000Y-90669500D01*
X161409000Y-90671500D01*
X161405000Y-90673500D01*
X161400000Y-90675500D01*
X161396000Y-90678500D01*
X161391000Y-90681500D01*
X161387000Y-90684500D01*
X161383000Y-90688500D01*
X161379000Y-90691500D01*
X161376000Y-90695500D01*
X161372000Y-90699500D01*
X161369000Y-90703500D01*
X161366000Y-90708500D01*
X161363000Y-90712500D01*
X161361000Y-90717500D01*
X161359000Y-90721500D01*
X161357000Y-90726500D01*
X161355000Y-90731500D01*
X161353000Y-90736500D01*
X161352000Y-90741500D01*
X161351000Y-90746500D01*
X161351000Y-90752500D01*
X161350000Y-90757500D01*
X161350000Y-90762500D01*
X161350000Y-91487500D01*
X161350000Y-91490500D01*
X161350000Y-91492500D01*
X161349000Y-91495500D01*
X161349000Y-91497500D01*
X161348000Y-91500500D01*
X161348000Y-91502500D01*
X161347000Y-91505500D01*
X161346000Y-91507500D01*
X161345000Y-91510500D01*
X161343000Y-91512500D01*
X161342000Y-91514500D01*
X161340000Y-91516500D01*
X161339000Y-91518500D01*
X161337000Y-91520500D01*
X161335000Y-91522500D01*
X161333000Y-91524500D01*
X161331000Y-91526500D01*
X161329000Y-91527500D01*
X161327000Y-91529500D01*
X161325000Y-91530500D01*
X161323000Y-91532500D01*
X161320000Y-91533500D01*
X161318000Y-91534500D01*
X161315000Y-91535500D01*
X161313000Y-91535500D01*
X161310000Y-91536500D01*
X161308000Y-91536500D01*
X161305000Y-91537500D01*
X161303000Y-91537500D01*
X161300000Y-91537500D01*
X161150000Y-91537500D01*
X161147000Y-91537500D01*
X161145000Y-91537500D01*
X161142000Y-91536500D01*
X161140000Y-91536500D01*
X161137000Y-91535500D01*
X161135000Y-91535500D01*
X161132000Y-91534500D01*
X161130000Y-91533500D01*
X161127000Y-91532500D01*
X161125000Y-91530500D01*
X161123000Y-91529500D01*
X161121000Y-91527500D01*
X161119000Y-91526500D01*
X161117000Y-91524500D01*
X161115000Y-91522500D01*
X161113000Y-91520500D01*
X161111000Y-91518500D01*
X161110000Y-91516500D01*
X161108000Y-91514500D01*
X161107000Y-91512500D01*
X161105000Y-91510500D01*
X161104000Y-91507500D01*
X161103000Y-91505500D01*
X161102000Y-91502500D01*
X161102000Y-91500500D01*
X161101000Y-91497500D01*
X161101000Y-91495500D01*
X161100000Y-91492500D01*
X161100000Y-91490500D01*
X161100000Y-91487500D01*
X161100000Y-90362500D01*
X161100000Y-90359500D01*
X161100000Y-90357500D01*
X161101000Y-90354500D01*
X161101000Y-90352500D01*
X161102000Y-90349500D01*
X161102000Y-90347500D01*
X161103000Y-90344500D01*
X161104000Y-90342500D01*
X161105000Y-90339500D01*
X161107000Y-90337500D01*
X161108000Y-90335500D01*
X161110000Y-90333500D01*
X161111000Y-90331500D01*
X161113000Y-90329500D01*
X161115000Y-90327500D01*
X161117000Y-90325500D01*
X161119000Y-90323500D01*
X161121000Y-90322500D01*
X161123000Y-90320500D01*
X161125000Y-90319500D01*
X161127000Y-90317500D01*
X161130000Y-90316500D01*
X161132000Y-90315500D01*
X161135000Y-90314500D01*
X161137000Y-90314500D01*
X161140000Y-90313500D01*
X161142000Y-90313500D01*
X161145000Y-90312500D01*
X161147000Y-90312500D01*
X161150000Y-90312500D01*
X161650000Y-90312500D01*
X161653000Y-90312500D01*
X161655000Y-90312500D01*
X161658000Y-90313500D01*
G37*
X160808000Y-90338500D02*
X160810000Y-90338500D01*
X160813000Y-90339500D01*
X160815000Y-90339500D01*
X160818000Y-90340500D01*
X160820000Y-90341500D01*
X160823000Y-90342500D01*
X160825000Y-90344500D01*
X160827000Y-90345500D01*
X160829000Y-90347500D01*
X160831000Y-90348500D01*
X160833000Y-90350500D01*
X160835000Y-90352500D01*
X160837000Y-90354500D01*
X160839000Y-90356500D01*
X160840000Y-90358500D01*
X160842000Y-90360500D01*
X160843000Y-90362500D01*
X160845000Y-90364500D01*
X160846000Y-90367500D01*
X160847000Y-90369500D01*
X160848000Y-90372500D01*
X160848000Y-90374500D01*
X160849000Y-90377500D01*
X160849000Y-90379500D01*
X160850000Y-90382500D01*
X160850000Y-90384500D01*
X160850000Y-90387500D01*
X160850000Y-91487500D01*
X160850000Y-91490500D01*
X160850000Y-91492500D01*
X160849000Y-91495500D01*
X160849000Y-91497500D01*
X160848000Y-91500500D01*
X160848000Y-91502500D01*
X160847000Y-91505500D01*
X160846000Y-91507500D01*
X160845000Y-91510500D01*
X160843000Y-91512500D01*
X160842000Y-91514500D01*
X160840000Y-91516500D01*
X160839000Y-91518500D01*
X160837000Y-91520500D01*
X160835000Y-91522500D01*
X160833000Y-91524500D01*
X160831000Y-91526500D01*
X160829000Y-91527500D01*
X160827000Y-91529500D01*
X160825000Y-91530500D01*
X160823000Y-91532500D01*
X160820000Y-91533500D01*
X160818000Y-91534500D01*
X160815000Y-91535500D01*
X160813000Y-91535500D01*
X160810000Y-91536500D01*
X160808000Y-91536500D01*
X160805000Y-91537500D01*
X160803000Y-91537500D01*
X160800000Y-91537500D01*
X160650000Y-91537500D01*
X160647000Y-91537500D01*
X160645000Y-91537500D01*
X160642000Y-91536500D01*
X160640000Y-91536500D01*
X160637000Y-91535500D01*
X160635000Y-91535500D01*
X160632000Y-91534500D01*
X160630000Y-91533500D01*
X160627000Y-91532500D01*
X160625000Y-91530500D01*
X160623000Y-91529500D01*
X160621000Y-91527500D01*
X160619000Y-91526500D01*
X160617000Y-91524500D01*
X160615000Y-91522500D01*
X160613000Y-91520500D01*
X160611000Y-91518500D01*
X160610000Y-91516500D01*
X160608000Y-91514500D01*
X160607000Y-91512500D01*
X160605000Y-91510500D01*
X160604000Y-91507500D01*
X160603000Y-91505500D01*
X160602000Y-91502500D01*
X160602000Y-91500500D01*
X160601000Y-91497500D01*
X160601000Y-91495500D01*
X160600000Y-91492500D01*
X160600000Y-91490500D01*
X160600000Y-91487500D01*
X160600000Y-91187500D01*
X160600000Y-91184500D01*
X160600000Y-91182500D01*
X160599000Y-91179500D01*
X160599000Y-91177500D01*
X160598000Y-91174500D01*
X160598000Y-91172500D01*
X160597000Y-91169500D01*
X160596000Y-91167500D01*
X160595000Y-91164500D01*
X160593000Y-91162500D01*
X160592000Y-91160500D01*
X160590000Y-91158500D01*
X160589000Y-91156500D01*
X160587000Y-91154500D01*
X160585000Y-91152500D01*
X160583000Y-91150500D01*
X160581000Y-91148500D01*
X160579000Y-91147500D01*
X160577000Y-91145500D01*
X160575000Y-91144500D01*
X160573000Y-91142500D01*
X160570000Y-91141500D01*
X160568000Y-91140500D01*
X160565000Y-91139500D01*
X160563000Y-91139500D01*
X160560000Y-91138500D01*
X160558000Y-91138500D01*
X160555000Y-91137500D01*
X160553000Y-91137500D01*
X160550000Y-91137500D01*
X160400000Y-91137500D01*
X160397000Y-91137500D01*
X160395000Y-91137500D01*
X160392000Y-91138500D01*
X160390000Y-91138500D01*
X160387000Y-91139500D01*
X160385000Y-91139500D01*
X160382000Y-91140500D01*
X160380000Y-91141500D01*
X160377000Y-91142500D01*
X160375000Y-91144500D01*
X160373000Y-91145500D01*
X160371000Y-91147500D01*
X160369000Y-91148500D01*
X160367000Y-91150500D01*
X160365000Y-91152500D01*
X160363000Y-91154500D01*
X160361000Y-91156500D01*
X160360000Y-91158500D01*
X160358000Y-91160500D01*
X160357000Y-91162500D01*
X160355000Y-91164500D01*
X160354000Y-91167500D01*
X160353000Y-91169500D01*
X160352000Y-91172500D01*
X160352000Y-91174500D01*
X160351000Y-91177500D01*
X160351000Y-91179500D01*
X160350000Y-91182500D01*
X160350000Y-91184500D01*
X160350000Y-91187500D01*
X160350000Y-91487500D01*
X160350000Y-91490500D01*
X160350000Y-91492500D01*
X160349000Y-91495500D01*
X160349000Y-91497500D01*
X160348000Y-91500500D01*
X160348000Y-91502500D01*
X160347000Y-91505500D01*
X160346000Y-91507500D01*
X160345000Y-91510500D01*
X160343000Y-91512500D01*
X160342000Y-91514500D01*
X160340000Y-91516500D01*
X160339000Y-91518500D01*
X160337000Y-91520500D01*
X160335000Y-91522500D01*
X160333000Y-91524500D01*
X160331000Y-91526500D01*
X160329000Y-91527500D01*
X160327000Y-91529500D01*
X160325000Y-91530500D01*
X160323000Y-91532500D01*
X160320000Y-91533500D01*
X160318000Y-91534500D01*
X160315000Y-91535500D01*
X160313000Y-91535500D01*
X160310000Y-91536500D01*
X160308000Y-91536500D01*
X160305000Y-91537500D01*
X160303000Y-91537500D01*
X160300000Y-91537500D01*
X160150000Y-91537500D01*
X160147000Y-91537500D01*
X160145000Y-91537500D01*
X160142000Y-91536500D01*
X160140000Y-91536500D01*
X160137000Y-91535500D01*
X160135000Y-91535500D01*
X160132000Y-91534500D01*
X160130000Y-91533500D01*
X160127000Y-91532500D01*
X160125000Y-91530500D01*
X160123000Y-91529500D01*
X160121000Y-91527500D01*
X160119000Y-91526500D01*
X160117000Y-91524500D01*
X160115000Y-91522500D01*
X160113000Y-91520500D01*
X160111000Y-91518500D01*
X160110000Y-91516500D01*
X160108000Y-91514500D01*
X160107000Y-91512500D01*
X160105000Y-91510500D01*
X160104000Y-91507500D01*
X160103000Y-91505500D01*
X160102000Y-91502500D01*
X160102000Y-91500500D01*
X160101000Y-91497500D01*
X160101000Y-91495500D01*
X160100000Y-91492500D01*
X160100000Y-91490500D01*
X160100000Y-91487500D01*
X160100000Y-90387500D01*
X160100000Y-90384500D01*
X160100000Y-90382500D01*
X160101000Y-90379500D01*
X160101000Y-90377500D01*
X160102000Y-90374500D01*
X160102000Y-90372500D01*
X160103000Y-90369500D01*
X160104000Y-90367500D01*
X160105000Y-90364500D01*
X160107000Y-90362500D01*
X160108000Y-90360500D01*
X160110000Y-90358500D01*
X160111000Y-90356500D01*
X160113000Y-90354500D01*
X160115000Y-90352500D01*
X160117000Y-90350500D01*
X160119000Y-90348500D01*
X160121000Y-90347500D01*
X160123000Y-90345500D01*
X160125000Y-90344500D01*
X160127000Y-90342500D01*
X160130000Y-90341500D01*
X160132000Y-90340500D01*
X160135000Y-90339500D01*
X160137000Y-90339500D01*
X160140000Y-90338500D01*
X160142000Y-90338500D01*
X160145000Y-90337500D01*
X160147000Y-90337500D01*
X160150000Y-90337500D01*
X160800000Y-90337500D01*
X160803000Y-90337500D01*
X160805000Y-90337500D01*
X160808000Y-90338500D01*
G36*
X160808000Y-90338500D02*
G01*
X160810000Y-90338500D01*
X160813000Y-90339500D01*
X160815000Y-90339500D01*
X160818000Y-90340500D01*
X160820000Y-90341500D01*
X160823000Y-90342500D01*
X160825000Y-90344500D01*
X160827000Y-90345500D01*
X160829000Y-90347500D01*
X160831000Y-90348500D01*
X160833000Y-90350500D01*
X160835000Y-90352500D01*
X160837000Y-90354500D01*
X160839000Y-90356500D01*
X160840000Y-90358500D01*
X160842000Y-90360500D01*
X160843000Y-90362500D01*
X160845000Y-90364500D01*
X160846000Y-90367500D01*
X160847000Y-90369500D01*
X160848000Y-90372500D01*
X160848000Y-90374500D01*
X160849000Y-90377500D01*
X160849000Y-90379500D01*
X160850000Y-90382500D01*
X160850000Y-90384500D01*
X160850000Y-90387500D01*
X160850000Y-91487500D01*
X160850000Y-91490500D01*
X160850000Y-91492500D01*
X160849000Y-91495500D01*
X160849000Y-91497500D01*
X160848000Y-91500500D01*
X160848000Y-91502500D01*
X160847000Y-91505500D01*
X160846000Y-91507500D01*
X160845000Y-91510500D01*
X160843000Y-91512500D01*
X160842000Y-91514500D01*
X160840000Y-91516500D01*
X160839000Y-91518500D01*
X160837000Y-91520500D01*
X160835000Y-91522500D01*
X160833000Y-91524500D01*
X160831000Y-91526500D01*
X160829000Y-91527500D01*
X160827000Y-91529500D01*
X160825000Y-91530500D01*
X160823000Y-91532500D01*
X160820000Y-91533500D01*
X160818000Y-91534500D01*
X160815000Y-91535500D01*
X160813000Y-91535500D01*
X160810000Y-91536500D01*
X160808000Y-91536500D01*
X160805000Y-91537500D01*
X160803000Y-91537500D01*
X160800000Y-91537500D01*
X160650000Y-91537500D01*
X160647000Y-91537500D01*
X160645000Y-91537500D01*
X160642000Y-91536500D01*
X160640000Y-91536500D01*
X160637000Y-91535500D01*
X160635000Y-91535500D01*
X160632000Y-91534500D01*
X160630000Y-91533500D01*
X160627000Y-91532500D01*
X160625000Y-91530500D01*
X160623000Y-91529500D01*
X160621000Y-91527500D01*
X160619000Y-91526500D01*
X160617000Y-91524500D01*
X160615000Y-91522500D01*
X160613000Y-91520500D01*
X160611000Y-91518500D01*
X160610000Y-91516500D01*
X160608000Y-91514500D01*
X160607000Y-91512500D01*
X160605000Y-91510500D01*
X160604000Y-91507500D01*
X160603000Y-91505500D01*
X160602000Y-91502500D01*
X160602000Y-91500500D01*
X160601000Y-91497500D01*
X160601000Y-91495500D01*
X160600000Y-91492500D01*
X160600000Y-91490500D01*
X160600000Y-91487500D01*
X160600000Y-91187500D01*
X160600000Y-91184500D01*
X160600000Y-91182500D01*
X160599000Y-91179500D01*
X160599000Y-91177500D01*
X160598000Y-91174500D01*
X160598000Y-91172500D01*
X160597000Y-91169500D01*
X160596000Y-91167500D01*
X160595000Y-91164500D01*
X160593000Y-91162500D01*
X160592000Y-91160500D01*
X160590000Y-91158500D01*
X160589000Y-91156500D01*
X160587000Y-91154500D01*
X160585000Y-91152500D01*
X160583000Y-91150500D01*
X160581000Y-91148500D01*
X160579000Y-91147500D01*
X160577000Y-91145500D01*
X160575000Y-91144500D01*
X160573000Y-91142500D01*
X160570000Y-91141500D01*
X160568000Y-91140500D01*
X160565000Y-91139500D01*
X160563000Y-91139500D01*
X160560000Y-91138500D01*
X160558000Y-91138500D01*
X160555000Y-91137500D01*
X160553000Y-91137500D01*
X160550000Y-91137500D01*
X160400000Y-91137500D01*
X160397000Y-91137500D01*
X160395000Y-91137500D01*
X160392000Y-91138500D01*
X160390000Y-91138500D01*
X160387000Y-91139500D01*
X160385000Y-91139500D01*
X160382000Y-91140500D01*
X160380000Y-91141500D01*
X160377000Y-91142500D01*
X160375000Y-91144500D01*
X160373000Y-91145500D01*
X160371000Y-91147500D01*
X160369000Y-91148500D01*
X160367000Y-91150500D01*
X160365000Y-91152500D01*
X160363000Y-91154500D01*
X160361000Y-91156500D01*
X160360000Y-91158500D01*
X160358000Y-91160500D01*
X160357000Y-91162500D01*
X160355000Y-91164500D01*
X160354000Y-91167500D01*
X160353000Y-91169500D01*
X160352000Y-91172500D01*
X160352000Y-91174500D01*
X160351000Y-91177500D01*
X160351000Y-91179500D01*
X160350000Y-91182500D01*
X160350000Y-91184500D01*
X160350000Y-91187500D01*
X160350000Y-91487500D01*
X160350000Y-91490500D01*
X160350000Y-91492500D01*
X160349000Y-91495500D01*
X160349000Y-91497500D01*
X160348000Y-91500500D01*
X160348000Y-91502500D01*
X160347000Y-91505500D01*
X160346000Y-91507500D01*
X160345000Y-91510500D01*
X160343000Y-91512500D01*
X160342000Y-91514500D01*
X160340000Y-91516500D01*
X160339000Y-91518500D01*
X160337000Y-91520500D01*
X160335000Y-91522500D01*
X160333000Y-91524500D01*
X160331000Y-91526500D01*
X160329000Y-91527500D01*
X160327000Y-91529500D01*
X160325000Y-91530500D01*
X160323000Y-91532500D01*
X160320000Y-91533500D01*
X160318000Y-91534500D01*
X160315000Y-91535500D01*
X160313000Y-91535500D01*
X160310000Y-91536500D01*
X160308000Y-91536500D01*
X160305000Y-91537500D01*
X160303000Y-91537500D01*
X160300000Y-91537500D01*
X160150000Y-91537500D01*
X160147000Y-91537500D01*
X160145000Y-91537500D01*
X160142000Y-91536500D01*
X160140000Y-91536500D01*
X160137000Y-91535500D01*
X160135000Y-91535500D01*
X160132000Y-91534500D01*
X160130000Y-91533500D01*
X160127000Y-91532500D01*
X160125000Y-91530500D01*
X160123000Y-91529500D01*
X160121000Y-91527500D01*
X160119000Y-91526500D01*
X160117000Y-91524500D01*
X160115000Y-91522500D01*
X160113000Y-91520500D01*
X160111000Y-91518500D01*
X160110000Y-91516500D01*
X160108000Y-91514500D01*
X160107000Y-91512500D01*
X160105000Y-91510500D01*
X160104000Y-91507500D01*
X160103000Y-91505500D01*
X160102000Y-91502500D01*
X160102000Y-91500500D01*
X160101000Y-91497500D01*
X160101000Y-91495500D01*
X160100000Y-91492500D01*
X160100000Y-91490500D01*
X160100000Y-91487500D01*
X160100000Y-90387500D01*
X160100000Y-90384500D01*
X160100000Y-90382500D01*
X160101000Y-90379500D01*
X160101000Y-90377500D01*
X160102000Y-90374500D01*
X160102000Y-90372500D01*
X160103000Y-90369500D01*
X160104000Y-90367500D01*
X160105000Y-90364500D01*
X160107000Y-90362500D01*
X160108000Y-90360500D01*
X160110000Y-90358500D01*
X160111000Y-90356500D01*
X160113000Y-90354500D01*
X160115000Y-90352500D01*
X160117000Y-90350500D01*
X160119000Y-90348500D01*
X160121000Y-90347500D01*
X160123000Y-90345500D01*
X160125000Y-90344500D01*
X160127000Y-90342500D01*
X160130000Y-90341500D01*
X160132000Y-90340500D01*
X160135000Y-90339500D01*
X160137000Y-90339500D01*
X160140000Y-90338500D01*
X160142000Y-90338500D01*
X160145000Y-90337500D01*
X160147000Y-90337500D01*
X160150000Y-90337500D01*
X160800000Y-90337500D01*
X160803000Y-90337500D01*
X160805000Y-90337500D01*
X160808000Y-90338500D01*
G37*
%TO.C,U1*%
X147890000Y-84635000D02*
X146810000Y-84635000D01*
X146810000Y-83665000D01*
X147890000Y-83665000D01*
X147890000Y-84635000D01*
G36*
X147890000Y-84635000D02*
G01*
X146810000Y-84635000D01*
X146810000Y-83665000D01*
X147890000Y-83665000D01*
X147890000Y-84635000D01*
G37*
%TO.C,S1*%
X151350000Y-101870000D02*
X152050000Y-101870000D01*
X152050000Y-102670000D01*
X150550000Y-102670000D01*
X150550000Y-101170000D01*
X151350000Y-101170000D01*
X151350000Y-101870000D01*
G36*
X151350000Y-101870000D02*
G01*
X152050000Y-101870000D01*
X152050000Y-102670000D01*
X150550000Y-102670000D01*
X150550000Y-101170000D01*
X151350000Y-101170000D01*
X151350000Y-101870000D01*
G37*
X158950000Y-102670000D02*
X157450000Y-102670000D01*
X157450000Y-101870000D01*
X158150000Y-101870000D01*
X158150000Y-101170000D01*
X158950000Y-101170000D01*
X158950000Y-102670000D01*
G36*
X158950000Y-102670000D02*
G01*
X157450000Y-102670000D01*
X157450000Y-101870000D01*
X158150000Y-101870000D01*
X158150000Y-101170000D01*
X158950000Y-101170000D01*
X158950000Y-102670000D01*
G37*
%TD*%
D11*
%TO.C,C27*%
X136125000Y-97505000D03*
X136125000Y-96545000D03*
%TD*%
D12*
%TO.C,C31*%
X145830000Y-101745000D03*
X144870000Y-101745000D03*
%TD*%
D13*
%TO.C,D2*%
X147750000Y-102850000D03*
X147750000Y-101275000D03*
%TD*%
%TO.C,D4*%
X149450000Y-102850000D03*
X149450000Y-101275000D03*
%TD*%
D14*
%TO.C,D1*%
X148450000Y-68595000D03*
X148450000Y-72595000D03*
%TD*%
D15*
%TO.C,C17*%
X150730000Y-83825000D03*
X151690000Y-83825000D03*
%TD*%
D12*
%TO.C,C28*%
X145830000Y-100745000D03*
X144870000Y-100745000D03*
%TD*%
D16*
%TO.C,R17*%
X132020000Y-74495000D03*
X133040000Y-74495000D03*
%TD*%
D17*
%TO.C,R11*%
X155537500Y-95077500D03*
X155537500Y-96097500D03*
%TD*%
D14*
%TO.C,D3*%
X157250000Y-68595000D03*
X157250000Y-72595000D03*
%TD*%
D18*
%TO.C,R8*%
X151600000Y-98710000D03*
X151600000Y-97690000D03*
%TD*%
D19*
%TO.C,J5*%
X160400000Y-80495000D03*
X160400000Y-79495000D03*
X160400000Y-78495000D03*
X160400000Y-77495000D03*
X160400000Y-76495000D03*
X160400000Y-75495000D03*
D20*
X164275000Y-81795000D03*
X164275000Y-74195000D03*
%TD*%
D12*
%TO.C,C22*%
X147835000Y-81500000D03*
X146875000Y-81500000D03*
%TD*%
%TO.C,C29*%
X140085000Y-86295000D03*
X139125000Y-86295000D03*
%TD*%
D21*
%TO.C,PS1*%
X160725000Y-88237500D03*
X160225000Y-88237500D03*
D22*
X161425000Y-89462500D03*
%TD*%
D11*
%TO.C,C20*%
X154350000Y-72200000D03*
X154350000Y-71240000D03*
%TD*%
D19*
%TO.C,J4*%
X133725000Y-78845000D03*
X133725000Y-79845000D03*
X133725000Y-80845000D03*
X133725000Y-81845000D03*
X133725000Y-82845000D03*
X133725000Y-83845000D03*
X133725000Y-84845000D03*
X133725000Y-85845000D03*
D20*
X129850000Y-77545000D03*
X129850000Y-87145000D03*
%TD*%
D23*
%TO.C,C21*%
X156600000Y-86325000D03*
X159550000Y-86325000D03*
%TD*%
D16*
%TO.C,R14*%
X135240000Y-79845000D03*
X136260000Y-79845000D03*
%TD*%
D11*
%TO.C,C24*%
X149150000Y-88855000D03*
X149150000Y-87895000D03*
%TD*%
D24*
%TO.C,Y1*%
X139800000Y-101200000D03*
X137600000Y-101200000D03*
X137600000Y-102800000D03*
X139800000Y-102800000D03*
%TD*%
D15*
%TO.C,C23*%
X150730000Y-84875000D03*
X151690000Y-84875000D03*
%TD*%
D25*
%TO.C,C3*%
X135800000Y-101420000D03*
X135800000Y-102970000D03*
%TD*%
D17*
%TO.C,R5*%
X162550000Y-86915000D03*
X162550000Y-87935000D03*
%TD*%
D11*
%TO.C,C18*%
X162550000Y-89905000D03*
X162550000Y-88945000D03*
%TD*%
D17*
%TO.C,R1*%
X136050000Y-92485000D03*
X136050000Y-93505000D03*
%TD*%
D26*
%TO.C,C11*%
X164250000Y-91925000D03*
X164250000Y-88975000D03*
%TD*%
D11*
%TO.C,C1*%
X154325000Y-69075000D03*
X154325000Y-68115000D03*
%TD*%
D17*
%TO.C,R12*%
X163650000Y-86625000D03*
X163650000Y-87645000D03*
%TD*%
D16*
%TO.C,R4*%
X150540000Y-93050000D03*
X151560000Y-93050000D03*
%TD*%
D27*
%TO.C,U2*%
X151834800Y-69230001D03*
X151834800Y-71059999D03*
X153765200Y-70145000D03*
%TD*%
D11*
%TO.C,C30*%
X150575000Y-90275000D03*
X150575000Y-89315000D03*
%TD*%
D28*
%TO.C,R13*%
X136260000Y-78750000D03*
X135240000Y-78750000D03*
%TD*%
D23*
%TO.C,C19*%
X156600000Y-83925000D03*
X159550000Y-83925000D03*
%TD*%
D17*
%TO.C,R2*%
X136050000Y-94525000D03*
X136050000Y-95545000D03*
%TD*%
D16*
%TO.C,R7*%
X150540000Y-92000000D03*
X151560000Y-92000000D03*
%TD*%
D29*
%TO.C,U3*%
X139600000Y-99195000D03*
X140100000Y-99195000D03*
X140600000Y-99195000D03*
X141100000Y-99195000D03*
X141600000Y-99195000D03*
X142100000Y-99195000D03*
X142600000Y-99195000D03*
X143100000Y-99195000D03*
X143600000Y-99195000D03*
X144100000Y-99195000D03*
X144600000Y-99195000D03*
X145100000Y-99195000D03*
X145600000Y-99195000D03*
X146100000Y-99195000D03*
X146600000Y-99195000D03*
X147100000Y-99195000D03*
D30*
X149025000Y-97270000D03*
X149025000Y-96770000D03*
X149025000Y-96270000D03*
X149025000Y-95770000D03*
X149025000Y-95270000D03*
X149025000Y-94770000D03*
X149025000Y-94270000D03*
X149025000Y-93770000D03*
X149025000Y-93270000D03*
X149025000Y-92770000D03*
X149025000Y-92270000D03*
X149025000Y-91770000D03*
X149025000Y-91270000D03*
X149025000Y-90770000D03*
X149025000Y-90270000D03*
X149025000Y-89770000D03*
D29*
X147100000Y-87845000D03*
X146600000Y-87845000D03*
X146100000Y-87845000D03*
X145600000Y-87845000D03*
X145100000Y-87845000D03*
X144600000Y-87845000D03*
X144100000Y-87845000D03*
X143600000Y-87845000D03*
X143100000Y-87845000D03*
X142600000Y-87845000D03*
X142100000Y-87845000D03*
X141600000Y-87845000D03*
X141100000Y-87845000D03*
X140600000Y-87845000D03*
X140100000Y-87845000D03*
X139600000Y-87845000D03*
D30*
X137675000Y-89770000D03*
X137675000Y-90270000D03*
X137675000Y-90770000D03*
X137675000Y-91270000D03*
X137675000Y-91770000D03*
X137675000Y-92270000D03*
X137675000Y-92770000D03*
X137675000Y-93270000D03*
X137675000Y-93770000D03*
X137675000Y-94270000D03*
X137675000Y-94770000D03*
X137675000Y-95270000D03*
X137675000Y-95770000D03*
X137675000Y-96270000D03*
X137675000Y-96770000D03*
X137675000Y-97270000D03*
%TD*%
D31*
%TO.C,C34*%
X137500000Y-98215000D03*
X137500000Y-99175000D03*
%TD*%
D32*
%TO.C,Q1*%
X153162500Y-96187500D03*
X153162500Y-98087500D03*
X155037500Y-97137500D03*
%TD*%
D12*
%TO.C,C26*%
X138680000Y-87720000D03*
X137720000Y-87720000D03*
%TD*%
D33*
%TO.C,U1*%
X146350000Y-85695000D03*
X146750000Y-85695000D03*
X147150000Y-85695000D03*
X147550000Y-85695000D03*
X147950000Y-85695000D03*
X148350000Y-85695000D03*
D34*
X148895000Y-85150000D03*
X148895000Y-84750000D03*
X148895000Y-84350000D03*
X148895000Y-83950000D03*
X148895000Y-83550000D03*
X148895000Y-83150000D03*
D33*
X148350000Y-82605000D03*
X147950000Y-82605000D03*
X147550000Y-82605000D03*
X147150000Y-82605000D03*
X146750000Y-82605000D03*
X146350000Y-82605000D03*
D34*
X145805000Y-83150000D03*
X145805000Y-83550000D03*
X145805000Y-83950000D03*
X145805000Y-84350000D03*
X145805000Y-84750000D03*
X145805000Y-85150000D03*
%TD*%
D31*
%TO.C,C25*%
X150575000Y-96200000D03*
X150575000Y-97160000D03*
%TD*%
D17*
%TO.C,R6*%
X160950000Y-85490000D03*
X160950000Y-86510000D03*
%TD*%
D28*
%TO.C,R3*%
X154522500Y-94887500D03*
X153502500Y-94887500D03*
%TD*%
D35*
%TO.C,S1*%
X152650000Y-100070000D03*
X156850000Y-100070000D03*
%TD*%
D36*
%TO.C,C2*%
X141600000Y-101020000D03*
X143150000Y-101020000D03*
%TD*%
D16*
%TO.C,R16*%
X132030000Y-75595000D03*
X133050000Y-75595000D03*
%TD*%
D37*
%TO.C,J3*%
X144380000Y-74190000D03*
X143580000Y-74190000D03*
D38*
X142430000Y-74190000D03*
X141430000Y-74190000D03*
X140930000Y-74190000D03*
X139930000Y-74190000D03*
D37*
X137980000Y-74190000D03*
X138780000Y-74190000D03*
D38*
X139430000Y-74190000D03*
X140430000Y-74190000D03*
X141930000Y-74190000D03*
X142930000Y-74190000D03*
%TD*%
D19*
%TO.C,J1*%
X133700000Y-90195000D03*
X133700000Y-91195000D03*
X133700000Y-92195000D03*
X133700000Y-93195000D03*
X133700000Y-94195000D03*
X133700000Y-95195000D03*
D20*
X129825000Y-88895000D03*
X129825000Y-96495000D03*
%TD*%
M02*
