%TF.GenerationSoftware,KiCad,Pcbnew,9.0.6+1*%
%TF.CreationDate,Date%
%TF.ProjectId,FCU3,46435533-2e6b-4696-9361-645f70636258,+ (Unreleased)*%
%TF.SameCoordinates,Original*%
%TF.FileFunction,Legend,Bot*%
%TF.FilePolarity,Positive*%
%FSLAX46Y46*%
G04 Gerber Fmt 4.6, Leading zero omitted, Abs format (unit mm)*
G04 Created by KiCad*
%MOMM*%
%LPD*%
G01*
G04 APERTURE LIST*
G04 Aperture macros list*
%AMRoundRect*
0 Rectangle with rounded corners*
0 $1 Rounding radius*
0 $2 $3 $4 $5 $6 $7 $8 $9 X,Y pos of 4 corners*
0 Add a 4 corners polygon primitive as box body*
4,1,4,$2,$3,$4,$5,$6,$7,$8,$9,$2,$3,0*
0 Add four circle primitives for the rounded corners*
1,1,$1+$1,$2,$3*
1,1,$1+$1,$4,$5*
1,1,$1+$1,$6,$7*
1,1,$1+$1,$8,$9*
0 Add four rect primitives between the rounded corners*
20,1,$1+$1,$2,$3,$4,$5,0*
20,1,$1+$1,$4,$5,$6,$7,0*
20,1,$1+$1,$6,$7,$8,$9,0*
20,1,$1+$1,$8,$9,$2,$3,0*%
G04 Aperture macros list end*
%ADD10C,0.150000*%
%ADD11C,0.120000*%
%ADD12C,5.700000*%
%ADD13C,1.000000*%
%ADD14C,0.750000*%
%ADD15O,1.204000X2.304000*%
%ADD16O,1.204000X2.004000*%
%ADD17RoundRect,0.050000X-0.750000X0.500000X-0.750000X-0.500000X0.750000X-0.500000X0.750000X0.500000X0*%
%ADD18RoundRect,0.050000X-0.370000X1.200000X-0.370000X-1.200000X0.370000X-1.200000X0.370000X1.200000X0*%
%ADD19RoundRect,0.050000X-0.500000X-0.750000X0.500000X-0.750000X0.500000X0.750000X-0.500000X0.750000X0*%
G04 APERTURE END LIST*
D10*
X151445019Y-68811666D02*
X152159304Y-68811666D01*
X152159304Y-68811666D02*
X152302161Y-68764047D01*
X152302161Y-68764047D02*
X152397400Y-68668809D01*
X152397400Y-68668809D02*
X152445019Y-68525952D01*
X152445019Y-68525952D02*
X152445019Y-68430714D01*
X152445019Y-69287857D02*
X151445019Y-69287857D01*
X151445019Y-69287857D02*
X151445019Y-69668809D01*
X151445019Y-69668809D02*
X151492638Y-69764047D01*
X151492638Y-69764047D02*
X151540257Y-69811666D01*
X151540257Y-69811666D02*
X151635495Y-69859285D01*
X151635495Y-69859285D02*
X151778352Y-69859285D01*
X151778352Y-69859285D02*
X151873590Y-69811666D01*
X151873590Y-69811666D02*
X151921209Y-69764047D01*
X151921209Y-69764047D02*
X151968828Y-69668809D01*
X151968828Y-69668809D02*
X151968828Y-69287857D01*
X151778352Y-70716428D02*
X152445019Y-70716428D01*
X151397400Y-70478333D02*
X152111685Y-70240238D01*
X152111685Y-70240238D02*
X152111685Y-70859285D01*
X148104819Y-75516666D02*
X148819104Y-75516666D01*
X148819104Y-75516666D02*
X148961961Y-75469047D01*
X148961961Y-75469047D02*
X149057200Y-75373809D01*
X149057200Y-75373809D02*
X149104819Y-75230952D01*
X149104819Y-75230952D02*
X149104819Y-75135714D01*
X148200057Y-75945238D02*
X148152438Y-75992857D01*
X148152438Y-75992857D02*
X148104819Y-76088095D01*
X148104819Y-76088095D02*
X148104819Y-76326190D01*
X148104819Y-76326190D02*
X148152438Y-76421428D01*
X148152438Y-76421428D02*
X148200057Y-76469047D01*
X148200057Y-76469047D02*
X148295295Y-76516666D01*
X148295295Y-76516666D02*
X148390533Y-76516666D01*
X148390533Y-76516666D02*
X148533390Y-76469047D01*
X148533390Y-76469047D02*
X149104819Y-75897619D01*
X149104819Y-75897619D02*
X149104819Y-76516666D01*
X143933333Y-100049819D02*
X143933333Y-100764104D01*
X143933333Y-100764104D02*
X143980952Y-100906961D01*
X143980952Y-100906961D02*
X144076190Y-101002200D01*
X144076190Y-101002200D02*
X144219047Y-101049819D01*
X144219047Y-101049819D02*
X144314285Y-101049819D01*
X143457142Y-101049819D02*
X143457142Y-100049819D01*
X143457142Y-100049819D02*
X143076190Y-100049819D01*
X143076190Y-100049819D02*
X142980952Y-100097438D01*
X142980952Y-100097438D02*
X142933333Y-100145057D01*
X142933333Y-100145057D02*
X142885714Y-100240295D01*
X142885714Y-100240295D02*
X142885714Y-100383152D01*
X142885714Y-100383152D02*
X142933333Y-100478390D01*
X142933333Y-100478390D02*
X142980952Y-100526009D01*
X142980952Y-100526009D02*
X143076190Y-100573628D01*
X143076190Y-100573628D02*
X143457142Y-100573628D01*
X142552380Y-100049819D02*
X141933333Y-100049819D01*
X141933333Y-100049819D02*
X142266666Y-100430771D01*
X142266666Y-100430771D02*
X142123809Y-100430771D01*
X142123809Y-100430771D02*
X142028571Y-100478390D01*
X142028571Y-100478390D02*
X141980952Y-100526009D01*
X141980952Y-100526009D02*
X141933333Y-100621247D01*
X141933333Y-100621247D02*
X141933333Y-100859342D01*
X141933333Y-100859342D02*
X141980952Y-100954580D01*
X141980952Y-100954580D02*
X142028571Y-101002200D01*
X142028571Y-101002200D02*
X142123809Y-101049819D01*
X142123809Y-101049819D02*
X142409523Y-101049819D01*
X142409523Y-101049819D02*
X142504761Y-101002200D01*
X142504761Y-101002200D02*
X142552380Y-100954580D01*
D11*
%TO.C,JP4*%
X152915200Y-68245000D02*
X152915200Y-71045000D01*
X152915200Y-71045000D02*
X154915200Y-71045000D01*
X154915200Y-68245000D02*
X152915200Y-68245000D01*
X154915200Y-71045000D02*
X154915200Y-68245000D01*
%TO.C,J2*%
X146635000Y-69935000D02*
X146635000Y-73565000D01*
X146635000Y-69935000D02*
X146700000Y-69935000D01*
X146635000Y-73565000D02*
X146700000Y-73565000D01*
X146700000Y-68660000D02*
X146700000Y-69935000D01*
X150600000Y-69935000D02*
X150665000Y-69935000D01*
X150600000Y-73565000D02*
X150665000Y-73565000D01*
X150665000Y-69935000D02*
X150665000Y-73565000D01*
%TO.C,JP3*%
X141725000Y-101445000D02*
X141725000Y-103445000D01*
X141725000Y-103445000D02*
X144525000Y-103445000D01*
X144525000Y-101445000D02*
X141725000Y-101445000D01*
X144525000Y-103445000D02*
X144525000Y-101445000D01*
%TD*%
%LPC*%
%TO.C,JP4*%
G36*
X153165200Y-69495000D02*
G01*
X154665200Y-69495000D01*
X154665200Y-69795000D01*
X153165200Y-69795000D01*
X153165200Y-69495000D01*
G37*
%TO.C,JP3*%
G36*
X142975000Y-103195000D02*
G01*
X143275000Y-103195000D01*
X143275000Y-101695000D01*
X142975000Y-101695000D01*
X142975000Y-103195000D01*
G37*
%TD*%
D12*
%TO.C,H2*%
X162400000Y-70045000D03*
%TD*%
%TO.C,H1*%
X132754125Y-70082500D03*
%TD*%
%TO.C,H4*%
X162400000Y-100545000D03*
%TD*%
%TO.C,H3*%
X131900000Y-100545000D03*
%TD*%
D13*
%TO.C,S1*%
X153600000Y-101370000D03*
X155900000Y-101370000D03*
%TD*%
D14*
%TO.C,J3*%
X144070000Y-73125000D03*
X138290000Y-73125000D03*
D15*
X145500000Y-73625000D03*
X136860000Y-73625000D03*
D16*
X145500000Y-69445000D03*
X136860000Y-69445000D03*
%TD*%
D17*
%TO.C,JP4*%
X153915200Y-68995000D03*
X153915200Y-70295000D03*
%TD*%
D18*
%TO.C,J2*%
X147380000Y-69800000D03*
X147380000Y-73700000D03*
X148650000Y-69800000D03*
X148650000Y-73700000D03*
X149920000Y-69800000D03*
X149920000Y-73700000D03*
%TD*%
D19*
%TO.C,JP3*%
X142475000Y-102445000D03*
X143775000Y-102445000D03*
%TD*%
%LPD*%
M02*
