%TF.GenerationSoftware,KiCad,Pcbnew,9.0.6+1*%
%TF.CreationDate,Date%
%TF.ProjectId,FCU3,46435533-2e6b-4696-9361-645f70636258,+ (Unreleased)*%
%TF.SameCoordinates,Original*%
%TF.FileFunction,Copper,L4,Bot*%
%TF.FilePolarity,Positive*%
%FSLAX46Y46*%
G04 Gerber Fmt 4.6, Leading zero omitted, Abs format (unit mm)*
G04 Created by KiCad*
%MOMM*%
%LPD*%
G01*
G04 APERTURE LIST*
G04 Aperture macros list*
%AMRoundRect*
0 Rectangle with rounded corners*
0 $1 Rounding radius*
0 $2 $3 $4 $5 $6 $7 $8 $9 X,Y pos of 4 corners*
0 Add a 4 corners polygon primitive as box body*
4,1,4,$2,$3,$4,$5,$6,$7,$8,$9,$2,$3,0*
0 Add four circle primitives for the rounded corners*
1,1,$1+$1,$2,$3*
1,1,$1+$1,$4,$5*
1,1,$1+$1,$6,$7*
1,1,$1+$1,$8,$9*
0 Add four rect primitives between the rounded corners*
20,1,$1+$1,$2,$3,$4,$5,0*
20,1,$1+$1,$4,$5,$6,$7,0*
20,1,$1+$1,$6,$7,$8,$9,0*
20,1,$1+$1,$8,$9,$2,$3,0*%
%AMFreePoly0*
4,1,230,1.285236,0.141472,1.286180,0.141000,1.288000,0.141000,1.290236,0.140472,1.291920,0.139630,1.294581,0.138743,1.295236,0.138472,1.296920,0.137630,1.299581,0.136743,1.300236,0.136472,1.302236,0.135472,1.303536,0.134536,1.304964,0.133108,1.306236,0.132472,1.307536,0.131536,1.308964,0.130108,1.310236,0.129472,1.311536,0.128536,1.317536,0.122536,1.318472,0.121236,
1.319108,0.119964,1.320536,0.118536,1.321743,0.116581,1.322369,0.114703,1.323536,0.113536,1.324472,0.112236,1.325472,0.110236,1.325743,0.109581,1.326630,0.106920,1.327472,0.105236,1.328000,0.103000,1.328000,0.101180,1.328472,0.100236,1.329000,0.098000,1.329000,0.096180,1.329472,0.095236,1.330000,0.093000,1.330000,-1.142000,1.329743,-1.143581,1.329000,-1.145810,
1.329000,-1.147000,1.328743,-1.148581,1.328000,-1.150810,1.328000,-1.152000,1.327743,-1.153581,1.326743,-1.156581,1.326472,-1.157236,1.325630,-1.158920,1.324743,-1.161581,1.323536,-1.163536,1.322108,-1.164964,1.321472,-1.166236,1.320536,-1.167536,1.319108,-1.168964,1.318472,-1.170236,1.317536,-1.171536,1.309536,-1.179536,1.308236,-1.180472,1.306964,-1.181108,1.305536,-1.182536,
1.304236,-1.183472,1.302964,-1.184108,1.301536,-1.185536,1.299581,-1.186743,1.296920,-1.187630,1.295236,-1.188472,1.294581,-1.188743,1.291581,-1.189743,1.290000,-1.190000,1.288810,-1.190000,1.286581,-1.190743,1.285000,-1.191000,1.283810,-1.191000,1.281581,-1.191743,1.280000,-1.192000,1.120000,-1.192000,1.118419,-1.191743,1.116190,-1.191000,1.115000,-1.191000,1.113419,-1.190743,
1.111190,-1.190000,1.110000,-1.190000,1.108419,-1.189743,1.105419,-1.188743,1.104764,-1.188472,1.103080,-1.187630,1.100419,-1.186743,1.098464,-1.185536,1.097036,-1.184108,1.095764,-1.183472,1.094464,-1.182536,1.093036,-1.181108,1.091764,-1.180472,1.090464,-1.179536,1.082464,-1.171536,1.081528,-1.170236,1.080892,-1.168964,1.079464,-1.167536,1.078528,-1.166236,1.077892,-1.164964,
1.076464,-1.163536,1.075257,-1.161581,1.074370,-1.158920,1.073528,-1.157236,1.073257,-1.156581,1.072257,-1.153581,1.072000,-1.152000,1.072000,-1.150810,1.071257,-1.148581,1.071000,-1.147000,1.071000,-1.145810,1.070257,-1.143581,1.070000,-1.142000,1.070000,-0.343180,1.069528,-0.342236,1.069000,-0.340000,1.069000,-0.338180,1.068528,-0.337236,1.068000,-0.335000,1.068000,-0.334415,
1.067000,-0.332000,1.067000,-0.331415,1.066757,-0.330829,1.066464,-0.330536,1.065433,-0.328046,1.064892,-0.326964,1.064464,-0.326536,1.063757,-0.324829,1.061464,-0.322536,1.060757,-0.320829,1.056453,-0.316525,0.896464,-0.155536,0.894170,-0.153242,0.892464,-0.152536,0.890596,-0.150668,0.889764,-0.150472,0.887764,-0.149472,0.886464,-0.148536,0.886170,-0.148242,0.884464,-0.147536,
0.883596,-0.146668,0.882764,-0.146472,0.880953,-0.145566,0.879585,-0.145000,0.878000,-0.145000,0.875585,-0.144000,0.875000,-0.144000,0.872764,-0.143472,0.871820,-0.143000,-0.350000,-0.143000,-0.351581,-0.142743,-0.353810,-0.142000,-0.358000,-0.142000,-0.360236,-0.141472,-0.361180,-0.141000,-0.363000,-0.141000,-0.365236,-0.140472,-0.366920,-0.139630,-0.369581,-0.138743,-0.370236,-0.138472,
-0.371920,-0.137630,-0.374581,-0.136743,-0.375236,-0.136472,-0.377236,-0.135472,-0.378536,-0.134536,-0.379964,-0.133108,-0.381236,-0.132472,-0.382536,-0.131536,-0.383964,-0.130108,-0.385236,-0.129472,-0.386536,-0.128536,-0.392536,-0.122536,-0.393472,-0.121236,-0.394108,-0.119964,-0.395536,-0.118536,-0.396472,-0.117236,-0.397332,-0.115516,-0.399160,-0.112774,-0.399472,-0.112236,-0.400472,-0.110236,
-0.400743,-0.109581,-0.401630,-0.106920,-0.402472,-0.105236,-0.403000,-0.103000,-0.403000,-0.101180,-0.403472,-0.100236,-0.404000,-0.098000,-0.404000,-0.096180,-0.404472,-0.095236,-0.405000,-0.093000,-0.405000,0.093000,-0.404472,0.095236,-0.404000,0.096180,-0.404000,0.098000,-0.403472,0.100236,-0.403000,0.101180,-0.403000,0.103000,-0.402472,0.105236,-0.401630,0.106920,-0.400743,0.109581,
-0.400472,0.110236,-0.399472,0.112236,-0.398536,0.113536,-0.397369,0.114703,-0.396743,0.116581,-0.395536,0.118536,-0.394108,0.119964,-0.393472,0.121236,-0.392536,0.122536,-0.386536,0.128536,-0.385236,0.129472,-0.383964,0.130108,-0.382536,0.131536,-0.381236,0.132472,-0.379964,0.133108,-0.378536,0.134536,-0.377236,0.135472,-0.375236,0.136472,-0.374581,0.136743,-0.371920,0.137630,
-0.370236,0.138472,-0.369581,0.138743,-0.366920,0.139630,-0.365236,0.140472,-0.363000,0.141000,-0.361180,0.141000,-0.360236,0.141472,-0.358000,0.142000,1.283000,0.142000,1.285236,0.141472,1.285236,0.141472,$1*%
%AMFreePoly1*
4,1,153,0.480981,0.991903,0.485496,0.991000,0.491000,0.991000,0.491981,0.990903,0.501981,0.988903,0.502857,0.988642,0.517857,0.982642,0.518236,0.982472,0.522052,0.980564,0.526857,0.978642,0.528000,0.978000,0.531798,0.975151,0.536572,0.972287,0.537000,0.972000,0.541000,0.969000,0.541536,0.968536,0.545288,0.964784,0.549000,0.962000,0.550000,0.961000,0.552784,0.957288,
0.556536,0.953536,0.557000,0.953000,0.560000,0.949000,0.560287,0.948572,0.563151,0.943798,0.566000,0.940000,0.566642,0.938857,0.568564,0.934052,0.570472,0.930236,0.570642,0.929857,0.576642,0.914857,0.576903,0.913981,0.578903,0.903981,0.579000,0.903000,0.579000,0.897496,0.579903,0.892981,0.580000,0.892000,0.580000,-0.943000,0.579903,-0.943981,0.579000,-0.948496,
0.579000,-0.954000,0.578903,-0.954981,0.576903,-0.964981,0.576642,-0.965857,0.570642,-0.980857,0.570472,-0.981236,0.568564,-0.985052,0.566642,-0.989857,0.566000,-0.991000,0.563151,-0.994798,0.560287,-0.999572,0.560000,-1.000000,0.557000,-1.004000,0.556536,-1.004536,0.552784,-1.008288,0.550000,-1.012000,0.549000,-1.013000,0.545288,-1.015784,0.541536,-1.019536,0.541000,-1.020000,
0.537000,-1.023000,0.536572,-1.023287,0.531798,-1.026151,0.528000,-1.029000,0.526857,-1.029642,0.522052,-1.031564,0.518236,-1.033472,0.517857,-1.033642,0.502857,-1.039642,0.501981,-1.039903,0.491981,-1.041903,0.491000,-1.042000,0.485496,-1.042000,0.480981,-1.042903,0.480000,-1.043000,-0.830000,-1.043000,-0.830981,-1.042903,-0.835496,-1.042000,-0.841000,-1.042000,-0.841981,-1.041903,
-0.851981,-1.039903,-0.852857,-1.039642,-0.867857,-1.033642,-0.868236,-1.033472,-0.872052,-1.031564,-0.876857,-1.029642,-0.878000,-1.029000,-0.881798,-1.026151,-0.886572,-1.023287,-0.887000,-1.023000,-0.891000,-1.020000,-0.891536,-1.019536,-0.895288,-1.015784,-0.899000,-1.013000,-0.900000,-1.012000,-0.902784,-1.008288,-0.906536,-1.004536,-0.907000,-1.004000,-0.910000,-1.000000,-0.910287,-0.999572,
-0.913151,-0.994798,-0.916000,-0.991000,-0.916642,-0.989857,-0.918564,-0.985052,-0.920472,-0.981236,-0.920642,-0.980857,-0.926642,-0.965857,-0.926903,-0.964981,-0.928903,-0.954981,-0.929000,-0.954000,-0.929000,-0.948496,-0.929903,-0.943981,-0.930000,-0.943000,-0.930000,0.892000,-0.929903,0.892981,-0.929000,0.897496,-0.929000,0.903000,-0.928903,0.903981,-0.926903,0.913981,-0.926642,0.914857,
-0.920642,0.929857,-0.920472,0.930236,-0.918564,0.934052,-0.916642,0.938857,-0.916000,0.940000,-0.913151,0.943798,-0.910287,0.948572,-0.910000,0.949000,-0.907000,0.953000,-0.906536,0.953536,-0.902784,0.957288,-0.900000,0.961000,-0.899000,0.962000,-0.895288,0.964784,-0.891536,0.968536,-0.891000,0.969000,-0.887000,0.972000,-0.886572,0.972287,-0.881798,0.975151,-0.878000,0.978000,
-0.876857,0.978642,-0.872052,0.980564,-0.868236,0.982472,-0.867857,0.982642,-0.852857,0.988642,-0.851981,0.988903,-0.841981,0.990903,-0.841000,0.991000,-0.835496,0.991000,-0.830981,0.991903,-0.830000,0.992000,0.480000,0.992000,0.480981,0.991903,0.480981,0.991903,$1*%
%AMFreePoly2*
4,1,153,0.830981,0.991903,0.835496,0.991000,0.841000,0.991000,0.841981,0.990903,0.851981,0.988903,0.852857,0.988642,0.867857,0.982642,0.868236,0.982472,0.872052,0.980564,0.876857,0.978642,0.878000,0.978000,0.881798,0.975151,0.886572,0.972287,0.887000,0.972000,0.891000,0.969000,0.891536,0.968536,0.895288,0.964784,0.899000,0.962000,0.900000,0.961000,0.902784,0.957288,
0.906536,0.953536,0.907000,0.953000,0.910000,0.949000,0.910287,0.948572,0.913151,0.943798,0.916000,0.940000,0.916642,0.938857,0.918564,0.934052,0.920472,0.930236,0.920642,0.929857,0.926642,0.914857,0.926903,0.913981,0.928903,0.903981,0.929000,0.903000,0.929000,0.897496,0.929903,0.892981,0.930000,0.892000,0.930000,-0.943000,0.929903,-0.943981,0.929000,-0.948496,
0.929000,-0.954000,0.928903,-0.954981,0.926903,-0.964981,0.926642,-0.965857,0.920642,-0.980857,0.920472,-0.981236,0.918564,-0.985052,0.916642,-0.989857,0.916000,-0.991000,0.913151,-0.994798,0.910287,-0.999572,0.910000,-1.000000,0.907000,-1.004000,0.906536,-1.004536,0.902784,-1.008288,0.900000,-1.012000,0.899000,-1.013000,0.895288,-1.015784,0.891536,-1.019536,0.891000,-1.020000,
0.887000,-1.023000,0.886572,-1.023287,0.881798,-1.026151,0.878000,-1.029000,0.876857,-1.029642,0.872052,-1.031564,0.868236,-1.033472,0.867857,-1.033642,0.852857,-1.039642,0.851981,-1.039903,0.841981,-1.041903,0.841000,-1.042000,0.835496,-1.042000,0.830981,-1.042903,0.830000,-1.043000,-0.480000,-1.043000,-0.480981,-1.042903,-0.485496,-1.042000,-0.491000,-1.042000,-0.491981,-1.041903,
-0.501981,-1.039903,-0.502857,-1.039642,-0.517857,-1.033642,-0.518236,-1.033472,-0.522052,-1.031564,-0.526857,-1.029642,-0.528000,-1.029000,-0.531798,-1.026151,-0.536572,-1.023287,-0.537000,-1.023000,-0.541000,-1.020000,-0.541536,-1.019536,-0.545288,-1.015784,-0.549000,-1.013000,-0.550000,-1.012000,-0.552784,-1.008288,-0.556536,-1.004536,-0.557000,-1.004000,-0.560000,-1.000000,-0.560287,-0.999572,
-0.563151,-0.994798,-0.566000,-0.991000,-0.566642,-0.989857,-0.568564,-0.985052,-0.570472,-0.981236,-0.570642,-0.980857,-0.576642,-0.965857,-0.576903,-0.964981,-0.578903,-0.954981,-0.579000,-0.954000,-0.579000,-0.948496,-0.579903,-0.943981,-0.580000,-0.943000,-0.580000,0.892000,-0.579903,0.892981,-0.579000,0.897496,-0.579000,0.903000,-0.578903,0.903981,-0.576903,0.913981,-0.576642,0.914857,
-0.570642,0.929857,-0.570472,0.930236,-0.568564,0.934052,-0.566642,0.938857,-0.566000,0.940000,-0.563151,0.943798,-0.560287,0.948572,-0.560000,0.949000,-0.557000,0.953000,-0.556536,0.953536,-0.552784,0.957288,-0.550000,0.961000,-0.549000,0.962000,-0.545288,0.964784,-0.541536,0.968536,-0.541000,0.969000,-0.537000,0.972000,-0.536572,0.972287,-0.531798,0.975151,-0.528000,0.978000,
-0.526857,0.978642,-0.522052,0.980564,-0.518236,0.982472,-0.517857,0.982642,-0.502857,0.988642,-0.501981,0.988903,-0.491981,0.990903,-0.491000,0.991000,-0.485496,0.991000,-0.480981,0.991903,-0.480000,0.992000,0.830000,0.992000,0.830981,0.991903,0.830981,0.991903,$1*%
%AMFreePoly3*
4,1,153,0.805981,0.429903,0.810496,0.429000,0.816000,0.429000,0.816981,0.428903,0.826981,0.426903,0.827857,0.426642,0.842857,0.420642,0.843236,0.420472,0.847052,0.418564,0.851857,0.416642,0.853000,0.416000,0.856798,0.413151,0.861572,0.410287,0.862000,0.410000,0.866000,0.407000,0.866536,0.406536,0.870288,0.402784,0.874000,0.400000,0.875000,0.399000,0.877784,0.395288,
0.881536,0.391536,0.882000,0.391000,0.885000,0.387000,0.885287,0.386572,0.888151,0.381798,0.891000,0.378000,0.891642,0.376857,0.893564,0.372052,0.895472,0.368236,0.895642,0.367857,0.901642,0.352857,0.901903,0.351981,0.903903,0.341981,0.904000,0.341000,0.904000,0.335496,0.904903,0.330981,0.905000,0.330000,0.905000,-0.330000,0.904903,-0.330981,0.904000,-0.335496,
0.904000,-0.341000,0.903903,-0.341981,0.901903,-0.351981,0.901642,-0.352857,0.895642,-0.367857,0.895472,-0.368236,0.893564,-0.372052,0.891642,-0.376857,0.891000,-0.378000,0.888151,-0.381798,0.885287,-0.386572,0.885000,-0.387000,0.882000,-0.391000,0.881536,-0.391536,0.877784,-0.395288,0.875000,-0.399000,0.874000,-0.400000,0.870288,-0.402784,0.866536,-0.406536,0.866000,-0.407000,
0.862000,-0.410000,0.861572,-0.410287,0.856798,-0.413151,0.853000,-0.416000,0.851857,-0.416642,0.847052,-0.418564,0.843236,-0.420472,0.842857,-0.420642,0.827857,-0.426642,0.826981,-0.426903,0.816981,-0.428903,0.816000,-0.429000,0.810496,-0.429000,0.805981,-0.429903,0.805000,-0.430000,-0.305000,-0.430000,-0.305981,-0.429903,-0.310496,-0.429000,-0.316000,-0.429000,-0.316981,-0.428903,
-0.326981,-0.426903,-0.327857,-0.426642,-0.342857,-0.420642,-0.343236,-0.420472,-0.347052,-0.418564,-0.351857,-0.416642,-0.353000,-0.416000,-0.356798,-0.413151,-0.361572,-0.410287,-0.362000,-0.410000,-0.366000,-0.407000,-0.366536,-0.406536,-0.370288,-0.402784,-0.374000,-0.400000,-0.375000,-0.399000,-0.377784,-0.395288,-0.381536,-0.391536,-0.382000,-0.391000,-0.385000,-0.387000,-0.385287,-0.386572,
-0.388151,-0.381798,-0.391000,-0.378000,-0.391642,-0.376857,-0.393564,-0.372052,-0.395472,-0.368236,-0.395642,-0.367857,-0.401642,-0.352857,-0.401903,-0.351981,-0.403903,-0.341981,-0.404000,-0.341000,-0.404000,-0.335496,-0.404903,-0.330981,-0.405000,-0.330000,-0.405000,0.330000,-0.404903,0.330981,-0.404000,0.335496,-0.404000,0.341000,-0.403903,0.341981,-0.401903,0.351981,-0.401642,0.352857,
-0.395642,0.367857,-0.395472,0.368236,-0.393564,0.372052,-0.391642,0.376857,-0.391000,0.378000,-0.388151,0.381798,-0.385287,0.386572,-0.385000,0.387000,-0.382000,0.391000,-0.381536,0.391536,-0.377784,0.395288,-0.375000,0.399000,-0.374000,0.400000,-0.370288,0.402784,-0.366536,0.406536,-0.366000,0.407000,-0.362000,0.410000,-0.361572,0.410287,-0.356798,0.413151,-0.353000,0.416000,
-0.351857,0.416642,-0.347052,0.418564,-0.343236,0.420472,-0.342857,0.420642,-0.327857,0.426642,-0.326981,0.426903,-0.316981,0.428903,-0.316000,0.429000,-0.310496,0.429000,-0.305981,0.429903,-0.305000,0.430000,0.805000,0.430000,0.805981,0.429903,0.805981,0.429903,$1*%
%AMFreePoly4*
4,1,222,1.006581,0.304743,1.008810,0.304000,1.010000,0.304000,1.011581,0.303743,1.013810,0.303000,1.015000,0.303000,1.016581,0.302743,1.019581,0.301743,1.020236,0.301472,1.021920,0.300630,1.024581,0.299743,1.026536,0.298536,1.027964,0.297108,1.029236,0.296472,1.030536,0.295536,1.031964,0.294108,1.033236,0.293472,1.034536,0.292536,1.042536,0.284536,1.043472,0.283236,
1.044108,0.281964,1.045536,0.280536,1.046472,0.279236,1.047108,0.277964,1.048536,0.276536,1.049743,0.274581,1.050630,0.271920,1.051472,0.270236,1.051743,0.269581,1.052743,0.266581,1.053000,0.265000,1.053000,0.263810,1.053743,0.261581,1.054000,0.260000,1.054000,0.258810,1.054743,0.256581,1.055000,0.255000,1.055000,0.095000,1.054743,0.093419,1.054000,0.091190,
1.054000,0.090000,1.053743,0.088419,1.053000,0.086190,1.053000,0.085000,1.052743,0.083419,1.051743,0.080419,1.051472,0.079764,1.050630,0.078080,1.049743,0.075419,1.048536,0.073464,1.047108,0.072036,1.046472,0.070764,1.045536,0.069464,1.044108,0.068036,1.043472,0.066764,1.042536,0.065464,1.034536,0.057464,1.033236,0.056528,1.031964,0.055892,1.030536,0.054464,
1.029236,0.053528,1.027964,0.052892,1.026536,0.051464,1.024581,0.050257,1.021920,0.049370,1.020236,0.048528,1.019581,0.048257,1.016581,0.047257,1.015000,0.047000,1.013810,0.047000,1.011581,0.046257,1.010000,0.046000,1.008810,0.046000,1.006581,0.045257,1.005000,0.045000,0.270496,0.045000,0.265981,0.044097,0.265000,0.044000,0.259496,0.044000,0.250428,0.042186,
0.236052,0.036436,0.232236,0.034528,0.231857,0.034358,0.227472,0.032604,0.224000,0.030000,0.223572,0.029713,0.218798,0.026849,0.215288,0.024216,0.211536,0.020464,0.211000,0.020000,0.207571,0.017428,0.205000,0.014000,0.204536,0.013464,0.200784,0.009712,0.198151,0.006201,0.195287,0.001428,0.195000,0.001000,0.192396,-0.002472,0.190642,-0.006857,0.190472,-0.007236,
0.188564,-0.011052,0.182813,-0.025428,0.181000,-0.034496,0.181000,-0.040000,0.180903,-0.040981,0.180000,-0.045496,0.180000,-0.255000,0.179743,-0.256581,0.179000,-0.258810,0.179000,-0.260000,0.178743,-0.261581,0.178000,-0.263810,0.178000,-0.265000,0.177743,-0.266581,0.176743,-0.269581,0.176472,-0.270236,0.175630,-0.271920,0.174743,-0.274581,0.173536,-0.276536,0.172108,-0.277964,
0.171472,-0.279236,0.170536,-0.280536,0.169108,-0.281964,0.168472,-0.283236,0.167536,-0.284536,0.159536,-0.292536,0.158236,-0.293472,0.156964,-0.294108,0.155536,-0.295536,0.154236,-0.296472,0.152964,-0.297108,0.151536,-0.298536,0.149581,-0.299743,0.146920,-0.300630,0.145236,-0.301472,0.144581,-0.301743,0.141581,-0.302743,0.140000,-0.303000,0.138810,-0.303000,0.136581,-0.303743,
0.135000,-0.304000,0.133810,-0.304000,0.131581,-0.304743,0.130000,-0.305000,-0.130000,-0.305000,-0.131581,-0.304743,-0.133810,-0.304000,-0.135000,-0.304000,-0.136581,-0.303743,-0.138810,-0.303000,-0.140000,-0.303000,-0.141581,-0.302743,-0.144581,-0.301743,-0.145236,-0.301472,-0.146920,-0.300630,-0.149581,-0.299743,-0.151536,-0.298536,-0.152964,-0.297108,-0.154236,-0.296472,-0.155536,-0.295536,
-0.156964,-0.294108,-0.158236,-0.293472,-0.159536,-0.292536,-0.167536,-0.284536,-0.168472,-0.283236,-0.169108,-0.281964,-0.170536,-0.280536,-0.171472,-0.279236,-0.172108,-0.277964,-0.173536,-0.276536,-0.174743,-0.274581,-0.175630,-0.271920,-0.176472,-0.270236,-0.176743,-0.269581,-0.177743,-0.266581,-0.178000,-0.265000,-0.178000,-0.263810,-0.178743,-0.261581,-0.179000,-0.260000,-0.179000,-0.258810,
-0.179743,-0.256581,-0.180000,-0.255000,-0.180000,0.255000,-0.179743,0.256581,-0.179000,0.258810,-0.179000,0.260000,-0.178743,0.261581,-0.178000,0.263810,-0.178000,0.265000,-0.177743,0.266581,-0.176743,0.269581,-0.176472,0.270236,-0.175630,0.271920,-0.174743,0.274581,-0.173536,0.276536,-0.172108,0.277964,-0.171472,0.279236,-0.170536,0.280536,-0.169108,0.281964,-0.168472,0.283236,
-0.167536,0.284536,-0.159536,0.292536,-0.158236,0.293472,-0.156964,0.294108,-0.155536,0.295536,-0.154236,0.296472,-0.152964,0.297108,-0.151536,0.298536,-0.149581,0.299743,-0.146920,0.300630,-0.145236,0.301472,-0.144581,0.301743,-0.141581,0.302743,-0.140000,0.303000,-0.138810,0.303000,-0.136581,0.303743,-0.135000,0.304000,-0.133810,0.304000,-0.131581,0.304743,-0.130000,0.305000,
1.005000,0.305000,1.006581,0.304743,1.006581,0.304743,$1*%
%AMFreePoly5*
4,1,222,0.131581,0.304743,0.133810,0.304000,0.135000,0.304000,0.136581,0.303743,0.138810,0.303000,0.140000,0.303000,0.141581,0.302743,0.144581,0.301743,0.145236,0.301472,0.146920,0.300630,0.149581,0.299743,0.151536,0.298536,0.152964,0.297108,0.154236,0.296472,0.155536,0.295536,0.156964,0.294108,0.158236,0.293472,0.159536,0.292536,0.167536,0.284536,0.168472,0.283236,
0.169108,0.281964,0.170536,0.280536,0.171472,0.279236,0.172108,0.277964,0.173536,0.276536,0.174743,0.274581,0.175630,0.271920,0.176472,0.270236,0.176743,0.269581,0.177743,0.266581,0.178000,0.265000,0.178000,0.263810,0.178743,0.261581,0.179000,0.260000,0.179000,0.258810,0.179743,0.256581,0.180000,0.255000,0.180000,-0.255000,0.179743,-0.256581,0.179000,-0.258810,
0.179000,-0.260000,0.178743,-0.261581,0.178000,-0.263810,0.178000,-0.265000,0.177743,-0.266581,0.176743,-0.269581,0.176472,-0.270236,0.175630,-0.271920,0.174743,-0.274581,0.173536,-0.276536,0.172108,-0.277964,0.171472,-0.279236,0.170536,-0.280536,0.169108,-0.281964,0.168472,-0.283236,0.167536,-0.284536,0.159536,-0.292536,0.158236,-0.293472,0.156964,-0.294108,0.155536,-0.295536,
0.154236,-0.296472,0.152964,-0.297108,0.151536,-0.298536,0.149581,-0.299743,0.146920,-0.300630,0.145236,-0.301472,0.144581,-0.301743,0.141581,-0.302743,0.140000,-0.303000,0.138810,-0.303000,0.136581,-0.303743,0.135000,-0.304000,0.133810,-0.304000,0.131581,-0.304743,0.130000,-0.305000,-0.130000,-0.305000,-0.131581,-0.304743,-0.133810,-0.304000,-0.135000,-0.304000,-0.136581,-0.303743,
-0.138810,-0.303000,-0.140000,-0.303000,-0.141581,-0.302743,-0.144581,-0.301743,-0.145236,-0.301472,-0.146920,-0.300630,-0.149581,-0.299743,-0.151536,-0.298536,-0.152964,-0.297108,-0.154236,-0.296472,-0.155536,-0.295536,-0.156964,-0.294108,-0.158236,-0.293472,-0.159536,-0.292536,-0.167536,-0.284536,-0.168472,-0.283236,-0.169108,-0.281964,-0.170536,-0.280536,-0.171472,-0.279236,-0.172108,-0.277964,
-0.173536,-0.276536,-0.174743,-0.274581,-0.175630,-0.271920,-0.176472,-0.270236,-0.176743,-0.269581,-0.177743,-0.266581,-0.178000,-0.265000,-0.178000,-0.263810,-0.178743,-0.261581,-0.179000,-0.260000,-0.179000,-0.258810,-0.179743,-0.256581,-0.180000,-0.255000,-0.180000,-0.045496,-0.180903,-0.040981,-0.181000,-0.040000,-0.181000,-0.034496,-0.182813,-0.025428,-0.188564,-0.011052,-0.190472,-0.007236,
-0.190642,-0.006857,-0.192396,-0.002472,-0.195000,0.001000,-0.195287,0.001428,-0.198151,0.006201,-0.200784,0.009712,-0.204536,0.013464,-0.205000,0.014000,-0.207571,0.017428,-0.211000,0.020000,-0.211536,0.020464,-0.215288,0.024216,-0.218798,0.026849,-0.223572,0.029713,-0.224000,0.030000,-0.227472,0.032604,-0.231857,0.034358,-0.232236,0.034528,-0.236052,0.036436,-0.250428,0.042186,
-0.259496,0.044000,-0.265000,0.044000,-0.265981,0.044097,-0.270496,0.045000,-1.005000,0.045000,-1.006581,0.045257,-1.008810,0.046000,-1.010000,0.046000,-1.011581,0.046257,-1.013810,0.047000,-1.015000,0.047000,-1.016581,0.047257,-1.019581,0.048257,-1.020236,0.048528,-1.021920,0.049370,-1.024581,0.050257,-1.026536,0.051464,-1.027964,0.052892,-1.029236,0.053528,-1.030536,0.054464,
-1.031964,0.055892,-1.033236,0.056528,-1.034536,0.057464,-1.042536,0.065464,-1.043472,0.066764,-1.044108,0.068036,-1.045536,0.069464,-1.046472,0.070764,-1.047108,0.072036,-1.048536,0.073464,-1.049743,0.075419,-1.050630,0.078080,-1.051472,0.079764,-1.051743,0.080419,-1.052743,0.083419,-1.053000,0.085000,-1.053000,0.086190,-1.053743,0.088419,-1.054000,0.090000,-1.054000,0.091190,
-1.054743,0.093419,-1.055000,0.095000,-1.055000,0.255000,-1.054743,0.256581,-1.054000,0.258810,-1.054000,0.260000,-1.053743,0.261581,-1.053000,0.263810,-1.053000,0.265000,-1.052743,0.266581,-1.051743,0.269581,-1.051472,0.270236,-1.050630,0.271920,-1.049743,0.274581,-1.048536,0.276536,-1.047108,0.277964,-1.046472,0.279236,-1.045536,0.280536,-1.044108,0.281964,-1.043472,0.283236,
-1.042536,0.284536,-1.034536,0.292536,-1.033236,0.293472,-1.031964,0.294108,-1.030536,0.295536,-1.029236,0.296472,-1.027964,0.297108,-1.026536,0.298536,-1.024581,0.299743,-1.021920,0.300630,-1.020236,0.301472,-1.019581,0.301743,-1.016581,0.302743,-1.015000,0.303000,-1.013810,0.303000,-1.011581,0.303743,-1.010000,0.304000,-1.008810,0.304000,-1.006581,0.304743,-1.005000,0.305000,
0.130000,0.305000,0.131581,0.304743,0.131581,0.304743,$1*%
G04 Aperture macros list end*
%TA.AperFunction,EtchedComponent*%
%ADD10C,0.000000*%
%TD*%
%TA.AperFunction,ComponentPad*%
%ADD11O,1.000000X2.100000*%
%TD*%
%TA.AperFunction,ComponentPad*%
%ADD12O,1.000000X1.800000*%
%TD*%
%TA.AperFunction,ComponentPad*%
%ADD13C,5.600000*%
%TD*%
%TA.AperFunction,SMDPad,CuDef*%
%ADD14RoundRect,0.237500X0.250000X0.237500X-0.250000X0.237500X-0.250000X-0.237500X0.250000X-0.237500X0*%
%TD*%
%TA.AperFunction,SMDPad,CuDef*%
%ADD15RoundRect,0.250000X0.450000X-0.350000X0.450000X0.350000X-0.450000X0.350000X-0.450000X-0.350000X0*%
%TD*%
%TA.AperFunction,SMDPad,CuDef*%
%ADD16RoundRect,0.237500X-0.237500X0.250000X-0.237500X-0.250000X0.237500X-0.250000X0.237500X0.250000X0*%
%TD*%
%TA.AperFunction,SMDPad,CuDef*%
%ADD17RoundRect,0.237500X0.237500X-0.300000X0.237500X0.300000X-0.237500X0.300000X-0.237500X-0.300000X0*%
%TD*%
%TA.AperFunction,SMDPad,CuDef*%
%ADD18RoundRect,0.250000X-0.650000X0.325000X-0.650000X-0.325000X0.650000X-0.325000X0.650000X0.325000X0*%
%TD*%
%TA.AperFunction,SMDPad,CuDef*%
%ADD19RoundRect,0.237500X-0.250000X-0.237500X0.250000X-0.237500X0.250000X0.237500X-0.250000X0.237500X0*%
%TD*%
%TA.AperFunction,SMDPad,CuDef*%
%ADD20RoundRect,0.150000X-0.587500X-0.150000X0.587500X-0.150000X0.587500X0.150000X-0.587500X0.150000X0*%
%TD*%
%TA.AperFunction,SMDPad,CuDef*%
%ADD21R,1.000000X1.500000*%
%TD*%
%TA.AperFunction,SMDPad,CuDef*%
%ADD22RoundRect,0.150000X0.587500X0.150000X-0.587500X0.150000X-0.587500X-0.150000X0.587500X-0.150000X0*%
%TD*%
%TA.AperFunction,SMDPad,CuDef*%
%ADD23RoundRect,0.237500X0.237500X-0.250000X0.237500X0.250000X-0.237500X0.250000X-0.237500X-0.250000X0*%
%TD*%
%TA.AperFunction,SMDPad,CuDef*%
%ADD24RoundRect,0.237500X0.300000X0.237500X-0.300000X0.237500X-0.300000X-0.237500X0.300000X-0.237500X0*%
%TD*%
%TA.AperFunction,SMDPad,CuDef*%
%ADD25RoundRect,0.050000X-0.350000X-0.075000X0.350000X-0.075000X0.350000X0.075000X-0.350000X0.075000X0*%
%TD*%
%TA.AperFunction,SMDPad,CuDef*%
%ADD26FreePoly0,0.000000*%
%TD*%
%TA.AperFunction,SMDPad,CuDef*%
%ADD27FreePoly1,0.000000*%
%TD*%
%TA.AperFunction,ComponentPad*%
%ADD28C,0.300000*%
%TD*%
%TA.AperFunction,SMDPad,CuDef*%
%ADD29FreePoly2,0.000000*%
%TD*%
%TA.AperFunction,SMDPad,CuDef*%
%ADD30FreePoly3,0.000000*%
%TD*%
%TA.AperFunction,SMDPad,CuDef*%
%ADD31FreePoly4,0.000000*%
%TD*%
%TA.AperFunction,SMDPad,CuDef*%
%ADD32RoundRect,0.049500X-0.100500X-0.225500X0.100500X-0.225500X0.100500X0.225500X-0.100500X0.225500X0*%
%TD*%
%TA.AperFunction,SMDPad,CuDef*%
%ADD33FreePoly5,0.000000*%
%TD*%
%TA.AperFunction,SMDPad,CuDef*%
%ADD34R,1.500000X1.000000*%
%TD*%
%TA.AperFunction,ComponentPad*%
%ADD35C,1.500000*%
%TD*%
%TA.AperFunction,ViaPad*%
%ADD36C,0.550000*%
%TD*%
%TA.AperFunction,Conductor*%
%ADD37C,0.200000*%
%TD*%
G04 APERTURE END LIST*
D10*
%TA.AperFunction,EtchedComponent*%
%TO.C,JP4*%
G36*
X148900000Y-80650000D02*
G01*
X148400000Y-80650000D01*
X148400000Y-80250000D01*
X148900000Y-80250000D01*
X148900000Y-80650000D01*
G37*
%TD.AperFunction*%
%TA.AperFunction,EtchedComponent*%
G36*
X148900000Y-81450000D02*
G01*
X148400000Y-81450000D01*
X148400000Y-81050000D01*
X148900000Y-81050000D01*
X148900000Y-81450000D01*
G37*
%TD.AperFunction*%
%TA.AperFunction,EtchedComponent*%
%TO.C,JP3*%
G36*
X149675000Y-105750000D02*
G01*
X149275000Y-105750000D01*
X149275000Y-105250000D01*
X149675000Y-105250000D01*
X149675000Y-105750000D01*
G37*
%TD.AperFunction*%
%TA.AperFunction,EtchedComponent*%
G36*
X150475000Y-105750000D02*
G01*
X150075000Y-105750000D01*
X150075000Y-105250000D01*
X150475000Y-105250000D01*
X150475000Y-105750000D01*
G37*
%TD.AperFunction*%
%TD*%
D11*
%TO.P,J6,SH1,SHIELD*%
%TO.N,PGND*%
X149350000Y-78140000D03*
%TO.P,J6,SH2,SHIELD*%
X140710000Y-78140000D03*
D12*
%TO.P,J6,SH3,SHIELD*%
X149350000Y-73960000D03*
%TO.P,J6,SH4,SHIELD*%
X140710000Y-73960000D03*
%TD*%
D13*
%TO.P,H1,1*%
%TO.N,N/C*%
X132450000Y-74450000D03*
%TD*%
%TO.P,H4,1*%
%TO.N,N/C*%
X132450000Y-104950000D03*
%TD*%
%TO.P,H2,1*%
%TO.N,N/C*%
X162950000Y-74450000D03*
%TD*%
%TO.P,H3,1*%
%TO.N,N/C*%
X162950000Y-104950000D03*
%TD*%
D14*
%TO.P,R11,1*%
%TO.N,Net-(PS1-FB)*%
X151050000Y-88625000D03*
%TO.P,R11,2*%
%TO.N,PGND*%
X149225000Y-88625000D03*
%TD*%
D15*
%TO.P,R15,1*%
%TO.N,/Project Architecture/USB_CC2*%
X144050000Y-74572500D03*
%TO.P,R15,2*%
%TO.N,PGND*%
X144050000Y-72572500D03*
%TD*%
D14*
%TO.P,R7,1*%
%TO.N,/Project Architecture/I2C1_SCL*%
X164150000Y-81950000D03*
%TO.P,R7,2*%
%TO.N,+3V3*%
X162325000Y-81950000D03*
%TD*%
D16*
%TO.P,R2,1*%
%TO.N,AGND*%
X133525000Y-89637500D03*
%TO.P,R2,2*%
%TO.N,/Project Architecture/ANA_ADC_VBAT*%
X133525000Y-91462500D03*
%TD*%
D17*
%TO.P,C2,1*%
%TO.N,+3.3V*%
X146175000Y-82062500D03*
%TO.P,C2,2*%
%TO.N,DGND*%
X146175000Y-80337500D03*
%TD*%
D18*
%TO.P,C21,1*%
%TO.N,+9V*%
X145850000Y-83950000D03*
%TO.P,C21,2*%
%TO.N,PGND*%
X145850000Y-86900000D03*
%TD*%
D19*
%TO.P,R6,1*%
%TO.N,+9V*%
X149225000Y-90225000D03*
%TO.P,R6,2*%
%TO.N,Net-(PS1-FB)*%
X151050000Y-90225000D03*
%TD*%
D20*
%TO.P,Q2,1,B*%
%TO.N,Net-(Q2-B)*%
X131900000Y-84350000D03*
%TO.P,Q2,2,E*%
%TO.N,DGND*%
X131900000Y-82450000D03*
%TO.P,Q2,3,C*%
%TO.N,/Project Architecture/UART2_RX*%
X133775000Y-83400000D03*
%TD*%
D21*
%TO.P,JP4,1,A*%
%TO.N,PGND*%
X149300000Y-80850000D03*
%TO.P,JP4,2,B*%
%TO.N,DGND*%
X148000000Y-80850000D03*
%TD*%
D22*
%TO.P,U3,1,GND*%
%TO.N,DGND*%
X144350000Y-80250000D03*
%TO.P,U3,2,VO*%
%TO.N,+3.3V*%
X144350000Y-82150000D03*
%TO.P,U3,3,VI*%
%TO.N,Net-(D1-K)*%
X142475000Y-81200000D03*
%TD*%
D23*
%TO.P,R5,1*%
%TO.N,Net-(PS1-MODE)*%
X152850000Y-91837500D03*
%TO.P,R5,2*%
%TO.N,PGND*%
X152850000Y-90012500D03*
%TD*%
D19*
%TO.P,R3,1*%
%TO.N,+3.3V*%
X131687500Y-80850000D03*
%TO.P,R3,2*%
%TO.N,/Project Architecture/UART2_RX*%
X133512500Y-80850000D03*
%TD*%
D14*
%TO.P,R8,1*%
%TO.N,/Project Architecture/Microcontroller/DFU_Enable*%
X155962500Y-72250000D03*
%TO.P,R8,2*%
%TO.N,DGND*%
X154137500Y-72250000D03*
%TD*%
D18*
%TO.P,C23,1*%
%TO.N,+9V*%
X150705000Y-83950000D03*
%TO.P,C23,2*%
%TO.N,PGND*%
X150705000Y-86900000D03*
%TD*%
D17*
%TO.P,C1,1*%
%TO.N,Net-(D1-K)*%
X140675000Y-82062500D03*
%TO.P,C1,2*%
%TO.N,PGND*%
X140675000Y-80337500D03*
%TD*%
D15*
%TO.P,R9,1*%
%TO.N,/Project Architecture/USB_CC1*%
X146050000Y-74572500D03*
%TO.P,R9,2*%
%TO.N,PGND*%
X146050000Y-72572500D03*
%TD*%
D24*
%TO.P,C18,1*%
%TO.N,+VBAT*%
X156412500Y-91625000D03*
%TO.P,C18,2*%
%TO.N,PGND*%
X154687500Y-91625000D03*
%TD*%
D18*
%TO.P,C20,1*%
%TO.N,+9V*%
X143450000Y-83950000D03*
%TO.P,C20,2*%
%TO.N,PGND*%
X143450000Y-86900000D03*
%TD*%
D24*
%TO.P,C11,1*%
%TO.N,+VBAT*%
X156412500Y-90025000D03*
%TO.P,C11,2*%
%TO.N,PGND*%
X154687500Y-90025000D03*
%TD*%
D14*
%TO.P,R4,1*%
%TO.N,Net-(Q2-B)*%
X133512500Y-85950000D03*
%TO.P,R4,2*%
%TO.N,/Project Architecture/SBUS_TX*%
X131687500Y-85950000D03*
%TD*%
D16*
%TO.P,R1,1*%
%TO.N,/Project Architecture/ANA_ADC_VBAT*%
X131925000Y-91425000D03*
%TO.P,R1,2*%
%TO.N,+VBAT*%
X131925000Y-93250000D03*
%TD*%
D18*
%TO.P,C22,1*%
%TO.N,+9V*%
X148250000Y-83950000D03*
%TO.P,C22,2*%
%TO.N,PGND*%
X148250000Y-86900000D03*
%TD*%
D25*
%TO.P,PS1,1,EN*%
%TO.N,unconnected-(PS1-EN-Pad1)*%
X152700000Y-87925000D03*
%TO.P,PS1,2,FB*%
%TO.N,Net-(PS1-FB)*%
X152700000Y-87425000D03*
D26*
%TO.P,PS1,3,GND*%
%TO.N,PGND*%
X152700000Y-86913000D03*
D27*
%TO.P,PS1,4,VOUT*%
%TO.N,+9V*%
X153175000Y-85337000D03*
D28*
%TO.P,PS1,4_1*%
%TO.N,N/C*%
X152850000Y-86125000D03*
%TO.P,PS1,4_2*%
X152850000Y-85337000D03*
%TO.P,PS1,4_3*%
X152850000Y-84550000D03*
%TO.P,PS1,4_4*%
X153500000Y-86125000D03*
%TO.P,PS1,4_5*%
X153500000Y-85337000D03*
%TO.P,PS1,4_6*%
X153500000Y-84550000D03*
D29*
%TO.P,PS1,5,SW*%
%TO.N,unconnected-(PS1-SW-Pad5)*%
X155125000Y-85337000D03*
D28*
%TO.P,PS1,5_1*%
%TO.N,N/C*%
X155450000Y-86125000D03*
%TO.P,PS1,5_2*%
X155450000Y-85337000D03*
%TO.P,PS1,5_3*%
X155450000Y-84550000D03*
%TO.P,PS1,5_4*%
X154800000Y-86125000D03*
%TO.P,PS1,5_5*%
X154800000Y-85337000D03*
%TO.P,PS1,5_6*%
X154800000Y-84550000D03*
D30*
%TO.P,PS1,6,VIN*%
%TO.N,+VBAT*%
X155150000Y-87675000D03*
D31*
%TO.P,PS1,7,MODE*%
%TO.N,Net-(PS1-MODE)*%
X154950000Y-88600000D03*
D32*
%TO.P,PS1,8,SS/PG*%
%TO.N,unconnected-(PS1-SS{slash}PG-Pad8)*%
X153925000Y-88625000D03*
D33*
%TO.P,PS1,9,RT/SYNC*%
%TO.N,PGND*%
X153350000Y-88600000D03*
%TD*%
D18*
%TO.P,C19,1*%
%TO.N,+9V*%
X141050000Y-83950000D03*
%TO.P,C19,2*%
%TO.N,PGND*%
X141050000Y-86900000D03*
%TD*%
D14*
%TO.P,R10,1*%
%TO.N,/Project Architecture/I2C1_SDA*%
X164150000Y-80350000D03*
%TO.P,R10,2*%
%TO.N,+3V3*%
X162325000Y-80350000D03*
%TD*%
D34*
%TO.P,JP3,1,A*%
%TO.N,DGND*%
X149875000Y-104850000D03*
%TO.P,JP3,2,B*%
%TO.N,AGND*%
X149875000Y-106150000D03*
%TD*%
D35*
%TO.P,Y1,1,1*%
%TO.N,/Project Architecture/Microcontroller/CLK_OUT*%
X144425000Y-104600000D03*
%TO.P,Y1,2,2*%
%TO.N,+3V3*%
X139545000Y-104600000D03*
%TD*%
D36*
%TO.N,Net-(D1-K)*%
X139250000Y-78650000D03*
X139250000Y-79550000D03*
X139250000Y-77750000D03*
%TO.N,DGND*%
X162050000Y-83950000D03*
X138200000Y-99475000D03*
X164625000Y-86150000D03*
X143675000Y-106400000D03*
X138900000Y-102800000D03*
X152950000Y-72250000D03*
X161000000Y-93875000D03*
X156100000Y-99562500D03*
X163150000Y-79250000D03*
X130500000Y-82450000D03*
%TO.N,+3.3V*%
X130500000Y-80850000D03*
%TO.N,+3V3*%
X162900000Y-95600000D03*
X165350000Y-82950000D03*
X155400000Y-98737500D03*
X151550000Y-75050000D03*
%TO.N,AGND*%
X147812500Y-107000000D03*
%TO.N,+VBAT*%
X133100000Y-93250000D03*
%TO.N,+9V*%
X139250000Y-83550000D03*
X152250000Y-83525000D03*
X139250000Y-84350000D03*
X139250000Y-85250000D03*
X148050000Y-88625000D03*
%TO.N,/Project Architecture/SBUS_TX*%
X130500000Y-85950000D03*
%TO.N,/Project Architecture/UART4_RX*%
X149900000Y-101000000D03*
%TO.N,/Project Architecture/UART4_TX*%
X148900000Y-101000000D03*
X137400000Y-87100000D03*
X137400000Y-89100000D03*
%TO.N,/Project Architecture/UART5_TX*%
X142300000Y-94400000D03*
X162050000Y-84950000D03*
%TO.N,/Project Architecture/UART5_RX*%
X142300000Y-95900000D03*
X162050000Y-85950000D03*
%TO.N,/Project Architecture/I2C1_SDA*%
X142300000Y-99400000D03*
X165350000Y-80950000D03*
%TO.N,/Project Architecture/I2C1_SCL*%
X139700000Y-98500000D03*
X165350000Y-81950000D03*
%TO.N,/Project Architecture/UART1_RX*%
X135900000Y-99300000D03*
X145400000Y-92400000D03*
%TO.N,/Project Architecture/ANA_ADC_CURR*%
X133300000Y-98250000D03*
X147400000Y-101000000D03*
%TO.N,/Project Architecture/ESC_SIG_M4*%
X133300000Y-95500000D03*
X147400000Y-89600000D03*
%TO.N,/Project Architecture/ESC_SIG_M1*%
X146400000Y-89600000D03*
X133200000Y-94250000D03*
%TO.N,/Project Architecture/ESC_SIG_M2*%
X146900000Y-92400000D03*
X135800000Y-95250000D03*
%TO.N,/Project Architecture/ESC_SIG_M3*%
X148900000Y-92400000D03*
X133200000Y-97250000D03*
%TO.N,/Project Architecture/USB_+DATA*%
X144205000Y-81200000D03*
X145355000Y-81200000D03*
%TO.N,/Project Architecture/USB_CC1*%
X146013288Y-77586712D03*
%TO.N,/Project Architecture/USB_CC2*%
X143750000Y-77550000D03*
%TO.N,Net-(PS1-MODE)*%
X155550000Y-89200000D03*
X151850000Y-91837500D03*
%TO.N,/Project Architecture/UART2_RX*%
X152700000Y-101200000D03*
X139000000Y-87200000D03*
X150000000Y-98500000D03*
%TO.N,/Project Architecture/ANA_ADC_VBAT*%
X145900000Y-101000000D03*
%TO.N,/Project Architecture/Microcontroller/DFU_Enable*%
X155050000Y-75050000D03*
X158550000Y-75050000D03*
X142300000Y-98400000D03*
%TO.N,/Project Architecture/SPI1_SDO*%
X156800000Y-97475000D03*
X162400000Y-100200000D03*
%TO.N,/Project Architecture/SPI1_SDI*%
X161027500Y-94800000D03*
X155400000Y-97975000D03*
%TO.N,/Project Architecture/Microcontroller/LED1*%
X139600000Y-92900000D03*
%TO.N,/Project Architecture/Microcontroller/LED0*%
X143900000Y-92399000D03*
%TD*%
D37*
%TO.N,Net-(D1-K)*%
X140675000Y-82062500D02*
X141612500Y-82062500D01*
X141612500Y-82062500D02*
X142475000Y-81200000D01*
%TO.N,PGND*%
X153350000Y-88600000D02*
X153350000Y-89512500D01*
X152700000Y-86913000D02*
X150718000Y-86913000D01*
X154687500Y-90025000D02*
X154687500Y-91625000D01*
X149225000Y-88625000D02*
X149225000Y-88380000D01*
X142097500Y-72572500D02*
X140710000Y-73960000D01*
X146050000Y-72572500D02*
X147962500Y-72572500D01*
X153350000Y-89512500D02*
X152850000Y-90012500D01*
X154460000Y-90025000D02*
X154687500Y-90025000D01*
X150718000Y-86913000D02*
X150705000Y-86900000D01*
X147962500Y-72572500D02*
X149350000Y-73960000D01*
X153350000Y-88915000D02*
X154460000Y-90025000D01*
X144050000Y-72572500D02*
X142097500Y-72572500D01*
X144050000Y-72572500D02*
X146050000Y-72572500D01*
X150705000Y-86900000D02*
X141050000Y-86900000D01*
X140710000Y-73960000D02*
X140710000Y-78140000D01*
X153350000Y-88600000D02*
X153350000Y-88915000D01*
X149225000Y-88380000D02*
X150705000Y-86900000D01*
X149350000Y-73960000D02*
X149350000Y-78140000D01*
%TO.N,DGND*%
X144350000Y-80250000D02*
X146087500Y-80250000D01*
X146087500Y-80250000D02*
X146175000Y-80337500D01*
X154137500Y-72250000D02*
X152950000Y-72250000D01*
X130500000Y-82450000D02*
X131900000Y-82450000D01*
%TO.N,+3.3V*%
X131687500Y-80850000D02*
X130500000Y-80850000D01*
X146087500Y-82150000D02*
X146175000Y-82062500D01*
X144350000Y-82150000D02*
X146087500Y-82150000D01*
%TO.N,+3V3*%
X165350000Y-82950000D02*
X165274000Y-83026000D01*
X162325000Y-82250000D02*
X162325000Y-80650000D01*
X163101000Y-83026000D02*
X162325000Y-82250000D01*
X165274000Y-83026000D02*
X163101000Y-83026000D01*
%TO.N,AGND*%
X130100000Y-91798591D02*
X130100000Y-97200000D01*
X130100000Y-97200000D02*
X139900000Y-107000000D01*
X147812500Y-107000000D02*
X148662500Y-106150000D01*
X148662500Y-106150000D02*
X149875000Y-106150000D01*
X139900000Y-107000000D02*
X147812500Y-107000000D01*
X133525000Y-89637500D02*
X132261091Y-89637500D01*
X132261091Y-89637500D02*
X130100000Y-91798591D01*
%TO.N,+VBAT*%
X155791892Y-87675000D02*
X156412500Y-88295608D01*
X133100000Y-93250000D02*
X131925000Y-93250000D01*
X156412500Y-88295608D02*
X156412500Y-90025000D01*
X155150000Y-87675000D02*
X155791892Y-87675000D01*
X156412500Y-90025000D02*
X156412500Y-91625000D01*
%TO.N,+9V*%
X148050000Y-89050000D02*
X148050000Y-88625000D01*
X150705000Y-83950000D02*
X152486000Y-85731000D01*
X149225000Y-90225000D02*
X148050000Y-89050000D01*
X147925000Y-83750000D02*
X146805000Y-83750000D01*
X152250000Y-83525000D02*
X151130000Y-83525000D01*
X151130000Y-83525000D02*
X150705000Y-83950000D01*
X147780000Y-84725000D02*
X147787053Y-84725000D01*
X150705000Y-83950000D02*
X141050000Y-83950000D01*
X152486000Y-85731000D02*
X152493053Y-85731000D01*
%TO.N,/Project Architecture/SBUS_TX*%
X131687500Y-85950000D02*
X130500000Y-85950000D01*
%TO.N,/Project Architecture/UART4_TX*%
X137400000Y-89100000D02*
X137400000Y-87100000D01*
%TO.N,/Project Architecture/I2C1_SDA*%
X164750000Y-80350000D02*
X164450000Y-80350000D01*
X165350000Y-80950000D02*
X164750000Y-80350000D01*
%TO.N,/Project Architecture/I2C1_SCL*%
X164450000Y-81950000D02*
X164150000Y-82250000D01*
X165350000Y-81950000D02*
X164450000Y-81950000D01*
%TO.N,/Project Architecture/UART1_RX*%
X135900000Y-99300000D02*
X141500000Y-93700000D01*
X141500000Y-93700000D02*
X144100000Y-93700000D01*
X144100000Y-93700000D02*
X145400000Y-92400000D01*
%TO.N,/Project Architecture/ANA_ADC_CURR*%
X133300000Y-98250000D02*
X135101000Y-100051000D01*
X146451000Y-100051000D02*
X147400000Y-101000000D01*
X135101000Y-100051000D02*
X146451000Y-100051000D01*
%TO.N,/Project Architecture/ESC_SIG_M4*%
X146600000Y-90400000D02*
X147400000Y-89600000D01*
X133300000Y-95500000D02*
X138400000Y-90400000D01*
X138400000Y-90400000D02*
X146600000Y-90400000D01*
%TO.N,/Project Architecture/ESC_SIG_M1*%
X133200000Y-94250000D02*
X137850000Y-89600000D01*
X137850000Y-89600000D02*
X146400000Y-89600000D01*
%TO.N,/Project Architecture/ESC_SIG_M2*%
X135800000Y-95250000D02*
X135800000Y-95200000D01*
X139176000Y-91824000D02*
X146324000Y-91824000D01*
X135800000Y-95200000D02*
X139176000Y-91824000D01*
X146324000Y-91824000D02*
X146900000Y-92400000D01*
%TO.N,/Project Architecture/ESC_SIG_M3*%
X133200000Y-96600000D02*
X138700000Y-91100000D01*
X133200000Y-97250000D02*
X133200000Y-96600000D01*
X138700000Y-91100000D02*
X147600000Y-91100000D01*
X147600000Y-91100000D02*
X148900000Y-92400000D01*
%TO.N,/Project Architecture/USB_+DATA*%
X145355000Y-81200000D02*
X144205000Y-81200000D01*
%TO.N,/Project Architecture/USB_CC1*%
X146050000Y-77550000D02*
X146050000Y-74572500D01*
X146013288Y-77586712D02*
X146050000Y-77550000D01*
X146280000Y-74502500D02*
X146250000Y-74472500D01*
%TO.N,/Project Architecture/USB_CC2*%
X143750000Y-77550000D02*
X144050000Y-77250000D01*
X144050000Y-77250000D02*
X144050000Y-74572500D01*
%TO.N,Net-(PS1-MODE)*%
X152850000Y-91837500D02*
X151850000Y-91837500D01*
X154950000Y-88600000D02*
X155550000Y-89200000D01*
%TO.N,Net-(PS1-FB)*%
X152250000Y-87425000D02*
X151150000Y-88525000D01*
X152700000Y-87425000D02*
X152250000Y-87425000D01*
X151050000Y-88625000D02*
X151050000Y-90225000D01*
%TO.N,/Project Architecture/UART2_RX*%
X152700000Y-101200000D02*
X150000000Y-98500000D01*
X133775000Y-83400000D02*
X133775000Y-81112500D01*
X133775000Y-81112500D02*
X133512500Y-80850000D01*
X135200000Y-83400000D02*
X133775000Y-83400000D01*
X139000000Y-87200000D02*
X135200000Y-83400000D01*
%TO.N,Net-(Q2-B)*%
X133500000Y-85950000D02*
X133512500Y-85950000D01*
X131900000Y-84350000D02*
X133500000Y-85950000D01*
%TO.N,/Project Architecture/ANA_ADC_VBAT*%
X134900000Y-101000000D02*
X145900000Y-101000000D01*
X130700000Y-92650000D02*
X130700000Y-96800000D01*
X130700000Y-96800000D02*
X134900000Y-101000000D01*
X131925000Y-91425000D02*
X130700000Y-92650000D01*
X131962500Y-91462500D02*
X131925000Y-91425000D01*
X133525000Y-91462500D02*
X131962500Y-91462500D01*
%TO.N,/Project Architecture/Microcontroller/DFU_Enable*%
X155050000Y-75050000D02*
X155050000Y-73162500D01*
X155050000Y-73162500D02*
X155962500Y-72250000D01*
%TO.N,/Project Architecture/SPI1_SDO*%
X162400000Y-100200000D02*
X159525000Y-100200000D01*
X159525000Y-100200000D02*
X156800000Y-97475000D01*
%TO.N,/Project Architecture/SPI1_SDI*%
X155425000Y-97975000D02*
X158600000Y-94800000D01*
X158600000Y-94800000D02*
X161027500Y-94800000D01*
X155400000Y-97975000D02*
X155425000Y-97975000D01*
%TD*%
M02*
