%TF.GenerationSoftware,KiCad,Pcbnew,9.0.1+1*%
%TF.CreationDate,Date%
%TF.ProjectId,FCU3,46435533-2e6b-4696-9361-645f70636258,+ (Unreleased)*%
%TF.SameCoordinates,Original*%
%TF.FileFunction,Paste,Top*%
%TF.FilePolarity,Positive*%
%FSLAX46Y46*%
G04 Gerber Fmt 4.6, Leading zero omitted, Abs format (unit mm)*
G04 Created by KiCad*
%MOMM*%
%LPD*%
G01*
G04 APERTURE LIST*
G04 Aperture macros list*
%AMRoundRect*
0 Rectangle with rounded corners*
0 $1 Rounding radius*
0 $2 $3 $4 $5 $6 $7 $8 $9 X,Y pos of 4 corners*
0 Add a 4 corners polygon primitive as box body*
4,1,4,$2,$3,$4,$5,$6,$7,$8,$9,$2,$3,0*
0 Add four circle primitives for the rounded corners*
1,1,$1+$1,$2,$3*
1,1,$1+$1,$4,$5*
1,1,$1+$1,$6,$7*
1,1,$1+$1,$8,$9*
0 Add four rect primitives between the rounded corners*
20,1,$1+$1,$2,$3,$4,$5,0*
20,1,$1+$1,$4,$5,$6,$7,0*
20,1,$1+$1,$6,$7,$8,$9,0*
20,1,$1+$1,$8,$9,$2,$3,0*%
G04 Aperture macros list end*
%ADD10C,0.010000*%
%ADD11RoundRect,0.237500X-0.300000X-0.237500X0.300000X-0.237500X0.300000X0.237500X-0.300000X0.237500X0*%
%ADD12R,0.600000X1.150000*%
%ADD13R,0.300000X1.150000*%
%ADD14RoundRect,0.250000X0.650000X-1.000000X0.650000X1.000000X-0.650000X1.000000X-0.650000X-1.000000X0*%
%ADD15RoundRect,0.237500X0.237500X-0.300000X0.237500X0.300000X-0.237500X0.300000X-0.237500X-0.300000X0*%
%ADD16RoundRect,0.250000X-0.650000X1.000000X-0.650000X-1.000000X0.650000X-1.000000X0.650000X1.000000X0*%
%ADD17R,0.900000X1.200000*%
%ADD18RoundRect,0.237500X-0.237500X0.300000X-0.237500X-0.300000X0.237500X-0.300000X0.237500X0.300000X0*%
%ADD19RoundRect,0.237500X0.300000X0.237500X-0.300000X0.237500X-0.300000X-0.237500X0.300000X-0.237500X0*%
%ADD20R,1.550000X0.600000*%
%ADD21R,1.800000X1.200000*%
%ADD22RoundRect,0.027500X0.292500X0.082500X-0.292500X0.082500X-0.292500X-0.082500X0.292500X-0.082500X0*%
%ADD23RoundRect,0.027500X0.082500X0.292500X-0.082500X0.292500X-0.082500X-0.292500X0.082500X-0.292500X0*%
%ADD24RoundRect,0.075000X0.075000X-0.700000X0.075000X0.700000X-0.075000X0.700000X-0.075000X-0.700000X0*%
%ADD25RoundRect,0.075000X0.700000X-0.075000X0.700000X0.075000X-0.700000X0.075000X-0.700000X-0.075000X0*%
G04 APERTURE END LIST*
D10*
%TO.C,S1*%
X152350000Y-73250000D02*
X151650000Y-73250000D01*
X151650000Y-73950000D01*
X150850000Y-73950000D01*
X150850000Y-72450000D01*
X152350000Y-72450000D01*
X152350000Y-73250000D01*
G36*
X152350000Y-73250000D02*
G01*
X151650000Y-73250000D01*
X151650000Y-73950000D01*
X150850000Y-73950000D01*
X150850000Y-72450000D01*
X152350000Y-72450000D01*
X152350000Y-73250000D01*
G37*
X159250000Y-73950000D02*
X158450000Y-73950000D01*
X158450000Y-73250000D01*
X157750000Y-73250000D01*
X157750000Y-72450000D01*
X159250000Y-72450000D01*
X159250000Y-73950000D01*
G36*
X159250000Y-73950000D02*
G01*
X158450000Y-73950000D01*
X158450000Y-73250000D01*
X157750000Y-73250000D01*
X157750000Y-72450000D01*
X159250000Y-72450000D01*
X159250000Y-73950000D01*
G37*
%TO.C,U1*%
X161312500Y-99190000D02*
X160342500Y-99190000D01*
X160342500Y-98110000D01*
X161312500Y-98110000D01*
X161312500Y-99190000D01*
G36*
X161312500Y-99190000D02*
G01*
X160342500Y-99190000D01*
X160342500Y-98110000D01*
X161312500Y-98110000D01*
X161312500Y-99190000D01*
G37*
%TD*%
D11*
%TO.C,C4*%
X153125000Y-91600000D03*
X154850000Y-91600000D03*
%TD*%
D12*
%TO.C,J6*%
X148230000Y-78705000D03*
X147430000Y-78705000D03*
D13*
X146280000Y-78705000D03*
X145280000Y-78705000D03*
X144780000Y-78705000D03*
X143780000Y-78705000D03*
D12*
X141830000Y-78705000D03*
X142630000Y-78705000D03*
D13*
X143280000Y-78705000D03*
X144280000Y-78705000D03*
X145780000Y-78705000D03*
X146780000Y-78705000D03*
%TD*%
D14*
%TO.C,D2*%
X137650000Y-77050000D03*
X137650000Y-73050000D03*
%TD*%
D15*
%TO.C,C17*%
X160177500Y-95600000D03*
X160177500Y-93875000D03*
%TD*%
D16*
%TO.C,D1*%
X137650000Y-80350000D03*
X137650000Y-84350000D03*
%TD*%
D17*
%TO.C,S1*%
X157150000Y-75050000D03*
X152950000Y-75050000D03*
%TD*%
D18*
%TO.C,C16*%
X146175000Y-104237500D03*
X146175000Y-105962500D03*
%TD*%
D19*
%TO.C,C8*%
X143337500Y-88900000D03*
X141612500Y-88900000D03*
%TD*%
D20*
%TO.C,J1*%
X134500000Y-80950000D03*
X134500000Y-81950000D03*
X134500000Y-82950000D03*
X134500000Y-83950000D03*
X134500000Y-84950000D03*
X134500000Y-85950000D03*
D21*
X130625000Y-79650000D03*
X130625000Y-87250000D03*
%TD*%
D18*
%TO.C,C14*%
X157877500Y-97837500D03*
X157877500Y-99562500D03*
%TD*%
D20*
%TO.C,J2*%
X160750000Y-85950000D03*
X160750000Y-84950000D03*
X160750000Y-83950000D03*
X160750000Y-82950000D03*
X160750000Y-81950000D03*
X160750000Y-80950000D03*
D21*
X164625000Y-87250000D03*
X164625000Y-79650000D03*
%TD*%
D18*
%TO.C,C9*%
X154175000Y-93437500D03*
X154175000Y-95162500D03*
%TD*%
D19*
%TO.C,C6*%
X149537500Y-105800000D03*
X147812500Y-105800000D03*
%TD*%
%TO.C,C7*%
X149537500Y-104200000D03*
X147812500Y-104200000D03*
%TD*%
D18*
%TO.C,C15*%
X141275000Y-104437500D03*
X141275000Y-106162500D03*
%TD*%
D19*
%TO.C,C5*%
X141537500Y-90500000D03*
X139812500Y-90500000D03*
%TD*%
D18*
%TO.C,C3*%
X154175000Y-98737500D03*
X154175000Y-100462500D03*
%TD*%
D20*
%TO.C,J4*%
X134550000Y-92250000D03*
X134550000Y-93250000D03*
X134550000Y-94250000D03*
X134550000Y-95250000D03*
X134550000Y-96250000D03*
X134550000Y-97250000D03*
X134550000Y-98250000D03*
X134550000Y-99250000D03*
D21*
X130675000Y-90950000D03*
X130675000Y-100550000D03*
%TD*%
D19*
%TO.C,C10*%
X141537500Y-102800000D03*
X139812500Y-102800000D03*
%TD*%
D22*
%TO.C,U1*%
X162372500Y-99650000D03*
X162372500Y-99250000D03*
X162372500Y-98850000D03*
X162372500Y-98450000D03*
X162372500Y-98050000D03*
X162372500Y-97650000D03*
D23*
X161827500Y-97105000D03*
X161427500Y-97105000D03*
X161027500Y-97105000D03*
X160627500Y-97105000D03*
X160227500Y-97105000D03*
X159827500Y-97105000D03*
D22*
X159282500Y-97650000D03*
X159282500Y-98050000D03*
X159282500Y-98450000D03*
X159282500Y-98850000D03*
X159282500Y-99250000D03*
X159282500Y-99650000D03*
D23*
X159827500Y-100195000D03*
X160227500Y-100195000D03*
X160627500Y-100195000D03*
X161027500Y-100195000D03*
X161427500Y-100195000D03*
X161827500Y-100195000D03*
%TD*%
D15*
%TO.C,C12*%
X139075000Y-101200000D03*
X139075000Y-99475000D03*
%TD*%
%TO.C,C13*%
X161877500Y-95600000D03*
X161877500Y-93875000D03*
%TD*%
D24*
%TO.C,U5*%
X142900000Y-102325000D03*
X143400000Y-102325000D03*
X143900000Y-102325000D03*
X144400000Y-102325000D03*
X144900000Y-102325000D03*
X145400000Y-102325000D03*
X145900000Y-102325000D03*
X146400000Y-102325000D03*
X146900000Y-102325000D03*
X147400000Y-102325000D03*
X147900000Y-102325000D03*
X148400000Y-102325000D03*
X148900000Y-102325000D03*
X149400000Y-102325000D03*
X149900000Y-102325000D03*
X150400000Y-102325000D03*
D25*
X152325000Y-100400000D03*
X152325000Y-99900000D03*
X152325000Y-99400000D03*
X152325000Y-98900000D03*
X152325000Y-98400000D03*
X152325000Y-97900000D03*
X152325000Y-97400000D03*
X152325000Y-96900000D03*
X152325000Y-96400000D03*
X152325000Y-95900000D03*
X152325000Y-95400000D03*
X152325000Y-94900000D03*
X152325000Y-94400000D03*
X152325000Y-93900000D03*
X152325000Y-93400000D03*
X152325000Y-92900000D03*
D24*
X150400000Y-90975000D03*
X149900000Y-90975000D03*
X149400000Y-90975000D03*
X148900000Y-90975000D03*
X148400000Y-90975000D03*
X147900000Y-90975000D03*
X147400000Y-90975000D03*
X146900000Y-90975000D03*
X146400000Y-90975000D03*
X145900000Y-90975000D03*
X145400000Y-90975000D03*
X144900000Y-90975000D03*
X144400000Y-90975000D03*
X143900000Y-90975000D03*
X143400000Y-90975000D03*
X142900000Y-90975000D03*
D25*
X140975000Y-92900000D03*
X140975000Y-93400000D03*
X140975000Y-93900000D03*
X140975000Y-94400000D03*
X140975000Y-94900000D03*
X140975000Y-95400000D03*
X140975000Y-95900000D03*
X140975000Y-96400000D03*
X140975000Y-96900000D03*
X140975000Y-97400000D03*
X140975000Y-97900000D03*
X140975000Y-98400000D03*
X140975000Y-98900000D03*
X140975000Y-99400000D03*
X140975000Y-99900000D03*
X140975000Y-100400000D03*
%TD*%
M02*
