%TF.GenerationSoftware,KiCad,Pcbnew,9.0.6+1*%
%TF.CreationDate,Date%
%TF.ProjectId,FCU3,46435533-2e6b-4696-9361-645f70636258,+ (Unreleased)*%
%TF.SameCoordinates,Original*%
%TF.FileFunction,Copper,L2,Inr*%
%TF.FilePolarity,Positive*%
%FSLAX46Y46*%
G04 Gerber Fmt 4.6, Leading zero omitted, Abs format (unit mm)*
G04 Created by KiCad*
%MOMM*%
%LPD*%
G01*
G04 APERTURE LIST*
%TA.AperFunction,ComponentPad*%
%ADD10C,0.450000*%
%TD*%
%TA.AperFunction,ComponentPad*%
%ADD11O,1.000000X2.100000*%
%TD*%
%TA.AperFunction,ComponentPad*%
%ADD12O,1.000000X1.800000*%
%TD*%
%TA.AperFunction,ViaPad*%
%ADD13C,0.550000*%
%TD*%
G04 APERTURE END LIST*
D10*
%TO.N,+9V*%
%TO.C,PS1*%
X158925000Y-88375000D03*
X158137000Y-88375000D03*
X157400000Y-88375000D03*
X158925000Y-89025000D03*
X158137000Y-89025000D03*
X157400000Y-89025000D03*
%TO.N,unconnected-(PS1-SW-Pad5)_4*%
X158925000Y-90325000D03*
%TO.N,unconnected-(PS1-SW-Pad5)_3*%
X158137000Y-90325000D03*
%TO.N,unconnected-(PS1-SW-Pad5)_6*%
X157400000Y-90325000D03*
%TO.N,unconnected-(PS1-SW-Pad5)_2*%
X158925000Y-90975000D03*
%TO.N,unconnected-(PS1-SW-Pad5)_5*%
X158137000Y-90975000D03*
%TO.N,unconnected-(PS1-SW-Pad5)_1*%
X157400000Y-90975000D03*
%TD*%
D11*
%TO.N,PGND*%
%TO.C,J3*%
X145500000Y-73625000D03*
X136860000Y-73625000D03*
D12*
X145500000Y-69445000D03*
X136860000Y-69445000D03*
%TD*%
D13*
%TO.N,PGND*%
X129500000Y-78700000D03*
X130400000Y-78700000D03*
X133725000Y-76270000D03*
X164750000Y-87150000D03*
X131400000Y-77900000D03*
X155115200Y-68115000D03*
X160637500Y-82837500D03*
X129850000Y-95250000D03*
X161562500Y-81912500D03*
X162300000Y-80250000D03*
X164475000Y-90525000D03*
X131400000Y-77000000D03*
X164750000Y-87950000D03*
X129800000Y-85900000D03*
X131400000Y-78700000D03*
X163800000Y-90050000D03*
X129850000Y-90100000D03*
%TO.N,DGND*%
X151600000Y-96800000D03*
X147850000Y-91800000D03*
X151250000Y-79550000D03*
X146105000Y-81500000D03*
X136550000Y-98695000D03*
X155115200Y-71240000D03*
X151690000Y-85700000D03*
X134650000Y-102950000D03*
X154550000Y-98105000D03*
X132350000Y-92195000D03*
X151525000Y-77525000D03*
X156200000Y-102845000D03*
X151690000Y-82950000D03*
X158500000Y-76500000D03*
X150187500Y-88307500D03*
X141375000Y-103145000D03*
X138125000Y-86695000D03*
X135100000Y-97000000D03*
X153300000Y-102845000D03*
X151250000Y-78750000D03*
X141375000Y-102395000D03*
%TO.N,+3V3*%
X152900000Y-84650000D03*
X135235000Y-92485000D03*
X135800000Y-99395000D03*
X150730000Y-86150000D03*
X151950000Y-86476000D03*
X148580000Y-81500000D03*
X135100000Y-95445000D03*
X145825000Y-102800000D03*
X153050000Y-82900000D03*
X151250000Y-100070000D03*
X151900000Y-72350000D03*
X137500000Y-88750000D03*
X152900000Y-83650000D03*
X152000000Y-95075000D03*
%TO.N,AGND*%
X134400000Y-87000000D03*
X144875000Y-102800000D03*
%TO.N,Net-(D2-A)*%
X147750000Y-100350000D03*
X152250000Y-93050000D03*
%TO.N,+VBAT*%
X131525000Y-80545000D03*
X130525000Y-81700000D03*
X163450000Y-93000000D03*
X131475000Y-81700000D03*
X161700000Y-93000000D03*
X161000000Y-92900000D03*
X164250000Y-92950000D03*
X130575000Y-80545000D03*
X162550000Y-93000000D03*
%TO.N,Net-(D4-A)*%
X149450000Y-100350000D03*
X152250000Y-92000000D03*
%TO.N,+9V*%
X161825000Y-85450000D03*
%TO.N,/Project Architecture/SBUS_TX*%
X154522500Y-94155000D03*
X158500000Y-75450000D03*
%TO.N,/Project Architecture/UART4_RX*%
X158500000Y-77500000D03*
X146650000Y-100745000D03*
%TO.N,/Project Architecture/UART4_TX*%
X158450000Y-78500000D03*
X146100000Y-98020000D03*
%TO.N,Net-(U3-NRST)*%
X143350000Y-95850000D03*
X143000000Y-92700000D03*
X147300000Y-89600000D03*
%TO.N,Net-(PS1-MODE)*%
X162250000Y-91025000D03*
X162650000Y-86025000D03*
%TO.N,/Project Architecture/Microcontroller/SWDIO*%
X139474000Y-80000000D03*
X140600000Y-88995000D03*
X136300000Y-89500000D03*
%TO.N,/Project Architecture/UART5_RX*%
X139100000Y-92900000D03*
X132500000Y-90195000D03*
%TO.N,/Project Architecture/I2C1_SDA*%
X138825000Y-96270000D03*
X135100000Y-93500000D03*
%TO.N,/Project Architecture/USB_-DATA*%
X142200000Y-75500000D03*
X140930000Y-75500000D03*
%TO.N,/Project Architecture/USB_CC1*%
X131250000Y-75595000D03*
X141545750Y-72739000D03*
%TO.N,/Project Architecture/USB_CC2*%
X131250000Y-74495000D03*
X140795750Y-72732500D03*
%TO.N,/Project Architecture/UART2_RX*%
X152600000Y-97115000D03*
X147650000Y-96800000D03*
%TO.N,/Project Architecture/ANA_ADC_VBAT*%
X136300000Y-90250003D03*
X143450000Y-97200000D03*
%TO.N,/Project Architecture/SPI1_SCK*%
X146750000Y-95300000D03*
X151987569Y-87487569D03*
X144980000Y-85125000D03*
%TO.N,/Project Architecture/SPI1_SDO*%
X145580000Y-85900000D03*
X146900000Y-93450000D03*
%TO.N,/Project Architecture/DIG_IMU_CS*%
X147250000Y-96100000D03*
X145055000Y-83950000D03*
%TO.N,/Project Architecture/SPI1_SDI*%
X151018413Y-87268413D03*
X149980000Y-84351000D03*
%TO.N,/Project Architecture/DIG_IMU_EXTI*%
X148980000Y-82550000D03*
X147800000Y-93300000D03*
%TO.N,/Project Architecture/ESC_SIG_M4*%
X144050000Y-89100000D03*
X137000000Y-82175000D03*
%TO.N,/Project Architecture/ESC_SIG_M3*%
X145600000Y-89000000D03*
X135500000Y-82200000D03*
%TO.N,/Project Architecture/UART1_RX*%
X141250000Y-90500000D03*
X132200000Y-79200000D03*
%TO.N,/Project Architecture/Microcontroller/SWCLK*%
X140050000Y-80650000D03*
%TO.N,/Project Architecture/ANA_ADC_CURR*%
X132300000Y-83500000D03*
X144100000Y-97700000D03*
%TO.N,/Project Architecture/ESC_SIG_M2*%
X138899000Y-82172500D03*
X143127500Y-86272500D03*
%TO.N,/Project Architecture/ESC_SIG_M1*%
X135200000Y-79000000D03*
X142900000Y-89300000D03*
%TD*%
%TA.AperFunction,Conductor*%
%TO.N,PGND*%
G36*
X165592539Y-67549669D02*
G01*
X165638294Y-67602473D01*
X165649500Y-67653984D01*
X165649500Y-67775484D01*
X165600252Y-91956237D01*
X165580431Y-92023236D01*
X165527534Y-92068883D01*
X165476252Y-92079984D01*
X159474000Y-92079984D01*
X159406961Y-92060299D01*
X159361206Y-92007495D01*
X159350000Y-91955984D01*
X159350000Y-90962399D01*
X161774500Y-90962399D01*
X161774500Y-91087601D01*
X161806905Y-91208536D01*
X161869505Y-91316964D01*
X161958036Y-91405495D01*
X162066464Y-91468095D01*
X162187399Y-91500500D01*
X162187401Y-91500500D01*
X162312599Y-91500500D01*
X162312601Y-91500500D01*
X162433536Y-91468095D01*
X162541964Y-91405495D01*
X162630495Y-91316964D01*
X162693095Y-91208536D01*
X162725500Y-91087601D01*
X162725500Y-90962399D01*
X162693095Y-90841464D01*
X162630495Y-90733036D01*
X162541964Y-90644505D01*
X162433536Y-90581905D01*
X162433537Y-90581905D01*
X162393224Y-90571103D01*
X162312601Y-90549500D01*
X162187399Y-90549500D01*
X162106775Y-90571103D01*
X162066463Y-90581905D01*
X161958037Y-90644504D01*
X161958034Y-90644506D01*
X161869506Y-90733034D01*
X161869504Y-90733037D01*
X161806905Y-90841463D01*
X161806905Y-90841464D01*
X161774500Y-90962399D01*
X159350000Y-90962399D01*
X159350000Y-85387399D01*
X161349500Y-85387399D01*
X161349500Y-85512601D01*
X161381905Y-85633536D01*
X161444505Y-85741964D01*
X161533036Y-85830495D01*
X161641464Y-85893095D01*
X161762399Y-85925500D01*
X161762401Y-85925500D01*
X161887599Y-85925500D01*
X161887601Y-85925500D01*
X162008536Y-85893095D01*
X162008537Y-85893093D01*
X162016386Y-85890991D01*
X162017153Y-85893854D01*
X162072502Y-85887897D01*
X162134985Y-85919164D01*
X162170644Y-85979248D01*
X162174500Y-86009929D01*
X162174500Y-86087601D01*
X162206905Y-86208536D01*
X162269505Y-86316964D01*
X162358036Y-86405495D01*
X162466464Y-86468095D01*
X162587399Y-86500500D01*
X162587401Y-86500500D01*
X162712599Y-86500500D01*
X162712601Y-86500500D01*
X162833536Y-86468095D01*
X162941964Y-86405495D01*
X163030495Y-86316964D01*
X163093095Y-86208536D01*
X163125500Y-86087601D01*
X163125500Y-85962399D01*
X163093095Y-85841464D01*
X163030495Y-85733036D01*
X162941964Y-85644505D01*
X162833536Y-85581905D01*
X162833537Y-85581905D01*
X162781997Y-85568095D01*
X162712601Y-85549500D01*
X162587399Y-85549500D01*
X162466464Y-85581905D01*
X162466462Y-85581906D01*
X162458614Y-85584009D01*
X162457848Y-85581153D01*
X162402447Y-85587093D01*
X162339977Y-85555800D01*
X162304343Y-85495700D01*
X162300500Y-85465070D01*
X162300500Y-85387400D01*
X162300500Y-85387399D01*
X162268095Y-85266464D01*
X162205495Y-85158036D01*
X162116964Y-85069505D01*
X162008536Y-85006905D01*
X162008537Y-85006905D01*
X161968224Y-84996103D01*
X161887601Y-84974500D01*
X161762399Y-84974500D01*
X161681775Y-84996103D01*
X161641463Y-85006905D01*
X161533037Y-85069504D01*
X161533034Y-85069506D01*
X161444506Y-85158034D01*
X161444504Y-85158037D01*
X161381905Y-85266463D01*
X161381905Y-85266464D01*
X161349500Y-85387399D01*
X159350000Y-85387399D01*
X159350000Y-80027680D01*
X159350007Y-80026317D01*
X159358405Y-79262599D01*
X159400298Y-75452900D01*
X159400296Y-75452900D01*
X159400297Y-75452899D01*
X159117010Y-75495346D01*
X159047794Y-75485813D01*
X158994720Y-75440372D01*
X158978005Y-75395141D01*
X158977603Y-75395249D01*
X158976437Y-75390899D01*
X158975696Y-75388893D01*
X158975500Y-75387404D01*
X158975500Y-75387399D01*
X158943095Y-75266464D01*
X158880495Y-75158036D01*
X158791964Y-75069505D01*
X158683536Y-75006905D01*
X158683537Y-75006905D01*
X158643224Y-74996103D01*
X158562601Y-74974500D01*
X158437399Y-74974500D01*
X158356775Y-74996103D01*
X158316463Y-75006905D01*
X158208037Y-75069504D01*
X158208034Y-75069506D01*
X158119506Y-75158034D01*
X158119504Y-75158037D01*
X158056905Y-75266463D01*
X158056905Y-75266464D01*
X158024500Y-75387399D01*
X158024500Y-75512601D01*
X158026281Y-75519246D01*
X158024618Y-75589096D01*
X157985456Y-75646958D01*
X157924881Y-75673971D01*
X135803118Y-78988633D01*
X135733901Y-78979100D01*
X135680827Y-78933659D01*
X135664969Y-78898099D01*
X135643095Y-78816464D01*
X135580495Y-78708036D01*
X135491964Y-78619505D01*
X135383536Y-78556905D01*
X135383537Y-78556905D01*
X135343224Y-78546103D01*
X135262601Y-78524500D01*
X135137399Y-78524500D01*
X135056775Y-78546103D01*
X135016463Y-78556905D01*
X134908037Y-78619504D01*
X134908034Y-78619506D01*
X134819506Y-78708034D01*
X134819504Y-78708037D01*
X134756905Y-78816463D01*
X134756905Y-78816464D01*
X134732369Y-78908034D01*
X134724500Y-78937400D01*
X134724500Y-79043445D01*
X134704815Y-79110484D01*
X134652011Y-79156239D01*
X134618875Y-79166076D01*
X132808278Y-79437372D01*
X132739062Y-79427839D01*
X132685987Y-79382398D01*
X132665905Y-79315477D01*
X132670129Y-79282646D01*
X132675499Y-79262603D01*
X132675500Y-79262600D01*
X132675500Y-79137400D01*
X132668288Y-79110484D01*
X132643095Y-79016464D01*
X132580495Y-78908036D01*
X132491964Y-78819505D01*
X132383536Y-78756905D01*
X132383537Y-78756905D01*
X132343224Y-78746103D01*
X132262601Y-78724500D01*
X132137399Y-78724500D01*
X132056775Y-78746103D01*
X132016463Y-78756905D01*
X131908037Y-78819504D01*
X131908034Y-78819506D01*
X131819506Y-78908034D01*
X131819504Y-78908037D01*
X131756905Y-79016463D01*
X131756905Y-79016464D01*
X131724500Y-79137399D01*
X131724500Y-79262601D01*
X131756090Y-79380495D01*
X131756905Y-79383536D01*
X131778201Y-79420422D01*
X131794672Y-79488322D01*
X131771820Y-79554349D01*
X131716898Y-79597539D01*
X131689188Y-79605052D01*
X128841695Y-80031713D01*
X128772478Y-80022180D01*
X128719404Y-79976739D01*
X128699322Y-79909819D01*
X128677500Y-74432399D01*
X130774500Y-74432399D01*
X130774500Y-74557601D01*
X130806905Y-74678536D01*
X130869505Y-74786964D01*
X130958036Y-74875495D01*
X130958037Y-74875496D01*
X130958039Y-74875497D01*
X131065628Y-74937613D01*
X131113843Y-74988179D01*
X131127067Y-75056786D01*
X131101099Y-75121651D01*
X131065628Y-75152387D01*
X130958039Y-75214502D01*
X130958034Y-75214506D01*
X130869506Y-75303034D01*
X130869504Y-75303037D01*
X130806905Y-75411463D01*
X130799955Y-75437400D01*
X130774500Y-75532399D01*
X130774500Y-75657601D01*
X130806905Y-75778536D01*
X130869505Y-75886964D01*
X130958036Y-75975495D01*
X131066464Y-76038095D01*
X131187399Y-76070500D01*
X131187401Y-76070500D01*
X131312599Y-76070500D01*
X131312601Y-76070500D01*
X131433536Y-76038095D01*
X131541964Y-75975495D01*
X131630495Y-75886964D01*
X131693095Y-75778536D01*
X131725500Y-75657601D01*
X131725500Y-75532399D01*
X131706466Y-75461364D01*
X131706466Y-75461362D01*
X131700045Y-75437399D01*
X140454500Y-75437399D01*
X140454500Y-75562601D01*
X140486905Y-75683536D01*
X140549505Y-75791964D01*
X140638036Y-75880495D01*
X140746464Y-75943095D01*
X140867399Y-75975500D01*
X140867401Y-75975500D01*
X140992599Y-75975500D01*
X140992601Y-75975500D01*
X141113536Y-75943095D01*
X141221964Y-75880495D01*
X141310495Y-75791964D01*
X141373095Y-75683536D01*
X141405500Y-75562601D01*
X141405500Y-75437399D01*
X141724500Y-75437399D01*
X141724500Y-75562601D01*
X141756905Y-75683536D01*
X141819505Y-75791964D01*
X141908036Y-75880495D01*
X142016464Y-75943095D01*
X142137399Y-75975500D01*
X142137401Y-75975500D01*
X142262599Y-75975500D01*
X142262601Y-75975500D01*
X142383536Y-75943095D01*
X142491964Y-75880495D01*
X142580495Y-75791964D01*
X142643095Y-75683536D01*
X142675500Y-75562601D01*
X142675500Y-75437399D01*
X142643095Y-75316464D01*
X142580495Y-75208036D01*
X142491964Y-75119505D01*
X142383536Y-75056905D01*
X142383537Y-75056905D01*
X142343224Y-75046103D01*
X142262601Y-75024500D01*
X142137399Y-75024500D01*
X142056775Y-75046103D01*
X142016463Y-75056905D01*
X141908037Y-75119504D01*
X141908034Y-75119506D01*
X141819506Y-75208034D01*
X141819504Y-75208037D01*
X141756905Y-75316463D01*
X141756905Y-75316464D01*
X141724500Y-75437399D01*
X141405500Y-75437399D01*
X141373095Y-75316464D01*
X141310495Y-75208036D01*
X141221964Y-75119505D01*
X141113536Y-75056905D01*
X141113537Y-75056905D01*
X141073224Y-75046103D01*
X140992601Y-75024500D01*
X140867399Y-75024500D01*
X140786775Y-75046103D01*
X140746463Y-75056905D01*
X140638037Y-75119504D01*
X140638034Y-75119506D01*
X140549506Y-75208034D01*
X140549504Y-75208037D01*
X140486905Y-75316463D01*
X140486905Y-75316464D01*
X140454500Y-75437399D01*
X131700045Y-75437399D01*
X131693096Y-75411468D01*
X131693095Y-75411464D01*
X131630495Y-75303036D01*
X131541964Y-75214505D01*
X131434371Y-75152387D01*
X131386156Y-75101821D01*
X131372932Y-75033214D01*
X131398900Y-74968349D01*
X131434370Y-74937613D01*
X131541964Y-74875495D01*
X131630495Y-74786964D01*
X131693095Y-74678536D01*
X131725500Y-74557601D01*
X131725500Y-74432399D01*
X131693095Y-74311464D01*
X131630495Y-74203036D01*
X131541964Y-74114505D01*
X131433536Y-74051905D01*
X131433537Y-74051905D01*
X131393224Y-74041103D01*
X131312601Y-74019500D01*
X131187399Y-74019500D01*
X131106775Y-74041103D01*
X131066463Y-74051905D01*
X130958037Y-74114504D01*
X130958034Y-74114506D01*
X130869506Y-74203034D01*
X130869504Y-74203037D01*
X130806905Y-74311463D01*
X130806905Y-74311464D01*
X130774500Y-74432399D01*
X128677500Y-74432399D01*
X128671700Y-72976504D01*
X135860000Y-72976504D01*
X135860000Y-73375000D01*
X136560000Y-73375000D01*
X136560000Y-73875000D01*
X135860000Y-73875000D01*
X135860000Y-74273495D01*
X135898427Y-74466681D01*
X135898430Y-74466693D01*
X135973807Y-74648671D01*
X135973814Y-74648684D01*
X136083248Y-74812462D01*
X136083251Y-74812466D01*
X136222533Y-74951748D01*
X136222537Y-74951751D01*
X136386315Y-75061185D01*
X136386328Y-75061192D01*
X136568308Y-75136569D01*
X136610000Y-75144862D01*
X136610000Y-74341988D01*
X136619940Y-74359205D01*
X136675795Y-74415060D01*
X136744204Y-74454556D01*
X136820504Y-74475000D01*
X136899496Y-74475000D01*
X136975796Y-74454556D01*
X137044205Y-74415060D01*
X137100060Y-74359205D01*
X137110000Y-74341988D01*
X137110000Y-75144862D01*
X137151690Y-75136569D01*
X137151692Y-75136569D01*
X137333671Y-75061192D01*
X137333684Y-75061185D01*
X137497462Y-74951751D01*
X137497466Y-74951748D01*
X137636748Y-74812466D01*
X137636751Y-74812462D01*
X137746185Y-74648684D01*
X137746192Y-74648671D01*
X137821569Y-74466693D01*
X137821572Y-74466681D01*
X137859999Y-74273495D01*
X137860000Y-74273492D01*
X137860000Y-73875000D01*
X137160000Y-73875000D01*
X137160000Y-73375000D01*
X137693598Y-73375000D01*
X137760637Y-73394685D01*
X137800984Y-73436999D01*
X137826285Y-73480821D01*
X137934179Y-73588715D01*
X137934180Y-73588716D01*
X137934182Y-73588717D01*
X138066318Y-73665006D01*
X138066319Y-73665006D01*
X138066322Y-73665008D01*
X138213707Y-73704500D01*
X138213710Y-73704500D01*
X138366290Y-73704500D01*
X138366293Y-73704500D01*
X138513678Y-73665008D01*
X138645821Y-73588715D01*
X138753715Y-73480821D01*
X138830008Y-73348678D01*
X138869500Y-73201293D01*
X138869500Y-73048707D01*
X138830008Y-72901322D01*
X138823930Y-72890795D01*
X138753717Y-72769182D01*
X138753712Y-72769176D01*
X138654435Y-72669899D01*
X140320250Y-72669899D01*
X140320250Y-72795101D01*
X140352655Y-72916036D01*
X140415255Y-73024464D01*
X140503786Y-73112995D01*
X140612214Y-73175595D01*
X140733149Y-73208000D01*
X140733151Y-73208000D01*
X140858349Y-73208000D01*
X140858351Y-73208000D01*
X140979286Y-73175595D01*
X141087714Y-73112995D01*
X141087721Y-73112987D01*
X141091725Y-73109916D01*
X141156893Y-73084719D01*
X141225339Y-73098753D01*
X141247110Y-73114849D01*
X141247341Y-73114549D01*
X141253782Y-73119491D01*
X141253786Y-73119495D01*
X141362214Y-73182095D01*
X141483149Y-73214500D01*
X141483151Y-73214500D01*
X141608349Y-73214500D01*
X141608351Y-73214500D01*
X141729286Y-73182095D01*
X141837714Y-73119495D01*
X141908502Y-73048707D01*
X143490500Y-73048707D01*
X143490500Y-73201293D01*
X143529992Y-73348678D01*
X143529993Y-73348681D01*
X143606282Y-73480817D01*
X143606284Y-73480819D01*
X143606285Y-73480821D01*
X143714179Y-73588715D01*
X143714180Y-73588716D01*
X143714182Y-73588717D01*
X143846318Y-73665006D01*
X143846319Y-73665006D01*
X143846322Y-73665008D01*
X143993707Y-73704500D01*
X143993710Y-73704500D01*
X144146291Y-73704500D01*
X144146293Y-73704500D01*
X144293678Y-73665008D01*
X144425821Y-73588715D01*
X144533715Y-73480821D01*
X144559015Y-73436999D01*
X144609582Y-73388784D01*
X144666402Y-73375000D01*
X145200000Y-73375000D01*
X145200000Y-73875000D01*
X144500000Y-73875000D01*
X144500000Y-74273495D01*
X144538427Y-74466681D01*
X144538430Y-74466693D01*
X144613807Y-74648671D01*
X144613814Y-74648684D01*
X144723248Y-74812462D01*
X144723251Y-74812466D01*
X144862533Y-74951748D01*
X144862537Y-74951751D01*
X145026315Y-75061185D01*
X145026328Y-75061192D01*
X145208308Y-75136569D01*
X145250000Y-75144862D01*
X145250000Y-74341988D01*
X145259940Y-74359205D01*
X145315795Y-74415060D01*
X145384204Y-74454556D01*
X145460504Y-74475000D01*
X145539496Y-74475000D01*
X145615796Y-74454556D01*
X145684205Y-74415060D01*
X145740060Y-74359205D01*
X145750000Y-74341988D01*
X145750000Y-75144862D01*
X145791690Y-75136569D01*
X145791692Y-75136569D01*
X145973671Y-75061192D01*
X145973684Y-75061185D01*
X146137462Y-74951751D01*
X146137466Y-74951748D01*
X146276748Y-74812466D01*
X146276751Y-74812462D01*
X146386185Y-74648684D01*
X146386192Y-74648671D01*
X146461569Y-74466693D01*
X146461572Y-74466681D01*
X146499999Y-74273495D01*
X146500000Y-74273492D01*
X146500000Y-73875000D01*
X145800000Y-73875000D01*
X145800000Y-73375000D01*
X146500000Y-73375000D01*
X146500000Y-72976508D01*
X146499999Y-72976504D01*
X146461572Y-72783318D01*
X146461569Y-72783306D01*
X146386192Y-72601328D01*
X146386185Y-72601315D01*
X146276751Y-72437537D01*
X146276748Y-72437533D01*
X146137466Y-72298251D01*
X146137462Y-72298248D01*
X146121225Y-72287399D01*
X151424500Y-72287399D01*
X151424500Y-72412601D01*
X151456905Y-72533536D01*
X151519505Y-72641964D01*
X151608036Y-72730495D01*
X151716464Y-72793095D01*
X151837399Y-72825500D01*
X151837401Y-72825500D01*
X151962599Y-72825500D01*
X151962601Y-72825500D01*
X152083536Y-72793095D01*
X152191964Y-72730495D01*
X152280495Y-72641964D01*
X152343095Y-72533536D01*
X152375500Y-72412601D01*
X152375500Y-72287399D01*
X152343095Y-72166464D01*
X152280495Y-72058036D01*
X152191964Y-71969505D01*
X152083536Y-71906905D01*
X152083537Y-71906905D01*
X152043224Y-71896103D01*
X151962601Y-71874500D01*
X151837399Y-71874500D01*
X151756775Y-71896103D01*
X151716463Y-71906905D01*
X151608037Y-71969504D01*
X151608034Y-71969506D01*
X151519506Y-72058034D01*
X151519504Y-72058037D01*
X151456905Y-72166463D01*
X151456905Y-72166464D01*
X151424500Y-72287399D01*
X146121225Y-72287399D01*
X145973684Y-72188814D01*
X145973671Y-72188807D01*
X145791691Y-72113429D01*
X145791683Y-72113427D01*
X145750000Y-72105135D01*
X145750000Y-72908011D01*
X145740060Y-72890795D01*
X145684205Y-72834940D01*
X145615796Y-72795444D01*
X145539496Y-72775000D01*
X145460504Y-72775000D01*
X145384204Y-72795444D01*
X145315795Y-72834940D01*
X145259940Y-72890795D01*
X145250000Y-72908011D01*
X145250000Y-72105136D01*
X145249999Y-72105135D01*
X145208316Y-72113427D01*
X145208308Y-72113429D01*
X145026328Y-72188807D01*
X145026315Y-72188814D01*
X144862537Y-72298248D01*
X144862533Y-72298251D01*
X144723251Y-72437533D01*
X144723248Y-72437537D01*
X144613814Y-72601315D01*
X144613808Y-72601326D01*
X144611462Y-72606991D01*
X144567617Y-72661391D01*
X144501321Y-72683451D01*
X144433623Y-72666167D01*
X144429826Y-72663597D01*
X144293681Y-72584993D01*
X144293682Y-72584993D01*
X144281595Y-72581754D01*
X144146293Y-72545500D01*
X143993707Y-72545500D01*
X143858404Y-72581754D01*
X143846318Y-72584993D01*
X143714182Y-72661282D01*
X143714176Y-72661287D01*
X143606287Y-72769176D01*
X143606282Y-72769182D01*
X143529993Y-72901318D01*
X143529992Y-72901322D01*
X143490500Y-73048707D01*
X141908502Y-73048707D01*
X141926245Y-73030964D01*
X141937324Y-73011773D01*
X141956489Y-72978580D01*
X141967768Y-72959041D01*
X141988845Y-72922536D01*
X142021250Y-72801601D01*
X142021250Y-72676399D01*
X141988845Y-72555464D01*
X141926245Y-72447036D01*
X141837714Y-72358505D01*
X141729286Y-72295905D01*
X141729287Y-72295905D01*
X141688974Y-72285103D01*
X141608351Y-72263500D01*
X141483149Y-72263500D01*
X141402525Y-72285103D01*
X141362213Y-72295905D01*
X141253782Y-72358507D01*
X141249763Y-72361591D01*
X141184593Y-72386782D01*
X141116149Y-72372740D01*
X141094389Y-72356650D01*
X141094159Y-72356951D01*
X141087715Y-72352006D01*
X141087714Y-72352005D01*
X140979286Y-72289405D01*
X140979287Y-72289405D01*
X140938974Y-72278603D01*
X140858351Y-72257000D01*
X140733149Y-72257000D01*
X140652525Y-72278603D01*
X140612213Y-72289405D01*
X140503787Y-72352004D01*
X140503784Y-72352006D01*
X140415256Y-72440534D01*
X140415254Y-72440537D01*
X140352655Y-72548963D01*
X140350913Y-72555464D01*
X140320250Y-72669899D01*
X138654435Y-72669899D01*
X138645823Y-72661287D01*
X138645817Y-72661282D01*
X138513681Y-72584993D01*
X138513682Y-72584993D01*
X138501595Y-72581754D01*
X138366293Y-72545500D01*
X138213707Y-72545500D01*
X138078404Y-72581754D01*
X138066318Y-72584993D01*
X137927140Y-72665349D01*
X137925715Y-72662881D01*
X137873405Y-72683102D01*
X137804961Y-72669059D01*
X137754974Y-72620243D01*
X137748534Y-72606983D01*
X137746188Y-72601321D01*
X137746187Y-72601318D01*
X137636751Y-72437537D01*
X137636748Y-72437533D01*
X137497466Y-72298251D01*
X137497462Y-72298248D01*
X137333684Y-72188814D01*
X137333671Y-72188807D01*
X137151691Y-72113429D01*
X137151683Y-72113427D01*
X137110000Y-72105135D01*
X137110000Y-72908011D01*
X137100060Y-72890795D01*
X137044205Y-72834940D01*
X136975796Y-72795444D01*
X136899496Y-72775000D01*
X136820504Y-72775000D01*
X136744204Y-72795444D01*
X136675795Y-72834940D01*
X136619940Y-72890795D01*
X136610000Y-72908011D01*
X136610000Y-72105136D01*
X136609999Y-72105135D01*
X136568316Y-72113427D01*
X136568308Y-72113429D01*
X136386328Y-72188807D01*
X136386315Y-72188814D01*
X136222537Y-72298248D01*
X136222533Y-72298251D01*
X136083251Y-72437533D01*
X136083248Y-72437537D01*
X135973814Y-72601315D01*
X135973807Y-72601328D01*
X135898430Y-72783306D01*
X135898427Y-72783318D01*
X135860000Y-72976504D01*
X128671700Y-72976504D01*
X128661111Y-70318684D01*
X128659769Y-69981995D01*
X130099500Y-69981995D01*
X130099500Y-70218004D01*
X130099501Y-70218020D01*
X130130306Y-70452010D01*
X130191394Y-70679993D01*
X130281714Y-70898045D01*
X130281719Y-70898056D01*
X130352677Y-71020957D01*
X130399727Y-71102450D01*
X130399729Y-71102453D01*
X130399730Y-71102454D01*
X130543406Y-71289697D01*
X130543412Y-71289704D01*
X130710295Y-71456587D01*
X130710301Y-71456592D01*
X130897550Y-71600273D01*
X131028918Y-71676118D01*
X131101943Y-71718280D01*
X131101948Y-71718282D01*
X131101951Y-71718284D01*
X131320007Y-71808606D01*
X131547986Y-71869693D01*
X131781989Y-71900500D01*
X131781996Y-71900500D01*
X132018004Y-71900500D01*
X132018011Y-71900500D01*
X132252014Y-71869693D01*
X132479993Y-71808606D01*
X132698049Y-71718284D01*
X132902450Y-71600273D01*
X133089699Y-71456592D01*
X133256592Y-71289699D01*
X133342763Y-71177399D01*
X154639700Y-71177399D01*
X154639700Y-71302601D01*
X154672105Y-71423536D01*
X154734705Y-71531964D01*
X154823236Y-71620495D01*
X154931664Y-71683095D01*
X155052599Y-71715500D01*
X155052601Y-71715500D01*
X155177799Y-71715500D01*
X155177801Y-71715500D01*
X155298736Y-71683095D01*
X155407164Y-71620495D01*
X155495695Y-71531964D01*
X155558295Y-71423536D01*
X155590700Y-71302601D01*
X155590700Y-71177399D01*
X155558295Y-71056464D01*
X155495695Y-70948036D01*
X155407164Y-70859505D01*
X155298736Y-70796905D01*
X155298737Y-70796905D01*
X155258424Y-70786103D01*
X155177801Y-70764500D01*
X155052599Y-70764500D01*
X154971975Y-70786103D01*
X154931663Y-70796905D01*
X154823237Y-70859504D01*
X154823234Y-70859506D01*
X154734706Y-70948034D01*
X154734704Y-70948037D01*
X154672105Y-71056463D01*
X154672105Y-71056464D01*
X154639700Y-71177399D01*
X133342763Y-71177399D01*
X133400273Y-71102450D01*
X133518284Y-70898049D01*
X133608606Y-70679993D01*
X133669693Y-70452014D01*
X133700500Y-70218011D01*
X133700500Y-69981989D01*
X133669693Y-69747986D01*
X133608606Y-69520007D01*
X133518284Y-69301951D01*
X133518282Y-69301948D01*
X133518280Y-69301943D01*
X133456536Y-69195000D01*
X133400273Y-69097550D01*
X133385973Y-69078914D01*
X133337626Y-69015906D01*
X133337624Y-69015904D01*
X133323003Y-68996850D01*
X133284371Y-68946504D01*
X135860000Y-68946504D01*
X135860000Y-69195000D01*
X136560000Y-69195000D01*
X136560000Y-69695000D01*
X135860000Y-69695000D01*
X135860000Y-69943495D01*
X135898427Y-70136681D01*
X135898430Y-70136693D01*
X135973807Y-70318671D01*
X135973814Y-70318684D01*
X136083248Y-70482462D01*
X136083251Y-70482466D01*
X136222533Y-70621748D01*
X136222537Y-70621751D01*
X136386315Y-70731185D01*
X136386328Y-70731192D01*
X136568308Y-70806569D01*
X136610000Y-70814862D01*
X136610000Y-70011988D01*
X136619940Y-70029205D01*
X136675795Y-70085060D01*
X136744204Y-70124556D01*
X136820504Y-70145000D01*
X136899496Y-70145000D01*
X136975796Y-70124556D01*
X137044205Y-70085060D01*
X137100060Y-70029205D01*
X137110000Y-70011988D01*
X137110000Y-70814862D01*
X137151690Y-70806569D01*
X137151692Y-70806569D01*
X137333671Y-70731192D01*
X137333684Y-70731185D01*
X137497462Y-70621751D01*
X137497466Y-70621748D01*
X137636748Y-70482466D01*
X137636751Y-70482462D01*
X137746185Y-70318684D01*
X137746192Y-70318671D01*
X137821569Y-70136693D01*
X137821572Y-70136681D01*
X137859999Y-69943495D01*
X137860000Y-69943492D01*
X137860000Y-69695000D01*
X137160000Y-69695000D01*
X137160000Y-69195000D01*
X137860000Y-69195000D01*
X137860000Y-68946508D01*
X137859999Y-68946504D01*
X144500000Y-68946504D01*
X144500000Y-69195000D01*
X145200000Y-69195000D01*
X145200000Y-69695000D01*
X144500000Y-69695000D01*
X144500000Y-69943495D01*
X144538427Y-70136681D01*
X144538430Y-70136693D01*
X144613807Y-70318671D01*
X144613814Y-70318684D01*
X144723248Y-70482462D01*
X144723251Y-70482466D01*
X144862533Y-70621748D01*
X144862537Y-70621751D01*
X145026315Y-70731185D01*
X145026328Y-70731192D01*
X145208308Y-70806569D01*
X145250000Y-70814862D01*
X145250000Y-70011988D01*
X145259940Y-70029205D01*
X145315795Y-70085060D01*
X145384204Y-70124556D01*
X145460504Y-70145000D01*
X145539496Y-70145000D01*
X145615796Y-70124556D01*
X145684205Y-70085060D01*
X145740060Y-70029205D01*
X145750000Y-70011988D01*
X145750000Y-70814862D01*
X145791690Y-70806569D01*
X145791692Y-70806569D01*
X145973671Y-70731192D01*
X145973684Y-70731185D01*
X146137462Y-70621751D01*
X146137466Y-70621748D01*
X146276748Y-70482466D01*
X146276751Y-70482462D01*
X146386185Y-70318684D01*
X146386192Y-70318671D01*
X146461569Y-70136693D01*
X146461572Y-70136681D01*
X146492341Y-69981995D01*
X160599500Y-69981995D01*
X160599500Y-70218004D01*
X160599501Y-70218020D01*
X160630306Y-70452010D01*
X160691394Y-70679993D01*
X160781714Y-70898045D01*
X160781719Y-70898056D01*
X160852677Y-71020957D01*
X160899727Y-71102450D01*
X160899729Y-71102453D01*
X160899730Y-71102454D01*
X161043406Y-71289697D01*
X161043412Y-71289704D01*
X161210295Y-71456587D01*
X161210301Y-71456592D01*
X161397550Y-71600273D01*
X161528918Y-71676118D01*
X161601943Y-71718280D01*
X161601948Y-71718282D01*
X161601951Y-71718284D01*
X161820007Y-71808606D01*
X162047986Y-71869693D01*
X162281989Y-71900500D01*
X162281996Y-71900500D01*
X162518004Y-71900500D01*
X162518011Y-71900500D01*
X162752014Y-71869693D01*
X162979993Y-71808606D01*
X163198049Y-71718284D01*
X163402450Y-71600273D01*
X163589699Y-71456592D01*
X163756592Y-71289699D01*
X163900273Y-71102450D01*
X164018284Y-70898049D01*
X164108606Y-70679993D01*
X164169693Y-70452014D01*
X164200500Y-70218011D01*
X164200500Y-69981989D01*
X164169693Y-69747986D01*
X164108606Y-69520007D01*
X164018284Y-69301951D01*
X164018282Y-69301948D01*
X164018280Y-69301943D01*
X163956536Y-69195000D01*
X163900273Y-69097550D01*
X163784375Y-68946508D01*
X163756593Y-68910302D01*
X163756587Y-68910295D01*
X163589704Y-68743412D01*
X163589697Y-68743406D01*
X163402454Y-68599730D01*
X163402453Y-68599729D01*
X163402450Y-68599727D01*
X163320957Y-68552677D01*
X163198056Y-68481719D01*
X163198045Y-68481714D01*
X162979993Y-68391394D01*
X162752010Y-68330306D01*
X162518020Y-68299501D01*
X162518017Y-68299500D01*
X162518011Y-68299500D01*
X162281989Y-68299500D01*
X162281983Y-68299500D01*
X162281979Y-68299501D01*
X162047989Y-68330306D01*
X161820006Y-68391394D01*
X161601954Y-68481714D01*
X161601943Y-68481719D01*
X161397545Y-68599730D01*
X161210302Y-68743406D01*
X161210295Y-68743412D01*
X161043412Y-68910295D01*
X161043406Y-68910302D01*
X160899730Y-69097545D01*
X160781719Y-69301943D01*
X160781714Y-69301954D01*
X160691394Y-69520006D01*
X160630306Y-69747989D01*
X160599501Y-69981979D01*
X160599500Y-69981995D01*
X146492341Y-69981995D01*
X146497962Y-69953739D01*
X146497962Y-69953738D01*
X146499999Y-69943492D01*
X146500000Y-69943492D01*
X146500000Y-69695000D01*
X145800000Y-69695000D01*
X145800000Y-69195000D01*
X146500000Y-69195000D01*
X146500000Y-68946508D01*
X146499999Y-68946504D01*
X146461572Y-68753318D01*
X146461569Y-68753306D01*
X146386192Y-68571328D01*
X146386185Y-68571315D01*
X146276751Y-68407537D01*
X146276748Y-68407533D01*
X146137466Y-68268251D01*
X146137462Y-68268248D01*
X145973684Y-68158814D01*
X145973671Y-68158807D01*
X145791691Y-68083429D01*
X145791683Y-68083427D01*
X145750000Y-68075135D01*
X145750000Y-68878011D01*
X145740060Y-68860795D01*
X145684205Y-68804940D01*
X145615796Y-68765444D01*
X145539496Y-68745000D01*
X145460504Y-68745000D01*
X145384204Y-68765444D01*
X145315795Y-68804940D01*
X145259940Y-68860795D01*
X145250000Y-68878011D01*
X145250000Y-68075136D01*
X145249999Y-68075135D01*
X145208316Y-68083427D01*
X145208308Y-68083429D01*
X145026328Y-68158807D01*
X145026315Y-68158814D01*
X144862537Y-68268248D01*
X144862533Y-68268251D01*
X144723251Y-68407533D01*
X144723248Y-68407537D01*
X144613814Y-68571315D01*
X144613807Y-68571328D01*
X144538430Y-68753306D01*
X144538427Y-68753318D01*
X144500000Y-68946504D01*
X137859999Y-68946504D01*
X137821572Y-68753318D01*
X137821569Y-68753306D01*
X137746192Y-68571328D01*
X137746185Y-68571315D01*
X137636751Y-68407537D01*
X137636748Y-68407533D01*
X137497466Y-68268251D01*
X137497462Y-68268248D01*
X137333684Y-68158814D01*
X137333671Y-68158807D01*
X137151691Y-68083429D01*
X137151683Y-68083427D01*
X137110000Y-68075135D01*
X137110000Y-68878011D01*
X137100060Y-68860795D01*
X137044205Y-68804940D01*
X136975796Y-68765444D01*
X136899496Y-68745000D01*
X136820504Y-68745000D01*
X136744204Y-68765444D01*
X136675795Y-68804940D01*
X136619940Y-68860795D01*
X136610000Y-68878011D01*
X136610000Y-68075136D01*
X136609999Y-68075135D01*
X136568316Y-68083427D01*
X136568308Y-68083429D01*
X136386328Y-68158807D01*
X136386315Y-68158814D01*
X136222537Y-68268248D01*
X136222533Y-68268251D01*
X136083251Y-68407533D01*
X136083248Y-68407537D01*
X135973814Y-68571315D01*
X135973807Y-68571328D01*
X135898430Y-68753306D01*
X135898427Y-68753318D01*
X135860000Y-68946504D01*
X133284371Y-68946504D01*
X133256592Y-68910301D01*
X133256590Y-68910299D01*
X133256587Y-68910295D01*
X133089704Y-68743412D01*
X133089697Y-68743406D01*
X132902454Y-68599730D01*
X132902453Y-68599729D01*
X132902450Y-68599727D01*
X132820957Y-68552677D01*
X132698056Y-68481719D01*
X132698045Y-68481714D01*
X132479993Y-68391394D01*
X132252010Y-68330306D01*
X132018020Y-68299501D01*
X132018017Y-68299500D01*
X132018011Y-68299500D01*
X131781989Y-68299500D01*
X131781983Y-68299500D01*
X131781979Y-68299501D01*
X131547989Y-68330306D01*
X131320006Y-68391394D01*
X131101954Y-68481714D01*
X131101943Y-68481719D01*
X130897545Y-68599730D01*
X130710302Y-68743406D01*
X130710295Y-68743412D01*
X130543412Y-68910295D01*
X130543406Y-68910302D01*
X130399730Y-69097545D01*
X130281719Y-69301943D01*
X130281714Y-69301954D01*
X130191394Y-69520006D01*
X130130306Y-69747989D01*
X130099501Y-69981979D01*
X130099500Y-69981995D01*
X128659769Y-69981995D01*
X128659755Y-69978424D01*
X128650496Y-67654478D01*
X128669913Y-67587361D01*
X128722535Y-67541396D01*
X128774495Y-67529984D01*
X165525500Y-67529984D01*
X165592539Y-67549669D01*
G37*
%TD.AperFunction*%
%TD*%
%TA.AperFunction,Conductor*%
%TO.N,DGND*%
G36*
X159001877Y-75685964D02*
G01*
X159003991Y-75685984D01*
X159015333Y-75687720D01*
X159019756Y-75689391D01*
X159084594Y-75698321D01*
X159085489Y-75698458D01*
X159116340Y-75712887D01*
X159147374Y-75726838D01*
X159147902Y-75727649D01*
X159148778Y-75728059D01*
X159166910Y-75756845D01*
X159185496Y-75785392D01*
X159185501Y-75786359D01*
X159186017Y-75787178D01*
X159190721Y-75822394D01*
X159174950Y-77256650D01*
X159154529Y-77323469D01*
X159101225Y-77368641D01*
X159031961Y-77377823D01*
X158968729Y-77348101D01*
X158943569Y-77317286D01*
X158943095Y-77316465D01*
X158943095Y-77316464D01*
X158880495Y-77208036D01*
X158791964Y-77119505D01*
X158683536Y-77056905D01*
X158683537Y-77056905D01*
X158643224Y-77046103D01*
X158562601Y-77024500D01*
X158437399Y-77024500D01*
X158356775Y-77046103D01*
X158316463Y-77056905D01*
X158208037Y-77119504D01*
X158208034Y-77119506D01*
X158119506Y-77208034D01*
X158119504Y-77208037D01*
X158056905Y-77316463D01*
X158055028Y-77323469D01*
X158024500Y-77437399D01*
X158024500Y-77562601D01*
X158056905Y-77683536D01*
X158119505Y-77791964D01*
X158208036Y-77880495D01*
X158208038Y-77880496D01*
X158214487Y-77885445D01*
X158212910Y-77887499D01*
X158252239Y-77928744D01*
X158265463Y-77997351D01*
X158239496Y-78062216D01*
X158204025Y-78092953D01*
X158158036Y-78119504D01*
X158069506Y-78208034D01*
X158069504Y-78208037D01*
X158006905Y-78316463D01*
X158006905Y-78316464D01*
X157974500Y-78437399D01*
X157974500Y-78562601D01*
X158006905Y-78683536D01*
X158069505Y-78791964D01*
X158158036Y-78880495D01*
X158266464Y-78943095D01*
X158387399Y-78975500D01*
X158387401Y-78975500D01*
X158512599Y-78975500D01*
X158512601Y-78975500D01*
X158633536Y-78943095D01*
X158741964Y-78880495D01*
X158830495Y-78791964D01*
X158893095Y-78683536D01*
X158925500Y-78562601D01*
X158925500Y-78437399D01*
X158893095Y-78316464D01*
X158830495Y-78208036D01*
X158741964Y-78119505D01*
X158741962Y-78119504D01*
X158735513Y-78114555D01*
X158737087Y-78112502D01*
X158697754Y-78071243D01*
X158684538Y-78002635D01*
X158710511Y-77937773D01*
X158745977Y-77907045D01*
X158791964Y-77880495D01*
X158880495Y-77791964D01*
X158938084Y-77692214D01*
X158988650Y-77644000D01*
X159057257Y-77630776D01*
X159122122Y-77656744D01*
X159162651Y-77713657D01*
X159169463Y-77755577D01*
X159165517Y-78114555D01*
X159162579Y-78381706D01*
X159162577Y-78381709D01*
X159159833Y-78631259D01*
X159159834Y-78631260D01*
X159151835Y-79358699D01*
X159144598Y-80016936D01*
X159144517Y-80024275D01*
X159144510Y-80025082D01*
X159144511Y-80025083D01*
X159144510Y-80025262D01*
X159144503Y-80026625D01*
X159144503Y-80026732D01*
X159144502Y-80026731D01*
X159144500Y-80027504D01*
X159144500Y-87883469D01*
X159124815Y-87950508D01*
X159072011Y-87996263D01*
X159002853Y-88006207D01*
X158988410Y-88003244D01*
X158974435Y-87999500D01*
X158875565Y-87999500D01*
X158780062Y-88025090D01*
X158780060Y-88025091D01*
X158780059Y-88025091D01*
X158694436Y-88074526D01*
X158618778Y-88150185D01*
X158616296Y-88147703D01*
X158572763Y-88179385D01*
X158503011Y-88183430D01*
X158443514Y-88149892D01*
X158443222Y-88150185D01*
X158442174Y-88149137D01*
X158442145Y-88149121D01*
X158442060Y-88149023D01*
X158367563Y-88074526D01*
X158367562Y-88074525D01*
X158281938Y-88025090D01*
X158186435Y-87999500D01*
X158087565Y-87999500D01*
X157992062Y-88025090D01*
X157992060Y-88025091D01*
X157992059Y-88025091D01*
X157906436Y-88074526D01*
X157856181Y-88124782D01*
X157794858Y-88158267D01*
X157725166Y-88153283D01*
X157680819Y-88124782D01*
X157630563Y-88074526D01*
X157630562Y-88074525D01*
X157544938Y-88025090D01*
X157449435Y-87999500D01*
X157350565Y-87999500D01*
X157255062Y-88025090D01*
X157255060Y-88025091D01*
X157255059Y-88025091D01*
X157169436Y-88074526D01*
X157099526Y-88144436D01*
X157050091Y-88230059D01*
X157050091Y-88230060D01*
X157050090Y-88230062D01*
X157024500Y-88325565D01*
X157024500Y-88424435D01*
X157050090Y-88519938D01*
X157050091Y-88519939D01*
X157050091Y-88519940D01*
X157099526Y-88605563D01*
X157106282Y-88612319D01*
X157139767Y-88673642D01*
X157134783Y-88743334D01*
X157106282Y-88787681D01*
X157099526Y-88794436D01*
X157050091Y-88880059D01*
X157050091Y-88880060D01*
X157050090Y-88880062D01*
X157024500Y-88975565D01*
X157024500Y-89074435D01*
X157050090Y-89169938D01*
X157099525Y-89255562D01*
X157169438Y-89325475D01*
X157255062Y-89374910D01*
X157350565Y-89400500D01*
X157350567Y-89400500D01*
X157449432Y-89400500D01*
X157449435Y-89400500D01*
X157544938Y-89374910D01*
X157630562Y-89325475D01*
X157680819Y-89275218D01*
X157742142Y-89241733D01*
X157811834Y-89246717D01*
X157856181Y-89275218D01*
X157906438Y-89325475D01*
X157992062Y-89374910D01*
X158087565Y-89400500D01*
X158087567Y-89400500D01*
X158186432Y-89400500D01*
X158186435Y-89400500D01*
X158281938Y-89374910D01*
X158367562Y-89325475D01*
X158437475Y-89255562D01*
X158437475Y-89255561D01*
X158443222Y-89249815D01*
X158445754Y-89252347D01*
X158488791Y-89220774D01*
X158558528Y-89216463D01*
X158618580Y-89250012D01*
X158618778Y-89249815D01*
X158619474Y-89250511D01*
X158619524Y-89250539D01*
X158619666Y-89250703D01*
X158624525Y-89255562D01*
X158694438Y-89325475D01*
X158780062Y-89374910D01*
X158875565Y-89400500D01*
X158875567Y-89400500D01*
X158974431Y-89400500D01*
X158974435Y-89400500D01*
X158988407Y-89396756D01*
X159058252Y-89398417D01*
X159116116Y-89437577D01*
X159143623Y-89501805D01*
X159144500Y-89516530D01*
X159144500Y-89833469D01*
X159124815Y-89900508D01*
X159072011Y-89946263D01*
X159002853Y-89956207D01*
X158988410Y-89953244D01*
X158974435Y-89949500D01*
X158875565Y-89949500D01*
X158780062Y-89975090D01*
X158780060Y-89975091D01*
X158780059Y-89975091D01*
X158694436Y-90024526D01*
X158618778Y-90100185D01*
X158616296Y-90097703D01*
X158572763Y-90129385D01*
X158503011Y-90133430D01*
X158443514Y-90099892D01*
X158443222Y-90100185D01*
X158442174Y-90099137D01*
X158442145Y-90099121D01*
X158442060Y-90099023D01*
X158367563Y-90024526D01*
X158367562Y-90024525D01*
X158281938Y-89975090D01*
X158186435Y-89949500D01*
X158087565Y-89949500D01*
X157992062Y-89975090D01*
X157992060Y-89975091D01*
X157992059Y-89975091D01*
X157906436Y-90024526D01*
X157856181Y-90074782D01*
X157794858Y-90108267D01*
X157725166Y-90103283D01*
X157680819Y-90074782D01*
X157630563Y-90024526D01*
X157630562Y-90024525D01*
X157544938Y-89975090D01*
X157449435Y-89949500D01*
X157350565Y-89949500D01*
X157255062Y-89975090D01*
X157255060Y-89975091D01*
X157255059Y-89975091D01*
X157169436Y-90024526D01*
X157099526Y-90094436D01*
X157050091Y-90180059D01*
X157050091Y-90180060D01*
X157050090Y-90180062D01*
X157024500Y-90275565D01*
X157024500Y-90374435D01*
X157050090Y-90469938D01*
X157050091Y-90469939D01*
X157050091Y-90469940D01*
X157063337Y-90492882D01*
X157092327Y-90543095D01*
X157099526Y-90555563D01*
X157106282Y-90562319D01*
X157139767Y-90623642D01*
X157134783Y-90693334D01*
X157106282Y-90737681D01*
X157099526Y-90744436D01*
X157050091Y-90830059D01*
X157050091Y-90830060D01*
X157050090Y-90830062D01*
X157024500Y-90925565D01*
X157024500Y-91024435D01*
X157050090Y-91119938D01*
X157099525Y-91205562D01*
X157169438Y-91275475D01*
X157255062Y-91324910D01*
X157350565Y-91350500D01*
X157350567Y-91350500D01*
X157449432Y-91350500D01*
X157449435Y-91350500D01*
X157544938Y-91324910D01*
X157630562Y-91275475D01*
X157680819Y-91225218D01*
X157742142Y-91191733D01*
X157811834Y-91196717D01*
X157856181Y-91225218D01*
X157906438Y-91275475D01*
X157992062Y-91324910D01*
X158087565Y-91350500D01*
X158087567Y-91350500D01*
X158186432Y-91350500D01*
X158186435Y-91350500D01*
X158281938Y-91324910D01*
X158367562Y-91275475D01*
X158437475Y-91205562D01*
X158437475Y-91205561D01*
X158443222Y-91199815D01*
X158445754Y-91202347D01*
X158488791Y-91170774D01*
X158558528Y-91166463D01*
X158618580Y-91200012D01*
X158618778Y-91199815D01*
X158619474Y-91200511D01*
X158619524Y-91200539D01*
X158619666Y-91200703D01*
X158624525Y-91205562D01*
X158694438Y-91275475D01*
X158780062Y-91324910D01*
X158875565Y-91350500D01*
X158875567Y-91350500D01*
X158974431Y-91350500D01*
X158974435Y-91350500D01*
X158988407Y-91346756D01*
X159058252Y-91348417D01*
X159116116Y-91387577D01*
X159143623Y-91451805D01*
X159144500Y-91466530D01*
X159144500Y-91955991D01*
X159149197Y-91999670D01*
X159160397Y-92051158D01*
X159162890Y-92061356D01*
X159162891Y-92061359D01*
X159205899Y-92142067D01*
X159205901Y-92142070D01*
X159251660Y-92194879D01*
X159269242Y-92212823D01*
X159269246Y-92212827D01*
X159269247Y-92212828D01*
X159269249Y-92212829D01*
X159349059Y-92257472D01*
X159349063Y-92257474D01*
X159416102Y-92277159D01*
X159474000Y-92285484D01*
X159474004Y-92285484D01*
X160650598Y-92285484D01*
X160717637Y-92305169D01*
X160763392Y-92357973D01*
X160773336Y-92427131D01*
X160744311Y-92490687D01*
X160712596Y-92516872D01*
X160708039Y-92519502D01*
X160708034Y-92519506D01*
X160619506Y-92608034D01*
X160619504Y-92608037D01*
X160556905Y-92716463D01*
X160555061Y-92723345D01*
X160524500Y-92837399D01*
X160524500Y-92962601D01*
X160556905Y-93083536D01*
X160619505Y-93191964D01*
X160708036Y-93280495D01*
X160816464Y-93343095D01*
X160937399Y-93375500D01*
X160937401Y-93375500D01*
X161062599Y-93375500D01*
X161062601Y-93375500D01*
X161183536Y-93343095D01*
X161205364Y-93330493D01*
X161219753Y-93322186D01*
X161287653Y-93305713D01*
X161353680Y-93328566D01*
X161369433Y-93341892D01*
X161408036Y-93380495D01*
X161516464Y-93443095D01*
X161637399Y-93475500D01*
X161637401Y-93475500D01*
X161762599Y-93475500D01*
X161762601Y-93475500D01*
X161883536Y-93443095D01*
X161991964Y-93380495D01*
X162037319Y-93335140D01*
X162098642Y-93301655D01*
X162168334Y-93306639D01*
X162212681Y-93335140D01*
X162258036Y-93380495D01*
X162366464Y-93443095D01*
X162487399Y-93475500D01*
X162487401Y-93475500D01*
X162612599Y-93475500D01*
X162612601Y-93475500D01*
X162733536Y-93443095D01*
X162841964Y-93380495D01*
X162912319Y-93310140D01*
X162973642Y-93276655D01*
X163043334Y-93281639D01*
X163087681Y-93310140D01*
X163158036Y-93380495D01*
X163266464Y-93443095D01*
X163387399Y-93475500D01*
X163387401Y-93475500D01*
X163512599Y-93475500D01*
X163512601Y-93475500D01*
X163633536Y-93443095D01*
X163741964Y-93380495D01*
X163787319Y-93335140D01*
X163848642Y-93301655D01*
X163918334Y-93306639D01*
X163950324Y-93327198D01*
X163951591Y-93325549D01*
X163958032Y-93330491D01*
X163958036Y-93330495D01*
X164066464Y-93393095D01*
X164187399Y-93425500D01*
X164187401Y-93425500D01*
X164312599Y-93425500D01*
X164312601Y-93425500D01*
X164433536Y-93393095D01*
X164541964Y-93330495D01*
X164630495Y-93241964D01*
X164693095Y-93133536D01*
X164725500Y-93012601D01*
X164725500Y-92887399D01*
X164693095Y-92766464D01*
X164630495Y-92658036D01*
X164541964Y-92569505D01*
X164450798Y-92516871D01*
X164402583Y-92466305D01*
X164389359Y-92397698D01*
X164415327Y-92332833D01*
X164472241Y-92292304D01*
X164512798Y-92285484D01*
X165476253Y-92285484D01*
X165484824Y-92284566D01*
X165512307Y-92281626D01*
X165581059Y-92294066D01*
X165632173Y-92341701D01*
X165649500Y-92404922D01*
X165649500Y-103676000D01*
X165629815Y-103743039D01*
X165577011Y-103788794D01*
X165525500Y-103800000D01*
X128774000Y-103800000D01*
X128706961Y-103780315D01*
X128661206Y-103727511D01*
X128650000Y-103676000D01*
X128650000Y-102737399D01*
X144399500Y-102737399D01*
X144399500Y-102862601D01*
X144431905Y-102983536D01*
X144494505Y-103091964D01*
X144583036Y-103180495D01*
X144691464Y-103243095D01*
X144812399Y-103275500D01*
X144812401Y-103275500D01*
X144937599Y-103275500D01*
X144937601Y-103275500D01*
X145058536Y-103243095D01*
X145166964Y-103180495D01*
X145255495Y-103091964D01*
X145255495Y-103091963D01*
X145261242Y-103086217D01*
X145263421Y-103088396D01*
X145308035Y-103055811D01*
X145377780Y-103051646D01*
X145438706Y-103085849D01*
X145440756Y-103088215D01*
X145444505Y-103091964D01*
X145533036Y-103180495D01*
X145641464Y-103243095D01*
X145762399Y-103275500D01*
X145762401Y-103275500D01*
X145887599Y-103275500D01*
X145887601Y-103275500D01*
X146008536Y-103243095D01*
X146116964Y-103180495D01*
X146205495Y-103091964D01*
X146268095Y-102983536D01*
X146300500Y-102862601D01*
X146300500Y-102737399D01*
X146268095Y-102616464D01*
X146205495Y-102508036D01*
X146116964Y-102419505D01*
X146008536Y-102356905D01*
X146008537Y-102356905D01*
X145968224Y-102346103D01*
X145887601Y-102324500D01*
X145762399Y-102324500D01*
X145681775Y-102346103D01*
X145641463Y-102356905D01*
X145533037Y-102419504D01*
X145533034Y-102419506D01*
X145438758Y-102513783D01*
X145436582Y-102511607D01*
X145391925Y-102544202D01*
X145322178Y-102548343D01*
X145261264Y-102514119D01*
X145259226Y-102511767D01*
X145166965Y-102419506D01*
X145166964Y-102419505D01*
X145058536Y-102356905D01*
X145058537Y-102356905D01*
X145018224Y-102346103D01*
X144937601Y-102324500D01*
X144812399Y-102324500D01*
X144731775Y-102346103D01*
X144691463Y-102356905D01*
X144583037Y-102419504D01*
X144583034Y-102419506D01*
X144494506Y-102508034D01*
X144494504Y-102508037D01*
X144431905Y-102616463D01*
X144431905Y-102616464D01*
X144399500Y-102737399D01*
X128650000Y-102737399D01*
X128650000Y-100481995D01*
X130099500Y-100481995D01*
X130099500Y-100718004D01*
X130099501Y-100718020D01*
X130130306Y-100952010D01*
X130191394Y-101179993D01*
X130281714Y-101398045D01*
X130281719Y-101398056D01*
X130302513Y-101434071D01*
X130399727Y-101602450D01*
X130399729Y-101602453D01*
X130399730Y-101602454D01*
X130543406Y-101789697D01*
X130543412Y-101789704D01*
X130710295Y-101956587D01*
X130710302Y-101956593D01*
X130793588Y-102020500D01*
X130897550Y-102100273D01*
X131028918Y-102176118D01*
X131101943Y-102218280D01*
X131101948Y-102218282D01*
X131101951Y-102218284D01*
X131320007Y-102308606D01*
X131547986Y-102369693D01*
X131781989Y-102400500D01*
X131781996Y-102400500D01*
X132018004Y-102400500D01*
X132018011Y-102400500D01*
X132252014Y-102369693D01*
X132479993Y-102308606D01*
X132698049Y-102218284D01*
X132902450Y-102100273D01*
X133089699Y-101956592D01*
X133256592Y-101789699D01*
X133400273Y-101602450D01*
X133497487Y-101434071D01*
X152949499Y-101434071D01*
X152974497Y-101559738D01*
X152974499Y-101559744D01*
X153023533Y-101678124D01*
X153023538Y-101678133D01*
X153094723Y-101784668D01*
X153094726Y-101784672D01*
X153185327Y-101875273D01*
X153185331Y-101875276D01*
X153291866Y-101946461D01*
X153291872Y-101946464D01*
X153291873Y-101946465D01*
X153410256Y-101995501D01*
X153410260Y-101995501D01*
X153410261Y-101995502D01*
X153535928Y-102020500D01*
X153535931Y-102020500D01*
X153664071Y-102020500D01*
X153748615Y-102003682D01*
X153789744Y-101995501D01*
X153908127Y-101946465D01*
X154014669Y-101875276D01*
X154105276Y-101784669D01*
X154176465Y-101678127D01*
X154225501Y-101559744D01*
X154250500Y-101434071D01*
X155249499Y-101434071D01*
X155274497Y-101559738D01*
X155274499Y-101559744D01*
X155323533Y-101678124D01*
X155323538Y-101678133D01*
X155394723Y-101784668D01*
X155394726Y-101784672D01*
X155485327Y-101875273D01*
X155485331Y-101875276D01*
X155591866Y-101946461D01*
X155591872Y-101946464D01*
X155591873Y-101946465D01*
X155710256Y-101995501D01*
X155710260Y-101995501D01*
X155710261Y-101995502D01*
X155835928Y-102020500D01*
X155835931Y-102020500D01*
X155964071Y-102020500D01*
X156048615Y-102003682D01*
X156089744Y-101995501D01*
X156208127Y-101946465D01*
X156314669Y-101875276D01*
X156405276Y-101784669D01*
X156476465Y-101678127D01*
X156525501Y-101559744D01*
X156550500Y-101434069D01*
X156550500Y-101305931D01*
X156550500Y-101305928D01*
X156525502Y-101180261D01*
X156525501Y-101180260D01*
X156525501Y-101180256D01*
X156476465Y-101061873D01*
X156476464Y-101061872D01*
X156476461Y-101061866D01*
X156405276Y-100955331D01*
X156405273Y-100955327D01*
X156314672Y-100864726D01*
X156314668Y-100864723D01*
X156208133Y-100793538D01*
X156208124Y-100793533D01*
X156089744Y-100744499D01*
X156089738Y-100744497D01*
X155964071Y-100719500D01*
X155964069Y-100719500D01*
X155835931Y-100719500D01*
X155835929Y-100719500D01*
X155710261Y-100744497D01*
X155710255Y-100744499D01*
X155591875Y-100793533D01*
X155591866Y-100793538D01*
X155485331Y-100864723D01*
X155485327Y-100864726D01*
X155394726Y-100955327D01*
X155394723Y-100955331D01*
X155323538Y-101061866D01*
X155323533Y-101061875D01*
X155274499Y-101180255D01*
X155274497Y-101180261D01*
X155249500Y-101305928D01*
X155249500Y-101305931D01*
X155249500Y-101434069D01*
X155249500Y-101434071D01*
X155249499Y-101434071D01*
X154250500Y-101434071D01*
X154250500Y-101434069D01*
X154250500Y-101305931D01*
X154250500Y-101305928D01*
X154225502Y-101180261D01*
X154225501Y-101180260D01*
X154225501Y-101180256D01*
X154176465Y-101061873D01*
X154176464Y-101061872D01*
X154176461Y-101061866D01*
X154105276Y-100955331D01*
X154105273Y-100955327D01*
X154014672Y-100864726D01*
X154014668Y-100864723D01*
X153908133Y-100793538D01*
X153908124Y-100793533D01*
X153789744Y-100744499D01*
X153789738Y-100744497D01*
X153664071Y-100719500D01*
X153664069Y-100719500D01*
X153535931Y-100719500D01*
X153535929Y-100719500D01*
X153410261Y-100744497D01*
X153410255Y-100744499D01*
X153291875Y-100793533D01*
X153291866Y-100793538D01*
X153185331Y-100864723D01*
X153185327Y-100864726D01*
X153094726Y-100955327D01*
X153094723Y-100955331D01*
X153023538Y-101061866D01*
X153023533Y-101061875D01*
X152974499Y-101180255D01*
X152974497Y-101180261D01*
X152949500Y-101305928D01*
X152949500Y-101305931D01*
X152949500Y-101434069D01*
X152949500Y-101434071D01*
X152949499Y-101434071D01*
X133497487Y-101434071D01*
X133518284Y-101398049D01*
X133608606Y-101179993D01*
X133669693Y-100952014D01*
X133700500Y-100718011D01*
X133700500Y-100682399D01*
X146174500Y-100682399D01*
X146174500Y-100807601D01*
X146206905Y-100928536D01*
X146269505Y-101036964D01*
X146358036Y-101125495D01*
X146466464Y-101188095D01*
X146587399Y-101220500D01*
X146587401Y-101220500D01*
X146712599Y-101220500D01*
X146712601Y-101220500D01*
X146833536Y-101188095D01*
X146941964Y-101125495D01*
X147030495Y-101036964D01*
X147093095Y-100928536D01*
X147125500Y-100807601D01*
X147125500Y-100682399D01*
X147125500Y-100682109D01*
X147145185Y-100615070D01*
X147197989Y-100569315D01*
X147267147Y-100559371D01*
X147330703Y-100588396D01*
X147356888Y-100620110D01*
X147369503Y-100641962D01*
X147369505Y-100641964D01*
X147458036Y-100730495D01*
X147566464Y-100793095D01*
X147687399Y-100825500D01*
X147687401Y-100825500D01*
X147812599Y-100825500D01*
X147812601Y-100825500D01*
X147933536Y-100793095D01*
X148041964Y-100730495D01*
X148130495Y-100641964D01*
X148193095Y-100533536D01*
X148225500Y-100412601D01*
X148225500Y-100287399D01*
X148974500Y-100287399D01*
X148974500Y-100412601D01*
X149006905Y-100533536D01*
X149069505Y-100641964D01*
X149158036Y-100730495D01*
X149266464Y-100793095D01*
X149387399Y-100825500D01*
X149387401Y-100825500D01*
X149512599Y-100825500D01*
X149512601Y-100825500D01*
X149633536Y-100793095D01*
X149741964Y-100730495D01*
X149830495Y-100641964D01*
X149893095Y-100533536D01*
X149925500Y-100412601D01*
X149925500Y-100287399D01*
X149893095Y-100166464D01*
X149830495Y-100058036D01*
X149779858Y-100007399D01*
X150774500Y-100007399D01*
X150774500Y-100132601D01*
X150806905Y-100253536D01*
X150869505Y-100361964D01*
X150958036Y-100450495D01*
X151066464Y-100513095D01*
X151187399Y-100545500D01*
X151187401Y-100545500D01*
X151312599Y-100545500D01*
X151312601Y-100545500D01*
X151433536Y-100513095D01*
X151487404Y-100481995D01*
X160599500Y-100481995D01*
X160599500Y-100718004D01*
X160599501Y-100718020D01*
X160630306Y-100952010D01*
X160691394Y-101179993D01*
X160781714Y-101398045D01*
X160781719Y-101398056D01*
X160802513Y-101434071D01*
X160899727Y-101602450D01*
X160899729Y-101602453D01*
X160899730Y-101602454D01*
X161043406Y-101789697D01*
X161043412Y-101789704D01*
X161210295Y-101956587D01*
X161210302Y-101956593D01*
X161293588Y-102020500D01*
X161397550Y-102100273D01*
X161528918Y-102176118D01*
X161601943Y-102218280D01*
X161601948Y-102218282D01*
X161601951Y-102218284D01*
X161820007Y-102308606D01*
X162047986Y-102369693D01*
X162281989Y-102400500D01*
X162281996Y-102400500D01*
X162518004Y-102400500D01*
X162518011Y-102400500D01*
X162752014Y-102369693D01*
X162979993Y-102308606D01*
X163198049Y-102218284D01*
X163402450Y-102100273D01*
X163589699Y-101956592D01*
X163756592Y-101789699D01*
X163900273Y-101602450D01*
X164018284Y-101398049D01*
X164108606Y-101179993D01*
X164169693Y-100952014D01*
X164200500Y-100718011D01*
X164200500Y-100481989D01*
X164169693Y-100247986D01*
X164108606Y-100020007D01*
X164018284Y-99801951D01*
X164018282Y-99801948D01*
X164018280Y-99801943D01*
X163976118Y-99728918D01*
X163900273Y-99597550D01*
X163756592Y-99410301D01*
X163756587Y-99410295D01*
X163589704Y-99243412D01*
X163589697Y-99243406D01*
X163402454Y-99099730D01*
X163402453Y-99099729D01*
X163402450Y-99099727D01*
X163320957Y-99052677D01*
X163198056Y-98981719D01*
X163198045Y-98981714D01*
X162979993Y-98891394D01*
X162752010Y-98830306D01*
X162518020Y-98799501D01*
X162518017Y-98799500D01*
X162518011Y-98799500D01*
X162281989Y-98799500D01*
X162281983Y-98799500D01*
X162281979Y-98799501D01*
X162047989Y-98830306D01*
X161820006Y-98891394D01*
X161601954Y-98981714D01*
X161601943Y-98981719D01*
X161397545Y-99099730D01*
X161210302Y-99243406D01*
X161210295Y-99243412D01*
X161043412Y-99410295D01*
X161043406Y-99410302D01*
X160899730Y-99597545D01*
X160781719Y-99801943D01*
X160781714Y-99801954D01*
X160691394Y-100020006D01*
X160630306Y-100247989D01*
X160599501Y-100481979D01*
X160599500Y-100481995D01*
X151487404Y-100481995D01*
X151541964Y-100450495D01*
X151630495Y-100361964D01*
X151693095Y-100253536D01*
X151725500Y-100132601D01*
X151725500Y-100007399D01*
X151693095Y-99886464D01*
X151630495Y-99778036D01*
X151541964Y-99689505D01*
X151433536Y-99626905D01*
X151433537Y-99626905D01*
X151393224Y-99616103D01*
X151312601Y-99594500D01*
X151187399Y-99594500D01*
X151106775Y-99616103D01*
X151066463Y-99626905D01*
X150958037Y-99689504D01*
X150958034Y-99689506D01*
X150869506Y-99778034D01*
X150869504Y-99778037D01*
X150806905Y-99886463D01*
X150806905Y-99886464D01*
X150774500Y-100007399D01*
X149779858Y-100007399D01*
X149741964Y-99969505D01*
X149633536Y-99906905D01*
X149633537Y-99906905D01*
X149557250Y-99886464D01*
X149512601Y-99874500D01*
X149387399Y-99874500D01*
X149342750Y-99886464D01*
X149266463Y-99906905D01*
X149158037Y-99969504D01*
X149158034Y-99969506D01*
X149069506Y-100058034D01*
X149069504Y-100058037D01*
X149006905Y-100166463D01*
X149006905Y-100166464D01*
X148974500Y-100287399D01*
X148225500Y-100287399D01*
X148193095Y-100166464D01*
X148130495Y-100058036D01*
X148041964Y-99969505D01*
X147933536Y-99906905D01*
X147933537Y-99906905D01*
X147857250Y-99886464D01*
X147812601Y-99874500D01*
X147687399Y-99874500D01*
X147642750Y-99886464D01*
X147566463Y-99906905D01*
X147458037Y-99969504D01*
X147458034Y-99969506D01*
X147369506Y-100058034D01*
X147369504Y-100058037D01*
X147306905Y-100166463D01*
X147274500Y-100287400D01*
X147274500Y-100412890D01*
X147254815Y-100479929D01*
X147202011Y-100525684D01*
X147132853Y-100535628D01*
X147069297Y-100506603D01*
X147043113Y-100474891D01*
X147030495Y-100453036D01*
X146941965Y-100364506D01*
X146941964Y-100364505D01*
X146833536Y-100301905D01*
X146833537Y-100301905D01*
X146793224Y-100291103D01*
X146712601Y-100269500D01*
X146587399Y-100269500D01*
X146506775Y-100291103D01*
X146466463Y-100301905D01*
X146358037Y-100364504D01*
X146358034Y-100364506D01*
X146269506Y-100453034D01*
X146269504Y-100453037D01*
X146206905Y-100561463D01*
X146206905Y-100561464D01*
X146174500Y-100682399D01*
X133700500Y-100682399D01*
X133700500Y-100481989D01*
X133669693Y-100247986D01*
X133608606Y-100020007D01*
X133518284Y-99801951D01*
X133518282Y-99801948D01*
X133518280Y-99801943D01*
X133476118Y-99728918D01*
X133400273Y-99597550D01*
X133256592Y-99410301D01*
X133256587Y-99410295D01*
X133178691Y-99332399D01*
X135324500Y-99332399D01*
X135324500Y-99457601D01*
X135356905Y-99578536D01*
X135419505Y-99686964D01*
X135508036Y-99775495D01*
X135616464Y-99838095D01*
X135737399Y-99870500D01*
X135737401Y-99870500D01*
X135862599Y-99870500D01*
X135862601Y-99870500D01*
X135983536Y-99838095D01*
X136091964Y-99775495D01*
X136180495Y-99686964D01*
X136243095Y-99578536D01*
X136275500Y-99457601D01*
X136275500Y-99332399D01*
X136243095Y-99211464D01*
X136180495Y-99103036D01*
X136091964Y-99014505D01*
X135983536Y-98951905D01*
X135983537Y-98951905D01*
X135943224Y-98941103D01*
X135862601Y-98919500D01*
X135737399Y-98919500D01*
X135656775Y-98941103D01*
X135616463Y-98951905D01*
X135508037Y-99014504D01*
X135508034Y-99014506D01*
X135419506Y-99103034D01*
X135419504Y-99103037D01*
X135356905Y-99211463D01*
X135356905Y-99211464D01*
X135324500Y-99332399D01*
X133178691Y-99332399D01*
X133089704Y-99243412D01*
X133089697Y-99243406D01*
X132902454Y-99099730D01*
X132902453Y-99099729D01*
X132902450Y-99099727D01*
X132820957Y-99052677D01*
X132698056Y-98981719D01*
X132698045Y-98981714D01*
X132479993Y-98891394D01*
X132252010Y-98830306D01*
X132018020Y-98799501D01*
X132018017Y-98799500D01*
X132018011Y-98799500D01*
X131781989Y-98799500D01*
X131781983Y-98799500D01*
X131781979Y-98799501D01*
X131547989Y-98830306D01*
X131320006Y-98891394D01*
X131101954Y-98981714D01*
X131101943Y-98981719D01*
X130897545Y-99099730D01*
X130710302Y-99243406D01*
X130710295Y-99243412D01*
X130543412Y-99410295D01*
X130543406Y-99410302D01*
X130399730Y-99597545D01*
X130281719Y-99801943D01*
X130281714Y-99801954D01*
X130191394Y-100020006D01*
X130130306Y-100247989D01*
X130099501Y-100481979D01*
X130099500Y-100481995D01*
X128650000Y-100481995D01*
X128650000Y-97137399D01*
X142974500Y-97137399D01*
X142974500Y-97262601D01*
X143006905Y-97383536D01*
X143069505Y-97491964D01*
X143158036Y-97580495D01*
X143266464Y-97643095D01*
X143387399Y-97675500D01*
X143387401Y-97675500D01*
X143506013Y-97675500D01*
X143573052Y-97695185D01*
X143618807Y-97747989D01*
X143625786Y-97767400D01*
X143656905Y-97883536D01*
X143719505Y-97991964D01*
X143808036Y-98080495D01*
X143916464Y-98143095D01*
X144037399Y-98175500D01*
X144037401Y-98175500D01*
X144162599Y-98175500D01*
X144162601Y-98175500D01*
X144283536Y-98143095D01*
X144391964Y-98080495D01*
X144480495Y-97991964D01*
X144500451Y-97957399D01*
X145624500Y-97957399D01*
X145624500Y-98082601D01*
X145656905Y-98203536D01*
X145719505Y-98311964D01*
X145808036Y-98400495D01*
X145916464Y-98463095D01*
X146037399Y-98495500D01*
X146037401Y-98495500D01*
X146162599Y-98495500D01*
X146162601Y-98495500D01*
X146283536Y-98463095D01*
X146391964Y-98400495D01*
X146480495Y-98311964D01*
X146543095Y-98203536D01*
X146575500Y-98082601D01*
X146575500Y-97957399D01*
X146543095Y-97836464D01*
X146480495Y-97728036D01*
X146391964Y-97639505D01*
X146283536Y-97576905D01*
X146283537Y-97576905D01*
X146213337Y-97558095D01*
X146162601Y-97544500D01*
X146037399Y-97544500D01*
X145986663Y-97558095D01*
X145916463Y-97576905D01*
X145808037Y-97639504D01*
X145808034Y-97639506D01*
X145719506Y-97728034D01*
X145719504Y-97728037D01*
X145656905Y-97836463D01*
X145656905Y-97836464D01*
X145624500Y-97957399D01*
X144500451Y-97957399D01*
X144543095Y-97883536D01*
X144575500Y-97762601D01*
X144575500Y-97637399D01*
X144543095Y-97516464D01*
X144480495Y-97408036D01*
X144391964Y-97319505D01*
X144283536Y-97256905D01*
X144283537Y-97256905D01*
X144231997Y-97243095D01*
X144162601Y-97224500D01*
X144043987Y-97224500D01*
X143976948Y-97204815D01*
X143931193Y-97152011D01*
X143924212Y-97132594D01*
X143893095Y-97016464D01*
X143830495Y-96908036D01*
X143741964Y-96819505D01*
X143633536Y-96756905D01*
X143633537Y-96756905D01*
X143590973Y-96745500D01*
X143512601Y-96724500D01*
X143387399Y-96724500D01*
X143309027Y-96745500D01*
X143266463Y-96756905D01*
X143158037Y-96819504D01*
X143158034Y-96819506D01*
X143069506Y-96908034D01*
X143069504Y-96908037D01*
X143006905Y-97016463D01*
X143006905Y-97016464D01*
X142974500Y-97137399D01*
X128650000Y-97137399D01*
X128650000Y-96207399D01*
X138349500Y-96207399D01*
X138349500Y-96332601D01*
X138381905Y-96453536D01*
X138444505Y-96561964D01*
X138533036Y-96650495D01*
X138641464Y-96713095D01*
X138762399Y-96745500D01*
X138762401Y-96745500D01*
X138887599Y-96745500D01*
X138887601Y-96745500D01*
X139008536Y-96713095D01*
X139116964Y-96650495D01*
X139205495Y-96561964D01*
X139268095Y-96453536D01*
X139300500Y-96332601D01*
X139300500Y-96207399D01*
X139268095Y-96086464D01*
X139205495Y-95978036D01*
X139116964Y-95889505D01*
X139116963Y-95889504D01*
X139116960Y-95889502D01*
X139112035Y-95886659D01*
X139008536Y-95826905D01*
X139008537Y-95826905D01*
X138968224Y-95816103D01*
X138887601Y-95794500D01*
X138762399Y-95794500D01*
X138681775Y-95816103D01*
X138641463Y-95826905D01*
X138533037Y-95889504D01*
X138533034Y-95889506D01*
X138444506Y-95978034D01*
X138444504Y-95978037D01*
X138381905Y-96086463D01*
X138381905Y-96086464D01*
X138349500Y-96207399D01*
X128650000Y-96207399D01*
X128650000Y-95187399D01*
X129374500Y-95187399D01*
X129374500Y-95312601D01*
X129406905Y-95433536D01*
X129469505Y-95541964D01*
X129558036Y-95630495D01*
X129666464Y-95693095D01*
X129787399Y-95725500D01*
X129787401Y-95725500D01*
X129912599Y-95725500D01*
X129912601Y-95725500D01*
X130033536Y-95693095D01*
X130141964Y-95630495D01*
X130230495Y-95541964D01*
X130293095Y-95433536D01*
X130306797Y-95382400D01*
X130306797Y-95382399D01*
X134624500Y-95382399D01*
X134624500Y-95507601D01*
X134656905Y-95628536D01*
X134719505Y-95736964D01*
X134808036Y-95825495D01*
X134916464Y-95888095D01*
X135037399Y-95920500D01*
X135037401Y-95920500D01*
X135162599Y-95920500D01*
X135162601Y-95920500D01*
X135283536Y-95888095D01*
X135391964Y-95825495D01*
X135430060Y-95787399D01*
X142874500Y-95787399D01*
X142874500Y-95912601D01*
X142906905Y-96033536D01*
X142969505Y-96141964D01*
X143058036Y-96230495D01*
X143166464Y-96293095D01*
X143287399Y-96325500D01*
X143287401Y-96325500D01*
X143412599Y-96325500D01*
X143412601Y-96325500D01*
X143533536Y-96293095D01*
X143641964Y-96230495D01*
X143730495Y-96141964D01*
X143793095Y-96033536D01*
X143825500Y-95912601D01*
X143825500Y-95787399D01*
X143793095Y-95666464D01*
X143730495Y-95558036D01*
X143641964Y-95469505D01*
X143533536Y-95406905D01*
X143533537Y-95406905D01*
X143493224Y-95396103D01*
X143412601Y-95374500D01*
X143287399Y-95374500D01*
X143206775Y-95396103D01*
X143166463Y-95406905D01*
X143058037Y-95469504D01*
X143058034Y-95469506D01*
X142969506Y-95558034D01*
X142969504Y-95558037D01*
X142906905Y-95666463D01*
X142906905Y-95666464D01*
X142874500Y-95787399D01*
X135430060Y-95787399D01*
X135480495Y-95736964D01*
X135543095Y-95628536D01*
X135575500Y-95507601D01*
X135575500Y-95382399D01*
X135543095Y-95261464D01*
X135529201Y-95237399D01*
X146274500Y-95237399D01*
X146274500Y-95362601D01*
X146306905Y-95483536D01*
X146369505Y-95591964D01*
X146458036Y-95680495D01*
X146566464Y-95743095D01*
X146687399Y-95775500D01*
X146687401Y-95775500D01*
X146695458Y-95776561D01*
X146695131Y-95779039D01*
X146750115Y-95795185D01*
X146795870Y-95847989D01*
X146805814Y-95917147D01*
X146802851Y-95931591D01*
X146774500Y-96037399D01*
X146774500Y-96162601D01*
X146806905Y-96283536D01*
X146869505Y-96391964D01*
X146958036Y-96480495D01*
X147066464Y-96543095D01*
X147096065Y-96551026D01*
X147155725Y-96587392D01*
X147186253Y-96650239D01*
X147183745Y-96702893D01*
X147174500Y-96737396D01*
X147174500Y-96737399D01*
X147174500Y-96862601D01*
X147206905Y-96983536D01*
X147269505Y-97091964D01*
X147358036Y-97180495D01*
X147466464Y-97243095D01*
X147587399Y-97275500D01*
X147587401Y-97275500D01*
X147712599Y-97275500D01*
X147712601Y-97275500D01*
X147833536Y-97243095D01*
X147941964Y-97180495D01*
X148030495Y-97091964D01*
X148053338Y-97052399D01*
X152124500Y-97052399D01*
X152124500Y-97177601D01*
X152156905Y-97298536D01*
X152219505Y-97406964D01*
X152308036Y-97495495D01*
X152416464Y-97558095D01*
X152537399Y-97590500D01*
X152537401Y-97590500D01*
X152662599Y-97590500D01*
X152662601Y-97590500D01*
X152783536Y-97558095D01*
X152891964Y-97495495D01*
X152980495Y-97406964D01*
X153043095Y-97298536D01*
X153075500Y-97177601D01*
X153075500Y-97052399D01*
X153043095Y-96931464D01*
X152980495Y-96823036D01*
X152891964Y-96734505D01*
X152783536Y-96671905D01*
X152783537Y-96671905D01*
X152743224Y-96661103D01*
X152662601Y-96639500D01*
X152537399Y-96639500D01*
X152456775Y-96661103D01*
X152416463Y-96671905D01*
X152308037Y-96734504D01*
X152308034Y-96734506D01*
X152219506Y-96823034D01*
X152219504Y-96823037D01*
X152156905Y-96931463D01*
X152156905Y-96931464D01*
X152124500Y-97052399D01*
X148053338Y-97052399D01*
X148093095Y-96983536D01*
X148125500Y-96862601D01*
X148125500Y-96737399D01*
X148093095Y-96616464D01*
X148030495Y-96508036D01*
X147941964Y-96419505D01*
X147833536Y-96356905D01*
X147833534Y-96356904D01*
X147803932Y-96348972D01*
X147744273Y-96312606D01*
X147713745Y-96249758D01*
X147716255Y-96197103D01*
X147725499Y-96162603D01*
X147725500Y-96162600D01*
X147725500Y-96037400D01*
X147724465Y-96033536D01*
X147693095Y-95916464D01*
X147630495Y-95808036D01*
X147541964Y-95719505D01*
X147433536Y-95656905D01*
X147433537Y-95656905D01*
X147312598Y-95624499D01*
X147304542Y-95623439D01*
X147304868Y-95620960D01*
X147249885Y-95604815D01*
X147204130Y-95552011D01*
X147194186Y-95482853D01*
X147197149Y-95468406D01*
X147200609Y-95455493D01*
X147225500Y-95362601D01*
X147225500Y-95237399D01*
X147193095Y-95116464D01*
X147164115Y-95066268D01*
X147133014Y-95012399D01*
X151524500Y-95012399D01*
X151524500Y-95137601D01*
X151556905Y-95258536D01*
X151619505Y-95366964D01*
X151708036Y-95455495D01*
X151816464Y-95518095D01*
X151937399Y-95550500D01*
X151937401Y-95550500D01*
X152062599Y-95550500D01*
X152062601Y-95550500D01*
X152183536Y-95518095D01*
X152291964Y-95455495D01*
X152380495Y-95366964D01*
X152443095Y-95258536D01*
X152475500Y-95137601D01*
X152475500Y-95012399D01*
X152443095Y-94891464D01*
X152380495Y-94783036D01*
X152291964Y-94694505D01*
X152183536Y-94631905D01*
X152183537Y-94631905D01*
X152143224Y-94621103D01*
X152062601Y-94599500D01*
X151937399Y-94599500D01*
X151856775Y-94621103D01*
X151816463Y-94631905D01*
X151708037Y-94694504D01*
X151708034Y-94694506D01*
X151619506Y-94783034D01*
X151619504Y-94783037D01*
X151556905Y-94891463D01*
X151549391Y-94919505D01*
X151524500Y-95012399D01*
X147133014Y-95012399D01*
X147130497Y-95008039D01*
X147130496Y-95008037D01*
X147130495Y-95008036D01*
X147041964Y-94919505D01*
X146933536Y-94856905D01*
X146933537Y-94856905D01*
X146893224Y-94846103D01*
X146812601Y-94824500D01*
X146687399Y-94824500D01*
X146606775Y-94846103D01*
X146566463Y-94856905D01*
X146458037Y-94919504D01*
X146458034Y-94919506D01*
X146369506Y-95008034D01*
X146369504Y-95008037D01*
X146306905Y-95116463D01*
X146306905Y-95116464D01*
X146274500Y-95237399D01*
X135529201Y-95237399D01*
X135480495Y-95153036D01*
X135391964Y-95064505D01*
X135283536Y-95001905D01*
X135283537Y-95001905D01*
X135243224Y-94991103D01*
X135162601Y-94969500D01*
X135037399Y-94969500D01*
X134956775Y-94991103D01*
X134916463Y-95001905D01*
X134808037Y-95064504D01*
X134808034Y-95064506D01*
X134719506Y-95153034D01*
X134719504Y-95153037D01*
X134656905Y-95261463D01*
X134656905Y-95261464D01*
X134624500Y-95382399D01*
X130306797Y-95382399D01*
X130317576Y-95342176D01*
X130320933Y-95329643D01*
X130325500Y-95312601D01*
X130325500Y-95187399D01*
X130293095Y-95066464D01*
X130230495Y-94958036D01*
X130141964Y-94869505D01*
X130033536Y-94806905D01*
X130033537Y-94806905D01*
X129993224Y-94796103D01*
X129912601Y-94774500D01*
X129787399Y-94774500D01*
X129706775Y-94796103D01*
X129666463Y-94806905D01*
X129558037Y-94869504D01*
X129558034Y-94869506D01*
X129469506Y-94958034D01*
X129469504Y-94958037D01*
X129406905Y-95066463D01*
X129406905Y-95066464D01*
X129374500Y-95187399D01*
X128650000Y-95187399D01*
X128650000Y-94092399D01*
X154047000Y-94092399D01*
X154047000Y-94217601D01*
X154079405Y-94338536D01*
X154142005Y-94446964D01*
X154230536Y-94535495D01*
X154338964Y-94598095D01*
X154459899Y-94630500D01*
X154459901Y-94630500D01*
X154585099Y-94630500D01*
X154585101Y-94630500D01*
X154706036Y-94598095D01*
X154814464Y-94535495D01*
X154902995Y-94446964D01*
X154965595Y-94338536D01*
X154998000Y-94217601D01*
X154998000Y-94092399D01*
X154965595Y-93971464D01*
X154902995Y-93863036D01*
X154814464Y-93774505D01*
X154706036Y-93711905D01*
X154706037Y-93711905D01*
X154656714Y-93698689D01*
X154585101Y-93679500D01*
X154459899Y-93679500D01*
X154388286Y-93698689D01*
X154338963Y-93711905D01*
X154230537Y-93774504D01*
X154230534Y-93774506D01*
X154142006Y-93863034D01*
X154142004Y-93863037D01*
X154079405Y-93971463D01*
X154063202Y-94031931D01*
X154047000Y-94092399D01*
X128650000Y-94092399D01*
X128650000Y-93437399D01*
X134624500Y-93437399D01*
X134624500Y-93562601D01*
X134656905Y-93683536D01*
X134719505Y-93791964D01*
X134808036Y-93880495D01*
X134916464Y-93943095D01*
X135037399Y-93975500D01*
X135037401Y-93975500D01*
X135162599Y-93975500D01*
X135162601Y-93975500D01*
X135283536Y-93943095D01*
X135391964Y-93880495D01*
X135480495Y-93791964D01*
X135543095Y-93683536D01*
X135575500Y-93562601D01*
X135575500Y-93437399D01*
X135562102Y-93387399D01*
X146424500Y-93387399D01*
X146424500Y-93512601D01*
X146456905Y-93633536D01*
X146519505Y-93741964D01*
X146608036Y-93830495D01*
X146716464Y-93893095D01*
X146837399Y-93925500D01*
X146837401Y-93925500D01*
X146962599Y-93925500D01*
X146962601Y-93925500D01*
X147083536Y-93893095D01*
X147191964Y-93830495D01*
X147280495Y-93741964D01*
X147305480Y-93698688D01*
X147356046Y-93650473D01*
X147424652Y-93637249D01*
X147489518Y-93663217D01*
X147500548Y-93673007D01*
X147508036Y-93680495D01*
X147616464Y-93743095D01*
X147737399Y-93775500D01*
X147737401Y-93775500D01*
X147862599Y-93775500D01*
X147862601Y-93775500D01*
X147983536Y-93743095D01*
X148091964Y-93680495D01*
X148180495Y-93591964D01*
X148243095Y-93483536D01*
X148275500Y-93362601D01*
X148275500Y-93237399D01*
X148243095Y-93116464D01*
X148180495Y-93008036D01*
X148091964Y-92919505D01*
X147983536Y-92856905D01*
X147983537Y-92856905D01*
X147928780Y-92842233D01*
X147862601Y-92824500D01*
X147737399Y-92824500D01*
X147671220Y-92842233D01*
X147616463Y-92856905D01*
X147508037Y-92919504D01*
X147508034Y-92919506D01*
X147419506Y-93008034D01*
X147419500Y-93008042D01*
X147394518Y-93051312D01*
X147343951Y-93099527D01*
X147275344Y-93112749D01*
X147210479Y-93086781D01*
X147199451Y-93076992D01*
X147191965Y-93069506D01*
X147191964Y-93069505D01*
X147083536Y-93006905D01*
X147083537Y-93006905D01*
X147027769Y-92991962D01*
X146962601Y-92974500D01*
X146837399Y-92974500D01*
X146772231Y-92991962D01*
X146716463Y-93006905D01*
X146608037Y-93069504D01*
X146608034Y-93069506D01*
X146519506Y-93158034D01*
X146519504Y-93158037D01*
X146456905Y-93266463D01*
X146453145Y-93280495D01*
X146424500Y-93387399D01*
X135562102Y-93387399D01*
X135543095Y-93316464D01*
X135480495Y-93208036D01*
X135394609Y-93122150D01*
X135361124Y-93060827D01*
X135366108Y-92991135D01*
X135407980Y-92935202D01*
X135420281Y-92927087D01*
X135526964Y-92865495D01*
X135555060Y-92837399D01*
X138624500Y-92837399D01*
X138624500Y-92962601D01*
X138656905Y-93083536D01*
X138719505Y-93191964D01*
X138808036Y-93280495D01*
X138916464Y-93343095D01*
X139037399Y-93375500D01*
X139037401Y-93375500D01*
X139162599Y-93375500D01*
X139162601Y-93375500D01*
X139283536Y-93343095D01*
X139391964Y-93280495D01*
X139480495Y-93191964D01*
X139543095Y-93083536D01*
X139575500Y-92962601D01*
X139575500Y-92837399D01*
X139543095Y-92716464D01*
X139497447Y-92637399D01*
X142524500Y-92637399D01*
X142524500Y-92762601D01*
X142556905Y-92883536D01*
X142619505Y-92991964D01*
X142708036Y-93080495D01*
X142816464Y-93143095D01*
X142937399Y-93175500D01*
X142937401Y-93175500D01*
X143062599Y-93175500D01*
X143062601Y-93175500D01*
X143183536Y-93143095D01*
X143291964Y-93080495D01*
X143380495Y-92991964D01*
X143443095Y-92883536D01*
X143475500Y-92762601D01*
X143475500Y-92637399D01*
X143443095Y-92516464D01*
X143380495Y-92408036D01*
X143291964Y-92319505D01*
X143183536Y-92256905D01*
X143183537Y-92256905D01*
X143143224Y-92246103D01*
X143062601Y-92224500D01*
X142937399Y-92224500D01*
X142856775Y-92246103D01*
X142816463Y-92256905D01*
X142708037Y-92319504D01*
X142708034Y-92319506D01*
X142619506Y-92408034D01*
X142619504Y-92408037D01*
X142556905Y-92516463D01*
X142552344Y-92533484D01*
X142524500Y-92637399D01*
X139497447Y-92637399D01*
X139480495Y-92608036D01*
X139391964Y-92519505D01*
X139283536Y-92456905D01*
X139283537Y-92456905D01*
X139231997Y-92443095D01*
X139162601Y-92424500D01*
X139037399Y-92424500D01*
X138968003Y-92443095D01*
X138916463Y-92456905D01*
X138808037Y-92519504D01*
X138808034Y-92519506D01*
X138719506Y-92608034D01*
X138719504Y-92608037D01*
X138656905Y-92716463D01*
X138655061Y-92723345D01*
X138624500Y-92837399D01*
X135555060Y-92837399D01*
X135615495Y-92776964D01*
X135678095Y-92668536D01*
X135710500Y-92547601D01*
X135710500Y-92422399D01*
X135678095Y-92301464D01*
X135615495Y-92193036D01*
X135526964Y-92104505D01*
X135418536Y-92041905D01*
X135418537Y-92041905D01*
X135378224Y-92031103D01*
X135297601Y-92009500D01*
X135172399Y-92009500D01*
X135091775Y-92031103D01*
X135051463Y-92041905D01*
X134943037Y-92104504D01*
X134943034Y-92104506D01*
X134854506Y-92193034D01*
X134854504Y-92193037D01*
X134791905Y-92301463D01*
X134781123Y-92341701D01*
X134759500Y-92422399D01*
X134759500Y-92547601D01*
X134791905Y-92668536D01*
X134854504Y-92776963D01*
X134854506Y-92776965D01*
X134940390Y-92862849D01*
X134973875Y-92924172D01*
X134968891Y-92993864D01*
X134927019Y-93049797D01*
X134914709Y-93057917D01*
X134808039Y-93119502D01*
X134808034Y-93119506D01*
X134719506Y-93208034D01*
X134719504Y-93208037D01*
X134656905Y-93316463D01*
X134654029Y-93327198D01*
X134624500Y-93437399D01*
X128650000Y-93437399D01*
X128650000Y-91937399D01*
X151774500Y-91937399D01*
X151774500Y-92062601D01*
X151806905Y-92183536D01*
X151869505Y-92291964D01*
X151958036Y-92380495D01*
X151958037Y-92380496D01*
X151958039Y-92380497D01*
X152022326Y-92417613D01*
X152070541Y-92468180D01*
X152083765Y-92536787D01*
X152057797Y-92601651D01*
X152022326Y-92632387D01*
X151958039Y-92669502D01*
X151958034Y-92669506D01*
X151869506Y-92758034D01*
X151869504Y-92758037D01*
X151806905Y-92866463D01*
X151806905Y-92866464D01*
X151774500Y-92987399D01*
X151774500Y-93112601D01*
X151806905Y-93233536D01*
X151869505Y-93341964D01*
X151958036Y-93430495D01*
X152066464Y-93493095D01*
X152187399Y-93525500D01*
X152187401Y-93525500D01*
X152312599Y-93525500D01*
X152312601Y-93525500D01*
X152433536Y-93493095D01*
X152541964Y-93430495D01*
X152630495Y-93341964D01*
X152693095Y-93233536D01*
X152725500Y-93112601D01*
X152725500Y-92987399D01*
X152693095Y-92866464D01*
X152630495Y-92758036D01*
X152541964Y-92669505D01*
X152541963Y-92669504D01*
X152504070Y-92647627D01*
X152477673Y-92632387D01*
X152429458Y-92581821D01*
X152416234Y-92513214D01*
X152442202Y-92448349D01*
X152477672Y-92417612D01*
X152541964Y-92380495D01*
X152630495Y-92291964D01*
X152693095Y-92183536D01*
X152725500Y-92062601D01*
X152725500Y-91937399D01*
X152693095Y-91816464D01*
X152630495Y-91708036D01*
X152541964Y-91619505D01*
X152433536Y-91556905D01*
X152433537Y-91556905D01*
X152393224Y-91546103D01*
X152312601Y-91524500D01*
X152187399Y-91524500D01*
X152106775Y-91546103D01*
X152066463Y-91556905D01*
X151958037Y-91619504D01*
X151958034Y-91619506D01*
X151869506Y-91708034D01*
X151869504Y-91708037D01*
X151806905Y-91816463D01*
X151806905Y-91816464D01*
X151774500Y-91937399D01*
X128650000Y-91937399D01*
X128650000Y-90037399D01*
X129374500Y-90037399D01*
X129374500Y-90162601D01*
X129406905Y-90283536D01*
X129469505Y-90391964D01*
X129558036Y-90480495D01*
X129666464Y-90543095D01*
X129787399Y-90575500D01*
X129787401Y-90575500D01*
X129912599Y-90575500D01*
X129912601Y-90575500D01*
X130033536Y-90543095D01*
X130141964Y-90480495D01*
X130230495Y-90391964D01*
X130293095Y-90283536D01*
X130325500Y-90162601D01*
X130325500Y-90132399D01*
X132024500Y-90132399D01*
X132024500Y-90257601D01*
X132056905Y-90378536D01*
X132119505Y-90486964D01*
X132208036Y-90575495D01*
X132316464Y-90638095D01*
X132437399Y-90670500D01*
X132437401Y-90670500D01*
X132562599Y-90670500D01*
X132562601Y-90670500D01*
X132683536Y-90638095D01*
X132791964Y-90575495D01*
X132880495Y-90486964D01*
X132943095Y-90378536D01*
X132975500Y-90257601D01*
X132975500Y-90132399D01*
X132943095Y-90011464D01*
X132880495Y-89903036D01*
X132791964Y-89814505D01*
X132683536Y-89751905D01*
X132683537Y-89751905D01*
X132643224Y-89741103D01*
X132562601Y-89719500D01*
X132437399Y-89719500D01*
X132356775Y-89741103D01*
X132316463Y-89751905D01*
X132208037Y-89814504D01*
X132208034Y-89814506D01*
X132119506Y-89903034D01*
X132119504Y-89903037D01*
X132056905Y-90011463D01*
X132048429Y-90043095D01*
X132024500Y-90132399D01*
X130325500Y-90132399D01*
X130325500Y-90037399D01*
X130293095Y-89916464D01*
X130230495Y-89808036D01*
X130141964Y-89719505D01*
X130033536Y-89656905D01*
X130033537Y-89656905D01*
X129993224Y-89646103D01*
X129912601Y-89624500D01*
X129787399Y-89624500D01*
X129706775Y-89646103D01*
X129666463Y-89656905D01*
X129558037Y-89719504D01*
X129558034Y-89719506D01*
X129469506Y-89808034D01*
X129469504Y-89808037D01*
X129406905Y-89916463D01*
X129391196Y-89975090D01*
X129374500Y-90037399D01*
X128650000Y-90037399D01*
X128650000Y-89437399D01*
X135824500Y-89437399D01*
X135824500Y-89562601D01*
X135856905Y-89683536D01*
X135919505Y-89791964D01*
X135919506Y-89791965D01*
X135924451Y-89798409D01*
X135921959Y-89800320D01*
X135948345Y-89848642D01*
X135943361Y-89918334D01*
X135922816Y-89950333D01*
X135924453Y-89951589D01*
X135919508Y-89958032D01*
X135856905Y-90066466D01*
X135842693Y-90119505D01*
X135824500Y-90187402D01*
X135824500Y-90312604D01*
X135856905Y-90433539D01*
X135919505Y-90541967D01*
X136008036Y-90630498D01*
X136116464Y-90693098D01*
X136237399Y-90725503D01*
X136237401Y-90725503D01*
X136362599Y-90725503D01*
X136362601Y-90725503D01*
X136483536Y-90693098D01*
X136591964Y-90630498D01*
X136680495Y-90541967D01*
X136740866Y-90437399D01*
X140774500Y-90437399D01*
X140774500Y-90562601D01*
X140806905Y-90683536D01*
X140869505Y-90791964D01*
X140958036Y-90880495D01*
X141066464Y-90943095D01*
X141187399Y-90975500D01*
X141187401Y-90975500D01*
X141312599Y-90975500D01*
X141312601Y-90975500D01*
X141433536Y-90943095D01*
X141541964Y-90880495D01*
X141630495Y-90791964D01*
X141693095Y-90683536D01*
X141725500Y-90562601D01*
X141725500Y-90437399D01*
X141693095Y-90316464D01*
X141630495Y-90208036D01*
X141541964Y-90119505D01*
X141433536Y-90056905D01*
X141433537Y-90056905D01*
X141381997Y-90043095D01*
X141312601Y-90024500D01*
X141187399Y-90024500D01*
X141118003Y-90043095D01*
X141066463Y-90056905D01*
X140958037Y-90119504D01*
X140958034Y-90119506D01*
X140869506Y-90208034D01*
X140869504Y-90208037D01*
X140806905Y-90316463D01*
X140806905Y-90316464D01*
X140774500Y-90437399D01*
X136740866Y-90437399D01*
X136743095Y-90433539D01*
X136775500Y-90312604D01*
X136775500Y-90187402D01*
X136743095Y-90066467D01*
X136680495Y-89958039D01*
X136680491Y-89958035D01*
X136675549Y-89951594D01*
X136678039Y-89949682D01*
X136651653Y-89901359D01*
X136656637Y-89831667D01*
X136677208Y-89799689D01*
X136675546Y-89798414D01*
X136680494Y-89791965D01*
X136680496Y-89791962D01*
X136743095Y-89683536D01*
X136775500Y-89562601D01*
X136775500Y-89437399D01*
X136743095Y-89316464D01*
X136680495Y-89208036D01*
X136591964Y-89119505D01*
X136483536Y-89056905D01*
X136483537Y-89056905D01*
X136427769Y-89041962D01*
X136362601Y-89024500D01*
X136237399Y-89024500D01*
X136172231Y-89041962D01*
X136116463Y-89056905D01*
X136008037Y-89119504D01*
X136008034Y-89119506D01*
X135919506Y-89208034D01*
X135919504Y-89208037D01*
X135856905Y-89316463D01*
X135856905Y-89316464D01*
X135824500Y-89437399D01*
X128650000Y-89437399D01*
X128650000Y-88687399D01*
X137024500Y-88687399D01*
X137024500Y-88812601D01*
X137056905Y-88933536D01*
X137119505Y-89041964D01*
X137208036Y-89130495D01*
X137316464Y-89193095D01*
X137437399Y-89225500D01*
X137437401Y-89225500D01*
X137562599Y-89225500D01*
X137562601Y-89225500D01*
X137683536Y-89193095D01*
X137791964Y-89130495D01*
X137880495Y-89041964D01*
X137943095Y-88933536D01*
X137943400Y-88932399D01*
X140124500Y-88932399D01*
X140124500Y-89057601D01*
X140156905Y-89178536D01*
X140219505Y-89286964D01*
X140308036Y-89375495D01*
X140416464Y-89438095D01*
X140537399Y-89470500D01*
X140537401Y-89470500D01*
X140662599Y-89470500D01*
X140662601Y-89470500D01*
X140783536Y-89438095D01*
X140891964Y-89375495D01*
X140980495Y-89286964D01*
X141009111Y-89237399D01*
X142424500Y-89237399D01*
X142424500Y-89362601D01*
X142456905Y-89483536D01*
X142519505Y-89591964D01*
X142608036Y-89680495D01*
X142716464Y-89743095D01*
X142837399Y-89775500D01*
X142837401Y-89775500D01*
X142962599Y-89775500D01*
X142962601Y-89775500D01*
X143083536Y-89743095D01*
X143191964Y-89680495D01*
X143280495Y-89591964D01*
X143343095Y-89483536D01*
X143375500Y-89362601D01*
X143375500Y-89345505D01*
X143395185Y-89278466D01*
X143447989Y-89232711D01*
X143517147Y-89222767D01*
X143580703Y-89251792D01*
X143606888Y-89283506D01*
X143606904Y-89283534D01*
X143606905Y-89283536D01*
X143669505Y-89391964D01*
X143758036Y-89480495D01*
X143866464Y-89543095D01*
X143987399Y-89575500D01*
X143987401Y-89575500D01*
X144112599Y-89575500D01*
X144112601Y-89575500D01*
X144233536Y-89543095D01*
X144243402Y-89537399D01*
X146824500Y-89537399D01*
X146824500Y-89662601D01*
X146856905Y-89783536D01*
X146919505Y-89891964D01*
X147008036Y-89980495D01*
X147116464Y-90043095D01*
X147237399Y-90075500D01*
X147237401Y-90075500D01*
X147362599Y-90075500D01*
X147362601Y-90075500D01*
X147483536Y-90043095D01*
X147591964Y-89980495D01*
X147680495Y-89891964D01*
X147743095Y-89783536D01*
X147775500Y-89662601D01*
X147775500Y-89537399D01*
X147743095Y-89416464D01*
X147680495Y-89308036D01*
X147591964Y-89219505D01*
X147483536Y-89156905D01*
X147483537Y-89156905D01*
X147443224Y-89146103D01*
X147362601Y-89124500D01*
X147237399Y-89124500D01*
X147156775Y-89146103D01*
X147116463Y-89156905D01*
X147008037Y-89219504D01*
X147008034Y-89219506D01*
X146919506Y-89308034D01*
X146919504Y-89308037D01*
X146856905Y-89416463D01*
X146851295Y-89437399D01*
X146824500Y-89537399D01*
X144243402Y-89537399D01*
X144341964Y-89480495D01*
X144430495Y-89391964D01*
X144493095Y-89283536D01*
X144525500Y-89162601D01*
X144525500Y-89037399D01*
X144498705Y-88937399D01*
X145124500Y-88937399D01*
X145124500Y-89062601D01*
X145156905Y-89183536D01*
X145219505Y-89291964D01*
X145308036Y-89380495D01*
X145416464Y-89443095D01*
X145537399Y-89475500D01*
X145537401Y-89475500D01*
X145662599Y-89475500D01*
X145662601Y-89475500D01*
X145783536Y-89443095D01*
X145891964Y-89380495D01*
X145980495Y-89291964D01*
X146043095Y-89183536D01*
X146075500Y-89062601D01*
X146075500Y-88937399D01*
X146043095Y-88816464D01*
X145980495Y-88708036D01*
X145891964Y-88619505D01*
X145783536Y-88556905D01*
X145783537Y-88556905D01*
X145743224Y-88546103D01*
X145662601Y-88524500D01*
X145537399Y-88524500D01*
X145456775Y-88546103D01*
X145416463Y-88556905D01*
X145308037Y-88619504D01*
X145308034Y-88619506D01*
X145219506Y-88708034D01*
X145219504Y-88708037D01*
X145156905Y-88816463D01*
X145146069Y-88856905D01*
X145124500Y-88937399D01*
X144498705Y-88937399D01*
X144493095Y-88916464D01*
X144430495Y-88808036D01*
X144341964Y-88719505D01*
X144233536Y-88656905D01*
X144233537Y-88656905D01*
X144193224Y-88646103D01*
X144112601Y-88624500D01*
X143987399Y-88624500D01*
X143906775Y-88646103D01*
X143866463Y-88656905D01*
X143758037Y-88719504D01*
X143758034Y-88719506D01*
X143669506Y-88808034D01*
X143669504Y-88808037D01*
X143606905Y-88916463D01*
X143606905Y-88916464D01*
X143577957Y-89024500D01*
X143574500Y-89037400D01*
X143574500Y-89054494D01*
X143554815Y-89121533D01*
X143502011Y-89167288D01*
X143432853Y-89177232D01*
X143369297Y-89148207D01*
X143343113Y-89116494D01*
X143280497Y-89008039D01*
X143280496Y-89008037D01*
X143280495Y-89008036D01*
X143191964Y-88919505D01*
X143083536Y-88856905D01*
X143083537Y-88856905D01*
X143043224Y-88846103D01*
X142962601Y-88824500D01*
X142837399Y-88824500D01*
X142756775Y-88846103D01*
X142716463Y-88856905D01*
X142608037Y-88919504D01*
X142608034Y-88919506D01*
X142519506Y-89008034D01*
X142519504Y-89008037D01*
X142456905Y-89116463D01*
X142442576Y-89169938D01*
X142424500Y-89237399D01*
X141009111Y-89237399D01*
X141043095Y-89178536D01*
X141075500Y-89057601D01*
X141075500Y-88932399D01*
X141043095Y-88811464D01*
X140980495Y-88703036D01*
X140891964Y-88614505D01*
X140783536Y-88551905D01*
X140783537Y-88551905D01*
X140743224Y-88541103D01*
X140662601Y-88519500D01*
X140537399Y-88519500D01*
X140456775Y-88541103D01*
X140416463Y-88551905D01*
X140308037Y-88614504D01*
X140308034Y-88614506D01*
X140219506Y-88703034D01*
X140219504Y-88703037D01*
X140156905Y-88811463D01*
X140156905Y-88811464D01*
X140124500Y-88932399D01*
X137943400Y-88932399D01*
X137975500Y-88812601D01*
X137975500Y-88687399D01*
X137943095Y-88566464D01*
X137880495Y-88458036D01*
X137791964Y-88369505D01*
X137683536Y-88306905D01*
X137683537Y-88306905D01*
X137643224Y-88296103D01*
X137562601Y-88274500D01*
X137437399Y-88274500D01*
X137356775Y-88296103D01*
X137316463Y-88306905D01*
X137208037Y-88369504D01*
X137208034Y-88369506D01*
X137119506Y-88458034D01*
X137119504Y-88458037D01*
X137056905Y-88566463D01*
X137046428Y-88605563D01*
X137024500Y-88687399D01*
X128650000Y-88687399D01*
X128650000Y-86937399D01*
X133924500Y-86937399D01*
X133924500Y-87062601D01*
X133956905Y-87183536D01*
X134019505Y-87291964D01*
X134108036Y-87380495D01*
X134216464Y-87443095D01*
X134337399Y-87475500D01*
X134337401Y-87475500D01*
X134462599Y-87475500D01*
X134462601Y-87475500D01*
X134583536Y-87443095D01*
X134691964Y-87380495D01*
X134780495Y-87291964D01*
X134843095Y-87183536D01*
X134875500Y-87062601D01*
X134875500Y-86937399D01*
X134843095Y-86816464D01*
X134780495Y-86708036D01*
X134691964Y-86619505D01*
X134583536Y-86556905D01*
X134583537Y-86556905D01*
X134543224Y-86546103D01*
X134462601Y-86524500D01*
X134337399Y-86524500D01*
X134256775Y-86546103D01*
X134216463Y-86556905D01*
X134108037Y-86619504D01*
X134108034Y-86619506D01*
X134019506Y-86708034D01*
X134019504Y-86708037D01*
X133956905Y-86816463D01*
X133946178Y-86856497D01*
X133924500Y-86937399D01*
X128650000Y-86937399D01*
X128650000Y-85837399D01*
X129324500Y-85837399D01*
X129324500Y-85962601D01*
X129356905Y-86083536D01*
X129419505Y-86191964D01*
X129508036Y-86280495D01*
X129616464Y-86343095D01*
X129737399Y-86375500D01*
X129737401Y-86375500D01*
X129862599Y-86375500D01*
X129862601Y-86375500D01*
X129983536Y-86343095D01*
X130091964Y-86280495D01*
X130162560Y-86209899D01*
X142652000Y-86209899D01*
X142652000Y-86335101D01*
X142684405Y-86456036D01*
X142747005Y-86564464D01*
X142835536Y-86652995D01*
X142943964Y-86715595D01*
X143064899Y-86748000D01*
X143064901Y-86748000D01*
X143190099Y-86748000D01*
X143190101Y-86748000D01*
X143311036Y-86715595D01*
X143419464Y-86652995D01*
X143507995Y-86564464D01*
X143570595Y-86456036D01*
X143603000Y-86335101D01*
X143603000Y-86209899D01*
X143570595Y-86088964D01*
X143507995Y-85980536D01*
X143419464Y-85892005D01*
X143311036Y-85829405D01*
X143311037Y-85829405D01*
X143270724Y-85818603D01*
X143190101Y-85797000D01*
X143064899Y-85797000D01*
X142984275Y-85818603D01*
X142943963Y-85829405D01*
X142835537Y-85892004D01*
X142835534Y-85892006D01*
X142747006Y-85980534D01*
X142747004Y-85980537D01*
X142684405Y-86088963D01*
X142682652Y-86095505D01*
X142652000Y-86209899D01*
X130162560Y-86209899D01*
X130180495Y-86191964D01*
X130243095Y-86083536D01*
X130275500Y-85962601D01*
X130275500Y-85837399D01*
X130243095Y-85716464D01*
X130180495Y-85608036D01*
X130091964Y-85519505D01*
X129983536Y-85456905D01*
X129983537Y-85456905D01*
X129943224Y-85446103D01*
X129862601Y-85424500D01*
X129737399Y-85424500D01*
X129656775Y-85446103D01*
X129616463Y-85456905D01*
X129508037Y-85519504D01*
X129508034Y-85519506D01*
X129419506Y-85608034D01*
X129419504Y-85608037D01*
X129356905Y-85716463D01*
X129350023Y-85742147D01*
X129324500Y-85837399D01*
X128650000Y-85837399D01*
X128650000Y-85062399D01*
X144504500Y-85062399D01*
X144504500Y-85187601D01*
X144536905Y-85308536D01*
X144599505Y-85416964D01*
X144688036Y-85505495D01*
X144796464Y-85568095D01*
X144917399Y-85600500D01*
X144917401Y-85600500D01*
X145006378Y-85600500D01*
X145073417Y-85620185D01*
X145119172Y-85672989D01*
X145129116Y-85742147D01*
X145126152Y-85756590D01*
X145122692Y-85769506D01*
X145104500Y-85837396D01*
X145104500Y-85837399D01*
X145104500Y-85962601D01*
X145136905Y-86083536D01*
X145199505Y-86191964D01*
X145288036Y-86280495D01*
X145396464Y-86343095D01*
X145517399Y-86375500D01*
X145517401Y-86375500D01*
X145642599Y-86375500D01*
X145642601Y-86375500D01*
X145763536Y-86343095D01*
X145871964Y-86280495D01*
X145960495Y-86191964D01*
X146020865Y-86087399D01*
X150254500Y-86087399D01*
X150254500Y-86212601D01*
X150286905Y-86333536D01*
X150349505Y-86441964D01*
X150438036Y-86530495D01*
X150546464Y-86593095D01*
X150667399Y-86625500D01*
X150667401Y-86625500D01*
X150718197Y-86625500D01*
X150785236Y-86645185D01*
X150830991Y-86697989D01*
X150840935Y-86767147D01*
X150811910Y-86830703D01*
X150780197Y-86856886D01*
X150768656Y-86863550D01*
X150726449Y-86887917D01*
X150637919Y-86976447D01*
X150637917Y-86976450D01*
X150575318Y-87084876D01*
X150569370Y-87107074D01*
X150542913Y-87205812D01*
X150542913Y-87331014D01*
X150575318Y-87451949D01*
X150637918Y-87560377D01*
X150726449Y-87648908D01*
X150834877Y-87711508D01*
X150955812Y-87743913D01*
X150955814Y-87743913D01*
X151081012Y-87743913D01*
X151081014Y-87743913D01*
X151201949Y-87711508D01*
X151310377Y-87648908D01*
X151338446Y-87620838D01*
X151399765Y-87587355D01*
X151469457Y-87592339D01*
X151525391Y-87634209D01*
X151539955Y-87664181D01*
X151541365Y-87663598D01*
X151544474Y-87671105D01*
X151607074Y-87779533D01*
X151695605Y-87868064D01*
X151804033Y-87930664D01*
X151924968Y-87963069D01*
X151924970Y-87963069D01*
X152050168Y-87963069D01*
X152050170Y-87963069D01*
X152171105Y-87930664D01*
X152279533Y-87868064D01*
X152368064Y-87779533D01*
X152430664Y-87671105D01*
X152463069Y-87550170D01*
X152463069Y-87424968D01*
X152430664Y-87304033D01*
X152368064Y-87195605D01*
X152279533Y-87107074D01*
X152279531Y-87107073D01*
X152279526Y-87107069D01*
X152229741Y-87078326D01*
X152181525Y-87027760D01*
X152168301Y-86959153D01*
X152194269Y-86894288D01*
X152229744Y-86863550D01*
X152241283Y-86856888D01*
X152241964Y-86856495D01*
X152330495Y-86767964D01*
X152393095Y-86659536D01*
X152425500Y-86538601D01*
X152425500Y-86413399D01*
X152393095Y-86292464D01*
X152330495Y-86184036D01*
X152241964Y-86095505D01*
X152133536Y-86032905D01*
X152133537Y-86032905D01*
X152093224Y-86022103D01*
X152012601Y-86000500D01*
X151887399Y-86000500D01*
X151806775Y-86022103D01*
X151766463Y-86032905D01*
X151658037Y-86095504D01*
X151658034Y-86095506D01*
X151569506Y-86184034D01*
X151569504Y-86184037D01*
X151506905Y-86292463D01*
X151506905Y-86292464D01*
X151474500Y-86413399D01*
X151474500Y-86538601D01*
X151506905Y-86659536D01*
X151569505Y-86767964D01*
X151658036Y-86856495D01*
X151707827Y-86885241D01*
X151756043Y-86935808D01*
X151769267Y-87004415D01*
X151743299Y-87069280D01*
X151725087Y-87087992D01*
X151716966Y-87094741D01*
X151695605Y-87107074D01*
X151663502Y-87139176D01*
X151659115Y-87142823D01*
X151632071Y-87154507D01*
X151606212Y-87168627D01*
X151600360Y-87168208D01*
X151594975Y-87170535D01*
X151565907Y-87165743D01*
X151536521Y-87163641D01*
X151531824Y-87160125D01*
X151526036Y-87159171D01*
X151504172Y-87139424D01*
X151480588Y-87121769D01*
X151477433Y-87115274D01*
X151474184Y-87112340D01*
X151471874Y-87103829D01*
X151466030Y-87091798D01*
X151464617Y-87092384D01*
X151461509Y-87084881D01*
X151461508Y-87084877D01*
X151398908Y-86976449D01*
X151310377Y-86887918D01*
X151201949Y-86825318D01*
X151201950Y-86825318D01*
X151161637Y-86814516D01*
X151081014Y-86792913D01*
X151030216Y-86792913D01*
X150963177Y-86773228D01*
X150917422Y-86720424D01*
X150907478Y-86651266D01*
X150936503Y-86587710D01*
X150968215Y-86561526D01*
X151021964Y-86530495D01*
X151110495Y-86441964D01*
X151173095Y-86333536D01*
X151205500Y-86212601D01*
X151205500Y-86087399D01*
X151173095Y-85966464D01*
X151110495Y-85858036D01*
X151021964Y-85769505D01*
X150913536Y-85706905D01*
X150913537Y-85706905D01*
X150873224Y-85696103D01*
X150792601Y-85674500D01*
X150667399Y-85674500D01*
X150586775Y-85696103D01*
X150546463Y-85706905D01*
X150438037Y-85769504D01*
X150438034Y-85769506D01*
X150349506Y-85858034D01*
X150349504Y-85858037D01*
X150286905Y-85966463D01*
X150286905Y-85966464D01*
X150254500Y-86087399D01*
X146020865Y-86087399D01*
X146023095Y-86083536D01*
X146055500Y-85962601D01*
X146055500Y-85837399D01*
X146023095Y-85716464D01*
X145960495Y-85608036D01*
X145871964Y-85519505D01*
X145763536Y-85456905D01*
X145763537Y-85456905D01*
X145723224Y-85446103D01*
X145642601Y-85424500D01*
X145553622Y-85424500D01*
X145486583Y-85404815D01*
X145440828Y-85352011D01*
X145430884Y-85282853D01*
X145433848Y-85268405D01*
X145455499Y-85187603D01*
X145455500Y-85187600D01*
X145455500Y-85062400D01*
X145446951Y-85030495D01*
X145423095Y-84941464D01*
X145360495Y-84833036D01*
X145271964Y-84744505D01*
X145163536Y-84681905D01*
X145163537Y-84681905D01*
X145119769Y-84670177D01*
X145119766Y-84670176D01*
X145042601Y-84649500D01*
X144917399Y-84649500D01*
X144905057Y-84652807D01*
X144905056Y-84652807D01*
X144796463Y-84681905D01*
X144688037Y-84744504D01*
X144688034Y-84744506D01*
X144599506Y-84833034D01*
X144599504Y-84833037D01*
X144536905Y-84941463D01*
X144520702Y-85001931D01*
X144504500Y-85062399D01*
X128650000Y-85062399D01*
X128650000Y-83437399D01*
X131824500Y-83437399D01*
X131824500Y-83562601D01*
X131856905Y-83683536D01*
X131919505Y-83791964D01*
X132008036Y-83880495D01*
X132116464Y-83943095D01*
X132237399Y-83975500D01*
X132237401Y-83975500D01*
X132362599Y-83975500D01*
X132362601Y-83975500D01*
X132483536Y-83943095D01*
X132580006Y-83887399D01*
X144579500Y-83887399D01*
X144579500Y-84012601D01*
X144611905Y-84133536D01*
X144674505Y-84241964D01*
X144763036Y-84330495D01*
X144871464Y-84393095D01*
X144992399Y-84425500D01*
X145117601Y-84425500D01*
X145238536Y-84393095D01*
X145346964Y-84330495D01*
X145389060Y-84288399D01*
X149504500Y-84288399D01*
X149504500Y-84413601D01*
X149536905Y-84534536D01*
X149599505Y-84642964D01*
X149688036Y-84731495D01*
X149796464Y-84794095D01*
X149917399Y-84826500D01*
X149917401Y-84826500D01*
X150042599Y-84826500D01*
X150042601Y-84826500D01*
X150163536Y-84794095D01*
X150271964Y-84731495D01*
X150360495Y-84642964D01*
X150423095Y-84534536D01*
X150455500Y-84413601D01*
X150455500Y-84288399D01*
X150423095Y-84167464D01*
X150360495Y-84059036D01*
X150271964Y-83970505D01*
X150163536Y-83907905D01*
X150163537Y-83907905D01*
X150123224Y-83897103D01*
X150042601Y-83875500D01*
X149917399Y-83875500D01*
X149836775Y-83897103D01*
X149796463Y-83907905D01*
X149688037Y-83970504D01*
X149688034Y-83970506D01*
X149599506Y-84059034D01*
X149599504Y-84059037D01*
X149536905Y-84167463D01*
X149526359Y-84206821D01*
X149504500Y-84288399D01*
X145389060Y-84288399D01*
X145435495Y-84241964D01*
X145498095Y-84133536D01*
X145530500Y-84012601D01*
X145530500Y-83887399D01*
X145498095Y-83766464D01*
X145435495Y-83658036D01*
X145364858Y-83587399D01*
X152424500Y-83587399D01*
X152424500Y-83712601D01*
X152438933Y-83766463D01*
X152456905Y-83833536D01*
X152519504Y-83941962D01*
X152519506Y-83941965D01*
X152608036Y-84030495D01*
X152629025Y-84042613D01*
X152677240Y-84093180D01*
X152690462Y-84161788D01*
X152664494Y-84226652D01*
X152629025Y-84257387D01*
X152608036Y-84269504D01*
X152519506Y-84358034D01*
X152519504Y-84358037D01*
X152456905Y-84466463D01*
X152456905Y-84466464D01*
X152424500Y-84587399D01*
X152424500Y-84712601D01*
X152456905Y-84833536D01*
X152519505Y-84941964D01*
X152608036Y-85030495D01*
X152716464Y-85093095D01*
X152837399Y-85125500D01*
X152837401Y-85125500D01*
X152962599Y-85125500D01*
X152962601Y-85125500D01*
X153083536Y-85093095D01*
X153191964Y-85030495D01*
X153280495Y-84941964D01*
X153343095Y-84833536D01*
X153375500Y-84712601D01*
X153375500Y-84587399D01*
X153343095Y-84466464D01*
X153280495Y-84358036D01*
X153191964Y-84269505D01*
X153191963Y-84269504D01*
X153170976Y-84257388D01*
X153122760Y-84206821D01*
X153109536Y-84138214D01*
X153135504Y-84073349D01*
X153170976Y-84042612D01*
X153191964Y-84030495D01*
X153280495Y-83941964D01*
X153343095Y-83833536D01*
X153375500Y-83712601D01*
X153375500Y-83587399D01*
X153343095Y-83466464D01*
X153343091Y-83466457D01*
X153322186Y-83430247D01*
X153305713Y-83362347D01*
X153328566Y-83296320D01*
X153341892Y-83280567D01*
X153368778Y-83253681D01*
X153430495Y-83191964D01*
X153493095Y-83083536D01*
X153525500Y-82962601D01*
X153525500Y-82837399D01*
X153493095Y-82716464D01*
X153430495Y-82608036D01*
X153341964Y-82519505D01*
X153233536Y-82456905D01*
X153233537Y-82456905D01*
X153193224Y-82446103D01*
X153112601Y-82424500D01*
X152987399Y-82424500D01*
X152906775Y-82446103D01*
X152866463Y-82456905D01*
X152758037Y-82519504D01*
X152758034Y-82519506D01*
X152669506Y-82608034D01*
X152669504Y-82608037D01*
X152606905Y-82716463D01*
X152606905Y-82716464D01*
X152574500Y-82837399D01*
X152574500Y-82962601D01*
X152606905Y-83083536D01*
X152623283Y-83111904D01*
X152627815Y-83119754D01*
X152644285Y-83187655D01*
X152621432Y-83253681D01*
X152608108Y-83269433D01*
X152519503Y-83358037D01*
X152456905Y-83466463D01*
X152446069Y-83506905D01*
X152424500Y-83587399D01*
X145364858Y-83587399D01*
X145346964Y-83569505D01*
X145238536Y-83506905D01*
X145238537Y-83506905D01*
X145198224Y-83496103D01*
X145117601Y-83474500D01*
X144992399Y-83474500D01*
X144911775Y-83496103D01*
X144871463Y-83506905D01*
X144763037Y-83569504D01*
X144763034Y-83569506D01*
X144674506Y-83658034D01*
X144674504Y-83658037D01*
X144611905Y-83766463D01*
X144611905Y-83766464D01*
X144579500Y-83887399D01*
X132580006Y-83887399D01*
X132591964Y-83880495D01*
X132680495Y-83791964D01*
X132743095Y-83683536D01*
X132775500Y-83562601D01*
X132775500Y-83437399D01*
X132743095Y-83316464D01*
X132680495Y-83208036D01*
X132591964Y-83119505D01*
X132483536Y-83056905D01*
X132483537Y-83056905D01*
X132443224Y-83046103D01*
X132362601Y-83024500D01*
X132237399Y-83024500D01*
X132156775Y-83046103D01*
X132116463Y-83056905D01*
X132008037Y-83119504D01*
X132008034Y-83119506D01*
X131919506Y-83208034D01*
X131919504Y-83208037D01*
X131856905Y-83316463D01*
X131845766Y-83358036D01*
X131824500Y-83437399D01*
X128650000Y-83437399D01*
X128650000Y-80354999D01*
X128669685Y-80287960D01*
X128722489Y-80242205D01*
X128790919Y-80232159D01*
X128813657Y-80235291D01*
X128872147Y-80234944D01*
X130078292Y-80054218D01*
X130147508Y-80063751D01*
X130200582Y-80109192D01*
X130220664Y-80176114D01*
X130201377Y-80243269D01*
X130195046Y-80252330D01*
X130194507Y-80253031D01*
X130131905Y-80361463D01*
X130115702Y-80421931D01*
X130099500Y-80482399D01*
X130099500Y-80607601D01*
X130131905Y-80728536D01*
X130194505Y-80836964D01*
X130283036Y-80925495D01*
X130391464Y-80988095D01*
X130421065Y-80996026D01*
X130480725Y-81032392D01*
X130511253Y-81095239D01*
X130502958Y-81164614D01*
X130458472Y-81218492D01*
X130421067Y-81235575D01*
X130341464Y-81256905D01*
X130341462Y-81256905D01*
X130341462Y-81256906D01*
X130233037Y-81319504D01*
X130233034Y-81319506D01*
X130144506Y-81408034D01*
X130144504Y-81408037D01*
X130081905Y-81516463D01*
X130081905Y-81516464D01*
X130049500Y-81637399D01*
X130049500Y-81762601D01*
X130081905Y-81883536D01*
X130144505Y-81991964D01*
X130233036Y-82080495D01*
X130341464Y-82143095D01*
X130462399Y-82175500D01*
X130462401Y-82175500D01*
X130587599Y-82175500D01*
X130587601Y-82175500D01*
X130708536Y-82143095D01*
X130816964Y-82080495D01*
X130905495Y-81991964D01*
X130905495Y-81991963D01*
X130911242Y-81986217D01*
X130913421Y-81988396D01*
X130958035Y-81955811D01*
X131027780Y-81951646D01*
X131088706Y-81985849D01*
X131090756Y-81988215D01*
X131094505Y-81991964D01*
X131183036Y-82080495D01*
X131291464Y-82143095D01*
X131412399Y-82175500D01*
X131412401Y-82175500D01*
X131537599Y-82175500D01*
X131537601Y-82175500D01*
X131658536Y-82143095D01*
X131668402Y-82137399D01*
X135024500Y-82137399D01*
X135024500Y-82262601D01*
X135056905Y-82383536D01*
X135119505Y-82491964D01*
X135208036Y-82580495D01*
X135316464Y-82643095D01*
X135437399Y-82675500D01*
X135437401Y-82675500D01*
X135562599Y-82675500D01*
X135562601Y-82675500D01*
X135683536Y-82643095D01*
X135791964Y-82580495D01*
X135880495Y-82491964D01*
X135943095Y-82383536D01*
X135975500Y-82262601D01*
X135975500Y-82137399D01*
X135968801Y-82112399D01*
X136524500Y-82112399D01*
X136524500Y-82237601D01*
X136556905Y-82358536D01*
X136619505Y-82466964D01*
X136708036Y-82555495D01*
X136816464Y-82618095D01*
X136937399Y-82650500D01*
X136937401Y-82650500D01*
X137062599Y-82650500D01*
X137062601Y-82650500D01*
X137183536Y-82618095D01*
X137291964Y-82555495D01*
X137380495Y-82466964D01*
X137443095Y-82358536D01*
X137475500Y-82237601D01*
X137475500Y-82112399D01*
X137474830Y-82109899D01*
X138423500Y-82109899D01*
X138423500Y-82235101D01*
X138455905Y-82356036D01*
X138518505Y-82464464D01*
X138607036Y-82552995D01*
X138715464Y-82615595D01*
X138836399Y-82648000D01*
X138836401Y-82648000D01*
X138961599Y-82648000D01*
X138961601Y-82648000D01*
X139082536Y-82615595D01*
X139190964Y-82552995D01*
X139279495Y-82464464D01*
X139342095Y-82356036D01*
X139374500Y-82235101D01*
X139374500Y-82109899D01*
X139342095Y-81988964D01*
X139279495Y-81880536D01*
X139190964Y-81792005D01*
X139082536Y-81729405D01*
X139082537Y-81729405D01*
X139042224Y-81718603D01*
X138961601Y-81697000D01*
X138836399Y-81697000D01*
X138755775Y-81718603D01*
X138715463Y-81729405D01*
X138607037Y-81792004D01*
X138607034Y-81792006D01*
X138518506Y-81880534D01*
X138518504Y-81880537D01*
X138455905Y-81988963D01*
X138448536Y-82016464D01*
X138423500Y-82109899D01*
X137474830Y-82109899D01*
X137443095Y-81991464D01*
X137380495Y-81883036D01*
X137291964Y-81794505D01*
X137183536Y-81731905D01*
X137183537Y-81731905D01*
X137143224Y-81721103D01*
X137062601Y-81699500D01*
X136937399Y-81699500D01*
X136856775Y-81721103D01*
X136816463Y-81731905D01*
X136708037Y-81794504D01*
X136708034Y-81794506D01*
X136619506Y-81883034D01*
X136619504Y-81883037D01*
X136556905Y-81991463D01*
X136541759Y-82047989D01*
X136524500Y-82112399D01*
X135968801Y-82112399D01*
X135943095Y-82016464D01*
X135880495Y-81908036D01*
X135791964Y-81819505D01*
X135683536Y-81756905D01*
X135683537Y-81756905D01*
X135643224Y-81746103D01*
X135562601Y-81724500D01*
X135437399Y-81724500D01*
X135356775Y-81746103D01*
X135316463Y-81756905D01*
X135208037Y-81819504D01*
X135208034Y-81819506D01*
X135119506Y-81908034D01*
X135119504Y-81908037D01*
X135056905Y-82016463D01*
X135056905Y-82016464D01*
X135024500Y-82137399D01*
X131668402Y-82137399D01*
X131766964Y-82080495D01*
X131855495Y-81991964D01*
X131918095Y-81883536D01*
X131950500Y-81762601D01*
X131950500Y-81637399D01*
X131918095Y-81516464D01*
X131872447Y-81437399D01*
X148104500Y-81437399D01*
X148104500Y-81562601D01*
X148136905Y-81683536D01*
X148199505Y-81791964D01*
X148288036Y-81880495D01*
X148396464Y-81943095D01*
X148517399Y-81975500D01*
X148517401Y-81975500D01*
X148582679Y-81975500D01*
X148649718Y-81995185D01*
X148695473Y-82047989D01*
X148705417Y-82117147D01*
X148676392Y-82180703D01*
X148670360Y-82187181D01*
X148599506Y-82258034D01*
X148599504Y-82258037D01*
X148536905Y-82366463D01*
X148536905Y-82366464D01*
X148504500Y-82487399D01*
X148504500Y-82612601D01*
X148536905Y-82733536D01*
X148599505Y-82841964D01*
X148688036Y-82930495D01*
X148796464Y-82993095D01*
X148917399Y-83025500D01*
X148917401Y-83025500D01*
X149042599Y-83025500D01*
X149042601Y-83025500D01*
X149163536Y-82993095D01*
X149271964Y-82930495D01*
X149360495Y-82841964D01*
X149423095Y-82733536D01*
X149455500Y-82612601D01*
X149455500Y-82487399D01*
X149423095Y-82366464D01*
X149360495Y-82258036D01*
X149271964Y-82169505D01*
X149163536Y-82106905D01*
X149163537Y-82106905D01*
X149123224Y-82096103D01*
X149042601Y-82074500D01*
X148977321Y-82074500D01*
X148910282Y-82054815D01*
X148864527Y-82002011D01*
X148854583Y-81932853D01*
X148883608Y-81869297D01*
X148889640Y-81862819D01*
X148960495Y-81791964D01*
X149023095Y-81683536D01*
X149055500Y-81562601D01*
X149055500Y-81437399D01*
X149023095Y-81316464D01*
X148960495Y-81208036D01*
X148871964Y-81119505D01*
X148763536Y-81056905D01*
X148763537Y-81056905D01*
X148723224Y-81046103D01*
X148642601Y-81024500D01*
X148517399Y-81024500D01*
X148436775Y-81046103D01*
X148396463Y-81056905D01*
X148288037Y-81119504D01*
X148288034Y-81119506D01*
X148199506Y-81208034D01*
X148199504Y-81208037D01*
X148136905Y-81316463D01*
X148136905Y-81316464D01*
X148104500Y-81437399D01*
X131872447Y-81437399D01*
X131855495Y-81408036D01*
X131766964Y-81319505D01*
X131658536Y-81256905D01*
X131658534Y-81256904D01*
X131628932Y-81248972D01*
X131569273Y-81212606D01*
X131538745Y-81149758D01*
X131547042Y-81080382D01*
X131591529Y-81026506D01*
X131628930Y-81009425D01*
X131708536Y-80988095D01*
X131816964Y-80925495D01*
X131905495Y-80836964D01*
X131968095Y-80728536D01*
X132000500Y-80607601D01*
X132000500Y-80482399D01*
X131968095Y-80361464D01*
X131905495Y-80253036D01*
X131816964Y-80164505D01*
X131708536Y-80101905D01*
X131708537Y-80101905D01*
X131646830Y-80085370D01*
X131587601Y-80069500D01*
X131587600Y-80069500D01*
X131585010Y-80068806D01*
X131576457Y-80063592D01*
X131566533Y-80062250D01*
X131547124Y-80045712D01*
X131525349Y-80032440D01*
X131520972Y-80023430D01*
X131513350Y-80016936D01*
X131505962Y-79992529D01*
X131494821Y-79969593D01*
X131496009Y-79959649D01*
X131493108Y-79950062D01*
X131496712Y-79937399D01*
X138998500Y-79937399D01*
X138998500Y-80062601D01*
X139030905Y-80183536D01*
X139093505Y-80291964D01*
X139182036Y-80380495D01*
X139290464Y-80443095D01*
X139411399Y-80475500D01*
X139411401Y-80475500D01*
X139450500Y-80475500D01*
X139517539Y-80495185D01*
X139563294Y-80547989D01*
X139574500Y-80599500D01*
X139574500Y-80712601D01*
X139606905Y-80833536D01*
X139669505Y-80941964D01*
X139758036Y-81030495D01*
X139866464Y-81093095D01*
X139987399Y-81125500D01*
X139987401Y-81125500D01*
X140112599Y-81125500D01*
X140112601Y-81125500D01*
X140233536Y-81093095D01*
X140341964Y-81030495D01*
X140430495Y-80941964D01*
X140493095Y-80833536D01*
X140525500Y-80712601D01*
X140525500Y-80587399D01*
X140493095Y-80466464D01*
X140430495Y-80358036D01*
X140341964Y-80269505D01*
X140233536Y-80206905D01*
X140233537Y-80206905D01*
X140183255Y-80193432D01*
X140112601Y-80174500D01*
X140073500Y-80174500D01*
X140006461Y-80154815D01*
X139960706Y-80102011D01*
X139949500Y-80050500D01*
X139949500Y-79937400D01*
X139949500Y-79937399D01*
X139917095Y-79816464D01*
X139854495Y-79708036D01*
X139765964Y-79619505D01*
X139657536Y-79556905D01*
X139657537Y-79556905D01*
X139617224Y-79546103D01*
X139536601Y-79524500D01*
X139411399Y-79524500D01*
X139330775Y-79546103D01*
X139290463Y-79556905D01*
X139182037Y-79619504D01*
X139182034Y-79619506D01*
X139093506Y-79708034D01*
X139093504Y-79708037D01*
X139030905Y-79816463D01*
X139017631Y-79866004D01*
X138998500Y-79937399D01*
X131496712Y-79937399D01*
X131500088Y-79925535D01*
X131503116Y-79900218D01*
X131509493Y-79892494D01*
X131512235Y-79882862D01*
X131531365Y-79866004D01*
X131547602Y-79846340D01*
X131558538Y-79842059D01*
X131564656Y-79836669D01*
X131597944Y-79826636D01*
X131598437Y-79826444D01*
X131598541Y-79826428D01*
X131719640Y-79808283D01*
X131742964Y-79803391D01*
X131770674Y-79795878D01*
X131843928Y-79759075D01*
X131898850Y-79715885D01*
X131917624Y-79699164D01*
X131917629Y-79699155D01*
X131923339Y-79692384D01*
X131926175Y-79694774D01*
X131965178Y-79659955D01*
X132034182Y-79648989D01*
X132050431Y-79652196D01*
X132137399Y-79675500D01*
X132137402Y-79675500D01*
X132262599Y-79675500D01*
X132262601Y-79675500D01*
X132383536Y-79643095D01*
X132482515Y-79585950D01*
X132550412Y-79569478D01*
X132616439Y-79592330D01*
X132619211Y-79594363D01*
X132625471Y-79599091D01*
X132711024Y-79631417D01*
X132780240Y-79640950D01*
X132838730Y-79640603D01*
X134649327Y-79369307D01*
X134677359Y-79363078D01*
X134710495Y-79353241D01*
X134738971Y-79337636D01*
X134807219Y-79322683D01*
X134872720Y-79347001D01*
X134886240Y-79358699D01*
X134908036Y-79380495D01*
X135016464Y-79443095D01*
X135137399Y-79475500D01*
X135137401Y-79475500D01*
X135262599Y-79475500D01*
X135262601Y-79475500D01*
X135383536Y-79443095D01*
X135491964Y-79380495D01*
X135580495Y-79291964D01*
X135606482Y-79246951D01*
X135657046Y-79198737D01*
X135725653Y-79185512D01*
X135730790Y-79186111D01*
X135775080Y-79192211D01*
X135833570Y-79191864D01*
X157955333Y-75877202D01*
X158008577Y-75861655D01*
X158069152Y-75834642D01*
X158086496Y-75825761D01*
X158155136Y-75812728D01*
X158205009Y-75828747D01*
X158208035Y-75830494D01*
X158208036Y-75830495D01*
X158316464Y-75893095D01*
X158437399Y-75925500D01*
X158437401Y-75925500D01*
X158562599Y-75925500D01*
X158562601Y-75925500D01*
X158683536Y-75893095D01*
X158791964Y-75830495D01*
X158880495Y-75741964D01*
X158880498Y-75741957D01*
X158885445Y-75735513D01*
X158887653Y-75737207D01*
X158893222Y-75731895D01*
X158904882Y-75714111D01*
X158917996Y-75708265D01*
X158928389Y-75698352D01*
X158949273Y-75694322D01*
X158968698Y-75685664D01*
X158993010Y-75685884D01*
X158996993Y-75685116D01*
X159001877Y-75685964D01*
G37*
%TD.AperFunction*%
%TA.AperFunction,Conductor*%
G36*
X155166508Y-70974223D02*
G01*
X155203650Y-70984175D01*
X155233555Y-70996563D01*
X155266851Y-71015787D01*
X155292531Y-71035492D01*
X155319705Y-71062666D01*
X155339411Y-71088347D01*
X155358636Y-71121646D01*
X155371023Y-71151550D01*
X155380974Y-71188684D01*
X155385200Y-71220780D01*
X155385200Y-71259218D01*
X155380974Y-71291314D01*
X155371023Y-71328448D01*
X155358636Y-71358352D01*
X155339411Y-71391651D01*
X155319705Y-71417332D01*
X155292532Y-71444505D01*
X155266851Y-71464211D01*
X155233552Y-71483436D01*
X155203648Y-71495823D01*
X155166514Y-71505774D01*
X155134418Y-71510000D01*
X155095982Y-71510000D01*
X155063887Y-71505774D01*
X155026748Y-71495822D01*
X154996843Y-71483435D01*
X154963548Y-71464212D01*
X154963547Y-71464211D01*
X154937867Y-71444506D01*
X154910693Y-71417332D01*
X154890987Y-71391651D01*
X154871763Y-71358354D01*
X154859375Y-71328445D01*
X154849425Y-71291308D01*
X154845200Y-71259217D01*
X154845200Y-71220779D01*
X154849424Y-71188689D01*
X154859377Y-71151542D01*
X154871760Y-71121646D01*
X154890986Y-71088347D01*
X154910685Y-71062674D01*
X154937871Y-71035488D01*
X154963550Y-71015785D01*
X154996845Y-70996563D01*
X155026750Y-70984176D01*
X155063888Y-70974225D01*
X155095981Y-70970000D01*
X155134420Y-70970000D01*
X155166508Y-70974223D01*
G37*
%TD.AperFunction*%
%TD*%
M02*
