%TF.GenerationSoftware,KiCad,Pcbnew,9.0.6+1*%
%TF.CreationDate,Date%
%TF.ProjectId,FCU3,46435533-2e6b-4696-9361-645f70636258,+ (Unreleased)*%
%TF.SameCoordinates,Original*%
%TF.FileFunction,Paste,Bot*%
%TF.FilePolarity,Positive*%
%FSLAX46Y46*%
G04 Gerber Fmt 4.6, Leading zero omitted, Abs format (unit mm)*
G04 Created by KiCad*
%MOMM*%
%LPD*%
G01*
G04 APERTURE LIST*
G04 Aperture macros list*
%AMRoundRect*
0 Rectangle with rounded corners*
0 $1 Rounding radius*
0 $2 $3 $4 $5 $6 $7 $8 $9 X,Y pos of 4 corners*
0 Add a 4 corners polygon primitive as box body*
4,1,4,$2,$3,$4,$5,$6,$7,$8,$9,$2,$3,0*
0 Add four circle primitives for the rounded corners*
1,1,$1+$1,$2,$3*
1,1,$1+$1,$4,$5*
1,1,$1+$1,$6,$7*
1,1,$1+$1,$8,$9*
0 Add four rect primitives between the rounded corners*
20,1,$1+$1,$2,$3,$4,$5,0*
20,1,$1+$1,$4,$5,$6,$7,0*
20,1,$1+$1,$6,$7,$8,$9,0*
20,1,$1+$1,$8,$9,$2,$3,0*%
G04 Aperture macros list end*
%ADD10C,0.010000*%
%ADD11RoundRect,0.237500X0.250000X0.237500X-0.250000X0.237500X-0.250000X-0.237500X0.250000X-0.237500X0*%
%ADD12RoundRect,0.250000X0.450000X-0.350000X0.450000X0.350000X-0.450000X0.350000X-0.450000X-0.350000X0*%
%ADD13RoundRect,0.237500X-0.237500X0.250000X-0.237500X-0.250000X0.237500X-0.250000X0.237500X0.250000X0*%
%ADD14RoundRect,0.237500X0.237500X-0.300000X0.237500X0.300000X-0.237500X0.300000X-0.237500X-0.300000X0*%
%ADD15RoundRect,0.250000X-0.650000X0.325000X-0.650000X-0.325000X0.650000X-0.325000X0.650000X0.325000X0*%
%ADD16RoundRect,0.237500X-0.250000X-0.237500X0.250000X-0.237500X0.250000X0.237500X-0.250000X0.237500X0*%
%ADD17RoundRect,0.150000X-0.587500X-0.150000X0.587500X-0.150000X0.587500X0.150000X-0.587500X0.150000X0*%
%ADD18RoundRect,0.150000X0.587500X0.150000X-0.587500X0.150000X-0.587500X-0.150000X0.587500X-0.150000X0*%
%ADD19RoundRect,0.237500X0.237500X-0.250000X0.237500X0.250000X-0.237500X0.250000X-0.237500X-0.250000X0*%
%ADD20RoundRect,0.237500X0.300000X0.237500X-0.300000X0.237500X-0.300000X-0.237500X0.300000X-0.237500X0*%
%ADD21RoundRect,0.050000X-0.350000X-0.075000X0.350000X-0.075000X0.350000X0.075000X-0.350000X0.075000X0*%
%ADD22RoundRect,0.049500X-0.100500X-0.225500X0.100500X-0.225500X0.100500X0.225500X-0.100500X0.225500X0*%
G04 APERTURE END LIST*
D10*
%TO.C,PS1*%
X152708000Y-84661000D02*
X152710000Y-84661000D01*
X152713000Y-84662000D01*
X152715000Y-84662000D01*
X152718000Y-84663000D01*
X152720000Y-84664000D01*
X152723000Y-84665000D01*
X152725000Y-84667000D01*
X152727000Y-84668000D01*
X152729000Y-84670000D01*
X152731000Y-84671000D01*
X152733000Y-84673000D01*
X152735000Y-84675000D01*
X152737000Y-84677000D01*
X152739000Y-84679000D01*
X152740000Y-84681000D01*
X152742000Y-84683000D01*
X152743000Y-84685000D01*
X152745000Y-84687000D01*
X152746000Y-84690000D01*
X152747000Y-84692000D01*
X152748000Y-84695000D01*
X152748000Y-84697000D01*
X152749000Y-84700000D01*
X152749000Y-84702000D01*
X152750000Y-84705000D01*
X152750000Y-84707000D01*
X152750000Y-84710000D01*
X152750000Y-84860000D01*
X152750000Y-84863000D01*
X152750000Y-84865000D01*
X152749000Y-84868000D01*
X152749000Y-84870000D01*
X152748000Y-84873000D01*
X152748000Y-84875000D01*
X152747000Y-84878000D01*
X152746000Y-84880000D01*
X152745000Y-84883000D01*
X152743000Y-84885000D01*
X152742000Y-84887000D01*
X152740000Y-84889000D01*
X152739000Y-84891000D01*
X152737000Y-84893000D01*
X152735000Y-84895000D01*
X152733000Y-84897000D01*
X152731000Y-84899000D01*
X152729000Y-84900000D01*
X152727000Y-84902000D01*
X152725000Y-84903000D01*
X152723000Y-84905000D01*
X152720000Y-84906000D01*
X152718000Y-84907000D01*
X152715000Y-84908000D01*
X152713000Y-84908000D01*
X152710000Y-84909000D01*
X152708000Y-84909000D01*
X152705000Y-84910000D01*
X152703000Y-84910000D01*
X152700000Y-84910000D01*
X152350000Y-84910000D01*
X152347000Y-84910000D01*
X152345000Y-84910000D01*
X152342000Y-84909000D01*
X152340000Y-84909000D01*
X152337000Y-84908000D01*
X152335000Y-84908000D01*
X152332000Y-84907000D01*
X152330000Y-84906000D01*
X152327000Y-84905000D01*
X152325000Y-84903000D01*
X152323000Y-84902000D01*
X152321000Y-84900000D01*
X152319000Y-84899000D01*
X152317000Y-84897000D01*
X152315000Y-84895000D01*
X152313000Y-84893000D01*
X152311000Y-84891000D01*
X152310000Y-84889000D01*
X152308000Y-84887000D01*
X152307000Y-84885000D01*
X152305000Y-84883000D01*
X152304000Y-84880000D01*
X152303000Y-84878000D01*
X152302000Y-84875000D01*
X152302000Y-84873000D01*
X152301000Y-84870000D01*
X152301000Y-84868000D01*
X152300000Y-84865000D01*
X152300000Y-84863000D01*
X152300000Y-84860000D01*
X152300000Y-84710000D01*
X152300000Y-84707000D01*
X152300000Y-84705000D01*
X152301000Y-84702000D01*
X152301000Y-84700000D01*
X152302000Y-84697000D01*
X152302000Y-84695000D01*
X152303000Y-84692000D01*
X152304000Y-84690000D01*
X152305000Y-84687000D01*
X152307000Y-84685000D01*
X152308000Y-84683000D01*
X152310000Y-84681000D01*
X152311000Y-84679000D01*
X152313000Y-84677000D01*
X152315000Y-84675000D01*
X152317000Y-84673000D01*
X152319000Y-84671000D01*
X152321000Y-84670000D01*
X152323000Y-84668000D01*
X152325000Y-84667000D01*
X152327000Y-84665000D01*
X152330000Y-84664000D01*
X152332000Y-84663000D01*
X152335000Y-84662000D01*
X152337000Y-84662000D01*
X152340000Y-84661000D01*
X152342000Y-84661000D01*
X152345000Y-84660000D01*
X152347000Y-84660000D01*
X152350000Y-84660000D01*
X152700000Y-84660000D01*
X152703000Y-84660000D01*
X152705000Y-84660000D01*
X152708000Y-84661000D01*
G36*
X152708000Y-84661000D02*
G01*
X152710000Y-84661000D01*
X152713000Y-84662000D01*
X152715000Y-84662000D01*
X152718000Y-84663000D01*
X152720000Y-84664000D01*
X152723000Y-84665000D01*
X152725000Y-84667000D01*
X152727000Y-84668000D01*
X152729000Y-84670000D01*
X152731000Y-84671000D01*
X152733000Y-84673000D01*
X152735000Y-84675000D01*
X152737000Y-84677000D01*
X152739000Y-84679000D01*
X152740000Y-84681000D01*
X152742000Y-84683000D01*
X152743000Y-84685000D01*
X152745000Y-84687000D01*
X152746000Y-84690000D01*
X152747000Y-84692000D01*
X152748000Y-84695000D01*
X152748000Y-84697000D01*
X152749000Y-84700000D01*
X152749000Y-84702000D01*
X152750000Y-84705000D01*
X152750000Y-84707000D01*
X152750000Y-84710000D01*
X152750000Y-84860000D01*
X152750000Y-84863000D01*
X152750000Y-84865000D01*
X152749000Y-84868000D01*
X152749000Y-84870000D01*
X152748000Y-84873000D01*
X152748000Y-84875000D01*
X152747000Y-84878000D01*
X152746000Y-84880000D01*
X152745000Y-84883000D01*
X152743000Y-84885000D01*
X152742000Y-84887000D01*
X152740000Y-84889000D01*
X152739000Y-84891000D01*
X152737000Y-84893000D01*
X152735000Y-84895000D01*
X152733000Y-84897000D01*
X152731000Y-84899000D01*
X152729000Y-84900000D01*
X152727000Y-84902000D01*
X152725000Y-84903000D01*
X152723000Y-84905000D01*
X152720000Y-84906000D01*
X152718000Y-84907000D01*
X152715000Y-84908000D01*
X152713000Y-84908000D01*
X152710000Y-84909000D01*
X152708000Y-84909000D01*
X152705000Y-84910000D01*
X152703000Y-84910000D01*
X152700000Y-84910000D01*
X152350000Y-84910000D01*
X152347000Y-84910000D01*
X152345000Y-84910000D01*
X152342000Y-84909000D01*
X152340000Y-84909000D01*
X152337000Y-84908000D01*
X152335000Y-84908000D01*
X152332000Y-84907000D01*
X152330000Y-84906000D01*
X152327000Y-84905000D01*
X152325000Y-84903000D01*
X152323000Y-84902000D01*
X152321000Y-84900000D01*
X152319000Y-84899000D01*
X152317000Y-84897000D01*
X152315000Y-84895000D01*
X152313000Y-84893000D01*
X152311000Y-84891000D01*
X152310000Y-84889000D01*
X152308000Y-84887000D01*
X152307000Y-84885000D01*
X152305000Y-84883000D01*
X152304000Y-84880000D01*
X152303000Y-84878000D01*
X152302000Y-84875000D01*
X152302000Y-84873000D01*
X152301000Y-84870000D01*
X152301000Y-84868000D01*
X152300000Y-84865000D01*
X152300000Y-84863000D01*
X152300000Y-84860000D01*
X152300000Y-84710000D01*
X152300000Y-84707000D01*
X152300000Y-84705000D01*
X152301000Y-84702000D01*
X152301000Y-84700000D01*
X152302000Y-84697000D01*
X152302000Y-84695000D01*
X152303000Y-84692000D01*
X152304000Y-84690000D01*
X152305000Y-84687000D01*
X152307000Y-84685000D01*
X152308000Y-84683000D01*
X152310000Y-84681000D01*
X152311000Y-84679000D01*
X152313000Y-84677000D01*
X152315000Y-84675000D01*
X152317000Y-84673000D01*
X152319000Y-84671000D01*
X152321000Y-84670000D01*
X152323000Y-84668000D01*
X152325000Y-84667000D01*
X152327000Y-84665000D01*
X152330000Y-84664000D01*
X152332000Y-84663000D01*
X152335000Y-84662000D01*
X152337000Y-84662000D01*
X152340000Y-84661000D01*
X152342000Y-84661000D01*
X152345000Y-84660000D01*
X152347000Y-84660000D01*
X152350000Y-84660000D01*
X152700000Y-84660000D01*
X152703000Y-84660000D01*
X152705000Y-84660000D01*
X152708000Y-84661000D01*
G37*
X152708000Y-85161000D02*
X152710000Y-85161000D01*
X152713000Y-85162000D01*
X152715000Y-85162000D01*
X152718000Y-85163000D01*
X152720000Y-85164000D01*
X152723000Y-85165000D01*
X152725000Y-85167000D01*
X152727000Y-85168000D01*
X152729000Y-85170000D01*
X152731000Y-85171000D01*
X152733000Y-85173000D01*
X152735000Y-85175000D01*
X152737000Y-85177000D01*
X152739000Y-85179000D01*
X152740000Y-85181000D01*
X152742000Y-85183000D01*
X152743000Y-85185000D01*
X152745000Y-85187000D01*
X152746000Y-85190000D01*
X152747000Y-85192000D01*
X152748000Y-85195000D01*
X152748000Y-85197000D01*
X152749000Y-85200000D01*
X152749000Y-85202000D01*
X152750000Y-85205000D01*
X152750000Y-85207000D01*
X152750000Y-85210000D01*
X152750000Y-85360000D01*
X152750000Y-85363000D01*
X152750000Y-85365000D01*
X152749000Y-85368000D01*
X152749000Y-85370000D01*
X152748000Y-85373000D01*
X152748000Y-85375000D01*
X152747000Y-85378000D01*
X152746000Y-85380000D01*
X152745000Y-85383000D01*
X152743000Y-85385000D01*
X152742000Y-85387000D01*
X152740000Y-85389000D01*
X152739000Y-85391000D01*
X152737000Y-85393000D01*
X152735000Y-85395000D01*
X152733000Y-85397000D01*
X152731000Y-85399000D01*
X152729000Y-85400000D01*
X152727000Y-85402000D01*
X152725000Y-85403000D01*
X152723000Y-85405000D01*
X152720000Y-85406000D01*
X152718000Y-85407000D01*
X152715000Y-85408000D01*
X152713000Y-85408000D01*
X152710000Y-85409000D01*
X152708000Y-85409000D01*
X152705000Y-85410000D01*
X152703000Y-85410000D01*
X152700000Y-85410000D01*
X152350000Y-85410000D01*
X152347000Y-85410000D01*
X152345000Y-85410000D01*
X152342000Y-85409000D01*
X152340000Y-85409000D01*
X152337000Y-85408000D01*
X152335000Y-85408000D01*
X152332000Y-85407000D01*
X152330000Y-85406000D01*
X152327000Y-85405000D01*
X152325000Y-85403000D01*
X152323000Y-85402000D01*
X152321000Y-85400000D01*
X152319000Y-85399000D01*
X152317000Y-85397000D01*
X152315000Y-85395000D01*
X152313000Y-85393000D01*
X152311000Y-85391000D01*
X152310000Y-85389000D01*
X152308000Y-85387000D01*
X152307000Y-85385000D01*
X152305000Y-85383000D01*
X152304000Y-85380000D01*
X152303000Y-85378000D01*
X152302000Y-85375000D01*
X152302000Y-85373000D01*
X152301000Y-85370000D01*
X152301000Y-85368000D01*
X152300000Y-85365000D01*
X152300000Y-85363000D01*
X152300000Y-85360000D01*
X152300000Y-85210000D01*
X152300000Y-85207000D01*
X152300000Y-85205000D01*
X152301000Y-85202000D01*
X152301000Y-85200000D01*
X152302000Y-85197000D01*
X152302000Y-85195000D01*
X152303000Y-85192000D01*
X152304000Y-85190000D01*
X152305000Y-85187000D01*
X152307000Y-85185000D01*
X152308000Y-85183000D01*
X152310000Y-85181000D01*
X152311000Y-85179000D01*
X152313000Y-85177000D01*
X152315000Y-85175000D01*
X152317000Y-85173000D01*
X152319000Y-85171000D01*
X152321000Y-85170000D01*
X152323000Y-85168000D01*
X152325000Y-85167000D01*
X152327000Y-85165000D01*
X152330000Y-85164000D01*
X152332000Y-85163000D01*
X152335000Y-85162000D01*
X152337000Y-85162000D01*
X152340000Y-85161000D01*
X152342000Y-85161000D01*
X152345000Y-85160000D01*
X152347000Y-85160000D01*
X152350000Y-85160000D01*
X152700000Y-85160000D01*
X152703000Y-85160000D01*
X152705000Y-85160000D01*
X152708000Y-85161000D01*
G36*
X152708000Y-85161000D02*
G01*
X152710000Y-85161000D01*
X152713000Y-85162000D01*
X152715000Y-85162000D01*
X152718000Y-85163000D01*
X152720000Y-85164000D01*
X152723000Y-85165000D01*
X152725000Y-85167000D01*
X152727000Y-85168000D01*
X152729000Y-85170000D01*
X152731000Y-85171000D01*
X152733000Y-85173000D01*
X152735000Y-85175000D01*
X152737000Y-85177000D01*
X152739000Y-85179000D01*
X152740000Y-85181000D01*
X152742000Y-85183000D01*
X152743000Y-85185000D01*
X152745000Y-85187000D01*
X152746000Y-85190000D01*
X152747000Y-85192000D01*
X152748000Y-85195000D01*
X152748000Y-85197000D01*
X152749000Y-85200000D01*
X152749000Y-85202000D01*
X152750000Y-85205000D01*
X152750000Y-85207000D01*
X152750000Y-85210000D01*
X152750000Y-85360000D01*
X152750000Y-85363000D01*
X152750000Y-85365000D01*
X152749000Y-85368000D01*
X152749000Y-85370000D01*
X152748000Y-85373000D01*
X152748000Y-85375000D01*
X152747000Y-85378000D01*
X152746000Y-85380000D01*
X152745000Y-85383000D01*
X152743000Y-85385000D01*
X152742000Y-85387000D01*
X152740000Y-85389000D01*
X152739000Y-85391000D01*
X152737000Y-85393000D01*
X152735000Y-85395000D01*
X152733000Y-85397000D01*
X152731000Y-85399000D01*
X152729000Y-85400000D01*
X152727000Y-85402000D01*
X152725000Y-85403000D01*
X152723000Y-85405000D01*
X152720000Y-85406000D01*
X152718000Y-85407000D01*
X152715000Y-85408000D01*
X152713000Y-85408000D01*
X152710000Y-85409000D01*
X152708000Y-85409000D01*
X152705000Y-85410000D01*
X152703000Y-85410000D01*
X152700000Y-85410000D01*
X152350000Y-85410000D01*
X152347000Y-85410000D01*
X152345000Y-85410000D01*
X152342000Y-85409000D01*
X152340000Y-85409000D01*
X152337000Y-85408000D01*
X152335000Y-85408000D01*
X152332000Y-85407000D01*
X152330000Y-85406000D01*
X152327000Y-85405000D01*
X152325000Y-85403000D01*
X152323000Y-85402000D01*
X152321000Y-85400000D01*
X152319000Y-85399000D01*
X152317000Y-85397000D01*
X152315000Y-85395000D01*
X152313000Y-85393000D01*
X152311000Y-85391000D01*
X152310000Y-85389000D01*
X152308000Y-85387000D01*
X152307000Y-85385000D01*
X152305000Y-85383000D01*
X152304000Y-85380000D01*
X152303000Y-85378000D01*
X152302000Y-85375000D01*
X152302000Y-85373000D01*
X152301000Y-85370000D01*
X152301000Y-85368000D01*
X152300000Y-85365000D01*
X152300000Y-85363000D01*
X152300000Y-85360000D01*
X152300000Y-85210000D01*
X152300000Y-85207000D01*
X152300000Y-85205000D01*
X152301000Y-85202000D01*
X152301000Y-85200000D01*
X152302000Y-85197000D01*
X152302000Y-85195000D01*
X152303000Y-85192000D01*
X152304000Y-85190000D01*
X152305000Y-85187000D01*
X152307000Y-85185000D01*
X152308000Y-85183000D01*
X152310000Y-85181000D01*
X152311000Y-85179000D01*
X152313000Y-85177000D01*
X152315000Y-85175000D01*
X152317000Y-85173000D01*
X152319000Y-85171000D01*
X152321000Y-85170000D01*
X152323000Y-85168000D01*
X152325000Y-85167000D01*
X152327000Y-85165000D01*
X152330000Y-85164000D01*
X152332000Y-85163000D01*
X152335000Y-85162000D01*
X152337000Y-85162000D01*
X152340000Y-85161000D01*
X152342000Y-85161000D01*
X152345000Y-85160000D01*
X152347000Y-85160000D01*
X152350000Y-85160000D01*
X152700000Y-85160000D01*
X152703000Y-85160000D01*
X152705000Y-85160000D01*
X152708000Y-85161000D01*
G37*
X152708000Y-85661000D02*
X152710000Y-85661000D01*
X152713000Y-85662000D01*
X152715000Y-85662000D01*
X152718000Y-85663000D01*
X152720000Y-85664000D01*
X152723000Y-85665000D01*
X152725000Y-85667000D01*
X152727000Y-85668000D01*
X152729000Y-85670000D01*
X152731000Y-85671000D01*
X152733000Y-85673000D01*
X152735000Y-85675000D01*
X152737000Y-85677000D01*
X152739000Y-85679000D01*
X152740000Y-85681000D01*
X152742000Y-85683000D01*
X152743000Y-85685000D01*
X152745000Y-85687000D01*
X152746000Y-85690000D01*
X152747000Y-85692000D01*
X152748000Y-85695000D01*
X152748000Y-85697000D01*
X152749000Y-85700000D01*
X152749000Y-85702000D01*
X152750000Y-85705000D01*
X152750000Y-85707000D01*
X152750000Y-85710000D01*
X152750000Y-85860000D01*
X152750000Y-85863000D01*
X152750000Y-85865000D01*
X152749000Y-85868000D01*
X152749000Y-85870000D01*
X152748000Y-85873000D01*
X152748000Y-85875000D01*
X152747000Y-85878000D01*
X152746000Y-85880000D01*
X152745000Y-85883000D01*
X152743000Y-85885000D01*
X152742000Y-85887000D01*
X152740000Y-85889000D01*
X152739000Y-85891000D01*
X152737000Y-85893000D01*
X152735000Y-85895000D01*
X152733000Y-85897000D01*
X152731000Y-85899000D01*
X152729000Y-85900000D01*
X152727000Y-85902000D01*
X152725000Y-85903000D01*
X152723000Y-85905000D01*
X152720000Y-85906000D01*
X152718000Y-85907000D01*
X152715000Y-85908000D01*
X152713000Y-85908000D01*
X152710000Y-85909000D01*
X152708000Y-85909000D01*
X152705000Y-85910000D01*
X152703000Y-85910000D01*
X152700000Y-85910000D01*
X152350000Y-85910000D01*
X152347000Y-85910000D01*
X152345000Y-85910000D01*
X152342000Y-85909000D01*
X152340000Y-85909000D01*
X152337000Y-85908000D01*
X152335000Y-85908000D01*
X152332000Y-85907000D01*
X152330000Y-85906000D01*
X152327000Y-85905000D01*
X152325000Y-85903000D01*
X152323000Y-85902000D01*
X152321000Y-85900000D01*
X152319000Y-85899000D01*
X152317000Y-85897000D01*
X152315000Y-85895000D01*
X152313000Y-85893000D01*
X152311000Y-85891000D01*
X152310000Y-85889000D01*
X152308000Y-85887000D01*
X152307000Y-85885000D01*
X152305000Y-85883000D01*
X152304000Y-85880000D01*
X152303000Y-85878000D01*
X152302000Y-85875000D01*
X152302000Y-85873000D01*
X152301000Y-85870000D01*
X152301000Y-85868000D01*
X152300000Y-85865000D01*
X152300000Y-85863000D01*
X152300000Y-85860000D01*
X152300000Y-85710000D01*
X152300000Y-85707000D01*
X152300000Y-85705000D01*
X152301000Y-85702000D01*
X152301000Y-85700000D01*
X152302000Y-85697000D01*
X152302000Y-85695000D01*
X152303000Y-85692000D01*
X152304000Y-85690000D01*
X152305000Y-85687000D01*
X152307000Y-85685000D01*
X152308000Y-85683000D01*
X152310000Y-85681000D01*
X152311000Y-85679000D01*
X152313000Y-85677000D01*
X152315000Y-85675000D01*
X152317000Y-85673000D01*
X152319000Y-85671000D01*
X152321000Y-85670000D01*
X152323000Y-85668000D01*
X152325000Y-85667000D01*
X152327000Y-85665000D01*
X152330000Y-85664000D01*
X152332000Y-85663000D01*
X152335000Y-85662000D01*
X152337000Y-85662000D01*
X152340000Y-85661000D01*
X152342000Y-85661000D01*
X152345000Y-85660000D01*
X152347000Y-85660000D01*
X152350000Y-85660000D01*
X152700000Y-85660000D01*
X152703000Y-85660000D01*
X152705000Y-85660000D01*
X152708000Y-85661000D01*
G36*
X152708000Y-85661000D02*
G01*
X152710000Y-85661000D01*
X152713000Y-85662000D01*
X152715000Y-85662000D01*
X152718000Y-85663000D01*
X152720000Y-85664000D01*
X152723000Y-85665000D01*
X152725000Y-85667000D01*
X152727000Y-85668000D01*
X152729000Y-85670000D01*
X152731000Y-85671000D01*
X152733000Y-85673000D01*
X152735000Y-85675000D01*
X152737000Y-85677000D01*
X152739000Y-85679000D01*
X152740000Y-85681000D01*
X152742000Y-85683000D01*
X152743000Y-85685000D01*
X152745000Y-85687000D01*
X152746000Y-85690000D01*
X152747000Y-85692000D01*
X152748000Y-85695000D01*
X152748000Y-85697000D01*
X152749000Y-85700000D01*
X152749000Y-85702000D01*
X152750000Y-85705000D01*
X152750000Y-85707000D01*
X152750000Y-85710000D01*
X152750000Y-85860000D01*
X152750000Y-85863000D01*
X152750000Y-85865000D01*
X152749000Y-85868000D01*
X152749000Y-85870000D01*
X152748000Y-85873000D01*
X152748000Y-85875000D01*
X152747000Y-85878000D01*
X152746000Y-85880000D01*
X152745000Y-85883000D01*
X152743000Y-85885000D01*
X152742000Y-85887000D01*
X152740000Y-85889000D01*
X152739000Y-85891000D01*
X152737000Y-85893000D01*
X152735000Y-85895000D01*
X152733000Y-85897000D01*
X152731000Y-85899000D01*
X152729000Y-85900000D01*
X152727000Y-85902000D01*
X152725000Y-85903000D01*
X152723000Y-85905000D01*
X152720000Y-85906000D01*
X152718000Y-85907000D01*
X152715000Y-85908000D01*
X152713000Y-85908000D01*
X152710000Y-85909000D01*
X152708000Y-85909000D01*
X152705000Y-85910000D01*
X152703000Y-85910000D01*
X152700000Y-85910000D01*
X152350000Y-85910000D01*
X152347000Y-85910000D01*
X152345000Y-85910000D01*
X152342000Y-85909000D01*
X152340000Y-85909000D01*
X152337000Y-85908000D01*
X152335000Y-85908000D01*
X152332000Y-85907000D01*
X152330000Y-85906000D01*
X152327000Y-85905000D01*
X152325000Y-85903000D01*
X152323000Y-85902000D01*
X152321000Y-85900000D01*
X152319000Y-85899000D01*
X152317000Y-85897000D01*
X152315000Y-85895000D01*
X152313000Y-85893000D01*
X152311000Y-85891000D01*
X152310000Y-85889000D01*
X152308000Y-85887000D01*
X152307000Y-85885000D01*
X152305000Y-85883000D01*
X152304000Y-85880000D01*
X152303000Y-85878000D01*
X152302000Y-85875000D01*
X152302000Y-85873000D01*
X152301000Y-85870000D01*
X152301000Y-85868000D01*
X152300000Y-85865000D01*
X152300000Y-85863000D01*
X152300000Y-85860000D01*
X152300000Y-85710000D01*
X152300000Y-85707000D01*
X152300000Y-85705000D01*
X152301000Y-85702000D01*
X152301000Y-85700000D01*
X152302000Y-85697000D01*
X152302000Y-85695000D01*
X152303000Y-85692000D01*
X152304000Y-85690000D01*
X152305000Y-85687000D01*
X152307000Y-85685000D01*
X152308000Y-85683000D01*
X152310000Y-85681000D01*
X152311000Y-85679000D01*
X152313000Y-85677000D01*
X152315000Y-85675000D01*
X152317000Y-85673000D01*
X152319000Y-85671000D01*
X152321000Y-85670000D01*
X152323000Y-85668000D01*
X152325000Y-85667000D01*
X152327000Y-85665000D01*
X152330000Y-85664000D01*
X152332000Y-85663000D01*
X152335000Y-85662000D01*
X152337000Y-85662000D01*
X152340000Y-85661000D01*
X152342000Y-85661000D01*
X152345000Y-85660000D01*
X152347000Y-85660000D01*
X152350000Y-85660000D01*
X152700000Y-85660000D01*
X152703000Y-85660000D01*
X152705000Y-85660000D01*
X152708000Y-85661000D01*
G37*
X153983000Y-86776000D02*
X153985000Y-86776000D01*
X153988000Y-86777000D01*
X153990000Y-86777000D01*
X153993000Y-86778000D01*
X153995000Y-86779000D01*
X153998000Y-86780000D01*
X154000000Y-86782000D01*
X154002000Y-86783000D01*
X154004000Y-86785000D01*
X154006000Y-86786000D01*
X154008000Y-86788000D01*
X154010000Y-86790000D01*
X154012000Y-86792000D01*
X154014000Y-86794000D01*
X154015000Y-86796000D01*
X154017000Y-86798000D01*
X154018000Y-86800000D01*
X154020000Y-86802000D01*
X154021000Y-86805000D01*
X154022000Y-86807000D01*
X154023000Y-86810000D01*
X154023000Y-86812000D01*
X154024000Y-86815000D01*
X154024000Y-86817000D01*
X154025000Y-86820000D01*
X154025000Y-86822000D01*
X154025000Y-86825000D01*
X154025000Y-88050000D01*
X154025000Y-88053000D01*
X154025000Y-88055000D01*
X154024000Y-88058000D01*
X154024000Y-88060000D01*
X154023000Y-88063000D01*
X154023000Y-88065000D01*
X154022000Y-88068000D01*
X154021000Y-88070000D01*
X154020000Y-88073000D01*
X154018000Y-88075000D01*
X154017000Y-88077000D01*
X154015000Y-88079000D01*
X154014000Y-88081000D01*
X154012000Y-88083000D01*
X154010000Y-88085000D01*
X154008000Y-88087000D01*
X154006000Y-88089000D01*
X154004000Y-88090000D01*
X154002000Y-88092000D01*
X154000000Y-88093000D01*
X153998000Y-88095000D01*
X153995000Y-88096000D01*
X153993000Y-88097000D01*
X153990000Y-88098000D01*
X153988000Y-88098000D01*
X153985000Y-88099000D01*
X153983000Y-88099000D01*
X153980000Y-88100000D01*
X153978000Y-88100000D01*
X153975000Y-88100000D01*
X153825000Y-88100000D01*
X153822000Y-88100000D01*
X153820000Y-88100000D01*
X153817000Y-88099000D01*
X153815000Y-88099000D01*
X153812000Y-88098000D01*
X153810000Y-88098000D01*
X153807000Y-88097000D01*
X153805000Y-88096000D01*
X153802000Y-88095000D01*
X153800000Y-88093000D01*
X153798000Y-88092000D01*
X153796000Y-88090000D01*
X153794000Y-88089000D01*
X153792000Y-88087000D01*
X153790000Y-88085000D01*
X153788000Y-88083000D01*
X153786000Y-88081000D01*
X153785000Y-88079000D01*
X153783000Y-88077000D01*
X153782000Y-88075000D01*
X153780000Y-88073000D01*
X153779000Y-88070000D01*
X153778000Y-88068000D01*
X153777000Y-88065000D01*
X153777000Y-88063000D01*
X153776000Y-88060000D01*
X153776000Y-88058000D01*
X153775000Y-88055000D01*
X153775000Y-88053000D01*
X153775000Y-88050000D01*
X153775000Y-86825000D01*
X153775000Y-86822000D01*
X153775000Y-86820000D01*
X153776000Y-86817000D01*
X153776000Y-86815000D01*
X153777000Y-86812000D01*
X153777000Y-86810000D01*
X153778000Y-86807000D01*
X153779000Y-86805000D01*
X153780000Y-86802000D01*
X153782000Y-86800000D01*
X153783000Y-86798000D01*
X153785000Y-86796000D01*
X153786000Y-86794000D01*
X153788000Y-86792000D01*
X153790000Y-86790000D01*
X153792000Y-86788000D01*
X153794000Y-86786000D01*
X153796000Y-86785000D01*
X153798000Y-86783000D01*
X153800000Y-86782000D01*
X153802000Y-86780000D01*
X153805000Y-86779000D01*
X153807000Y-86778000D01*
X153810000Y-86777000D01*
X153812000Y-86777000D01*
X153815000Y-86776000D01*
X153817000Y-86776000D01*
X153820000Y-86775000D01*
X153822000Y-86775000D01*
X153825000Y-86775000D01*
X153975000Y-86775000D01*
X153978000Y-86775000D01*
X153980000Y-86775000D01*
X153983000Y-86776000D01*
G36*
X153983000Y-86776000D02*
G01*
X153985000Y-86776000D01*
X153988000Y-86777000D01*
X153990000Y-86777000D01*
X153993000Y-86778000D01*
X153995000Y-86779000D01*
X153998000Y-86780000D01*
X154000000Y-86782000D01*
X154002000Y-86783000D01*
X154004000Y-86785000D01*
X154006000Y-86786000D01*
X154008000Y-86788000D01*
X154010000Y-86790000D01*
X154012000Y-86792000D01*
X154014000Y-86794000D01*
X154015000Y-86796000D01*
X154017000Y-86798000D01*
X154018000Y-86800000D01*
X154020000Y-86802000D01*
X154021000Y-86805000D01*
X154022000Y-86807000D01*
X154023000Y-86810000D01*
X154023000Y-86812000D01*
X154024000Y-86815000D01*
X154024000Y-86817000D01*
X154025000Y-86820000D01*
X154025000Y-86822000D01*
X154025000Y-86825000D01*
X154025000Y-88050000D01*
X154025000Y-88053000D01*
X154025000Y-88055000D01*
X154024000Y-88058000D01*
X154024000Y-88060000D01*
X154023000Y-88063000D01*
X154023000Y-88065000D01*
X154022000Y-88068000D01*
X154021000Y-88070000D01*
X154020000Y-88073000D01*
X154018000Y-88075000D01*
X154017000Y-88077000D01*
X154015000Y-88079000D01*
X154014000Y-88081000D01*
X154012000Y-88083000D01*
X154010000Y-88085000D01*
X154008000Y-88087000D01*
X154006000Y-88089000D01*
X154004000Y-88090000D01*
X154002000Y-88092000D01*
X154000000Y-88093000D01*
X153998000Y-88095000D01*
X153995000Y-88096000D01*
X153993000Y-88097000D01*
X153990000Y-88098000D01*
X153988000Y-88098000D01*
X153985000Y-88099000D01*
X153983000Y-88099000D01*
X153980000Y-88100000D01*
X153978000Y-88100000D01*
X153975000Y-88100000D01*
X153825000Y-88100000D01*
X153822000Y-88100000D01*
X153820000Y-88100000D01*
X153817000Y-88099000D01*
X153815000Y-88099000D01*
X153812000Y-88098000D01*
X153810000Y-88098000D01*
X153807000Y-88097000D01*
X153805000Y-88096000D01*
X153802000Y-88095000D01*
X153800000Y-88093000D01*
X153798000Y-88092000D01*
X153796000Y-88090000D01*
X153794000Y-88089000D01*
X153792000Y-88087000D01*
X153790000Y-88085000D01*
X153788000Y-88083000D01*
X153786000Y-88081000D01*
X153785000Y-88079000D01*
X153783000Y-88077000D01*
X153782000Y-88075000D01*
X153780000Y-88073000D01*
X153779000Y-88070000D01*
X153778000Y-88068000D01*
X153777000Y-88065000D01*
X153777000Y-88063000D01*
X153776000Y-88060000D01*
X153776000Y-88058000D01*
X153775000Y-88055000D01*
X153775000Y-88053000D01*
X153775000Y-88050000D01*
X153775000Y-86825000D01*
X153775000Y-86822000D01*
X153775000Y-86820000D01*
X153776000Y-86817000D01*
X153776000Y-86815000D01*
X153777000Y-86812000D01*
X153777000Y-86810000D01*
X153778000Y-86807000D01*
X153779000Y-86805000D01*
X153780000Y-86802000D01*
X153782000Y-86800000D01*
X153783000Y-86798000D01*
X153785000Y-86796000D01*
X153786000Y-86794000D01*
X153788000Y-86792000D01*
X153790000Y-86790000D01*
X153792000Y-86788000D01*
X153794000Y-86786000D01*
X153796000Y-86785000D01*
X153798000Y-86783000D01*
X153800000Y-86782000D01*
X153802000Y-86780000D01*
X153805000Y-86779000D01*
X153807000Y-86778000D01*
X153810000Y-86777000D01*
X153812000Y-86777000D01*
X153815000Y-86776000D01*
X153817000Y-86776000D01*
X153820000Y-86775000D01*
X153822000Y-86775000D01*
X153825000Y-86775000D01*
X153975000Y-86775000D01*
X153978000Y-86775000D01*
X153980000Y-86775000D01*
X153983000Y-86776000D01*
G37*
X155958000Y-84661000D02*
X155960000Y-84661000D01*
X155963000Y-84662000D01*
X155965000Y-84662000D01*
X155968000Y-84663000D01*
X155970000Y-84664000D01*
X155973000Y-84665000D01*
X155975000Y-84667000D01*
X155977000Y-84668000D01*
X155979000Y-84670000D01*
X155981000Y-84671000D01*
X155983000Y-84673000D01*
X155985000Y-84675000D01*
X155987000Y-84677000D01*
X155989000Y-84679000D01*
X155990000Y-84681000D01*
X155992000Y-84683000D01*
X155993000Y-84685000D01*
X155995000Y-84687000D01*
X155996000Y-84690000D01*
X155997000Y-84692000D01*
X155998000Y-84695000D01*
X155998000Y-84697000D01*
X155999000Y-84700000D01*
X155999000Y-84702000D01*
X156000000Y-84705000D01*
X156000000Y-84707000D01*
X156000000Y-84710000D01*
X156000000Y-84860000D01*
X156000000Y-84863000D01*
X156000000Y-84865000D01*
X155999000Y-84868000D01*
X155999000Y-84870000D01*
X155998000Y-84873000D01*
X155998000Y-84875000D01*
X155997000Y-84878000D01*
X155996000Y-84880000D01*
X155995000Y-84883000D01*
X155993000Y-84885000D01*
X155992000Y-84887000D01*
X155990000Y-84889000D01*
X155989000Y-84891000D01*
X155987000Y-84893000D01*
X155985000Y-84895000D01*
X155983000Y-84897000D01*
X155981000Y-84899000D01*
X155979000Y-84900000D01*
X155977000Y-84902000D01*
X155975000Y-84903000D01*
X155973000Y-84905000D01*
X155970000Y-84906000D01*
X155968000Y-84907000D01*
X155965000Y-84908000D01*
X155963000Y-84908000D01*
X155960000Y-84909000D01*
X155958000Y-84909000D01*
X155955000Y-84910000D01*
X155953000Y-84910000D01*
X155950000Y-84910000D01*
X155600000Y-84910000D01*
X155597000Y-84910000D01*
X155595000Y-84910000D01*
X155592000Y-84909000D01*
X155590000Y-84909000D01*
X155587000Y-84908000D01*
X155585000Y-84908000D01*
X155582000Y-84907000D01*
X155580000Y-84906000D01*
X155577000Y-84905000D01*
X155575000Y-84903000D01*
X155573000Y-84902000D01*
X155571000Y-84900000D01*
X155569000Y-84899000D01*
X155567000Y-84897000D01*
X155565000Y-84895000D01*
X155563000Y-84893000D01*
X155561000Y-84891000D01*
X155560000Y-84889000D01*
X155558000Y-84887000D01*
X155557000Y-84885000D01*
X155555000Y-84883000D01*
X155554000Y-84880000D01*
X155553000Y-84878000D01*
X155552000Y-84875000D01*
X155552000Y-84873000D01*
X155551000Y-84870000D01*
X155551000Y-84868000D01*
X155550000Y-84865000D01*
X155550000Y-84863000D01*
X155550000Y-84860000D01*
X155550000Y-84710000D01*
X155550000Y-84707000D01*
X155550000Y-84705000D01*
X155551000Y-84702000D01*
X155551000Y-84700000D01*
X155552000Y-84697000D01*
X155552000Y-84695000D01*
X155553000Y-84692000D01*
X155554000Y-84690000D01*
X155555000Y-84687000D01*
X155557000Y-84685000D01*
X155558000Y-84683000D01*
X155560000Y-84681000D01*
X155561000Y-84679000D01*
X155563000Y-84677000D01*
X155565000Y-84675000D01*
X155567000Y-84673000D01*
X155569000Y-84671000D01*
X155571000Y-84670000D01*
X155573000Y-84668000D01*
X155575000Y-84667000D01*
X155577000Y-84665000D01*
X155580000Y-84664000D01*
X155582000Y-84663000D01*
X155585000Y-84662000D01*
X155587000Y-84662000D01*
X155590000Y-84661000D01*
X155592000Y-84661000D01*
X155595000Y-84660000D01*
X155597000Y-84660000D01*
X155600000Y-84660000D01*
X155950000Y-84660000D01*
X155953000Y-84660000D01*
X155955000Y-84660000D01*
X155958000Y-84661000D01*
G36*
X155958000Y-84661000D02*
G01*
X155960000Y-84661000D01*
X155963000Y-84662000D01*
X155965000Y-84662000D01*
X155968000Y-84663000D01*
X155970000Y-84664000D01*
X155973000Y-84665000D01*
X155975000Y-84667000D01*
X155977000Y-84668000D01*
X155979000Y-84670000D01*
X155981000Y-84671000D01*
X155983000Y-84673000D01*
X155985000Y-84675000D01*
X155987000Y-84677000D01*
X155989000Y-84679000D01*
X155990000Y-84681000D01*
X155992000Y-84683000D01*
X155993000Y-84685000D01*
X155995000Y-84687000D01*
X155996000Y-84690000D01*
X155997000Y-84692000D01*
X155998000Y-84695000D01*
X155998000Y-84697000D01*
X155999000Y-84700000D01*
X155999000Y-84702000D01*
X156000000Y-84705000D01*
X156000000Y-84707000D01*
X156000000Y-84710000D01*
X156000000Y-84860000D01*
X156000000Y-84863000D01*
X156000000Y-84865000D01*
X155999000Y-84868000D01*
X155999000Y-84870000D01*
X155998000Y-84873000D01*
X155998000Y-84875000D01*
X155997000Y-84878000D01*
X155996000Y-84880000D01*
X155995000Y-84883000D01*
X155993000Y-84885000D01*
X155992000Y-84887000D01*
X155990000Y-84889000D01*
X155989000Y-84891000D01*
X155987000Y-84893000D01*
X155985000Y-84895000D01*
X155983000Y-84897000D01*
X155981000Y-84899000D01*
X155979000Y-84900000D01*
X155977000Y-84902000D01*
X155975000Y-84903000D01*
X155973000Y-84905000D01*
X155970000Y-84906000D01*
X155968000Y-84907000D01*
X155965000Y-84908000D01*
X155963000Y-84908000D01*
X155960000Y-84909000D01*
X155958000Y-84909000D01*
X155955000Y-84910000D01*
X155953000Y-84910000D01*
X155950000Y-84910000D01*
X155600000Y-84910000D01*
X155597000Y-84910000D01*
X155595000Y-84910000D01*
X155592000Y-84909000D01*
X155590000Y-84909000D01*
X155587000Y-84908000D01*
X155585000Y-84908000D01*
X155582000Y-84907000D01*
X155580000Y-84906000D01*
X155577000Y-84905000D01*
X155575000Y-84903000D01*
X155573000Y-84902000D01*
X155571000Y-84900000D01*
X155569000Y-84899000D01*
X155567000Y-84897000D01*
X155565000Y-84895000D01*
X155563000Y-84893000D01*
X155561000Y-84891000D01*
X155560000Y-84889000D01*
X155558000Y-84887000D01*
X155557000Y-84885000D01*
X155555000Y-84883000D01*
X155554000Y-84880000D01*
X155553000Y-84878000D01*
X155552000Y-84875000D01*
X155552000Y-84873000D01*
X155551000Y-84870000D01*
X155551000Y-84868000D01*
X155550000Y-84865000D01*
X155550000Y-84863000D01*
X155550000Y-84860000D01*
X155550000Y-84710000D01*
X155550000Y-84707000D01*
X155550000Y-84705000D01*
X155551000Y-84702000D01*
X155551000Y-84700000D01*
X155552000Y-84697000D01*
X155552000Y-84695000D01*
X155553000Y-84692000D01*
X155554000Y-84690000D01*
X155555000Y-84687000D01*
X155557000Y-84685000D01*
X155558000Y-84683000D01*
X155560000Y-84681000D01*
X155561000Y-84679000D01*
X155563000Y-84677000D01*
X155565000Y-84675000D01*
X155567000Y-84673000D01*
X155569000Y-84671000D01*
X155571000Y-84670000D01*
X155573000Y-84668000D01*
X155575000Y-84667000D01*
X155577000Y-84665000D01*
X155580000Y-84664000D01*
X155582000Y-84663000D01*
X155585000Y-84662000D01*
X155587000Y-84662000D01*
X155590000Y-84661000D01*
X155592000Y-84661000D01*
X155595000Y-84660000D01*
X155597000Y-84660000D01*
X155600000Y-84660000D01*
X155950000Y-84660000D01*
X155953000Y-84660000D01*
X155955000Y-84660000D01*
X155958000Y-84661000D01*
G37*
X155958000Y-85161000D02*
X155960000Y-85161000D01*
X155963000Y-85162000D01*
X155965000Y-85162000D01*
X155968000Y-85163000D01*
X155970000Y-85164000D01*
X155973000Y-85165000D01*
X155975000Y-85167000D01*
X155977000Y-85168000D01*
X155979000Y-85170000D01*
X155981000Y-85171000D01*
X155983000Y-85173000D01*
X155985000Y-85175000D01*
X155987000Y-85177000D01*
X155989000Y-85179000D01*
X155990000Y-85181000D01*
X155992000Y-85183000D01*
X155993000Y-85185000D01*
X155995000Y-85187000D01*
X155996000Y-85190000D01*
X155997000Y-85192000D01*
X155998000Y-85195000D01*
X155998000Y-85197000D01*
X155999000Y-85200000D01*
X155999000Y-85202000D01*
X156000000Y-85205000D01*
X156000000Y-85207000D01*
X156000000Y-85210000D01*
X156000000Y-85360000D01*
X156000000Y-85363000D01*
X156000000Y-85365000D01*
X155999000Y-85368000D01*
X155999000Y-85370000D01*
X155998000Y-85373000D01*
X155998000Y-85375000D01*
X155997000Y-85378000D01*
X155996000Y-85380000D01*
X155995000Y-85383000D01*
X155993000Y-85385000D01*
X155992000Y-85387000D01*
X155990000Y-85389000D01*
X155989000Y-85391000D01*
X155987000Y-85393000D01*
X155985000Y-85395000D01*
X155983000Y-85397000D01*
X155981000Y-85399000D01*
X155979000Y-85400000D01*
X155977000Y-85402000D01*
X155975000Y-85403000D01*
X155973000Y-85405000D01*
X155970000Y-85406000D01*
X155968000Y-85407000D01*
X155965000Y-85408000D01*
X155963000Y-85408000D01*
X155960000Y-85409000D01*
X155958000Y-85409000D01*
X155955000Y-85410000D01*
X155953000Y-85410000D01*
X155950000Y-85410000D01*
X155600000Y-85410000D01*
X155597000Y-85410000D01*
X155595000Y-85410000D01*
X155592000Y-85409000D01*
X155590000Y-85409000D01*
X155587000Y-85408000D01*
X155585000Y-85408000D01*
X155582000Y-85407000D01*
X155580000Y-85406000D01*
X155577000Y-85405000D01*
X155575000Y-85403000D01*
X155573000Y-85402000D01*
X155571000Y-85400000D01*
X155569000Y-85399000D01*
X155567000Y-85397000D01*
X155565000Y-85395000D01*
X155563000Y-85393000D01*
X155561000Y-85391000D01*
X155560000Y-85389000D01*
X155558000Y-85387000D01*
X155557000Y-85385000D01*
X155555000Y-85383000D01*
X155554000Y-85380000D01*
X155553000Y-85378000D01*
X155552000Y-85375000D01*
X155552000Y-85373000D01*
X155551000Y-85370000D01*
X155551000Y-85368000D01*
X155550000Y-85365000D01*
X155550000Y-85363000D01*
X155550000Y-85360000D01*
X155550000Y-85210000D01*
X155550000Y-85207000D01*
X155550000Y-85205000D01*
X155551000Y-85202000D01*
X155551000Y-85200000D01*
X155552000Y-85197000D01*
X155552000Y-85195000D01*
X155553000Y-85192000D01*
X155554000Y-85190000D01*
X155555000Y-85187000D01*
X155557000Y-85185000D01*
X155558000Y-85183000D01*
X155560000Y-85181000D01*
X155561000Y-85179000D01*
X155563000Y-85177000D01*
X155565000Y-85175000D01*
X155567000Y-85173000D01*
X155569000Y-85171000D01*
X155571000Y-85170000D01*
X155573000Y-85168000D01*
X155575000Y-85167000D01*
X155577000Y-85165000D01*
X155580000Y-85164000D01*
X155582000Y-85163000D01*
X155585000Y-85162000D01*
X155587000Y-85162000D01*
X155590000Y-85161000D01*
X155592000Y-85161000D01*
X155595000Y-85160000D01*
X155597000Y-85160000D01*
X155600000Y-85160000D01*
X155950000Y-85160000D01*
X155953000Y-85160000D01*
X155955000Y-85160000D01*
X155958000Y-85161000D01*
G36*
X155958000Y-85161000D02*
G01*
X155960000Y-85161000D01*
X155963000Y-85162000D01*
X155965000Y-85162000D01*
X155968000Y-85163000D01*
X155970000Y-85164000D01*
X155973000Y-85165000D01*
X155975000Y-85167000D01*
X155977000Y-85168000D01*
X155979000Y-85170000D01*
X155981000Y-85171000D01*
X155983000Y-85173000D01*
X155985000Y-85175000D01*
X155987000Y-85177000D01*
X155989000Y-85179000D01*
X155990000Y-85181000D01*
X155992000Y-85183000D01*
X155993000Y-85185000D01*
X155995000Y-85187000D01*
X155996000Y-85190000D01*
X155997000Y-85192000D01*
X155998000Y-85195000D01*
X155998000Y-85197000D01*
X155999000Y-85200000D01*
X155999000Y-85202000D01*
X156000000Y-85205000D01*
X156000000Y-85207000D01*
X156000000Y-85210000D01*
X156000000Y-85360000D01*
X156000000Y-85363000D01*
X156000000Y-85365000D01*
X155999000Y-85368000D01*
X155999000Y-85370000D01*
X155998000Y-85373000D01*
X155998000Y-85375000D01*
X155997000Y-85378000D01*
X155996000Y-85380000D01*
X155995000Y-85383000D01*
X155993000Y-85385000D01*
X155992000Y-85387000D01*
X155990000Y-85389000D01*
X155989000Y-85391000D01*
X155987000Y-85393000D01*
X155985000Y-85395000D01*
X155983000Y-85397000D01*
X155981000Y-85399000D01*
X155979000Y-85400000D01*
X155977000Y-85402000D01*
X155975000Y-85403000D01*
X155973000Y-85405000D01*
X155970000Y-85406000D01*
X155968000Y-85407000D01*
X155965000Y-85408000D01*
X155963000Y-85408000D01*
X155960000Y-85409000D01*
X155958000Y-85409000D01*
X155955000Y-85410000D01*
X155953000Y-85410000D01*
X155950000Y-85410000D01*
X155600000Y-85410000D01*
X155597000Y-85410000D01*
X155595000Y-85410000D01*
X155592000Y-85409000D01*
X155590000Y-85409000D01*
X155587000Y-85408000D01*
X155585000Y-85408000D01*
X155582000Y-85407000D01*
X155580000Y-85406000D01*
X155577000Y-85405000D01*
X155575000Y-85403000D01*
X155573000Y-85402000D01*
X155571000Y-85400000D01*
X155569000Y-85399000D01*
X155567000Y-85397000D01*
X155565000Y-85395000D01*
X155563000Y-85393000D01*
X155561000Y-85391000D01*
X155560000Y-85389000D01*
X155558000Y-85387000D01*
X155557000Y-85385000D01*
X155555000Y-85383000D01*
X155554000Y-85380000D01*
X155553000Y-85378000D01*
X155552000Y-85375000D01*
X155552000Y-85373000D01*
X155551000Y-85370000D01*
X155551000Y-85368000D01*
X155550000Y-85365000D01*
X155550000Y-85363000D01*
X155550000Y-85360000D01*
X155550000Y-85210000D01*
X155550000Y-85207000D01*
X155550000Y-85205000D01*
X155551000Y-85202000D01*
X155551000Y-85200000D01*
X155552000Y-85197000D01*
X155552000Y-85195000D01*
X155553000Y-85192000D01*
X155554000Y-85190000D01*
X155555000Y-85187000D01*
X155557000Y-85185000D01*
X155558000Y-85183000D01*
X155560000Y-85181000D01*
X155561000Y-85179000D01*
X155563000Y-85177000D01*
X155565000Y-85175000D01*
X155567000Y-85173000D01*
X155569000Y-85171000D01*
X155571000Y-85170000D01*
X155573000Y-85168000D01*
X155575000Y-85167000D01*
X155577000Y-85165000D01*
X155580000Y-85164000D01*
X155582000Y-85163000D01*
X155585000Y-85162000D01*
X155587000Y-85162000D01*
X155590000Y-85161000D01*
X155592000Y-85161000D01*
X155595000Y-85160000D01*
X155597000Y-85160000D01*
X155600000Y-85160000D01*
X155950000Y-85160000D01*
X155953000Y-85160000D01*
X155955000Y-85160000D01*
X155958000Y-85161000D01*
G37*
X155958000Y-85661000D02*
X155960000Y-85661000D01*
X155963000Y-85662000D01*
X155965000Y-85662000D01*
X155968000Y-85663000D01*
X155970000Y-85664000D01*
X155973000Y-85665000D01*
X155975000Y-85667000D01*
X155977000Y-85668000D01*
X155979000Y-85670000D01*
X155981000Y-85671000D01*
X155983000Y-85673000D01*
X155985000Y-85675000D01*
X155987000Y-85677000D01*
X155989000Y-85679000D01*
X155990000Y-85681000D01*
X155992000Y-85683000D01*
X155993000Y-85685000D01*
X155995000Y-85687000D01*
X155996000Y-85690000D01*
X155997000Y-85692000D01*
X155998000Y-85695000D01*
X155998000Y-85697000D01*
X155999000Y-85700000D01*
X155999000Y-85702000D01*
X156000000Y-85705000D01*
X156000000Y-85707000D01*
X156000000Y-85710000D01*
X156000000Y-85860000D01*
X156000000Y-85863000D01*
X156000000Y-85865000D01*
X155999000Y-85868000D01*
X155999000Y-85870000D01*
X155998000Y-85873000D01*
X155998000Y-85875000D01*
X155997000Y-85878000D01*
X155996000Y-85880000D01*
X155995000Y-85883000D01*
X155993000Y-85885000D01*
X155992000Y-85887000D01*
X155990000Y-85889000D01*
X155989000Y-85891000D01*
X155987000Y-85893000D01*
X155985000Y-85895000D01*
X155983000Y-85897000D01*
X155981000Y-85899000D01*
X155979000Y-85900000D01*
X155977000Y-85902000D01*
X155975000Y-85903000D01*
X155973000Y-85905000D01*
X155970000Y-85906000D01*
X155968000Y-85907000D01*
X155965000Y-85908000D01*
X155963000Y-85908000D01*
X155960000Y-85909000D01*
X155958000Y-85909000D01*
X155955000Y-85910000D01*
X155953000Y-85910000D01*
X155950000Y-85910000D01*
X155600000Y-85910000D01*
X155597000Y-85910000D01*
X155595000Y-85910000D01*
X155592000Y-85909000D01*
X155590000Y-85909000D01*
X155587000Y-85908000D01*
X155585000Y-85908000D01*
X155582000Y-85907000D01*
X155580000Y-85906000D01*
X155577000Y-85905000D01*
X155575000Y-85903000D01*
X155573000Y-85902000D01*
X155571000Y-85900000D01*
X155569000Y-85899000D01*
X155567000Y-85897000D01*
X155565000Y-85895000D01*
X155563000Y-85893000D01*
X155561000Y-85891000D01*
X155560000Y-85889000D01*
X155558000Y-85887000D01*
X155557000Y-85885000D01*
X155555000Y-85883000D01*
X155554000Y-85880000D01*
X155553000Y-85878000D01*
X155552000Y-85875000D01*
X155552000Y-85873000D01*
X155551000Y-85870000D01*
X155551000Y-85868000D01*
X155550000Y-85865000D01*
X155550000Y-85863000D01*
X155550000Y-85860000D01*
X155550000Y-85710000D01*
X155550000Y-85707000D01*
X155550000Y-85705000D01*
X155551000Y-85702000D01*
X155551000Y-85700000D01*
X155552000Y-85697000D01*
X155552000Y-85695000D01*
X155553000Y-85692000D01*
X155554000Y-85690000D01*
X155555000Y-85687000D01*
X155557000Y-85685000D01*
X155558000Y-85683000D01*
X155560000Y-85681000D01*
X155561000Y-85679000D01*
X155563000Y-85677000D01*
X155565000Y-85675000D01*
X155567000Y-85673000D01*
X155569000Y-85671000D01*
X155571000Y-85670000D01*
X155573000Y-85668000D01*
X155575000Y-85667000D01*
X155577000Y-85665000D01*
X155580000Y-85664000D01*
X155582000Y-85663000D01*
X155585000Y-85662000D01*
X155587000Y-85662000D01*
X155590000Y-85661000D01*
X155592000Y-85661000D01*
X155595000Y-85660000D01*
X155597000Y-85660000D01*
X155600000Y-85660000D01*
X155950000Y-85660000D01*
X155953000Y-85660000D01*
X155955000Y-85660000D01*
X155958000Y-85661000D01*
G36*
X155958000Y-85661000D02*
G01*
X155960000Y-85661000D01*
X155963000Y-85662000D01*
X155965000Y-85662000D01*
X155968000Y-85663000D01*
X155970000Y-85664000D01*
X155973000Y-85665000D01*
X155975000Y-85667000D01*
X155977000Y-85668000D01*
X155979000Y-85670000D01*
X155981000Y-85671000D01*
X155983000Y-85673000D01*
X155985000Y-85675000D01*
X155987000Y-85677000D01*
X155989000Y-85679000D01*
X155990000Y-85681000D01*
X155992000Y-85683000D01*
X155993000Y-85685000D01*
X155995000Y-85687000D01*
X155996000Y-85690000D01*
X155997000Y-85692000D01*
X155998000Y-85695000D01*
X155998000Y-85697000D01*
X155999000Y-85700000D01*
X155999000Y-85702000D01*
X156000000Y-85705000D01*
X156000000Y-85707000D01*
X156000000Y-85710000D01*
X156000000Y-85860000D01*
X156000000Y-85863000D01*
X156000000Y-85865000D01*
X155999000Y-85868000D01*
X155999000Y-85870000D01*
X155998000Y-85873000D01*
X155998000Y-85875000D01*
X155997000Y-85878000D01*
X155996000Y-85880000D01*
X155995000Y-85883000D01*
X155993000Y-85885000D01*
X155992000Y-85887000D01*
X155990000Y-85889000D01*
X155989000Y-85891000D01*
X155987000Y-85893000D01*
X155985000Y-85895000D01*
X155983000Y-85897000D01*
X155981000Y-85899000D01*
X155979000Y-85900000D01*
X155977000Y-85902000D01*
X155975000Y-85903000D01*
X155973000Y-85905000D01*
X155970000Y-85906000D01*
X155968000Y-85907000D01*
X155965000Y-85908000D01*
X155963000Y-85908000D01*
X155960000Y-85909000D01*
X155958000Y-85909000D01*
X155955000Y-85910000D01*
X155953000Y-85910000D01*
X155950000Y-85910000D01*
X155600000Y-85910000D01*
X155597000Y-85910000D01*
X155595000Y-85910000D01*
X155592000Y-85909000D01*
X155590000Y-85909000D01*
X155587000Y-85908000D01*
X155585000Y-85908000D01*
X155582000Y-85907000D01*
X155580000Y-85906000D01*
X155577000Y-85905000D01*
X155575000Y-85903000D01*
X155573000Y-85902000D01*
X155571000Y-85900000D01*
X155569000Y-85899000D01*
X155567000Y-85897000D01*
X155565000Y-85895000D01*
X155563000Y-85893000D01*
X155561000Y-85891000D01*
X155560000Y-85889000D01*
X155558000Y-85887000D01*
X155557000Y-85885000D01*
X155555000Y-85883000D01*
X155554000Y-85880000D01*
X155553000Y-85878000D01*
X155552000Y-85875000D01*
X155552000Y-85873000D01*
X155551000Y-85870000D01*
X155551000Y-85868000D01*
X155550000Y-85865000D01*
X155550000Y-85863000D01*
X155550000Y-85860000D01*
X155550000Y-85710000D01*
X155550000Y-85707000D01*
X155550000Y-85705000D01*
X155551000Y-85702000D01*
X155551000Y-85700000D01*
X155552000Y-85697000D01*
X155552000Y-85695000D01*
X155553000Y-85692000D01*
X155554000Y-85690000D01*
X155555000Y-85687000D01*
X155557000Y-85685000D01*
X155558000Y-85683000D01*
X155560000Y-85681000D01*
X155561000Y-85679000D01*
X155563000Y-85677000D01*
X155565000Y-85675000D01*
X155567000Y-85673000D01*
X155569000Y-85671000D01*
X155571000Y-85670000D01*
X155573000Y-85668000D01*
X155575000Y-85667000D01*
X155577000Y-85665000D01*
X155580000Y-85664000D01*
X155582000Y-85663000D01*
X155585000Y-85662000D01*
X155587000Y-85662000D01*
X155590000Y-85661000D01*
X155592000Y-85661000D01*
X155595000Y-85660000D01*
X155597000Y-85660000D01*
X155600000Y-85660000D01*
X155950000Y-85660000D01*
X155953000Y-85660000D01*
X155955000Y-85660000D01*
X155958000Y-85661000D01*
G37*
X153525000Y-86776000D02*
X153528000Y-86776000D01*
X153530000Y-86776000D01*
X153533000Y-86776000D01*
X153535000Y-86777000D01*
X153538000Y-86777000D01*
X153540000Y-86778000D01*
X153543000Y-86779000D01*
X153545000Y-86780000D01*
X153548000Y-86781000D01*
X153550000Y-86782000D01*
X153552000Y-86784000D01*
X153554000Y-86785000D01*
X153556000Y-86787000D01*
X153558000Y-86788000D01*
X153560000Y-86790000D01*
X153562000Y-86792000D01*
X153564000Y-86794000D01*
X153565000Y-86796000D01*
X153567000Y-86798000D01*
X153568000Y-86801000D01*
X153570000Y-86803000D01*
X153571000Y-86805000D01*
X153572000Y-86808000D01*
X153573000Y-86810000D01*
X153573000Y-86813000D01*
X153574000Y-86815000D01*
X153574000Y-86818000D01*
X153575000Y-86820000D01*
X153575000Y-86823000D01*
X153575000Y-86826000D01*
X153575000Y-87000000D01*
X153575000Y-87003000D01*
X153575000Y-87006000D01*
X153574000Y-87008000D01*
X153574000Y-87011000D01*
X153573000Y-87013000D01*
X153573000Y-87016000D01*
X153572000Y-87018000D01*
X153571000Y-87021000D01*
X153570000Y-87023000D01*
X153568000Y-87026000D01*
X153567000Y-87028000D01*
X153565000Y-87030000D01*
X153564000Y-87032000D01*
X153562000Y-87034000D01*
X153560000Y-87036000D01*
X153558000Y-87038000D01*
X153556000Y-87039000D01*
X153554000Y-87041000D01*
X153552000Y-87042000D01*
X153550000Y-87044000D01*
X153548000Y-87045000D01*
X153545000Y-87046000D01*
X153543000Y-87047000D01*
X153540000Y-87048000D01*
X153538000Y-87049000D01*
X153535000Y-87049000D01*
X153533000Y-87050000D01*
X153530000Y-87050000D01*
X153528000Y-87050000D01*
X153525000Y-87051000D01*
X152350000Y-87051000D01*
X152347000Y-87050000D01*
X152345000Y-87050000D01*
X152342000Y-87050000D01*
X152340000Y-87049000D01*
X152337000Y-87049000D01*
X152335000Y-87048000D01*
X152332000Y-87047000D01*
X152330000Y-87046000D01*
X152327000Y-87045000D01*
X152325000Y-87044000D01*
X152323000Y-87042000D01*
X152321000Y-87041000D01*
X152319000Y-87039000D01*
X152317000Y-87038000D01*
X152315000Y-87036000D01*
X152313000Y-87034000D01*
X152311000Y-87032000D01*
X152310000Y-87030000D01*
X152308000Y-87028000D01*
X152307000Y-87026000D01*
X152305000Y-87023000D01*
X152304000Y-87021000D01*
X152303000Y-87018000D01*
X152302000Y-87016000D01*
X152302000Y-87013000D01*
X152301000Y-87011000D01*
X152301000Y-87008000D01*
X152300000Y-87006000D01*
X152300000Y-87003000D01*
X152300000Y-87000000D01*
X152300000Y-86826000D01*
X152300000Y-86823000D01*
X152300000Y-86820000D01*
X152301000Y-86818000D01*
X152301000Y-86815000D01*
X152302000Y-86813000D01*
X152302000Y-86810000D01*
X152303000Y-86808000D01*
X152304000Y-86805000D01*
X152305000Y-86803000D01*
X152307000Y-86801000D01*
X152308000Y-86798000D01*
X152310000Y-86796000D01*
X152311000Y-86794000D01*
X152313000Y-86792000D01*
X152315000Y-86790000D01*
X152317000Y-86788000D01*
X152319000Y-86787000D01*
X152321000Y-86785000D01*
X152323000Y-86784000D01*
X152325000Y-86782000D01*
X152327000Y-86781000D01*
X152330000Y-86780000D01*
X152332000Y-86779000D01*
X152335000Y-86778000D01*
X152337000Y-86777000D01*
X152340000Y-86777000D01*
X152342000Y-86776000D01*
X152345000Y-86776000D01*
X152347000Y-86776000D01*
X152350000Y-86776000D01*
X152350000Y-86775500D01*
X153525000Y-86776000D01*
G36*
X153525000Y-86776000D02*
G01*
X153528000Y-86776000D01*
X153530000Y-86776000D01*
X153533000Y-86776000D01*
X153535000Y-86777000D01*
X153538000Y-86777000D01*
X153540000Y-86778000D01*
X153543000Y-86779000D01*
X153545000Y-86780000D01*
X153548000Y-86781000D01*
X153550000Y-86782000D01*
X153552000Y-86784000D01*
X153554000Y-86785000D01*
X153556000Y-86787000D01*
X153558000Y-86788000D01*
X153560000Y-86790000D01*
X153562000Y-86792000D01*
X153564000Y-86794000D01*
X153565000Y-86796000D01*
X153567000Y-86798000D01*
X153568000Y-86801000D01*
X153570000Y-86803000D01*
X153571000Y-86805000D01*
X153572000Y-86808000D01*
X153573000Y-86810000D01*
X153573000Y-86813000D01*
X153574000Y-86815000D01*
X153574000Y-86818000D01*
X153575000Y-86820000D01*
X153575000Y-86823000D01*
X153575000Y-86826000D01*
X153575000Y-87000000D01*
X153575000Y-87003000D01*
X153575000Y-87006000D01*
X153574000Y-87008000D01*
X153574000Y-87011000D01*
X153573000Y-87013000D01*
X153573000Y-87016000D01*
X153572000Y-87018000D01*
X153571000Y-87021000D01*
X153570000Y-87023000D01*
X153568000Y-87026000D01*
X153567000Y-87028000D01*
X153565000Y-87030000D01*
X153564000Y-87032000D01*
X153562000Y-87034000D01*
X153560000Y-87036000D01*
X153558000Y-87038000D01*
X153556000Y-87039000D01*
X153554000Y-87041000D01*
X153552000Y-87042000D01*
X153550000Y-87044000D01*
X153548000Y-87045000D01*
X153545000Y-87046000D01*
X153543000Y-87047000D01*
X153540000Y-87048000D01*
X153538000Y-87049000D01*
X153535000Y-87049000D01*
X153533000Y-87050000D01*
X153530000Y-87050000D01*
X153528000Y-87050000D01*
X153525000Y-87051000D01*
X152350000Y-87051000D01*
X152347000Y-87050000D01*
X152345000Y-87050000D01*
X152342000Y-87050000D01*
X152340000Y-87049000D01*
X152337000Y-87049000D01*
X152335000Y-87048000D01*
X152332000Y-87047000D01*
X152330000Y-87046000D01*
X152327000Y-87045000D01*
X152325000Y-87044000D01*
X152323000Y-87042000D01*
X152321000Y-87041000D01*
X152319000Y-87039000D01*
X152317000Y-87038000D01*
X152315000Y-87036000D01*
X152313000Y-87034000D01*
X152311000Y-87032000D01*
X152310000Y-87030000D01*
X152308000Y-87028000D01*
X152307000Y-87026000D01*
X152305000Y-87023000D01*
X152304000Y-87021000D01*
X152303000Y-87018000D01*
X152302000Y-87016000D01*
X152302000Y-87013000D01*
X152301000Y-87011000D01*
X152301000Y-87008000D01*
X152300000Y-87006000D01*
X152300000Y-87003000D01*
X152300000Y-87000000D01*
X152300000Y-86826000D01*
X152300000Y-86823000D01*
X152300000Y-86820000D01*
X152301000Y-86818000D01*
X152301000Y-86815000D01*
X152302000Y-86813000D01*
X152302000Y-86810000D01*
X152303000Y-86808000D01*
X152304000Y-86805000D01*
X152305000Y-86803000D01*
X152307000Y-86801000D01*
X152308000Y-86798000D01*
X152310000Y-86796000D01*
X152311000Y-86794000D01*
X152313000Y-86792000D01*
X152315000Y-86790000D01*
X152317000Y-86788000D01*
X152319000Y-86787000D01*
X152321000Y-86785000D01*
X152323000Y-86784000D01*
X152325000Y-86782000D01*
X152327000Y-86781000D01*
X152330000Y-86780000D01*
X152332000Y-86779000D01*
X152335000Y-86778000D01*
X152337000Y-86777000D01*
X152340000Y-86777000D01*
X152342000Y-86776000D01*
X152345000Y-86776000D01*
X152347000Y-86776000D01*
X152350000Y-86776000D01*
X152350000Y-86775500D01*
X153525000Y-86776000D01*
G37*
X153625000Y-84428000D02*
X153627000Y-84428000D01*
X153630000Y-84428000D01*
X153632000Y-84428000D01*
X153635000Y-84429000D01*
X153637000Y-84429000D01*
X153640000Y-84430000D01*
X153642000Y-84431000D01*
X153645000Y-84432000D01*
X153647000Y-84433000D01*
X153650000Y-84434000D01*
X153652000Y-84436000D01*
X153654000Y-84437000D01*
X153656000Y-84439000D01*
X153658000Y-84440000D01*
X153660000Y-84442000D01*
X153662000Y-84444000D01*
X153663000Y-84446000D01*
X153665000Y-84448000D01*
X153666000Y-84450000D01*
X153668000Y-84452000D01*
X153669000Y-84455000D01*
X153670000Y-84457000D01*
X153671000Y-84460000D01*
X153672000Y-84462000D01*
X153673000Y-84465000D01*
X153673000Y-84467000D01*
X153674000Y-84470000D01*
X153674000Y-84472000D01*
X153674000Y-84475000D01*
X153675000Y-84478000D01*
X153675000Y-86247000D01*
X153674000Y-86250000D01*
X153674000Y-86253000D01*
X153674000Y-86255000D01*
X153673000Y-86258000D01*
X153673000Y-86260000D01*
X153672000Y-86263000D01*
X153671000Y-86265000D01*
X153670000Y-86268000D01*
X153669000Y-86270000D01*
X153668000Y-86273000D01*
X153666000Y-86275000D01*
X153665000Y-86277000D01*
X153663000Y-86279000D01*
X153662000Y-86281000D01*
X153660000Y-86283000D01*
X153658000Y-86285000D01*
X153656000Y-86286000D01*
X153654000Y-86288000D01*
X153652000Y-86289000D01*
X153650000Y-86291000D01*
X153647000Y-86292000D01*
X153645000Y-86293000D01*
X153642000Y-86294000D01*
X153640000Y-86295000D01*
X153637000Y-86296000D01*
X153635000Y-86296000D01*
X153632000Y-86297000D01*
X153630000Y-86297000D01*
X153627000Y-86297000D01*
X153625000Y-86298000D01*
X152999000Y-86298000D01*
X152997000Y-86297000D01*
X152994000Y-86297000D01*
X152992000Y-86297000D01*
X152989000Y-86296000D01*
X152987000Y-86296000D01*
X152984000Y-86295000D01*
X152982000Y-86294000D01*
X152979000Y-86293000D01*
X152977000Y-86292000D01*
X152975000Y-86291000D01*
X152972000Y-86289000D01*
X152970000Y-86288000D01*
X152968000Y-86286000D01*
X152966000Y-86285000D01*
X152964000Y-86283000D01*
X152962000Y-86281000D01*
X152961000Y-86279000D01*
X152959000Y-86277000D01*
X152958000Y-86275000D01*
X152956000Y-86273000D01*
X152955000Y-86270000D01*
X152954000Y-86268000D01*
X152953000Y-86265000D01*
X152952000Y-86263000D01*
X152951000Y-86260000D01*
X152951000Y-86258000D01*
X152950000Y-86255000D01*
X152950000Y-86253000D01*
X152950000Y-86250000D01*
X152950000Y-86247000D01*
X152950000Y-84478000D01*
X152950000Y-84475000D01*
X152950000Y-84472000D01*
X152950000Y-84470000D01*
X152951000Y-84467000D01*
X152951000Y-84465000D01*
X152952000Y-84462000D01*
X152953000Y-84460000D01*
X152954000Y-84457000D01*
X152955000Y-84455000D01*
X152956000Y-84452000D01*
X152958000Y-84450000D01*
X152959000Y-84448000D01*
X152961000Y-84446000D01*
X152962000Y-84444000D01*
X152964000Y-84442000D01*
X152966000Y-84440000D01*
X152968000Y-84439000D01*
X152970000Y-84437000D01*
X152972000Y-84436000D01*
X152975000Y-84434000D01*
X152977000Y-84433000D01*
X152979000Y-84432000D01*
X152982000Y-84431000D01*
X152984000Y-84430000D01*
X152987000Y-84429000D01*
X152989000Y-84429000D01*
X152992000Y-84428000D01*
X152994000Y-84428000D01*
X152997000Y-84428000D01*
X152999000Y-84428000D01*
X152999500Y-84427500D01*
X153625000Y-84428000D01*
G36*
X153625000Y-84428000D02*
G01*
X153627000Y-84428000D01*
X153630000Y-84428000D01*
X153632000Y-84428000D01*
X153635000Y-84429000D01*
X153637000Y-84429000D01*
X153640000Y-84430000D01*
X153642000Y-84431000D01*
X153645000Y-84432000D01*
X153647000Y-84433000D01*
X153650000Y-84434000D01*
X153652000Y-84436000D01*
X153654000Y-84437000D01*
X153656000Y-84439000D01*
X153658000Y-84440000D01*
X153660000Y-84442000D01*
X153662000Y-84444000D01*
X153663000Y-84446000D01*
X153665000Y-84448000D01*
X153666000Y-84450000D01*
X153668000Y-84452000D01*
X153669000Y-84455000D01*
X153670000Y-84457000D01*
X153671000Y-84460000D01*
X153672000Y-84462000D01*
X153673000Y-84465000D01*
X153673000Y-84467000D01*
X153674000Y-84470000D01*
X153674000Y-84472000D01*
X153674000Y-84475000D01*
X153675000Y-84478000D01*
X153675000Y-86247000D01*
X153674000Y-86250000D01*
X153674000Y-86253000D01*
X153674000Y-86255000D01*
X153673000Y-86258000D01*
X153673000Y-86260000D01*
X153672000Y-86263000D01*
X153671000Y-86265000D01*
X153670000Y-86268000D01*
X153669000Y-86270000D01*
X153668000Y-86273000D01*
X153666000Y-86275000D01*
X153665000Y-86277000D01*
X153663000Y-86279000D01*
X153662000Y-86281000D01*
X153660000Y-86283000D01*
X153658000Y-86285000D01*
X153656000Y-86286000D01*
X153654000Y-86288000D01*
X153652000Y-86289000D01*
X153650000Y-86291000D01*
X153647000Y-86292000D01*
X153645000Y-86293000D01*
X153642000Y-86294000D01*
X153640000Y-86295000D01*
X153637000Y-86296000D01*
X153635000Y-86296000D01*
X153632000Y-86297000D01*
X153630000Y-86297000D01*
X153627000Y-86297000D01*
X153625000Y-86298000D01*
X152999000Y-86298000D01*
X152997000Y-86297000D01*
X152994000Y-86297000D01*
X152992000Y-86297000D01*
X152989000Y-86296000D01*
X152987000Y-86296000D01*
X152984000Y-86295000D01*
X152982000Y-86294000D01*
X152979000Y-86293000D01*
X152977000Y-86292000D01*
X152975000Y-86291000D01*
X152972000Y-86289000D01*
X152970000Y-86288000D01*
X152968000Y-86286000D01*
X152966000Y-86285000D01*
X152964000Y-86283000D01*
X152962000Y-86281000D01*
X152961000Y-86279000D01*
X152959000Y-86277000D01*
X152958000Y-86275000D01*
X152956000Y-86273000D01*
X152955000Y-86270000D01*
X152954000Y-86268000D01*
X152953000Y-86265000D01*
X152952000Y-86263000D01*
X152951000Y-86260000D01*
X152951000Y-86258000D01*
X152950000Y-86255000D01*
X152950000Y-86253000D01*
X152950000Y-86250000D01*
X152950000Y-86247000D01*
X152950000Y-84478000D01*
X152950000Y-84475000D01*
X152950000Y-84472000D01*
X152950000Y-84470000D01*
X152951000Y-84467000D01*
X152951000Y-84465000D01*
X152952000Y-84462000D01*
X152953000Y-84460000D01*
X152954000Y-84457000D01*
X152955000Y-84455000D01*
X152956000Y-84452000D01*
X152958000Y-84450000D01*
X152959000Y-84448000D01*
X152961000Y-84446000D01*
X152962000Y-84444000D01*
X152964000Y-84442000D01*
X152966000Y-84440000D01*
X152968000Y-84439000D01*
X152970000Y-84437000D01*
X152972000Y-84436000D01*
X152975000Y-84434000D01*
X152977000Y-84433000D01*
X152979000Y-84432000D01*
X152982000Y-84431000D01*
X152984000Y-84430000D01*
X152987000Y-84429000D01*
X152989000Y-84429000D01*
X152992000Y-84428000D01*
X152994000Y-84428000D01*
X152997000Y-84428000D01*
X152999000Y-84428000D01*
X152999500Y-84427500D01*
X153625000Y-84428000D01*
G37*
X155301000Y-84428000D02*
X155303000Y-84428000D01*
X155306000Y-84428000D01*
X155308000Y-84428000D01*
X155311000Y-84429000D01*
X155313000Y-84429000D01*
X155316000Y-84430000D01*
X155318000Y-84431000D01*
X155321000Y-84432000D01*
X155323000Y-84433000D01*
X155325000Y-84434000D01*
X155328000Y-84436000D01*
X155330000Y-84437000D01*
X155332000Y-84439000D01*
X155334000Y-84440000D01*
X155336000Y-84442000D01*
X155338000Y-84444000D01*
X155339000Y-84446000D01*
X155341000Y-84448000D01*
X155342000Y-84450000D01*
X155344000Y-84452000D01*
X155345000Y-84455000D01*
X155346000Y-84457000D01*
X155347000Y-84460000D01*
X155348000Y-84462000D01*
X155349000Y-84465000D01*
X155349000Y-84467000D01*
X155350000Y-84470000D01*
X155350000Y-84472000D01*
X155350000Y-84475000D01*
X155350000Y-84478000D01*
X155350000Y-86247000D01*
X155350000Y-86250000D01*
X155350000Y-86253000D01*
X155350000Y-86255000D01*
X155349000Y-86258000D01*
X155349000Y-86260000D01*
X155348000Y-86263000D01*
X155347000Y-86265000D01*
X155346000Y-86268000D01*
X155345000Y-86270000D01*
X155344000Y-86273000D01*
X155342000Y-86275000D01*
X155341000Y-86277000D01*
X155339000Y-86279000D01*
X155338000Y-86281000D01*
X155336000Y-86283000D01*
X155334000Y-86285000D01*
X155332000Y-86286000D01*
X155330000Y-86288000D01*
X155328000Y-86289000D01*
X155325000Y-86291000D01*
X155323000Y-86292000D01*
X155321000Y-86293000D01*
X155318000Y-86294000D01*
X155316000Y-86295000D01*
X155313000Y-86296000D01*
X155311000Y-86296000D01*
X155308000Y-86297000D01*
X155306000Y-86297000D01*
X155303000Y-86297000D01*
X155301000Y-86298000D01*
X154675000Y-86298000D01*
X154673000Y-86297000D01*
X154670000Y-86297000D01*
X154668000Y-86297000D01*
X154665000Y-86296000D01*
X154663000Y-86296000D01*
X154660000Y-86295000D01*
X154658000Y-86294000D01*
X154655000Y-86293000D01*
X154653000Y-86292000D01*
X154650000Y-86291000D01*
X154648000Y-86289000D01*
X154646000Y-86288000D01*
X154644000Y-86286000D01*
X154642000Y-86285000D01*
X154640000Y-86283000D01*
X154638000Y-86281000D01*
X154637000Y-86279000D01*
X154635000Y-86277000D01*
X154634000Y-86275000D01*
X154632000Y-86273000D01*
X154631000Y-86270000D01*
X154630000Y-86268000D01*
X154629000Y-86265000D01*
X154628000Y-86263000D01*
X154627000Y-86260000D01*
X154627000Y-86258000D01*
X154626000Y-86255000D01*
X154626000Y-86253000D01*
X154626000Y-86250000D01*
X154625000Y-86247000D01*
X154625000Y-84478000D01*
X154626000Y-84475000D01*
X154626000Y-84472000D01*
X154626000Y-84470000D01*
X154627000Y-84467000D01*
X154627000Y-84465000D01*
X154628000Y-84462000D01*
X154629000Y-84460000D01*
X154630000Y-84457000D01*
X154631000Y-84455000D01*
X154632000Y-84452000D01*
X154634000Y-84450000D01*
X154635000Y-84448000D01*
X154637000Y-84446000D01*
X154638000Y-84444000D01*
X154640000Y-84442000D01*
X154642000Y-84440000D01*
X154644000Y-84439000D01*
X154646000Y-84437000D01*
X154648000Y-84436000D01*
X154650000Y-84434000D01*
X154653000Y-84433000D01*
X154655000Y-84432000D01*
X154658000Y-84431000D01*
X154660000Y-84430000D01*
X154663000Y-84429000D01*
X154665000Y-84429000D01*
X154668000Y-84428000D01*
X154670000Y-84428000D01*
X154673000Y-84428000D01*
X154675000Y-84428000D01*
X155300500Y-84427500D01*
X155301000Y-84428000D01*
G36*
X155301000Y-84428000D02*
G01*
X155303000Y-84428000D01*
X155306000Y-84428000D01*
X155308000Y-84428000D01*
X155311000Y-84429000D01*
X155313000Y-84429000D01*
X155316000Y-84430000D01*
X155318000Y-84431000D01*
X155321000Y-84432000D01*
X155323000Y-84433000D01*
X155325000Y-84434000D01*
X155328000Y-84436000D01*
X155330000Y-84437000D01*
X155332000Y-84439000D01*
X155334000Y-84440000D01*
X155336000Y-84442000D01*
X155338000Y-84444000D01*
X155339000Y-84446000D01*
X155341000Y-84448000D01*
X155342000Y-84450000D01*
X155344000Y-84452000D01*
X155345000Y-84455000D01*
X155346000Y-84457000D01*
X155347000Y-84460000D01*
X155348000Y-84462000D01*
X155349000Y-84465000D01*
X155349000Y-84467000D01*
X155350000Y-84470000D01*
X155350000Y-84472000D01*
X155350000Y-84475000D01*
X155350000Y-84478000D01*
X155350000Y-86247000D01*
X155350000Y-86250000D01*
X155350000Y-86253000D01*
X155350000Y-86255000D01*
X155349000Y-86258000D01*
X155349000Y-86260000D01*
X155348000Y-86263000D01*
X155347000Y-86265000D01*
X155346000Y-86268000D01*
X155345000Y-86270000D01*
X155344000Y-86273000D01*
X155342000Y-86275000D01*
X155341000Y-86277000D01*
X155339000Y-86279000D01*
X155338000Y-86281000D01*
X155336000Y-86283000D01*
X155334000Y-86285000D01*
X155332000Y-86286000D01*
X155330000Y-86288000D01*
X155328000Y-86289000D01*
X155325000Y-86291000D01*
X155323000Y-86292000D01*
X155321000Y-86293000D01*
X155318000Y-86294000D01*
X155316000Y-86295000D01*
X155313000Y-86296000D01*
X155311000Y-86296000D01*
X155308000Y-86297000D01*
X155306000Y-86297000D01*
X155303000Y-86297000D01*
X155301000Y-86298000D01*
X154675000Y-86298000D01*
X154673000Y-86297000D01*
X154670000Y-86297000D01*
X154668000Y-86297000D01*
X154665000Y-86296000D01*
X154663000Y-86296000D01*
X154660000Y-86295000D01*
X154658000Y-86294000D01*
X154655000Y-86293000D01*
X154653000Y-86292000D01*
X154650000Y-86291000D01*
X154648000Y-86289000D01*
X154646000Y-86288000D01*
X154644000Y-86286000D01*
X154642000Y-86285000D01*
X154640000Y-86283000D01*
X154638000Y-86281000D01*
X154637000Y-86279000D01*
X154635000Y-86277000D01*
X154634000Y-86275000D01*
X154632000Y-86273000D01*
X154631000Y-86270000D01*
X154630000Y-86268000D01*
X154629000Y-86265000D01*
X154628000Y-86263000D01*
X154627000Y-86260000D01*
X154627000Y-86258000D01*
X154626000Y-86255000D01*
X154626000Y-86253000D01*
X154626000Y-86250000D01*
X154625000Y-86247000D01*
X154625000Y-84478000D01*
X154626000Y-84475000D01*
X154626000Y-84472000D01*
X154626000Y-84470000D01*
X154627000Y-84467000D01*
X154627000Y-84465000D01*
X154628000Y-84462000D01*
X154629000Y-84460000D01*
X154630000Y-84457000D01*
X154631000Y-84455000D01*
X154632000Y-84452000D01*
X154634000Y-84450000D01*
X154635000Y-84448000D01*
X154637000Y-84446000D01*
X154638000Y-84444000D01*
X154640000Y-84442000D01*
X154642000Y-84440000D01*
X154644000Y-84439000D01*
X154646000Y-84437000D01*
X154648000Y-84436000D01*
X154650000Y-84434000D01*
X154653000Y-84433000D01*
X154655000Y-84432000D01*
X154658000Y-84431000D01*
X154660000Y-84430000D01*
X154663000Y-84429000D01*
X154665000Y-84429000D01*
X154668000Y-84428000D01*
X154670000Y-84428000D01*
X154673000Y-84428000D01*
X154675000Y-84428000D01*
X155300500Y-84427500D01*
X155301000Y-84428000D01*
G37*
X153483000Y-88301000D02*
X153485000Y-88301000D01*
X153488000Y-88302000D01*
X153490000Y-88302000D01*
X153493000Y-88303000D01*
X153495000Y-88304000D01*
X153498000Y-88305000D01*
X153500000Y-88307000D01*
X153502000Y-88308000D01*
X153504000Y-88310000D01*
X153506000Y-88311000D01*
X153508000Y-88313000D01*
X153510000Y-88315000D01*
X153512000Y-88317000D01*
X153514000Y-88319000D01*
X153515000Y-88321000D01*
X153517000Y-88323000D01*
X153518000Y-88325000D01*
X153520000Y-88327000D01*
X153521000Y-88330000D01*
X153522000Y-88332000D01*
X153523000Y-88335000D01*
X153523000Y-88337000D01*
X153524000Y-88340000D01*
X153524000Y-88342000D01*
X153525000Y-88345000D01*
X153525000Y-88347000D01*
X153525000Y-88350000D01*
X153525000Y-88850000D01*
X153525000Y-88853000D01*
X153525000Y-88855000D01*
X153524000Y-88858000D01*
X153524000Y-88860000D01*
X153523000Y-88863000D01*
X153523000Y-88865000D01*
X153522000Y-88868000D01*
X153521000Y-88870000D01*
X153520000Y-88873000D01*
X153518000Y-88875000D01*
X153517000Y-88877000D01*
X153515000Y-88879000D01*
X153514000Y-88881000D01*
X153512000Y-88883000D01*
X153510000Y-88885000D01*
X153508000Y-88887000D01*
X153506000Y-88889000D01*
X153504000Y-88890000D01*
X153502000Y-88892000D01*
X153500000Y-88893000D01*
X153498000Y-88895000D01*
X153495000Y-88896000D01*
X153493000Y-88897000D01*
X153490000Y-88898000D01*
X153488000Y-88898000D01*
X153485000Y-88899000D01*
X153483000Y-88899000D01*
X153480000Y-88900000D01*
X153478000Y-88900000D01*
X153475000Y-88900000D01*
X153225000Y-88900000D01*
X153222000Y-88900000D01*
X153220000Y-88900000D01*
X153217000Y-88899000D01*
X153215000Y-88899000D01*
X153212000Y-88898000D01*
X153210000Y-88898000D01*
X153207000Y-88897000D01*
X153205000Y-88896000D01*
X153202000Y-88895000D01*
X153200000Y-88893000D01*
X153198000Y-88892000D01*
X153196000Y-88890000D01*
X153194000Y-88889000D01*
X153192000Y-88887000D01*
X153190000Y-88885000D01*
X153188000Y-88883000D01*
X153186000Y-88881000D01*
X153185000Y-88879000D01*
X153183000Y-88877000D01*
X153182000Y-88875000D01*
X153180000Y-88873000D01*
X153179000Y-88870000D01*
X153178000Y-88868000D01*
X153177000Y-88865000D01*
X153177000Y-88863000D01*
X153176000Y-88860000D01*
X153176000Y-88858000D01*
X153175000Y-88855000D01*
X153175000Y-88853000D01*
X153175000Y-88850000D01*
X153175000Y-88650000D01*
X153175000Y-88645000D01*
X153174000Y-88640000D01*
X153174000Y-88634000D01*
X153173000Y-88629000D01*
X153172000Y-88624000D01*
X153170000Y-88619000D01*
X153168000Y-88614000D01*
X153166000Y-88609000D01*
X153164000Y-88605000D01*
X153162000Y-88600000D01*
X153159000Y-88596000D01*
X153156000Y-88591000D01*
X153153000Y-88587000D01*
X153149000Y-88583000D01*
X153146000Y-88579000D01*
X153142000Y-88576000D01*
X153138000Y-88572000D01*
X153134000Y-88569000D01*
X153129000Y-88566000D01*
X153125000Y-88563000D01*
X153120000Y-88561000D01*
X153116000Y-88559000D01*
X153111000Y-88557000D01*
X153106000Y-88555000D01*
X153101000Y-88553000D01*
X153096000Y-88552000D01*
X153091000Y-88551000D01*
X153085000Y-88551000D01*
X153080000Y-88550000D01*
X153075000Y-88550000D01*
X152350000Y-88550000D01*
X152347000Y-88550000D01*
X152345000Y-88550000D01*
X152342000Y-88549000D01*
X152340000Y-88549000D01*
X152337000Y-88548000D01*
X152335000Y-88548000D01*
X152332000Y-88547000D01*
X152330000Y-88546000D01*
X152327000Y-88545000D01*
X152325000Y-88543000D01*
X152323000Y-88542000D01*
X152321000Y-88540000D01*
X152319000Y-88539000D01*
X152317000Y-88537000D01*
X152315000Y-88535000D01*
X152313000Y-88533000D01*
X152311000Y-88531000D01*
X152310000Y-88529000D01*
X152308000Y-88527000D01*
X152307000Y-88525000D01*
X152305000Y-88523000D01*
X152304000Y-88520000D01*
X152303000Y-88518000D01*
X152302000Y-88515000D01*
X152302000Y-88513000D01*
X152301000Y-88510000D01*
X152301000Y-88508000D01*
X152300000Y-88505000D01*
X152300000Y-88503000D01*
X152300000Y-88500000D01*
X152300000Y-88350000D01*
X152300000Y-88347000D01*
X152300000Y-88345000D01*
X152301000Y-88342000D01*
X152301000Y-88340000D01*
X152302000Y-88337000D01*
X152302000Y-88335000D01*
X152303000Y-88332000D01*
X152304000Y-88330000D01*
X152305000Y-88327000D01*
X152307000Y-88325000D01*
X152308000Y-88323000D01*
X152310000Y-88321000D01*
X152311000Y-88319000D01*
X152313000Y-88317000D01*
X152315000Y-88315000D01*
X152317000Y-88313000D01*
X152319000Y-88311000D01*
X152321000Y-88310000D01*
X152323000Y-88308000D01*
X152325000Y-88307000D01*
X152327000Y-88305000D01*
X152330000Y-88304000D01*
X152332000Y-88303000D01*
X152335000Y-88302000D01*
X152337000Y-88302000D01*
X152340000Y-88301000D01*
X152342000Y-88301000D01*
X152345000Y-88300000D01*
X152347000Y-88300000D01*
X152350000Y-88300000D01*
X153475000Y-88300000D01*
X153478000Y-88300000D01*
X153480000Y-88300000D01*
X153483000Y-88301000D01*
G36*
X153483000Y-88301000D02*
G01*
X153485000Y-88301000D01*
X153488000Y-88302000D01*
X153490000Y-88302000D01*
X153493000Y-88303000D01*
X153495000Y-88304000D01*
X153498000Y-88305000D01*
X153500000Y-88307000D01*
X153502000Y-88308000D01*
X153504000Y-88310000D01*
X153506000Y-88311000D01*
X153508000Y-88313000D01*
X153510000Y-88315000D01*
X153512000Y-88317000D01*
X153514000Y-88319000D01*
X153515000Y-88321000D01*
X153517000Y-88323000D01*
X153518000Y-88325000D01*
X153520000Y-88327000D01*
X153521000Y-88330000D01*
X153522000Y-88332000D01*
X153523000Y-88335000D01*
X153523000Y-88337000D01*
X153524000Y-88340000D01*
X153524000Y-88342000D01*
X153525000Y-88345000D01*
X153525000Y-88347000D01*
X153525000Y-88350000D01*
X153525000Y-88850000D01*
X153525000Y-88853000D01*
X153525000Y-88855000D01*
X153524000Y-88858000D01*
X153524000Y-88860000D01*
X153523000Y-88863000D01*
X153523000Y-88865000D01*
X153522000Y-88868000D01*
X153521000Y-88870000D01*
X153520000Y-88873000D01*
X153518000Y-88875000D01*
X153517000Y-88877000D01*
X153515000Y-88879000D01*
X153514000Y-88881000D01*
X153512000Y-88883000D01*
X153510000Y-88885000D01*
X153508000Y-88887000D01*
X153506000Y-88889000D01*
X153504000Y-88890000D01*
X153502000Y-88892000D01*
X153500000Y-88893000D01*
X153498000Y-88895000D01*
X153495000Y-88896000D01*
X153493000Y-88897000D01*
X153490000Y-88898000D01*
X153488000Y-88898000D01*
X153485000Y-88899000D01*
X153483000Y-88899000D01*
X153480000Y-88900000D01*
X153478000Y-88900000D01*
X153475000Y-88900000D01*
X153225000Y-88900000D01*
X153222000Y-88900000D01*
X153220000Y-88900000D01*
X153217000Y-88899000D01*
X153215000Y-88899000D01*
X153212000Y-88898000D01*
X153210000Y-88898000D01*
X153207000Y-88897000D01*
X153205000Y-88896000D01*
X153202000Y-88895000D01*
X153200000Y-88893000D01*
X153198000Y-88892000D01*
X153196000Y-88890000D01*
X153194000Y-88889000D01*
X153192000Y-88887000D01*
X153190000Y-88885000D01*
X153188000Y-88883000D01*
X153186000Y-88881000D01*
X153185000Y-88879000D01*
X153183000Y-88877000D01*
X153182000Y-88875000D01*
X153180000Y-88873000D01*
X153179000Y-88870000D01*
X153178000Y-88868000D01*
X153177000Y-88865000D01*
X153177000Y-88863000D01*
X153176000Y-88860000D01*
X153176000Y-88858000D01*
X153175000Y-88855000D01*
X153175000Y-88853000D01*
X153175000Y-88850000D01*
X153175000Y-88650000D01*
X153175000Y-88645000D01*
X153174000Y-88640000D01*
X153174000Y-88634000D01*
X153173000Y-88629000D01*
X153172000Y-88624000D01*
X153170000Y-88619000D01*
X153168000Y-88614000D01*
X153166000Y-88609000D01*
X153164000Y-88605000D01*
X153162000Y-88600000D01*
X153159000Y-88596000D01*
X153156000Y-88591000D01*
X153153000Y-88587000D01*
X153149000Y-88583000D01*
X153146000Y-88579000D01*
X153142000Y-88576000D01*
X153138000Y-88572000D01*
X153134000Y-88569000D01*
X153129000Y-88566000D01*
X153125000Y-88563000D01*
X153120000Y-88561000D01*
X153116000Y-88559000D01*
X153111000Y-88557000D01*
X153106000Y-88555000D01*
X153101000Y-88553000D01*
X153096000Y-88552000D01*
X153091000Y-88551000D01*
X153085000Y-88551000D01*
X153080000Y-88550000D01*
X153075000Y-88550000D01*
X152350000Y-88550000D01*
X152347000Y-88550000D01*
X152345000Y-88550000D01*
X152342000Y-88549000D01*
X152340000Y-88549000D01*
X152337000Y-88548000D01*
X152335000Y-88548000D01*
X152332000Y-88547000D01*
X152330000Y-88546000D01*
X152327000Y-88545000D01*
X152325000Y-88543000D01*
X152323000Y-88542000D01*
X152321000Y-88540000D01*
X152319000Y-88539000D01*
X152317000Y-88537000D01*
X152315000Y-88535000D01*
X152313000Y-88533000D01*
X152311000Y-88531000D01*
X152310000Y-88529000D01*
X152308000Y-88527000D01*
X152307000Y-88525000D01*
X152305000Y-88523000D01*
X152304000Y-88520000D01*
X152303000Y-88518000D01*
X152302000Y-88515000D01*
X152302000Y-88513000D01*
X152301000Y-88510000D01*
X152301000Y-88508000D01*
X152300000Y-88505000D01*
X152300000Y-88503000D01*
X152300000Y-88500000D01*
X152300000Y-88350000D01*
X152300000Y-88347000D01*
X152300000Y-88345000D01*
X152301000Y-88342000D01*
X152301000Y-88340000D01*
X152302000Y-88337000D01*
X152302000Y-88335000D01*
X152303000Y-88332000D01*
X152304000Y-88330000D01*
X152305000Y-88327000D01*
X152307000Y-88325000D01*
X152308000Y-88323000D01*
X152310000Y-88321000D01*
X152311000Y-88319000D01*
X152313000Y-88317000D01*
X152315000Y-88315000D01*
X152317000Y-88313000D01*
X152319000Y-88311000D01*
X152321000Y-88310000D01*
X152323000Y-88308000D01*
X152325000Y-88307000D01*
X152327000Y-88305000D01*
X152330000Y-88304000D01*
X152332000Y-88303000D01*
X152335000Y-88302000D01*
X152337000Y-88302000D01*
X152340000Y-88301000D01*
X152342000Y-88301000D01*
X152345000Y-88300000D01*
X152347000Y-88300000D01*
X152350000Y-88300000D01*
X153475000Y-88300000D01*
X153478000Y-88300000D01*
X153480000Y-88300000D01*
X153483000Y-88301000D01*
G37*
X155958000Y-88301000D02*
X155960000Y-88301000D01*
X155963000Y-88302000D01*
X155965000Y-88302000D01*
X155968000Y-88303000D01*
X155970000Y-88304000D01*
X155973000Y-88305000D01*
X155975000Y-88307000D01*
X155977000Y-88308000D01*
X155979000Y-88310000D01*
X155981000Y-88311000D01*
X155983000Y-88313000D01*
X155985000Y-88315000D01*
X155987000Y-88317000D01*
X155989000Y-88319000D01*
X155990000Y-88321000D01*
X155992000Y-88323000D01*
X155993000Y-88325000D01*
X155995000Y-88327000D01*
X155996000Y-88330000D01*
X155997000Y-88332000D01*
X155998000Y-88335000D01*
X155998000Y-88337000D01*
X155999000Y-88340000D01*
X155999000Y-88342000D01*
X156000000Y-88345000D01*
X156000000Y-88347000D01*
X156000000Y-88350000D01*
X156000000Y-88500000D01*
X156000000Y-88503000D01*
X156000000Y-88505000D01*
X155999000Y-88508000D01*
X155999000Y-88510000D01*
X155998000Y-88513000D01*
X155998000Y-88515000D01*
X155997000Y-88518000D01*
X155996000Y-88520000D01*
X155995000Y-88523000D01*
X155993000Y-88525000D01*
X155992000Y-88527000D01*
X155990000Y-88529000D01*
X155989000Y-88531000D01*
X155987000Y-88533000D01*
X155985000Y-88535000D01*
X155983000Y-88537000D01*
X155981000Y-88539000D01*
X155979000Y-88540000D01*
X155977000Y-88542000D01*
X155975000Y-88543000D01*
X155973000Y-88545000D01*
X155970000Y-88546000D01*
X155968000Y-88547000D01*
X155965000Y-88548000D01*
X155963000Y-88548000D01*
X155960000Y-88549000D01*
X155958000Y-88549000D01*
X155955000Y-88550000D01*
X155953000Y-88550000D01*
X155950000Y-88550000D01*
X155225000Y-88550000D01*
X155220000Y-88550000D01*
X155215000Y-88551000D01*
X155209000Y-88551000D01*
X155204000Y-88552000D01*
X155199000Y-88553000D01*
X155194000Y-88555000D01*
X155189000Y-88557000D01*
X155184000Y-88559000D01*
X155180000Y-88561000D01*
X155175000Y-88563000D01*
X155171000Y-88566000D01*
X155166000Y-88569000D01*
X155162000Y-88572000D01*
X155158000Y-88576000D01*
X155154000Y-88579000D01*
X155151000Y-88583000D01*
X155147000Y-88587000D01*
X155144000Y-88591000D01*
X155141000Y-88596000D01*
X155138000Y-88600000D01*
X155136000Y-88605000D01*
X155134000Y-88609000D01*
X155132000Y-88614000D01*
X155130000Y-88619000D01*
X155128000Y-88624000D01*
X155127000Y-88629000D01*
X155126000Y-88634000D01*
X155126000Y-88640000D01*
X155125000Y-88645000D01*
X155125000Y-88650000D01*
X155125000Y-88850000D01*
X155125000Y-88853000D01*
X155125000Y-88855000D01*
X155124000Y-88858000D01*
X155124000Y-88860000D01*
X155123000Y-88863000D01*
X155123000Y-88865000D01*
X155122000Y-88868000D01*
X155121000Y-88870000D01*
X155120000Y-88873000D01*
X155118000Y-88875000D01*
X155117000Y-88877000D01*
X155115000Y-88879000D01*
X155114000Y-88881000D01*
X155112000Y-88883000D01*
X155110000Y-88885000D01*
X155108000Y-88887000D01*
X155106000Y-88889000D01*
X155104000Y-88890000D01*
X155102000Y-88892000D01*
X155100000Y-88893000D01*
X155098000Y-88895000D01*
X155095000Y-88896000D01*
X155093000Y-88897000D01*
X155090000Y-88898000D01*
X155088000Y-88898000D01*
X155085000Y-88899000D01*
X155083000Y-88899000D01*
X155080000Y-88900000D01*
X155078000Y-88900000D01*
X155075000Y-88900000D01*
X154825000Y-88900000D01*
X154822000Y-88900000D01*
X154820000Y-88900000D01*
X154817000Y-88899000D01*
X154815000Y-88899000D01*
X154812000Y-88898000D01*
X154810000Y-88898000D01*
X154807000Y-88897000D01*
X154805000Y-88896000D01*
X154802000Y-88895000D01*
X154800000Y-88893000D01*
X154798000Y-88892000D01*
X154796000Y-88890000D01*
X154794000Y-88889000D01*
X154792000Y-88887000D01*
X154790000Y-88885000D01*
X154788000Y-88883000D01*
X154786000Y-88881000D01*
X154785000Y-88879000D01*
X154783000Y-88877000D01*
X154782000Y-88875000D01*
X154780000Y-88873000D01*
X154779000Y-88870000D01*
X154778000Y-88868000D01*
X154777000Y-88865000D01*
X154777000Y-88863000D01*
X154776000Y-88860000D01*
X154776000Y-88858000D01*
X154775000Y-88855000D01*
X154775000Y-88853000D01*
X154775000Y-88850000D01*
X154775000Y-88350000D01*
X154775000Y-88347000D01*
X154775000Y-88345000D01*
X154776000Y-88342000D01*
X154776000Y-88340000D01*
X154777000Y-88337000D01*
X154777000Y-88335000D01*
X154778000Y-88332000D01*
X154779000Y-88330000D01*
X154780000Y-88327000D01*
X154782000Y-88325000D01*
X154783000Y-88323000D01*
X154785000Y-88321000D01*
X154786000Y-88319000D01*
X154788000Y-88317000D01*
X154790000Y-88315000D01*
X154792000Y-88313000D01*
X154794000Y-88311000D01*
X154796000Y-88310000D01*
X154798000Y-88308000D01*
X154800000Y-88307000D01*
X154802000Y-88305000D01*
X154805000Y-88304000D01*
X154807000Y-88303000D01*
X154810000Y-88302000D01*
X154812000Y-88302000D01*
X154815000Y-88301000D01*
X154817000Y-88301000D01*
X154820000Y-88300000D01*
X154822000Y-88300000D01*
X154825000Y-88300000D01*
X155950000Y-88300000D01*
X155953000Y-88300000D01*
X155955000Y-88300000D01*
X155958000Y-88301000D01*
G36*
X155958000Y-88301000D02*
G01*
X155960000Y-88301000D01*
X155963000Y-88302000D01*
X155965000Y-88302000D01*
X155968000Y-88303000D01*
X155970000Y-88304000D01*
X155973000Y-88305000D01*
X155975000Y-88307000D01*
X155977000Y-88308000D01*
X155979000Y-88310000D01*
X155981000Y-88311000D01*
X155983000Y-88313000D01*
X155985000Y-88315000D01*
X155987000Y-88317000D01*
X155989000Y-88319000D01*
X155990000Y-88321000D01*
X155992000Y-88323000D01*
X155993000Y-88325000D01*
X155995000Y-88327000D01*
X155996000Y-88330000D01*
X155997000Y-88332000D01*
X155998000Y-88335000D01*
X155998000Y-88337000D01*
X155999000Y-88340000D01*
X155999000Y-88342000D01*
X156000000Y-88345000D01*
X156000000Y-88347000D01*
X156000000Y-88350000D01*
X156000000Y-88500000D01*
X156000000Y-88503000D01*
X156000000Y-88505000D01*
X155999000Y-88508000D01*
X155999000Y-88510000D01*
X155998000Y-88513000D01*
X155998000Y-88515000D01*
X155997000Y-88518000D01*
X155996000Y-88520000D01*
X155995000Y-88523000D01*
X155993000Y-88525000D01*
X155992000Y-88527000D01*
X155990000Y-88529000D01*
X155989000Y-88531000D01*
X155987000Y-88533000D01*
X155985000Y-88535000D01*
X155983000Y-88537000D01*
X155981000Y-88539000D01*
X155979000Y-88540000D01*
X155977000Y-88542000D01*
X155975000Y-88543000D01*
X155973000Y-88545000D01*
X155970000Y-88546000D01*
X155968000Y-88547000D01*
X155965000Y-88548000D01*
X155963000Y-88548000D01*
X155960000Y-88549000D01*
X155958000Y-88549000D01*
X155955000Y-88550000D01*
X155953000Y-88550000D01*
X155950000Y-88550000D01*
X155225000Y-88550000D01*
X155220000Y-88550000D01*
X155215000Y-88551000D01*
X155209000Y-88551000D01*
X155204000Y-88552000D01*
X155199000Y-88553000D01*
X155194000Y-88555000D01*
X155189000Y-88557000D01*
X155184000Y-88559000D01*
X155180000Y-88561000D01*
X155175000Y-88563000D01*
X155171000Y-88566000D01*
X155166000Y-88569000D01*
X155162000Y-88572000D01*
X155158000Y-88576000D01*
X155154000Y-88579000D01*
X155151000Y-88583000D01*
X155147000Y-88587000D01*
X155144000Y-88591000D01*
X155141000Y-88596000D01*
X155138000Y-88600000D01*
X155136000Y-88605000D01*
X155134000Y-88609000D01*
X155132000Y-88614000D01*
X155130000Y-88619000D01*
X155128000Y-88624000D01*
X155127000Y-88629000D01*
X155126000Y-88634000D01*
X155126000Y-88640000D01*
X155125000Y-88645000D01*
X155125000Y-88650000D01*
X155125000Y-88850000D01*
X155125000Y-88853000D01*
X155125000Y-88855000D01*
X155124000Y-88858000D01*
X155124000Y-88860000D01*
X155123000Y-88863000D01*
X155123000Y-88865000D01*
X155122000Y-88868000D01*
X155121000Y-88870000D01*
X155120000Y-88873000D01*
X155118000Y-88875000D01*
X155117000Y-88877000D01*
X155115000Y-88879000D01*
X155114000Y-88881000D01*
X155112000Y-88883000D01*
X155110000Y-88885000D01*
X155108000Y-88887000D01*
X155106000Y-88889000D01*
X155104000Y-88890000D01*
X155102000Y-88892000D01*
X155100000Y-88893000D01*
X155098000Y-88895000D01*
X155095000Y-88896000D01*
X155093000Y-88897000D01*
X155090000Y-88898000D01*
X155088000Y-88898000D01*
X155085000Y-88899000D01*
X155083000Y-88899000D01*
X155080000Y-88900000D01*
X155078000Y-88900000D01*
X155075000Y-88900000D01*
X154825000Y-88900000D01*
X154822000Y-88900000D01*
X154820000Y-88900000D01*
X154817000Y-88899000D01*
X154815000Y-88899000D01*
X154812000Y-88898000D01*
X154810000Y-88898000D01*
X154807000Y-88897000D01*
X154805000Y-88896000D01*
X154802000Y-88895000D01*
X154800000Y-88893000D01*
X154798000Y-88892000D01*
X154796000Y-88890000D01*
X154794000Y-88889000D01*
X154792000Y-88887000D01*
X154790000Y-88885000D01*
X154788000Y-88883000D01*
X154786000Y-88881000D01*
X154785000Y-88879000D01*
X154783000Y-88877000D01*
X154782000Y-88875000D01*
X154780000Y-88873000D01*
X154779000Y-88870000D01*
X154778000Y-88868000D01*
X154777000Y-88865000D01*
X154777000Y-88863000D01*
X154776000Y-88860000D01*
X154776000Y-88858000D01*
X154775000Y-88855000D01*
X154775000Y-88853000D01*
X154775000Y-88850000D01*
X154775000Y-88350000D01*
X154775000Y-88347000D01*
X154775000Y-88345000D01*
X154776000Y-88342000D01*
X154776000Y-88340000D01*
X154777000Y-88337000D01*
X154777000Y-88335000D01*
X154778000Y-88332000D01*
X154779000Y-88330000D01*
X154780000Y-88327000D01*
X154782000Y-88325000D01*
X154783000Y-88323000D01*
X154785000Y-88321000D01*
X154786000Y-88319000D01*
X154788000Y-88317000D01*
X154790000Y-88315000D01*
X154792000Y-88313000D01*
X154794000Y-88311000D01*
X154796000Y-88310000D01*
X154798000Y-88308000D01*
X154800000Y-88307000D01*
X154802000Y-88305000D01*
X154805000Y-88304000D01*
X154807000Y-88303000D01*
X154810000Y-88302000D01*
X154812000Y-88302000D01*
X154815000Y-88301000D01*
X154817000Y-88301000D01*
X154820000Y-88300000D01*
X154822000Y-88300000D01*
X154825000Y-88300000D01*
X155950000Y-88300000D01*
X155953000Y-88300000D01*
X155955000Y-88300000D01*
X155958000Y-88301000D01*
G37*
X155958000Y-87301000D02*
X155960000Y-87301000D01*
X155963000Y-87302000D01*
X155965000Y-87302000D01*
X155968000Y-87303000D01*
X155970000Y-87304000D01*
X155973000Y-87305000D01*
X155975000Y-87307000D01*
X155977000Y-87308000D01*
X155979000Y-87310000D01*
X155981000Y-87311000D01*
X155983000Y-87313000D01*
X155985000Y-87315000D01*
X155987000Y-87317000D01*
X155989000Y-87319000D01*
X155990000Y-87321000D01*
X155992000Y-87323000D01*
X155993000Y-87325000D01*
X155995000Y-87327000D01*
X155996000Y-87330000D01*
X155997000Y-87332000D01*
X155998000Y-87335000D01*
X155998000Y-87337000D01*
X155999000Y-87340000D01*
X155999000Y-87342000D01*
X156000000Y-87345000D01*
X156000000Y-87347000D01*
X156000000Y-87350000D01*
X156000000Y-87500000D01*
X156000000Y-87503000D01*
X156000000Y-87505000D01*
X155999000Y-87508000D01*
X155999000Y-87510000D01*
X155998000Y-87513000D01*
X155998000Y-87515000D01*
X155997000Y-87518000D01*
X155996000Y-87520000D01*
X155995000Y-87523000D01*
X155993000Y-87525000D01*
X155992000Y-87527000D01*
X155990000Y-87529000D01*
X155989000Y-87531000D01*
X155987000Y-87533000D01*
X155985000Y-87535000D01*
X155983000Y-87537000D01*
X155981000Y-87539000D01*
X155979000Y-87540000D01*
X155977000Y-87542000D01*
X155975000Y-87543000D01*
X155973000Y-87545000D01*
X155970000Y-87546000D01*
X155968000Y-87547000D01*
X155965000Y-87548000D01*
X155963000Y-87548000D01*
X155960000Y-87549000D01*
X155958000Y-87549000D01*
X155955000Y-87550000D01*
X155953000Y-87550000D01*
X155950000Y-87550000D01*
X155650000Y-87550000D01*
X155647000Y-87550000D01*
X155645000Y-87550000D01*
X155642000Y-87551000D01*
X155640000Y-87551000D01*
X155637000Y-87552000D01*
X155635000Y-87552000D01*
X155632000Y-87553000D01*
X155630000Y-87554000D01*
X155627000Y-87555000D01*
X155625000Y-87557000D01*
X155623000Y-87558000D01*
X155621000Y-87560000D01*
X155619000Y-87561000D01*
X155617000Y-87563000D01*
X155615000Y-87565000D01*
X155613000Y-87567000D01*
X155611000Y-87569000D01*
X155610000Y-87571000D01*
X155608000Y-87573000D01*
X155607000Y-87575000D01*
X155605000Y-87577000D01*
X155604000Y-87580000D01*
X155603000Y-87582000D01*
X155602000Y-87585000D01*
X155602000Y-87587000D01*
X155601000Y-87590000D01*
X155601000Y-87592000D01*
X155600000Y-87595000D01*
X155600000Y-87597000D01*
X155600000Y-87600000D01*
X155600000Y-87750000D01*
X155600000Y-87753000D01*
X155600000Y-87755000D01*
X155601000Y-87758000D01*
X155601000Y-87760000D01*
X155602000Y-87763000D01*
X155602000Y-87765000D01*
X155603000Y-87768000D01*
X155604000Y-87770000D01*
X155605000Y-87773000D01*
X155607000Y-87775000D01*
X155608000Y-87777000D01*
X155610000Y-87779000D01*
X155611000Y-87781000D01*
X155613000Y-87783000D01*
X155615000Y-87785000D01*
X155617000Y-87787000D01*
X155619000Y-87789000D01*
X155621000Y-87790000D01*
X155623000Y-87792000D01*
X155625000Y-87793000D01*
X155627000Y-87795000D01*
X155630000Y-87796000D01*
X155632000Y-87797000D01*
X155635000Y-87798000D01*
X155637000Y-87798000D01*
X155640000Y-87799000D01*
X155642000Y-87799000D01*
X155645000Y-87800000D01*
X155647000Y-87800000D01*
X155650000Y-87800000D01*
X155950000Y-87800000D01*
X155953000Y-87800000D01*
X155955000Y-87800000D01*
X155958000Y-87801000D01*
X155960000Y-87801000D01*
X155963000Y-87802000D01*
X155965000Y-87802000D01*
X155968000Y-87803000D01*
X155970000Y-87804000D01*
X155973000Y-87805000D01*
X155975000Y-87807000D01*
X155977000Y-87808000D01*
X155979000Y-87810000D01*
X155981000Y-87811000D01*
X155983000Y-87813000D01*
X155985000Y-87815000D01*
X155987000Y-87817000D01*
X155989000Y-87819000D01*
X155990000Y-87821000D01*
X155992000Y-87823000D01*
X155993000Y-87825000D01*
X155995000Y-87827000D01*
X155996000Y-87830000D01*
X155997000Y-87832000D01*
X155998000Y-87835000D01*
X155998000Y-87837000D01*
X155999000Y-87840000D01*
X155999000Y-87842000D01*
X156000000Y-87845000D01*
X156000000Y-87847000D01*
X156000000Y-87850000D01*
X156000000Y-88000000D01*
X156000000Y-88003000D01*
X156000000Y-88005000D01*
X155999000Y-88008000D01*
X155999000Y-88010000D01*
X155998000Y-88013000D01*
X155998000Y-88015000D01*
X155997000Y-88018000D01*
X155996000Y-88020000D01*
X155995000Y-88023000D01*
X155993000Y-88025000D01*
X155992000Y-88027000D01*
X155990000Y-88029000D01*
X155989000Y-88031000D01*
X155987000Y-88033000D01*
X155985000Y-88035000D01*
X155983000Y-88037000D01*
X155981000Y-88039000D01*
X155979000Y-88040000D01*
X155977000Y-88042000D01*
X155975000Y-88043000D01*
X155973000Y-88045000D01*
X155970000Y-88046000D01*
X155968000Y-88047000D01*
X155965000Y-88048000D01*
X155963000Y-88048000D01*
X155960000Y-88049000D01*
X155958000Y-88049000D01*
X155955000Y-88050000D01*
X155953000Y-88050000D01*
X155950000Y-88050000D01*
X154850000Y-88050000D01*
X154847000Y-88050000D01*
X154845000Y-88050000D01*
X154842000Y-88049000D01*
X154840000Y-88049000D01*
X154837000Y-88048000D01*
X154835000Y-88048000D01*
X154832000Y-88047000D01*
X154830000Y-88046000D01*
X154827000Y-88045000D01*
X154825000Y-88043000D01*
X154823000Y-88042000D01*
X154821000Y-88040000D01*
X154819000Y-88039000D01*
X154817000Y-88037000D01*
X154815000Y-88035000D01*
X154813000Y-88033000D01*
X154811000Y-88031000D01*
X154810000Y-88029000D01*
X154808000Y-88027000D01*
X154807000Y-88025000D01*
X154805000Y-88023000D01*
X154804000Y-88020000D01*
X154803000Y-88018000D01*
X154802000Y-88015000D01*
X154802000Y-88013000D01*
X154801000Y-88010000D01*
X154801000Y-88008000D01*
X154800000Y-88005000D01*
X154800000Y-88003000D01*
X154800000Y-88000000D01*
X154800000Y-87350000D01*
X154800000Y-87347000D01*
X154800000Y-87345000D01*
X154801000Y-87342000D01*
X154801000Y-87340000D01*
X154802000Y-87337000D01*
X154802000Y-87335000D01*
X154803000Y-87332000D01*
X154804000Y-87330000D01*
X154805000Y-87327000D01*
X154807000Y-87325000D01*
X154808000Y-87323000D01*
X154810000Y-87321000D01*
X154811000Y-87319000D01*
X154813000Y-87317000D01*
X154815000Y-87315000D01*
X154817000Y-87313000D01*
X154819000Y-87311000D01*
X154821000Y-87310000D01*
X154823000Y-87308000D01*
X154825000Y-87307000D01*
X154827000Y-87305000D01*
X154830000Y-87304000D01*
X154832000Y-87303000D01*
X154835000Y-87302000D01*
X154837000Y-87302000D01*
X154840000Y-87301000D01*
X154842000Y-87301000D01*
X154845000Y-87300000D01*
X154847000Y-87300000D01*
X154850000Y-87300000D01*
X155950000Y-87300000D01*
X155953000Y-87300000D01*
X155955000Y-87300000D01*
X155958000Y-87301000D01*
G36*
X155958000Y-87301000D02*
G01*
X155960000Y-87301000D01*
X155963000Y-87302000D01*
X155965000Y-87302000D01*
X155968000Y-87303000D01*
X155970000Y-87304000D01*
X155973000Y-87305000D01*
X155975000Y-87307000D01*
X155977000Y-87308000D01*
X155979000Y-87310000D01*
X155981000Y-87311000D01*
X155983000Y-87313000D01*
X155985000Y-87315000D01*
X155987000Y-87317000D01*
X155989000Y-87319000D01*
X155990000Y-87321000D01*
X155992000Y-87323000D01*
X155993000Y-87325000D01*
X155995000Y-87327000D01*
X155996000Y-87330000D01*
X155997000Y-87332000D01*
X155998000Y-87335000D01*
X155998000Y-87337000D01*
X155999000Y-87340000D01*
X155999000Y-87342000D01*
X156000000Y-87345000D01*
X156000000Y-87347000D01*
X156000000Y-87350000D01*
X156000000Y-87500000D01*
X156000000Y-87503000D01*
X156000000Y-87505000D01*
X155999000Y-87508000D01*
X155999000Y-87510000D01*
X155998000Y-87513000D01*
X155998000Y-87515000D01*
X155997000Y-87518000D01*
X155996000Y-87520000D01*
X155995000Y-87523000D01*
X155993000Y-87525000D01*
X155992000Y-87527000D01*
X155990000Y-87529000D01*
X155989000Y-87531000D01*
X155987000Y-87533000D01*
X155985000Y-87535000D01*
X155983000Y-87537000D01*
X155981000Y-87539000D01*
X155979000Y-87540000D01*
X155977000Y-87542000D01*
X155975000Y-87543000D01*
X155973000Y-87545000D01*
X155970000Y-87546000D01*
X155968000Y-87547000D01*
X155965000Y-87548000D01*
X155963000Y-87548000D01*
X155960000Y-87549000D01*
X155958000Y-87549000D01*
X155955000Y-87550000D01*
X155953000Y-87550000D01*
X155950000Y-87550000D01*
X155650000Y-87550000D01*
X155647000Y-87550000D01*
X155645000Y-87550000D01*
X155642000Y-87551000D01*
X155640000Y-87551000D01*
X155637000Y-87552000D01*
X155635000Y-87552000D01*
X155632000Y-87553000D01*
X155630000Y-87554000D01*
X155627000Y-87555000D01*
X155625000Y-87557000D01*
X155623000Y-87558000D01*
X155621000Y-87560000D01*
X155619000Y-87561000D01*
X155617000Y-87563000D01*
X155615000Y-87565000D01*
X155613000Y-87567000D01*
X155611000Y-87569000D01*
X155610000Y-87571000D01*
X155608000Y-87573000D01*
X155607000Y-87575000D01*
X155605000Y-87577000D01*
X155604000Y-87580000D01*
X155603000Y-87582000D01*
X155602000Y-87585000D01*
X155602000Y-87587000D01*
X155601000Y-87590000D01*
X155601000Y-87592000D01*
X155600000Y-87595000D01*
X155600000Y-87597000D01*
X155600000Y-87600000D01*
X155600000Y-87750000D01*
X155600000Y-87753000D01*
X155600000Y-87755000D01*
X155601000Y-87758000D01*
X155601000Y-87760000D01*
X155602000Y-87763000D01*
X155602000Y-87765000D01*
X155603000Y-87768000D01*
X155604000Y-87770000D01*
X155605000Y-87773000D01*
X155607000Y-87775000D01*
X155608000Y-87777000D01*
X155610000Y-87779000D01*
X155611000Y-87781000D01*
X155613000Y-87783000D01*
X155615000Y-87785000D01*
X155617000Y-87787000D01*
X155619000Y-87789000D01*
X155621000Y-87790000D01*
X155623000Y-87792000D01*
X155625000Y-87793000D01*
X155627000Y-87795000D01*
X155630000Y-87796000D01*
X155632000Y-87797000D01*
X155635000Y-87798000D01*
X155637000Y-87798000D01*
X155640000Y-87799000D01*
X155642000Y-87799000D01*
X155645000Y-87800000D01*
X155647000Y-87800000D01*
X155650000Y-87800000D01*
X155950000Y-87800000D01*
X155953000Y-87800000D01*
X155955000Y-87800000D01*
X155958000Y-87801000D01*
X155960000Y-87801000D01*
X155963000Y-87802000D01*
X155965000Y-87802000D01*
X155968000Y-87803000D01*
X155970000Y-87804000D01*
X155973000Y-87805000D01*
X155975000Y-87807000D01*
X155977000Y-87808000D01*
X155979000Y-87810000D01*
X155981000Y-87811000D01*
X155983000Y-87813000D01*
X155985000Y-87815000D01*
X155987000Y-87817000D01*
X155989000Y-87819000D01*
X155990000Y-87821000D01*
X155992000Y-87823000D01*
X155993000Y-87825000D01*
X155995000Y-87827000D01*
X155996000Y-87830000D01*
X155997000Y-87832000D01*
X155998000Y-87835000D01*
X155998000Y-87837000D01*
X155999000Y-87840000D01*
X155999000Y-87842000D01*
X156000000Y-87845000D01*
X156000000Y-87847000D01*
X156000000Y-87850000D01*
X156000000Y-88000000D01*
X156000000Y-88003000D01*
X156000000Y-88005000D01*
X155999000Y-88008000D01*
X155999000Y-88010000D01*
X155998000Y-88013000D01*
X155998000Y-88015000D01*
X155997000Y-88018000D01*
X155996000Y-88020000D01*
X155995000Y-88023000D01*
X155993000Y-88025000D01*
X155992000Y-88027000D01*
X155990000Y-88029000D01*
X155989000Y-88031000D01*
X155987000Y-88033000D01*
X155985000Y-88035000D01*
X155983000Y-88037000D01*
X155981000Y-88039000D01*
X155979000Y-88040000D01*
X155977000Y-88042000D01*
X155975000Y-88043000D01*
X155973000Y-88045000D01*
X155970000Y-88046000D01*
X155968000Y-88047000D01*
X155965000Y-88048000D01*
X155963000Y-88048000D01*
X155960000Y-88049000D01*
X155958000Y-88049000D01*
X155955000Y-88050000D01*
X155953000Y-88050000D01*
X155950000Y-88050000D01*
X154850000Y-88050000D01*
X154847000Y-88050000D01*
X154845000Y-88050000D01*
X154842000Y-88049000D01*
X154840000Y-88049000D01*
X154837000Y-88048000D01*
X154835000Y-88048000D01*
X154832000Y-88047000D01*
X154830000Y-88046000D01*
X154827000Y-88045000D01*
X154825000Y-88043000D01*
X154823000Y-88042000D01*
X154821000Y-88040000D01*
X154819000Y-88039000D01*
X154817000Y-88037000D01*
X154815000Y-88035000D01*
X154813000Y-88033000D01*
X154811000Y-88031000D01*
X154810000Y-88029000D01*
X154808000Y-88027000D01*
X154807000Y-88025000D01*
X154805000Y-88023000D01*
X154804000Y-88020000D01*
X154803000Y-88018000D01*
X154802000Y-88015000D01*
X154802000Y-88013000D01*
X154801000Y-88010000D01*
X154801000Y-88008000D01*
X154800000Y-88005000D01*
X154800000Y-88003000D01*
X154800000Y-88000000D01*
X154800000Y-87350000D01*
X154800000Y-87347000D01*
X154800000Y-87345000D01*
X154801000Y-87342000D01*
X154801000Y-87340000D01*
X154802000Y-87337000D01*
X154802000Y-87335000D01*
X154803000Y-87332000D01*
X154804000Y-87330000D01*
X154805000Y-87327000D01*
X154807000Y-87325000D01*
X154808000Y-87323000D01*
X154810000Y-87321000D01*
X154811000Y-87319000D01*
X154813000Y-87317000D01*
X154815000Y-87315000D01*
X154817000Y-87313000D01*
X154819000Y-87311000D01*
X154821000Y-87310000D01*
X154823000Y-87308000D01*
X154825000Y-87307000D01*
X154827000Y-87305000D01*
X154830000Y-87304000D01*
X154832000Y-87303000D01*
X154835000Y-87302000D01*
X154837000Y-87302000D01*
X154840000Y-87301000D01*
X154842000Y-87301000D01*
X154845000Y-87300000D01*
X154847000Y-87300000D01*
X154850000Y-87300000D01*
X155950000Y-87300000D01*
X155953000Y-87300000D01*
X155955000Y-87300000D01*
X155958000Y-87301000D01*
G37*
%TD*%
D11*
%TO.C,R11*%
X151050000Y-88625000D03*
X149225000Y-88625000D03*
%TD*%
D12*
%TO.C,R15*%
X144050000Y-74572500D03*
X144050000Y-72572500D03*
%TD*%
D11*
%TO.C,R7*%
X164150000Y-81950000D03*
X162325000Y-81950000D03*
%TD*%
D13*
%TO.C,R2*%
X133525000Y-89637500D03*
X133525000Y-91462500D03*
%TD*%
D14*
%TO.C,C2*%
X146175000Y-82062500D03*
X146175000Y-80337500D03*
%TD*%
D15*
%TO.C,C21*%
X145850000Y-83950000D03*
X145850000Y-86900000D03*
%TD*%
D16*
%TO.C,R6*%
X149225000Y-90225000D03*
X151050000Y-90225000D03*
%TD*%
D17*
%TO.C,Q2*%
X131900000Y-84350000D03*
X131900000Y-82450000D03*
X133775000Y-83400000D03*
%TD*%
D18*
%TO.C,U3*%
X144350000Y-80250000D03*
X144350000Y-82150000D03*
X142475000Y-81200000D03*
%TD*%
D19*
%TO.C,R5*%
X152850000Y-91837500D03*
X152850000Y-90012500D03*
%TD*%
D16*
%TO.C,R3*%
X131687500Y-80850000D03*
X133512500Y-80850000D03*
%TD*%
D11*
%TO.C,R8*%
X155962500Y-72250000D03*
X154137500Y-72250000D03*
%TD*%
D15*
%TO.C,C23*%
X150705000Y-83950000D03*
X150705000Y-86900000D03*
%TD*%
D14*
%TO.C,C1*%
X140675000Y-82062500D03*
X140675000Y-80337500D03*
%TD*%
D12*
%TO.C,R9*%
X146050000Y-74572500D03*
X146050000Y-72572500D03*
%TD*%
D20*
%TO.C,C18*%
X156412500Y-91625000D03*
X154687500Y-91625000D03*
%TD*%
D15*
%TO.C,C20*%
X143450000Y-83950000D03*
X143450000Y-86900000D03*
%TD*%
D20*
%TO.C,C11*%
X156412500Y-90025000D03*
X154687500Y-90025000D03*
%TD*%
D11*
%TO.C,R4*%
X133512500Y-85950000D03*
X131687500Y-85950000D03*
%TD*%
D13*
%TO.C,R1*%
X131925000Y-91425000D03*
X131925000Y-93250000D03*
%TD*%
D15*
%TO.C,C22*%
X148250000Y-83950000D03*
X148250000Y-86900000D03*
%TD*%
D21*
%TO.C,PS1*%
X152700000Y-87925000D03*
X152700000Y-87425000D03*
D22*
X153925000Y-88625000D03*
%TD*%
D15*
%TO.C,C19*%
X141050000Y-83950000D03*
X141050000Y-86900000D03*
%TD*%
D11*
%TO.C,R10*%
X164150000Y-80350000D03*
X162325000Y-80350000D03*
%TD*%
M02*
