M48
; DRILL file {KiCad 9.0.6+1} date 2025-12-03T23:36:56+0000
; FORMAT={-:-/ absolute / metric / decimal}
; #@! TF.CreationDate,2025-12-03T23:36:56+00:00
; #@! TF.GenerationSoftware,Kicad,Pcbnew,9.0.6+1
; #@! TF.FileFunction,Plated,1,4,PTH
FMAT,2
METRIC
; #@! TA.AperFunction,Plated,PTH,ComponentDrill
T1C0.200
; #@! TA.AperFunction,Plated,PTH,ViaDrill
T2C0.250
; #@! TA.AperFunction,Plated,PTH,ComponentDrill
T3C0.600
; #@! TA.AperFunction,Plated,PTH,ComponentDrill
T4C0.800
; #@! TA.AperFunction,Plated,PTH,ComponentDrill
T5C3.200
%
G90
G05
T1
X152.9Y-84.6
X152.9Y-85.387
X152.9Y-86.175
X153.55Y-84.6
X153.55Y-85.387
X153.55Y-86.175
X154.85Y-84.6
X154.85Y-85.387
X154.85Y-86.175
X155.5Y-84.6
X155.5Y-85.387
X155.5Y-86.175
X217.175Y-94.215
X217.175Y-95.003
X217.175Y-95.79
X217.825Y-94.215
X217.825Y-95.003
X217.825Y-95.79
X219.125Y-94.215
X219.125Y-95.003
X219.125Y-95.79
X219.775Y-94.215
X219.775Y-95.003
X219.775Y-95.79
T2
X130.1Y-78.2
X130.5Y-80.85
X130.5Y-82.45
X130.5Y-85.95
X131.1Y-78.2
X131.5Y-94.4
X131.987Y-88.612
X132.1Y-78.2
X132.1Y-78.9
X132.1Y-79.8
X132.3Y-94.4
X132.7Y-92.3
X133.1Y-93.25
X133.2Y-82.4
X133.2Y-94.25
X133.2Y-97.25
X133.3Y-79.8
X133.3Y-95.5
X133.3Y-98.25
X134.4Y-79.8
X135.5Y-79.8
X135.6Y-90.8
X135.8Y-95.25
X135.9Y-99.3
X137.4Y-87.1
X137.4Y-89.1
X137.9Y-94.2
X138.2Y-99.475
X138.3Y-87.6
X138.9Y-102.8
X139.25Y-77.75
X139.25Y-78.65
X139.25Y-79.55
X139.25Y-83.55
X139.25Y-84.35
X139.25Y-85.25
X139.3Y-87.336
X139.549Y-88.4
X139.6Y-92.9
X139.7Y-98.5
X140.1Y-89.025
X140.2Y-85.9
X140.3Y-85.0
X141.2Y-85.0
X141.2Y-85.9
X142.2Y-85.0
X142.2Y-85.9
X142.3Y-94.4
X142.3Y-95.9
X142.6Y-82.4
X142.6Y-98.325
X142.6Y-99.475
X143.2Y-85.0
X143.2Y-85.9
X143.675Y-106.4
X143.75Y-77.55
X143.9Y-92.399
X144.205Y-81.2
X145.1Y-96.8
X145.355Y-81.2
X145.4Y-92.4
X145.5Y-94.0
X145.6Y-97.6
X145.9Y-101.0
X146.013Y-77.587
X146.4Y-89.6
X146.9Y-92.4
X147.4Y-89.6
X147.4Y-101.0
X147.6Y-82.2
X147.812Y-107.0
X148.05Y-88.625
X148.7Y-82.1
X148.9Y-92.4
X148.9Y-101.0
X149.192Y-93.492
X149.9Y-101.0
X150.257Y-99.343
X151.4Y-104.9
X151.4Y-105.8
X151.55Y-75.05
X152.0Y-91.837
X152.25Y-83.525
X152.288Y-90.901
X152.7Y-101.2
X152.95Y-72.25
X154.0Y-96.325
X155.05Y-75.05
X155.4Y-97.975
X155.4Y-98.737
X155.55Y-89.2
X155.6Y-92.8
X155.6Y-95.7
X155.634Y-94.834
X155.669Y-93.669
X156.1Y-99.562
X156.6Y-92.8
X156.8Y-97.475
X157.5Y-92.0
X157.6Y-90.6
X157.6Y-91.3
X158.55Y-75.05
X159.0Y-94.1
X159.2Y-83.0
X161.0Y-93.875
X161.028Y-94.8
X162.05Y-83.95
X162.05Y-84.95
X162.05Y-85.95
X162.4Y-100.2
X162.9Y-95.6
X163.15Y-79.25
X164.1Y-83.0
X164.625Y-86.15
X165.35Y-80.95
T4
X139.545Y-104.6
X144.425Y-104.6
T5
X132.45Y-74.45
X132.45Y-104.95
X162.95Y-74.45
X162.95Y-104.95
X188.65Y-74.89
X188.65Y-82.04
X188.65Y-89.19
X188.65Y-96.34
T3
G00X140.71Y-74.36
M15
G01X140.71Y-73.56
M16
G05
G00X140.71Y-78.69
M15
G01X140.71Y-77.59
M16
G05
G00X149.35Y-74.36
M15
G01X149.35Y-73.56
M16
G05
G00X149.35Y-78.69
M15
G01X149.35Y-77.59
M16
G05
G00X193.5Y-73.185
M15
G01X193.5Y-74.285
M16
G05
G00X193.5Y-77.515
M15
G01X193.5Y-78.315
M16
G05
G00X202.14Y-73.185
M15
G01X202.14Y-74.285
M16
G05
G00X202.14Y-77.515
M15
G01X202.14Y-78.315
M16
G05
M30
