M48
; DRILL file {KiCad 9.0.1+1} date 2025-11-24T23:18:14+0000
; FORMAT={-:-/ absolute / metric / decimal}
; #@! TF.CreationDate,2025-11-24T23:18:14+00:00
; #@! TF.GenerationSoftware,Kicad,Pcbnew,9.0.1+1
; #@! TF.FileFunction,Plated,1,4,PTH
FMAT,2
METRIC
; #@! TA.AperFunction,Plated,PTH,ComponentDrill
T1C0.200
; #@! TA.AperFunction,Plated,PTH,ViaDrill
T2C0.250
; #@! TA.AperFunction,Plated,PTH,ComponentDrill
T3C0.600
; #@! TA.AperFunction,Plated,PTH,ComponentDrill
T4C0.800
; #@! TA.AperFunction,Plated,PTH,ComponentDrill
T5C3.200
%
G90
G05
T1
X152.85Y-84.55
X152.85Y-85.337
X152.85Y-86.125
X153.5Y-84.55
X153.5Y-85.337
X153.5Y-86.125
X154.8Y-84.55
X154.8Y-85.337
X154.8Y-86.125
X155.45Y-84.55
X155.45Y-85.337
X155.45Y-86.125
T2
X130.5Y-80.85
X130.5Y-82.45
X130.5Y-85.95
X133.025Y-93.25
X139.25Y-77.75
X139.25Y-78.65
X139.25Y-79.55
X139.25Y-83.55
X139.25Y-84.35
X139.25Y-85.25
X143.675Y-106.4
X143.75Y-77.55
X146.013Y-77.587
X147.812Y-107.0
X148.05Y-88.625
X151.55Y-75.05
X151.85Y-91.837
X152.25Y-83.525
X152.95Y-72.25
X155.05Y-75.05
X155.55Y-89.2
X158.55Y-75.05
X162.05Y-83.95
X162.05Y-84.95
X162.05Y-85.95
X163.15Y-79.25
X164.625Y-86.15
X165.35Y-80.95
X165.35Y-81.95
X165.35Y-82.95
T4
X139.545Y-104.6
X144.425Y-104.6
T5
X132.45Y-74.45
X132.45Y-104.95
X162.95Y-74.45
X162.95Y-104.95
T3
G00X140.71Y-74.36
M15
G01X140.71Y-73.56
M16
G05
G00X140.71Y-78.69
M15
G01X140.71Y-77.59
M16
G05
G00X149.35Y-74.36
M15
G01X149.35Y-73.56
M16
G05
G00X149.35Y-78.69
M15
G01X149.35Y-77.59
M16
G05
M30
