%TF.GenerationSoftware,KiCad,Pcbnew,9.0.6+1*%
%TF.CreationDate,Date%
%TF.ProjectId,FCU3,46435533-2e6b-4696-9361-645f70636258,+ (Unreleased)*%
%TF.SameCoordinates,Original*%
%TF.FileFunction,Legend,Bot*%
%TF.FilePolarity,Positive*%
%FSLAX46Y46*%
G04 Gerber Fmt 4.6, Leading zero omitted, Abs format (unit mm)*
G04 Created by KiCad*
%MOMM*%
%LPD*%
G01*
G04 APERTURE LIST*
G04 Aperture macros list*
%AMRoundRect*
0 Rectangle with rounded corners*
0 $1 Rounding radius*
0 $2 $3 $4 $5 $6 $7 $8 $9 X,Y pos of 4 corners*
0 Add a 4 corners polygon primitive as box body*
4,1,4,$2,$3,$4,$5,$6,$7,$8,$9,$2,$3,0*
0 Add four circle primitives for the rounded corners*
1,1,$1+$1,$2,$3*
1,1,$1+$1,$4,$5*
1,1,$1+$1,$6,$7*
1,1,$1+$1,$8,$9*
0 Add four rect primitives between the rounded corners*
20,1,$1+$1,$2,$3,$4,$5,0*
20,1,$1+$1,$4,$5,$6,$7,0*
20,1,$1+$1,$6,$7,$8,$9,0*
20,1,$1+$1,$8,$9,$2,$3,0*%
G04 Aperture macros list end*
%ADD10C,0.300000*%
%ADD11C,0.150000*%
%ADD12C,0.120000*%
%ADD13C,5.700000*%
%ADD14C,1.000000*%
%ADD15C,0.750000*%
%ADD16O,1.204000X2.304000*%
%ADD17O,1.204000X2.004000*%
%ADD18RoundRect,0.050000X-1.000000X-1.000000X1.000000X-1.000000X1.000000X1.000000X-1.000000X1.000000X0*%
%ADD19RoundRect,0.050000X-0.750000X0.500000X-0.750000X-0.500000X0.750000X-0.500000X0.750000X0.500000X0*%
%ADD20RoundRect,0.050000X-0.500000X-0.750000X0.500000X-0.750000X0.500000X0.750000X-0.500000X0.750000X0*%
G04 APERTURE END LIST*
D10*
X141942028Y-72361653D02*
X141870600Y-72290225D01*
X141870600Y-72290225D02*
X141799171Y-72075939D01*
X141799171Y-72075939D02*
X141799171Y-71933082D01*
X141799171Y-71933082D02*
X141870600Y-71718796D01*
X141870600Y-71718796D02*
X142013457Y-71575939D01*
X142013457Y-71575939D02*
X142156314Y-71504510D01*
X142156314Y-71504510D02*
X142442028Y-71433082D01*
X142442028Y-71433082D02*
X142656314Y-71433082D01*
X142656314Y-71433082D02*
X142942028Y-71504510D01*
X142942028Y-71504510D02*
X143084885Y-71575939D01*
X143084885Y-71575939D02*
X143227742Y-71718796D01*
X143227742Y-71718796D02*
X143299171Y-71933082D01*
X143299171Y-71933082D02*
X143299171Y-72075939D01*
X143299171Y-72075939D02*
X143227742Y-72290225D01*
X143227742Y-72290225D02*
X143156314Y-72361653D01*
X141799171Y-73718796D02*
X141799171Y-73004510D01*
X141799171Y-73004510D02*
X143299171Y-73004510D01*
X141799171Y-74218796D02*
X143299171Y-74218796D01*
X141799171Y-75075939D02*
X142656314Y-74433082D01*
X143299171Y-75075939D02*
X142442028Y-74218796D01*
X150299171Y-72261653D02*
X151013457Y-71761653D01*
X150299171Y-71404510D02*
X151799171Y-71404510D01*
X151799171Y-71404510D02*
X151799171Y-71975939D01*
X151799171Y-71975939D02*
X151727742Y-72118796D01*
X151727742Y-72118796D02*
X151656314Y-72190225D01*
X151656314Y-72190225D02*
X151513457Y-72261653D01*
X151513457Y-72261653D02*
X151299171Y-72261653D01*
X151299171Y-72261653D02*
X151156314Y-72190225D01*
X151156314Y-72190225D02*
X151084885Y-72118796D01*
X151084885Y-72118796D02*
X151013457Y-71975939D01*
X151013457Y-71975939D02*
X151013457Y-71404510D01*
X150370600Y-72833082D02*
X150299171Y-73047368D01*
X150299171Y-73047368D02*
X150299171Y-73404510D01*
X150299171Y-73404510D02*
X150370600Y-73547368D01*
X150370600Y-73547368D02*
X150442028Y-73618796D01*
X150442028Y-73618796D02*
X150584885Y-73690225D01*
X150584885Y-73690225D02*
X150727742Y-73690225D01*
X150727742Y-73690225D02*
X150870600Y-73618796D01*
X150870600Y-73618796D02*
X150942028Y-73547368D01*
X150942028Y-73547368D02*
X151013457Y-73404510D01*
X151013457Y-73404510D02*
X151084885Y-73118796D01*
X151084885Y-73118796D02*
X151156314Y-72975939D01*
X151156314Y-72975939D02*
X151227742Y-72904510D01*
X151227742Y-72904510D02*
X151370600Y-72833082D01*
X151370600Y-72833082D02*
X151513457Y-72833082D01*
X151513457Y-72833082D02*
X151656314Y-72904510D01*
X151656314Y-72904510D02*
X151727742Y-72975939D01*
X151727742Y-72975939D02*
X151799171Y-73118796D01*
X151799171Y-73118796D02*
X151799171Y-73475939D01*
X151799171Y-73475939D02*
X151727742Y-73690225D01*
X151799171Y-74118796D02*
X151799171Y-74975939D01*
X150299171Y-74547367D02*
X151799171Y-74547367D01*
X148499171Y-71240225D02*
X146999171Y-71740225D01*
X146999171Y-71740225D02*
X148499171Y-72240225D01*
X147142028Y-73597367D02*
X147070600Y-73525939D01*
X147070600Y-73525939D02*
X146999171Y-73311653D01*
X146999171Y-73311653D02*
X146999171Y-73168796D01*
X146999171Y-73168796D02*
X147070600Y-72954510D01*
X147070600Y-72954510D02*
X147213457Y-72811653D01*
X147213457Y-72811653D02*
X147356314Y-72740224D01*
X147356314Y-72740224D02*
X147642028Y-72668796D01*
X147642028Y-72668796D02*
X147856314Y-72668796D01*
X147856314Y-72668796D02*
X148142028Y-72740224D01*
X148142028Y-72740224D02*
X148284885Y-72811653D01*
X148284885Y-72811653D02*
X148427742Y-72954510D01*
X148427742Y-72954510D02*
X148499171Y-73168796D01*
X148499171Y-73168796D02*
X148499171Y-73311653D01*
X148499171Y-73311653D02*
X148427742Y-73525939D01*
X148427742Y-73525939D02*
X148356314Y-73597367D01*
X147142028Y-75097367D02*
X147070600Y-75025939D01*
X147070600Y-75025939D02*
X146999171Y-74811653D01*
X146999171Y-74811653D02*
X146999171Y-74668796D01*
X146999171Y-74668796D02*
X147070600Y-74454510D01*
X147070600Y-74454510D02*
X147213457Y-74311653D01*
X147213457Y-74311653D02*
X147356314Y-74240224D01*
X147356314Y-74240224D02*
X147642028Y-74168796D01*
X147642028Y-74168796D02*
X147856314Y-74168796D01*
X147856314Y-74168796D02*
X148142028Y-74240224D01*
X148142028Y-74240224D02*
X148284885Y-74311653D01*
X148284885Y-74311653D02*
X148427742Y-74454510D01*
X148427742Y-74454510D02*
X148499171Y-74668796D01*
X148499171Y-74668796D02*
X148499171Y-74811653D01*
X148499171Y-74811653D02*
X148427742Y-75025939D01*
X148427742Y-75025939D02*
X148356314Y-75097367D01*
X139149171Y-71554510D02*
X140649171Y-71554510D01*
X140649171Y-71554510D02*
X140649171Y-71911653D01*
X140649171Y-71911653D02*
X140577742Y-72125939D01*
X140577742Y-72125939D02*
X140434885Y-72268796D01*
X140434885Y-72268796D02*
X140292028Y-72340225D01*
X140292028Y-72340225D02*
X140006314Y-72411653D01*
X140006314Y-72411653D02*
X139792028Y-72411653D01*
X139792028Y-72411653D02*
X139506314Y-72340225D01*
X139506314Y-72340225D02*
X139363457Y-72268796D01*
X139363457Y-72268796D02*
X139220600Y-72125939D01*
X139220600Y-72125939D02*
X139149171Y-71911653D01*
X139149171Y-71911653D02*
X139149171Y-71554510D01*
X139149171Y-73054510D02*
X140649171Y-73054510D01*
X140649171Y-74054511D02*
X140649171Y-74340225D01*
X140649171Y-74340225D02*
X140577742Y-74483082D01*
X140577742Y-74483082D02*
X140434885Y-74625939D01*
X140434885Y-74625939D02*
X140149171Y-74697368D01*
X140149171Y-74697368D02*
X139649171Y-74697368D01*
X139649171Y-74697368D02*
X139363457Y-74625939D01*
X139363457Y-74625939D02*
X139220600Y-74483082D01*
X139220600Y-74483082D02*
X139149171Y-74340225D01*
X139149171Y-74340225D02*
X139149171Y-74054511D01*
X139149171Y-74054511D02*
X139220600Y-73911654D01*
X139220600Y-73911654D02*
X139363457Y-73768796D01*
X139363457Y-73768796D02*
X139649171Y-73697368D01*
X139649171Y-73697368D02*
X140149171Y-73697368D01*
X140149171Y-73697368D02*
X140434885Y-73768796D01*
X140434885Y-73768796D02*
X140577742Y-73911654D01*
X140577742Y-73911654D02*
X140649171Y-74054511D01*
X158277742Y-72090225D02*
X158349171Y-71947368D01*
X158349171Y-71947368D02*
X158349171Y-71733082D01*
X158349171Y-71733082D02*
X158277742Y-71518796D01*
X158277742Y-71518796D02*
X158134885Y-71375939D01*
X158134885Y-71375939D02*
X157992028Y-71304510D01*
X157992028Y-71304510D02*
X157706314Y-71233082D01*
X157706314Y-71233082D02*
X157492028Y-71233082D01*
X157492028Y-71233082D02*
X157206314Y-71304510D01*
X157206314Y-71304510D02*
X157063457Y-71375939D01*
X157063457Y-71375939D02*
X156920600Y-71518796D01*
X156920600Y-71518796D02*
X156849171Y-71733082D01*
X156849171Y-71733082D02*
X156849171Y-71875939D01*
X156849171Y-71875939D02*
X156920600Y-72090225D01*
X156920600Y-72090225D02*
X156992028Y-72161653D01*
X156992028Y-72161653D02*
X157492028Y-72161653D01*
X157492028Y-72161653D02*
X157492028Y-71875939D01*
X156849171Y-72804510D02*
X158349171Y-72804510D01*
X158349171Y-72804510D02*
X156849171Y-73661653D01*
X156849171Y-73661653D02*
X158349171Y-73661653D01*
X156849171Y-74375939D02*
X158349171Y-74375939D01*
X158349171Y-74375939D02*
X158349171Y-74733082D01*
X158349171Y-74733082D02*
X158277742Y-74947368D01*
X158277742Y-74947368D02*
X158134885Y-75090225D01*
X158134885Y-75090225D02*
X157992028Y-75161654D01*
X157992028Y-75161654D02*
X157706314Y-75233082D01*
X157706314Y-75233082D02*
X157492028Y-75233082D01*
X157492028Y-75233082D02*
X157206314Y-75161654D01*
X157206314Y-75161654D02*
X157063457Y-75090225D01*
X157063457Y-75090225D02*
X156920600Y-74947368D01*
X156920600Y-74947368D02*
X156849171Y-74733082D01*
X156849171Y-74733082D02*
X156849171Y-74375939D01*
D11*
X153304819Y-72016666D02*
X154019104Y-72016666D01*
X154019104Y-72016666D02*
X154161961Y-71969047D01*
X154161961Y-71969047D02*
X154257200Y-71873809D01*
X154257200Y-71873809D02*
X154304819Y-71730952D01*
X154304819Y-71730952D02*
X154304819Y-71635714D01*
X154304819Y-72492857D02*
X153304819Y-72492857D01*
X153304819Y-72492857D02*
X153304819Y-72873809D01*
X153304819Y-72873809D02*
X153352438Y-72969047D01*
X153352438Y-72969047D02*
X153400057Y-73016666D01*
X153400057Y-73016666D02*
X153495295Y-73064285D01*
X153495295Y-73064285D02*
X153638152Y-73064285D01*
X153638152Y-73064285D02*
X153733390Y-73016666D01*
X153733390Y-73016666D02*
X153781009Y-72969047D01*
X153781009Y-72969047D02*
X153828628Y-72873809D01*
X153828628Y-72873809D02*
X153828628Y-72492857D01*
X153638152Y-73921428D02*
X154304819Y-73921428D01*
X153257200Y-73683333D02*
X153971485Y-73445238D01*
X153971485Y-73445238D02*
X153971485Y-74064285D01*
X143933333Y-100049819D02*
X143933333Y-100764104D01*
X143933333Y-100764104D02*
X143980952Y-100906961D01*
X143980952Y-100906961D02*
X144076190Y-101002200D01*
X144076190Y-101002200D02*
X144219047Y-101049819D01*
X144219047Y-101049819D02*
X144314285Y-101049819D01*
X143457142Y-101049819D02*
X143457142Y-100049819D01*
X143457142Y-100049819D02*
X143076190Y-100049819D01*
X143076190Y-100049819D02*
X142980952Y-100097438D01*
X142980952Y-100097438D02*
X142933333Y-100145057D01*
X142933333Y-100145057D02*
X142885714Y-100240295D01*
X142885714Y-100240295D02*
X142885714Y-100383152D01*
X142885714Y-100383152D02*
X142933333Y-100478390D01*
X142933333Y-100478390D02*
X142980952Y-100526009D01*
X142980952Y-100526009D02*
X143076190Y-100573628D01*
X143076190Y-100573628D02*
X143457142Y-100573628D01*
X142552380Y-100049819D02*
X141933333Y-100049819D01*
X141933333Y-100049819D02*
X142266666Y-100430771D01*
X142266666Y-100430771D02*
X142123809Y-100430771D01*
X142123809Y-100430771D02*
X142028571Y-100478390D01*
X142028571Y-100478390D02*
X141980952Y-100526009D01*
X141980952Y-100526009D02*
X141933333Y-100621247D01*
X141933333Y-100621247D02*
X141933333Y-100859342D01*
X141933333Y-100859342D02*
X141980952Y-100954580D01*
X141980952Y-100954580D02*
X142028571Y-101002200D01*
X142028571Y-101002200D02*
X142123809Y-101049819D01*
X142123809Y-101049819D02*
X142409523Y-101049819D01*
X142409523Y-101049819D02*
X142504761Y-101002200D01*
X142504761Y-101002200D02*
X142552380Y-100954580D01*
D12*
%TO.C,TP2*%
X137900000Y-68300000D02*
X137900000Y-70700000D01*
X137900000Y-70700000D02*
X140300000Y-70700000D01*
X140300000Y-68300000D02*
X137900000Y-68300000D01*
X140300000Y-70700000D02*
X140300000Y-68300000D01*
%TO.C,JP4*%
X152915200Y-68245000D02*
X152915200Y-71045000D01*
X152915200Y-71045000D02*
X154915200Y-71045000D01*
X154915200Y-68245000D02*
X152915200Y-68245000D01*
X154915200Y-71045000D02*
X154915200Y-68245000D01*
%TO.C,TP4*%
X156200000Y-68195000D02*
X156200000Y-70595000D01*
X156200000Y-70595000D02*
X158600000Y-70595000D01*
X158600000Y-68195000D02*
X156200000Y-68195000D01*
X158600000Y-70595000D02*
X158600000Y-68195000D01*
%TO.C,TP1*%
X146600000Y-68250000D02*
X146600000Y-70650000D01*
X146600000Y-70650000D02*
X149000000Y-70650000D01*
X149000000Y-68250000D02*
X146600000Y-68250000D01*
X149000000Y-70650000D02*
X149000000Y-68250000D01*
%TO.C,TP3*%
X141750000Y-68350000D02*
X141750000Y-70750000D01*
X141750000Y-70750000D02*
X144150000Y-70750000D01*
X144150000Y-68350000D02*
X141750000Y-68350000D01*
X144150000Y-70750000D02*
X144150000Y-68350000D01*
%TO.C,TP5*%
X149850000Y-68250000D02*
X149850000Y-70650000D01*
X149850000Y-70650000D02*
X152250000Y-70650000D01*
X152250000Y-68250000D02*
X149850000Y-68250000D01*
X152250000Y-70650000D02*
X152250000Y-68250000D01*
%TO.C,JP3*%
X141725000Y-101445000D02*
X141725000Y-103445000D01*
X141725000Y-103445000D02*
X144525000Y-103445000D01*
X144525000Y-101445000D02*
X141725000Y-101445000D01*
X144525000Y-103445000D02*
X144525000Y-101445000D01*
%TD*%
%LPC*%
%TO.C,JP4*%
G36*
X153165200Y-69495000D02*
G01*
X154665200Y-69495000D01*
X154665200Y-69795000D01*
X153165200Y-69795000D01*
X153165200Y-69495000D01*
G37*
%TO.C,JP3*%
G36*
X142975000Y-103195000D02*
G01*
X143275000Y-103195000D01*
X143275000Y-101695000D01*
X142975000Y-101695000D01*
X142975000Y-103195000D01*
G37*
%TD*%
D13*
%TO.C,H2*%
X162400000Y-70045000D03*
%TD*%
%TO.C,H1*%
X132000000Y-70082500D03*
%TD*%
%TO.C,H4*%
X162400000Y-100545000D03*
%TD*%
%TO.C,H3*%
X131900000Y-100545000D03*
%TD*%
D14*
%TO.C,S1*%
X153600000Y-101370000D03*
X155900000Y-101370000D03*
%TD*%
D15*
%TO.C,J3*%
X144070000Y-73125000D03*
X138290000Y-73125000D03*
D16*
X145500000Y-73625000D03*
X136860000Y-73625000D03*
D17*
X145500000Y-69445000D03*
X136860000Y-69445000D03*
%TD*%
D18*
%TO.C,TP2*%
X139100000Y-69500000D03*
%TD*%
D19*
%TO.C,JP4*%
X153915200Y-68995000D03*
X153915200Y-70295000D03*
%TD*%
D18*
%TO.C,TP4*%
X157400000Y-69395000D03*
%TD*%
%TO.C,TP1*%
X147800000Y-69450000D03*
%TD*%
%TO.C,TP3*%
X142950000Y-69550000D03*
%TD*%
%TO.C,TP5*%
X151050000Y-69450000D03*
%TD*%
D20*
%TO.C,JP3*%
X142475000Y-102445000D03*
X143775000Y-102445000D03*
%TD*%
%LPD*%
M02*
