%TF.GenerationSoftware,KiCad,Pcbnew,9.0.1+1*%
%TF.CreationDate,Date%
%TF.ProjectId,FCU3,46435533-2e6b-4696-9361-645f70636258,+ (Unreleased)*%
%TF.SameCoordinates,Original*%
%TF.FileFunction,Paste,Bot*%
%TF.FilePolarity,Positive*%
%FSLAX46Y46*%
G04 Gerber Fmt 4.6, Leading zero omitted, Abs format (unit mm)*
G04 Created by KiCad*
%MOMM*%
%LPD*%
G01*
G04 APERTURE LIST*
G04 Aperture macros list*
%AMRoundRect*
0 Rectangle with rounded corners*
0 $1 Rounding radius*
0 $2 $3 $4 $5 $6 $7 $8 $9 X,Y pos of 4 corners*
0 Add a 4 corners polygon primitive as box body*
4,1,4,$2,$3,$4,$5,$6,$7,$8,$9,$2,$3,0*
0 Add four circle primitives for the rounded corners*
1,1,$1+$1,$2,$3*
1,1,$1+$1,$4,$5*
1,1,$1+$1,$6,$7*
1,1,$1+$1,$8,$9*
0 Add four rect primitives between the rounded corners*
20,1,$1+$1,$2,$3,$4,$5,0*
20,1,$1+$1,$4,$5,$6,$7,0*
20,1,$1+$1,$6,$7,$8,$9,0*
20,1,$1+$1,$8,$9,$2,$3,0*%
G04 Aperture macros list end*
%ADD10C,0.010000*%
%ADD11RoundRect,0.237500X0.250000X0.237500X-0.250000X0.237500X-0.250000X-0.237500X0.250000X-0.237500X0*%
%ADD12RoundRect,0.250000X0.450000X-0.350000X0.450000X0.350000X-0.450000X0.350000X-0.450000X-0.350000X0*%
%ADD13RoundRect,0.237500X-0.250000X-0.237500X0.250000X-0.237500X0.250000X0.237500X-0.250000X0.237500X0*%
%ADD14RoundRect,0.237500X0.237500X-0.250000X0.237500X0.250000X-0.237500X0.250000X-0.237500X-0.250000X0*%
%ADD15RoundRect,0.237500X-0.237500X0.300000X-0.237500X-0.300000X0.237500X-0.300000X0.237500X0.300000X0*%
%ADD16RoundRect,0.250000X-0.650000X0.325000X-0.650000X-0.325000X0.650000X-0.325000X0.650000X0.325000X0*%
%ADD17RoundRect,0.150000X0.587500X0.150000X-0.587500X0.150000X-0.587500X-0.150000X0.587500X-0.150000X0*%
%ADD18RoundRect,0.150000X-0.587500X-0.150000X0.587500X-0.150000X0.587500X0.150000X-0.587500X0.150000X0*%
%ADD19RoundRect,0.237500X0.300000X0.237500X-0.300000X0.237500X-0.300000X-0.237500X0.300000X-0.237500X0*%
%ADD20RoundRect,0.050000X-0.350000X-0.075000X0.350000X-0.075000X0.350000X0.075000X-0.350000X0.075000X0*%
%ADD21RoundRect,0.049500X-0.100500X-0.225500X0.100500X-0.225500X0.100500X0.225500X-0.100500X0.225500X0*%
G04 APERTURE END LIST*
D10*
%TO.C,PS1*%
X121603000Y-111961000D02*
X121605000Y-111961000D01*
X121608000Y-111962000D01*
X121610000Y-111962000D01*
X121613000Y-111963000D01*
X121615000Y-111964000D01*
X121618000Y-111965000D01*
X121620000Y-111967000D01*
X121622000Y-111968000D01*
X121624000Y-111970000D01*
X121626000Y-111971000D01*
X121628000Y-111973000D01*
X121630000Y-111975000D01*
X121632000Y-111977000D01*
X121634000Y-111979000D01*
X121635000Y-111981000D01*
X121637000Y-111983000D01*
X121638000Y-111985000D01*
X121640000Y-111987000D01*
X121641000Y-111990000D01*
X121642000Y-111992000D01*
X121643000Y-111995000D01*
X121643000Y-111997000D01*
X121644000Y-112000000D01*
X121644000Y-112002000D01*
X121645000Y-112005000D01*
X121645000Y-112007000D01*
X121645000Y-112010000D01*
X121645000Y-112160000D01*
X121645000Y-112163000D01*
X121645000Y-112165000D01*
X121644000Y-112168000D01*
X121644000Y-112170000D01*
X121643000Y-112173000D01*
X121643000Y-112175000D01*
X121642000Y-112178000D01*
X121641000Y-112180000D01*
X121640000Y-112183000D01*
X121638000Y-112185000D01*
X121637000Y-112187000D01*
X121635000Y-112189000D01*
X121634000Y-112191000D01*
X121632000Y-112193000D01*
X121630000Y-112195000D01*
X121628000Y-112197000D01*
X121626000Y-112199000D01*
X121624000Y-112200000D01*
X121622000Y-112202000D01*
X121620000Y-112203000D01*
X121618000Y-112205000D01*
X121615000Y-112206000D01*
X121613000Y-112207000D01*
X121610000Y-112208000D01*
X121608000Y-112208000D01*
X121605000Y-112209000D01*
X121603000Y-112209000D01*
X121600000Y-112210000D01*
X121598000Y-112210000D01*
X121595000Y-112210000D01*
X121245000Y-112210000D01*
X121242000Y-112210000D01*
X121240000Y-112210000D01*
X121237000Y-112209000D01*
X121235000Y-112209000D01*
X121232000Y-112208000D01*
X121230000Y-112208000D01*
X121227000Y-112207000D01*
X121225000Y-112206000D01*
X121222000Y-112205000D01*
X121220000Y-112203000D01*
X121218000Y-112202000D01*
X121216000Y-112200000D01*
X121214000Y-112199000D01*
X121212000Y-112197000D01*
X121210000Y-112195000D01*
X121208000Y-112193000D01*
X121206000Y-112191000D01*
X121205000Y-112189000D01*
X121203000Y-112187000D01*
X121202000Y-112185000D01*
X121200000Y-112183000D01*
X121199000Y-112180000D01*
X121198000Y-112178000D01*
X121197000Y-112175000D01*
X121197000Y-112173000D01*
X121196000Y-112170000D01*
X121196000Y-112168000D01*
X121195000Y-112165000D01*
X121195000Y-112163000D01*
X121195000Y-112160000D01*
X121195000Y-112010000D01*
X121195000Y-112007000D01*
X121195000Y-112005000D01*
X121196000Y-112002000D01*
X121196000Y-112000000D01*
X121197000Y-111997000D01*
X121197000Y-111995000D01*
X121198000Y-111992000D01*
X121199000Y-111990000D01*
X121200000Y-111987000D01*
X121202000Y-111985000D01*
X121203000Y-111983000D01*
X121205000Y-111981000D01*
X121206000Y-111979000D01*
X121208000Y-111977000D01*
X121210000Y-111975000D01*
X121212000Y-111973000D01*
X121214000Y-111971000D01*
X121216000Y-111970000D01*
X121218000Y-111968000D01*
X121220000Y-111967000D01*
X121222000Y-111965000D01*
X121225000Y-111964000D01*
X121227000Y-111963000D01*
X121230000Y-111962000D01*
X121232000Y-111962000D01*
X121235000Y-111961000D01*
X121237000Y-111961000D01*
X121240000Y-111960000D01*
X121242000Y-111960000D01*
X121245000Y-111960000D01*
X121595000Y-111960000D01*
X121598000Y-111960000D01*
X121600000Y-111960000D01*
X121603000Y-111961000D01*
G36*
X121603000Y-111961000D02*
G01*
X121605000Y-111961000D01*
X121608000Y-111962000D01*
X121610000Y-111962000D01*
X121613000Y-111963000D01*
X121615000Y-111964000D01*
X121618000Y-111965000D01*
X121620000Y-111967000D01*
X121622000Y-111968000D01*
X121624000Y-111970000D01*
X121626000Y-111971000D01*
X121628000Y-111973000D01*
X121630000Y-111975000D01*
X121632000Y-111977000D01*
X121634000Y-111979000D01*
X121635000Y-111981000D01*
X121637000Y-111983000D01*
X121638000Y-111985000D01*
X121640000Y-111987000D01*
X121641000Y-111990000D01*
X121642000Y-111992000D01*
X121643000Y-111995000D01*
X121643000Y-111997000D01*
X121644000Y-112000000D01*
X121644000Y-112002000D01*
X121645000Y-112005000D01*
X121645000Y-112007000D01*
X121645000Y-112010000D01*
X121645000Y-112160000D01*
X121645000Y-112163000D01*
X121645000Y-112165000D01*
X121644000Y-112168000D01*
X121644000Y-112170000D01*
X121643000Y-112173000D01*
X121643000Y-112175000D01*
X121642000Y-112178000D01*
X121641000Y-112180000D01*
X121640000Y-112183000D01*
X121638000Y-112185000D01*
X121637000Y-112187000D01*
X121635000Y-112189000D01*
X121634000Y-112191000D01*
X121632000Y-112193000D01*
X121630000Y-112195000D01*
X121628000Y-112197000D01*
X121626000Y-112199000D01*
X121624000Y-112200000D01*
X121622000Y-112202000D01*
X121620000Y-112203000D01*
X121618000Y-112205000D01*
X121615000Y-112206000D01*
X121613000Y-112207000D01*
X121610000Y-112208000D01*
X121608000Y-112208000D01*
X121605000Y-112209000D01*
X121603000Y-112209000D01*
X121600000Y-112210000D01*
X121598000Y-112210000D01*
X121595000Y-112210000D01*
X121245000Y-112210000D01*
X121242000Y-112210000D01*
X121240000Y-112210000D01*
X121237000Y-112209000D01*
X121235000Y-112209000D01*
X121232000Y-112208000D01*
X121230000Y-112208000D01*
X121227000Y-112207000D01*
X121225000Y-112206000D01*
X121222000Y-112205000D01*
X121220000Y-112203000D01*
X121218000Y-112202000D01*
X121216000Y-112200000D01*
X121214000Y-112199000D01*
X121212000Y-112197000D01*
X121210000Y-112195000D01*
X121208000Y-112193000D01*
X121206000Y-112191000D01*
X121205000Y-112189000D01*
X121203000Y-112187000D01*
X121202000Y-112185000D01*
X121200000Y-112183000D01*
X121199000Y-112180000D01*
X121198000Y-112178000D01*
X121197000Y-112175000D01*
X121197000Y-112173000D01*
X121196000Y-112170000D01*
X121196000Y-112168000D01*
X121195000Y-112165000D01*
X121195000Y-112163000D01*
X121195000Y-112160000D01*
X121195000Y-112010000D01*
X121195000Y-112007000D01*
X121195000Y-112005000D01*
X121196000Y-112002000D01*
X121196000Y-112000000D01*
X121197000Y-111997000D01*
X121197000Y-111995000D01*
X121198000Y-111992000D01*
X121199000Y-111990000D01*
X121200000Y-111987000D01*
X121202000Y-111985000D01*
X121203000Y-111983000D01*
X121205000Y-111981000D01*
X121206000Y-111979000D01*
X121208000Y-111977000D01*
X121210000Y-111975000D01*
X121212000Y-111973000D01*
X121214000Y-111971000D01*
X121216000Y-111970000D01*
X121218000Y-111968000D01*
X121220000Y-111967000D01*
X121222000Y-111965000D01*
X121225000Y-111964000D01*
X121227000Y-111963000D01*
X121230000Y-111962000D01*
X121232000Y-111962000D01*
X121235000Y-111961000D01*
X121237000Y-111961000D01*
X121240000Y-111960000D01*
X121242000Y-111960000D01*
X121245000Y-111960000D01*
X121595000Y-111960000D01*
X121598000Y-111960000D01*
X121600000Y-111960000D01*
X121603000Y-111961000D01*
G37*
X121603000Y-112461000D02*
X121605000Y-112461000D01*
X121608000Y-112462000D01*
X121610000Y-112462000D01*
X121613000Y-112463000D01*
X121615000Y-112464000D01*
X121618000Y-112465000D01*
X121620000Y-112467000D01*
X121622000Y-112468000D01*
X121624000Y-112470000D01*
X121626000Y-112471000D01*
X121628000Y-112473000D01*
X121630000Y-112475000D01*
X121632000Y-112477000D01*
X121634000Y-112479000D01*
X121635000Y-112481000D01*
X121637000Y-112483000D01*
X121638000Y-112485000D01*
X121640000Y-112487000D01*
X121641000Y-112490000D01*
X121642000Y-112492000D01*
X121643000Y-112495000D01*
X121643000Y-112497000D01*
X121644000Y-112500000D01*
X121644000Y-112502000D01*
X121645000Y-112505000D01*
X121645000Y-112507000D01*
X121645000Y-112510000D01*
X121645000Y-112660000D01*
X121645000Y-112663000D01*
X121645000Y-112665000D01*
X121644000Y-112668000D01*
X121644000Y-112670000D01*
X121643000Y-112673000D01*
X121643000Y-112675000D01*
X121642000Y-112678000D01*
X121641000Y-112680000D01*
X121640000Y-112683000D01*
X121638000Y-112685000D01*
X121637000Y-112687000D01*
X121635000Y-112689000D01*
X121634000Y-112691000D01*
X121632000Y-112693000D01*
X121630000Y-112695000D01*
X121628000Y-112697000D01*
X121626000Y-112699000D01*
X121624000Y-112700000D01*
X121622000Y-112702000D01*
X121620000Y-112703000D01*
X121618000Y-112705000D01*
X121615000Y-112706000D01*
X121613000Y-112707000D01*
X121610000Y-112708000D01*
X121608000Y-112708000D01*
X121605000Y-112709000D01*
X121603000Y-112709000D01*
X121600000Y-112710000D01*
X121598000Y-112710000D01*
X121595000Y-112710000D01*
X121245000Y-112710000D01*
X121242000Y-112710000D01*
X121240000Y-112710000D01*
X121237000Y-112709000D01*
X121235000Y-112709000D01*
X121232000Y-112708000D01*
X121230000Y-112708000D01*
X121227000Y-112707000D01*
X121225000Y-112706000D01*
X121222000Y-112705000D01*
X121220000Y-112703000D01*
X121218000Y-112702000D01*
X121216000Y-112700000D01*
X121214000Y-112699000D01*
X121212000Y-112697000D01*
X121210000Y-112695000D01*
X121208000Y-112693000D01*
X121206000Y-112691000D01*
X121205000Y-112689000D01*
X121203000Y-112687000D01*
X121202000Y-112685000D01*
X121200000Y-112683000D01*
X121199000Y-112680000D01*
X121198000Y-112678000D01*
X121197000Y-112675000D01*
X121197000Y-112673000D01*
X121196000Y-112670000D01*
X121196000Y-112668000D01*
X121195000Y-112665000D01*
X121195000Y-112663000D01*
X121195000Y-112660000D01*
X121195000Y-112510000D01*
X121195000Y-112507000D01*
X121195000Y-112505000D01*
X121196000Y-112502000D01*
X121196000Y-112500000D01*
X121197000Y-112497000D01*
X121197000Y-112495000D01*
X121198000Y-112492000D01*
X121199000Y-112490000D01*
X121200000Y-112487000D01*
X121202000Y-112485000D01*
X121203000Y-112483000D01*
X121205000Y-112481000D01*
X121206000Y-112479000D01*
X121208000Y-112477000D01*
X121210000Y-112475000D01*
X121212000Y-112473000D01*
X121214000Y-112471000D01*
X121216000Y-112470000D01*
X121218000Y-112468000D01*
X121220000Y-112467000D01*
X121222000Y-112465000D01*
X121225000Y-112464000D01*
X121227000Y-112463000D01*
X121230000Y-112462000D01*
X121232000Y-112462000D01*
X121235000Y-112461000D01*
X121237000Y-112461000D01*
X121240000Y-112460000D01*
X121242000Y-112460000D01*
X121245000Y-112460000D01*
X121595000Y-112460000D01*
X121598000Y-112460000D01*
X121600000Y-112460000D01*
X121603000Y-112461000D01*
G36*
X121603000Y-112461000D02*
G01*
X121605000Y-112461000D01*
X121608000Y-112462000D01*
X121610000Y-112462000D01*
X121613000Y-112463000D01*
X121615000Y-112464000D01*
X121618000Y-112465000D01*
X121620000Y-112467000D01*
X121622000Y-112468000D01*
X121624000Y-112470000D01*
X121626000Y-112471000D01*
X121628000Y-112473000D01*
X121630000Y-112475000D01*
X121632000Y-112477000D01*
X121634000Y-112479000D01*
X121635000Y-112481000D01*
X121637000Y-112483000D01*
X121638000Y-112485000D01*
X121640000Y-112487000D01*
X121641000Y-112490000D01*
X121642000Y-112492000D01*
X121643000Y-112495000D01*
X121643000Y-112497000D01*
X121644000Y-112500000D01*
X121644000Y-112502000D01*
X121645000Y-112505000D01*
X121645000Y-112507000D01*
X121645000Y-112510000D01*
X121645000Y-112660000D01*
X121645000Y-112663000D01*
X121645000Y-112665000D01*
X121644000Y-112668000D01*
X121644000Y-112670000D01*
X121643000Y-112673000D01*
X121643000Y-112675000D01*
X121642000Y-112678000D01*
X121641000Y-112680000D01*
X121640000Y-112683000D01*
X121638000Y-112685000D01*
X121637000Y-112687000D01*
X121635000Y-112689000D01*
X121634000Y-112691000D01*
X121632000Y-112693000D01*
X121630000Y-112695000D01*
X121628000Y-112697000D01*
X121626000Y-112699000D01*
X121624000Y-112700000D01*
X121622000Y-112702000D01*
X121620000Y-112703000D01*
X121618000Y-112705000D01*
X121615000Y-112706000D01*
X121613000Y-112707000D01*
X121610000Y-112708000D01*
X121608000Y-112708000D01*
X121605000Y-112709000D01*
X121603000Y-112709000D01*
X121600000Y-112710000D01*
X121598000Y-112710000D01*
X121595000Y-112710000D01*
X121245000Y-112710000D01*
X121242000Y-112710000D01*
X121240000Y-112710000D01*
X121237000Y-112709000D01*
X121235000Y-112709000D01*
X121232000Y-112708000D01*
X121230000Y-112708000D01*
X121227000Y-112707000D01*
X121225000Y-112706000D01*
X121222000Y-112705000D01*
X121220000Y-112703000D01*
X121218000Y-112702000D01*
X121216000Y-112700000D01*
X121214000Y-112699000D01*
X121212000Y-112697000D01*
X121210000Y-112695000D01*
X121208000Y-112693000D01*
X121206000Y-112691000D01*
X121205000Y-112689000D01*
X121203000Y-112687000D01*
X121202000Y-112685000D01*
X121200000Y-112683000D01*
X121199000Y-112680000D01*
X121198000Y-112678000D01*
X121197000Y-112675000D01*
X121197000Y-112673000D01*
X121196000Y-112670000D01*
X121196000Y-112668000D01*
X121195000Y-112665000D01*
X121195000Y-112663000D01*
X121195000Y-112660000D01*
X121195000Y-112510000D01*
X121195000Y-112507000D01*
X121195000Y-112505000D01*
X121196000Y-112502000D01*
X121196000Y-112500000D01*
X121197000Y-112497000D01*
X121197000Y-112495000D01*
X121198000Y-112492000D01*
X121199000Y-112490000D01*
X121200000Y-112487000D01*
X121202000Y-112485000D01*
X121203000Y-112483000D01*
X121205000Y-112481000D01*
X121206000Y-112479000D01*
X121208000Y-112477000D01*
X121210000Y-112475000D01*
X121212000Y-112473000D01*
X121214000Y-112471000D01*
X121216000Y-112470000D01*
X121218000Y-112468000D01*
X121220000Y-112467000D01*
X121222000Y-112465000D01*
X121225000Y-112464000D01*
X121227000Y-112463000D01*
X121230000Y-112462000D01*
X121232000Y-112462000D01*
X121235000Y-112461000D01*
X121237000Y-112461000D01*
X121240000Y-112460000D01*
X121242000Y-112460000D01*
X121245000Y-112460000D01*
X121595000Y-112460000D01*
X121598000Y-112460000D01*
X121600000Y-112460000D01*
X121603000Y-112461000D01*
G37*
X121603000Y-112961000D02*
X121605000Y-112961000D01*
X121608000Y-112962000D01*
X121610000Y-112962000D01*
X121613000Y-112963000D01*
X121615000Y-112964000D01*
X121618000Y-112965000D01*
X121620000Y-112967000D01*
X121622000Y-112968000D01*
X121624000Y-112970000D01*
X121626000Y-112971000D01*
X121628000Y-112973000D01*
X121630000Y-112975000D01*
X121632000Y-112977000D01*
X121634000Y-112979000D01*
X121635000Y-112981000D01*
X121637000Y-112983000D01*
X121638000Y-112985000D01*
X121640000Y-112987000D01*
X121641000Y-112990000D01*
X121642000Y-112992000D01*
X121643000Y-112995000D01*
X121643000Y-112997000D01*
X121644000Y-113000000D01*
X121644000Y-113002000D01*
X121645000Y-113005000D01*
X121645000Y-113007000D01*
X121645000Y-113010000D01*
X121645000Y-113160000D01*
X121645000Y-113163000D01*
X121645000Y-113165000D01*
X121644000Y-113168000D01*
X121644000Y-113170000D01*
X121643000Y-113173000D01*
X121643000Y-113175000D01*
X121642000Y-113178000D01*
X121641000Y-113180000D01*
X121640000Y-113183000D01*
X121638000Y-113185000D01*
X121637000Y-113187000D01*
X121635000Y-113189000D01*
X121634000Y-113191000D01*
X121632000Y-113193000D01*
X121630000Y-113195000D01*
X121628000Y-113197000D01*
X121626000Y-113199000D01*
X121624000Y-113200000D01*
X121622000Y-113202000D01*
X121620000Y-113203000D01*
X121618000Y-113205000D01*
X121615000Y-113206000D01*
X121613000Y-113207000D01*
X121610000Y-113208000D01*
X121608000Y-113208000D01*
X121605000Y-113209000D01*
X121603000Y-113209000D01*
X121600000Y-113210000D01*
X121598000Y-113210000D01*
X121595000Y-113210000D01*
X121245000Y-113210000D01*
X121242000Y-113210000D01*
X121240000Y-113210000D01*
X121237000Y-113209000D01*
X121235000Y-113209000D01*
X121232000Y-113208000D01*
X121230000Y-113208000D01*
X121227000Y-113207000D01*
X121225000Y-113206000D01*
X121222000Y-113205000D01*
X121220000Y-113203000D01*
X121218000Y-113202000D01*
X121216000Y-113200000D01*
X121214000Y-113199000D01*
X121212000Y-113197000D01*
X121210000Y-113195000D01*
X121208000Y-113193000D01*
X121206000Y-113191000D01*
X121205000Y-113189000D01*
X121203000Y-113187000D01*
X121202000Y-113185000D01*
X121200000Y-113183000D01*
X121199000Y-113180000D01*
X121198000Y-113178000D01*
X121197000Y-113175000D01*
X121197000Y-113173000D01*
X121196000Y-113170000D01*
X121196000Y-113168000D01*
X121195000Y-113165000D01*
X121195000Y-113163000D01*
X121195000Y-113160000D01*
X121195000Y-113010000D01*
X121195000Y-113007000D01*
X121195000Y-113005000D01*
X121196000Y-113002000D01*
X121196000Y-113000000D01*
X121197000Y-112997000D01*
X121197000Y-112995000D01*
X121198000Y-112992000D01*
X121199000Y-112990000D01*
X121200000Y-112987000D01*
X121202000Y-112985000D01*
X121203000Y-112983000D01*
X121205000Y-112981000D01*
X121206000Y-112979000D01*
X121208000Y-112977000D01*
X121210000Y-112975000D01*
X121212000Y-112973000D01*
X121214000Y-112971000D01*
X121216000Y-112970000D01*
X121218000Y-112968000D01*
X121220000Y-112967000D01*
X121222000Y-112965000D01*
X121225000Y-112964000D01*
X121227000Y-112963000D01*
X121230000Y-112962000D01*
X121232000Y-112962000D01*
X121235000Y-112961000D01*
X121237000Y-112961000D01*
X121240000Y-112960000D01*
X121242000Y-112960000D01*
X121245000Y-112960000D01*
X121595000Y-112960000D01*
X121598000Y-112960000D01*
X121600000Y-112960000D01*
X121603000Y-112961000D01*
G36*
X121603000Y-112961000D02*
G01*
X121605000Y-112961000D01*
X121608000Y-112962000D01*
X121610000Y-112962000D01*
X121613000Y-112963000D01*
X121615000Y-112964000D01*
X121618000Y-112965000D01*
X121620000Y-112967000D01*
X121622000Y-112968000D01*
X121624000Y-112970000D01*
X121626000Y-112971000D01*
X121628000Y-112973000D01*
X121630000Y-112975000D01*
X121632000Y-112977000D01*
X121634000Y-112979000D01*
X121635000Y-112981000D01*
X121637000Y-112983000D01*
X121638000Y-112985000D01*
X121640000Y-112987000D01*
X121641000Y-112990000D01*
X121642000Y-112992000D01*
X121643000Y-112995000D01*
X121643000Y-112997000D01*
X121644000Y-113000000D01*
X121644000Y-113002000D01*
X121645000Y-113005000D01*
X121645000Y-113007000D01*
X121645000Y-113010000D01*
X121645000Y-113160000D01*
X121645000Y-113163000D01*
X121645000Y-113165000D01*
X121644000Y-113168000D01*
X121644000Y-113170000D01*
X121643000Y-113173000D01*
X121643000Y-113175000D01*
X121642000Y-113178000D01*
X121641000Y-113180000D01*
X121640000Y-113183000D01*
X121638000Y-113185000D01*
X121637000Y-113187000D01*
X121635000Y-113189000D01*
X121634000Y-113191000D01*
X121632000Y-113193000D01*
X121630000Y-113195000D01*
X121628000Y-113197000D01*
X121626000Y-113199000D01*
X121624000Y-113200000D01*
X121622000Y-113202000D01*
X121620000Y-113203000D01*
X121618000Y-113205000D01*
X121615000Y-113206000D01*
X121613000Y-113207000D01*
X121610000Y-113208000D01*
X121608000Y-113208000D01*
X121605000Y-113209000D01*
X121603000Y-113209000D01*
X121600000Y-113210000D01*
X121598000Y-113210000D01*
X121595000Y-113210000D01*
X121245000Y-113210000D01*
X121242000Y-113210000D01*
X121240000Y-113210000D01*
X121237000Y-113209000D01*
X121235000Y-113209000D01*
X121232000Y-113208000D01*
X121230000Y-113208000D01*
X121227000Y-113207000D01*
X121225000Y-113206000D01*
X121222000Y-113205000D01*
X121220000Y-113203000D01*
X121218000Y-113202000D01*
X121216000Y-113200000D01*
X121214000Y-113199000D01*
X121212000Y-113197000D01*
X121210000Y-113195000D01*
X121208000Y-113193000D01*
X121206000Y-113191000D01*
X121205000Y-113189000D01*
X121203000Y-113187000D01*
X121202000Y-113185000D01*
X121200000Y-113183000D01*
X121199000Y-113180000D01*
X121198000Y-113178000D01*
X121197000Y-113175000D01*
X121197000Y-113173000D01*
X121196000Y-113170000D01*
X121196000Y-113168000D01*
X121195000Y-113165000D01*
X121195000Y-113163000D01*
X121195000Y-113160000D01*
X121195000Y-113010000D01*
X121195000Y-113007000D01*
X121195000Y-113005000D01*
X121196000Y-113002000D01*
X121196000Y-113000000D01*
X121197000Y-112997000D01*
X121197000Y-112995000D01*
X121198000Y-112992000D01*
X121199000Y-112990000D01*
X121200000Y-112987000D01*
X121202000Y-112985000D01*
X121203000Y-112983000D01*
X121205000Y-112981000D01*
X121206000Y-112979000D01*
X121208000Y-112977000D01*
X121210000Y-112975000D01*
X121212000Y-112973000D01*
X121214000Y-112971000D01*
X121216000Y-112970000D01*
X121218000Y-112968000D01*
X121220000Y-112967000D01*
X121222000Y-112965000D01*
X121225000Y-112964000D01*
X121227000Y-112963000D01*
X121230000Y-112962000D01*
X121232000Y-112962000D01*
X121235000Y-112961000D01*
X121237000Y-112961000D01*
X121240000Y-112960000D01*
X121242000Y-112960000D01*
X121245000Y-112960000D01*
X121595000Y-112960000D01*
X121598000Y-112960000D01*
X121600000Y-112960000D01*
X121603000Y-112961000D01*
G37*
X122878000Y-114076000D02*
X122880000Y-114076000D01*
X122883000Y-114077000D01*
X122885000Y-114077000D01*
X122888000Y-114078000D01*
X122890000Y-114079000D01*
X122893000Y-114080000D01*
X122895000Y-114082000D01*
X122897000Y-114083000D01*
X122899000Y-114085000D01*
X122901000Y-114086000D01*
X122903000Y-114088000D01*
X122905000Y-114090000D01*
X122907000Y-114092000D01*
X122909000Y-114094000D01*
X122910000Y-114096000D01*
X122912000Y-114098000D01*
X122913000Y-114100000D01*
X122915000Y-114102000D01*
X122916000Y-114105000D01*
X122917000Y-114107000D01*
X122918000Y-114110000D01*
X122918000Y-114112000D01*
X122919000Y-114115000D01*
X122919000Y-114117000D01*
X122920000Y-114120000D01*
X122920000Y-114122000D01*
X122920000Y-114125000D01*
X122920000Y-115350000D01*
X122920000Y-115353000D01*
X122920000Y-115355000D01*
X122919000Y-115358000D01*
X122919000Y-115360000D01*
X122918000Y-115363000D01*
X122918000Y-115365000D01*
X122917000Y-115368000D01*
X122916000Y-115370000D01*
X122915000Y-115373000D01*
X122913000Y-115375000D01*
X122912000Y-115377000D01*
X122910000Y-115379000D01*
X122909000Y-115381000D01*
X122907000Y-115383000D01*
X122905000Y-115385000D01*
X122903000Y-115387000D01*
X122901000Y-115389000D01*
X122899000Y-115390000D01*
X122897000Y-115392000D01*
X122895000Y-115393000D01*
X122893000Y-115395000D01*
X122890000Y-115396000D01*
X122888000Y-115397000D01*
X122885000Y-115398000D01*
X122883000Y-115398000D01*
X122880000Y-115399000D01*
X122878000Y-115399000D01*
X122875000Y-115400000D01*
X122873000Y-115400000D01*
X122870000Y-115400000D01*
X122720000Y-115400000D01*
X122717000Y-115400000D01*
X122715000Y-115400000D01*
X122712000Y-115399000D01*
X122710000Y-115399000D01*
X122707000Y-115398000D01*
X122705000Y-115398000D01*
X122702000Y-115397000D01*
X122700000Y-115396000D01*
X122697000Y-115395000D01*
X122695000Y-115393000D01*
X122693000Y-115392000D01*
X122691000Y-115390000D01*
X122689000Y-115389000D01*
X122687000Y-115387000D01*
X122685000Y-115385000D01*
X122683000Y-115383000D01*
X122681000Y-115381000D01*
X122680000Y-115379000D01*
X122678000Y-115377000D01*
X122677000Y-115375000D01*
X122675000Y-115373000D01*
X122674000Y-115370000D01*
X122673000Y-115368000D01*
X122672000Y-115365000D01*
X122672000Y-115363000D01*
X122671000Y-115360000D01*
X122671000Y-115358000D01*
X122670000Y-115355000D01*
X122670000Y-115353000D01*
X122670000Y-115350000D01*
X122670000Y-114125000D01*
X122670000Y-114122000D01*
X122670000Y-114120000D01*
X122671000Y-114117000D01*
X122671000Y-114115000D01*
X122672000Y-114112000D01*
X122672000Y-114110000D01*
X122673000Y-114107000D01*
X122674000Y-114105000D01*
X122675000Y-114102000D01*
X122677000Y-114100000D01*
X122678000Y-114098000D01*
X122680000Y-114096000D01*
X122681000Y-114094000D01*
X122683000Y-114092000D01*
X122685000Y-114090000D01*
X122687000Y-114088000D01*
X122689000Y-114086000D01*
X122691000Y-114085000D01*
X122693000Y-114083000D01*
X122695000Y-114082000D01*
X122697000Y-114080000D01*
X122700000Y-114079000D01*
X122702000Y-114078000D01*
X122705000Y-114077000D01*
X122707000Y-114077000D01*
X122710000Y-114076000D01*
X122712000Y-114076000D01*
X122715000Y-114075000D01*
X122717000Y-114075000D01*
X122720000Y-114075000D01*
X122870000Y-114075000D01*
X122873000Y-114075000D01*
X122875000Y-114075000D01*
X122878000Y-114076000D01*
G36*
X122878000Y-114076000D02*
G01*
X122880000Y-114076000D01*
X122883000Y-114077000D01*
X122885000Y-114077000D01*
X122888000Y-114078000D01*
X122890000Y-114079000D01*
X122893000Y-114080000D01*
X122895000Y-114082000D01*
X122897000Y-114083000D01*
X122899000Y-114085000D01*
X122901000Y-114086000D01*
X122903000Y-114088000D01*
X122905000Y-114090000D01*
X122907000Y-114092000D01*
X122909000Y-114094000D01*
X122910000Y-114096000D01*
X122912000Y-114098000D01*
X122913000Y-114100000D01*
X122915000Y-114102000D01*
X122916000Y-114105000D01*
X122917000Y-114107000D01*
X122918000Y-114110000D01*
X122918000Y-114112000D01*
X122919000Y-114115000D01*
X122919000Y-114117000D01*
X122920000Y-114120000D01*
X122920000Y-114122000D01*
X122920000Y-114125000D01*
X122920000Y-115350000D01*
X122920000Y-115353000D01*
X122920000Y-115355000D01*
X122919000Y-115358000D01*
X122919000Y-115360000D01*
X122918000Y-115363000D01*
X122918000Y-115365000D01*
X122917000Y-115368000D01*
X122916000Y-115370000D01*
X122915000Y-115373000D01*
X122913000Y-115375000D01*
X122912000Y-115377000D01*
X122910000Y-115379000D01*
X122909000Y-115381000D01*
X122907000Y-115383000D01*
X122905000Y-115385000D01*
X122903000Y-115387000D01*
X122901000Y-115389000D01*
X122899000Y-115390000D01*
X122897000Y-115392000D01*
X122895000Y-115393000D01*
X122893000Y-115395000D01*
X122890000Y-115396000D01*
X122888000Y-115397000D01*
X122885000Y-115398000D01*
X122883000Y-115398000D01*
X122880000Y-115399000D01*
X122878000Y-115399000D01*
X122875000Y-115400000D01*
X122873000Y-115400000D01*
X122870000Y-115400000D01*
X122720000Y-115400000D01*
X122717000Y-115400000D01*
X122715000Y-115400000D01*
X122712000Y-115399000D01*
X122710000Y-115399000D01*
X122707000Y-115398000D01*
X122705000Y-115398000D01*
X122702000Y-115397000D01*
X122700000Y-115396000D01*
X122697000Y-115395000D01*
X122695000Y-115393000D01*
X122693000Y-115392000D01*
X122691000Y-115390000D01*
X122689000Y-115389000D01*
X122687000Y-115387000D01*
X122685000Y-115385000D01*
X122683000Y-115383000D01*
X122681000Y-115381000D01*
X122680000Y-115379000D01*
X122678000Y-115377000D01*
X122677000Y-115375000D01*
X122675000Y-115373000D01*
X122674000Y-115370000D01*
X122673000Y-115368000D01*
X122672000Y-115365000D01*
X122672000Y-115363000D01*
X122671000Y-115360000D01*
X122671000Y-115358000D01*
X122670000Y-115355000D01*
X122670000Y-115353000D01*
X122670000Y-115350000D01*
X122670000Y-114125000D01*
X122670000Y-114122000D01*
X122670000Y-114120000D01*
X122671000Y-114117000D01*
X122671000Y-114115000D01*
X122672000Y-114112000D01*
X122672000Y-114110000D01*
X122673000Y-114107000D01*
X122674000Y-114105000D01*
X122675000Y-114102000D01*
X122677000Y-114100000D01*
X122678000Y-114098000D01*
X122680000Y-114096000D01*
X122681000Y-114094000D01*
X122683000Y-114092000D01*
X122685000Y-114090000D01*
X122687000Y-114088000D01*
X122689000Y-114086000D01*
X122691000Y-114085000D01*
X122693000Y-114083000D01*
X122695000Y-114082000D01*
X122697000Y-114080000D01*
X122700000Y-114079000D01*
X122702000Y-114078000D01*
X122705000Y-114077000D01*
X122707000Y-114077000D01*
X122710000Y-114076000D01*
X122712000Y-114076000D01*
X122715000Y-114075000D01*
X122717000Y-114075000D01*
X122720000Y-114075000D01*
X122870000Y-114075000D01*
X122873000Y-114075000D01*
X122875000Y-114075000D01*
X122878000Y-114076000D01*
G37*
X124853000Y-111961000D02*
X124855000Y-111961000D01*
X124858000Y-111962000D01*
X124860000Y-111962000D01*
X124863000Y-111963000D01*
X124865000Y-111964000D01*
X124868000Y-111965000D01*
X124870000Y-111967000D01*
X124872000Y-111968000D01*
X124874000Y-111970000D01*
X124876000Y-111971000D01*
X124878000Y-111973000D01*
X124880000Y-111975000D01*
X124882000Y-111977000D01*
X124884000Y-111979000D01*
X124885000Y-111981000D01*
X124887000Y-111983000D01*
X124888000Y-111985000D01*
X124890000Y-111987000D01*
X124891000Y-111990000D01*
X124892000Y-111992000D01*
X124893000Y-111995000D01*
X124893000Y-111997000D01*
X124894000Y-112000000D01*
X124894000Y-112002000D01*
X124895000Y-112005000D01*
X124895000Y-112007000D01*
X124895000Y-112010000D01*
X124895000Y-112160000D01*
X124895000Y-112163000D01*
X124895000Y-112165000D01*
X124894000Y-112168000D01*
X124894000Y-112170000D01*
X124893000Y-112173000D01*
X124893000Y-112175000D01*
X124892000Y-112178000D01*
X124891000Y-112180000D01*
X124890000Y-112183000D01*
X124888000Y-112185000D01*
X124887000Y-112187000D01*
X124885000Y-112189000D01*
X124884000Y-112191000D01*
X124882000Y-112193000D01*
X124880000Y-112195000D01*
X124878000Y-112197000D01*
X124876000Y-112199000D01*
X124874000Y-112200000D01*
X124872000Y-112202000D01*
X124870000Y-112203000D01*
X124868000Y-112205000D01*
X124865000Y-112206000D01*
X124863000Y-112207000D01*
X124860000Y-112208000D01*
X124858000Y-112208000D01*
X124855000Y-112209000D01*
X124853000Y-112209000D01*
X124850000Y-112210000D01*
X124848000Y-112210000D01*
X124845000Y-112210000D01*
X124495000Y-112210000D01*
X124492000Y-112210000D01*
X124490000Y-112210000D01*
X124487000Y-112209000D01*
X124485000Y-112209000D01*
X124482000Y-112208000D01*
X124480000Y-112208000D01*
X124477000Y-112207000D01*
X124475000Y-112206000D01*
X124472000Y-112205000D01*
X124470000Y-112203000D01*
X124468000Y-112202000D01*
X124466000Y-112200000D01*
X124464000Y-112199000D01*
X124462000Y-112197000D01*
X124460000Y-112195000D01*
X124458000Y-112193000D01*
X124456000Y-112191000D01*
X124455000Y-112189000D01*
X124453000Y-112187000D01*
X124452000Y-112185000D01*
X124450000Y-112183000D01*
X124449000Y-112180000D01*
X124448000Y-112178000D01*
X124447000Y-112175000D01*
X124447000Y-112173000D01*
X124446000Y-112170000D01*
X124446000Y-112168000D01*
X124445000Y-112165000D01*
X124445000Y-112163000D01*
X124445000Y-112160000D01*
X124445000Y-112010000D01*
X124445000Y-112007000D01*
X124445000Y-112005000D01*
X124446000Y-112002000D01*
X124446000Y-112000000D01*
X124447000Y-111997000D01*
X124447000Y-111995000D01*
X124448000Y-111992000D01*
X124449000Y-111990000D01*
X124450000Y-111987000D01*
X124452000Y-111985000D01*
X124453000Y-111983000D01*
X124455000Y-111981000D01*
X124456000Y-111979000D01*
X124458000Y-111977000D01*
X124460000Y-111975000D01*
X124462000Y-111973000D01*
X124464000Y-111971000D01*
X124466000Y-111970000D01*
X124468000Y-111968000D01*
X124470000Y-111967000D01*
X124472000Y-111965000D01*
X124475000Y-111964000D01*
X124477000Y-111963000D01*
X124480000Y-111962000D01*
X124482000Y-111962000D01*
X124485000Y-111961000D01*
X124487000Y-111961000D01*
X124490000Y-111960000D01*
X124492000Y-111960000D01*
X124495000Y-111960000D01*
X124845000Y-111960000D01*
X124848000Y-111960000D01*
X124850000Y-111960000D01*
X124853000Y-111961000D01*
G36*
X124853000Y-111961000D02*
G01*
X124855000Y-111961000D01*
X124858000Y-111962000D01*
X124860000Y-111962000D01*
X124863000Y-111963000D01*
X124865000Y-111964000D01*
X124868000Y-111965000D01*
X124870000Y-111967000D01*
X124872000Y-111968000D01*
X124874000Y-111970000D01*
X124876000Y-111971000D01*
X124878000Y-111973000D01*
X124880000Y-111975000D01*
X124882000Y-111977000D01*
X124884000Y-111979000D01*
X124885000Y-111981000D01*
X124887000Y-111983000D01*
X124888000Y-111985000D01*
X124890000Y-111987000D01*
X124891000Y-111990000D01*
X124892000Y-111992000D01*
X124893000Y-111995000D01*
X124893000Y-111997000D01*
X124894000Y-112000000D01*
X124894000Y-112002000D01*
X124895000Y-112005000D01*
X124895000Y-112007000D01*
X124895000Y-112010000D01*
X124895000Y-112160000D01*
X124895000Y-112163000D01*
X124895000Y-112165000D01*
X124894000Y-112168000D01*
X124894000Y-112170000D01*
X124893000Y-112173000D01*
X124893000Y-112175000D01*
X124892000Y-112178000D01*
X124891000Y-112180000D01*
X124890000Y-112183000D01*
X124888000Y-112185000D01*
X124887000Y-112187000D01*
X124885000Y-112189000D01*
X124884000Y-112191000D01*
X124882000Y-112193000D01*
X124880000Y-112195000D01*
X124878000Y-112197000D01*
X124876000Y-112199000D01*
X124874000Y-112200000D01*
X124872000Y-112202000D01*
X124870000Y-112203000D01*
X124868000Y-112205000D01*
X124865000Y-112206000D01*
X124863000Y-112207000D01*
X124860000Y-112208000D01*
X124858000Y-112208000D01*
X124855000Y-112209000D01*
X124853000Y-112209000D01*
X124850000Y-112210000D01*
X124848000Y-112210000D01*
X124845000Y-112210000D01*
X124495000Y-112210000D01*
X124492000Y-112210000D01*
X124490000Y-112210000D01*
X124487000Y-112209000D01*
X124485000Y-112209000D01*
X124482000Y-112208000D01*
X124480000Y-112208000D01*
X124477000Y-112207000D01*
X124475000Y-112206000D01*
X124472000Y-112205000D01*
X124470000Y-112203000D01*
X124468000Y-112202000D01*
X124466000Y-112200000D01*
X124464000Y-112199000D01*
X124462000Y-112197000D01*
X124460000Y-112195000D01*
X124458000Y-112193000D01*
X124456000Y-112191000D01*
X124455000Y-112189000D01*
X124453000Y-112187000D01*
X124452000Y-112185000D01*
X124450000Y-112183000D01*
X124449000Y-112180000D01*
X124448000Y-112178000D01*
X124447000Y-112175000D01*
X124447000Y-112173000D01*
X124446000Y-112170000D01*
X124446000Y-112168000D01*
X124445000Y-112165000D01*
X124445000Y-112163000D01*
X124445000Y-112160000D01*
X124445000Y-112010000D01*
X124445000Y-112007000D01*
X124445000Y-112005000D01*
X124446000Y-112002000D01*
X124446000Y-112000000D01*
X124447000Y-111997000D01*
X124447000Y-111995000D01*
X124448000Y-111992000D01*
X124449000Y-111990000D01*
X124450000Y-111987000D01*
X124452000Y-111985000D01*
X124453000Y-111983000D01*
X124455000Y-111981000D01*
X124456000Y-111979000D01*
X124458000Y-111977000D01*
X124460000Y-111975000D01*
X124462000Y-111973000D01*
X124464000Y-111971000D01*
X124466000Y-111970000D01*
X124468000Y-111968000D01*
X124470000Y-111967000D01*
X124472000Y-111965000D01*
X124475000Y-111964000D01*
X124477000Y-111963000D01*
X124480000Y-111962000D01*
X124482000Y-111962000D01*
X124485000Y-111961000D01*
X124487000Y-111961000D01*
X124490000Y-111960000D01*
X124492000Y-111960000D01*
X124495000Y-111960000D01*
X124845000Y-111960000D01*
X124848000Y-111960000D01*
X124850000Y-111960000D01*
X124853000Y-111961000D01*
G37*
X124853000Y-112461000D02*
X124855000Y-112461000D01*
X124858000Y-112462000D01*
X124860000Y-112462000D01*
X124863000Y-112463000D01*
X124865000Y-112464000D01*
X124868000Y-112465000D01*
X124870000Y-112467000D01*
X124872000Y-112468000D01*
X124874000Y-112470000D01*
X124876000Y-112471000D01*
X124878000Y-112473000D01*
X124880000Y-112475000D01*
X124882000Y-112477000D01*
X124884000Y-112479000D01*
X124885000Y-112481000D01*
X124887000Y-112483000D01*
X124888000Y-112485000D01*
X124890000Y-112487000D01*
X124891000Y-112490000D01*
X124892000Y-112492000D01*
X124893000Y-112495000D01*
X124893000Y-112497000D01*
X124894000Y-112500000D01*
X124894000Y-112502000D01*
X124895000Y-112505000D01*
X124895000Y-112507000D01*
X124895000Y-112510000D01*
X124895000Y-112660000D01*
X124895000Y-112663000D01*
X124895000Y-112665000D01*
X124894000Y-112668000D01*
X124894000Y-112670000D01*
X124893000Y-112673000D01*
X124893000Y-112675000D01*
X124892000Y-112678000D01*
X124891000Y-112680000D01*
X124890000Y-112683000D01*
X124888000Y-112685000D01*
X124887000Y-112687000D01*
X124885000Y-112689000D01*
X124884000Y-112691000D01*
X124882000Y-112693000D01*
X124880000Y-112695000D01*
X124878000Y-112697000D01*
X124876000Y-112699000D01*
X124874000Y-112700000D01*
X124872000Y-112702000D01*
X124870000Y-112703000D01*
X124868000Y-112705000D01*
X124865000Y-112706000D01*
X124863000Y-112707000D01*
X124860000Y-112708000D01*
X124858000Y-112708000D01*
X124855000Y-112709000D01*
X124853000Y-112709000D01*
X124850000Y-112710000D01*
X124848000Y-112710000D01*
X124845000Y-112710000D01*
X124495000Y-112710000D01*
X124492000Y-112710000D01*
X124490000Y-112710000D01*
X124487000Y-112709000D01*
X124485000Y-112709000D01*
X124482000Y-112708000D01*
X124480000Y-112708000D01*
X124477000Y-112707000D01*
X124475000Y-112706000D01*
X124472000Y-112705000D01*
X124470000Y-112703000D01*
X124468000Y-112702000D01*
X124466000Y-112700000D01*
X124464000Y-112699000D01*
X124462000Y-112697000D01*
X124460000Y-112695000D01*
X124458000Y-112693000D01*
X124456000Y-112691000D01*
X124455000Y-112689000D01*
X124453000Y-112687000D01*
X124452000Y-112685000D01*
X124450000Y-112683000D01*
X124449000Y-112680000D01*
X124448000Y-112678000D01*
X124447000Y-112675000D01*
X124447000Y-112673000D01*
X124446000Y-112670000D01*
X124446000Y-112668000D01*
X124445000Y-112665000D01*
X124445000Y-112663000D01*
X124445000Y-112660000D01*
X124445000Y-112510000D01*
X124445000Y-112507000D01*
X124445000Y-112505000D01*
X124446000Y-112502000D01*
X124446000Y-112500000D01*
X124447000Y-112497000D01*
X124447000Y-112495000D01*
X124448000Y-112492000D01*
X124449000Y-112490000D01*
X124450000Y-112487000D01*
X124452000Y-112485000D01*
X124453000Y-112483000D01*
X124455000Y-112481000D01*
X124456000Y-112479000D01*
X124458000Y-112477000D01*
X124460000Y-112475000D01*
X124462000Y-112473000D01*
X124464000Y-112471000D01*
X124466000Y-112470000D01*
X124468000Y-112468000D01*
X124470000Y-112467000D01*
X124472000Y-112465000D01*
X124475000Y-112464000D01*
X124477000Y-112463000D01*
X124480000Y-112462000D01*
X124482000Y-112462000D01*
X124485000Y-112461000D01*
X124487000Y-112461000D01*
X124490000Y-112460000D01*
X124492000Y-112460000D01*
X124495000Y-112460000D01*
X124845000Y-112460000D01*
X124848000Y-112460000D01*
X124850000Y-112460000D01*
X124853000Y-112461000D01*
G36*
X124853000Y-112461000D02*
G01*
X124855000Y-112461000D01*
X124858000Y-112462000D01*
X124860000Y-112462000D01*
X124863000Y-112463000D01*
X124865000Y-112464000D01*
X124868000Y-112465000D01*
X124870000Y-112467000D01*
X124872000Y-112468000D01*
X124874000Y-112470000D01*
X124876000Y-112471000D01*
X124878000Y-112473000D01*
X124880000Y-112475000D01*
X124882000Y-112477000D01*
X124884000Y-112479000D01*
X124885000Y-112481000D01*
X124887000Y-112483000D01*
X124888000Y-112485000D01*
X124890000Y-112487000D01*
X124891000Y-112490000D01*
X124892000Y-112492000D01*
X124893000Y-112495000D01*
X124893000Y-112497000D01*
X124894000Y-112500000D01*
X124894000Y-112502000D01*
X124895000Y-112505000D01*
X124895000Y-112507000D01*
X124895000Y-112510000D01*
X124895000Y-112660000D01*
X124895000Y-112663000D01*
X124895000Y-112665000D01*
X124894000Y-112668000D01*
X124894000Y-112670000D01*
X124893000Y-112673000D01*
X124893000Y-112675000D01*
X124892000Y-112678000D01*
X124891000Y-112680000D01*
X124890000Y-112683000D01*
X124888000Y-112685000D01*
X124887000Y-112687000D01*
X124885000Y-112689000D01*
X124884000Y-112691000D01*
X124882000Y-112693000D01*
X124880000Y-112695000D01*
X124878000Y-112697000D01*
X124876000Y-112699000D01*
X124874000Y-112700000D01*
X124872000Y-112702000D01*
X124870000Y-112703000D01*
X124868000Y-112705000D01*
X124865000Y-112706000D01*
X124863000Y-112707000D01*
X124860000Y-112708000D01*
X124858000Y-112708000D01*
X124855000Y-112709000D01*
X124853000Y-112709000D01*
X124850000Y-112710000D01*
X124848000Y-112710000D01*
X124845000Y-112710000D01*
X124495000Y-112710000D01*
X124492000Y-112710000D01*
X124490000Y-112710000D01*
X124487000Y-112709000D01*
X124485000Y-112709000D01*
X124482000Y-112708000D01*
X124480000Y-112708000D01*
X124477000Y-112707000D01*
X124475000Y-112706000D01*
X124472000Y-112705000D01*
X124470000Y-112703000D01*
X124468000Y-112702000D01*
X124466000Y-112700000D01*
X124464000Y-112699000D01*
X124462000Y-112697000D01*
X124460000Y-112695000D01*
X124458000Y-112693000D01*
X124456000Y-112691000D01*
X124455000Y-112689000D01*
X124453000Y-112687000D01*
X124452000Y-112685000D01*
X124450000Y-112683000D01*
X124449000Y-112680000D01*
X124448000Y-112678000D01*
X124447000Y-112675000D01*
X124447000Y-112673000D01*
X124446000Y-112670000D01*
X124446000Y-112668000D01*
X124445000Y-112665000D01*
X124445000Y-112663000D01*
X124445000Y-112660000D01*
X124445000Y-112510000D01*
X124445000Y-112507000D01*
X124445000Y-112505000D01*
X124446000Y-112502000D01*
X124446000Y-112500000D01*
X124447000Y-112497000D01*
X124447000Y-112495000D01*
X124448000Y-112492000D01*
X124449000Y-112490000D01*
X124450000Y-112487000D01*
X124452000Y-112485000D01*
X124453000Y-112483000D01*
X124455000Y-112481000D01*
X124456000Y-112479000D01*
X124458000Y-112477000D01*
X124460000Y-112475000D01*
X124462000Y-112473000D01*
X124464000Y-112471000D01*
X124466000Y-112470000D01*
X124468000Y-112468000D01*
X124470000Y-112467000D01*
X124472000Y-112465000D01*
X124475000Y-112464000D01*
X124477000Y-112463000D01*
X124480000Y-112462000D01*
X124482000Y-112462000D01*
X124485000Y-112461000D01*
X124487000Y-112461000D01*
X124490000Y-112460000D01*
X124492000Y-112460000D01*
X124495000Y-112460000D01*
X124845000Y-112460000D01*
X124848000Y-112460000D01*
X124850000Y-112460000D01*
X124853000Y-112461000D01*
G37*
X124853000Y-112961000D02*
X124855000Y-112961000D01*
X124858000Y-112962000D01*
X124860000Y-112962000D01*
X124863000Y-112963000D01*
X124865000Y-112964000D01*
X124868000Y-112965000D01*
X124870000Y-112967000D01*
X124872000Y-112968000D01*
X124874000Y-112970000D01*
X124876000Y-112971000D01*
X124878000Y-112973000D01*
X124880000Y-112975000D01*
X124882000Y-112977000D01*
X124884000Y-112979000D01*
X124885000Y-112981000D01*
X124887000Y-112983000D01*
X124888000Y-112985000D01*
X124890000Y-112987000D01*
X124891000Y-112990000D01*
X124892000Y-112992000D01*
X124893000Y-112995000D01*
X124893000Y-112997000D01*
X124894000Y-113000000D01*
X124894000Y-113002000D01*
X124895000Y-113005000D01*
X124895000Y-113007000D01*
X124895000Y-113010000D01*
X124895000Y-113160000D01*
X124895000Y-113163000D01*
X124895000Y-113165000D01*
X124894000Y-113168000D01*
X124894000Y-113170000D01*
X124893000Y-113173000D01*
X124893000Y-113175000D01*
X124892000Y-113178000D01*
X124891000Y-113180000D01*
X124890000Y-113183000D01*
X124888000Y-113185000D01*
X124887000Y-113187000D01*
X124885000Y-113189000D01*
X124884000Y-113191000D01*
X124882000Y-113193000D01*
X124880000Y-113195000D01*
X124878000Y-113197000D01*
X124876000Y-113199000D01*
X124874000Y-113200000D01*
X124872000Y-113202000D01*
X124870000Y-113203000D01*
X124868000Y-113205000D01*
X124865000Y-113206000D01*
X124863000Y-113207000D01*
X124860000Y-113208000D01*
X124858000Y-113208000D01*
X124855000Y-113209000D01*
X124853000Y-113209000D01*
X124850000Y-113210000D01*
X124848000Y-113210000D01*
X124845000Y-113210000D01*
X124495000Y-113210000D01*
X124492000Y-113210000D01*
X124490000Y-113210000D01*
X124487000Y-113209000D01*
X124485000Y-113209000D01*
X124482000Y-113208000D01*
X124480000Y-113208000D01*
X124477000Y-113207000D01*
X124475000Y-113206000D01*
X124472000Y-113205000D01*
X124470000Y-113203000D01*
X124468000Y-113202000D01*
X124466000Y-113200000D01*
X124464000Y-113199000D01*
X124462000Y-113197000D01*
X124460000Y-113195000D01*
X124458000Y-113193000D01*
X124456000Y-113191000D01*
X124455000Y-113189000D01*
X124453000Y-113187000D01*
X124452000Y-113185000D01*
X124450000Y-113183000D01*
X124449000Y-113180000D01*
X124448000Y-113178000D01*
X124447000Y-113175000D01*
X124447000Y-113173000D01*
X124446000Y-113170000D01*
X124446000Y-113168000D01*
X124445000Y-113165000D01*
X124445000Y-113163000D01*
X124445000Y-113160000D01*
X124445000Y-113010000D01*
X124445000Y-113007000D01*
X124445000Y-113005000D01*
X124446000Y-113002000D01*
X124446000Y-113000000D01*
X124447000Y-112997000D01*
X124447000Y-112995000D01*
X124448000Y-112992000D01*
X124449000Y-112990000D01*
X124450000Y-112987000D01*
X124452000Y-112985000D01*
X124453000Y-112983000D01*
X124455000Y-112981000D01*
X124456000Y-112979000D01*
X124458000Y-112977000D01*
X124460000Y-112975000D01*
X124462000Y-112973000D01*
X124464000Y-112971000D01*
X124466000Y-112970000D01*
X124468000Y-112968000D01*
X124470000Y-112967000D01*
X124472000Y-112965000D01*
X124475000Y-112964000D01*
X124477000Y-112963000D01*
X124480000Y-112962000D01*
X124482000Y-112962000D01*
X124485000Y-112961000D01*
X124487000Y-112961000D01*
X124490000Y-112960000D01*
X124492000Y-112960000D01*
X124495000Y-112960000D01*
X124845000Y-112960000D01*
X124848000Y-112960000D01*
X124850000Y-112960000D01*
X124853000Y-112961000D01*
G36*
X124853000Y-112961000D02*
G01*
X124855000Y-112961000D01*
X124858000Y-112962000D01*
X124860000Y-112962000D01*
X124863000Y-112963000D01*
X124865000Y-112964000D01*
X124868000Y-112965000D01*
X124870000Y-112967000D01*
X124872000Y-112968000D01*
X124874000Y-112970000D01*
X124876000Y-112971000D01*
X124878000Y-112973000D01*
X124880000Y-112975000D01*
X124882000Y-112977000D01*
X124884000Y-112979000D01*
X124885000Y-112981000D01*
X124887000Y-112983000D01*
X124888000Y-112985000D01*
X124890000Y-112987000D01*
X124891000Y-112990000D01*
X124892000Y-112992000D01*
X124893000Y-112995000D01*
X124893000Y-112997000D01*
X124894000Y-113000000D01*
X124894000Y-113002000D01*
X124895000Y-113005000D01*
X124895000Y-113007000D01*
X124895000Y-113010000D01*
X124895000Y-113160000D01*
X124895000Y-113163000D01*
X124895000Y-113165000D01*
X124894000Y-113168000D01*
X124894000Y-113170000D01*
X124893000Y-113173000D01*
X124893000Y-113175000D01*
X124892000Y-113178000D01*
X124891000Y-113180000D01*
X124890000Y-113183000D01*
X124888000Y-113185000D01*
X124887000Y-113187000D01*
X124885000Y-113189000D01*
X124884000Y-113191000D01*
X124882000Y-113193000D01*
X124880000Y-113195000D01*
X124878000Y-113197000D01*
X124876000Y-113199000D01*
X124874000Y-113200000D01*
X124872000Y-113202000D01*
X124870000Y-113203000D01*
X124868000Y-113205000D01*
X124865000Y-113206000D01*
X124863000Y-113207000D01*
X124860000Y-113208000D01*
X124858000Y-113208000D01*
X124855000Y-113209000D01*
X124853000Y-113209000D01*
X124850000Y-113210000D01*
X124848000Y-113210000D01*
X124845000Y-113210000D01*
X124495000Y-113210000D01*
X124492000Y-113210000D01*
X124490000Y-113210000D01*
X124487000Y-113209000D01*
X124485000Y-113209000D01*
X124482000Y-113208000D01*
X124480000Y-113208000D01*
X124477000Y-113207000D01*
X124475000Y-113206000D01*
X124472000Y-113205000D01*
X124470000Y-113203000D01*
X124468000Y-113202000D01*
X124466000Y-113200000D01*
X124464000Y-113199000D01*
X124462000Y-113197000D01*
X124460000Y-113195000D01*
X124458000Y-113193000D01*
X124456000Y-113191000D01*
X124455000Y-113189000D01*
X124453000Y-113187000D01*
X124452000Y-113185000D01*
X124450000Y-113183000D01*
X124449000Y-113180000D01*
X124448000Y-113178000D01*
X124447000Y-113175000D01*
X124447000Y-113173000D01*
X124446000Y-113170000D01*
X124446000Y-113168000D01*
X124445000Y-113165000D01*
X124445000Y-113163000D01*
X124445000Y-113160000D01*
X124445000Y-113010000D01*
X124445000Y-113007000D01*
X124445000Y-113005000D01*
X124446000Y-113002000D01*
X124446000Y-113000000D01*
X124447000Y-112997000D01*
X124447000Y-112995000D01*
X124448000Y-112992000D01*
X124449000Y-112990000D01*
X124450000Y-112987000D01*
X124452000Y-112985000D01*
X124453000Y-112983000D01*
X124455000Y-112981000D01*
X124456000Y-112979000D01*
X124458000Y-112977000D01*
X124460000Y-112975000D01*
X124462000Y-112973000D01*
X124464000Y-112971000D01*
X124466000Y-112970000D01*
X124468000Y-112968000D01*
X124470000Y-112967000D01*
X124472000Y-112965000D01*
X124475000Y-112964000D01*
X124477000Y-112963000D01*
X124480000Y-112962000D01*
X124482000Y-112962000D01*
X124485000Y-112961000D01*
X124487000Y-112961000D01*
X124490000Y-112960000D01*
X124492000Y-112960000D01*
X124495000Y-112960000D01*
X124845000Y-112960000D01*
X124848000Y-112960000D01*
X124850000Y-112960000D01*
X124853000Y-112961000D01*
G37*
X122420000Y-114076000D02*
X122423000Y-114076000D01*
X122425000Y-114076000D01*
X122428000Y-114076000D01*
X122430000Y-114077000D01*
X122433000Y-114077000D01*
X122435000Y-114078000D01*
X122438000Y-114079000D01*
X122440000Y-114080000D01*
X122443000Y-114081000D01*
X122445000Y-114082000D01*
X122447000Y-114084000D01*
X122449000Y-114085000D01*
X122451000Y-114087000D01*
X122453000Y-114088000D01*
X122455000Y-114090000D01*
X122457000Y-114092000D01*
X122459000Y-114094000D01*
X122460000Y-114096000D01*
X122462000Y-114098000D01*
X122463000Y-114101000D01*
X122465000Y-114103000D01*
X122466000Y-114105000D01*
X122467000Y-114108000D01*
X122468000Y-114110000D01*
X122468000Y-114113000D01*
X122469000Y-114115000D01*
X122469000Y-114118000D01*
X122470000Y-114120000D01*
X122470000Y-114123000D01*
X122470000Y-114126000D01*
X122470000Y-114300000D01*
X122470000Y-114303000D01*
X122470000Y-114306000D01*
X122469000Y-114308000D01*
X122469000Y-114311000D01*
X122468000Y-114313000D01*
X122468000Y-114316000D01*
X122467000Y-114318000D01*
X122466000Y-114321000D01*
X122465000Y-114323000D01*
X122463000Y-114326000D01*
X122462000Y-114328000D01*
X122460000Y-114330000D01*
X122459000Y-114332000D01*
X122457000Y-114334000D01*
X122455000Y-114336000D01*
X122453000Y-114338000D01*
X122451000Y-114339000D01*
X122449000Y-114341000D01*
X122447000Y-114342000D01*
X122445000Y-114344000D01*
X122443000Y-114345000D01*
X122440000Y-114346000D01*
X122438000Y-114347000D01*
X122435000Y-114348000D01*
X122433000Y-114349000D01*
X122430000Y-114349000D01*
X122428000Y-114350000D01*
X122425000Y-114350000D01*
X122423000Y-114350000D01*
X122420000Y-114351000D01*
X121245000Y-114351000D01*
X121242000Y-114350000D01*
X121240000Y-114350000D01*
X121237000Y-114350000D01*
X121235000Y-114349000D01*
X121232000Y-114349000D01*
X121230000Y-114348000D01*
X121227000Y-114347000D01*
X121225000Y-114346000D01*
X121222000Y-114345000D01*
X121220000Y-114344000D01*
X121218000Y-114342000D01*
X121216000Y-114341000D01*
X121214000Y-114339000D01*
X121212000Y-114338000D01*
X121210000Y-114336000D01*
X121208000Y-114334000D01*
X121206000Y-114332000D01*
X121205000Y-114330000D01*
X121203000Y-114328000D01*
X121202000Y-114326000D01*
X121200000Y-114323000D01*
X121199000Y-114321000D01*
X121198000Y-114318000D01*
X121197000Y-114316000D01*
X121197000Y-114313000D01*
X121196000Y-114311000D01*
X121196000Y-114308000D01*
X121195000Y-114306000D01*
X121195000Y-114303000D01*
X121195000Y-114300000D01*
X121195000Y-114126000D01*
X121195000Y-114123000D01*
X121195000Y-114120000D01*
X121196000Y-114118000D01*
X121196000Y-114115000D01*
X121197000Y-114113000D01*
X121197000Y-114110000D01*
X121198000Y-114108000D01*
X121199000Y-114105000D01*
X121200000Y-114103000D01*
X121202000Y-114101000D01*
X121203000Y-114098000D01*
X121205000Y-114096000D01*
X121206000Y-114094000D01*
X121208000Y-114092000D01*
X121210000Y-114090000D01*
X121212000Y-114088000D01*
X121214000Y-114087000D01*
X121216000Y-114085000D01*
X121218000Y-114084000D01*
X121220000Y-114082000D01*
X121222000Y-114081000D01*
X121225000Y-114080000D01*
X121227000Y-114079000D01*
X121230000Y-114078000D01*
X121232000Y-114077000D01*
X121235000Y-114077000D01*
X121237000Y-114076000D01*
X121240000Y-114076000D01*
X121242000Y-114076000D01*
X121245000Y-114076000D01*
X121245000Y-114075500D01*
X122420000Y-114076000D01*
G36*
X122420000Y-114076000D02*
G01*
X122423000Y-114076000D01*
X122425000Y-114076000D01*
X122428000Y-114076000D01*
X122430000Y-114077000D01*
X122433000Y-114077000D01*
X122435000Y-114078000D01*
X122438000Y-114079000D01*
X122440000Y-114080000D01*
X122443000Y-114081000D01*
X122445000Y-114082000D01*
X122447000Y-114084000D01*
X122449000Y-114085000D01*
X122451000Y-114087000D01*
X122453000Y-114088000D01*
X122455000Y-114090000D01*
X122457000Y-114092000D01*
X122459000Y-114094000D01*
X122460000Y-114096000D01*
X122462000Y-114098000D01*
X122463000Y-114101000D01*
X122465000Y-114103000D01*
X122466000Y-114105000D01*
X122467000Y-114108000D01*
X122468000Y-114110000D01*
X122468000Y-114113000D01*
X122469000Y-114115000D01*
X122469000Y-114118000D01*
X122470000Y-114120000D01*
X122470000Y-114123000D01*
X122470000Y-114126000D01*
X122470000Y-114300000D01*
X122470000Y-114303000D01*
X122470000Y-114306000D01*
X122469000Y-114308000D01*
X122469000Y-114311000D01*
X122468000Y-114313000D01*
X122468000Y-114316000D01*
X122467000Y-114318000D01*
X122466000Y-114321000D01*
X122465000Y-114323000D01*
X122463000Y-114326000D01*
X122462000Y-114328000D01*
X122460000Y-114330000D01*
X122459000Y-114332000D01*
X122457000Y-114334000D01*
X122455000Y-114336000D01*
X122453000Y-114338000D01*
X122451000Y-114339000D01*
X122449000Y-114341000D01*
X122447000Y-114342000D01*
X122445000Y-114344000D01*
X122443000Y-114345000D01*
X122440000Y-114346000D01*
X122438000Y-114347000D01*
X122435000Y-114348000D01*
X122433000Y-114349000D01*
X122430000Y-114349000D01*
X122428000Y-114350000D01*
X122425000Y-114350000D01*
X122423000Y-114350000D01*
X122420000Y-114351000D01*
X121245000Y-114351000D01*
X121242000Y-114350000D01*
X121240000Y-114350000D01*
X121237000Y-114350000D01*
X121235000Y-114349000D01*
X121232000Y-114349000D01*
X121230000Y-114348000D01*
X121227000Y-114347000D01*
X121225000Y-114346000D01*
X121222000Y-114345000D01*
X121220000Y-114344000D01*
X121218000Y-114342000D01*
X121216000Y-114341000D01*
X121214000Y-114339000D01*
X121212000Y-114338000D01*
X121210000Y-114336000D01*
X121208000Y-114334000D01*
X121206000Y-114332000D01*
X121205000Y-114330000D01*
X121203000Y-114328000D01*
X121202000Y-114326000D01*
X121200000Y-114323000D01*
X121199000Y-114321000D01*
X121198000Y-114318000D01*
X121197000Y-114316000D01*
X121197000Y-114313000D01*
X121196000Y-114311000D01*
X121196000Y-114308000D01*
X121195000Y-114306000D01*
X121195000Y-114303000D01*
X121195000Y-114300000D01*
X121195000Y-114126000D01*
X121195000Y-114123000D01*
X121195000Y-114120000D01*
X121196000Y-114118000D01*
X121196000Y-114115000D01*
X121197000Y-114113000D01*
X121197000Y-114110000D01*
X121198000Y-114108000D01*
X121199000Y-114105000D01*
X121200000Y-114103000D01*
X121202000Y-114101000D01*
X121203000Y-114098000D01*
X121205000Y-114096000D01*
X121206000Y-114094000D01*
X121208000Y-114092000D01*
X121210000Y-114090000D01*
X121212000Y-114088000D01*
X121214000Y-114087000D01*
X121216000Y-114085000D01*
X121218000Y-114084000D01*
X121220000Y-114082000D01*
X121222000Y-114081000D01*
X121225000Y-114080000D01*
X121227000Y-114079000D01*
X121230000Y-114078000D01*
X121232000Y-114077000D01*
X121235000Y-114077000D01*
X121237000Y-114076000D01*
X121240000Y-114076000D01*
X121242000Y-114076000D01*
X121245000Y-114076000D01*
X121245000Y-114075500D01*
X122420000Y-114076000D01*
G37*
X122520000Y-111728000D02*
X122522000Y-111728000D01*
X122525000Y-111728000D01*
X122527000Y-111728000D01*
X122530000Y-111729000D01*
X122532000Y-111729000D01*
X122535000Y-111730000D01*
X122537000Y-111731000D01*
X122540000Y-111732000D01*
X122542000Y-111733000D01*
X122545000Y-111734000D01*
X122547000Y-111736000D01*
X122549000Y-111737000D01*
X122551000Y-111739000D01*
X122553000Y-111740000D01*
X122555000Y-111742000D01*
X122557000Y-111744000D01*
X122558000Y-111746000D01*
X122560000Y-111748000D01*
X122561000Y-111750000D01*
X122563000Y-111752000D01*
X122564000Y-111755000D01*
X122565000Y-111757000D01*
X122566000Y-111760000D01*
X122567000Y-111762000D01*
X122568000Y-111765000D01*
X122568000Y-111767000D01*
X122569000Y-111770000D01*
X122569000Y-111772000D01*
X122569000Y-111775000D01*
X122570000Y-111778000D01*
X122570000Y-113547000D01*
X122569000Y-113550000D01*
X122569000Y-113553000D01*
X122569000Y-113555000D01*
X122568000Y-113558000D01*
X122568000Y-113560000D01*
X122567000Y-113563000D01*
X122566000Y-113565000D01*
X122565000Y-113568000D01*
X122564000Y-113570000D01*
X122563000Y-113573000D01*
X122561000Y-113575000D01*
X122560000Y-113577000D01*
X122558000Y-113579000D01*
X122557000Y-113581000D01*
X122555000Y-113583000D01*
X122553000Y-113585000D01*
X122551000Y-113586000D01*
X122549000Y-113588000D01*
X122547000Y-113589000D01*
X122545000Y-113591000D01*
X122542000Y-113592000D01*
X122540000Y-113593000D01*
X122537000Y-113594000D01*
X122535000Y-113595000D01*
X122532000Y-113596000D01*
X122530000Y-113596000D01*
X122527000Y-113597000D01*
X122525000Y-113597000D01*
X122522000Y-113597000D01*
X122520000Y-113598000D01*
X121894000Y-113598000D01*
X121892000Y-113597000D01*
X121889000Y-113597000D01*
X121887000Y-113597000D01*
X121884000Y-113596000D01*
X121882000Y-113596000D01*
X121879000Y-113595000D01*
X121877000Y-113594000D01*
X121874000Y-113593000D01*
X121872000Y-113592000D01*
X121870000Y-113591000D01*
X121867000Y-113589000D01*
X121865000Y-113588000D01*
X121863000Y-113586000D01*
X121861000Y-113585000D01*
X121859000Y-113583000D01*
X121857000Y-113581000D01*
X121856000Y-113579000D01*
X121854000Y-113577000D01*
X121853000Y-113575000D01*
X121851000Y-113573000D01*
X121850000Y-113570000D01*
X121849000Y-113568000D01*
X121848000Y-113565000D01*
X121847000Y-113563000D01*
X121846000Y-113560000D01*
X121846000Y-113558000D01*
X121845000Y-113555000D01*
X121845000Y-113553000D01*
X121845000Y-113550000D01*
X121845000Y-113547000D01*
X121845000Y-111778000D01*
X121845000Y-111775000D01*
X121845000Y-111772000D01*
X121845000Y-111770000D01*
X121846000Y-111767000D01*
X121846000Y-111765000D01*
X121847000Y-111762000D01*
X121848000Y-111760000D01*
X121849000Y-111757000D01*
X121850000Y-111755000D01*
X121851000Y-111752000D01*
X121853000Y-111750000D01*
X121854000Y-111748000D01*
X121856000Y-111746000D01*
X121857000Y-111744000D01*
X121859000Y-111742000D01*
X121861000Y-111740000D01*
X121863000Y-111739000D01*
X121865000Y-111737000D01*
X121867000Y-111736000D01*
X121870000Y-111734000D01*
X121872000Y-111733000D01*
X121874000Y-111732000D01*
X121877000Y-111731000D01*
X121879000Y-111730000D01*
X121882000Y-111729000D01*
X121884000Y-111729000D01*
X121887000Y-111728000D01*
X121889000Y-111728000D01*
X121892000Y-111728000D01*
X121894000Y-111728000D01*
X121894500Y-111727500D01*
X122520000Y-111728000D01*
G36*
X122520000Y-111728000D02*
G01*
X122522000Y-111728000D01*
X122525000Y-111728000D01*
X122527000Y-111728000D01*
X122530000Y-111729000D01*
X122532000Y-111729000D01*
X122535000Y-111730000D01*
X122537000Y-111731000D01*
X122540000Y-111732000D01*
X122542000Y-111733000D01*
X122545000Y-111734000D01*
X122547000Y-111736000D01*
X122549000Y-111737000D01*
X122551000Y-111739000D01*
X122553000Y-111740000D01*
X122555000Y-111742000D01*
X122557000Y-111744000D01*
X122558000Y-111746000D01*
X122560000Y-111748000D01*
X122561000Y-111750000D01*
X122563000Y-111752000D01*
X122564000Y-111755000D01*
X122565000Y-111757000D01*
X122566000Y-111760000D01*
X122567000Y-111762000D01*
X122568000Y-111765000D01*
X122568000Y-111767000D01*
X122569000Y-111770000D01*
X122569000Y-111772000D01*
X122569000Y-111775000D01*
X122570000Y-111778000D01*
X122570000Y-113547000D01*
X122569000Y-113550000D01*
X122569000Y-113553000D01*
X122569000Y-113555000D01*
X122568000Y-113558000D01*
X122568000Y-113560000D01*
X122567000Y-113563000D01*
X122566000Y-113565000D01*
X122565000Y-113568000D01*
X122564000Y-113570000D01*
X122563000Y-113573000D01*
X122561000Y-113575000D01*
X122560000Y-113577000D01*
X122558000Y-113579000D01*
X122557000Y-113581000D01*
X122555000Y-113583000D01*
X122553000Y-113585000D01*
X122551000Y-113586000D01*
X122549000Y-113588000D01*
X122547000Y-113589000D01*
X122545000Y-113591000D01*
X122542000Y-113592000D01*
X122540000Y-113593000D01*
X122537000Y-113594000D01*
X122535000Y-113595000D01*
X122532000Y-113596000D01*
X122530000Y-113596000D01*
X122527000Y-113597000D01*
X122525000Y-113597000D01*
X122522000Y-113597000D01*
X122520000Y-113598000D01*
X121894000Y-113598000D01*
X121892000Y-113597000D01*
X121889000Y-113597000D01*
X121887000Y-113597000D01*
X121884000Y-113596000D01*
X121882000Y-113596000D01*
X121879000Y-113595000D01*
X121877000Y-113594000D01*
X121874000Y-113593000D01*
X121872000Y-113592000D01*
X121870000Y-113591000D01*
X121867000Y-113589000D01*
X121865000Y-113588000D01*
X121863000Y-113586000D01*
X121861000Y-113585000D01*
X121859000Y-113583000D01*
X121857000Y-113581000D01*
X121856000Y-113579000D01*
X121854000Y-113577000D01*
X121853000Y-113575000D01*
X121851000Y-113573000D01*
X121850000Y-113570000D01*
X121849000Y-113568000D01*
X121848000Y-113565000D01*
X121847000Y-113563000D01*
X121846000Y-113560000D01*
X121846000Y-113558000D01*
X121845000Y-113555000D01*
X121845000Y-113553000D01*
X121845000Y-113550000D01*
X121845000Y-113547000D01*
X121845000Y-111778000D01*
X121845000Y-111775000D01*
X121845000Y-111772000D01*
X121845000Y-111770000D01*
X121846000Y-111767000D01*
X121846000Y-111765000D01*
X121847000Y-111762000D01*
X121848000Y-111760000D01*
X121849000Y-111757000D01*
X121850000Y-111755000D01*
X121851000Y-111752000D01*
X121853000Y-111750000D01*
X121854000Y-111748000D01*
X121856000Y-111746000D01*
X121857000Y-111744000D01*
X121859000Y-111742000D01*
X121861000Y-111740000D01*
X121863000Y-111739000D01*
X121865000Y-111737000D01*
X121867000Y-111736000D01*
X121870000Y-111734000D01*
X121872000Y-111733000D01*
X121874000Y-111732000D01*
X121877000Y-111731000D01*
X121879000Y-111730000D01*
X121882000Y-111729000D01*
X121884000Y-111729000D01*
X121887000Y-111728000D01*
X121889000Y-111728000D01*
X121892000Y-111728000D01*
X121894000Y-111728000D01*
X121894500Y-111727500D01*
X122520000Y-111728000D01*
G37*
X124196000Y-111728000D02*
X124198000Y-111728000D01*
X124201000Y-111728000D01*
X124203000Y-111728000D01*
X124206000Y-111729000D01*
X124208000Y-111729000D01*
X124211000Y-111730000D01*
X124213000Y-111731000D01*
X124216000Y-111732000D01*
X124218000Y-111733000D01*
X124220000Y-111734000D01*
X124223000Y-111736000D01*
X124225000Y-111737000D01*
X124227000Y-111739000D01*
X124229000Y-111740000D01*
X124231000Y-111742000D01*
X124233000Y-111744000D01*
X124234000Y-111746000D01*
X124236000Y-111748000D01*
X124237000Y-111750000D01*
X124239000Y-111752000D01*
X124240000Y-111755000D01*
X124241000Y-111757000D01*
X124242000Y-111760000D01*
X124243000Y-111762000D01*
X124244000Y-111765000D01*
X124244000Y-111767000D01*
X124245000Y-111770000D01*
X124245000Y-111772000D01*
X124245000Y-111775000D01*
X124245000Y-111778000D01*
X124245000Y-113547000D01*
X124245000Y-113550000D01*
X124245000Y-113553000D01*
X124245000Y-113555000D01*
X124244000Y-113558000D01*
X124244000Y-113560000D01*
X124243000Y-113563000D01*
X124242000Y-113565000D01*
X124241000Y-113568000D01*
X124240000Y-113570000D01*
X124239000Y-113573000D01*
X124237000Y-113575000D01*
X124236000Y-113577000D01*
X124234000Y-113579000D01*
X124233000Y-113581000D01*
X124231000Y-113583000D01*
X124229000Y-113585000D01*
X124227000Y-113586000D01*
X124225000Y-113588000D01*
X124223000Y-113589000D01*
X124220000Y-113591000D01*
X124218000Y-113592000D01*
X124216000Y-113593000D01*
X124213000Y-113594000D01*
X124211000Y-113595000D01*
X124208000Y-113596000D01*
X124206000Y-113596000D01*
X124203000Y-113597000D01*
X124201000Y-113597000D01*
X124198000Y-113597000D01*
X124196000Y-113598000D01*
X123570000Y-113598000D01*
X123568000Y-113597000D01*
X123565000Y-113597000D01*
X123563000Y-113597000D01*
X123560000Y-113596000D01*
X123558000Y-113596000D01*
X123555000Y-113595000D01*
X123553000Y-113594000D01*
X123550000Y-113593000D01*
X123548000Y-113592000D01*
X123545000Y-113591000D01*
X123543000Y-113589000D01*
X123541000Y-113588000D01*
X123539000Y-113586000D01*
X123537000Y-113585000D01*
X123535000Y-113583000D01*
X123533000Y-113581000D01*
X123532000Y-113579000D01*
X123530000Y-113577000D01*
X123529000Y-113575000D01*
X123527000Y-113573000D01*
X123526000Y-113570000D01*
X123525000Y-113568000D01*
X123524000Y-113565000D01*
X123523000Y-113563000D01*
X123522000Y-113560000D01*
X123522000Y-113558000D01*
X123521000Y-113555000D01*
X123521000Y-113553000D01*
X123521000Y-113550000D01*
X123520000Y-113547000D01*
X123520000Y-111778000D01*
X123521000Y-111775000D01*
X123521000Y-111772000D01*
X123521000Y-111770000D01*
X123522000Y-111767000D01*
X123522000Y-111765000D01*
X123523000Y-111762000D01*
X123524000Y-111760000D01*
X123525000Y-111757000D01*
X123526000Y-111755000D01*
X123527000Y-111752000D01*
X123529000Y-111750000D01*
X123530000Y-111748000D01*
X123532000Y-111746000D01*
X123533000Y-111744000D01*
X123535000Y-111742000D01*
X123537000Y-111740000D01*
X123539000Y-111739000D01*
X123541000Y-111737000D01*
X123543000Y-111736000D01*
X123545000Y-111734000D01*
X123548000Y-111733000D01*
X123550000Y-111732000D01*
X123553000Y-111731000D01*
X123555000Y-111730000D01*
X123558000Y-111729000D01*
X123560000Y-111729000D01*
X123563000Y-111728000D01*
X123565000Y-111728000D01*
X123568000Y-111728000D01*
X123570000Y-111728000D01*
X124195500Y-111727500D01*
X124196000Y-111728000D01*
G36*
X124196000Y-111728000D02*
G01*
X124198000Y-111728000D01*
X124201000Y-111728000D01*
X124203000Y-111728000D01*
X124206000Y-111729000D01*
X124208000Y-111729000D01*
X124211000Y-111730000D01*
X124213000Y-111731000D01*
X124216000Y-111732000D01*
X124218000Y-111733000D01*
X124220000Y-111734000D01*
X124223000Y-111736000D01*
X124225000Y-111737000D01*
X124227000Y-111739000D01*
X124229000Y-111740000D01*
X124231000Y-111742000D01*
X124233000Y-111744000D01*
X124234000Y-111746000D01*
X124236000Y-111748000D01*
X124237000Y-111750000D01*
X124239000Y-111752000D01*
X124240000Y-111755000D01*
X124241000Y-111757000D01*
X124242000Y-111760000D01*
X124243000Y-111762000D01*
X124244000Y-111765000D01*
X124244000Y-111767000D01*
X124245000Y-111770000D01*
X124245000Y-111772000D01*
X124245000Y-111775000D01*
X124245000Y-111778000D01*
X124245000Y-113547000D01*
X124245000Y-113550000D01*
X124245000Y-113553000D01*
X124245000Y-113555000D01*
X124244000Y-113558000D01*
X124244000Y-113560000D01*
X124243000Y-113563000D01*
X124242000Y-113565000D01*
X124241000Y-113568000D01*
X124240000Y-113570000D01*
X124239000Y-113573000D01*
X124237000Y-113575000D01*
X124236000Y-113577000D01*
X124234000Y-113579000D01*
X124233000Y-113581000D01*
X124231000Y-113583000D01*
X124229000Y-113585000D01*
X124227000Y-113586000D01*
X124225000Y-113588000D01*
X124223000Y-113589000D01*
X124220000Y-113591000D01*
X124218000Y-113592000D01*
X124216000Y-113593000D01*
X124213000Y-113594000D01*
X124211000Y-113595000D01*
X124208000Y-113596000D01*
X124206000Y-113596000D01*
X124203000Y-113597000D01*
X124201000Y-113597000D01*
X124198000Y-113597000D01*
X124196000Y-113598000D01*
X123570000Y-113598000D01*
X123568000Y-113597000D01*
X123565000Y-113597000D01*
X123563000Y-113597000D01*
X123560000Y-113596000D01*
X123558000Y-113596000D01*
X123555000Y-113595000D01*
X123553000Y-113594000D01*
X123550000Y-113593000D01*
X123548000Y-113592000D01*
X123545000Y-113591000D01*
X123543000Y-113589000D01*
X123541000Y-113588000D01*
X123539000Y-113586000D01*
X123537000Y-113585000D01*
X123535000Y-113583000D01*
X123533000Y-113581000D01*
X123532000Y-113579000D01*
X123530000Y-113577000D01*
X123529000Y-113575000D01*
X123527000Y-113573000D01*
X123526000Y-113570000D01*
X123525000Y-113568000D01*
X123524000Y-113565000D01*
X123523000Y-113563000D01*
X123522000Y-113560000D01*
X123522000Y-113558000D01*
X123521000Y-113555000D01*
X123521000Y-113553000D01*
X123521000Y-113550000D01*
X123520000Y-113547000D01*
X123520000Y-111778000D01*
X123521000Y-111775000D01*
X123521000Y-111772000D01*
X123521000Y-111770000D01*
X123522000Y-111767000D01*
X123522000Y-111765000D01*
X123523000Y-111762000D01*
X123524000Y-111760000D01*
X123525000Y-111757000D01*
X123526000Y-111755000D01*
X123527000Y-111752000D01*
X123529000Y-111750000D01*
X123530000Y-111748000D01*
X123532000Y-111746000D01*
X123533000Y-111744000D01*
X123535000Y-111742000D01*
X123537000Y-111740000D01*
X123539000Y-111739000D01*
X123541000Y-111737000D01*
X123543000Y-111736000D01*
X123545000Y-111734000D01*
X123548000Y-111733000D01*
X123550000Y-111732000D01*
X123553000Y-111731000D01*
X123555000Y-111730000D01*
X123558000Y-111729000D01*
X123560000Y-111729000D01*
X123563000Y-111728000D01*
X123565000Y-111728000D01*
X123568000Y-111728000D01*
X123570000Y-111728000D01*
X124195500Y-111727500D01*
X124196000Y-111728000D01*
G37*
X122378000Y-115601000D02*
X122380000Y-115601000D01*
X122383000Y-115602000D01*
X122385000Y-115602000D01*
X122388000Y-115603000D01*
X122390000Y-115604000D01*
X122393000Y-115605000D01*
X122395000Y-115607000D01*
X122397000Y-115608000D01*
X122399000Y-115610000D01*
X122401000Y-115611000D01*
X122403000Y-115613000D01*
X122405000Y-115615000D01*
X122407000Y-115617000D01*
X122409000Y-115619000D01*
X122410000Y-115621000D01*
X122412000Y-115623000D01*
X122413000Y-115625000D01*
X122415000Y-115627000D01*
X122416000Y-115630000D01*
X122417000Y-115632000D01*
X122418000Y-115635000D01*
X122418000Y-115637000D01*
X122419000Y-115640000D01*
X122419000Y-115642000D01*
X122420000Y-115645000D01*
X122420000Y-115647000D01*
X122420000Y-115650000D01*
X122420000Y-116150000D01*
X122420000Y-116153000D01*
X122420000Y-116155000D01*
X122419000Y-116158000D01*
X122419000Y-116160000D01*
X122418000Y-116163000D01*
X122418000Y-116165000D01*
X122417000Y-116168000D01*
X122416000Y-116170000D01*
X122415000Y-116173000D01*
X122413000Y-116175000D01*
X122412000Y-116177000D01*
X122410000Y-116179000D01*
X122409000Y-116181000D01*
X122407000Y-116183000D01*
X122405000Y-116185000D01*
X122403000Y-116187000D01*
X122401000Y-116189000D01*
X122399000Y-116190000D01*
X122397000Y-116192000D01*
X122395000Y-116193000D01*
X122393000Y-116195000D01*
X122390000Y-116196000D01*
X122388000Y-116197000D01*
X122385000Y-116198000D01*
X122383000Y-116198000D01*
X122380000Y-116199000D01*
X122378000Y-116199000D01*
X122375000Y-116200000D01*
X122373000Y-116200000D01*
X122370000Y-116200000D01*
X122120000Y-116200000D01*
X122117000Y-116200000D01*
X122115000Y-116200000D01*
X122112000Y-116199000D01*
X122110000Y-116199000D01*
X122107000Y-116198000D01*
X122105000Y-116198000D01*
X122102000Y-116197000D01*
X122100000Y-116196000D01*
X122097000Y-116195000D01*
X122095000Y-116193000D01*
X122093000Y-116192000D01*
X122091000Y-116190000D01*
X122089000Y-116189000D01*
X122087000Y-116187000D01*
X122085000Y-116185000D01*
X122083000Y-116183000D01*
X122081000Y-116181000D01*
X122080000Y-116179000D01*
X122078000Y-116177000D01*
X122077000Y-116175000D01*
X122075000Y-116173000D01*
X122074000Y-116170000D01*
X122073000Y-116168000D01*
X122072000Y-116165000D01*
X122072000Y-116163000D01*
X122071000Y-116160000D01*
X122071000Y-116158000D01*
X122070000Y-116155000D01*
X122070000Y-116153000D01*
X122070000Y-116150000D01*
X122070000Y-115950000D01*
X122070000Y-115945000D01*
X122069000Y-115940000D01*
X122069000Y-115934000D01*
X122068000Y-115929000D01*
X122067000Y-115924000D01*
X122065000Y-115919000D01*
X122063000Y-115914000D01*
X122061000Y-115909000D01*
X122059000Y-115905000D01*
X122057000Y-115900000D01*
X122054000Y-115896000D01*
X122051000Y-115891000D01*
X122048000Y-115887000D01*
X122044000Y-115883000D01*
X122041000Y-115879000D01*
X122037000Y-115876000D01*
X122033000Y-115872000D01*
X122029000Y-115869000D01*
X122024000Y-115866000D01*
X122020000Y-115863000D01*
X122015000Y-115861000D01*
X122011000Y-115859000D01*
X122006000Y-115857000D01*
X122001000Y-115855000D01*
X121996000Y-115853000D01*
X121991000Y-115852000D01*
X121986000Y-115851000D01*
X121980000Y-115851000D01*
X121975000Y-115850000D01*
X121970000Y-115850000D01*
X121245000Y-115850000D01*
X121242000Y-115850000D01*
X121240000Y-115850000D01*
X121237000Y-115849000D01*
X121235000Y-115849000D01*
X121232000Y-115848000D01*
X121230000Y-115848000D01*
X121227000Y-115847000D01*
X121225000Y-115846000D01*
X121222000Y-115845000D01*
X121220000Y-115843000D01*
X121218000Y-115842000D01*
X121216000Y-115840000D01*
X121214000Y-115839000D01*
X121212000Y-115837000D01*
X121210000Y-115835000D01*
X121208000Y-115833000D01*
X121206000Y-115831000D01*
X121205000Y-115829000D01*
X121203000Y-115827000D01*
X121202000Y-115825000D01*
X121200000Y-115823000D01*
X121199000Y-115820000D01*
X121198000Y-115818000D01*
X121197000Y-115815000D01*
X121197000Y-115813000D01*
X121196000Y-115810000D01*
X121196000Y-115808000D01*
X121195000Y-115805000D01*
X121195000Y-115803000D01*
X121195000Y-115800000D01*
X121195000Y-115650000D01*
X121195000Y-115647000D01*
X121195000Y-115645000D01*
X121196000Y-115642000D01*
X121196000Y-115640000D01*
X121197000Y-115637000D01*
X121197000Y-115635000D01*
X121198000Y-115632000D01*
X121199000Y-115630000D01*
X121200000Y-115627000D01*
X121202000Y-115625000D01*
X121203000Y-115623000D01*
X121205000Y-115621000D01*
X121206000Y-115619000D01*
X121208000Y-115617000D01*
X121210000Y-115615000D01*
X121212000Y-115613000D01*
X121214000Y-115611000D01*
X121216000Y-115610000D01*
X121218000Y-115608000D01*
X121220000Y-115607000D01*
X121222000Y-115605000D01*
X121225000Y-115604000D01*
X121227000Y-115603000D01*
X121230000Y-115602000D01*
X121232000Y-115602000D01*
X121235000Y-115601000D01*
X121237000Y-115601000D01*
X121240000Y-115600000D01*
X121242000Y-115600000D01*
X121245000Y-115600000D01*
X122370000Y-115600000D01*
X122373000Y-115600000D01*
X122375000Y-115600000D01*
X122378000Y-115601000D01*
G36*
X122378000Y-115601000D02*
G01*
X122380000Y-115601000D01*
X122383000Y-115602000D01*
X122385000Y-115602000D01*
X122388000Y-115603000D01*
X122390000Y-115604000D01*
X122393000Y-115605000D01*
X122395000Y-115607000D01*
X122397000Y-115608000D01*
X122399000Y-115610000D01*
X122401000Y-115611000D01*
X122403000Y-115613000D01*
X122405000Y-115615000D01*
X122407000Y-115617000D01*
X122409000Y-115619000D01*
X122410000Y-115621000D01*
X122412000Y-115623000D01*
X122413000Y-115625000D01*
X122415000Y-115627000D01*
X122416000Y-115630000D01*
X122417000Y-115632000D01*
X122418000Y-115635000D01*
X122418000Y-115637000D01*
X122419000Y-115640000D01*
X122419000Y-115642000D01*
X122420000Y-115645000D01*
X122420000Y-115647000D01*
X122420000Y-115650000D01*
X122420000Y-116150000D01*
X122420000Y-116153000D01*
X122420000Y-116155000D01*
X122419000Y-116158000D01*
X122419000Y-116160000D01*
X122418000Y-116163000D01*
X122418000Y-116165000D01*
X122417000Y-116168000D01*
X122416000Y-116170000D01*
X122415000Y-116173000D01*
X122413000Y-116175000D01*
X122412000Y-116177000D01*
X122410000Y-116179000D01*
X122409000Y-116181000D01*
X122407000Y-116183000D01*
X122405000Y-116185000D01*
X122403000Y-116187000D01*
X122401000Y-116189000D01*
X122399000Y-116190000D01*
X122397000Y-116192000D01*
X122395000Y-116193000D01*
X122393000Y-116195000D01*
X122390000Y-116196000D01*
X122388000Y-116197000D01*
X122385000Y-116198000D01*
X122383000Y-116198000D01*
X122380000Y-116199000D01*
X122378000Y-116199000D01*
X122375000Y-116200000D01*
X122373000Y-116200000D01*
X122370000Y-116200000D01*
X122120000Y-116200000D01*
X122117000Y-116200000D01*
X122115000Y-116200000D01*
X122112000Y-116199000D01*
X122110000Y-116199000D01*
X122107000Y-116198000D01*
X122105000Y-116198000D01*
X122102000Y-116197000D01*
X122100000Y-116196000D01*
X122097000Y-116195000D01*
X122095000Y-116193000D01*
X122093000Y-116192000D01*
X122091000Y-116190000D01*
X122089000Y-116189000D01*
X122087000Y-116187000D01*
X122085000Y-116185000D01*
X122083000Y-116183000D01*
X122081000Y-116181000D01*
X122080000Y-116179000D01*
X122078000Y-116177000D01*
X122077000Y-116175000D01*
X122075000Y-116173000D01*
X122074000Y-116170000D01*
X122073000Y-116168000D01*
X122072000Y-116165000D01*
X122072000Y-116163000D01*
X122071000Y-116160000D01*
X122071000Y-116158000D01*
X122070000Y-116155000D01*
X122070000Y-116153000D01*
X122070000Y-116150000D01*
X122070000Y-115950000D01*
X122070000Y-115945000D01*
X122069000Y-115940000D01*
X122069000Y-115934000D01*
X122068000Y-115929000D01*
X122067000Y-115924000D01*
X122065000Y-115919000D01*
X122063000Y-115914000D01*
X122061000Y-115909000D01*
X122059000Y-115905000D01*
X122057000Y-115900000D01*
X122054000Y-115896000D01*
X122051000Y-115891000D01*
X122048000Y-115887000D01*
X122044000Y-115883000D01*
X122041000Y-115879000D01*
X122037000Y-115876000D01*
X122033000Y-115872000D01*
X122029000Y-115869000D01*
X122024000Y-115866000D01*
X122020000Y-115863000D01*
X122015000Y-115861000D01*
X122011000Y-115859000D01*
X122006000Y-115857000D01*
X122001000Y-115855000D01*
X121996000Y-115853000D01*
X121991000Y-115852000D01*
X121986000Y-115851000D01*
X121980000Y-115851000D01*
X121975000Y-115850000D01*
X121970000Y-115850000D01*
X121245000Y-115850000D01*
X121242000Y-115850000D01*
X121240000Y-115850000D01*
X121237000Y-115849000D01*
X121235000Y-115849000D01*
X121232000Y-115848000D01*
X121230000Y-115848000D01*
X121227000Y-115847000D01*
X121225000Y-115846000D01*
X121222000Y-115845000D01*
X121220000Y-115843000D01*
X121218000Y-115842000D01*
X121216000Y-115840000D01*
X121214000Y-115839000D01*
X121212000Y-115837000D01*
X121210000Y-115835000D01*
X121208000Y-115833000D01*
X121206000Y-115831000D01*
X121205000Y-115829000D01*
X121203000Y-115827000D01*
X121202000Y-115825000D01*
X121200000Y-115823000D01*
X121199000Y-115820000D01*
X121198000Y-115818000D01*
X121197000Y-115815000D01*
X121197000Y-115813000D01*
X121196000Y-115810000D01*
X121196000Y-115808000D01*
X121195000Y-115805000D01*
X121195000Y-115803000D01*
X121195000Y-115800000D01*
X121195000Y-115650000D01*
X121195000Y-115647000D01*
X121195000Y-115645000D01*
X121196000Y-115642000D01*
X121196000Y-115640000D01*
X121197000Y-115637000D01*
X121197000Y-115635000D01*
X121198000Y-115632000D01*
X121199000Y-115630000D01*
X121200000Y-115627000D01*
X121202000Y-115625000D01*
X121203000Y-115623000D01*
X121205000Y-115621000D01*
X121206000Y-115619000D01*
X121208000Y-115617000D01*
X121210000Y-115615000D01*
X121212000Y-115613000D01*
X121214000Y-115611000D01*
X121216000Y-115610000D01*
X121218000Y-115608000D01*
X121220000Y-115607000D01*
X121222000Y-115605000D01*
X121225000Y-115604000D01*
X121227000Y-115603000D01*
X121230000Y-115602000D01*
X121232000Y-115602000D01*
X121235000Y-115601000D01*
X121237000Y-115601000D01*
X121240000Y-115600000D01*
X121242000Y-115600000D01*
X121245000Y-115600000D01*
X122370000Y-115600000D01*
X122373000Y-115600000D01*
X122375000Y-115600000D01*
X122378000Y-115601000D01*
G37*
X124853000Y-115601000D02*
X124855000Y-115601000D01*
X124858000Y-115602000D01*
X124860000Y-115602000D01*
X124863000Y-115603000D01*
X124865000Y-115604000D01*
X124868000Y-115605000D01*
X124870000Y-115607000D01*
X124872000Y-115608000D01*
X124874000Y-115610000D01*
X124876000Y-115611000D01*
X124878000Y-115613000D01*
X124880000Y-115615000D01*
X124882000Y-115617000D01*
X124884000Y-115619000D01*
X124885000Y-115621000D01*
X124887000Y-115623000D01*
X124888000Y-115625000D01*
X124890000Y-115627000D01*
X124891000Y-115630000D01*
X124892000Y-115632000D01*
X124893000Y-115635000D01*
X124893000Y-115637000D01*
X124894000Y-115640000D01*
X124894000Y-115642000D01*
X124895000Y-115645000D01*
X124895000Y-115647000D01*
X124895000Y-115650000D01*
X124895000Y-115800000D01*
X124895000Y-115803000D01*
X124895000Y-115805000D01*
X124894000Y-115808000D01*
X124894000Y-115810000D01*
X124893000Y-115813000D01*
X124893000Y-115815000D01*
X124892000Y-115818000D01*
X124891000Y-115820000D01*
X124890000Y-115823000D01*
X124888000Y-115825000D01*
X124887000Y-115827000D01*
X124885000Y-115829000D01*
X124884000Y-115831000D01*
X124882000Y-115833000D01*
X124880000Y-115835000D01*
X124878000Y-115837000D01*
X124876000Y-115839000D01*
X124874000Y-115840000D01*
X124872000Y-115842000D01*
X124870000Y-115843000D01*
X124868000Y-115845000D01*
X124865000Y-115846000D01*
X124863000Y-115847000D01*
X124860000Y-115848000D01*
X124858000Y-115848000D01*
X124855000Y-115849000D01*
X124853000Y-115849000D01*
X124850000Y-115850000D01*
X124848000Y-115850000D01*
X124845000Y-115850000D01*
X124120000Y-115850000D01*
X124115000Y-115850000D01*
X124110000Y-115851000D01*
X124104000Y-115851000D01*
X124099000Y-115852000D01*
X124094000Y-115853000D01*
X124089000Y-115855000D01*
X124084000Y-115857000D01*
X124079000Y-115859000D01*
X124075000Y-115861000D01*
X124070000Y-115863000D01*
X124066000Y-115866000D01*
X124061000Y-115869000D01*
X124057000Y-115872000D01*
X124053000Y-115876000D01*
X124049000Y-115879000D01*
X124046000Y-115883000D01*
X124042000Y-115887000D01*
X124039000Y-115891000D01*
X124036000Y-115896000D01*
X124033000Y-115900000D01*
X124031000Y-115905000D01*
X124029000Y-115909000D01*
X124027000Y-115914000D01*
X124025000Y-115919000D01*
X124023000Y-115924000D01*
X124022000Y-115929000D01*
X124021000Y-115934000D01*
X124021000Y-115940000D01*
X124020000Y-115945000D01*
X124020000Y-115950000D01*
X124020000Y-116150000D01*
X124020000Y-116153000D01*
X124020000Y-116155000D01*
X124019000Y-116158000D01*
X124019000Y-116160000D01*
X124018000Y-116163000D01*
X124018000Y-116165000D01*
X124017000Y-116168000D01*
X124016000Y-116170000D01*
X124015000Y-116173000D01*
X124013000Y-116175000D01*
X124012000Y-116177000D01*
X124010000Y-116179000D01*
X124009000Y-116181000D01*
X124007000Y-116183000D01*
X124005000Y-116185000D01*
X124003000Y-116187000D01*
X124001000Y-116189000D01*
X123999000Y-116190000D01*
X123997000Y-116192000D01*
X123995000Y-116193000D01*
X123993000Y-116195000D01*
X123990000Y-116196000D01*
X123988000Y-116197000D01*
X123985000Y-116198000D01*
X123983000Y-116198000D01*
X123980000Y-116199000D01*
X123978000Y-116199000D01*
X123975000Y-116200000D01*
X123973000Y-116200000D01*
X123970000Y-116200000D01*
X123720000Y-116200000D01*
X123717000Y-116200000D01*
X123715000Y-116200000D01*
X123712000Y-116199000D01*
X123710000Y-116199000D01*
X123707000Y-116198000D01*
X123705000Y-116198000D01*
X123702000Y-116197000D01*
X123700000Y-116196000D01*
X123697000Y-116195000D01*
X123695000Y-116193000D01*
X123693000Y-116192000D01*
X123691000Y-116190000D01*
X123689000Y-116189000D01*
X123687000Y-116187000D01*
X123685000Y-116185000D01*
X123683000Y-116183000D01*
X123681000Y-116181000D01*
X123680000Y-116179000D01*
X123678000Y-116177000D01*
X123677000Y-116175000D01*
X123675000Y-116173000D01*
X123674000Y-116170000D01*
X123673000Y-116168000D01*
X123672000Y-116165000D01*
X123672000Y-116163000D01*
X123671000Y-116160000D01*
X123671000Y-116158000D01*
X123670000Y-116155000D01*
X123670000Y-116153000D01*
X123670000Y-116150000D01*
X123670000Y-115650000D01*
X123670000Y-115647000D01*
X123670000Y-115645000D01*
X123671000Y-115642000D01*
X123671000Y-115640000D01*
X123672000Y-115637000D01*
X123672000Y-115635000D01*
X123673000Y-115632000D01*
X123674000Y-115630000D01*
X123675000Y-115627000D01*
X123677000Y-115625000D01*
X123678000Y-115623000D01*
X123680000Y-115621000D01*
X123681000Y-115619000D01*
X123683000Y-115617000D01*
X123685000Y-115615000D01*
X123687000Y-115613000D01*
X123689000Y-115611000D01*
X123691000Y-115610000D01*
X123693000Y-115608000D01*
X123695000Y-115607000D01*
X123697000Y-115605000D01*
X123700000Y-115604000D01*
X123702000Y-115603000D01*
X123705000Y-115602000D01*
X123707000Y-115602000D01*
X123710000Y-115601000D01*
X123712000Y-115601000D01*
X123715000Y-115600000D01*
X123717000Y-115600000D01*
X123720000Y-115600000D01*
X124845000Y-115600000D01*
X124848000Y-115600000D01*
X124850000Y-115600000D01*
X124853000Y-115601000D01*
G36*
X124853000Y-115601000D02*
G01*
X124855000Y-115601000D01*
X124858000Y-115602000D01*
X124860000Y-115602000D01*
X124863000Y-115603000D01*
X124865000Y-115604000D01*
X124868000Y-115605000D01*
X124870000Y-115607000D01*
X124872000Y-115608000D01*
X124874000Y-115610000D01*
X124876000Y-115611000D01*
X124878000Y-115613000D01*
X124880000Y-115615000D01*
X124882000Y-115617000D01*
X124884000Y-115619000D01*
X124885000Y-115621000D01*
X124887000Y-115623000D01*
X124888000Y-115625000D01*
X124890000Y-115627000D01*
X124891000Y-115630000D01*
X124892000Y-115632000D01*
X124893000Y-115635000D01*
X124893000Y-115637000D01*
X124894000Y-115640000D01*
X124894000Y-115642000D01*
X124895000Y-115645000D01*
X124895000Y-115647000D01*
X124895000Y-115650000D01*
X124895000Y-115800000D01*
X124895000Y-115803000D01*
X124895000Y-115805000D01*
X124894000Y-115808000D01*
X124894000Y-115810000D01*
X124893000Y-115813000D01*
X124893000Y-115815000D01*
X124892000Y-115818000D01*
X124891000Y-115820000D01*
X124890000Y-115823000D01*
X124888000Y-115825000D01*
X124887000Y-115827000D01*
X124885000Y-115829000D01*
X124884000Y-115831000D01*
X124882000Y-115833000D01*
X124880000Y-115835000D01*
X124878000Y-115837000D01*
X124876000Y-115839000D01*
X124874000Y-115840000D01*
X124872000Y-115842000D01*
X124870000Y-115843000D01*
X124868000Y-115845000D01*
X124865000Y-115846000D01*
X124863000Y-115847000D01*
X124860000Y-115848000D01*
X124858000Y-115848000D01*
X124855000Y-115849000D01*
X124853000Y-115849000D01*
X124850000Y-115850000D01*
X124848000Y-115850000D01*
X124845000Y-115850000D01*
X124120000Y-115850000D01*
X124115000Y-115850000D01*
X124110000Y-115851000D01*
X124104000Y-115851000D01*
X124099000Y-115852000D01*
X124094000Y-115853000D01*
X124089000Y-115855000D01*
X124084000Y-115857000D01*
X124079000Y-115859000D01*
X124075000Y-115861000D01*
X124070000Y-115863000D01*
X124066000Y-115866000D01*
X124061000Y-115869000D01*
X124057000Y-115872000D01*
X124053000Y-115876000D01*
X124049000Y-115879000D01*
X124046000Y-115883000D01*
X124042000Y-115887000D01*
X124039000Y-115891000D01*
X124036000Y-115896000D01*
X124033000Y-115900000D01*
X124031000Y-115905000D01*
X124029000Y-115909000D01*
X124027000Y-115914000D01*
X124025000Y-115919000D01*
X124023000Y-115924000D01*
X124022000Y-115929000D01*
X124021000Y-115934000D01*
X124021000Y-115940000D01*
X124020000Y-115945000D01*
X124020000Y-115950000D01*
X124020000Y-116150000D01*
X124020000Y-116153000D01*
X124020000Y-116155000D01*
X124019000Y-116158000D01*
X124019000Y-116160000D01*
X124018000Y-116163000D01*
X124018000Y-116165000D01*
X124017000Y-116168000D01*
X124016000Y-116170000D01*
X124015000Y-116173000D01*
X124013000Y-116175000D01*
X124012000Y-116177000D01*
X124010000Y-116179000D01*
X124009000Y-116181000D01*
X124007000Y-116183000D01*
X124005000Y-116185000D01*
X124003000Y-116187000D01*
X124001000Y-116189000D01*
X123999000Y-116190000D01*
X123997000Y-116192000D01*
X123995000Y-116193000D01*
X123993000Y-116195000D01*
X123990000Y-116196000D01*
X123988000Y-116197000D01*
X123985000Y-116198000D01*
X123983000Y-116198000D01*
X123980000Y-116199000D01*
X123978000Y-116199000D01*
X123975000Y-116200000D01*
X123973000Y-116200000D01*
X123970000Y-116200000D01*
X123720000Y-116200000D01*
X123717000Y-116200000D01*
X123715000Y-116200000D01*
X123712000Y-116199000D01*
X123710000Y-116199000D01*
X123707000Y-116198000D01*
X123705000Y-116198000D01*
X123702000Y-116197000D01*
X123700000Y-116196000D01*
X123697000Y-116195000D01*
X123695000Y-116193000D01*
X123693000Y-116192000D01*
X123691000Y-116190000D01*
X123689000Y-116189000D01*
X123687000Y-116187000D01*
X123685000Y-116185000D01*
X123683000Y-116183000D01*
X123681000Y-116181000D01*
X123680000Y-116179000D01*
X123678000Y-116177000D01*
X123677000Y-116175000D01*
X123675000Y-116173000D01*
X123674000Y-116170000D01*
X123673000Y-116168000D01*
X123672000Y-116165000D01*
X123672000Y-116163000D01*
X123671000Y-116160000D01*
X123671000Y-116158000D01*
X123670000Y-116155000D01*
X123670000Y-116153000D01*
X123670000Y-116150000D01*
X123670000Y-115650000D01*
X123670000Y-115647000D01*
X123670000Y-115645000D01*
X123671000Y-115642000D01*
X123671000Y-115640000D01*
X123672000Y-115637000D01*
X123672000Y-115635000D01*
X123673000Y-115632000D01*
X123674000Y-115630000D01*
X123675000Y-115627000D01*
X123677000Y-115625000D01*
X123678000Y-115623000D01*
X123680000Y-115621000D01*
X123681000Y-115619000D01*
X123683000Y-115617000D01*
X123685000Y-115615000D01*
X123687000Y-115613000D01*
X123689000Y-115611000D01*
X123691000Y-115610000D01*
X123693000Y-115608000D01*
X123695000Y-115607000D01*
X123697000Y-115605000D01*
X123700000Y-115604000D01*
X123702000Y-115603000D01*
X123705000Y-115602000D01*
X123707000Y-115602000D01*
X123710000Y-115601000D01*
X123712000Y-115601000D01*
X123715000Y-115600000D01*
X123717000Y-115600000D01*
X123720000Y-115600000D01*
X124845000Y-115600000D01*
X124848000Y-115600000D01*
X124850000Y-115600000D01*
X124853000Y-115601000D01*
G37*
X124853000Y-114601000D02*
X124855000Y-114601000D01*
X124858000Y-114602000D01*
X124860000Y-114602000D01*
X124863000Y-114603000D01*
X124865000Y-114604000D01*
X124868000Y-114605000D01*
X124870000Y-114607000D01*
X124872000Y-114608000D01*
X124874000Y-114610000D01*
X124876000Y-114611000D01*
X124878000Y-114613000D01*
X124880000Y-114615000D01*
X124882000Y-114617000D01*
X124884000Y-114619000D01*
X124885000Y-114621000D01*
X124887000Y-114623000D01*
X124888000Y-114625000D01*
X124890000Y-114627000D01*
X124891000Y-114630000D01*
X124892000Y-114632000D01*
X124893000Y-114635000D01*
X124893000Y-114637000D01*
X124894000Y-114640000D01*
X124894000Y-114642000D01*
X124895000Y-114645000D01*
X124895000Y-114647000D01*
X124895000Y-114650000D01*
X124895000Y-114800000D01*
X124895000Y-114803000D01*
X124895000Y-114805000D01*
X124894000Y-114808000D01*
X124894000Y-114810000D01*
X124893000Y-114813000D01*
X124893000Y-114815000D01*
X124892000Y-114818000D01*
X124891000Y-114820000D01*
X124890000Y-114823000D01*
X124888000Y-114825000D01*
X124887000Y-114827000D01*
X124885000Y-114829000D01*
X124884000Y-114831000D01*
X124882000Y-114833000D01*
X124880000Y-114835000D01*
X124878000Y-114837000D01*
X124876000Y-114839000D01*
X124874000Y-114840000D01*
X124872000Y-114842000D01*
X124870000Y-114843000D01*
X124868000Y-114845000D01*
X124865000Y-114846000D01*
X124863000Y-114847000D01*
X124860000Y-114848000D01*
X124858000Y-114848000D01*
X124855000Y-114849000D01*
X124853000Y-114849000D01*
X124850000Y-114850000D01*
X124848000Y-114850000D01*
X124845000Y-114850000D01*
X124545000Y-114850000D01*
X124542000Y-114850000D01*
X124540000Y-114850000D01*
X124537000Y-114851000D01*
X124535000Y-114851000D01*
X124532000Y-114852000D01*
X124530000Y-114852000D01*
X124527000Y-114853000D01*
X124525000Y-114854000D01*
X124522000Y-114855000D01*
X124520000Y-114857000D01*
X124518000Y-114858000D01*
X124516000Y-114860000D01*
X124514000Y-114861000D01*
X124512000Y-114863000D01*
X124510000Y-114865000D01*
X124508000Y-114867000D01*
X124506000Y-114869000D01*
X124505000Y-114871000D01*
X124503000Y-114873000D01*
X124502000Y-114875000D01*
X124500000Y-114877000D01*
X124499000Y-114880000D01*
X124498000Y-114882000D01*
X124497000Y-114885000D01*
X124497000Y-114887000D01*
X124496000Y-114890000D01*
X124496000Y-114892000D01*
X124495000Y-114895000D01*
X124495000Y-114897000D01*
X124495000Y-114900000D01*
X124495000Y-115050000D01*
X124495000Y-115053000D01*
X124495000Y-115055000D01*
X124496000Y-115058000D01*
X124496000Y-115060000D01*
X124497000Y-115063000D01*
X124497000Y-115065000D01*
X124498000Y-115068000D01*
X124499000Y-115070000D01*
X124500000Y-115073000D01*
X124502000Y-115075000D01*
X124503000Y-115077000D01*
X124505000Y-115079000D01*
X124506000Y-115081000D01*
X124508000Y-115083000D01*
X124510000Y-115085000D01*
X124512000Y-115087000D01*
X124514000Y-115089000D01*
X124516000Y-115090000D01*
X124518000Y-115092000D01*
X124520000Y-115093000D01*
X124522000Y-115095000D01*
X124525000Y-115096000D01*
X124527000Y-115097000D01*
X124530000Y-115098000D01*
X124532000Y-115098000D01*
X124535000Y-115099000D01*
X124537000Y-115099000D01*
X124540000Y-115100000D01*
X124542000Y-115100000D01*
X124545000Y-115100000D01*
X124845000Y-115100000D01*
X124848000Y-115100000D01*
X124850000Y-115100000D01*
X124853000Y-115101000D01*
X124855000Y-115101000D01*
X124858000Y-115102000D01*
X124860000Y-115102000D01*
X124863000Y-115103000D01*
X124865000Y-115104000D01*
X124868000Y-115105000D01*
X124870000Y-115107000D01*
X124872000Y-115108000D01*
X124874000Y-115110000D01*
X124876000Y-115111000D01*
X124878000Y-115113000D01*
X124880000Y-115115000D01*
X124882000Y-115117000D01*
X124884000Y-115119000D01*
X124885000Y-115121000D01*
X124887000Y-115123000D01*
X124888000Y-115125000D01*
X124890000Y-115127000D01*
X124891000Y-115130000D01*
X124892000Y-115132000D01*
X124893000Y-115135000D01*
X124893000Y-115137000D01*
X124894000Y-115140000D01*
X124894000Y-115142000D01*
X124895000Y-115145000D01*
X124895000Y-115147000D01*
X124895000Y-115150000D01*
X124895000Y-115300000D01*
X124895000Y-115303000D01*
X124895000Y-115305000D01*
X124894000Y-115308000D01*
X124894000Y-115310000D01*
X124893000Y-115313000D01*
X124893000Y-115315000D01*
X124892000Y-115318000D01*
X124891000Y-115320000D01*
X124890000Y-115323000D01*
X124888000Y-115325000D01*
X124887000Y-115327000D01*
X124885000Y-115329000D01*
X124884000Y-115331000D01*
X124882000Y-115333000D01*
X124880000Y-115335000D01*
X124878000Y-115337000D01*
X124876000Y-115339000D01*
X124874000Y-115340000D01*
X124872000Y-115342000D01*
X124870000Y-115343000D01*
X124868000Y-115345000D01*
X124865000Y-115346000D01*
X124863000Y-115347000D01*
X124860000Y-115348000D01*
X124858000Y-115348000D01*
X124855000Y-115349000D01*
X124853000Y-115349000D01*
X124850000Y-115350000D01*
X124848000Y-115350000D01*
X124845000Y-115350000D01*
X123745000Y-115350000D01*
X123742000Y-115350000D01*
X123740000Y-115350000D01*
X123737000Y-115349000D01*
X123735000Y-115349000D01*
X123732000Y-115348000D01*
X123730000Y-115348000D01*
X123727000Y-115347000D01*
X123725000Y-115346000D01*
X123722000Y-115345000D01*
X123720000Y-115343000D01*
X123718000Y-115342000D01*
X123716000Y-115340000D01*
X123714000Y-115339000D01*
X123712000Y-115337000D01*
X123710000Y-115335000D01*
X123708000Y-115333000D01*
X123706000Y-115331000D01*
X123705000Y-115329000D01*
X123703000Y-115327000D01*
X123702000Y-115325000D01*
X123700000Y-115323000D01*
X123699000Y-115320000D01*
X123698000Y-115318000D01*
X123697000Y-115315000D01*
X123697000Y-115313000D01*
X123696000Y-115310000D01*
X123696000Y-115308000D01*
X123695000Y-115305000D01*
X123695000Y-115303000D01*
X123695000Y-115300000D01*
X123695000Y-114650000D01*
X123695000Y-114647000D01*
X123695000Y-114645000D01*
X123696000Y-114642000D01*
X123696000Y-114640000D01*
X123697000Y-114637000D01*
X123697000Y-114635000D01*
X123698000Y-114632000D01*
X123699000Y-114630000D01*
X123700000Y-114627000D01*
X123702000Y-114625000D01*
X123703000Y-114623000D01*
X123705000Y-114621000D01*
X123706000Y-114619000D01*
X123708000Y-114617000D01*
X123710000Y-114615000D01*
X123712000Y-114613000D01*
X123714000Y-114611000D01*
X123716000Y-114610000D01*
X123718000Y-114608000D01*
X123720000Y-114607000D01*
X123722000Y-114605000D01*
X123725000Y-114604000D01*
X123727000Y-114603000D01*
X123730000Y-114602000D01*
X123732000Y-114602000D01*
X123735000Y-114601000D01*
X123737000Y-114601000D01*
X123740000Y-114600000D01*
X123742000Y-114600000D01*
X123745000Y-114600000D01*
X124845000Y-114600000D01*
X124848000Y-114600000D01*
X124850000Y-114600000D01*
X124853000Y-114601000D01*
G36*
X124853000Y-114601000D02*
G01*
X124855000Y-114601000D01*
X124858000Y-114602000D01*
X124860000Y-114602000D01*
X124863000Y-114603000D01*
X124865000Y-114604000D01*
X124868000Y-114605000D01*
X124870000Y-114607000D01*
X124872000Y-114608000D01*
X124874000Y-114610000D01*
X124876000Y-114611000D01*
X124878000Y-114613000D01*
X124880000Y-114615000D01*
X124882000Y-114617000D01*
X124884000Y-114619000D01*
X124885000Y-114621000D01*
X124887000Y-114623000D01*
X124888000Y-114625000D01*
X124890000Y-114627000D01*
X124891000Y-114630000D01*
X124892000Y-114632000D01*
X124893000Y-114635000D01*
X124893000Y-114637000D01*
X124894000Y-114640000D01*
X124894000Y-114642000D01*
X124895000Y-114645000D01*
X124895000Y-114647000D01*
X124895000Y-114650000D01*
X124895000Y-114800000D01*
X124895000Y-114803000D01*
X124895000Y-114805000D01*
X124894000Y-114808000D01*
X124894000Y-114810000D01*
X124893000Y-114813000D01*
X124893000Y-114815000D01*
X124892000Y-114818000D01*
X124891000Y-114820000D01*
X124890000Y-114823000D01*
X124888000Y-114825000D01*
X124887000Y-114827000D01*
X124885000Y-114829000D01*
X124884000Y-114831000D01*
X124882000Y-114833000D01*
X124880000Y-114835000D01*
X124878000Y-114837000D01*
X124876000Y-114839000D01*
X124874000Y-114840000D01*
X124872000Y-114842000D01*
X124870000Y-114843000D01*
X124868000Y-114845000D01*
X124865000Y-114846000D01*
X124863000Y-114847000D01*
X124860000Y-114848000D01*
X124858000Y-114848000D01*
X124855000Y-114849000D01*
X124853000Y-114849000D01*
X124850000Y-114850000D01*
X124848000Y-114850000D01*
X124845000Y-114850000D01*
X124545000Y-114850000D01*
X124542000Y-114850000D01*
X124540000Y-114850000D01*
X124537000Y-114851000D01*
X124535000Y-114851000D01*
X124532000Y-114852000D01*
X124530000Y-114852000D01*
X124527000Y-114853000D01*
X124525000Y-114854000D01*
X124522000Y-114855000D01*
X124520000Y-114857000D01*
X124518000Y-114858000D01*
X124516000Y-114860000D01*
X124514000Y-114861000D01*
X124512000Y-114863000D01*
X124510000Y-114865000D01*
X124508000Y-114867000D01*
X124506000Y-114869000D01*
X124505000Y-114871000D01*
X124503000Y-114873000D01*
X124502000Y-114875000D01*
X124500000Y-114877000D01*
X124499000Y-114880000D01*
X124498000Y-114882000D01*
X124497000Y-114885000D01*
X124497000Y-114887000D01*
X124496000Y-114890000D01*
X124496000Y-114892000D01*
X124495000Y-114895000D01*
X124495000Y-114897000D01*
X124495000Y-114900000D01*
X124495000Y-115050000D01*
X124495000Y-115053000D01*
X124495000Y-115055000D01*
X124496000Y-115058000D01*
X124496000Y-115060000D01*
X124497000Y-115063000D01*
X124497000Y-115065000D01*
X124498000Y-115068000D01*
X124499000Y-115070000D01*
X124500000Y-115073000D01*
X124502000Y-115075000D01*
X124503000Y-115077000D01*
X124505000Y-115079000D01*
X124506000Y-115081000D01*
X124508000Y-115083000D01*
X124510000Y-115085000D01*
X124512000Y-115087000D01*
X124514000Y-115089000D01*
X124516000Y-115090000D01*
X124518000Y-115092000D01*
X124520000Y-115093000D01*
X124522000Y-115095000D01*
X124525000Y-115096000D01*
X124527000Y-115097000D01*
X124530000Y-115098000D01*
X124532000Y-115098000D01*
X124535000Y-115099000D01*
X124537000Y-115099000D01*
X124540000Y-115100000D01*
X124542000Y-115100000D01*
X124545000Y-115100000D01*
X124845000Y-115100000D01*
X124848000Y-115100000D01*
X124850000Y-115100000D01*
X124853000Y-115101000D01*
X124855000Y-115101000D01*
X124858000Y-115102000D01*
X124860000Y-115102000D01*
X124863000Y-115103000D01*
X124865000Y-115104000D01*
X124868000Y-115105000D01*
X124870000Y-115107000D01*
X124872000Y-115108000D01*
X124874000Y-115110000D01*
X124876000Y-115111000D01*
X124878000Y-115113000D01*
X124880000Y-115115000D01*
X124882000Y-115117000D01*
X124884000Y-115119000D01*
X124885000Y-115121000D01*
X124887000Y-115123000D01*
X124888000Y-115125000D01*
X124890000Y-115127000D01*
X124891000Y-115130000D01*
X124892000Y-115132000D01*
X124893000Y-115135000D01*
X124893000Y-115137000D01*
X124894000Y-115140000D01*
X124894000Y-115142000D01*
X124895000Y-115145000D01*
X124895000Y-115147000D01*
X124895000Y-115150000D01*
X124895000Y-115300000D01*
X124895000Y-115303000D01*
X124895000Y-115305000D01*
X124894000Y-115308000D01*
X124894000Y-115310000D01*
X124893000Y-115313000D01*
X124893000Y-115315000D01*
X124892000Y-115318000D01*
X124891000Y-115320000D01*
X124890000Y-115323000D01*
X124888000Y-115325000D01*
X124887000Y-115327000D01*
X124885000Y-115329000D01*
X124884000Y-115331000D01*
X124882000Y-115333000D01*
X124880000Y-115335000D01*
X124878000Y-115337000D01*
X124876000Y-115339000D01*
X124874000Y-115340000D01*
X124872000Y-115342000D01*
X124870000Y-115343000D01*
X124868000Y-115345000D01*
X124865000Y-115346000D01*
X124863000Y-115347000D01*
X124860000Y-115348000D01*
X124858000Y-115348000D01*
X124855000Y-115349000D01*
X124853000Y-115349000D01*
X124850000Y-115350000D01*
X124848000Y-115350000D01*
X124845000Y-115350000D01*
X123745000Y-115350000D01*
X123742000Y-115350000D01*
X123740000Y-115350000D01*
X123737000Y-115349000D01*
X123735000Y-115349000D01*
X123732000Y-115348000D01*
X123730000Y-115348000D01*
X123727000Y-115347000D01*
X123725000Y-115346000D01*
X123722000Y-115345000D01*
X123720000Y-115343000D01*
X123718000Y-115342000D01*
X123716000Y-115340000D01*
X123714000Y-115339000D01*
X123712000Y-115337000D01*
X123710000Y-115335000D01*
X123708000Y-115333000D01*
X123706000Y-115331000D01*
X123705000Y-115329000D01*
X123703000Y-115327000D01*
X123702000Y-115325000D01*
X123700000Y-115323000D01*
X123699000Y-115320000D01*
X123698000Y-115318000D01*
X123697000Y-115315000D01*
X123697000Y-115313000D01*
X123696000Y-115310000D01*
X123696000Y-115308000D01*
X123695000Y-115305000D01*
X123695000Y-115303000D01*
X123695000Y-115300000D01*
X123695000Y-114650000D01*
X123695000Y-114647000D01*
X123695000Y-114645000D01*
X123696000Y-114642000D01*
X123696000Y-114640000D01*
X123697000Y-114637000D01*
X123697000Y-114635000D01*
X123698000Y-114632000D01*
X123699000Y-114630000D01*
X123700000Y-114627000D01*
X123702000Y-114625000D01*
X123703000Y-114623000D01*
X123705000Y-114621000D01*
X123706000Y-114619000D01*
X123708000Y-114617000D01*
X123710000Y-114615000D01*
X123712000Y-114613000D01*
X123714000Y-114611000D01*
X123716000Y-114610000D01*
X123718000Y-114608000D01*
X123720000Y-114607000D01*
X123722000Y-114605000D01*
X123725000Y-114604000D01*
X123727000Y-114603000D01*
X123730000Y-114602000D01*
X123732000Y-114602000D01*
X123735000Y-114601000D01*
X123737000Y-114601000D01*
X123740000Y-114600000D01*
X123742000Y-114600000D01*
X123745000Y-114600000D01*
X124845000Y-114600000D01*
X124848000Y-114600000D01*
X124850000Y-114600000D01*
X124853000Y-114601000D01*
G37*
%TD*%
D11*
%TO.C,R11*%
X119945000Y-115925000D03*
X118120000Y-115925000D03*
%TD*%
D12*
%TO.C,R15*%
X108100000Y-100135000D03*
X108100000Y-98135000D03*
%TD*%
D13*
%TO.C,R7*%
X98800000Y-109600000D03*
X100625000Y-109600000D03*
%TD*%
D14*
%TO.C,R2*%
X129400000Y-115212500D03*
X129400000Y-113387500D03*
%TD*%
D15*
%TO.C,C2*%
X110975000Y-119687500D03*
X110975000Y-121412500D03*
%TD*%
D16*
%TO.C,C21*%
X114745000Y-111250000D03*
X114745000Y-114200000D03*
%TD*%
D13*
%TO.C,R6*%
X118120000Y-117525000D03*
X119945000Y-117525000D03*
%TD*%
D17*
%TO.C,Q2*%
X130900000Y-121300000D03*
X130900000Y-123200000D03*
X129025000Y-122250000D03*
%TD*%
D18*
%TO.C,U3*%
X112800000Y-121500000D03*
X112800000Y-119600000D03*
X114675000Y-120550000D03*
%TD*%
D14*
%TO.C,R5*%
X121745000Y-119137500D03*
X121745000Y-117312500D03*
%TD*%
D11*
%TO.C,R3*%
X131112500Y-124800000D03*
X129287500Y-124800000D03*
%TD*%
%TO.C,R8*%
X123462500Y-97800000D03*
X121637500Y-97800000D03*
%TD*%
D16*
%TO.C,C23*%
X119600000Y-111250000D03*
X119600000Y-114200000D03*
%TD*%
D15*
%TO.C,C1*%
X116475000Y-119687500D03*
X116475000Y-121412500D03*
%TD*%
D12*
%TO.C,R9*%
X110100000Y-100135000D03*
X110100000Y-98135000D03*
%TD*%
D19*
%TO.C,C18*%
X125307500Y-118925000D03*
X123582500Y-118925000D03*
%TD*%
D16*
%TO.C,C20*%
X112345000Y-111250000D03*
X112345000Y-114200000D03*
%TD*%
D19*
%TO.C,C11*%
X125307500Y-117325000D03*
X123582500Y-117325000D03*
%TD*%
D13*
%TO.C,R4*%
X129287500Y-119700000D03*
X131112500Y-119700000D03*
%TD*%
D14*
%TO.C,R1*%
X131000000Y-113425000D03*
X131000000Y-111600000D03*
%TD*%
D16*
%TO.C,C22*%
X117145000Y-111250000D03*
X117145000Y-114200000D03*
%TD*%
D20*
%TO.C,PS1*%
X121595000Y-115225000D03*
X121595000Y-114725000D03*
D21*
X122820000Y-115925000D03*
%TD*%
D16*
%TO.C,C19*%
X109945000Y-111250000D03*
X109945000Y-114200000D03*
%TD*%
D13*
%TO.C,R10*%
X98800000Y-111200000D03*
X100625000Y-111200000D03*
%TD*%
M02*
