M48
; DRILL file {KiCad 9.0.1+1} date 2025-11-23T23:33:03+0000
; FORMAT={-:-/ absolute / metric / decimal}
; #@! TF.CreationDate,2025-11-23T23:33:03+00:00
; #@! TF.GenerationSoftware,Kicad,Pcbnew,9.0.1+1
; #@! TF.FileFunction,Plated,1,4,PTH
FMAT,2
METRIC
; #@! TA.AperFunction,Plated,PTH,ComponentDrill
T1C0.200
; #@! TA.AperFunction,Plated,PTH,ViaDrill
T2C0.250
; #@! TA.AperFunction,Plated,PTH,ComponentDrill
T3C0.600
; #@! TA.AperFunction,Plated,PTH,ComponentDrill
T4C0.800
; #@! TA.AperFunction,Plated,PTH,ComponentDrill
T5C3.200
%
G90
G05
T1
X121.745Y-111.85
X121.745Y-112.637
X121.745Y-113.425
X122.395Y-111.85
X122.395Y-112.637
X122.395Y-113.425
X123.695Y-111.85
X123.695Y-112.637
X123.695Y-113.425
X124.345Y-111.85
X124.345Y-112.637
X124.345Y-113.425
T2
X97.6Y-108.6
X97.6Y-109.6
X97.6Y-110.6
X98.325Y-105.4
X99.8Y-112.3
X100.9Y-105.6
X100.9Y-106.6
X100.9Y-107.6
X107.33Y-105.435
X110.33Y-105.435
X110.925Y-131.55
X115.062Y-132.15
X116.945Y-115.925
X119.05Y-100.6
X120.45Y-97.8
X120.745Y-119.137
X121.145Y-110.825
X122.55Y-100.6
X124.445Y-116.5
X126.05Y-100.6
X129.9Y-111.6
X132.3Y-119.7
X132.3Y-123.2
X132.3Y-124.8
T4
X106.795Y-129.75
X111.675Y-129.75
T5
X100.0Y-100.0
X100.0Y-130.5
X130.5Y-100.0
X130.5Y-130.5
T3
G00X104.76Y-99.922
M15
G01X104.76Y-99.123
M16
G05
G00X104.76Y-104.252
M15
G01X104.76Y-103.152
M16
G05
G00X113.4Y-99.922
M15
G01X113.4Y-99.123
M16
G05
G00X113.4Y-104.252
M15
G01X113.4Y-103.152
M16
G05
M30
