%TF.GenerationSoftware,KiCad,Pcbnew,9.0.6+1*%
%TF.CreationDate,Date%
%TF.ProjectId,FCU3,46435533-2e6b-4696-9361-645f70636258,+ (Unreleased)*%
%TF.SameCoordinates,Original*%
%TF.FileFunction,Copper,L3,Inr*%
%TF.FilePolarity,Positive*%
%FSLAX46Y46*%
G04 Gerber Fmt 4.6, Leading zero omitted, Abs format (unit mm)*
G04 Created by KiCad*
%MOMM*%
%LPD*%
G01*
G04 APERTURE LIST*
%TA.AperFunction,ComponentPad*%
%ADD10C,5.600000*%
%TD*%
%TA.AperFunction,ComponentPad*%
%ADD11C,0.300000*%
%TD*%
%TA.AperFunction,ComponentPad*%
%ADD12O,1.000000X2.100000*%
%TD*%
%TA.AperFunction,ComponentPad*%
%ADD13O,1.000000X1.800000*%
%TD*%
%TA.AperFunction,ViaPad*%
%ADD14C,0.550000*%
%TD*%
%TA.AperFunction,Conductor*%
%ADD15C,0.200000*%
%TD*%
G04 APERTURE END LIST*
D10*
%TO.N,N/C*%
%TO.C,H2*%
X162400000Y-70045000D03*
%TD*%
D11*
%TO.N,+9V*%
%TO.C,PS1*%
X158925000Y-88387500D03*
X158137000Y-88387500D03*
X157350000Y-88387500D03*
X158925000Y-89037500D03*
X158137000Y-89037500D03*
X157350000Y-89037500D03*
%TO.N,unconnected-(PS1-SW-Pad5)_4*%
X158925000Y-90337500D03*
%TO.N,unconnected-(PS1-SW-Pad5)_1*%
X158137000Y-90337500D03*
%TO.N,unconnected-(PS1-SW-Pad5)_2*%
X157350000Y-90337500D03*
%TO.N,unconnected-(PS1-SW-Pad5)_6*%
X158925000Y-90987500D03*
%TO.N,unconnected-(PS1-SW-Pad5)*%
X158137000Y-90987500D03*
%TO.N,unconnected-(PS1-SW-Pad5)_3*%
X157350000Y-90987500D03*
%TD*%
D10*
%TO.N,N/C*%
%TO.C,H1*%
X132754125Y-70082500D03*
%TD*%
%TO.N,N/C*%
%TO.C,H4*%
X162400000Y-100545000D03*
%TD*%
%TO.N,N/C*%
%TO.C,H3*%
X131900000Y-100545000D03*
%TD*%
D12*
%TO.N,PGND*%
%TO.C,J3*%
X145500000Y-73625000D03*
X136860000Y-73625000D03*
D13*
X145500000Y-69445000D03*
X136860000Y-69445000D03*
%TD*%
D14*
%TO.N,*%
X129850000Y-78595000D03*
X129825000Y-89895000D03*
X129825000Y-95445000D03*
X129850000Y-86095000D03*
%TO.N,PGND*%
X164750000Y-87150000D03*
X155115200Y-68115000D03*
X160637500Y-82837500D03*
X161562500Y-81912500D03*
X162300000Y-80250000D03*
X164550000Y-90600000D03*
X164750000Y-87950000D03*
X164250000Y-90050000D03*
%TO.N,DGND*%
X151600000Y-96800000D03*
X150300000Y-91770000D03*
X151250000Y-79550000D03*
X146105000Y-81500000D03*
X136550000Y-98695000D03*
X155115200Y-71240000D03*
X151690000Y-85700000D03*
X134750000Y-103320000D03*
X154550000Y-98105000D03*
X132350000Y-92195000D03*
X151525000Y-77525000D03*
X156200000Y-102845000D03*
X151690000Y-82950000D03*
X158500000Y-76500000D03*
X146850000Y-102882500D03*
X150187500Y-88307500D03*
X141375000Y-103145000D03*
X138125000Y-86695000D03*
X135100000Y-97000000D03*
X153300000Y-102845000D03*
X151250000Y-78750000D03*
X141375000Y-102395000D03*
%TO.N,+3V3*%
X152900000Y-84650000D03*
X135235000Y-92485000D03*
X135800000Y-99395000D03*
X150730000Y-86150000D03*
X151950000Y-86476000D03*
X148580000Y-81500000D03*
X135100000Y-95445000D03*
X145825000Y-102595000D03*
X153050000Y-82900000D03*
X151250000Y-100070000D03*
X151900000Y-72350000D03*
X137500000Y-88750000D03*
X152900000Y-83650000D03*
X152000000Y-95075000D03*
%TO.N,AGND*%
X144875000Y-102595000D03*
X144875000Y-103220000D03*
X137150000Y-79800000D03*
%TO.N,+VBAT*%
X129500000Y-79845000D03*
X132250000Y-79845000D03*
X130300000Y-81000000D03*
X131250000Y-81000000D03*
X129500000Y-81000000D03*
X132200000Y-81000000D03*
X130350000Y-79845000D03*
X131300000Y-79845000D03*
%TO.N,+9V*%
X161850000Y-86015000D03*
%TO.N,/Project Architecture/Power/VBAT*%
X163450000Y-93000000D03*
X161700000Y-93000000D03*
X164250000Y-92950000D03*
X162550000Y-93000000D03*
%TO.N,/Project Architecture/SBUS_TX*%
X154522500Y-94155000D03*
X158500000Y-75450000D03*
%TO.N,/Project Architecture/UART4_RX*%
X158500000Y-77500000D03*
X146650000Y-100745000D03*
%TO.N,/Project Architecture/UART4_TX*%
X158450000Y-78500000D03*
X146100000Y-98020000D03*
%TO.N,Net-(PS1-MODE)*%
X162250000Y-91025000D03*
X162650000Y-86025000D03*
%TO.N,/Project Architecture/Microcontroller/SWDIO*%
X139474000Y-80000000D03*
X140600000Y-88995000D03*
X136300000Y-90400000D03*
%TO.N,/Project Architecture/UART5_RX*%
X139250000Y-92000000D03*
X132500000Y-90195000D03*
%TO.N,/Project Architecture/I2C1_SDA*%
X138825000Y-96270000D03*
X135100000Y-93500000D03*
%TO.N,/Project Architecture/USB_-DATA*%
X142200000Y-75500000D03*
X140930000Y-75500000D03*
%TO.N,/Project Architecture/USB_CC1*%
X131250000Y-75595000D03*
X141545750Y-72739000D03*
%TO.N,/Project Architecture/USB_CC2*%
X131250000Y-74495000D03*
X140795750Y-72732500D03*
%TO.N,/Project Architecture/UART2_RX*%
X152600000Y-97115000D03*
X147650000Y-96800000D03*
%TO.N,/Project Architecture/ANA_ADC_VBAT*%
X136300000Y-91195000D03*
X142600000Y-98020000D03*
%TO.N,/Project Architecture/SPI1_SCK*%
X146750000Y-95300000D03*
X151987569Y-87487569D03*
X144980000Y-85125000D03*
%TO.N,/Project Architecture/SPI1_SDO*%
X145580000Y-85900000D03*
X150300000Y-92921000D03*
%TO.N,/Project Architecture/DIG_IMU_CS*%
X147250000Y-96100000D03*
X145055000Y-83950000D03*
%TO.N,/Project Architecture/SPI1_SDI*%
X151018413Y-87268413D03*
X149980000Y-84351000D03*
X147700000Y-94770000D03*
%TO.N,/Project Architecture/DIG_IMU_EXTI*%
X148980000Y-82550000D03*
X147875000Y-93795000D03*
%TO.N,/Project Architecture/ESC_SIG_M4*%
X144050000Y-89100000D03*
X132400000Y-82400000D03*
%TO.N,/Project Architecture/ESC_SIG_M3*%
X145600000Y-88995000D03*
X132287500Y-84037500D03*
%TO.N,/Project Architecture/UART1_RX*%
X141250000Y-90500000D03*
X132300000Y-85800000D03*
%TO.N,/Project Architecture/ESC_SIG_M2*%
X135100000Y-81900000D03*
X143600000Y-86745000D03*
%TO.N,/Project Architecture/Microcontroller/SWCLK*%
X138900000Y-90150000D03*
X140050000Y-80650000D03*
%TO.N,/Project Architecture/ANA_ADC_CURR*%
X132300000Y-84845000D03*
X144100000Y-98020000D03*
%TO.N,/Project Architecture/Microcontroller/SWO*%
X136550000Y-89050000D03*
X140525000Y-81350000D03*
X139400000Y-89350000D03*
%TO.N,/Project Architecture/ESC_SIG_M1*%
X135200000Y-80850000D03*
X143100000Y-88970000D03*
%TO.N,/Project Architecture/LED1*%
X148150000Y-98700000D03*
%TO.N,/Project Architecture/LED0*%
X150000000Y-99595000D03*
%TD*%
D15*
%TO.N,+9V*%
X159477500Y-88387500D02*
X158925000Y-88387500D01*
X161850000Y-86015000D02*
X159477500Y-88387500D01*
%TO.N,Net-(PS1-MODE)*%
X162650000Y-90625000D02*
X162650000Y-86025000D01*
X162250000Y-91025000D02*
X162650000Y-90625000D01*
%TO.N,/Project Architecture/SPI1_SCK*%
X144980000Y-93530000D02*
X146750000Y-95300000D01*
X144980000Y-85125000D02*
X144980000Y-93530000D01*
%TO.N,/Project Architecture/SPI1_SDO*%
X150300000Y-92880412D02*
X145580000Y-88160412D01*
X145580000Y-88160412D02*
X145580000Y-85900000D01*
X150300000Y-92921000D02*
X150300000Y-92880412D01*
%TO.N,/Project Architecture/DIG_IMU_CS*%
X146735412Y-96100000D02*
X142524000Y-91888588D01*
X142524000Y-91888588D02*
X142524000Y-86481000D01*
X142524000Y-86481000D02*
X145055000Y-83950000D01*
X145055000Y-83955000D02*
X145055000Y-83950000D01*
X147250000Y-96100000D02*
X146735412Y-96100000D01*
%TO.N,/Project Architecture/DIG_IMU_EXTI*%
X147875000Y-93795000D02*
X150805000Y-93795000D01*
X151750000Y-92850000D02*
X151750000Y-88950000D01*
X151750000Y-88950000D02*
X148980000Y-86180000D01*
X148980000Y-86180000D02*
X148980000Y-82550000D01*
X150805000Y-93795000D02*
X151750000Y-92850000D01*
%TD*%
%TA.AperFunction,Conductor*%
%TO.N,+VBAT*%
G36*
X139381165Y-79317411D02*
G01*
X139427178Y-79369990D01*
X139437460Y-79439099D01*
X139408746Y-79502796D01*
X139350154Y-79540858D01*
X139346732Y-79541827D01*
X139290468Y-79556903D01*
X139290463Y-79556905D01*
X139182037Y-79619504D01*
X139182034Y-79619506D01*
X139093506Y-79708034D01*
X139093504Y-79708037D01*
X139030905Y-79816463D01*
X139030905Y-79816464D01*
X138998500Y-79937399D01*
X138998500Y-80062601D01*
X139030905Y-80183536D01*
X139093505Y-80291964D01*
X139182036Y-80380495D01*
X139290464Y-80443095D01*
X139411399Y-80475500D01*
X139411401Y-80475500D01*
X139450500Y-80475500D01*
X139517539Y-80495185D01*
X139563294Y-80547989D01*
X139574500Y-80599500D01*
X139574500Y-80712601D01*
X139606905Y-80833536D01*
X139669505Y-80941964D01*
X139758036Y-81030495D01*
X139866464Y-81093095D01*
X139966042Y-81119777D01*
X140025700Y-81156141D01*
X140056229Y-81218988D01*
X140053722Y-81271641D01*
X140049500Y-81287399D01*
X140049500Y-81412601D01*
X140081905Y-81533536D01*
X140144505Y-81641964D01*
X140233036Y-81730495D01*
X140341464Y-81793095D01*
X140390468Y-81806225D01*
X140450127Y-81842591D01*
X140480656Y-81905438D01*
X140472361Y-81974813D01*
X140427875Y-82028691D01*
X140361323Y-82049965D01*
X140358373Y-82050000D01*
X135699500Y-82050000D01*
X135632461Y-82030315D01*
X135586706Y-81977511D01*
X135575500Y-81926000D01*
X135575500Y-81837400D01*
X135575500Y-81837399D01*
X135543095Y-81716464D01*
X135480495Y-81608036D01*
X135391964Y-81519505D01*
X135388470Y-81517488D01*
X135377670Y-81511252D01*
X135329456Y-81460683D01*
X135316235Y-81392076D01*
X135342204Y-81327212D01*
X135377675Y-81296478D01*
X135383533Y-81293095D01*
X135383536Y-81293095D01*
X135491964Y-81230495D01*
X135580495Y-81141964D01*
X135643095Y-81033536D01*
X135675500Y-80912601D01*
X135675500Y-80787399D01*
X135643095Y-80666464D01*
X135580495Y-80558036D01*
X135491964Y-80469505D01*
X135383536Y-80406905D01*
X135383537Y-80406905D01*
X135343224Y-80396103D01*
X135262601Y-80374500D01*
X135137399Y-80374500D01*
X135056775Y-80396103D01*
X135016463Y-80406905D01*
X134908037Y-80469504D01*
X134908034Y-80469506D01*
X134819506Y-80558034D01*
X134819504Y-80558037D01*
X134756905Y-80666463D01*
X134756905Y-80666464D01*
X134724500Y-80787399D01*
X134724500Y-80912601D01*
X134756905Y-81033536D01*
X134819505Y-81141964D01*
X134908036Y-81230495D01*
X134918508Y-81236541D01*
X134922327Y-81238746D01*
X134970542Y-81289314D01*
X134983764Y-81357921D01*
X134957796Y-81422786D01*
X134922325Y-81453520D01*
X134808042Y-81519500D01*
X134808034Y-81519506D01*
X134719506Y-81608034D01*
X134719504Y-81608037D01*
X134656905Y-81716463D01*
X134653146Y-81730493D01*
X134627689Y-81825500D01*
X134624500Y-81837400D01*
X134624500Y-81926000D01*
X134604815Y-81993039D01*
X134552011Y-82038794D01*
X134500500Y-82050000D01*
X132773798Y-82050000D01*
X132706759Y-82030315D01*
X132698310Y-82024375D01*
X132691966Y-82019507D01*
X132691964Y-82019505D01*
X132583536Y-81956905D01*
X132583537Y-81956905D01*
X132531997Y-81943095D01*
X132462601Y-81924500D01*
X132337399Y-81924500D01*
X132268003Y-81943095D01*
X132216463Y-81956905D01*
X132108037Y-82019504D01*
X132101690Y-82024375D01*
X132036521Y-82049570D01*
X132026202Y-82050000D01*
X129024500Y-82050000D01*
X128957461Y-82030315D01*
X128911706Y-81977511D01*
X128900500Y-81926000D01*
X128900500Y-79472413D01*
X128920185Y-79405374D01*
X128972989Y-79359619D01*
X129023888Y-79348414D01*
X136668646Y-79311001D01*
X136735776Y-79330357D01*
X136781789Y-79382936D01*
X136792071Y-79452045D01*
X136771983Y-79500081D01*
X136773569Y-79500997D01*
X136706905Y-79616463D01*
X136706905Y-79616464D01*
X136674500Y-79737399D01*
X136674500Y-79862601D01*
X136706905Y-79983536D01*
X136769505Y-80091964D01*
X136858036Y-80180495D01*
X136966464Y-80243095D01*
X137087399Y-80275500D01*
X137087401Y-80275500D01*
X137212599Y-80275500D01*
X137212601Y-80275500D01*
X137333536Y-80243095D01*
X137441964Y-80180495D01*
X137530495Y-80091964D01*
X137593095Y-79983536D01*
X137625500Y-79862601D01*
X137625500Y-79737399D01*
X137593095Y-79616464D01*
X137530495Y-79508036D01*
X137530491Y-79508032D01*
X137528778Y-79505799D01*
X137527915Y-79503568D01*
X137526431Y-79500997D01*
X137526831Y-79500765D01*
X137503583Y-79440630D01*
X137517620Y-79372185D01*
X137566433Y-79322195D01*
X137626539Y-79306313D01*
X139314034Y-79298055D01*
X139381165Y-79317411D01*
G37*
%TD.AperFunction*%
%TD*%
%TA.AperFunction,Conductor*%
%TO.N,+3V3*%
G36*
X146125032Y-81979471D02*
G01*
X146139100Y-81978609D01*
X146157890Y-81989119D01*
X146178547Y-81995185D01*
X146188986Y-82006513D01*
X146200078Y-82012717D01*
X146220938Y-82041183D01*
X146250169Y-82096036D01*
X146258720Y-82112083D01*
X146258722Y-82112086D01*
X146304481Y-82164895D01*
X146322063Y-82182839D01*
X146322067Y-82182843D01*
X146322068Y-82182844D01*
X146322070Y-82182845D01*
X146400661Y-82226806D01*
X146401884Y-82227490D01*
X146468923Y-82247175D01*
X146526821Y-82255500D01*
X146526825Y-82255500D01*
X148158183Y-82255500D01*
X148158633Y-82255491D01*
X148165515Y-82255369D01*
X148174361Y-82255053D01*
X148238840Y-82242227D01*
X148304304Y-82217810D01*
X148327273Y-82207603D01*
X148373049Y-82168748D01*
X148436897Y-82140374D01*
X148505951Y-82151023D01*
X148558285Y-82197314D01*
X148577285Y-82264551D01*
X148560679Y-82325284D01*
X148536907Y-82366459D01*
X148536905Y-82366462D01*
X148533412Y-82379500D01*
X148504500Y-82487399D01*
X148504500Y-82612601D01*
X148516675Y-82658037D01*
X148536905Y-82733536D01*
X148599504Y-82841962D01*
X148599506Y-82841965D01*
X148643181Y-82885640D01*
X148676666Y-82946963D01*
X148679500Y-82973321D01*
X148679500Y-86219562D01*
X148689339Y-86256282D01*
X148699979Y-86295990D01*
X148718849Y-86328672D01*
X148718850Y-86328676D01*
X148739535Y-86364504D01*
X148739541Y-86364512D01*
X150039242Y-87664213D01*
X150072727Y-87725536D01*
X150067743Y-87795228D01*
X150025871Y-87851161D01*
X150010692Y-87859806D01*
X150011002Y-87860342D01*
X150003964Y-87864404D01*
X150003964Y-87864405D01*
X149969108Y-87884529D01*
X149895537Y-87927004D01*
X149895534Y-87927006D01*
X149807006Y-88015534D01*
X149807004Y-88015537D01*
X149744405Y-88123963D01*
X149744405Y-88123964D01*
X149712000Y-88244899D01*
X149712000Y-88370101D01*
X149744405Y-88491036D01*
X149807005Y-88599464D01*
X149895536Y-88687995D01*
X150003964Y-88750595D01*
X150124899Y-88783000D01*
X150124901Y-88783000D01*
X150250099Y-88783000D01*
X150250101Y-88783000D01*
X150371036Y-88750595D01*
X150479464Y-88687995D01*
X150567995Y-88599464D01*
X150630595Y-88491036D01*
X150630595Y-88491034D01*
X150634658Y-88483998D01*
X150637084Y-88485398D01*
X150672352Y-88441605D01*
X150738639Y-88419518D01*
X150806344Y-88436776D01*
X150830786Y-88455757D01*
X151413181Y-89038152D01*
X151446666Y-89099475D01*
X151449500Y-89125833D01*
X151449500Y-92674167D01*
X151429815Y-92741206D01*
X151413181Y-92761848D01*
X150950489Y-93224539D01*
X150889166Y-93258024D01*
X150819474Y-93253040D01*
X150763541Y-93211168D01*
X150739124Y-93145704D01*
X150743033Y-93104764D01*
X150743093Y-93104538D01*
X150743095Y-93104536D01*
X150775500Y-92983601D01*
X150775500Y-92858399D01*
X150743095Y-92737464D01*
X150680495Y-92629036D01*
X150591964Y-92540505D01*
X150483536Y-92477905D01*
X150483537Y-92477905D01*
X150467924Y-92473721D01*
X150436397Y-92465274D01*
X150376739Y-92428909D01*
X150346210Y-92366062D01*
X150354505Y-92296687D01*
X150398991Y-92242809D01*
X150436396Y-92225726D01*
X150483536Y-92213095D01*
X150591964Y-92150495D01*
X150680495Y-92061964D01*
X150743095Y-91953536D01*
X150775500Y-91832601D01*
X150775500Y-91707399D01*
X150743095Y-91586464D01*
X150680495Y-91478036D01*
X150591964Y-91389505D01*
X150483536Y-91326905D01*
X150483537Y-91326905D01*
X150443224Y-91316103D01*
X150362601Y-91294500D01*
X150237399Y-91294500D01*
X150156775Y-91316103D01*
X150116463Y-91326905D01*
X150008037Y-91389504D01*
X150008034Y-91389506D01*
X149919506Y-91478034D01*
X149919504Y-91478037D01*
X149856905Y-91586463D01*
X149856903Y-91586468D01*
X149822491Y-91714891D01*
X149786126Y-91774551D01*
X149723278Y-91805079D01*
X149653903Y-91796784D01*
X149615036Y-91770477D01*
X145916819Y-88072260D01*
X145883334Y-88010937D01*
X145880500Y-87984579D01*
X145880500Y-86323321D01*
X145900185Y-86256282D01*
X145916819Y-86235640D01*
X145932959Y-86219500D01*
X145960495Y-86191964D01*
X146023095Y-86083536D01*
X146055500Y-85962601D01*
X146055500Y-85837399D01*
X146023095Y-85716464D01*
X145960495Y-85608036D01*
X145871964Y-85519505D01*
X145763536Y-85456905D01*
X145763537Y-85456905D01*
X145723224Y-85446103D01*
X145642601Y-85424500D01*
X145553622Y-85424500D01*
X145486583Y-85404815D01*
X145440828Y-85352011D01*
X145430884Y-85282853D01*
X145433848Y-85268405D01*
X145455500Y-85187601D01*
X145455500Y-85062399D01*
X145423095Y-84941464D01*
X145360495Y-84833036D01*
X145271964Y-84744505D01*
X145163536Y-84681905D01*
X145163537Y-84681905D01*
X145143506Y-84676538D01*
X145108896Y-84667264D01*
X145049238Y-84630899D01*
X145018709Y-84568052D01*
X145027004Y-84498677D01*
X145071490Y-84444799D01*
X145110401Y-84430029D01*
X145109751Y-84427603D01*
X145117599Y-84425500D01*
X145117601Y-84425500D01*
X145238536Y-84393095D01*
X145346964Y-84330495D01*
X145435495Y-84241964D01*
X145498095Y-84133536D01*
X145530500Y-84012601D01*
X145530500Y-83887399D01*
X145498095Y-83766464D01*
X145435495Y-83658036D01*
X145346964Y-83569505D01*
X145238536Y-83506905D01*
X145238537Y-83506905D01*
X145198224Y-83496103D01*
X145117601Y-83474500D01*
X144992399Y-83474500D01*
X144911775Y-83496103D01*
X144871463Y-83506905D01*
X144763037Y-83569504D01*
X144763034Y-83569506D01*
X144674506Y-83658034D01*
X144674504Y-83658037D01*
X144611905Y-83766463D01*
X144611905Y-83766464D01*
X144582689Y-83875500D01*
X144579500Y-83887400D01*
X144579500Y-83949167D01*
X144559815Y-84016206D01*
X144543181Y-84036848D01*
X142283541Y-86296487D01*
X142283535Y-86296495D01*
X142243982Y-86365004D01*
X142243979Y-86365009D01*
X142233790Y-86403036D01*
X142223500Y-86441438D01*
X142223500Y-91928150D01*
X142237152Y-91979101D01*
X142243979Y-92004578D01*
X142243981Y-92004583D01*
X142269347Y-92048518D01*
X142269348Y-92048518D01*
X142283537Y-92073095D01*
X142283539Y-92073097D01*
X142283540Y-92073099D01*
X146494952Y-96284511D01*
X146550901Y-96340460D01*
X146550903Y-96340461D01*
X146550907Y-96340464D01*
X146619416Y-96380017D01*
X146619423Y-96380021D01*
X146695850Y-96400500D01*
X146826679Y-96400500D01*
X146893718Y-96420185D01*
X146914360Y-96436819D01*
X146958036Y-96480495D01*
X147066464Y-96543095D01*
X147096065Y-96551026D01*
X147155725Y-96587392D01*
X147186253Y-96650239D01*
X147183745Y-96702893D01*
X147174500Y-96737396D01*
X147174500Y-96737399D01*
X147174500Y-96862601D01*
X147206905Y-96983536D01*
X147269505Y-97091964D01*
X147358036Y-97180495D01*
X147466464Y-97243095D01*
X147587399Y-97275500D01*
X147587401Y-97275500D01*
X147712599Y-97275500D01*
X147712601Y-97275500D01*
X147833536Y-97243095D01*
X147941964Y-97180495D01*
X148030495Y-97091964D01*
X148093095Y-96983536D01*
X148125500Y-96862601D01*
X148125500Y-96737399D01*
X151124500Y-96737399D01*
X151124500Y-96862601D01*
X151156905Y-96983536D01*
X151219505Y-97091964D01*
X151308036Y-97180495D01*
X151416464Y-97243095D01*
X151537399Y-97275500D01*
X151537401Y-97275500D01*
X151662599Y-97275500D01*
X151662601Y-97275500D01*
X151783536Y-97243095D01*
X151891964Y-97180495D01*
X151924103Y-97148355D01*
X151985423Y-97114871D01*
X152055115Y-97119855D01*
X152111049Y-97161725D01*
X152131557Y-97203942D01*
X152156903Y-97298531D01*
X152156905Y-97298536D01*
X152219505Y-97406964D01*
X152308036Y-97495495D01*
X152416464Y-97558095D01*
X152537399Y-97590500D01*
X152537401Y-97590500D01*
X152662599Y-97590500D01*
X152662601Y-97590500D01*
X152783536Y-97558095D01*
X152891964Y-97495495D01*
X152980495Y-97406964D01*
X153043095Y-97298536D01*
X153075500Y-97177601D01*
X153075500Y-97052399D01*
X153043095Y-96931464D01*
X152980495Y-96823036D01*
X152891964Y-96734505D01*
X152783536Y-96671905D01*
X152783537Y-96671905D01*
X152743224Y-96661103D01*
X152662601Y-96639500D01*
X152537399Y-96639500D01*
X152456775Y-96661103D01*
X152416463Y-96671905D01*
X152308037Y-96734504D01*
X152308034Y-96734506D01*
X152275896Y-96766644D01*
X152214572Y-96800129D01*
X152144881Y-96795143D01*
X152088948Y-96753271D01*
X152068441Y-96711056D01*
X152067632Y-96708036D01*
X152043095Y-96616464D01*
X151980495Y-96508036D01*
X151891964Y-96419505D01*
X151783536Y-96356905D01*
X151783537Y-96356905D01*
X151722156Y-96340458D01*
X151662601Y-96324500D01*
X151537399Y-96324500D01*
X151477844Y-96340458D01*
X151416463Y-96356905D01*
X151308037Y-96419504D01*
X151308034Y-96419506D01*
X151219506Y-96508034D01*
X151219504Y-96508037D01*
X151156905Y-96616463D01*
X151156905Y-96616464D01*
X151124500Y-96737399D01*
X148125500Y-96737399D01*
X148093095Y-96616464D01*
X148030495Y-96508036D01*
X147941964Y-96419505D01*
X147833536Y-96356905D01*
X147833534Y-96356904D01*
X147803932Y-96348972D01*
X147744273Y-96312606D01*
X147713745Y-96249758D01*
X147716255Y-96197103D01*
X147725499Y-96162603D01*
X147725500Y-96162600D01*
X147725500Y-96037400D01*
X147725500Y-96037399D01*
X147693095Y-95916464D01*
X147630495Y-95808036D01*
X147541964Y-95719505D01*
X147433536Y-95656905D01*
X147433537Y-95656905D01*
X147312598Y-95624499D01*
X147304542Y-95623439D01*
X147304868Y-95620960D01*
X147300298Y-95619618D01*
X147282970Y-95619761D01*
X147267468Y-95609978D01*
X147249885Y-95604815D01*
X147238539Y-95591721D01*
X147223883Y-95582472D01*
X147216131Y-95565861D01*
X147204130Y-95552011D01*
X147201558Y-95534633D01*
X147194336Y-95519157D01*
X147195679Y-95494911D01*
X147194045Y-95483864D01*
X147195104Y-95476034D01*
X147225500Y-95362601D01*
X147225500Y-95251526D01*
X147226621Y-95243246D01*
X147237601Y-95218668D01*
X147245185Y-95192843D01*
X147251638Y-95187251D01*
X147255122Y-95179454D01*
X147277646Y-95164715D01*
X147297989Y-95147088D01*
X147306441Y-95145872D01*
X147313587Y-95141197D01*
X147340502Y-95140975D01*
X147367147Y-95137144D01*
X147377339Y-95140671D01*
X147383454Y-95140621D01*
X147391056Y-95145419D01*
X147411497Y-95152493D01*
X147516464Y-95213095D01*
X147637399Y-95245500D01*
X147637401Y-95245500D01*
X147762599Y-95245500D01*
X147762601Y-95245500D01*
X147883536Y-95213095D01*
X147991964Y-95150495D01*
X148080495Y-95061964D01*
X148143095Y-94953536D01*
X148175500Y-94832601D01*
X148175500Y-94707399D01*
X148143095Y-94586464D01*
X148080495Y-94478036D01*
X148034609Y-94432150D01*
X148025331Y-94415160D01*
X148011993Y-94401130D01*
X148008932Y-94385127D01*
X148001124Y-94370827D01*
X148002504Y-94351516D01*
X147998869Y-94332504D01*
X148004945Y-94317388D01*
X148006108Y-94301135D01*
X148017709Y-94285637D01*
X148024930Y-94267677D01*
X148042601Y-94252387D01*
X148047980Y-94245202D01*
X148050509Y-94243358D01*
X148057550Y-94238359D01*
X148058536Y-94238095D01*
X148166964Y-94175495D01*
X148218024Y-94124434D01*
X148226540Y-94118389D01*
X148250097Y-94110273D01*
X148271963Y-94098334D01*
X148290559Y-94096334D01*
X148292599Y-94095632D01*
X148293973Y-94095967D01*
X148298321Y-94095500D01*
X150844560Y-94095500D01*
X150844562Y-94095500D01*
X150920989Y-94075021D01*
X150989511Y-94035460D01*
X151045460Y-93979511D01*
X151990460Y-93034511D01*
X151996240Y-93024500D01*
X152030021Y-92965989D01*
X152050500Y-92889562D01*
X152050500Y-88910438D01*
X152047882Y-88900668D01*
X152030022Y-88834012D01*
X151990460Y-88765489D01*
X151144447Y-87919476D01*
X151110962Y-87858153D01*
X151115946Y-87788461D01*
X151157818Y-87732528D01*
X151165624Y-87727137D01*
X151181666Y-87716942D01*
X151201949Y-87711508D01*
X151310377Y-87648908D01*
X151348102Y-87611182D01*
X151359621Y-87603863D01*
X151380601Y-87597819D01*
X151399765Y-87587355D01*
X151413515Y-87588338D01*
X151426761Y-87584523D01*
X151447677Y-87590781D01*
X151469457Y-87592339D01*
X151480492Y-87600599D01*
X151493698Y-87604551D01*
X151507910Y-87621124D01*
X151525391Y-87634209D01*
X151533573Y-87651047D01*
X151539182Y-87657588D01*
X151540087Y-87664126D01*
X151541365Y-87663598D01*
X151544474Y-87671105D01*
X151607074Y-87779533D01*
X151695605Y-87868064D01*
X151804033Y-87930664D01*
X151924968Y-87963069D01*
X151924970Y-87963069D01*
X152050168Y-87963069D01*
X152050170Y-87963069D01*
X152171105Y-87930664D01*
X152279533Y-87868064D01*
X152368064Y-87779533D01*
X152430664Y-87671105D01*
X152463069Y-87550170D01*
X152463069Y-87424968D01*
X152430664Y-87304033D01*
X152368064Y-87195605D01*
X152279533Y-87107074D01*
X152171105Y-87044474D01*
X152171106Y-87044474D01*
X152130793Y-87033672D01*
X152050170Y-87012069D01*
X151924968Y-87012069D01*
X151844344Y-87033672D01*
X151804032Y-87044474D01*
X151695606Y-87107073D01*
X151667536Y-87135143D01*
X151606212Y-87168627D01*
X151536521Y-87163641D01*
X151480588Y-87121769D01*
X151466030Y-87091798D01*
X151464617Y-87092384D01*
X151461508Y-87084878D01*
X151461508Y-87084877D01*
X151398908Y-86976449D01*
X151310377Y-86887918D01*
X151201949Y-86825318D01*
X151201950Y-86825318D01*
X151135829Y-86807601D01*
X151081014Y-86792913D01*
X150955812Y-86792913D01*
X150900997Y-86807601D01*
X150834876Y-86825318D01*
X150726450Y-86887917D01*
X150726447Y-86887919D01*
X150637919Y-86976447D01*
X150637917Y-86976450D01*
X150575318Y-87084876D01*
X150575317Y-87084878D01*
X150574803Y-87086799D01*
X150573927Y-87088235D01*
X150572209Y-87092384D01*
X150571561Y-87092115D01*
X150538433Y-87146457D01*
X150475584Y-87176982D01*
X150406209Y-87168682D01*
X150367349Y-87142378D01*
X149316819Y-86091848D01*
X149283334Y-86030525D01*
X149280500Y-86004167D01*
X149280500Y-85637399D01*
X151214500Y-85637399D01*
X151214500Y-85762601D01*
X151246905Y-85883536D01*
X151309505Y-85991964D01*
X151398036Y-86080495D01*
X151506464Y-86143095D01*
X151627399Y-86175500D01*
X151627401Y-86175500D01*
X151752599Y-86175500D01*
X151752601Y-86175500D01*
X151873536Y-86143095D01*
X151981964Y-86080495D01*
X152070495Y-85991964D01*
X152133095Y-85883536D01*
X152165500Y-85762601D01*
X152165500Y-85637399D01*
X152133095Y-85516464D01*
X152070495Y-85408036D01*
X151981964Y-85319505D01*
X151873536Y-85256905D01*
X151873537Y-85256905D01*
X151833224Y-85246103D01*
X151752601Y-85224500D01*
X151627399Y-85224500D01*
X151546775Y-85246103D01*
X151506463Y-85256905D01*
X151398037Y-85319504D01*
X151398034Y-85319506D01*
X151309506Y-85408034D01*
X151309504Y-85408037D01*
X151246905Y-85516463D01*
X151244071Y-85527041D01*
X151214500Y-85637399D01*
X149280500Y-85637399D01*
X149280500Y-84519493D01*
X149300185Y-84452454D01*
X149352989Y-84406699D01*
X149422147Y-84396755D01*
X149485703Y-84425780D01*
X149523477Y-84484558D01*
X149524263Y-84487357D01*
X149536905Y-84534536D01*
X149599505Y-84642964D01*
X149688036Y-84731495D01*
X149796464Y-84794095D01*
X149917399Y-84826500D01*
X149917401Y-84826500D01*
X150042599Y-84826500D01*
X150042601Y-84826500D01*
X150163536Y-84794095D01*
X150271964Y-84731495D01*
X150360495Y-84642964D01*
X150423095Y-84534536D01*
X150455500Y-84413601D01*
X150455500Y-84288399D01*
X150423095Y-84167464D01*
X150360495Y-84059036D01*
X150271964Y-83970505D01*
X150163536Y-83907905D01*
X150163537Y-83907905D01*
X150123224Y-83897103D01*
X150042601Y-83875500D01*
X149917399Y-83875500D01*
X149836775Y-83897103D01*
X149796463Y-83907905D01*
X149688037Y-83970504D01*
X149688034Y-83970506D01*
X149599506Y-84059034D01*
X149599504Y-84059037D01*
X149575796Y-84100101D01*
X149536905Y-84167464D01*
X149524274Y-84214602D01*
X149487909Y-84274261D01*
X149425062Y-84304789D01*
X149355686Y-84296494D01*
X149301809Y-84252008D01*
X149280535Y-84185456D01*
X149280500Y-84182506D01*
X149280500Y-82973321D01*
X149300185Y-82906282D01*
X149316819Y-82885640D01*
X149326959Y-82875500D01*
X149360495Y-82841964D01*
X149423095Y-82733536D01*
X149455500Y-82612601D01*
X149455500Y-82487399D01*
X149435187Y-82411591D01*
X149436850Y-82341745D01*
X149476012Y-82283882D01*
X149540240Y-82256377D01*
X149554962Y-82255500D01*
X151502847Y-82255500D01*
X151569886Y-82275185D01*
X151615641Y-82327989D01*
X151625585Y-82397147D01*
X151596560Y-82460703D01*
X151537782Y-82498477D01*
X151534981Y-82499263D01*
X151516122Y-82504317D01*
X151506463Y-82506905D01*
X151398037Y-82569504D01*
X151398034Y-82569506D01*
X151309506Y-82658034D01*
X151309504Y-82658037D01*
X151246905Y-82766463D01*
X151243146Y-82780493D01*
X151214500Y-82887399D01*
X151214500Y-83012601D01*
X151246905Y-83133536D01*
X151309505Y-83241964D01*
X151398036Y-83330495D01*
X151506464Y-83393095D01*
X151627399Y-83425500D01*
X151627401Y-83425500D01*
X151752599Y-83425500D01*
X151752601Y-83425500D01*
X151873536Y-83393095D01*
X151981964Y-83330495D01*
X152070495Y-83241964D01*
X152133095Y-83133536D01*
X152165500Y-83012601D01*
X152165500Y-82887399D01*
X152133095Y-82766464D01*
X152070495Y-82658036D01*
X151981964Y-82569505D01*
X151873536Y-82506905D01*
X151873537Y-82506905D01*
X151863877Y-82504317D01*
X151845057Y-82499274D01*
X151785399Y-82462909D01*
X151754870Y-82400062D01*
X151763165Y-82330687D01*
X151807651Y-82276809D01*
X151874203Y-82255535D01*
X151877153Y-82255500D01*
X153570500Y-82255500D01*
X153637539Y-82275185D01*
X153683294Y-82327989D01*
X153694500Y-82379500D01*
X153694500Y-93376007D01*
X153699197Y-93419686D01*
X153710397Y-93471174D01*
X153712342Y-93479133D01*
X153712890Y-93481373D01*
X153755900Y-93562085D01*
X153756347Y-93562601D01*
X153801660Y-93614895D01*
X153819242Y-93632839D01*
X153819246Y-93632843D01*
X153819247Y-93632844D01*
X153819249Y-93632845D01*
X153898516Y-93677184D01*
X153899063Y-93677490D01*
X153966102Y-93697175D01*
X154024000Y-93705500D01*
X154024011Y-93705500D01*
X154027075Y-93705719D01*
X154028046Y-93706081D01*
X154028385Y-93706130D01*
X154028374Y-93706203D01*
X154092541Y-93730131D01*
X154134417Y-93786061D01*
X154139407Y-93855752D01*
X154125627Y-93891402D01*
X154079407Y-93971459D01*
X154079405Y-93971462D01*
X154062257Y-94035460D01*
X154047000Y-94092399D01*
X154047000Y-94217601D01*
X154079405Y-94338536D01*
X154142005Y-94446964D01*
X154230536Y-94535495D01*
X154338964Y-94598095D01*
X154459899Y-94630500D01*
X154459901Y-94630500D01*
X154585099Y-94630500D01*
X154585101Y-94630500D01*
X154706036Y-94598095D01*
X154814464Y-94535495D01*
X154902995Y-94446964D01*
X154965595Y-94338536D01*
X154998000Y-94217601D01*
X154998000Y-94092399D01*
X154965595Y-93971464D01*
X154919428Y-93891499D01*
X154902957Y-93823599D01*
X154925809Y-93757572D01*
X154980731Y-93714382D01*
X155026816Y-93705500D01*
X161228183Y-93705500D01*
X161228633Y-93705491D01*
X161235515Y-93705369D01*
X161244361Y-93705053D01*
X161308840Y-93692227D01*
X161374304Y-93667810D01*
X161397273Y-93657603D01*
X161466999Y-93598421D01*
X161508871Y-93542488D01*
X161516910Y-93530254D01*
X161570172Y-93485040D01*
X161629271Y-93476489D01*
X161629271Y-93475500D01*
X161636112Y-93475500D01*
X161636727Y-93475411D01*
X161637395Y-93475498D01*
X161637399Y-93475500D01*
X161637403Y-93475500D01*
X161762599Y-93475500D01*
X161762601Y-93475500D01*
X161883536Y-93443095D01*
X161991964Y-93380495D01*
X162037319Y-93335140D01*
X162098642Y-93301655D01*
X162168334Y-93306639D01*
X162212681Y-93335140D01*
X162258036Y-93380495D01*
X162366464Y-93443095D01*
X162487399Y-93475500D01*
X162487401Y-93475500D01*
X162612599Y-93475500D01*
X162612601Y-93475500D01*
X162733536Y-93443095D01*
X162841964Y-93380495D01*
X162912319Y-93310140D01*
X162973642Y-93276655D01*
X163043334Y-93281639D01*
X163087681Y-93310140D01*
X163158036Y-93380495D01*
X163266464Y-93443095D01*
X163387399Y-93475500D01*
X163387401Y-93475500D01*
X163512599Y-93475500D01*
X163512601Y-93475500D01*
X163633536Y-93443095D01*
X163741964Y-93380495D01*
X163787319Y-93335140D01*
X163848642Y-93301655D01*
X163918334Y-93306639D01*
X163950324Y-93327198D01*
X163951591Y-93325549D01*
X163958032Y-93330491D01*
X163958036Y-93330495D01*
X164066464Y-93393095D01*
X164187399Y-93425500D01*
X164187401Y-93425500D01*
X164256508Y-93425500D01*
X164323547Y-93445185D01*
X164365939Y-93491184D01*
X164403721Y-93562085D01*
X164404168Y-93562601D01*
X164449481Y-93614895D01*
X164467063Y-93632839D01*
X164467067Y-93632843D01*
X164467068Y-93632844D01*
X164467070Y-93632845D01*
X164546337Y-93677184D01*
X164546884Y-93677490D01*
X164613923Y-93697175D01*
X164671821Y-93705500D01*
X164671825Y-93705500D01*
X165275500Y-93705500D01*
X165342539Y-93725185D01*
X165388294Y-93777989D01*
X165399500Y-93829500D01*
X165399500Y-99314797D01*
X165379815Y-99381836D01*
X165327011Y-99427591D01*
X165257853Y-99437535D01*
X165194297Y-99408510D01*
X165163780Y-99368599D01*
X165030247Y-99091316D01*
X165023448Y-99080495D01*
X164850946Y-98805961D01*
X164640825Y-98542477D01*
X164402523Y-98304175D01*
X164139039Y-98094054D01*
X163853686Y-97914754D01*
X163853683Y-97914752D01*
X163550054Y-97768532D01*
X163231965Y-97657227D01*
X163231953Y-97657223D01*
X162903397Y-97582233D01*
X162903381Y-97582231D01*
X162568508Y-97544500D01*
X162568504Y-97544500D01*
X162231496Y-97544500D01*
X162231491Y-97544500D01*
X161896618Y-97582231D01*
X161896602Y-97582233D01*
X161568046Y-97657223D01*
X161568034Y-97657227D01*
X161249945Y-97768532D01*
X160946316Y-97914752D01*
X160660962Y-98094053D01*
X160397477Y-98304174D01*
X160159174Y-98542477D01*
X159949053Y-98805962D01*
X159769752Y-99091316D01*
X159623532Y-99394945D01*
X159512227Y-99713034D01*
X159512223Y-99713046D01*
X159437233Y-100041602D01*
X159437231Y-100041618D01*
X159399500Y-100376491D01*
X159399500Y-100713508D01*
X159437231Y-101048381D01*
X159437233Y-101048397D01*
X159512223Y-101376953D01*
X159512227Y-101376965D01*
X159623532Y-101695054D01*
X159769752Y-101998683D01*
X159769754Y-101998686D01*
X159949054Y-102284039D01*
X160159175Y-102547523D01*
X160397477Y-102785825D01*
X160660961Y-102995946D01*
X160945071Y-103174465D01*
X160946316Y-103175247D01*
X161223599Y-103308780D01*
X161275458Y-103355602D01*
X161293771Y-103423030D01*
X161272723Y-103489653D01*
X161218997Y-103534322D01*
X161169797Y-103544500D01*
X156368493Y-103544500D01*
X156301454Y-103524815D01*
X156255699Y-103472011D01*
X156245755Y-103402853D01*
X156274780Y-103339297D01*
X156333558Y-103301523D01*
X156336357Y-103300736D01*
X156383536Y-103288095D01*
X156491964Y-103225495D01*
X156580495Y-103136964D01*
X156643095Y-103028536D01*
X156675500Y-102907601D01*
X156675500Y-102782399D01*
X156643095Y-102661464D01*
X156580495Y-102553036D01*
X156491964Y-102464505D01*
X156383536Y-102401905D01*
X156383537Y-102401905D01*
X156343224Y-102391103D01*
X156262601Y-102369500D01*
X156137399Y-102369500D01*
X156056775Y-102391103D01*
X156016463Y-102401905D01*
X155908037Y-102464504D01*
X155908034Y-102464506D01*
X155819506Y-102553034D01*
X155819504Y-102553037D01*
X155756905Y-102661463D01*
X155756905Y-102661464D01*
X155724500Y-102782399D01*
X155724500Y-102907601D01*
X155756905Y-103028536D01*
X155819505Y-103136964D01*
X155908036Y-103225495D01*
X156016464Y-103288095D01*
X156063602Y-103300725D01*
X156123261Y-103337091D01*
X156153790Y-103399938D01*
X156145495Y-103469313D01*
X156101009Y-103523191D01*
X156034457Y-103544465D01*
X156031507Y-103544500D01*
X153468493Y-103544500D01*
X153401454Y-103524815D01*
X153355699Y-103472011D01*
X153345755Y-103402853D01*
X153374780Y-103339297D01*
X153433558Y-103301523D01*
X153436357Y-103300736D01*
X153483536Y-103288095D01*
X153591964Y-103225495D01*
X153680495Y-103136964D01*
X153743095Y-103028536D01*
X153775500Y-102907601D01*
X153775500Y-102782399D01*
X153743095Y-102661464D01*
X153680495Y-102553036D01*
X153591964Y-102464505D01*
X153483536Y-102401905D01*
X153483537Y-102401905D01*
X153443224Y-102391103D01*
X153362601Y-102369500D01*
X153237399Y-102369500D01*
X153156775Y-102391103D01*
X153116463Y-102401905D01*
X153008037Y-102464504D01*
X153008034Y-102464506D01*
X152919506Y-102553034D01*
X152919504Y-102553037D01*
X152856905Y-102661463D01*
X152856905Y-102661464D01*
X152824500Y-102782399D01*
X152824500Y-102907601D01*
X152856905Y-103028536D01*
X152919505Y-103136964D01*
X153008036Y-103225495D01*
X153116464Y-103288095D01*
X153163602Y-103300725D01*
X153223261Y-103337091D01*
X153253790Y-103399938D01*
X153245495Y-103469313D01*
X153201009Y-103523191D01*
X153134457Y-103544465D01*
X153131507Y-103544500D01*
X147117156Y-103544500D01*
X147050117Y-103524815D01*
X147004362Y-103472011D01*
X146994418Y-103402853D01*
X147023443Y-103339297D01*
X147055155Y-103313112D01*
X147141964Y-103262995D01*
X147230495Y-103174464D01*
X147293095Y-103066036D01*
X147325500Y-102945101D01*
X147325500Y-102819899D01*
X147293095Y-102698964D01*
X147230495Y-102590536D01*
X147141964Y-102502005D01*
X147033536Y-102439405D01*
X147033537Y-102439405D01*
X146993224Y-102428603D01*
X146912601Y-102407000D01*
X146787399Y-102407000D01*
X146706775Y-102428603D01*
X146666463Y-102439405D01*
X146558037Y-102502004D01*
X146558034Y-102502006D01*
X146469506Y-102590534D01*
X146469504Y-102590537D01*
X146406905Y-102698963D01*
X146406905Y-102698964D01*
X146374500Y-102819899D01*
X146374500Y-102945101D01*
X146406905Y-103066036D01*
X146469505Y-103174464D01*
X146558036Y-103262995D01*
X146644843Y-103313112D01*
X146693059Y-103363679D01*
X146706283Y-103432286D01*
X146680315Y-103497151D01*
X146623401Y-103537680D01*
X146582844Y-103544500D01*
X145441924Y-103544500D01*
X145374885Y-103524815D01*
X145329130Y-103472011D01*
X145319186Y-103402853D01*
X145322149Y-103388406D01*
X145323704Y-103382603D01*
X145350500Y-103282601D01*
X145350500Y-103157399D01*
X145318095Y-103036464D01*
X145279432Y-102969498D01*
X145262961Y-102901599D01*
X145279433Y-102845501D01*
X145318095Y-102778536D01*
X145350500Y-102657601D01*
X145350500Y-102532399D01*
X145318095Y-102411464D01*
X145255495Y-102303036D01*
X145166964Y-102214505D01*
X145058536Y-102151905D01*
X145058537Y-102151905D01*
X145018224Y-102141103D01*
X144937601Y-102119500D01*
X144812399Y-102119500D01*
X144731775Y-102141103D01*
X144691463Y-102151905D01*
X144583037Y-102214504D01*
X144583034Y-102214506D01*
X144494506Y-102303034D01*
X144494504Y-102303037D01*
X144431905Y-102411463D01*
X144431905Y-102411464D01*
X144399500Y-102532399D01*
X144399500Y-102657601D01*
X144418006Y-102726666D01*
X144431905Y-102778537D01*
X144431907Y-102778540D01*
X144470566Y-102845502D01*
X144487037Y-102913402D01*
X144470566Y-102969498D01*
X144431907Y-103036459D01*
X144431905Y-103036462D01*
X144419596Y-103082400D01*
X144399500Y-103157399D01*
X144399500Y-103282601D01*
X144426296Y-103382603D01*
X144427851Y-103388406D01*
X144426188Y-103458256D01*
X144387026Y-103516119D01*
X144322797Y-103543623D01*
X144308076Y-103544500D01*
X141908183Y-103544500D01*
X141841144Y-103524815D01*
X141795389Y-103472011D01*
X141785445Y-103402853D01*
X141800795Y-103358502D01*
X141813156Y-103337091D01*
X141818095Y-103328536D01*
X141850500Y-103207601D01*
X141850500Y-103082399D01*
X141818095Y-102961464D01*
X141755495Y-102853036D01*
X141755491Y-102853032D01*
X141750549Y-102846591D01*
X141753040Y-102844679D01*
X141726655Y-102796358D01*
X141731639Y-102726666D01*
X141752198Y-102694675D01*
X141750549Y-102693409D01*
X141755488Y-102686970D01*
X141755495Y-102686964D01*
X141818095Y-102578536D01*
X141850500Y-102457601D01*
X141850500Y-102332399D01*
X141818095Y-102211464D01*
X141755495Y-102103036D01*
X141666964Y-102014505D01*
X141558536Y-101951905D01*
X141558537Y-101951905D01*
X141518224Y-101941103D01*
X141437601Y-101919500D01*
X141312399Y-101919500D01*
X141231775Y-101941103D01*
X141191463Y-101951905D01*
X141083037Y-102014504D01*
X141083034Y-102014506D01*
X140994506Y-102103034D01*
X140994504Y-102103037D01*
X140931905Y-102211463D01*
X140931905Y-102211464D01*
X140899500Y-102332399D01*
X140899500Y-102457601D01*
X140931905Y-102578536D01*
X140994505Y-102686964D01*
X140994507Y-102686966D01*
X140999451Y-102693409D01*
X140996959Y-102695320D01*
X141023345Y-102743642D01*
X141018361Y-102813334D01*
X140997801Y-102845324D01*
X140999451Y-102846591D01*
X140994504Y-102853037D01*
X140931905Y-102961463D01*
X140931905Y-102961464D01*
X140899500Y-103082399D01*
X140899500Y-103207601D01*
X140904295Y-103225495D01*
X140931905Y-103328537D01*
X140931907Y-103328540D01*
X140949205Y-103358502D01*
X140965676Y-103426402D01*
X140942823Y-103492428D01*
X140887902Y-103535618D01*
X140841817Y-103544500D01*
X135343719Y-103544500D01*
X135276680Y-103524815D01*
X135230925Y-103472011D01*
X135220981Y-103402853D01*
X135223945Y-103388405D01*
X135225499Y-103382603D01*
X135225500Y-103382600D01*
X135225500Y-103257400D01*
X135216951Y-103225495D01*
X135193095Y-103136464D01*
X135130495Y-103028036D01*
X135041964Y-102939505D01*
X134933536Y-102876905D01*
X134933537Y-102876905D01*
X134893224Y-102866103D01*
X134812601Y-102844500D01*
X134687399Y-102844500D01*
X134606775Y-102866103D01*
X134566463Y-102876905D01*
X134458037Y-102939504D01*
X134458034Y-102939506D01*
X134369506Y-103028034D01*
X134369504Y-103028037D01*
X134306905Y-103136463D01*
X134274500Y-103257400D01*
X134274500Y-103382603D01*
X134276055Y-103388405D01*
X134274393Y-103458255D01*
X134235232Y-103516118D01*
X134171003Y-103543623D01*
X134156281Y-103544500D01*
X133130203Y-103544500D01*
X133063164Y-103524815D01*
X133017409Y-103472011D01*
X133007465Y-103402853D01*
X133036490Y-103339297D01*
X133076401Y-103308780D01*
X133286504Y-103207599D01*
X133353686Y-103175246D01*
X133639039Y-102995946D01*
X133902523Y-102785825D01*
X134140825Y-102547523D01*
X134350946Y-102284039D01*
X134530246Y-101998686D01*
X134676469Y-101695051D01*
X134767790Y-101434071D01*
X152949499Y-101434071D01*
X152974497Y-101559738D01*
X152974499Y-101559744D01*
X153023533Y-101678124D01*
X153023538Y-101678133D01*
X153094723Y-101784668D01*
X153094726Y-101784672D01*
X153185327Y-101875273D01*
X153185331Y-101875276D01*
X153291866Y-101946461D01*
X153291872Y-101946464D01*
X153291873Y-101946465D01*
X153410256Y-101995501D01*
X153410260Y-101995501D01*
X153410261Y-101995502D01*
X153535928Y-102020500D01*
X153535931Y-102020500D01*
X153664071Y-102020500D01*
X153773747Y-101998683D01*
X153789744Y-101995501D01*
X153908127Y-101946465D01*
X154014669Y-101875276D01*
X154105276Y-101784669D01*
X154176465Y-101678127D01*
X154225501Y-101559744D01*
X154250500Y-101434071D01*
X155249499Y-101434071D01*
X155274497Y-101559738D01*
X155274499Y-101559744D01*
X155323533Y-101678124D01*
X155323538Y-101678133D01*
X155394723Y-101784668D01*
X155394726Y-101784672D01*
X155485327Y-101875273D01*
X155485331Y-101875276D01*
X155591866Y-101946461D01*
X155591872Y-101946464D01*
X155591873Y-101946465D01*
X155710256Y-101995501D01*
X155710260Y-101995501D01*
X155710261Y-101995502D01*
X155835928Y-102020500D01*
X155835931Y-102020500D01*
X155964071Y-102020500D01*
X156073747Y-101998683D01*
X156089744Y-101995501D01*
X156208127Y-101946465D01*
X156314669Y-101875276D01*
X156405276Y-101784669D01*
X156476465Y-101678127D01*
X156525501Y-101559744D01*
X156550500Y-101434069D01*
X156550500Y-101305931D01*
X156550500Y-101305928D01*
X156525502Y-101180261D01*
X156525501Y-101180260D01*
X156525501Y-101180256D01*
X156476465Y-101061873D01*
X156476464Y-101061872D01*
X156476461Y-101061866D01*
X156405276Y-100955331D01*
X156405273Y-100955327D01*
X156314672Y-100864726D01*
X156314668Y-100864723D01*
X156208133Y-100793538D01*
X156208124Y-100793533D01*
X156089744Y-100744499D01*
X156089738Y-100744497D01*
X155964071Y-100719500D01*
X155964069Y-100719500D01*
X155835931Y-100719500D01*
X155835929Y-100719500D01*
X155710261Y-100744497D01*
X155710255Y-100744499D01*
X155591875Y-100793533D01*
X155591866Y-100793538D01*
X155485331Y-100864723D01*
X155485327Y-100864726D01*
X155394726Y-100955327D01*
X155394723Y-100955331D01*
X155323538Y-101061866D01*
X155323533Y-101061875D01*
X155274499Y-101180255D01*
X155274497Y-101180261D01*
X155249500Y-101305928D01*
X155249500Y-101305931D01*
X155249500Y-101434069D01*
X155249500Y-101434071D01*
X155249499Y-101434071D01*
X154250500Y-101434071D01*
X154250500Y-101434069D01*
X154250500Y-101305931D01*
X154250500Y-101305928D01*
X154225502Y-101180261D01*
X154225501Y-101180260D01*
X154225501Y-101180256D01*
X154176465Y-101061873D01*
X154176464Y-101061872D01*
X154176461Y-101061866D01*
X154105276Y-100955331D01*
X154105273Y-100955327D01*
X154014672Y-100864726D01*
X154014668Y-100864723D01*
X153908133Y-100793538D01*
X153908124Y-100793533D01*
X153789744Y-100744499D01*
X153789738Y-100744497D01*
X153664071Y-100719500D01*
X153664069Y-100719500D01*
X153535931Y-100719500D01*
X153535929Y-100719500D01*
X153410261Y-100744497D01*
X153410255Y-100744499D01*
X153291875Y-100793533D01*
X153291866Y-100793538D01*
X153185331Y-100864723D01*
X153185327Y-100864726D01*
X153094726Y-100955327D01*
X153094723Y-100955331D01*
X153023538Y-101061866D01*
X153023533Y-101061875D01*
X152974499Y-101180255D01*
X152974497Y-101180261D01*
X152949500Y-101305928D01*
X152949500Y-101305931D01*
X152949500Y-101434069D01*
X152949500Y-101434071D01*
X152949499Y-101434071D01*
X134767790Y-101434071D01*
X134787776Y-101376954D01*
X134862767Y-101048394D01*
X134900500Y-100713504D01*
X134900500Y-100682399D01*
X146174500Y-100682399D01*
X146174500Y-100807601D01*
X146206905Y-100928536D01*
X146269505Y-101036964D01*
X146358036Y-101125495D01*
X146466464Y-101188095D01*
X146587399Y-101220500D01*
X146587401Y-101220500D01*
X146712599Y-101220500D01*
X146712601Y-101220500D01*
X146833536Y-101188095D01*
X146941964Y-101125495D01*
X147030495Y-101036964D01*
X147093095Y-100928536D01*
X147125500Y-100807601D01*
X147125500Y-100682399D01*
X147093095Y-100561464D01*
X147030495Y-100453036D01*
X146941964Y-100364505D01*
X146833536Y-100301905D01*
X146833537Y-100301905D01*
X146793224Y-100291103D01*
X146712601Y-100269500D01*
X146587399Y-100269500D01*
X146506775Y-100291103D01*
X146466463Y-100301905D01*
X146358037Y-100364504D01*
X146358034Y-100364506D01*
X146269506Y-100453034D01*
X146269504Y-100453037D01*
X146206905Y-100561463D01*
X146206905Y-100561464D01*
X146174500Y-100682399D01*
X134900500Y-100682399D01*
X134900500Y-100376496D01*
X134862767Y-100041606D01*
X134787776Y-99713046D01*
X134768375Y-99657601D01*
X134736052Y-99565226D01*
X134724565Y-99532399D01*
X149524500Y-99532399D01*
X149524500Y-99657601D01*
X149556905Y-99778536D01*
X149619505Y-99886964D01*
X149708036Y-99975495D01*
X149816464Y-100038095D01*
X149937399Y-100070500D01*
X149937401Y-100070500D01*
X150062599Y-100070500D01*
X150062601Y-100070500D01*
X150183536Y-100038095D01*
X150291964Y-99975495D01*
X150380495Y-99886964D01*
X150443095Y-99778536D01*
X150475500Y-99657601D01*
X150475500Y-99532399D01*
X150443095Y-99411464D01*
X150380495Y-99303036D01*
X150291964Y-99214505D01*
X150183536Y-99151905D01*
X150183537Y-99151905D01*
X150131997Y-99138095D01*
X150062601Y-99119500D01*
X149937399Y-99119500D01*
X149868003Y-99138095D01*
X149816463Y-99151905D01*
X149708037Y-99214504D01*
X149708034Y-99214506D01*
X149619506Y-99303034D01*
X149619504Y-99303037D01*
X149556905Y-99411463D01*
X149556905Y-99411464D01*
X149524500Y-99532399D01*
X134724565Y-99532399D01*
X134684438Y-99417723D01*
X134676469Y-99394949D01*
X134530246Y-99091314D01*
X134350946Y-98805961D01*
X134267707Y-98701583D01*
X134267707Y-98701581D01*
X134212536Y-98632399D01*
X136074500Y-98632399D01*
X136074500Y-98757601D01*
X136106905Y-98878536D01*
X136169505Y-98986964D01*
X136258036Y-99075495D01*
X136366464Y-99138095D01*
X136487399Y-99170500D01*
X136487401Y-99170500D01*
X136612599Y-99170500D01*
X136612601Y-99170500D01*
X136733536Y-99138095D01*
X136841964Y-99075495D01*
X136930495Y-98986964D01*
X136993095Y-98878536D01*
X137025500Y-98757601D01*
X137025500Y-98637399D01*
X147674500Y-98637399D01*
X147674500Y-98762601D01*
X147706905Y-98883536D01*
X147769505Y-98991964D01*
X147858036Y-99080495D01*
X147966464Y-99143095D01*
X148087399Y-99175500D01*
X148087401Y-99175500D01*
X148212599Y-99175500D01*
X148212601Y-99175500D01*
X148333536Y-99143095D01*
X148441964Y-99080495D01*
X148530495Y-98991964D01*
X148593095Y-98883536D01*
X148625500Y-98762601D01*
X148625500Y-98637399D01*
X148593095Y-98516464D01*
X148530495Y-98408036D01*
X148441964Y-98319505D01*
X148333536Y-98256905D01*
X148333537Y-98256905D01*
X148293224Y-98246103D01*
X148212601Y-98224500D01*
X148087399Y-98224500D01*
X148006775Y-98246103D01*
X147966463Y-98256905D01*
X147858037Y-98319504D01*
X147858034Y-98319506D01*
X147769506Y-98408034D01*
X147769504Y-98408037D01*
X147706905Y-98516463D01*
X147698429Y-98548095D01*
X147674500Y-98637399D01*
X137025500Y-98637399D01*
X137025500Y-98632399D01*
X136993095Y-98511464D01*
X136930495Y-98403036D01*
X136841964Y-98314505D01*
X136733536Y-98251905D01*
X136733537Y-98251905D01*
X136693224Y-98241103D01*
X136612601Y-98219500D01*
X136487399Y-98219500D01*
X136406775Y-98241103D01*
X136366463Y-98251905D01*
X136258037Y-98314504D01*
X136258034Y-98314506D01*
X136169506Y-98403034D01*
X136169504Y-98403037D01*
X136106905Y-98511463D01*
X136090702Y-98571931D01*
X136074500Y-98632399D01*
X134212536Y-98632399D01*
X134140831Y-98542483D01*
X133902522Y-98304174D01*
X133639034Y-98094050D01*
X133639029Y-98094046D01*
X133575718Y-98054265D01*
X133575716Y-98054265D01*
X133421555Y-97957399D01*
X142124500Y-97957399D01*
X142124500Y-98082601D01*
X142156905Y-98203536D01*
X142219505Y-98311964D01*
X142308036Y-98400495D01*
X142416464Y-98463095D01*
X142537399Y-98495500D01*
X142537401Y-98495500D01*
X142662599Y-98495500D01*
X142662601Y-98495500D01*
X142783536Y-98463095D01*
X142891964Y-98400495D01*
X142980495Y-98311964D01*
X143043095Y-98203536D01*
X143075500Y-98082601D01*
X143075500Y-97957399D01*
X143624500Y-97957399D01*
X143624500Y-98082601D01*
X143656905Y-98203536D01*
X143719505Y-98311964D01*
X143808036Y-98400495D01*
X143916464Y-98463095D01*
X144037399Y-98495500D01*
X144037401Y-98495500D01*
X144162599Y-98495500D01*
X144162601Y-98495500D01*
X144283536Y-98463095D01*
X144391964Y-98400495D01*
X144480495Y-98311964D01*
X144543095Y-98203536D01*
X144575500Y-98082601D01*
X144575500Y-97957399D01*
X145624500Y-97957399D01*
X145624500Y-98082601D01*
X145656905Y-98203536D01*
X145719505Y-98311964D01*
X145808036Y-98400495D01*
X145916464Y-98463095D01*
X146037399Y-98495500D01*
X146037401Y-98495500D01*
X146162599Y-98495500D01*
X146162601Y-98495500D01*
X146283536Y-98463095D01*
X146391964Y-98400495D01*
X146480495Y-98311964D01*
X146543095Y-98203536D01*
X146575500Y-98082601D01*
X146575500Y-98042399D01*
X154074500Y-98042399D01*
X154074500Y-98167601D01*
X154106905Y-98288536D01*
X154169505Y-98396964D01*
X154258036Y-98485495D01*
X154366464Y-98548095D01*
X154487399Y-98580500D01*
X154487401Y-98580500D01*
X154612599Y-98580500D01*
X154612601Y-98580500D01*
X154733536Y-98548095D01*
X154841964Y-98485495D01*
X154930495Y-98396964D01*
X154993095Y-98288536D01*
X155025500Y-98167601D01*
X155025500Y-98042399D01*
X154993095Y-97921464D01*
X154930495Y-97813036D01*
X154841964Y-97724505D01*
X154733536Y-97661905D01*
X154733537Y-97661905D01*
X154693224Y-97651103D01*
X154612601Y-97629500D01*
X154487399Y-97629500D01*
X154406775Y-97651103D01*
X154366463Y-97661905D01*
X154258037Y-97724504D01*
X154258034Y-97724506D01*
X154169506Y-97813034D01*
X154169504Y-97813037D01*
X154106905Y-97921463D01*
X154106905Y-97921464D01*
X154074500Y-98042399D01*
X146575500Y-98042399D01*
X146575500Y-97957399D01*
X146543095Y-97836464D01*
X146480495Y-97728036D01*
X146391964Y-97639505D01*
X146283536Y-97576905D01*
X146283537Y-97576905D01*
X146213337Y-97558095D01*
X146162601Y-97544500D01*
X146037399Y-97544500D01*
X145986663Y-97558095D01*
X145916463Y-97576905D01*
X145808037Y-97639504D01*
X145808034Y-97639506D01*
X145719506Y-97728034D01*
X145719504Y-97728037D01*
X145656905Y-97836463D01*
X145656905Y-97836464D01*
X145624500Y-97957399D01*
X144575500Y-97957399D01*
X144543095Y-97836464D01*
X144480495Y-97728036D01*
X144391964Y-97639505D01*
X144283536Y-97576905D01*
X144283537Y-97576905D01*
X144213337Y-97558095D01*
X144162601Y-97544500D01*
X144037399Y-97544500D01*
X143986663Y-97558095D01*
X143916463Y-97576905D01*
X143808037Y-97639504D01*
X143808034Y-97639506D01*
X143719506Y-97728034D01*
X143719504Y-97728037D01*
X143656905Y-97836463D01*
X143656905Y-97836464D01*
X143624500Y-97957399D01*
X143075500Y-97957399D01*
X143043095Y-97836464D01*
X142980495Y-97728036D01*
X142891964Y-97639505D01*
X142783536Y-97576905D01*
X142783537Y-97576905D01*
X142713337Y-97558095D01*
X142662601Y-97544500D01*
X142537399Y-97544500D01*
X142486663Y-97558095D01*
X142416463Y-97576905D01*
X142308037Y-97639504D01*
X142308034Y-97639506D01*
X142219506Y-97728034D01*
X142219504Y-97728037D01*
X142156905Y-97836463D01*
X142156905Y-97836464D01*
X142124500Y-97957399D01*
X133421555Y-97957399D01*
X133353683Y-97914752D01*
X133050054Y-97768532D01*
X132731965Y-97657227D01*
X132731953Y-97657223D01*
X132403397Y-97582233D01*
X132403381Y-97582231D01*
X132068508Y-97544500D01*
X132068504Y-97544500D01*
X131731496Y-97544500D01*
X131731491Y-97544500D01*
X131396618Y-97582231D01*
X131396602Y-97582233D01*
X131068046Y-97657223D01*
X131068034Y-97657227D01*
X130749945Y-97768532D01*
X130446316Y-97914752D01*
X130160962Y-98094053D01*
X129897477Y-98304174D01*
X129659174Y-98542477D01*
X129449053Y-98805962D01*
X129269752Y-99091316D01*
X129136220Y-99368599D01*
X129089398Y-99420458D01*
X129021970Y-99438771D01*
X128955347Y-99417723D01*
X128910678Y-99363997D01*
X128900500Y-99314797D01*
X128900500Y-96937399D01*
X134624500Y-96937399D01*
X134624500Y-97062601D01*
X134656905Y-97183536D01*
X134719505Y-97291964D01*
X134808036Y-97380495D01*
X134916464Y-97443095D01*
X135037399Y-97475500D01*
X135037401Y-97475500D01*
X135162599Y-97475500D01*
X135162601Y-97475500D01*
X135283536Y-97443095D01*
X135391964Y-97380495D01*
X135480495Y-97291964D01*
X135543095Y-97183536D01*
X135575500Y-97062601D01*
X135575500Y-96937399D01*
X135543095Y-96816464D01*
X135480495Y-96708036D01*
X135391964Y-96619505D01*
X135283536Y-96556905D01*
X135283537Y-96556905D01*
X135231997Y-96543095D01*
X135162601Y-96524500D01*
X135037399Y-96524500D01*
X134968003Y-96543095D01*
X134916463Y-96556905D01*
X134808037Y-96619504D01*
X134808034Y-96619506D01*
X134719506Y-96708034D01*
X134719504Y-96708037D01*
X134656905Y-96816463D01*
X134655144Y-96823036D01*
X134624500Y-96937399D01*
X128900500Y-96937399D01*
X128900500Y-96207399D01*
X138349500Y-96207399D01*
X138349500Y-96332601D01*
X138381905Y-96453536D01*
X138444505Y-96561964D01*
X138533036Y-96650495D01*
X138641464Y-96713095D01*
X138762399Y-96745500D01*
X138762401Y-96745500D01*
X138887599Y-96745500D01*
X138887601Y-96745500D01*
X139008536Y-96713095D01*
X139116964Y-96650495D01*
X139205495Y-96561964D01*
X139268095Y-96453536D01*
X139300500Y-96332601D01*
X139300500Y-96207399D01*
X139268095Y-96086464D01*
X139205495Y-95978036D01*
X139116964Y-95889505D01*
X139008536Y-95826905D01*
X139008537Y-95826905D01*
X138968224Y-95816103D01*
X138887601Y-95794500D01*
X138762399Y-95794500D01*
X138681775Y-95816103D01*
X138641463Y-95826905D01*
X138533037Y-95889504D01*
X138533034Y-95889506D01*
X138444506Y-95978034D01*
X138444504Y-95978037D01*
X138381905Y-96086463D01*
X138381905Y-96086464D01*
X138349500Y-96207399D01*
X128900500Y-96207399D01*
X128900500Y-95382399D01*
X129349500Y-95382399D01*
X129349500Y-95507601D01*
X129381905Y-95628536D01*
X129444505Y-95736964D01*
X129533036Y-95825495D01*
X129641464Y-95888095D01*
X129762399Y-95920500D01*
X129762401Y-95920500D01*
X129887599Y-95920500D01*
X129887601Y-95920500D01*
X130008536Y-95888095D01*
X130116964Y-95825495D01*
X130205495Y-95736964D01*
X130268095Y-95628536D01*
X130300500Y-95507601D01*
X130300500Y-95382399D01*
X130268095Y-95261464D01*
X130205495Y-95153036D01*
X130116964Y-95064505D01*
X130008536Y-95001905D01*
X130008537Y-95001905D01*
X129968224Y-94991103D01*
X129887601Y-94969500D01*
X129762399Y-94969500D01*
X129681775Y-94991103D01*
X129641463Y-95001905D01*
X129533037Y-95064504D01*
X129533034Y-95064506D01*
X129444506Y-95153034D01*
X129444504Y-95153037D01*
X129381905Y-95261463D01*
X129381905Y-95261464D01*
X129349500Y-95382399D01*
X128900500Y-95382399D01*
X128900500Y-93437399D01*
X134624500Y-93437399D01*
X134624500Y-93562601D01*
X134656905Y-93683536D01*
X134719505Y-93791964D01*
X134808036Y-93880495D01*
X134916464Y-93943095D01*
X135037399Y-93975500D01*
X135037401Y-93975500D01*
X135162599Y-93975500D01*
X135162601Y-93975500D01*
X135283536Y-93943095D01*
X135391964Y-93880495D01*
X135480495Y-93791964D01*
X135543095Y-93683536D01*
X135575500Y-93562601D01*
X135575500Y-93437399D01*
X135543095Y-93316464D01*
X135480495Y-93208036D01*
X135391964Y-93119505D01*
X135283536Y-93056905D01*
X135283537Y-93056905D01*
X135243224Y-93046103D01*
X135162601Y-93024500D01*
X135037399Y-93024500D01*
X134956775Y-93046103D01*
X134916463Y-93056905D01*
X134808037Y-93119504D01*
X134808034Y-93119506D01*
X134719506Y-93208034D01*
X134719504Y-93208037D01*
X134656905Y-93316463D01*
X134647408Y-93351905D01*
X134624500Y-93437399D01*
X128900500Y-93437399D01*
X128900500Y-92132399D01*
X131874500Y-92132399D01*
X131874500Y-92257601D01*
X131906905Y-92378536D01*
X131969505Y-92486964D01*
X132058036Y-92575495D01*
X132166464Y-92638095D01*
X132287399Y-92670500D01*
X132287401Y-92670500D01*
X132412599Y-92670500D01*
X132412601Y-92670500D01*
X132533536Y-92638095D01*
X132641964Y-92575495D01*
X132730495Y-92486964D01*
X132793095Y-92378536D01*
X132825500Y-92257601D01*
X132825500Y-92132399D01*
X132793095Y-92011464D01*
X132750334Y-91937399D01*
X138774500Y-91937399D01*
X138774500Y-92062601D01*
X138806905Y-92183536D01*
X138869505Y-92291964D01*
X138958036Y-92380495D01*
X139066464Y-92443095D01*
X139187399Y-92475500D01*
X139187401Y-92475500D01*
X139312599Y-92475500D01*
X139312601Y-92475500D01*
X139433536Y-92443095D01*
X139541964Y-92380495D01*
X139630495Y-92291964D01*
X139693095Y-92183536D01*
X139725500Y-92062601D01*
X139725500Y-91937399D01*
X139693095Y-91816464D01*
X139630495Y-91708036D01*
X139541964Y-91619505D01*
X139433536Y-91556905D01*
X139433537Y-91556905D01*
X139393224Y-91546103D01*
X139312601Y-91524500D01*
X139187399Y-91524500D01*
X139106775Y-91546103D01*
X139066463Y-91556905D01*
X138958037Y-91619504D01*
X138958034Y-91619506D01*
X138869506Y-91708034D01*
X138869504Y-91708037D01*
X138806905Y-91816463D01*
X138802581Y-91832601D01*
X138774500Y-91937399D01*
X132750334Y-91937399D01*
X132730495Y-91903036D01*
X132641964Y-91814505D01*
X132533536Y-91751905D01*
X132533537Y-91751905D01*
X132485796Y-91739113D01*
X132412601Y-91719500D01*
X132287399Y-91719500D01*
X132214204Y-91739113D01*
X132166463Y-91751905D01*
X132058037Y-91814504D01*
X132058034Y-91814506D01*
X131969506Y-91903034D01*
X131969504Y-91903037D01*
X131906905Y-92011463D01*
X131906905Y-92011464D01*
X131874500Y-92132399D01*
X128900500Y-92132399D01*
X128900500Y-89832399D01*
X129349500Y-89832399D01*
X129349500Y-89957601D01*
X129381905Y-90078536D01*
X129444505Y-90186964D01*
X129533036Y-90275495D01*
X129641464Y-90338095D01*
X129762399Y-90370500D01*
X129762401Y-90370500D01*
X129887599Y-90370500D01*
X129887601Y-90370500D01*
X130008536Y-90338095D01*
X130116964Y-90275495D01*
X130205495Y-90186964D01*
X130236998Y-90132399D01*
X132024500Y-90132399D01*
X132024500Y-90257601D01*
X132056905Y-90378536D01*
X132119505Y-90486964D01*
X132208036Y-90575495D01*
X132316464Y-90638095D01*
X132437399Y-90670500D01*
X132437401Y-90670500D01*
X132562599Y-90670500D01*
X132562601Y-90670500D01*
X132683536Y-90638095D01*
X132791964Y-90575495D01*
X132880495Y-90486964D01*
X132943095Y-90378536D01*
X132954118Y-90337399D01*
X135824500Y-90337399D01*
X135824500Y-90462601D01*
X135844543Y-90537400D01*
X135856905Y-90583536D01*
X135919504Y-90691962D01*
X135919506Y-90691965D01*
X135937360Y-90709819D01*
X135970845Y-90771142D01*
X135965861Y-90840834D01*
X135937360Y-90885181D01*
X135919506Y-90903034D01*
X135919504Y-90903037D01*
X135856905Y-91011463D01*
X135848531Y-91042714D01*
X135824500Y-91132399D01*
X135824500Y-91257601D01*
X135856905Y-91378536D01*
X135919505Y-91486964D01*
X136008036Y-91575495D01*
X136116464Y-91638095D01*
X136237399Y-91670500D01*
X136237401Y-91670500D01*
X136362599Y-91670500D01*
X136362601Y-91670500D01*
X136483536Y-91638095D01*
X136591964Y-91575495D01*
X136680495Y-91486964D01*
X136743095Y-91378536D01*
X136775500Y-91257601D01*
X136775500Y-91132399D01*
X136743095Y-91011464D01*
X136680495Y-90903036D01*
X136662640Y-90885181D01*
X136629155Y-90823858D01*
X136634139Y-90754166D01*
X136662640Y-90709819D01*
X136668630Y-90703829D01*
X136680495Y-90691964D01*
X136743095Y-90583536D01*
X136775500Y-90462601D01*
X136775500Y-90337399D01*
X136743095Y-90216464D01*
X136680495Y-90108036D01*
X136659858Y-90087399D01*
X138424500Y-90087399D01*
X138424500Y-90212601D01*
X138456905Y-90333536D01*
X138519505Y-90441964D01*
X138608036Y-90530495D01*
X138716464Y-90593095D01*
X138837399Y-90625500D01*
X138837401Y-90625500D01*
X138962599Y-90625500D01*
X138962601Y-90625500D01*
X139083536Y-90593095D01*
X139191964Y-90530495D01*
X139280495Y-90441964D01*
X139283131Y-90437399D01*
X140774500Y-90437399D01*
X140774500Y-90562601D01*
X140806905Y-90683536D01*
X140869505Y-90791964D01*
X140958036Y-90880495D01*
X141066464Y-90943095D01*
X141187399Y-90975500D01*
X141187401Y-90975500D01*
X141312599Y-90975500D01*
X141312601Y-90975500D01*
X141433536Y-90943095D01*
X141541964Y-90880495D01*
X141630495Y-90791964D01*
X141693095Y-90683536D01*
X141725500Y-90562601D01*
X141725500Y-90437399D01*
X141693095Y-90316464D01*
X141630495Y-90208036D01*
X141541964Y-90119505D01*
X141433536Y-90056905D01*
X141433537Y-90056905D01*
X141393224Y-90046103D01*
X141312601Y-90024500D01*
X141187399Y-90024500D01*
X141106775Y-90046103D01*
X141066463Y-90056905D01*
X140958037Y-90119504D01*
X140958034Y-90119506D01*
X140869506Y-90208034D01*
X140869504Y-90208037D01*
X140806905Y-90316463D01*
X140806905Y-90316464D01*
X140774500Y-90437399D01*
X139283131Y-90437399D01*
X139312988Y-90385684D01*
X139323619Y-90367271D01*
X139323619Y-90367270D01*
X139324762Y-90365289D01*
X139343095Y-90333536D01*
X139375500Y-90212601D01*
X139375500Y-90087399D01*
X139347149Y-89981593D01*
X139348812Y-89911744D01*
X139387974Y-89853881D01*
X139452203Y-89826377D01*
X139459026Y-89825970D01*
X139462598Y-89825500D01*
X139462601Y-89825500D01*
X139583536Y-89793095D01*
X139691964Y-89730495D01*
X139780495Y-89641964D01*
X139843095Y-89533536D01*
X139875500Y-89412601D01*
X139875500Y-89287399D01*
X139843095Y-89166464D01*
X139780495Y-89058036D01*
X139691964Y-88969505D01*
X139627694Y-88932399D01*
X140124500Y-88932399D01*
X140124500Y-89057601D01*
X140156905Y-89178536D01*
X140219505Y-89286964D01*
X140308036Y-89375495D01*
X140416464Y-89438095D01*
X140537399Y-89470500D01*
X140537401Y-89470500D01*
X140662599Y-89470500D01*
X140662601Y-89470500D01*
X140783536Y-89438095D01*
X140891964Y-89375495D01*
X140980495Y-89286964D01*
X141043095Y-89178536D01*
X141075500Y-89057601D01*
X141075500Y-88932399D01*
X141043095Y-88811464D01*
X140980495Y-88703036D01*
X140891964Y-88614505D01*
X140783536Y-88551905D01*
X140783537Y-88551905D01*
X140743224Y-88541103D01*
X140662601Y-88519500D01*
X140537399Y-88519500D01*
X140456775Y-88541103D01*
X140416463Y-88551905D01*
X140308037Y-88614504D01*
X140308034Y-88614506D01*
X140219506Y-88703034D01*
X140219504Y-88703037D01*
X140156905Y-88811463D01*
X140150864Y-88834010D01*
X140124500Y-88932399D01*
X139627694Y-88932399D01*
X139583536Y-88906905D01*
X139583537Y-88906905D01*
X139518002Y-88889345D01*
X139462601Y-88874500D01*
X139337399Y-88874500D01*
X139281998Y-88889345D01*
X139216463Y-88906905D01*
X139108037Y-88969504D01*
X139108034Y-88969506D01*
X139019506Y-89058034D01*
X139019504Y-89058037D01*
X138956905Y-89166463D01*
X138954727Y-89174593D01*
X138924500Y-89287399D01*
X138924500Y-89412601D01*
X138946069Y-89493095D01*
X138952851Y-89518406D01*
X138951188Y-89588256D01*
X138912026Y-89646119D01*
X138847797Y-89673623D01*
X138840973Y-89674029D01*
X138837401Y-89674499D01*
X138716463Y-89706905D01*
X138608037Y-89769504D01*
X138608034Y-89769506D01*
X138519506Y-89858034D01*
X138519504Y-89858037D01*
X138456905Y-89966463D01*
X138456905Y-89966464D01*
X138424500Y-90087399D01*
X136659858Y-90087399D01*
X136591964Y-90019505D01*
X136483536Y-89956905D01*
X136483537Y-89956905D01*
X136443224Y-89946103D01*
X136362601Y-89924500D01*
X136237399Y-89924500D01*
X136156775Y-89946103D01*
X136116463Y-89956905D01*
X136008037Y-90019504D01*
X136008034Y-90019506D01*
X135919506Y-90108034D01*
X135919504Y-90108037D01*
X135856905Y-90216463D01*
X135852330Y-90233536D01*
X135824500Y-90337399D01*
X132954118Y-90337399D01*
X132975500Y-90257601D01*
X132975500Y-90132399D01*
X132943095Y-90011464D01*
X132880495Y-89903036D01*
X132791964Y-89814505D01*
X132683536Y-89751905D01*
X132683537Y-89751905D01*
X132643224Y-89741103D01*
X132562601Y-89719500D01*
X132437399Y-89719500D01*
X132356775Y-89741103D01*
X132316463Y-89751905D01*
X132208037Y-89814504D01*
X132208034Y-89814506D01*
X132119506Y-89903034D01*
X132119504Y-89903037D01*
X132056905Y-90011463D01*
X132053412Y-90024500D01*
X132024500Y-90132399D01*
X130236998Y-90132399D01*
X130268095Y-90078536D01*
X130300500Y-89957601D01*
X130300500Y-89832399D01*
X130268095Y-89711464D01*
X130205495Y-89603036D01*
X130116964Y-89514505D01*
X130008536Y-89451905D01*
X130008537Y-89451905D01*
X129956997Y-89438095D01*
X129887601Y-89419500D01*
X129762399Y-89419500D01*
X129693003Y-89438095D01*
X129641463Y-89451905D01*
X129533037Y-89514504D01*
X129533034Y-89514506D01*
X129444506Y-89603034D01*
X129444504Y-89603037D01*
X129381905Y-89711463D01*
X129371069Y-89751905D01*
X129349500Y-89832399D01*
X128900500Y-89832399D01*
X128900500Y-88987399D01*
X136074500Y-88987399D01*
X136074500Y-89112601D01*
X136106905Y-89233536D01*
X136169505Y-89341964D01*
X136258036Y-89430495D01*
X136366464Y-89493095D01*
X136487399Y-89525500D01*
X136487401Y-89525500D01*
X136612599Y-89525500D01*
X136612601Y-89525500D01*
X136733536Y-89493095D01*
X136841964Y-89430495D01*
X136930495Y-89341964D01*
X136993095Y-89233536D01*
X137025500Y-89112601D01*
X137025500Y-88987399D01*
X136993095Y-88866464D01*
X136930495Y-88758036D01*
X136841964Y-88669505D01*
X136733536Y-88606905D01*
X136733537Y-88606905D01*
X136668599Y-88589505D01*
X136612601Y-88574500D01*
X136487399Y-88574500D01*
X136431401Y-88589505D01*
X136366463Y-88606905D01*
X136258037Y-88669504D01*
X136258034Y-88669506D01*
X136169506Y-88758034D01*
X136169504Y-88758037D01*
X136106905Y-88866463D01*
X136100774Y-88889345D01*
X136074500Y-88987399D01*
X128900500Y-88987399D01*
X128900500Y-86632399D01*
X137649500Y-86632399D01*
X137649500Y-86757601D01*
X137681905Y-86878536D01*
X137744505Y-86986964D01*
X137833036Y-87075495D01*
X137941464Y-87138095D01*
X138062399Y-87170500D01*
X138062401Y-87170500D01*
X138187599Y-87170500D01*
X138187601Y-87170500D01*
X138308536Y-87138095D01*
X138416964Y-87075495D01*
X138505495Y-86986964D01*
X138568095Y-86878536D01*
X138600500Y-86757601D01*
X138600500Y-86632399D01*
X138568095Y-86511464D01*
X138505495Y-86403036D01*
X138416964Y-86314505D01*
X138308536Y-86251905D01*
X138308537Y-86251905D01*
X138247835Y-86235640D01*
X138187601Y-86219500D01*
X138062399Y-86219500D01*
X138002165Y-86235640D01*
X137941463Y-86251905D01*
X137833037Y-86314504D01*
X137833034Y-86314506D01*
X137744506Y-86403034D01*
X137744504Y-86403037D01*
X137681905Y-86511463D01*
X137674770Y-86538093D01*
X137649500Y-86632399D01*
X128900500Y-86632399D01*
X128900500Y-86032399D01*
X129374500Y-86032399D01*
X129374500Y-86157601D01*
X129406905Y-86278536D01*
X129469505Y-86386964D01*
X129558036Y-86475495D01*
X129666464Y-86538095D01*
X129787399Y-86570500D01*
X129787401Y-86570500D01*
X129912599Y-86570500D01*
X129912601Y-86570500D01*
X130033536Y-86538095D01*
X130141964Y-86475495D01*
X130230495Y-86386964D01*
X130293095Y-86278536D01*
X130325500Y-86157601D01*
X130325500Y-86032399D01*
X130293095Y-85911464D01*
X130230495Y-85803036D01*
X130141964Y-85714505D01*
X130033536Y-85651905D01*
X130033537Y-85651905D01*
X129993224Y-85641103D01*
X129912601Y-85619500D01*
X129787399Y-85619500D01*
X129706775Y-85641103D01*
X129666463Y-85651905D01*
X129558037Y-85714504D01*
X129558034Y-85714506D01*
X129469506Y-85803034D01*
X129469504Y-85803037D01*
X129406905Y-85911463D01*
X129393203Y-85962599D01*
X129374500Y-86032399D01*
X128900500Y-86032399D01*
X128900500Y-83974899D01*
X131812000Y-83974899D01*
X131812000Y-84100101D01*
X131844405Y-84221036D01*
X131883296Y-84288399D01*
X131907004Y-84329462D01*
X131907006Y-84329465D01*
X131937360Y-84359819D01*
X131970845Y-84421142D01*
X131965861Y-84490834D01*
X131937360Y-84535181D01*
X131919506Y-84553034D01*
X131919504Y-84553037D01*
X131856905Y-84661463D01*
X131851428Y-84681905D01*
X131824500Y-84782399D01*
X131824500Y-84907601D01*
X131856905Y-85028536D01*
X131900607Y-85104232D01*
X131919504Y-85136962D01*
X131919506Y-85136965D01*
X132013783Y-85231242D01*
X132012433Y-85232591D01*
X132047455Y-85280560D01*
X132051605Y-85350306D01*
X132017389Y-85411224D01*
X132009357Y-85418183D01*
X131919506Y-85508034D01*
X131919504Y-85508037D01*
X131856905Y-85616463D01*
X131849391Y-85644505D01*
X131824500Y-85737399D01*
X131824500Y-85862601D01*
X131856905Y-85983536D01*
X131919505Y-86091964D01*
X132008036Y-86180495D01*
X132116464Y-86243095D01*
X132237399Y-86275500D01*
X132237401Y-86275500D01*
X132362599Y-86275500D01*
X132362601Y-86275500D01*
X132483536Y-86243095D01*
X132591964Y-86180495D01*
X132680495Y-86091964D01*
X132743095Y-85983536D01*
X132775500Y-85862601D01*
X132775500Y-85737399D01*
X132743095Y-85616464D01*
X132680495Y-85508036D01*
X132591964Y-85419505D01*
X132586217Y-85413758D01*
X132587567Y-85412407D01*
X132552548Y-85364452D01*
X132548391Y-85294706D01*
X132582601Y-85233785D01*
X132590642Y-85226816D01*
X132591961Y-85225496D01*
X132591964Y-85225495D01*
X132680495Y-85136964D01*
X132743095Y-85028536D01*
X132775500Y-84907601D01*
X132775500Y-84782399D01*
X132743095Y-84661464D01*
X132680495Y-84553036D01*
X132650140Y-84522681D01*
X132616655Y-84461358D01*
X132621639Y-84391666D01*
X132650140Y-84347319D01*
X132667995Y-84329464D01*
X132730595Y-84221036D01*
X132763000Y-84100101D01*
X132763000Y-83974899D01*
X132730595Y-83853964D01*
X132667995Y-83745536D01*
X132579464Y-83657005D01*
X132471036Y-83594405D01*
X132471037Y-83594405D01*
X132430724Y-83583603D01*
X132350101Y-83562000D01*
X132224899Y-83562000D01*
X132144275Y-83583603D01*
X132103963Y-83594405D01*
X131995537Y-83657004D01*
X131995534Y-83657006D01*
X131907006Y-83745534D01*
X131907004Y-83745537D01*
X131844405Y-83853963D01*
X131844405Y-83853964D01*
X131812000Y-83974899D01*
X128900500Y-83974899D01*
X128900500Y-82379500D01*
X128920185Y-82312461D01*
X128972989Y-82266706D01*
X129024500Y-82255500D01*
X131800500Y-82255500D01*
X131867539Y-82275185D01*
X131913294Y-82327989D01*
X131924500Y-82379500D01*
X131924500Y-82462601D01*
X131956905Y-82583536D01*
X132019505Y-82691964D01*
X132108036Y-82780495D01*
X132216464Y-82843095D01*
X132337399Y-82875500D01*
X132337401Y-82875500D01*
X132462599Y-82875500D01*
X132462601Y-82875500D01*
X132583536Y-82843095D01*
X132691964Y-82780495D01*
X132780495Y-82691964D01*
X132843095Y-82583536D01*
X132875500Y-82462601D01*
X132875500Y-82379500D01*
X132895185Y-82312461D01*
X132947989Y-82266706D01*
X132999500Y-82255500D01*
X134500491Y-82255500D01*
X134500500Y-82255500D01*
X134544184Y-82250803D01*
X134583606Y-82242227D01*
X134595674Y-82239602D01*
X134595690Y-82239598D01*
X134595695Y-82239597D01*
X134605873Y-82237110D01*
X134628399Y-82225105D01*
X134696819Y-82210949D01*
X134762032Y-82236031D01*
X134774395Y-82246855D01*
X134792092Y-82264551D01*
X134808036Y-82280495D01*
X134916464Y-82343095D01*
X135037399Y-82375500D01*
X135037401Y-82375500D01*
X135162599Y-82375500D01*
X135162601Y-82375500D01*
X135283536Y-82343095D01*
X135391964Y-82280495D01*
X135425119Y-82247339D01*
X135486439Y-82213855D01*
X135556131Y-82218839D01*
X135573331Y-82226801D01*
X135574563Y-82227490D01*
X135641602Y-82247175D01*
X135699500Y-82255500D01*
X135699504Y-82255500D01*
X140358379Y-82255500D01*
X140358500Y-82255499D01*
X140360811Y-82255486D01*
X140363761Y-82255451D01*
X140423894Y-82245707D01*
X140486019Y-82225847D01*
X140555869Y-82224185D01*
X140559988Y-82225595D01*
X140560008Y-82225528D01*
X140633721Y-82247173D01*
X140633723Y-82247173D01*
X140633729Y-82247175D01*
X140691627Y-82255500D01*
X140691631Y-82255500D01*
X145683183Y-82255500D01*
X145683633Y-82255491D01*
X145690515Y-82255369D01*
X145699361Y-82255053D01*
X145763840Y-82242227D01*
X145829304Y-82217810D01*
X145852273Y-82207603D01*
X145921999Y-82148421D01*
X145963871Y-82092488D01*
X145977678Y-82071477D01*
X145980152Y-82063355D01*
X146018523Y-82004966D01*
X146082370Y-81976589D01*
X146098768Y-81975500D01*
X146111508Y-81975500D01*
X146125032Y-81979471D01*
G37*
%TD.AperFunction*%
%TA.AperFunction,Conductor*%
G36*
X131685857Y-67065185D02*
G01*
X131731612Y-67117989D01*
X131741556Y-67187147D01*
X131712531Y-67250703D01*
X131659773Y-67286541D01*
X131604070Y-67306032D01*
X131300441Y-67452252D01*
X131015087Y-67631553D01*
X130751602Y-67841674D01*
X130513299Y-68079977D01*
X130303178Y-68343462D01*
X130123877Y-68628816D01*
X129977657Y-68932445D01*
X129866352Y-69250534D01*
X129866348Y-69250546D01*
X129791358Y-69579102D01*
X129791356Y-69579118D01*
X129753625Y-69913991D01*
X129753625Y-70251008D01*
X129791356Y-70585881D01*
X129791358Y-70585897D01*
X129866348Y-70914453D01*
X129866352Y-70914465D01*
X129977657Y-71232554D01*
X130123877Y-71536183D01*
X130123879Y-71536186D01*
X130303179Y-71821539D01*
X130513300Y-72085023D01*
X130751602Y-72323325D01*
X131015086Y-72533446D01*
X131300439Y-72712746D01*
X131300441Y-72712747D01*
X131363667Y-72743195D01*
X131604074Y-72858969D01*
X131785738Y-72922536D01*
X131922159Y-72970272D01*
X131922171Y-72970276D01*
X132250731Y-73045267D01*
X132585617Y-73082999D01*
X132585618Y-73083000D01*
X132585621Y-73083000D01*
X132922632Y-73083000D01*
X132922632Y-73082999D01*
X133257519Y-73045267D01*
X133586079Y-72970276D01*
X133741088Y-72916036D01*
X133835860Y-72882874D01*
X133847139Y-72878927D01*
X133904176Y-72858969D01*
X134207811Y-72712746D01*
X134493164Y-72533446D01*
X134756648Y-72323325D01*
X134994950Y-72085023D01*
X135205071Y-71821539D01*
X135384371Y-71536186D01*
X135530594Y-71232551D01*
X135549892Y-71177399D01*
X154639700Y-71177399D01*
X154639700Y-71302601D01*
X154672105Y-71423536D01*
X154734705Y-71531964D01*
X154823236Y-71620495D01*
X154931664Y-71683095D01*
X155052599Y-71715500D01*
X155052601Y-71715500D01*
X155177799Y-71715500D01*
X155177801Y-71715500D01*
X155298736Y-71683095D01*
X155407164Y-71620495D01*
X155495695Y-71531964D01*
X155558295Y-71423536D01*
X155590700Y-71302601D01*
X155590700Y-71177399D01*
X155558295Y-71056464D01*
X155495695Y-70948036D01*
X155407164Y-70859505D01*
X155298736Y-70796905D01*
X155298737Y-70796905D01*
X155258424Y-70786103D01*
X155177801Y-70764500D01*
X155052599Y-70764500D01*
X154971975Y-70786103D01*
X154931663Y-70796905D01*
X154823237Y-70859504D01*
X154823234Y-70859506D01*
X154734706Y-70948034D01*
X154734704Y-70948037D01*
X154672105Y-71056463D01*
X154672105Y-71056464D01*
X154639700Y-71177399D01*
X135549892Y-71177399D01*
X135559050Y-71151228D01*
X135567068Y-71128316D01*
X135641897Y-70914465D01*
X135641901Y-70914453D01*
X135716892Y-70585894D01*
X135754625Y-70251004D01*
X135754625Y-69913996D01*
X135754625Y-69913995D01*
X136159499Y-69913995D01*
X136186418Y-70049322D01*
X136186421Y-70049332D01*
X136239221Y-70176804D01*
X136239228Y-70176817D01*
X136315885Y-70291541D01*
X136315888Y-70291545D01*
X136413454Y-70389111D01*
X136413458Y-70389114D01*
X136528182Y-70465771D01*
X136528195Y-70465778D01*
X136655667Y-70518578D01*
X136655672Y-70518580D01*
X136655676Y-70518580D01*
X136655677Y-70518581D01*
X136791004Y-70545500D01*
X136791007Y-70545500D01*
X136928995Y-70545500D01*
X137020041Y-70527389D01*
X137064328Y-70518580D01*
X137191811Y-70465775D01*
X137306542Y-70389114D01*
X137404114Y-70291542D01*
X137480775Y-70176811D01*
X137533580Y-70049328D01*
X137542389Y-70005041D01*
X137560500Y-69913995D01*
X144799499Y-69913995D01*
X144826418Y-70049322D01*
X144826421Y-70049332D01*
X144879221Y-70176804D01*
X144879228Y-70176817D01*
X144955885Y-70291541D01*
X144955888Y-70291545D01*
X145053454Y-70389111D01*
X145053458Y-70389114D01*
X145168182Y-70465771D01*
X145168195Y-70465778D01*
X145295667Y-70518578D01*
X145295672Y-70518580D01*
X145295676Y-70518580D01*
X145295677Y-70518581D01*
X145431004Y-70545500D01*
X145431007Y-70545500D01*
X145568995Y-70545500D01*
X145660041Y-70527389D01*
X145704328Y-70518580D01*
X145831811Y-70465775D01*
X145946542Y-70389114D01*
X146044114Y-70291542D01*
X146120775Y-70176811D01*
X146173580Y-70049328D01*
X146182389Y-70005041D01*
X146200500Y-69913995D01*
X146200500Y-68976004D01*
X146173581Y-68840677D01*
X146173580Y-68840676D01*
X146173580Y-68840672D01*
X146162862Y-68814797D01*
X146120778Y-68713195D01*
X146120771Y-68713182D01*
X146044114Y-68598458D01*
X146044111Y-68598454D01*
X145946545Y-68500888D01*
X145946541Y-68500885D01*
X145831817Y-68424228D01*
X145831804Y-68424221D01*
X145704332Y-68371421D01*
X145704322Y-68371418D01*
X145568995Y-68344500D01*
X145568993Y-68344500D01*
X145431007Y-68344500D01*
X145431005Y-68344500D01*
X145295677Y-68371418D01*
X145295667Y-68371421D01*
X145168195Y-68424221D01*
X145168182Y-68424228D01*
X145053458Y-68500885D01*
X145053454Y-68500888D01*
X144955888Y-68598454D01*
X144955885Y-68598458D01*
X144879228Y-68713182D01*
X144879221Y-68713195D01*
X144826421Y-68840667D01*
X144826418Y-68840677D01*
X144799500Y-68976004D01*
X144799500Y-68976007D01*
X144799500Y-69913993D01*
X144799500Y-69913995D01*
X144799499Y-69913995D01*
X137560500Y-69913995D01*
X137560500Y-68976004D01*
X137533581Y-68840677D01*
X137533580Y-68840676D01*
X137533580Y-68840672D01*
X137522862Y-68814797D01*
X137480778Y-68713195D01*
X137480771Y-68713182D01*
X137404114Y-68598458D01*
X137404111Y-68598454D01*
X137306545Y-68500888D01*
X137306541Y-68500885D01*
X137191817Y-68424228D01*
X137191804Y-68424221D01*
X137064332Y-68371421D01*
X137064322Y-68371418D01*
X136928995Y-68344500D01*
X136928993Y-68344500D01*
X136791007Y-68344500D01*
X136791005Y-68344500D01*
X136655677Y-68371418D01*
X136655667Y-68371421D01*
X136528195Y-68424221D01*
X136528182Y-68424228D01*
X136413458Y-68500885D01*
X136413454Y-68500888D01*
X136315888Y-68598454D01*
X136315885Y-68598458D01*
X136239228Y-68713182D01*
X136239221Y-68713195D01*
X136186421Y-68840667D01*
X136186418Y-68840677D01*
X136159500Y-68976004D01*
X136159500Y-68976007D01*
X136159500Y-69913993D01*
X136159500Y-69913995D01*
X136159499Y-69913995D01*
X135754625Y-69913995D01*
X135716892Y-69579106D01*
X135641901Y-69250546D01*
X135530594Y-68932449D01*
X135384371Y-68628814D01*
X135205071Y-68343461D01*
X134994950Y-68079977D01*
X134967372Y-68052399D01*
X154639700Y-68052399D01*
X154639700Y-68177601D01*
X154672105Y-68298536D01*
X154734705Y-68406964D01*
X154823236Y-68495495D01*
X154931664Y-68558095D01*
X155052599Y-68590500D01*
X155052601Y-68590500D01*
X155177799Y-68590500D01*
X155177801Y-68590500D01*
X155298736Y-68558095D01*
X155407164Y-68495495D01*
X155495695Y-68406964D01*
X155558295Y-68298536D01*
X155590700Y-68177601D01*
X155590700Y-68052399D01*
X155558295Y-67931464D01*
X155495695Y-67823036D01*
X155407164Y-67734505D01*
X155298736Y-67671905D01*
X155298737Y-67671905D01*
X155258424Y-67661103D01*
X155177801Y-67639500D01*
X155052599Y-67639500D01*
X154971975Y-67661103D01*
X154931663Y-67671905D01*
X154823237Y-67734504D01*
X154823234Y-67734506D01*
X154734706Y-67823034D01*
X154734704Y-67823037D01*
X154672105Y-67931463D01*
X154672105Y-67931464D01*
X154639700Y-68052399D01*
X134967372Y-68052399D01*
X134756648Y-67841675D01*
X134733275Y-67823036D01*
X134622261Y-67734505D01*
X134493164Y-67631554D01*
X134207811Y-67452254D01*
X134207808Y-67452252D01*
X133904179Y-67306032D01*
X133848477Y-67286541D01*
X133791701Y-67245819D01*
X133765954Y-67180867D01*
X133779410Y-67112305D01*
X133827798Y-67061902D01*
X133889432Y-67045500D01*
X161169797Y-67045500D01*
X161236836Y-67065185D01*
X161282591Y-67117989D01*
X161292535Y-67187147D01*
X161263510Y-67250703D01*
X161223599Y-67281220D01*
X160946316Y-67414752D01*
X160660962Y-67594053D01*
X160397477Y-67804174D01*
X160159174Y-68042477D01*
X159949053Y-68305962D01*
X159769752Y-68591316D01*
X159623532Y-68894945D01*
X159512227Y-69213034D01*
X159512223Y-69213046D01*
X159437233Y-69541602D01*
X159437231Y-69541618D01*
X159399500Y-69876491D01*
X159399500Y-70213508D01*
X159437231Y-70548381D01*
X159437233Y-70548397D01*
X159512223Y-70876953D01*
X159512227Y-70876965D01*
X159623532Y-71195054D01*
X159769752Y-71498683D01*
X159769754Y-71498686D01*
X159949054Y-71784039D01*
X160159175Y-72047523D01*
X160397477Y-72285825D01*
X160660961Y-72495946D01*
X160937806Y-72669900D01*
X160946316Y-72675247D01*
X161024186Y-72712747D01*
X161249949Y-72821469D01*
X161488848Y-72905063D01*
X161568034Y-72932772D01*
X161568046Y-72932776D01*
X161896606Y-73007767D01*
X162231492Y-73045499D01*
X162231493Y-73045500D01*
X162231496Y-73045500D01*
X162568507Y-73045500D01*
X162568507Y-73045499D01*
X162903394Y-73007767D01*
X163231954Y-72932776D01*
X163550051Y-72821469D01*
X163853686Y-72675246D01*
X164139039Y-72495946D01*
X164402523Y-72285825D01*
X164640825Y-72047523D01*
X164850946Y-71784039D01*
X165030246Y-71498686D01*
X165163780Y-71221400D01*
X165210602Y-71169541D01*
X165278029Y-71151228D01*
X165344653Y-71172276D01*
X165389322Y-71226002D01*
X165399500Y-71275202D01*
X165399500Y-86861192D01*
X165379815Y-86928231D01*
X165327011Y-86973986D01*
X165257853Y-86983930D01*
X165194297Y-86954905D01*
X165168113Y-86923192D01*
X165130497Y-86858039D01*
X165130496Y-86858037D01*
X165130495Y-86858036D01*
X165041964Y-86769505D01*
X164933536Y-86706905D01*
X164933537Y-86706905D01*
X164893224Y-86696103D01*
X164812601Y-86674500D01*
X164687399Y-86674500D01*
X164606775Y-86696103D01*
X164566463Y-86706905D01*
X164458037Y-86769504D01*
X164458034Y-86769506D01*
X164369506Y-86858034D01*
X164369504Y-86858037D01*
X164306905Y-86966463D01*
X164306905Y-86966464D01*
X164274500Y-87087399D01*
X164274500Y-87212601D01*
X164276617Y-87220500D01*
X164306905Y-87333536D01*
X164369504Y-87441962D01*
X164369506Y-87441965D01*
X164389860Y-87462319D01*
X164423345Y-87523642D01*
X164418361Y-87593334D01*
X164389860Y-87637681D01*
X164369506Y-87658034D01*
X164369504Y-87658037D01*
X164306905Y-87766463D01*
X164290702Y-87826931D01*
X164274500Y-87887399D01*
X164274500Y-88012601D01*
X164306905Y-88133536D01*
X164369505Y-88241964D01*
X164458036Y-88330495D01*
X164566464Y-88393095D01*
X164687399Y-88425500D01*
X164687401Y-88425500D01*
X164812599Y-88425500D01*
X164812601Y-88425500D01*
X164933536Y-88393095D01*
X165041964Y-88330495D01*
X165130495Y-88241964D01*
X165168112Y-88176807D01*
X165218679Y-88128592D01*
X165287286Y-88115368D01*
X165352151Y-88141336D01*
X165392680Y-88198250D01*
X165399500Y-88238807D01*
X165399500Y-91023461D01*
X165379815Y-91090500D01*
X165327011Y-91136255D01*
X165276484Y-91147457D01*
X164972934Y-91149866D01*
X164905740Y-91130714D01*
X164859568Y-91078275D01*
X164849076Y-91009198D01*
X164877596Y-90945414D01*
X164884257Y-90938201D01*
X164930495Y-90891964D01*
X164993095Y-90783536D01*
X165025500Y-90662601D01*
X165025500Y-90537399D01*
X164993095Y-90416464D01*
X164930495Y-90308036D01*
X164841964Y-90219505D01*
X164841963Y-90219504D01*
X164841960Y-90219502D01*
X164787500Y-90188060D01*
X164739285Y-90137493D01*
X164725500Y-90080673D01*
X164725500Y-89987400D01*
X164725500Y-89987399D01*
X164693095Y-89866464D01*
X164630495Y-89758036D01*
X164541964Y-89669505D01*
X164433536Y-89606905D01*
X164433537Y-89606905D01*
X164393224Y-89596103D01*
X164312601Y-89574500D01*
X164187399Y-89574500D01*
X164106775Y-89596103D01*
X164066463Y-89606905D01*
X163958037Y-89669504D01*
X163958034Y-89669506D01*
X163869506Y-89758034D01*
X163869504Y-89758037D01*
X163806905Y-89866463D01*
X163806905Y-89866464D01*
X163774500Y-89987399D01*
X163774500Y-90112601D01*
X163806905Y-90233536D01*
X163869505Y-90341964D01*
X163958036Y-90430495D01*
X163958037Y-90430496D01*
X163958039Y-90430497D01*
X164012498Y-90461938D01*
X164060715Y-90512504D01*
X164074500Y-90569326D01*
X164074500Y-90662601D01*
X164106905Y-90783536D01*
X164162883Y-90880495D01*
X164169504Y-90891962D01*
X164169506Y-90891965D01*
X164222375Y-90944834D01*
X164255860Y-91006157D01*
X164250876Y-91075849D01*
X164209004Y-91131782D01*
X164143540Y-91156199D01*
X164135678Y-91156511D01*
X162850484Y-91166710D01*
X162841303Y-91164093D01*
X162831853Y-91165452D01*
X162808246Y-91154671D01*
X162783290Y-91147558D01*
X162776981Y-91140392D01*
X162768297Y-91136427D01*
X162754266Y-91114595D01*
X162737118Y-91095119D01*
X162734678Y-91084115D01*
X162730523Y-91077649D01*
X162725500Y-91042714D01*
X162725500Y-91025833D01*
X162745185Y-90958794D01*
X162761814Y-90938156D01*
X162890460Y-90809511D01*
X162900591Y-90791964D01*
X162930021Y-90740989D01*
X162950500Y-90664562D01*
X162950500Y-86448321D01*
X162970185Y-86381282D01*
X162986819Y-86360640D01*
X163030495Y-86316964D01*
X163093095Y-86208536D01*
X163125500Y-86087601D01*
X163125500Y-85962399D01*
X163093095Y-85841464D01*
X163030495Y-85733036D01*
X162941964Y-85644505D01*
X162833536Y-85581905D01*
X162833537Y-85581905D01*
X162793224Y-85571103D01*
X162712601Y-85549500D01*
X162587399Y-85549500D01*
X162506775Y-85571103D01*
X162466463Y-85581905D01*
X162358037Y-85644504D01*
X162358033Y-85644507D01*
X162342679Y-85659861D01*
X162281355Y-85693345D01*
X162211664Y-85688359D01*
X162167320Y-85659861D01*
X162159364Y-85651905D01*
X162141964Y-85634505D01*
X162033536Y-85571905D01*
X162033537Y-85571905D01*
X161993224Y-85561103D01*
X161912601Y-85539500D01*
X161787399Y-85539500D01*
X161706775Y-85561103D01*
X161666463Y-85571905D01*
X161558037Y-85634504D01*
X161558034Y-85634506D01*
X161469506Y-85723034D01*
X161469504Y-85723037D01*
X161406905Y-85831463D01*
X161374500Y-85952400D01*
X161374500Y-86014167D01*
X161354815Y-86081206D01*
X161338181Y-86101848D01*
X159767181Y-87672848D01*
X159705858Y-87706333D01*
X159636166Y-87701349D01*
X159580233Y-87659477D01*
X159555816Y-87594013D01*
X159555500Y-87585167D01*
X159555500Y-82774899D01*
X160162000Y-82774899D01*
X160162000Y-82900101D01*
X160194405Y-83021036D01*
X160257005Y-83129464D01*
X160345536Y-83217995D01*
X160453964Y-83280595D01*
X160574899Y-83313000D01*
X160574901Y-83313000D01*
X160700099Y-83313000D01*
X160700101Y-83313000D01*
X160821036Y-83280595D01*
X160929464Y-83217995D01*
X161017995Y-83129464D01*
X161080595Y-83021036D01*
X161113000Y-82900101D01*
X161113000Y-82774899D01*
X161080595Y-82653964D01*
X161017995Y-82545536D01*
X160929464Y-82457005D01*
X160821036Y-82394405D01*
X160821037Y-82394405D01*
X160780724Y-82383603D01*
X160700101Y-82362000D01*
X160574899Y-82362000D01*
X160494275Y-82383603D01*
X160453963Y-82394405D01*
X160345537Y-82457004D01*
X160345534Y-82457006D01*
X160257006Y-82545534D01*
X160257004Y-82545537D01*
X160194405Y-82653963D01*
X160184223Y-82691962D01*
X160162000Y-82774899D01*
X159555500Y-82774899D01*
X159555500Y-81849899D01*
X161087000Y-81849899D01*
X161087000Y-81975101D01*
X161119405Y-82096036D01*
X161182005Y-82204464D01*
X161270536Y-82292995D01*
X161378964Y-82355595D01*
X161499899Y-82388000D01*
X161499901Y-82388000D01*
X161625099Y-82388000D01*
X161625101Y-82388000D01*
X161746036Y-82355595D01*
X161854464Y-82292995D01*
X161942995Y-82204464D01*
X162005595Y-82096036D01*
X162038000Y-81975101D01*
X162038000Y-81849899D01*
X162005595Y-81728964D01*
X161942995Y-81620536D01*
X161854464Y-81532005D01*
X161746036Y-81469405D01*
X161746037Y-81469405D01*
X161705724Y-81458603D01*
X161625101Y-81437000D01*
X161499899Y-81437000D01*
X161419275Y-81458603D01*
X161378963Y-81469405D01*
X161270537Y-81532004D01*
X161270534Y-81532006D01*
X161182006Y-81620534D01*
X161182004Y-81620537D01*
X161119405Y-81728963D01*
X161111242Y-81759427D01*
X161087000Y-81849899D01*
X159555500Y-81849899D01*
X159555500Y-80187399D01*
X161824500Y-80187399D01*
X161824500Y-80312601D01*
X161856905Y-80433536D01*
X161919505Y-80541964D01*
X162008036Y-80630495D01*
X162116464Y-80693095D01*
X162237399Y-80725500D01*
X162237401Y-80725500D01*
X162362599Y-80725500D01*
X162362601Y-80725500D01*
X162483536Y-80693095D01*
X162591964Y-80630495D01*
X162680495Y-80541964D01*
X162743095Y-80433536D01*
X162775500Y-80312601D01*
X162775500Y-80187399D01*
X162743095Y-80066464D01*
X162680495Y-79958036D01*
X162591964Y-79869505D01*
X162483536Y-79806905D01*
X162483537Y-79806905D01*
X162443224Y-79796103D01*
X162362601Y-79774500D01*
X162237399Y-79774500D01*
X162156775Y-79796103D01*
X162116463Y-79806905D01*
X162008037Y-79869504D01*
X162008034Y-79869506D01*
X161919506Y-79958034D01*
X161919504Y-79958037D01*
X161856905Y-80066463D01*
X161856905Y-80066464D01*
X161824500Y-80187399D01*
X159555500Y-80187399D01*
X159555500Y-79324614D01*
X159555500Y-79324608D01*
X159550696Y-79280435D01*
X159539237Y-79228372D01*
X159539231Y-79228347D01*
X159536592Y-79217718D01*
X159536590Y-79217715D01*
X159536590Y-79217712D01*
X159493186Y-79137212D01*
X159493185Y-79137210D01*
X159493184Y-79137209D01*
X159493183Y-79137207D01*
X159447186Y-79084647D01*
X159447168Y-79084627D01*
X159429498Y-79066768D01*
X159429495Y-79066765D01*
X159349461Y-79022509D01*
X159282333Y-79003154D01*
X159282325Y-79003152D01*
X159224389Y-78995111D01*
X158925543Y-78996573D01*
X158858410Y-78977217D01*
X158812397Y-78924638D01*
X158802115Y-78855529D01*
X158826565Y-78797085D01*
X158830491Y-78791967D01*
X158830495Y-78791964D01*
X158893095Y-78683536D01*
X158925500Y-78562601D01*
X158925500Y-78437399D01*
X158893095Y-78316464D01*
X158830495Y-78208036D01*
X158741964Y-78119505D01*
X158741962Y-78119504D01*
X158735513Y-78114555D01*
X158737087Y-78112502D01*
X158697754Y-78071243D01*
X158684538Y-78002635D01*
X158710511Y-77937773D01*
X158745977Y-77907045D01*
X158748662Y-77905495D01*
X158791964Y-77880495D01*
X158880495Y-77791964D01*
X158943095Y-77683536D01*
X158975500Y-77562601D01*
X158975500Y-77437399D01*
X158943095Y-77316464D01*
X158880495Y-77208036D01*
X158791964Y-77119505D01*
X158791963Y-77119504D01*
X158770976Y-77107388D01*
X158722760Y-77056821D01*
X158709536Y-76988214D01*
X158735504Y-76923349D01*
X158770976Y-76892612D01*
X158791964Y-76880495D01*
X158880495Y-76791964D01*
X158943095Y-76683536D01*
X158975500Y-76562601D01*
X158975500Y-76437399D01*
X158943095Y-76316464D01*
X158880495Y-76208036D01*
X158791964Y-76119505D01*
X158791963Y-76119504D01*
X158754070Y-76097627D01*
X158727673Y-76082387D01*
X158679458Y-76031821D01*
X158666234Y-75963214D01*
X158692202Y-75898349D01*
X158727672Y-75867612D01*
X158791964Y-75830495D01*
X158880495Y-75741964D01*
X158943095Y-75633536D01*
X158975500Y-75512601D01*
X158975500Y-75387399D01*
X158943095Y-75266464D01*
X158880495Y-75158036D01*
X158791964Y-75069505D01*
X158683536Y-75006905D01*
X158683537Y-75006905D01*
X158643224Y-74996103D01*
X158562601Y-74974500D01*
X158437399Y-74974500D01*
X158356775Y-74996103D01*
X158316463Y-75006905D01*
X158208037Y-75069504D01*
X158208034Y-75069506D01*
X158119506Y-75158034D01*
X158119504Y-75158037D01*
X158056905Y-75266463D01*
X158056905Y-75266464D01*
X158024500Y-75387399D01*
X158024500Y-75512601D01*
X158056905Y-75633536D01*
X158119505Y-75741964D01*
X158208036Y-75830495D01*
X158208037Y-75830496D01*
X158208039Y-75830497D01*
X158272326Y-75867613D01*
X158320541Y-75918180D01*
X158333765Y-75986787D01*
X158307797Y-76051651D01*
X158272326Y-76082387D01*
X158208039Y-76119502D01*
X158208034Y-76119506D01*
X158119506Y-76208034D01*
X158119504Y-76208037D01*
X158056905Y-76316463D01*
X158056905Y-76316464D01*
X158024500Y-76437399D01*
X158024500Y-76562601D01*
X158056905Y-76683536D01*
X158119504Y-76791962D01*
X158119506Y-76791965D01*
X158208036Y-76880495D01*
X158229025Y-76892613D01*
X158277240Y-76943180D01*
X158290462Y-77011788D01*
X158264494Y-77076652D01*
X158229025Y-77107387D01*
X158208036Y-77119504D01*
X158119506Y-77208034D01*
X158119504Y-77208037D01*
X158056905Y-77316463D01*
X158056905Y-77316464D01*
X158024500Y-77437399D01*
X158024500Y-77562601D01*
X158056905Y-77683536D01*
X158119505Y-77791964D01*
X158208036Y-77880495D01*
X158208038Y-77880496D01*
X158214487Y-77885445D01*
X158212910Y-77887499D01*
X158252239Y-77928744D01*
X158265463Y-77997351D01*
X158239496Y-78062216D01*
X158204025Y-78092953D01*
X158158036Y-78119504D01*
X158069506Y-78208034D01*
X158069504Y-78208037D01*
X158006905Y-78316463D01*
X158006905Y-78316464D01*
X157974500Y-78437399D01*
X157974500Y-78562601D01*
X158006905Y-78683536D01*
X158069505Y-78791964D01*
X158069507Y-78791966D01*
X158074451Y-78798409D01*
X158072664Y-78799780D01*
X158100547Y-78850844D01*
X158095563Y-78920536D01*
X158053691Y-78976469D01*
X157988227Y-79000886D01*
X157979988Y-79001201D01*
X151829105Y-79031303D01*
X151761970Y-79011946D01*
X151715957Y-78959367D01*
X151705675Y-78890258D01*
X151708720Y-78875220D01*
X151725500Y-78812601D01*
X151725500Y-78687399D01*
X151693095Y-78566464D01*
X151630495Y-78458036D01*
X151541964Y-78369505D01*
X151433536Y-78306905D01*
X151433537Y-78306905D01*
X151393224Y-78296103D01*
X151312601Y-78274500D01*
X151187399Y-78274500D01*
X151106775Y-78296103D01*
X151066463Y-78306905D01*
X150958037Y-78369504D01*
X150958034Y-78369506D01*
X150869506Y-78458034D01*
X150869504Y-78458037D01*
X150806905Y-78566463D01*
X150806905Y-78566464D01*
X150774500Y-78687399D01*
X150774500Y-78812601D01*
X150792792Y-78880865D01*
X150791129Y-78950715D01*
X150751967Y-79008578D01*
X150687739Y-79036082D01*
X150673624Y-79036958D01*
X139625823Y-79091026D01*
X139624076Y-79091044D01*
X139623883Y-79091046D01*
X139622688Y-79091063D01*
X139621688Y-79091078D01*
X139562129Y-79100812D01*
X139562117Y-79100815D01*
X139507717Y-79118204D01*
X139437867Y-79119865D01*
X139435612Y-79119238D01*
X139370964Y-79100598D01*
X139324158Y-79094101D01*
X139313028Y-79092557D01*
X139313027Y-79092557D01*
X137625531Y-79100815D01*
X137574041Y-79107632D01*
X137513944Y-79123511D01*
X137496256Y-79129048D01*
X137496253Y-79129050D01*
X137477806Y-79140950D01*
X137419402Y-79178626D01*
X137419401Y-79178626D01*
X137419401Y-79178627D01*
X137370588Y-79228616D01*
X137354160Y-79247640D01*
X137354157Y-79247646D01*
X137351123Y-79254320D01*
X137305457Y-79307200D01*
X137239584Y-79326990D01*
X137222580Y-79327173D01*
X137212601Y-79324500D01*
X137087399Y-79324500D01*
X137071314Y-79328809D01*
X137055673Y-79328979D01*
X137036493Y-79323571D01*
X137016571Y-79323097D01*
X137003552Y-79314284D01*
X136988425Y-79310020D01*
X136975214Y-79295103D01*
X136958710Y-79283932D01*
X136945186Y-79263835D01*
X136944584Y-79262719D01*
X136936434Y-79247603D01*
X136936433Y-79247601D01*
X136936432Y-79247600D01*
X136936431Y-79247598D01*
X136890438Y-79195043D01*
X136890427Y-79195031D01*
X136890421Y-79195024D01*
X136872744Y-79177158D01*
X136872743Y-79177157D01*
X136872741Y-79177155D01*
X136792717Y-79132904D01*
X136792705Y-79132899D01*
X136725585Y-79113546D01*
X136725576Y-79113544D01*
X136667640Y-79105503D01*
X130280663Y-79136760D01*
X130213530Y-79117404D01*
X130167517Y-79064825D01*
X130157235Y-78995716D01*
X130185949Y-78932019D01*
X130192365Y-78925093D01*
X130230495Y-78886964D01*
X130293095Y-78778536D01*
X130325500Y-78657601D01*
X130325500Y-78532399D01*
X130293095Y-78411464D01*
X130230495Y-78303036D01*
X130141964Y-78214505D01*
X130033536Y-78151905D01*
X130033537Y-78151905D01*
X129993224Y-78141103D01*
X129912601Y-78119500D01*
X129787399Y-78119500D01*
X129706775Y-78141103D01*
X129666463Y-78151905D01*
X129558037Y-78214504D01*
X129558034Y-78214506D01*
X129469506Y-78303034D01*
X129469504Y-78303037D01*
X129406905Y-78411463D01*
X129399955Y-78437400D01*
X129374500Y-78532399D01*
X129374500Y-78657601D01*
X129406905Y-78778536D01*
X129448651Y-78850844D01*
X129469504Y-78886962D01*
X129469506Y-78886965D01*
X129511811Y-78929270D01*
X129545296Y-78990593D01*
X129540312Y-79060285D01*
X129498440Y-79116218D01*
X129432976Y-79140635D01*
X129424756Y-79140949D01*
X129025103Y-79142905D01*
X128957972Y-79123549D01*
X128911959Y-79070970D01*
X128900500Y-79018907D01*
X128900500Y-77462399D01*
X151049500Y-77462399D01*
X151049500Y-77587601D01*
X151081905Y-77708536D01*
X151144505Y-77816964D01*
X151233036Y-77905495D01*
X151341464Y-77968095D01*
X151462399Y-78000500D01*
X151462401Y-78000500D01*
X151587599Y-78000500D01*
X151587601Y-78000500D01*
X151708536Y-77968095D01*
X151816964Y-77905495D01*
X151905495Y-77816964D01*
X151968095Y-77708536D01*
X152000500Y-77587601D01*
X152000500Y-77462399D01*
X151968095Y-77341464D01*
X151905495Y-77233036D01*
X151816964Y-77144505D01*
X151708536Y-77081905D01*
X151708537Y-77081905D01*
X151668224Y-77071103D01*
X151587601Y-77049500D01*
X151462399Y-77049500D01*
X151381775Y-77071103D01*
X151341463Y-77081905D01*
X151233037Y-77144504D01*
X151233034Y-77144506D01*
X151144506Y-77233034D01*
X151144504Y-77233037D01*
X151081905Y-77341463D01*
X151081905Y-77341464D01*
X151049500Y-77462399D01*
X128900500Y-77462399D01*
X128900500Y-74432399D01*
X130774500Y-74432399D01*
X130774500Y-74557601D01*
X130806905Y-74678536D01*
X130869505Y-74786964D01*
X130958036Y-74875495D01*
X130958037Y-74875496D01*
X130958039Y-74875497D01*
X131065628Y-74937613D01*
X131113843Y-74988179D01*
X131127067Y-75056786D01*
X131101099Y-75121651D01*
X131065628Y-75152387D01*
X130958039Y-75214502D01*
X130958034Y-75214506D01*
X130869506Y-75303034D01*
X130869504Y-75303037D01*
X130806905Y-75411463D01*
X130799955Y-75437400D01*
X130774500Y-75532399D01*
X130774500Y-75657601D01*
X130806905Y-75778536D01*
X130869505Y-75886964D01*
X130958036Y-75975495D01*
X131066464Y-76038095D01*
X131187399Y-76070500D01*
X131187401Y-76070500D01*
X131312599Y-76070500D01*
X131312601Y-76070500D01*
X131433536Y-76038095D01*
X131541964Y-75975495D01*
X131630495Y-75886964D01*
X131693095Y-75778536D01*
X131725500Y-75657601D01*
X131725500Y-75532399D01*
X131706466Y-75461364D01*
X131706466Y-75461362D01*
X131700045Y-75437399D01*
X140454500Y-75437399D01*
X140454500Y-75562601D01*
X140486905Y-75683536D01*
X140549505Y-75791964D01*
X140638036Y-75880495D01*
X140746464Y-75943095D01*
X140867399Y-75975500D01*
X140867401Y-75975500D01*
X140992599Y-75975500D01*
X140992601Y-75975500D01*
X141113536Y-75943095D01*
X141221964Y-75880495D01*
X141310495Y-75791964D01*
X141373095Y-75683536D01*
X141405500Y-75562601D01*
X141405500Y-75437399D01*
X141724500Y-75437399D01*
X141724500Y-75562601D01*
X141756905Y-75683536D01*
X141819505Y-75791964D01*
X141908036Y-75880495D01*
X142016464Y-75943095D01*
X142137399Y-75975500D01*
X142137401Y-75975500D01*
X142262599Y-75975500D01*
X142262601Y-75975500D01*
X142383536Y-75943095D01*
X142491964Y-75880495D01*
X142580495Y-75791964D01*
X142643095Y-75683536D01*
X142675500Y-75562601D01*
X142675500Y-75437399D01*
X142643095Y-75316464D01*
X142580495Y-75208036D01*
X142491964Y-75119505D01*
X142383536Y-75056905D01*
X142383537Y-75056905D01*
X142343224Y-75046103D01*
X142262601Y-75024500D01*
X142137399Y-75024500D01*
X142056775Y-75046103D01*
X142016463Y-75056905D01*
X141908037Y-75119504D01*
X141908034Y-75119506D01*
X141819506Y-75208034D01*
X141819504Y-75208037D01*
X141756905Y-75316463D01*
X141756905Y-75316464D01*
X141724500Y-75437399D01*
X141405500Y-75437399D01*
X141373095Y-75316464D01*
X141310495Y-75208036D01*
X141221964Y-75119505D01*
X141113536Y-75056905D01*
X141113537Y-75056905D01*
X141073224Y-75046103D01*
X140992601Y-75024500D01*
X140867399Y-75024500D01*
X140786775Y-75046103D01*
X140746463Y-75056905D01*
X140638037Y-75119504D01*
X140638034Y-75119506D01*
X140549506Y-75208034D01*
X140549504Y-75208037D01*
X140486905Y-75316463D01*
X140486905Y-75316464D01*
X140454500Y-75437399D01*
X131700045Y-75437399D01*
X131693096Y-75411468D01*
X131693095Y-75411464D01*
X131630495Y-75303036D01*
X131541964Y-75214505D01*
X131434371Y-75152387D01*
X131386156Y-75101821D01*
X131372932Y-75033214D01*
X131398900Y-74968349D01*
X131434370Y-74937613D01*
X131541964Y-74875495D01*
X131630495Y-74786964D01*
X131693095Y-74678536D01*
X131725500Y-74557601D01*
X131725500Y-74432399D01*
X131693095Y-74311464D01*
X131654142Y-74243995D01*
X136159499Y-74243995D01*
X136186418Y-74379322D01*
X136186421Y-74379332D01*
X136239221Y-74506804D01*
X136239228Y-74506817D01*
X136315885Y-74621541D01*
X136315888Y-74621545D01*
X136413454Y-74719111D01*
X136413458Y-74719114D01*
X136528182Y-74795771D01*
X136528195Y-74795778D01*
X136655667Y-74848578D01*
X136655672Y-74848580D01*
X136655676Y-74848580D01*
X136655677Y-74848581D01*
X136791004Y-74875500D01*
X136791007Y-74875500D01*
X136928995Y-74875500D01*
X137020041Y-74857389D01*
X137064328Y-74848580D01*
X137191811Y-74795775D01*
X137306542Y-74719114D01*
X137404114Y-74621542D01*
X137480775Y-74506811D01*
X137533580Y-74379328D01*
X137560500Y-74243993D01*
X137560500Y-73372268D01*
X137580185Y-73305229D01*
X137632989Y-73259474D01*
X137702147Y-73249530D01*
X137765703Y-73278555D01*
X137796187Y-73320831D01*
X137796248Y-73320797D01*
X137796591Y-73321391D01*
X137799062Y-73324818D01*
X137800312Y-73327836D01*
X137869492Y-73447661D01*
X137869494Y-73447664D01*
X137869495Y-73447665D01*
X137967335Y-73545505D01*
X138087164Y-73614688D01*
X138220817Y-73650500D01*
X138220819Y-73650500D01*
X138359181Y-73650500D01*
X138359183Y-73650500D01*
X138492836Y-73614688D01*
X138612665Y-73545505D01*
X138710505Y-73447665D01*
X138779688Y-73327836D01*
X138815500Y-73194183D01*
X138815500Y-73055817D01*
X138779688Y-72922164D01*
X138710505Y-72802335D01*
X138612665Y-72704495D01*
X138612664Y-72704494D01*
X138612661Y-72704492D01*
X138552743Y-72669899D01*
X140320250Y-72669899D01*
X140320250Y-72795101D01*
X140352655Y-72916036D01*
X140415255Y-73024464D01*
X140503786Y-73112995D01*
X140612214Y-73175595D01*
X140733149Y-73208000D01*
X140733151Y-73208000D01*
X140858349Y-73208000D01*
X140858351Y-73208000D01*
X140979286Y-73175595D01*
X141087714Y-73112995D01*
X141087721Y-73112987D01*
X141091725Y-73109916D01*
X141156893Y-73084719D01*
X141225339Y-73098753D01*
X141247110Y-73114849D01*
X141247341Y-73114549D01*
X141253782Y-73119491D01*
X141253786Y-73119495D01*
X141362214Y-73182095D01*
X141483149Y-73214500D01*
X141483151Y-73214500D01*
X141608349Y-73214500D01*
X141608351Y-73214500D01*
X141729286Y-73182095D01*
X141837714Y-73119495D01*
X141901392Y-73055817D01*
X143544500Y-73055817D01*
X143544500Y-73194183D01*
X143579504Y-73324818D01*
X143580312Y-73327835D01*
X143580313Y-73327838D01*
X143649492Y-73447661D01*
X143649494Y-73447664D01*
X143649495Y-73447665D01*
X143747335Y-73545505D01*
X143867164Y-73614688D01*
X144000817Y-73650500D01*
X144000819Y-73650500D01*
X144139181Y-73650500D01*
X144139183Y-73650500D01*
X144272836Y-73614688D01*
X144392665Y-73545505D01*
X144490505Y-73447665D01*
X144559688Y-73327836D01*
X144559689Y-73327829D01*
X144560938Y-73324818D01*
X144562675Y-73322662D01*
X144563752Y-73320797D01*
X144564042Y-73320964D01*
X144604778Y-73270413D01*
X144671072Y-73248347D01*
X144738771Y-73265625D01*
X144786383Y-73316761D01*
X144799500Y-73372268D01*
X144799500Y-74243993D01*
X144799500Y-74243995D01*
X144799499Y-74243995D01*
X144826418Y-74379322D01*
X144826421Y-74379332D01*
X144879221Y-74506804D01*
X144879228Y-74506817D01*
X144955885Y-74621541D01*
X144955888Y-74621545D01*
X145053454Y-74719111D01*
X145053458Y-74719114D01*
X145168182Y-74795771D01*
X145168195Y-74795778D01*
X145295667Y-74848578D01*
X145295672Y-74848580D01*
X145295676Y-74848580D01*
X145295677Y-74848581D01*
X145431004Y-74875500D01*
X145431007Y-74875500D01*
X145568995Y-74875500D01*
X145660041Y-74857389D01*
X145704328Y-74848580D01*
X145831811Y-74795775D01*
X145946542Y-74719114D01*
X146044114Y-74621542D01*
X146120775Y-74506811D01*
X146173580Y-74379328D01*
X146200500Y-74243993D01*
X146200500Y-73006007D01*
X146200500Y-73006004D01*
X146173581Y-72870677D01*
X146173580Y-72870676D01*
X146173580Y-72870672D01*
X146173578Y-72870667D01*
X146120778Y-72743195D01*
X146120771Y-72743182D01*
X146044114Y-72628458D01*
X146044111Y-72628454D01*
X145946545Y-72530888D01*
X145946541Y-72530885D01*
X145831817Y-72454228D01*
X145831804Y-72454221D01*
X145704332Y-72401421D01*
X145704322Y-72401418D01*
X145568995Y-72374500D01*
X145568993Y-72374500D01*
X145431007Y-72374500D01*
X145431005Y-72374500D01*
X145295677Y-72401418D01*
X145295667Y-72401421D01*
X145168195Y-72454221D01*
X145168182Y-72454228D01*
X145053458Y-72530885D01*
X145053454Y-72530888D01*
X144955888Y-72628454D01*
X144955885Y-72628458D01*
X144879228Y-72743182D01*
X144879221Y-72743195D01*
X144826421Y-72870667D01*
X144826418Y-72870678D01*
X144810646Y-72949967D01*
X144778260Y-73011878D01*
X144717544Y-73046452D01*
X144647775Y-73042711D01*
X144591103Y-73001844D01*
X144569255Y-72957869D01*
X144559688Y-72922164D01*
X144490505Y-72802335D01*
X144392665Y-72704495D01*
X144392664Y-72704494D01*
X144392661Y-72704492D01*
X144272838Y-72635313D01*
X144272837Y-72635312D01*
X144272836Y-72635312D01*
X144139183Y-72599500D01*
X144000817Y-72599500D01*
X143867164Y-72635312D01*
X143867161Y-72635313D01*
X143747338Y-72704492D01*
X143747333Y-72704496D01*
X143649496Y-72802333D01*
X143649492Y-72802338D01*
X143580313Y-72922161D01*
X143580312Y-72922164D01*
X143544500Y-73055817D01*
X141901392Y-73055817D01*
X141926245Y-73030964D01*
X141940654Y-73006007D01*
X141952381Y-72985695D01*
X141952383Y-72985691D01*
X141952803Y-72984963D01*
X141988845Y-72922536D01*
X142021250Y-72801601D01*
X142021250Y-72676399D01*
X141988845Y-72555464D01*
X141926245Y-72447036D01*
X141837714Y-72358505D01*
X141729286Y-72295905D01*
X141729287Y-72295905D01*
X141688974Y-72285103D01*
X141608351Y-72263500D01*
X141483149Y-72263500D01*
X141402525Y-72285103D01*
X141362213Y-72295905D01*
X141253782Y-72358507D01*
X141249763Y-72361591D01*
X141184593Y-72386782D01*
X141116149Y-72372740D01*
X141094389Y-72356650D01*
X141094159Y-72356951D01*
X141087715Y-72352006D01*
X141087714Y-72352005D01*
X140979286Y-72289405D01*
X140979287Y-72289405D01*
X140938974Y-72278603D01*
X140858351Y-72257000D01*
X140733149Y-72257000D01*
X140652525Y-72278603D01*
X140612213Y-72289405D01*
X140503787Y-72352004D01*
X140503784Y-72352006D01*
X140415256Y-72440534D01*
X140415254Y-72440537D01*
X140352655Y-72548963D01*
X140350913Y-72555464D01*
X140320250Y-72669899D01*
X138552743Y-72669899D01*
X138492838Y-72635313D01*
X138492837Y-72635312D01*
X138492836Y-72635312D01*
X138359183Y-72599500D01*
X138220817Y-72599500D01*
X138087164Y-72635312D01*
X138087161Y-72635313D01*
X137967338Y-72704492D01*
X137967333Y-72704496D01*
X137869496Y-72802333D01*
X137869492Y-72802338D01*
X137800313Y-72922161D01*
X137800310Y-72922168D01*
X137790744Y-72957870D01*
X137754379Y-73017530D01*
X137691532Y-73048058D01*
X137622156Y-73039763D01*
X137568279Y-72995277D01*
X137549353Y-72949966D01*
X137533581Y-72870679D01*
X137533581Y-72870677D01*
X137533580Y-72870672D01*
X137533578Y-72870667D01*
X137480778Y-72743195D01*
X137480771Y-72743182D01*
X137404114Y-72628458D01*
X137404111Y-72628454D01*
X137306545Y-72530888D01*
X137306541Y-72530885D01*
X137191817Y-72454228D01*
X137191804Y-72454221D01*
X137064332Y-72401421D01*
X137064322Y-72401418D01*
X136928995Y-72374500D01*
X136928993Y-72374500D01*
X136791007Y-72374500D01*
X136791005Y-72374500D01*
X136655677Y-72401418D01*
X136655667Y-72401421D01*
X136528195Y-72454221D01*
X136528182Y-72454228D01*
X136413458Y-72530885D01*
X136413454Y-72530888D01*
X136315888Y-72628454D01*
X136315885Y-72628458D01*
X136239228Y-72743182D01*
X136239221Y-72743195D01*
X136186421Y-72870667D01*
X136186418Y-72870677D01*
X136159500Y-73006004D01*
X136159500Y-73006007D01*
X136159500Y-74243993D01*
X136159500Y-74243995D01*
X136159499Y-74243995D01*
X131654142Y-74243995D01*
X131630495Y-74203036D01*
X131541964Y-74114505D01*
X131433536Y-74051905D01*
X131433537Y-74051905D01*
X131393224Y-74041103D01*
X131312601Y-74019500D01*
X131187399Y-74019500D01*
X131106775Y-74041103D01*
X131066463Y-74051905D01*
X130958037Y-74114504D01*
X130958034Y-74114506D01*
X130869506Y-74203034D01*
X130869504Y-74203037D01*
X130806905Y-74311463D01*
X130806905Y-74311464D01*
X130774500Y-74432399D01*
X128900500Y-74432399D01*
X128900500Y-67169500D01*
X128920185Y-67102461D01*
X128972989Y-67056706D01*
X129024500Y-67045500D01*
X131618818Y-67045500D01*
X131685857Y-67065185D01*
G37*
%TD.AperFunction*%
%TA.AperFunction,Conductor*%
G36*
X148631308Y-81234223D02*
G01*
X148668450Y-81244175D01*
X148698355Y-81256563D01*
X148731651Y-81275787D01*
X148757331Y-81295492D01*
X148784505Y-81322666D01*
X148804211Y-81348347D01*
X148823436Y-81381646D01*
X148835823Y-81411550D01*
X148845774Y-81448684D01*
X148850000Y-81480780D01*
X148850000Y-81519218D01*
X148845774Y-81551314D01*
X148835823Y-81588448D01*
X148823436Y-81618352D01*
X148804211Y-81651651D01*
X148784511Y-81677327D01*
X148768818Y-81693021D01*
X148763738Y-81698285D01*
X148757715Y-81704753D01*
X148757710Y-81704759D01*
X148721180Y-81759427D01*
X148721176Y-81759434D01*
X148692658Y-81821880D01*
X148646903Y-81874684D01*
X148579863Y-81894368D01*
X148512824Y-81874683D01*
X148475693Y-81837632D01*
X148465597Y-81821996D01*
X148459708Y-81801156D01*
X148426223Y-81739833D01*
X148391170Y-81693009D01*
X148366160Y-81667999D01*
X148359003Y-81656915D01*
X148358486Y-81655168D01*
X148355787Y-81651651D01*
X148348996Y-81639889D01*
X148336562Y-81618351D01*
X148324175Y-81588445D01*
X148314225Y-81551308D01*
X148310000Y-81519217D01*
X148310000Y-81480779D01*
X148314224Y-81448689D01*
X148324177Y-81411542D01*
X148336560Y-81381646D01*
X148355786Y-81348347D01*
X148375485Y-81322674D01*
X148402671Y-81295488D01*
X148428350Y-81275785D01*
X148461645Y-81256563D01*
X148491550Y-81244176D01*
X148528688Y-81234225D01*
X148560781Y-81230000D01*
X148599220Y-81230000D01*
X148631308Y-81234223D01*
G37*
%TD.AperFunction*%
%TD*%
M02*
