%TF.GenerationSoftware,KiCad,Pcbnew,9.0.6+1*%
%TF.CreationDate,Date%
%TF.ProjectId,FCU3,46435533-2e6b-4696-9361-645f70636258,+ (Unreleased)*%
%TF.SameCoordinates,Original*%
%TF.FileFunction,Copper,L4,Bot*%
%TF.FilePolarity,Positive*%
%FSLAX46Y46*%
G04 Gerber Fmt 4.6, Leading zero omitted, Abs format (unit mm)*
G04 Created by KiCad*
%MOMM*%
%LPD*%
G01*
G04 APERTURE LIST*
%TA.AperFunction,EtchedComponent*%
%ADD10C,0.000000*%
%TD*%
%TA.AperFunction,ComponentPad*%
%ADD11C,5.600000*%
%TD*%
%TA.AperFunction,ComponentPad*%
%ADD12C,0.300000*%
%TD*%
%TA.AperFunction,ComponentPad*%
%ADD13O,1.000000X2.100000*%
%TD*%
%TA.AperFunction,ComponentPad*%
%ADD14O,1.000000X1.800000*%
%TD*%
%TA.AperFunction,SMDPad,CuDef*%
%ADD15R,1.500000X1.000000*%
%TD*%
%TA.AperFunction,SMDPad,CuDef*%
%ADD16R,0.740000X2.400000*%
%TD*%
%TA.AperFunction,SMDPad,CuDef*%
%ADD17R,1.000000X1.500000*%
%TD*%
%TA.AperFunction,ViaPad*%
%ADD18C,0.550000*%
%TD*%
%TA.AperFunction,Conductor*%
%ADD19C,0.200000*%
%TD*%
%TA.AperFunction,Conductor*%
%ADD20C,1.000000*%
%TD*%
%TA.AperFunction,Conductor*%
%ADD21C,0.800000*%
%TD*%
%TA.AperFunction,Conductor*%
%ADD22C,0.700000*%
%TD*%
G04 APERTURE END LIST*
D10*
%TA.AperFunction,EtchedComponent*%
%TO.C,JP4*%
G36*
X153715200Y-69895000D02*
G01*
X153315200Y-69895000D01*
X153315200Y-69395000D01*
X153715200Y-69395000D01*
X153715200Y-69895000D01*
G37*
%TD.AperFunction*%
%TA.AperFunction,EtchedComponent*%
G36*
X154515200Y-69895000D02*
G01*
X154115200Y-69895000D01*
X154115200Y-69395000D01*
X154515200Y-69395000D01*
X154515200Y-69895000D01*
G37*
%TD.AperFunction*%
%TA.AperFunction,EtchedComponent*%
%TO.C,JP3*%
G36*
X143375000Y-102245000D02*
G01*
X142875000Y-102245000D01*
X142875000Y-101845000D01*
X143375000Y-101845000D01*
X143375000Y-102245000D01*
G37*
%TD.AperFunction*%
%TA.AperFunction,EtchedComponent*%
G36*
X143375000Y-103045000D02*
G01*
X142875000Y-103045000D01*
X142875000Y-102645000D01*
X143375000Y-102645000D01*
X143375000Y-103045000D01*
G37*
%TD.AperFunction*%
%TD*%
D11*
%TO.P,H2,1*%
%TO.N,N/C*%
X162400000Y-70045000D03*
%TD*%
D12*
%TO.P,PS1,4,VOUT*%
%TO.N,+9V*%
X158925000Y-88387500D03*
X158137000Y-88387500D03*
X157350000Y-88387500D03*
X158925000Y-89037500D03*
X158137000Y-89037500D03*
X157350000Y-89037500D03*
%TO.P,PS1,5,SW*%
%TO.N,unconnected-(PS1-SW-Pad5)_4*%
X158925000Y-90337500D03*
%TO.N,unconnected-(PS1-SW-Pad5)_1*%
X158137000Y-90337500D03*
%TO.N,unconnected-(PS1-SW-Pad5)_2*%
X157350000Y-90337500D03*
%TO.N,unconnected-(PS1-SW-Pad5)_6*%
X158925000Y-90987500D03*
%TO.N,unconnected-(PS1-SW-Pad5)*%
X158137000Y-90987500D03*
%TO.N,unconnected-(PS1-SW-Pad5)_3*%
X157350000Y-90987500D03*
%TD*%
D11*
%TO.P,H1,1*%
%TO.N,N/C*%
X132754125Y-70082500D03*
%TD*%
%TO.P,H4,1*%
%TO.N,N/C*%
X162400000Y-100545000D03*
%TD*%
%TO.P,H3,1*%
%TO.N,N/C*%
X131900000Y-100545000D03*
%TD*%
D13*
%TO.P,J3,SH1,SHIELD*%
%TO.N,PGND*%
X145500000Y-73625000D03*
%TO.P,J3,SH2,SHIELD*%
X136860000Y-73625000D03*
D14*
%TO.P,J3,SH3,SHIELD*%
X145500000Y-69445000D03*
%TO.P,J3,SH4,SHIELD*%
X136860000Y-69445000D03*
%TD*%
D15*
%TO.P,JP4,1,A*%
%TO.N,PGND*%
X153915200Y-68995000D03*
%TO.P,JP4,2,B*%
%TO.N,DGND*%
X153915200Y-70295000D03*
%TD*%
D16*
%TO.P,J2,1,Pin_1*%
%TO.N,+3V3*%
X147380000Y-69800000D03*
%TO.P,J2,2,Pin_2*%
%TO.N,/Project Architecture/Microcontroller/SWDIO*%
X147380000Y-73700000D03*
%TO.P,J2,3,Pin_3*%
%TO.N,DGND*%
X148650000Y-69800000D03*
%TO.P,J2,4,Pin_4*%
%TO.N,/Project Architecture/Microcontroller/SWCLK*%
X148650000Y-73700000D03*
%TO.P,J2,5,Pin_5*%
%TO.N,DGND*%
X149920000Y-69800000D03*
%TO.P,J2,6,Pin_6*%
%TO.N,/Project Architecture/Microcontroller/SWO*%
X149920000Y-73700000D03*
%TD*%
D17*
%TO.P,JP3,1,A*%
%TO.N,DGND*%
X142475000Y-102445000D03*
%TO.P,JP3,2,B*%
%TO.N,AGND*%
X143775000Y-102445000D03*
%TD*%
D18*
%TO.N,*%
X129850000Y-78595000D03*
X129825000Y-89895000D03*
X129825000Y-95445000D03*
X129850000Y-86095000D03*
%TO.N,PGND*%
X164750000Y-87150000D03*
X155115200Y-68115000D03*
X160637500Y-82837500D03*
X161562500Y-81912500D03*
X162300000Y-80250000D03*
X164550000Y-90600000D03*
X164750000Y-87950000D03*
X164250000Y-90050000D03*
%TO.N,DGND*%
X151600000Y-96800000D03*
X150300000Y-91770000D03*
X151250000Y-79550000D03*
X146105000Y-81500000D03*
X136550000Y-98695000D03*
X155115200Y-71240000D03*
X151690000Y-85700000D03*
X134750000Y-103320000D03*
X154550000Y-98105000D03*
X132350000Y-92195000D03*
X151525000Y-77525000D03*
X156200000Y-102845000D03*
X151690000Y-82950000D03*
X158500000Y-76500000D03*
X146850000Y-102882500D03*
X150187500Y-88307500D03*
X141375000Y-103145000D03*
X138125000Y-86695000D03*
X135100000Y-97000000D03*
X153300000Y-102845000D03*
X151250000Y-78750000D03*
X141375000Y-102395000D03*
%TO.N,+3V3*%
X152900000Y-84650000D03*
X135235000Y-92485000D03*
X135800000Y-99395000D03*
X150730000Y-86150000D03*
X151950000Y-86476000D03*
X148580000Y-81500000D03*
X135100000Y-95445000D03*
X145825000Y-102595000D03*
X153050000Y-82900000D03*
X151250000Y-100070000D03*
X151900000Y-72350000D03*
X137500000Y-88750000D03*
X152900000Y-83650000D03*
X152000000Y-95075000D03*
%TO.N,AGND*%
X144875000Y-102595000D03*
X144875000Y-103220000D03*
X137150000Y-79800000D03*
%TO.N,+VBAT*%
X129500000Y-79845000D03*
X132250000Y-79845000D03*
X130300000Y-81000000D03*
X131250000Y-81000000D03*
X129500000Y-81000000D03*
X132200000Y-81000000D03*
X130350000Y-79845000D03*
X131300000Y-79845000D03*
%TO.N,+9V*%
X161850000Y-86015000D03*
%TO.N,/Project Architecture/Power/VBAT*%
X163450000Y-93000000D03*
X161700000Y-93000000D03*
X164250000Y-92950000D03*
X162550000Y-93000000D03*
%TO.N,/Project Architecture/SBUS_TX*%
X154522500Y-94155000D03*
X158500000Y-75450000D03*
%TO.N,/Project Architecture/UART4_RX*%
X158500000Y-77500000D03*
X146650000Y-100745000D03*
%TO.N,/Project Architecture/UART4_TX*%
X158450000Y-78500000D03*
X146100000Y-98020000D03*
%TO.N,Net-(PS1-MODE)*%
X162250000Y-91025000D03*
X162650000Y-86025000D03*
%TO.N,/Project Architecture/Microcontroller/SWDIO*%
X139474000Y-80000000D03*
X140600000Y-88995000D03*
X136300000Y-90400000D03*
%TO.N,/Project Architecture/UART5_RX*%
X139250000Y-92000000D03*
X132500000Y-90195000D03*
%TO.N,/Project Architecture/I2C1_SDA*%
X138825000Y-96270000D03*
X135100000Y-93500000D03*
%TO.N,/Project Architecture/USB_-DATA*%
X142200000Y-75500000D03*
X140930000Y-75500000D03*
%TO.N,/Project Architecture/USB_CC1*%
X131250000Y-75595000D03*
X141545750Y-72739000D03*
%TO.N,/Project Architecture/USB_CC2*%
X131250000Y-74495000D03*
X140795750Y-72732500D03*
%TO.N,/Project Architecture/UART2_RX*%
X152600000Y-97115000D03*
X147650000Y-96800000D03*
%TO.N,/Project Architecture/ANA_ADC_VBAT*%
X136300000Y-91195000D03*
X142600000Y-98020000D03*
%TO.N,/Project Architecture/SPI1_SCK*%
X146750000Y-95300000D03*
X151987569Y-87487569D03*
X144980000Y-85125000D03*
%TO.N,/Project Architecture/SPI1_SDO*%
X145580000Y-85900000D03*
X150300000Y-92921000D03*
%TO.N,/Project Architecture/DIG_IMU_CS*%
X147250000Y-96100000D03*
X145055000Y-83950000D03*
%TO.N,/Project Architecture/SPI1_SDI*%
X151018413Y-87268413D03*
X149980000Y-84351000D03*
X147700000Y-94770000D03*
%TO.N,/Project Architecture/DIG_IMU_EXTI*%
X148980000Y-82550000D03*
X147875000Y-93795000D03*
%TO.N,/Project Architecture/ESC_SIG_M4*%
X144050000Y-89100000D03*
X132400000Y-82400000D03*
%TO.N,/Project Architecture/ESC_SIG_M3*%
X145600000Y-88995000D03*
X132287500Y-84037500D03*
%TO.N,/Project Architecture/UART1_RX*%
X141250000Y-90500000D03*
X132300000Y-85800000D03*
%TO.N,/Project Architecture/ESC_SIG_M2*%
X135100000Y-81900000D03*
X143600000Y-86745000D03*
%TO.N,/Project Architecture/Microcontroller/SWCLK*%
X138900000Y-90150000D03*
X140050000Y-80650000D03*
%TO.N,/Project Architecture/ANA_ADC_CURR*%
X132300000Y-84845000D03*
X144100000Y-98020000D03*
%TO.N,/Project Architecture/Microcontroller/SWO*%
X136550000Y-89050000D03*
X140525000Y-81350000D03*
X139400000Y-89350000D03*
%TO.N,/Project Architecture/ESC_SIG_M1*%
X135200000Y-80850000D03*
X143100000Y-88970000D03*
%TO.N,/Project Architecture/LED1*%
X148150000Y-98700000D03*
%TO.N,/Project Architecture/LED0*%
X150000000Y-99595000D03*
%TD*%
D19*
%TO.N,PGND*%
X136872500Y-69432500D02*
X136860000Y-69445000D01*
X155115200Y-68115000D02*
X154795200Y-68115000D01*
X145487500Y-69432500D02*
X145500000Y-69445000D01*
X154795200Y-68115000D02*
X153915200Y-68995000D01*
%TO.N,DGND*%
X141775000Y-103145000D02*
X142475000Y-102445000D01*
X149920000Y-69800000D02*
X148650000Y-69800000D01*
X150415000Y-70295000D02*
X149920000Y-69800000D01*
X154860200Y-71240000D02*
X153915200Y-70295000D01*
X142425000Y-102395000D02*
X142475000Y-102445000D01*
X151250000Y-79550000D02*
X151250000Y-79600000D01*
D20*
X151250000Y-77800000D02*
X151250000Y-78750000D01*
X151525000Y-77525000D02*
X151250000Y-77800000D01*
D19*
X141375000Y-103145000D02*
X141775000Y-103145000D01*
X141375000Y-102395000D02*
X142425000Y-102395000D01*
D20*
X153915200Y-70295000D02*
X153915200Y-75134800D01*
X153915200Y-75134800D02*
X151525000Y-77525000D01*
D19*
X153915200Y-70295000D02*
X150415000Y-70295000D01*
X155115200Y-71240000D02*
X154860200Y-71240000D01*
D20*
X151250000Y-78750000D02*
X151250000Y-79550000D01*
D19*
%TO.N,+3V3*%
X147380000Y-71280000D02*
X147850000Y-71750000D01*
X135235000Y-92485000D02*
X135065000Y-92485000D01*
X147850000Y-71750000D02*
X151300000Y-71750000D01*
X135065000Y-92485000D02*
X134450000Y-93100000D01*
X147380000Y-69800000D02*
X147380000Y-71280000D01*
X151300000Y-71750000D02*
X151900000Y-72350000D01*
X134450000Y-94795000D02*
X135100000Y-95445000D01*
X134450000Y-93100000D02*
X134450000Y-94795000D01*
%TO.N,AGND*%
X144875000Y-103220000D02*
X144550000Y-103220000D01*
X144550000Y-103220000D02*
X143775000Y-102445000D01*
X146600000Y-89300000D02*
X144875000Y-91025000D01*
X137300000Y-79950000D02*
X138200000Y-79950000D01*
X137150000Y-79800000D02*
X137300000Y-79950000D01*
X144875000Y-102595000D02*
X143925000Y-102595000D01*
X143925000Y-102595000D02*
X143775000Y-102445000D01*
X146600000Y-88350000D02*
X146600000Y-89300000D01*
X144875000Y-91025000D02*
X144875000Y-102595000D01*
X138200000Y-79950000D02*
X146600000Y-88350000D01*
%TO.N,+9V*%
X158150000Y-89650000D02*
X158137000Y-89637000D01*
X158925000Y-88387500D02*
X157350000Y-88387500D01*
D21*
X157350000Y-89037500D02*
X156562500Y-89037500D01*
X158137000Y-88387500D02*
X158137000Y-89037500D01*
X158925000Y-88387500D02*
X159637500Y-88387500D01*
X157350000Y-88387500D02*
X156487500Y-88387500D01*
D19*
X158925000Y-87675000D02*
X158900000Y-87650000D01*
X158925000Y-89625000D02*
X158900000Y-89650000D01*
D21*
X158137000Y-88387500D02*
X158137000Y-87537000D01*
D22*
X157350000Y-89037500D02*
X157350000Y-89650000D01*
D19*
X159650000Y-88400000D02*
X159637500Y-88387500D01*
X156487500Y-88387500D02*
X156450000Y-88350000D01*
D21*
X158925000Y-89037500D02*
X159687500Y-89037500D01*
X157350000Y-89037500D02*
X157350000Y-88387500D01*
D19*
X159687500Y-89037500D02*
X159700000Y-89050000D01*
D21*
X158925000Y-88387500D02*
X158925000Y-87675000D01*
D19*
X157350000Y-89037500D02*
X158925000Y-89037500D01*
D22*
X158137000Y-89037500D02*
X158137000Y-89637000D01*
D21*
X157350000Y-88387500D02*
X157350000Y-87650000D01*
D22*
X158925000Y-89037500D02*
X158925000Y-89625000D01*
D19*
X156562500Y-89037500D02*
X156550000Y-89050000D01*
X158137000Y-87537000D02*
X158100000Y-87500000D01*
D21*
X158925000Y-89037500D02*
X158925000Y-88387500D01*
D19*
%TO.N,/Project Architecture/SBUS_TX*%
X158500000Y-75450000D02*
X160050000Y-75450000D01*
X155477500Y-93200000D02*
X154522500Y-94155000D01*
X162450000Y-81700000D02*
X162450000Y-82300000D01*
X160050000Y-75450000D02*
X161100000Y-76500000D01*
X162450000Y-82300000D02*
X161250000Y-83500000D01*
X160100000Y-93200000D02*
X155477500Y-93200000D01*
X161250000Y-83500000D02*
X161250000Y-92050000D01*
X161100000Y-76500000D02*
X161100000Y-80350000D01*
X161250000Y-92050000D02*
X160100000Y-93200000D01*
X161100000Y-80350000D02*
X162450000Y-81700000D01*
%TO.N,/Project Architecture/UART4_RX*%
X145524000Y-91976000D02*
X148350000Y-89150000D01*
X145524000Y-99619000D02*
X145524000Y-91976000D01*
X146650000Y-100745000D02*
X145524000Y-99619000D01*
X148350000Y-89150000D02*
X152900000Y-89150000D01*
X154899000Y-87151000D02*
X154899000Y-81101000D01*
X152900000Y-89150000D02*
X154899000Y-87151000D01*
X154899000Y-81101000D02*
X158500000Y-77500000D01*
%TO.N,/Project Architecture/UART4_TX*%
X155300000Y-88100000D02*
X151054000Y-92346000D01*
X151054000Y-92346000D02*
X147354000Y-92346000D01*
X155300000Y-81650000D02*
X155300000Y-88100000D01*
X158450000Y-78500000D02*
X155300000Y-81650000D01*
X147354000Y-92346000D02*
X146100000Y-93600000D01*
X146100000Y-93600000D02*
X146100000Y-98020000D01*
%TO.N,/Project Architecture/Microcontroller/SWDIO*%
X140374000Y-79100000D02*
X141980000Y-79100000D01*
X137700000Y-90400000D02*
X138100000Y-90800000D01*
X141980000Y-79100000D02*
X147380000Y-73700000D01*
X136300000Y-90400000D02*
X137700000Y-90400000D01*
X138100000Y-90800000D02*
X139900000Y-90800000D01*
X139474000Y-80000000D02*
X140374000Y-79100000D01*
X139900000Y-90800000D02*
X140600000Y-90100000D01*
X140600000Y-90100000D02*
X140600000Y-88995000D01*
%TO.N,/Project Architecture/UART5_RX*%
X139250000Y-92000000D02*
X136000000Y-92000000D01*
X134200000Y-90200000D02*
X132505000Y-90200000D01*
X132505000Y-90200000D02*
X132500000Y-90195000D01*
X136000000Y-92000000D02*
X134200000Y-90200000D01*
%TO.N,/Project Architecture/I2C1_SDA*%
X137820000Y-96270000D02*
X138825000Y-96270000D01*
X135100000Y-93550000D02*
X137820000Y-96270000D01*
X135100000Y-93500000D02*
X135100000Y-93550000D01*
%TO.N,/Project Architecture/USB_-DATA*%
X142200000Y-75500000D02*
X140930000Y-75500000D01*
%TO.N,/Project Architecture/USB_CC1*%
X141545750Y-72739000D02*
X141545750Y-73154250D01*
X138900000Y-71900000D02*
X136600000Y-71900000D01*
X131255000Y-75600000D02*
X131250000Y-75595000D01*
X140450000Y-73450000D02*
X138900000Y-71900000D01*
X141545750Y-73154250D02*
X141250000Y-73450000D01*
X136600000Y-71900000D02*
X132900000Y-75600000D01*
X141600750Y-72684000D02*
X141545750Y-72739000D01*
X132900000Y-75600000D02*
X131255000Y-75600000D01*
X141250000Y-73450000D02*
X140450000Y-73450000D01*
%TO.N,/Project Architecture/USB_CC2*%
X140795750Y-72732500D02*
X139413250Y-71350000D01*
X139413250Y-71350000D02*
X136400000Y-71350000D01*
X133255000Y-74495000D02*
X131250000Y-74495000D01*
X136400000Y-71350000D02*
X133255000Y-74495000D01*
%TO.N,/Project Architecture/UART2_RX*%
X152600000Y-96650000D02*
X151950000Y-96000000D01*
X152600000Y-97115000D02*
X152600000Y-96650000D01*
X151950000Y-96000000D02*
X150850000Y-96000000D01*
X150850000Y-96000000D02*
X150050000Y-96800000D01*
X150050000Y-96800000D02*
X147650000Y-96800000D01*
%TO.N,/Project Architecture/ANA_ADC_VBAT*%
X139700000Y-91200000D02*
X142600000Y-94100000D01*
X142600000Y-94100000D02*
X142600000Y-98020000D01*
X136305000Y-91200000D02*
X139700000Y-91200000D01*
X136300000Y-91195000D02*
X136305000Y-91200000D01*
%TO.N,/Project Architecture/SPI1_SCK*%
X150250000Y-87550000D02*
X150250000Y-87300000D01*
X150250000Y-87300000D02*
X148075000Y-85125000D01*
X148075000Y-85125000D02*
X144980000Y-85125000D01*
X150887569Y-88187569D02*
X150250000Y-87550000D01*
X151287569Y-88187569D02*
X150887569Y-88187569D01*
X151987569Y-87487569D02*
X151287569Y-88187569D01*
%TO.N,/Project Architecture/SPI1_SDI*%
X149980000Y-86230000D02*
X149980000Y-84351000D01*
X151018413Y-87268413D02*
X149980000Y-86230000D01*
%TO.N,/Project Architecture/ESC_SIG_M4*%
X144050000Y-88200000D02*
X138695000Y-82845000D01*
X144050000Y-89100000D02*
X144050000Y-88200000D01*
X138695000Y-82845000D02*
X132845000Y-82845000D01*
X132845000Y-82845000D02*
X132400000Y-82400000D01*
%TO.N,/Project Architecture/ESC_SIG_M3*%
X132287500Y-84037500D02*
X132425000Y-83900000D01*
X132425000Y-83900000D02*
X138250000Y-83900000D01*
X142450000Y-88100000D02*
X142450000Y-89700000D01*
X138250000Y-83900000D02*
X142450000Y-88100000D01*
X144700000Y-89900000D02*
X145600000Y-89000000D01*
X142450000Y-89700000D02*
X142650000Y-89900000D01*
X145600000Y-89000000D02*
X145600000Y-88995000D01*
X142650000Y-89900000D02*
X144700000Y-89900000D01*
%TO.N,/Project Architecture/UART1_RX*%
X132960000Y-85800000D02*
X132300000Y-85800000D01*
X138445000Y-85845000D02*
X133005000Y-85845000D01*
X133005000Y-85845000D02*
X132960000Y-85800000D01*
X141250000Y-90500000D02*
X141250000Y-88650000D01*
X141250000Y-88650000D02*
X138445000Y-85845000D01*
%TO.N,/Project Architecture/ESC_SIG_M2*%
X135100000Y-81900000D02*
X138755000Y-81900000D01*
X138755000Y-81900000D02*
X143600000Y-86745000D01*
%TO.N,/Project Architecture/Microcontroller/SWCLK*%
X140700000Y-80000000D02*
X143180000Y-80000000D01*
X140050000Y-80650000D02*
X140700000Y-80000000D01*
X148650000Y-74530000D02*
X148650000Y-73700000D01*
X143180000Y-80000000D02*
X148650000Y-74530000D01*
%TO.N,/Project Architecture/ANA_ADC_CURR*%
X138012100Y-84845000D02*
X141850000Y-88682900D01*
X141850000Y-89850000D02*
X144100000Y-92100000D01*
X132300000Y-84845000D02*
X138012100Y-84845000D01*
X144100000Y-92100000D02*
X144100000Y-98020000D01*
X141850000Y-88682900D02*
X141850000Y-89850000D01*
%TO.N,/Project Architecture/Microcontroller/SWO*%
X139376000Y-89326000D02*
X136826000Y-89326000D01*
X143550000Y-80900000D02*
X149920000Y-74530000D01*
X139400000Y-89350000D02*
X139376000Y-89326000D01*
X136826000Y-89326000D02*
X136550000Y-89050000D01*
X149920000Y-74530000D02*
X149920000Y-73700000D01*
X140975000Y-80900000D02*
X143550000Y-80900000D01*
X140525000Y-81350000D02*
X140975000Y-80900000D01*
%TO.N,/Project Architecture/ESC_SIG_M1*%
X134350000Y-80850000D02*
X133600000Y-81600000D01*
X138450000Y-83400000D02*
X143100000Y-88050000D01*
X135200000Y-80850000D02*
X134350000Y-80850000D01*
X131750000Y-82750000D02*
X132400000Y-83400000D01*
X133600000Y-81600000D02*
X131992706Y-81600000D01*
X131750000Y-81842706D02*
X131750000Y-82750000D01*
X132400000Y-83400000D02*
X138450000Y-83400000D01*
X131992706Y-81600000D02*
X131750000Y-81842706D01*
X143100000Y-88050000D02*
X143100000Y-88970000D01*
%TD*%
%TA.AperFunction,Conductor*%
%TO.N,+9V*%
G36*
X160892539Y-83519685D02*
G01*
X160938294Y-83572489D01*
X160949500Y-83624000D01*
X160949500Y-91874167D01*
X160929815Y-91941206D01*
X160913181Y-91961848D01*
X160011848Y-92863181D01*
X159950525Y-92896666D01*
X159924167Y-92899500D01*
X155474000Y-92899500D01*
X155406961Y-92879815D01*
X155361206Y-92827011D01*
X155350000Y-92775500D01*
X155350000Y-90290829D01*
X156995500Y-90290829D01*
X156995500Y-90384171D01*
X157019659Y-90474332D01*
X157066328Y-90555166D01*
X157066330Y-90555169D01*
X157085980Y-90574819D01*
X157119465Y-90636142D01*
X157114481Y-90705834D01*
X157085980Y-90750181D01*
X157066330Y-90769830D01*
X157066328Y-90769833D01*
X157019659Y-90850667D01*
X157019659Y-90850668D01*
X156995500Y-90940829D01*
X156995500Y-91034171D01*
X157019659Y-91124332D01*
X157066329Y-91205168D01*
X157132332Y-91271171D01*
X157213168Y-91317841D01*
X157303329Y-91342000D01*
X157303331Y-91342000D01*
X157396669Y-91342000D01*
X157396671Y-91342000D01*
X157486832Y-91317841D01*
X157567668Y-91271171D01*
X157633671Y-91205168D01*
X157636111Y-91200940D01*
X157686676Y-91152725D01*
X157755282Y-91139499D01*
X157820148Y-91165464D01*
X157850887Y-91200939D01*
X157853329Y-91205168D01*
X157919332Y-91271171D01*
X158000168Y-91317841D01*
X158090329Y-91342000D01*
X158090331Y-91342000D01*
X158183669Y-91342000D01*
X158183671Y-91342000D01*
X158273832Y-91317841D01*
X158354668Y-91271171D01*
X158420671Y-91205168D01*
X158423611Y-91200076D01*
X158474176Y-91151858D01*
X158542783Y-91138633D01*
X158607648Y-91164599D01*
X158638389Y-91200076D01*
X158641326Y-91205164D01*
X158641328Y-91205166D01*
X158641329Y-91205168D01*
X158707332Y-91271171D01*
X158788168Y-91317841D01*
X158878329Y-91342000D01*
X158878331Y-91342000D01*
X158971669Y-91342000D01*
X158971671Y-91342000D01*
X159061832Y-91317841D01*
X159142668Y-91271171D01*
X159208671Y-91205168D01*
X159255341Y-91124332D01*
X159279500Y-91034171D01*
X159279500Y-90940829D01*
X159255341Y-90850668D01*
X159208671Y-90769832D01*
X159189020Y-90750181D01*
X159155535Y-90688858D01*
X159160519Y-90619166D01*
X159189020Y-90574819D01*
X159208671Y-90555168D01*
X159255341Y-90474332D01*
X159279500Y-90384171D01*
X159279500Y-90290829D01*
X159255341Y-90200668D01*
X159208671Y-90119832D01*
X159142668Y-90053829D01*
X159061832Y-90007159D01*
X159061833Y-90007159D01*
X159031778Y-89999106D01*
X158971671Y-89983000D01*
X158878329Y-89983000D01*
X158818221Y-89999106D01*
X158788167Y-90007159D01*
X158707333Y-90053828D01*
X158707330Y-90053830D01*
X158641330Y-90119830D01*
X158641326Y-90119835D01*
X158638387Y-90124927D01*
X158587820Y-90173143D01*
X158519213Y-90186366D01*
X158454348Y-90160398D01*
X158423613Y-90124927D01*
X158420673Y-90119835D01*
X158420672Y-90119833D01*
X158420671Y-90119832D01*
X158354668Y-90053829D01*
X158273832Y-90007159D01*
X158273833Y-90007159D01*
X158243778Y-89999106D01*
X158183671Y-89983000D01*
X158090329Y-89983000D01*
X158030221Y-89999106D01*
X158000167Y-90007159D01*
X157919333Y-90053828D01*
X157919330Y-90053830D01*
X157853330Y-90119830D01*
X157853326Y-90119835D01*
X157850887Y-90124061D01*
X157800320Y-90172277D01*
X157731713Y-90185500D01*
X157666848Y-90159532D01*
X157636113Y-90124061D01*
X157633673Y-90119835D01*
X157633672Y-90119833D01*
X157633671Y-90119832D01*
X157567668Y-90053829D01*
X157486832Y-90007159D01*
X157486833Y-90007159D01*
X157456778Y-89999106D01*
X157396671Y-89983000D01*
X157303329Y-89983000D01*
X157243221Y-89999106D01*
X157213167Y-90007159D01*
X157132333Y-90053828D01*
X157132330Y-90053830D01*
X157066330Y-90119830D01*
X157066328Y-90119833D01*
X157019659Y-90200667D01*
X157019659Y-90200668D01*
X156995500Y-90290829D01*
X155350000Y-90290829D01*
X155350000Y-89591091D01*
X157008540Y-89591091D01*
X157042112Y-89613523D01*
X157160401Y-89662520D01*
X157160409Y-89662522D01*
X157285976Y-89687499D01*
X157285980Y-89687500D01*
X157414020Y-89687500D01*
X157414023Y-89687499D01*
X157539590Y-89662522D01*
X157539598Y-89662520D01*
X157657887Y-89613523D01*
X157674607Y-89602351D01*
X157741284Y-89581472D01*
X157808664Y-89599955D01*
X157812393Y-89602351D01*
X157829112Y-89613523D01*
X157947401Y-89662520D01*
X157947409Y-89662522D01*
X158072976Y-89687499D01*
X158072980Y-89687500D01*
X158201020Y-89687500D01*
X158201023Y-89687499D01*
X158326590Y-89662522D01*
X158326598Y-89662520D01*
X158444884Y-89613524D01*
X158462108Y-89602016D01*
X158528786Y-89581138D01*
X158596166Y-89599622D01*
X158599892Y-89602016D01*
X158617115Y-89613524D01*
X158735401Y-89662520D01*
X158735409Y-89662522D01*
X158860976Y-89687499D01*
X158860980Y-89687500D01*
X158989020Y-89687500D01*
X158989023Y-89687499D01*
X159114590Y-89662522D01*
X159114594Y-89662521D01*
X159232891Y-89613520D01*
X159232898Y-89613516D01*
X159266458Y-89591091D01*
X159266459Y-89591090D01*
X158818934Y-89143566D01*
X158692977Y-89017609D01*
X158825000Y-89017609D01*
X158825000Y-89057391D01*
X158840224Y-89094145D01*
X158868355Y-89122276D01*
X158905109Y-89137500D01*
X158944891Y-89137500D01*
X158981645Y-89122276D01*
X159009776Y-89094145D01*
X159025000Y-89057391D01*
X159025000Y-89017609D01*
X159009776Y-88980855D01*
X158981645Y-88952724D01*
X158944891Y-88937500D01*
X158905109Y-88937500D01*
X158868355Y-88952724D01*
X158840224Y-88980855D01*
X158825000Y-89017609D01*
X158692977Y-89017609D01*
X158651477Y-88976109D01*
X158635946Y-88976109D01*
X158608835Y-88990913D01*
X158582477Y-88993747D01*
X158479523Y-88993747D01*
X158458277Y-88987508D01*
X158436189Y-88985929D01*
X158422132Y-88976895D01*
X158419455Y-88976109D01*
X158410523Y-88976109D01*
X158330747Y-89055885D01*
X158322801Y-89060223D01*
X158317376Y-89067471D01*
X158292616Y-89076705D01*
X158269424Y-89089370D01*
X158260394Y-89088724D01*
X158251912Y-89091888D01*
X158226091Y-89086271D01*
X158225067Y-89086197D01*
X158237000Y-89057391D01*
X158237000Y-89017609D01*
X158221776Y-88980855D01*
X158193645Y-88952724D01*
X158156891Y-88937500D01*
X158117109Y-88937500D01*
X158080355Y-88952724D01*
X158052224Y-88980855D01*
X158037000Y-89017609D01*
X158037000Y-89057391D01*
X158050031Y-89088850D01*
X157987600Y-89084386D01*
X157943253Y-89055885D01*
X157863977Y-88976609D01*
X157848031Y-88976609D01*
X157821835Y-88990913D01*
X157795477Y-88993747D01*
X157691523Y-88993747D01*
X157670277Y-88987508D01*
X157648189Y-88985929D01*
X157634132Y-88976895D01*
X157633158Y-88976609D01*
X157623023Y-88976609D01*
X157456066Y-89143566D01*
X157008540Y-89591091D01*
X155350000Y-89591091D01*
X155350000Y-88526333D01*
X155369685Y-88459294D01*
X155386319Y-88438652D01*
X155460195Y-88364776D01*
X155501495Y-88323476D01*
X156700000Y-88323476D01*
X156700000Y-88451523D01*
X156724977Y-88577090D01*
X156724979Y-88577098D01*
X156761409Y-88665047D01*
X156768878Y-88734516D01*
X156761409Y-88759953D01*
X156724979Y-88847901D01*
X156724977Y-88847909D01*
X156700000Y-88973476D01*
X156700000Y-89101523D01*
X156724977Y-89227090D01*
X156724979Y-89227098D01*
X156773976Y-89345386D01*
X156773981Y-89345396D01*
X156796407Y-89378958D01*
X156796408Y-89378958D01*
X157157759Y-89017609D01*
X157250000Y-89017609D01*
X157250000Y-89057391D01*
X157265224Y-89094145D01*
X157293355Y-89122276D01*
X157330109Y-89137500D01*
X157369891Y-89137500D01*
X157406645Y-89122276D01*
X157434776Y-89094145D01*
X157450000Y-89057391D01*
X157450000Y-89017609D01*
X157434776Y-88980855D01*
X157406645Y-88952724D01*
X157369891Y-88937500D01*
X157330109Y-88937500D01*
X157293355Y-88952724D01*
X157265224Y-88980855D01*
X157250000Y-89017609D01*
X157157759Y-89017609D01*
X157243934Y-88931434D01*
X157462868Y-88712500D01*
X158024132Y-88712500D01*
X158137000Y-88825368D01*
X158249868Y-88712500D01*
X158812132Y-88712500D01*
X159031066Y-88931434D01*
X159478590Y-89378959D01*
X159478591Y-89378958D01*
X159501016Y-89345398D01*
X159501020Y-89345391D01*
X159550021Y-89227094D01*
X159550022Y-89227090D01*
X159574999Y-89101523D01*
X159575000Y-89101520D01*
X159575000Y-88973480D01*
X159574999Y-88973476D01*
X159550022Y-88847909D01*
X159550021Y-88847905D01*
X159513590Y-88759954D01*
X159506121Y-88690485D01*
X159513590Y-88665046D01*
X159550021Y-88577094D01*
X159550022Y-88577090D01*
X159574999Y-88451523D01*
X159575000Y-88451520D01*
X159575000Y-88323480D01*
X159574999Y-88323476D01*
X159550022Y-88197909D01*
X159550020Y-88197901D01*
X159501023Y-88079612D01*
X159478591Y-88046040D01*
X159031066Y-88493566D01*
X158812132Y-88712500D01*
X158249868Y-88712500D01*
X158137000Y-88599632D01*
X158024132Y-88712500D01*
X157462868Y-88712500D01*
X157243934Y-88493566D01*
X157117977Y-88367609D01*
X157250000Y-88367609D01*
X157250000Y-88407391D01*
X157265224Y-88444145D01*
X157293355Y-88472276D01*
X157330109Y-88487500D01*
X157369891Y-88487500D01*
X157406645Y-88472276D01*
X157434776Y-88444145D01*
X157450000Y-88407391D01*
X157450000Y-88367609D01*
X157434776Y-88330855D01*
X157406645Y-88302724D01*
X157369891Y-88287500D01*
X157330109Y-88287500D01*
X157293355Y-88302724D01*
X157265224Y-88330855D01*
X157250000Y-88367609D01*
X157117977Y-88367609D01*
X156796408Y-88046039D01*
X156796407Y-88046040D01*
X156773978Y-88079609D01*
X156724979Y-88197901D01*
X156724977Y-88197909D01*
X156700000Y-88323476D01*
X155501495Y-88323476D01*
X155540460Y-88284511D01*
X155580022Y-88215988D01*
X155600500Y-88139562D01*
X155600500Y-88060438D01*
X155600500Y-87833908D01*
X157008539Y-87833908D01*
X157456066Y-88281434D01*
X157623023Y-88448391D01*
X157638969Y-88448391D01*
X157665165Y-88434087D01*
X157691523Y-88431253D01*
X157795477Y-88431253D01*
X157816722Y-88437491D01*
X157838811Y-88439071D01*
X157852867Y-88448104D01*
X157853842Y-88448391D01*
X157863977Y-88448391D01*
X157943253Y-88369115D01*
X157951198Y-88364776D01*
X157956624Y-88357529D01*
X157981383Y-88348294D01*
X158004576Y-88335630D01*
X158013605Y-88336275D01*
X158022088Y-88333112D01*
X158047908Y-88338728D01*
X158048932Y-88338801D01*
X158037000Y-88367609D01*
X158037000Y-88407391D01*
X158052224Y-88444145D01*
X158080355Y-88472276D01*
X158117109Y-88487500D01*
X158156891Y-88487500D01*
X158193645Y-88472276D01*
X158221776Y-88444145D01*
X158237000Y-88407391D01*
X158237000Y-88367609D01*
X158223968Y-88336149D01*
X158286400Y-88340614D01*
X158330747Y-88369115D01*
X158410523Y-88448891D01*
X158426054Y-88448891D01*
X158453165Y-88434087D01*
X158479523Y-88431253D01*
X158582477Y-88431253D01*
X158603722Y-88437491D01*
X158625811Y-88439071D01*
X158639867Y-88448104D01*
X158642545Y-88448891D01*
X158651477Y-88448891D01*
X158732759Y-88367609D01*
X158825000Y-88367609D01*
X158825000Y-88407391D01*
X158840224Y-88444145D01*
X158868355Y-88472276D01*
X158905109Y-88487500D01*
X158944891Y-88487500D01*
X158981645Y-88472276D01*
X159009776Y-88444145D01*
X159025000Y-88407391D01*
X159025000Y-88367609D01*
X159009776Y-88330855D01*
X158981645Y-88302724D01*
X158944891Y-88287500D01*
X158905109Y-88287500D01*
X158868355Y-88302724D01*
X158840224Y-88330855D01*
X158825000Y-88367609D01*
X158732759Y-88367609D01*
X158818934Y-88281434D01*
X159266458Y-87833908D01*
X159266458Y-87833907D01*
X159232896Y-87811481D01*
X159232886Y-87811476D01*
X159114598Y-87762479D01*
X159114590Y-87762477D01*
X158989023Y-87737500D01*
X158860976Y-87737500D01*
X158735409Y-87762477D01*
X158735401Y-87762479D01*
X158617111Y-87811477D01*
X158599890Y-87822984D01*
X158533212Y-87843861D01*
X158465832Y-87825376D01*
X158462110Y-87822984D01*
X158444888Y-87811477D01*
X158326598Y-87762479D01*
X158326590Y-87762477D01*
X158201023Y-87737500D01*
X158072976Y-87737500D01*
X157947409Y-87762477D01*
X157947401Y-87762479D01*
X157829110Y-87811477D01*
X157812387Y-87822651D01*
X157745708Y-87843526D01*
X157678329Y-87825039D01*
X157674613Y-87822651D01*
X157657889Y-87811477D01*
X157539598Y-87762479D01*
X157539590Y-87762477D01*
X157414023Y-87737500D01*
X157285976Y-87737500D01*
X157160409Y-87762477D01*
X157160401Y-87762479D01*
X157042109Y-87811478D01*
X157008540Y-87833907D01*
X157008539Y-87833908D01*
X155600500Y-87833908D01*
X155600500Y-83624000D01*
X155620185Y-83556961D01*
X155672989Y-83511206D01*
X155724500Y-83500000D01*
X160825500Y-83500000D01*
X160892539Y-83519685D01*
G37*
%TD.AperFunction*%
%TD*%
M02*
