%TF.GenerationSoftware,KiCad,Pcbnew,9.0.6+1*%
%TF.CreationDate,Date%
%TF.ProjectId,FCU3,46435533-2e6b-4696-9361-645f70636258,+ (Unreleased)*%
%TF.SameCoordinates,Original*%
%TF.FileFunction,Copper,L1,Top*%
%TF.FilePolarity,Positive*%
%FSLAX46Y46*%
G04 Gerber Fmt 4.6, Leading zero omitted, Abs format (unit mm)*
G04 Created by KiCad*
%MOMM*%
%LPD*%
G01*
G04 APERTURE LIST*
G04 Aperture macros list*
%AMRoundRect*
0 Rectangle with rounded corners*
0 $1 Rounding radius*
0 $2 $3 $4 $5 $6 $7 $8 $9 X,Y pos of 4 corners*
0 Add a 4 corners polygon primitive as box body*
4,1,4,$2,$3,$4,$5,$6,$7,$8,$9,$2,$3,0*
0 Add four circle primitives for the rounded corners*
1,1,$1+$1,$2,$3*
1,1,$1+$1,$4,$5*
1,1,$1+$1,$6,$7*
1,1,$1+$1,$8,$9*
0 Add four rect primitives between the rounded corners*
20,1,$1+$1,$2,$3,$4,$5,0*
20,1,$1+$1,$4,$5,$6,$7,0*
20,1,$1+$1,$6,$7,$8,$9,0*
20,1,$1+$1,$8,$9,$2,$3,0*%
%AMFreePoly0*
4,1,17,0.403536,0.703536,0.405000,0.700000,0.405000,0.005000,1.100000,0.005000,1.103536,0.003536,1.105000,0.000000,1.105000,-0.800000,1.103536,-0.803536,1.100000,-0.805000,-0.400000,-0.805000,-0.403536,-0.803536,-0.405000,-0.800000,-0.405000,0.700000,-0.403536,0.703536,-0.400000,0.705000,0.400000,0.705000,0.403536,0.703536,0.403536,0.703536,$1*%
%AMFreePoly1*
4,1,17,0.403536,0.703536,0.405000,0.700000,0.405000,-0.800000,0.403536,-0.803536,0.400000,-0.805000,-1.100000,-0.805000,-1.103536,-0.803536,-1.105000,-0.800000,-1.105000,0.000000,-1.103536,0.003536,-1.100000,0.005000,-0.405000,0.005000,-0.405000,0.700000,-0.403536,0.703536,-0.400000,0.705000,0.400000,0.705000,0.403536,0.703536,0.403536,0.703536,$1*%
%AMFreePoly2*
4,1,230,1.281581,1.191743,1.283810,1.191000,1.285000,1.191000,1.286581,1.190743,1.288810,1.190000,1.290000,1.190000,1.291581,1.189743,1.294581,1.188743,1.295236,1.188472,1.296920,1.187630,1.299581,1.186743,1.301536,1.185536,1.302964,1.184108,1.304236,1.183472,1.305536,1.182536,1.306964,1.181108,1.308236,1.180472,1.309536,1.179536,1.317536,1.171536,1.318472,1.170236,
1.319108,1.168964,1.320536,1.167536,1.321472,1.166236,1.322108,1.164964,1.323536,1.163536,1.324743,1.161581,1.325630,1.158920,1.326472,1.157236,1.326743,1.156581,1.327743,1.153581,1.328000,1.152000,1.328000,1.150810,1.328743,1.148581,1.329000,1.147000,1.329000,1.145810,1.329743,1.143581,1.330000,1.142000,1.330000,-0.093000,1.329472,-0.095236,1.329000,-0.096180,
1.329000,-0.098000,1.328472,-0.100236,1.328000,-0.101180,1.328000,-0.103000,1.327472,-0.105236,1.326630,-0.106920,1.325743,-0.109581,1.325472,-0.110236,1.324472,-0.112236,1.323536,-0.113536,1.322369,-0.114703,1.321743,-0.116581,1.320536,-0.118536,1.319108,-0.119964,1.318472,-0.121236,1.317536,-0.122536,1.311536,-0.128536,1.310236,-0.129472,1.308964,-0.130108,1.307536,-0.131536,
1.306236,-0.132472,1.304964,-0.133108,1.303536,-0.134536,1.302236,-0.135472,1.300236,-0.136472,1.299581,-0.136743,1.296920,-0.137630,1.295236,-0.138472,1.294581,-0.138743,1.291920,-0.139630,1.290236,-0.140472,1.288000,-0.141000,1.286180,-0.141000,1.285236,-0.141472,1.283000,-0.142000,-0.358000,-0.142000,-0.360236,-0.141472,-0.361180,-0.141000,-0.363000,-0.141000,-0.365236,-0.140472,
-0.366920,-0.139630,-0.369581,-0.138743,-0.370236,-0.138472,-0.371920,-0.137630,-0.374581,-0.136743,-0.375236,-0.136472,-0.377236,-0.135472,-0.378536,-0.134536,-0.379964,-0.133108,-0.381236,-0.132472,-0.382536,-0.131536,-0.383964,-0.130108,-0.385236,-0.129472,-0.386536,-0.128536,-0.392536,-0.122536,-0.393472,-0.121236,-0.394108,-0.119964,-0.395536,-0.118536,-0.396743,-0.116581,-0.397369,-0.114703,
-0.398536,-0.113536,-0.399472,-0.112236,-0.400472,-0.110236,-0.400743,-0.109581,-0.401630,-0.106920,-0.402472,-0.105236,-0.403000,-0.103000,-0.403000,-0.101180,-0.403472,-0.100236,-0.404000,-0.098000,-0.404000,-0.096180,-0.404472,-0.095236,-0.405000,-0.093000,-0.405000,0.093000,-0.404472,0.095236,-0.404000,0.096180,-0.404000,0.098000,-0.403472,0.100236,-0.403000,0.101180,-0.403000,0.103000,
-0.402472,0.105236,-0.401630,0.106920,-0.400743,0.109581,-0.400472,0.110236,-0.399472,0.112236,-0.399160,0.112774,-0.397332,0.115516,-0.396472,0.117236,-0.395536,0.118536,-0.394108,0.119964,-0.393472,0.121236,-0.392536,0.122536,-0.386536,0.128536,-0.385236,0.129472,-0.383964,0.130108,-0.382536,0.131536,-0.381236,0.132472,-0.379964,0.133108,-0.378536,0.134536,-0.377236,0.135472,
-0.375236,0.136472,-0.374581,0.136743,-0.371920,0.137630,-0.370236,0.138472,-0.369581,0.138743,-0.366920,0.139630,-0.365236,0.140472,-0.363000,0.141000,-0.361180,0.141000,-0.360236,0.141472,-0.358000,0.142000,-0.353810,0.142000,-0.351581,0.142743,-0.350000,0.143000,0.871820,0.143000,0.872764,0.143472,0.875000,0.144000,0.875585,0.144000,0.878000,0.145000,0.879585,0.145000,
0.880953,0.145566,0.882764,0.146472,0.883596,0.146668,0.884464,0.147536,0.886170,0.148242,0.886464,0.148536,0.887764,0.149472,0.889764,0.150472,0.890596,0.150668,0.892464,0.152536,0.894170,0.153242,0.896464,0.155536,1.056453,0.316525,1.060757,0.320829,1.061464,0.322536,1.063757,0.324829,1.064464,0.326536,1.064892,0.326964,1.065433,0.328046,1.066464,0.330536,
1.066757,0.330829,1.067000,0.331415,1.067000,0.332000,1.068000,0.334415,1.068000,0.335000,1.068528,0.337236,1.069000,0.338180,1.069000,0.340000,1.069528,0.342236,1.070000,0.343180,1.070000,1.142000,1.070257,1.143581,1.071000,1.145810,1.071000,1.147000,1.071257,1.148581,1.072000,1.150810,1.072000,1.152000,1.072257,1.153581,1.073257,1.156581,1.073528,1.157236,
1.074370,1.158920,1.075257,1.161581,1.076464,1.163536,1.077892,1.164964,1.078528,1.166236,1.079464,1.167536,1.080892,1.168964,1.081528,1.170236,1.082464,1.171536,1.090464,1.179536,1.091764,1.180472,1.093036,1.181108,1.094464,1.182536,1.095764,1.183472,1.097036,1.184108,1.098464,1.185536,1.100419,1.186743,1.103080,1.187630,1.104764,1.188472,1.105419,1.188743,
1.108419,1.189743,1.110000,1.190000,1.111190,1.190000,1.113419,1.190743,1.115000,1.191000,1.116190,1.191000,1.118419,1.191743,1.120000,1.192000,1.280000,1.192000,1.281581,1.191743,1.281581,1.191743,$1*%
%AMFreePoly3*
4,1,153,0.480981,1.042903,0.485496,1.042000,0.491000,1.042000,0.491981,1.041903,0.501981,1.039903,0.502857,1.039642,0.517857,1.033642,0.518236,1.033472,0.522052,1.031564,0.526857,1.029642,0.528000,1.029000,0.531798,1.026151,0.536572,1.023287,0.537000,1.023000,0.541000,1.020000,0.541536,1.019536,0.545288,1.015784,0.549000,1.013000,0.550000,1.012000,0.552784,1.008288,
0.556536,1.004536,0.557000,1.004000,0.560000,1.000000,0.560287,0.999572,0.563151,0.994798,0.566000,0.991000,0.566642,0.989857,0.568564,0.985052,0.570472,0.981236,0.570642,0.980857,0.576642,0.965857,0.576903,0.964981,0.578903,0.954981,0.579000,0.954000,0.579000,0.948496,0.579903,0.943981,0.580000,0.943000,0.580000,-0.892000,0.579903,-0.892981,0.579000,-0.897496,
0.579000,-0.903000,0.578903,-0.903981,0.576903,-0.913981,0.576642,-0.914857,0.570642,-0.929857,0.570472,-0.930236,0.568564,-0.934052,0.566642,-0.938857,0.566000,-0.940000,0.563151,-0.943798,0.560287,-0.948572,0.560000,-0.949000,0.557000,-0.953000,0.556536,-0.953536,0.552784,-0.957288,0.550000,-0.961000,0.549000,-0.962000,0.545288,-0.964784,0.541536,-0.968536,0.541000,-0.969000,
0.537000,-0.972000,0.536572,-0.972287,0.531798,-0.975151,0.528000,-0.978000,0.526857,-0.978642,0.522052,-0.980564,0.518236,-0.982472,0.517857,-0.982642,0.502857,-0.988642,0.501981,-0.988903,0.491981,-0.990903,0.491000,-0.991000,0.485496,-0.991000,0.480981,-0.991903,0.480000,-0.992000,-0.830000,-0.992000,-0.830981,-0.991903,-0.835496,-0.991000,-0.841000,-0.991000,-0.841981,-0.990903,
-0.851981,-0.988903,-0.852857,-0.988642,-0.867857,-0.982642,-0.868236,-0.982472,-0.872052,-0.980564,-0.876857,-0.978642,-0.878000,-0.978000,-0.881798,-0.975151,-0.886572,-0.972287,-0.887000,-0.972000,-0.891000,-0.969000,-0.891536,-0.968536,-0.895288,-0.964784,-0.899000,-0.962000,-0.900000,-0.961000,-0.902784,-0.957288,-0.906536,-0.953536,-0.907000,-0.953000,-0.910000,-0.949000,-0.910287,-0.948572,
-0.913151,-0.943798,-0.916000,-0.940000,-0.916642,-0.938857,-0.918564,-0.934052,-0.920472,-0.930236,-0.920642,-0.929857,-0.926642,-0.914857,-0.926903,-0.913981,-0.928903,-0.903981,-0.929000,-0.903000,-0.929000,-0.897496,-0.929903,-0.892981,-0.930000,-0.892000,-0.930000,0.943000,-0.929903,0.943981,-0.929000,0.948496,-0.929000,0.954000,-0.928903,0.954981,-0.926903,0.964981,-0.926642,0.965857,
-0.920642,0.980857,-0.920472,0.981236,-0.918564,0.985052,-0.916642,0.989857,-0.916000,0.991000,-0.913151,0.994798,-0.910287,0.999572,-0.910000,1.000000,-0.907000,1.004000,-0.906536,1.004536,-0.902784,1.008288,-0.900000,1.012000,-0.899000,1.013000,-0.895288,1.015784,-0.891536,1.019536,-0.891000,1.020000,-0.887000,1.023000,-0.886572,1.023287,-0.881798,1.026151,-0.878000,1.029000,
-0.876857,1.029642,-0.872052,1.031564,-0.868236,1.033472,-0.867857,1.033642,-0.852857,1.039642,-0.851981,1.039903,-0.841981,1.041903,-0.841000,1.042000,-0.835496,1.042000,-0.830981,1.042903,-0.830000,1.043000,0.480000,1.043000,0.480981,1.042903,0.480981,1.042903,$1*%
%AMFreePoly4*
4,1,153,0.830981,1.042903,0.835496,1.042000,0.841000,1.042000,0.841981,1.041903,0.851981,1.039903,0.852857,1.039642,0.867857,1.033642,0.868236,1.033472,0.872052,1.031564,0.876857,1.029642,0.878000,1.029000,0.881798,1.026151,0.886572,1.023287,0.887000,1.023000,0.891000,1.020000,0.891536,1.019536,0.895288,1.015784,0.899000,1.013000,0.900000,1.012000,0.902784,1.008288,
0.906536,1.004536,0.907000,1.004000,0.910000,1.000000,0.910287,0.999572,0.913151,0.994798,0.916000,0.991000,0.916642,0.989857,0.918564,0.985052,0.920472,0.981236,0.920642,0.980857,0.926642,0.965857,0.926903,0.964981,0.928903,0.954981,0.929000,0.954000,0.929000,0.948496,0.929903,0.943981,0.930000,0.943000,0.930000,-0.892000,0.929903,-0.892981,0.929000,-0.897496,
0.929000,-0.903000,0.928903,-0.903981,0.926903,-0.913981,0.926642,-0.914857,0.920642,-0.929857,0.920472,-0.930236,0.918564,-0.934052,0.916642,-0.938857,0.916000,-0.940000,0.913151,-0.943798,0.910287,-0.948572,0.910000,-0.949000,0.907000,-0.953000,0.906536,-0.953536,0.902784,-0.957288,0.900000,-0.961000,0.899000,-0.962000,0.895288,-0.964784,0.891536,-0.968536,0.891000,-0.969000,
0.887000,-0.972000,0.886572,-0.972287,0.881798,-0.975151,0.878000,-0.978000,0.876857,-0.978642,0.872052,-0.980564,0.868236,-0.982472,0.867857,-0.982642,0.852857,-0.988642,0.851981,-0.988903,0.841981,-0.990903,0.841000,-0.991000,0.835496,-0.991000,0.830981,-0.991903,0.830000,-0.992000,-0.480000,-0.992000,-0.480981,-0.991903,-0.485496,-0.991000,-0.491000,-0.991000,-0.491981,-0.990903,
-0.501981,-0.988903,-0.502857,-0.988642,-0.517857,-0.982642,-0.518236,-0.982472,-0.522052,-0.980564,-0.526857,-0.978642,-0.528000,-0.978000,-0.531798,-0.975151,-0.536572,-0.972287,-0.537000,-0.972000,-0.541000,-0.969000,-0.541536,-0.968536,-0.545288,-0.964784,-0.549000,-0.962000,-0.550000,-0.961000,-0.552784,-0.957288,-0.556536,-0.953536,-0.557000,-0.953000,-0.560000,-0.949000,-0.560287,-0.948572,
-0.563151,-0.943798,-0.566000,-0.940000,-0.566642,-0.938857,-0.568564,-0.934052,-0.570472,-0.930236,-0.570642,-0.929857,-0.576642,-0.914857,-0.576903,-0.913981,-0.578903,-0.903981,-0.579000,-0.903000,-0.579000,-0.897496,-0.579903,-0.892981,-0.580000,-0.892000,-0.580000,0.943000,-0.579903,0.943981,-0.579000,0.948496,-0.579000,0.954000,-0.578903,0.954981,-0.576903,0.964981,-0.576642,0.965857,
-0.570642,0.980857,-0.570472,0.981236,-0.568564,0.985052,-0.566642,0.989857,-0.566000,0.991000,-0.563151,0.994798,-0.560287,0.999572,-0.560000,1.000000,-0.557000,1.004000,-0.556536,1.004536,-0.552784,1.008288,-0.550000,1.012000,-0.549000,1.013000,-0.545288,1.015784,-0.541536,1.019536,-0.541000,1.020000,-0.537000,1.023000,-0.536572,1.023287,-0.531798,1.026151,-0.528000,1.029000,
-0.526857,1.029642,-0.522052,1.031564,-0.518236,1.033472,-0.517857,1.033642,-0.502857,1.039642,-0.501981,1.039903,-0.491981,1.041903,-0.491000,1.042000,-0.485496,1.042000,-0.480981,1.042903,-0.480000,1.043000,0.830000,1.043000,0.830981,1.042903,0.830981,1.042903,$1*%
%AMFreePoly5*
4,1,153,0.805981,0.429903,0.810496,0.429000,0.816000,0.429000,0.816981,0.428903,0.826981,0.426903,0.827857,0.426642,0.842857,0.420642,0.843236,0.420472,0.847052,0.418564,0.851857,0.416642,0.853000,0.416000,0.856798,0.413151,0.861572,0.410287,0.862000,0.410000,0.866000,0.407000,0.866536,0.406536,0.870288,0.402784,0.874000,0.400000,0.875000,0.399000,0.877784,0.395288,
0.881536,0.391536,0.882000,0.391000,0.885000,0.387000,0.885287,0.386572,0.888151,0.381798,0.891000,0.378000,0.891642,0.376857,0.893564,0.372052,0.895472,0.368236,0.895642,0.367857,0.901642,0.352857,0.901903,0.351981,0.903903,0.341981,0.904000,0.341000,0.904000,0.335496,0.904903,0.330981,0.905000,0.330000,0.905000,-0.330000,0.904903,-0.330981,0.904000,-0.335496,
0.904000,-0.341000,0.903903,-0.341981,0.901903,-0.351981,0.901642,-0.352857,0.895642,-0.367857,0.895472,-0.368236,0.893564,-0.372052,0.891642,-0.376857,0.891000,-0.378000,0.888151,-0.381798,0.885287,-0.386572,0.885000,-0.387000,0.882000,-0.391000,0.881536,-0.391536,0.877784,-0.395288,0.875000,-0.399000,0.874000,-0.400000,0.870288,-0.402784,0.866536,-0.406536,0.866000,-0.407000,
0.862000,-0.410000,0.861572,-0.410287,0.856798,-0.413151,0.853000,-0.416000,0.851857,-0.416642,0.847052,-0.418564,0.843236,-0.420472,0.842857,-0.420642,0.827857,-0.426642,0.826981,-0.426903,0.816981,-0.428903,0.816000,-0.429000,0.810496,-0.429000,0.805981,-0.429903,0.805000,-0.430000,-0.305000,-0.430000,-0.305981,-0.429903,-0.310496,-0.429000,-0.316000,-0.429000,-0.316981,-0.428903,
-0.326981,-0.426903,-0.327857,-0.426642,-0.342857,-0.420642,-0.343236,-0.420472,-0.347052,-0.418564,-0.351857,-0.416642,-0.353000,-0.416000,-0.356798,-0.413151,-0.361572,-0.410287,-0.362000,-0.410000,-0.366000,-0.407000,-0.366536,-0.406536,-0.370288,-0.402784,-0.374000,-0.400000,-0.375000,-0.399000,-0.377784,-0.395288,-0.381536,-0.391536,-0.382000,-0.391000,-0.385000,-0.387000,-0.385287,-0.386572,
-0.388151,-0.381798,-0.391000,-0.378000,-0.391642,-0.376857,-0.393564,-0.372052,-0.395472,-0.368236,-0.395642,-0.367857,-0.401642,-0.352857,-0.401903,-0.351981,-0.403903,-0.341981,-0.404000,-0.341000,-0.404000,-0.335496,-0.404903,-0.330981,-0.405000,-0.330000,-0.405000,0.330000,-0.404903,0.330981,-0.404000,0.335496,-0.404000,0.341000,-0.403903,0.341981,-0.401903,0.351981,-0.401642,0.352857,
-0.395642,0.367857,-0.395472,0.368236,-0.393564,0.372052,-0.391642,0.376857,-0.391000,0.378000,-0.388151,0.381798,-0.385287,0.386572,-0.385000,0.387000,-0.382000,0.391000,-0.381536,0.391536,-0.377784,0.395288,-0.375000,0.399000,-0.374000,0.400000,-0.370288,0.402784,-0.366536,0.406536,-0.366000,0.407000,-0.362000,0.410000,-0.361572,0.410287,-0.356798,0.413151,-0.353000,0.416000,
-0.351857,0.416642,-0.347052,0.418564,-0.343236,0.420472,-0.342857,0.420642,-0.327857,0.426642,-0.326981,0.426903,-0.316981,0.428903,-0.316000,0.429000,-0.310496,0.429000,-0.305981,0.429903,-0.305000,0.430000,0.805000,0.430000,0.805981,0.429903,0.805981,0.429903,$1*%
%AMFreePoly6*
4,1,222,0.131581,0.304743,0.133810,0.304000,0.135000,0.304000,0.136581,0.303743,0.138810,0.303000,0.140000,0.303000,0.141581,0.302743,0.144581,0.301743,0.145236,0.301472,0.146920,0.300630,0.149581,0.299743,0.151536,0.298536,0.152964,0.297108,0.154236,0.296472,0.155536,0.295536,0.156964,0.294108,0.158236,0.293472,0.159536,0.292536,0.167536,0.284536,0.168472,0.283236,
0.169108,0.281964,0.170536,0.280536,0.171472,0.279236,0.172108,0.277964,0.173536,0.276536,0.174743,0.274581,0.175630,0.271920,0.176472,0.270236,0.176743,0.269581,0.177743,0.266581,0.178000,0.265000,0.178000,0.263810,0.178743,0.261581,0.179000,0.260000,0.179000,0.258810,0.179743,0.256581,0.180000,0.255000,0.180000,0.045496,0.180903,0.040981,0.181000,0.040000,
0.181000,0.034496,0.182813,0.025428,0.188564,0.011052,0.190472,0.007236,0.190642,0.006857,0.192396,0.002472,0.195000,-0.001000,0.195287,-0.001428,0.198151,-0.006201,0.200784,-0.009712,0.204536,-0.013464,0.205000,-0.014000,0.207571,-0.017428,0.211000,-0.020000,0.211536,-0.020464,0.215288,-0.024216,0.218798,-0.026849,0.223572,-0.029713,0.224000,-0.030000,0.227472,-0.032604,
0.231857,-0.034358,0.232236,-0.034528,0.236052,-0.036436,0.250428,-0.042186,0.259496,-0.044000,0.265000,-0.044000,0.265981,-0.044097,0.270496,-0.045000,1.005000,-0.045000,1.006581,-0.045257,1.008810,-0.046000,1.010000,-0.046000,1.011581,-0.046257,1.013810,-0.047000,1.015000,-0.047000,1.016581,-0.047257,1.019581,-0.048257,1.020236,-0.048528,1.021920,-0.049370,1.024581,-0.050257,
1.026536,-0.051464,1.027964,-0.052892,1.029236,-0.053528,1.030536,-0.054464,1.031964,-0.055892,1.033236,-0.056528,1.034536,-0.057464,1.042536,-0.065464,1.043472,-0.066764,1.044108,-0.068036,1.045536,-0.069464,1.046472,-0.070764,1.047108,-0.072036,1.048536,-0.073464,1.049743,-0.075419,1.050630,-0.078080,1.051472,-0.079764,1.051743,-0.080419,1.052743,-0.083419,1.053000,-0.085000,
1.053000,-0.086190,1.053743,-0.088419,1.054000,-0.090000,1.054000,-0.091190,1.054743,-0.093419,1.055000,-0.095000,1.055000,-0.255000,1.054743,-0.256581,1.054000,-0.258810,1.054000,-0.260000,1.053743,-0.261581,1.053000,-0.263810,1.053000,-0.265000,1.052743,-0.266581,1.051743,-0.269581,1.051472,-0.270236,1.050630,-0.271920,1.049743,-0.274581,1.048536,-0.276536,1.047108,-0.277964,
1.046472,-0.279236,1.045536,-0.280536,1.044108,-0.281964,1.043472,-0.283236,1.042536,-0.284536,1.034536,-0.292536,1.033236,-0.293472,1.031964,-0.294108,1.030536,-0.295536,1.029236,-0.296472,1.027964,-0.297108,1.026536,-0.298536,1.024581,-0.299743,1.021920,-0.300630,1.020236,-0.301472,1.019581,-0.301743,1.016581,-0.302743,1.015000,-0.303000,1.013810,-0.303000,1.011581,-0.303743,
1.010000,-0.304000,1.008810,-0.304000,1.006581,-0.304743,1.005000,-0.305000,-0.130000,-0.305000,-0.131581,-0.304743,-0.133810,-0.304000,-0.135000,-0.304000,-0.136581,-0.303743,-0.138810,-0.303000,-0.140000,-0.303000,-0.141581,-0.302743,-0.144581,-0.301743,-0.145236,-0.301472,-0.146920,-0.300630,-0.149581,-0.299743,-0.151536,-0.298536,-0.152964,-0.297108,-0.154236,-0.296472,-0.155536,-0.295536,
-0.156964,-0.294108,-0.158236,-0.293472,-0.159536,-0.292536,-0.167536,-0.284536,-0.168472,-0.283236,-0.169108,-0.281964,-0.170536,-0.280536,-0.171472,-0.279236,-0.172108,-0.277964,-0.173536,-0.276536,-0.174743,-0.274581,-0.175630,-0.271920,-0.176472,-0.270236,-0.176743,-0.269581,-0.177743,-0.266581,-0.178000,-0.265000,-0.178000,-0.263810,-0.178743,-0.261581,-0.179000,-0.260000,-0.179000,-0.258810,
-0.179743,-0.256581,-0.180000,-0.255000,-0.180000,0.255000,-0.179743,0.256581,-0.179000,0.258810,-0.179000,0.260000,-0.178743,0.261581,-0.178000,0.263810,-0.178000,0.265000,-0.177743,0.266581,-0.176743,0.269581,-0.176472,0.270236,-0.175630,0.271920,-0.174743,0.274581,-0.173536,0.276536,-0.172108,0.277964,-0.171472,0.279236,-0.170536,0.280536,-0.169108,0.281964,-0.168472,0.283236,
-0.167536,0.284536,-0.159536,0.292536,-0.158236,0.293472,-0.156964,0.294108,-0.155536,0.295536,-0.154236,0.296472,-0.152964,0.297108,-0.151536,0.298536,-0.149581,0.299743,-0.146920,0.300630,-0.145236,0.301472,-0.144581,0.301743,-0.141581,0.302743,-0.140000,0.303000,-0.138810,0.303000,-0.136581,0.303743,-0.135000,0.304000,-0.133810,0.304000,-0.131581,0.304743,-0.130000,0.305000,
0.130000,0.305000,0.131581,0.304743,0.131581,0.304743,$1*%
%AMFreePoly7*
4,1,222,0.131581,0.304743,0.133810,0.304000,0.135000,0.304000,0.136581,0.303743,0.138810,0.303000,0.140000,0.303000,0.141581,0.302743,0.144581,0.301743,0.145236,0.301472,0.146920,0.300630,0.149581,0.299743,0.151536,0.298536,0.152964,0.297108,0.154236,0.296472,0.155536,0.295536,0.156964,0.294108,0.158236,0.293472,0.159536,0.292536,0.167536,0.284536,0.168472,0.283236,
0.169108,0.281964,0.170536,0.280536,0.171472,0.279236,0.172108,0.277964,0.173536,0.276536,0.174743,0.274581,0.175630,0.271920,0.176472,0.270236,0.176743,0.269581,0.177743,0.266581,0.178000,0.265000,0.178000,0.263810,0.178743,0.261581,0.179000,0.260000,0.179000,0.258810,0.179743,0.256581,0.180000,0.255000,0.180000,-0.255000,0.179743,-0.256581,0.179000,-0.258810,
0.179000,-0.260000,0.178743,-0.261581,0.178000,-0.263810,0.178000,-0.265000,0.177743,-0.266581,0.176743,-0.269581,0.176472,-0.270236,0.175630,-0.271920,0.174743,-0.274581,0.173536,-0.276536,0.172108,-0.277964,0.171472,-0.279236,0.170536,-0.280536,0.169108,-0.281964,0.168472,-0.283236,0.167536,-0.284536,0.159536,-0.292536,0.158236,-0.293472,0.156964,-0.294108,0.155536,-0.295536,
0.154236,-0.296472,0.152964,-0.297108,0.151536,-0.298536,0.149581,-0.299743,0.146920,-0.300630,0.145236,-0.301472,0.144581,-0.301743,0.141581,-0.302743,0.140000,-0.303000,0.138810,-0.303000,0.136581,-0.303743,0.135000,-0.304000,0.133810,-0.304000,0.131581,-0.304743,0.130000,-0.305000,-1.005000,-0.305000,-1.006581,-0.304743,-1.008810,-0.304000,-1.010000,-0.304000,-1.011581,-0.303743,
-1.013810,-0.303000,-1.015000,-0.303000,-1.016581,-0.302743,-1.019581,-0.301743,-1.020236,-0.301472,-1.021920,-0.300630,-1.024581,-0.299743,-1.026536,-0.298536,-1.027964,-0.297108,-1.029236,-0.296472,-1.030536,-0.295536,-1.031964,-0.294108,-1.033236,-0.293472,-1.034536,-0.292536,-1.042536,-0.284536,-1.043472,-0.283236,-1.044108,-0.281964,-1.045536,-0.280536,-1.046472,-0.279236,-1.047108,-0.277964,
-1.048536,-0.276536,-1.049743,-0.274581,-1.050630,-0.271920,-1.051472,-0.270236,-1.051743,-0.269581,-1.052743,-0.266581,-1.053000,-0.265000,-1.053000,-0.263810,-1.053743,-0.261581,-1.054000,-0.260000,-1.054000,-0.258810,-1.054743,-0.256581,-1.055000,-0.255000,-1.055000,-0.095000,-1.054743,-0.093419,-1.054000,-0.091190,-1.054000,-0.090000,-1.053743,-0.088419,-1.053000,-0.086190,-1.053000,-0.085000,
-1.052743,-0.083419,-1.051743,-0.080419,-1.051472,-0.079764,-1.050630,-0.078080,-1.049743,-0.075419,-1.048536,-0.073464,-1.047108,-0.072036,-1.046472,-0.070764,-1.045536,-0.069464,-1.044108,-0.068036,-1.043472,-0.066764,-1.042536,-0.065464,-1.034536,-0.057464,-1.033236,-0.056528,-1.031964,-0.055892,-1.030536,-0.054464,-1.029236,-0.053528,-1.027964,-0.052892,-1.026536,-0.051464,-1.024581,-0.050257,
-1.021920,-0.049370,-1.020236,-0.048528,-1.019581,-0.048257,-1.016581,-0.047257,-1.015000,-0.047000,-1.013810,-0.047000,-1.011581,-0.046257,-1.010000,-0.046000,-1.008810,-0.046000,-1.006581,-0.045257,-1.005000,-0.045000,-0.270496,-0.045000,-0.265981,-0.044097,-0.265000,-0.044000,-0.259496,-0.044000,-0.250428,-0.042186,-0.236052,-0.036436,-0.232236,-0.034528,-0.231857,-0.034358,-0.227472,-0.032604,
-0.224000,-0.030000,-0.223572,-0.029713,-0.218798,-0.026849,-0.215288,-0.024216,-0.211536,-0.020464,-0.211000,-0.020000,-0.207571,-0.017428,-0.205000,-0.014000,-0.204536,-0.013464,-0.200784,-0.009712,-0.198151,-0.006201,-0.195287,-0.001428,-0.195000,-0.001000,-0.192396,0.002472,-0.190642,0.006857,-0.190472,0.007236,-0.188564,0.011052,-0.182813,0.025428,-0.181000,0.034496,-0.181000,0.040000,
-0.180903,0.040981,-0.180000,0.045496,-0.180000,0.255000,-0.179743,0.256581,-0.179000,0.258810,-0.179000,0.260000,-0.178743,0.261581,-0.178000,0.263810,-0.178000,0.265000,-0.177743,0.266581,-0.176743,0.269581,-0.176472,0.270236,-0.175630,0.271920,-0.174743,0.274581,-0.173536,0.276536,-0.172108,0.277964,-0.171472,0.279236,-0.170536,0.280536,-0.169108,0.281964,-0.168472,0.283236,
-0.167536,0.284536,-0.159536,0.292536,-0.158236,0.293472,-0.156964,0.294108,-0.155536,0.295536,-0.154236,0.296472,-0.152964,0.297108,-0.151536,0.298536,-0.149581,0.299743,-0.146920,0.300630,-0.145236,0.301472,-0.144581,0.301743,-0.141581,0.302743,-0.140000,0.303000,-0.138810,0.303000,-0.136581,0.303743,-0.135000,0.304000,-0.133810,0.304000,-0.131581,0.304743,-0.130000,0.305000,
0.130000,0.305000,0.131581,0.304743,0.131581,0.304743,$1*%
G04 Aperture macros list end*
%TA.AperFunction,EtchedComponent*%
%ADD10C,0.000000*%
%TD*%
%TA.AperFunction,SMDPad,CuDef*%
%ADD11RoundRect,0.250000X-0.325000X-0.650000X0.325000X-0.650000X0.325000X0.650000X-0.325000X0.650000X0*%
%TD*%
%TA.AperFunction,SMDPad,CuDef*%
%ADD12RoundRect,0.237500X-0.300000X-0.237500X0.300000X-0.237500X0.300000X0.237500X-0.300000X0.237500X0*%
%TD*%
%TA.AperFunction,SMDPad,CuDef*%
%ADD13RoundRect,0.140000X-0.140000X-0.170000X0.140000X-0.170000X0.140000X0.170000X-0.140000X0.170000X0*%
%TD*%
%TA.AperFunction,SMDPad,CuDef*%
%ADD14R,0.600000X1.150000*%
%TD*%
%TA.AperFunction,SMDPad,CuDef*%
%ADD15R,0.300000X1.150000*%
%TD*%
%TA.AperFunction,ComponentPad*%
%ADD16O,1.000000X2.100000*%
%TD*%
%TA.AperFunction,ComponentPad*%
%ADD17O,1.000000X1.800000*%
%TD*%
%TA.AperFunction,ComponentPad*%
%ADD18C,5.600000*%
%TD*%
%TA.AperFunction,SMDPad,CuDef*%
%ADD19RoundRect,0.135000X-0.135000X-0.185000X0.135000X-0.185000X0.135000X0.185000X-0.135000X0.185000X0*%
%TD*%
%TA.AperFunction,SMDPad,CuDef*%
%ADD20RoundRect,0.250000X0.650000X-1.000000X0.650000X1.000000X-0.650000X1.000000X-0.650000X-1.000000X0*%
%TD*%
%TA.AperFunction,SMDPad,CuDef*%
%ADD21RoundRect,0.237500X0.237500X-0.300000X0.237500X0.300000X-0.237500X0.300000X-0.237500X-0.300000X0*%
%TD*%
%TA.AperFunction,SMDPad,CuDef*%
%ADD22RoundRect,0.250000X-0.650000X1.000000X-0.650000X-1.000000X0.650000X-1.000000X0.650000X1.000000X0*%
%TD*%
%TA.AperFunction,SMDPad,CuDef*%
%ADD23R,0.900000X1.200000*%
%TD*%
%TA.AperFunction,SMDPad,CuDef*%
%ADD24FreePoly0,180.000000*%
%TD*%
%TA.AperFunction,SMDPad,CuDef*%
%ADD25FreePoly1,180.000000*%
%TD*%
%TA.AperFunction,SMDPad,CuDef*%
%ADD26RoundRect,0.237500X-0.237500X0.300000X-0.237500X-0.300000X0.237500X-0.300000X0.237500X0.300000X0*%
%TD*%
%TA.AperFunction,SMDPad,CuDef*%
%ADD27RoundRect,0.237500X0.300000X0.237500X-0.300000X0.237500X-0.300000X-0.237500X0.300000X-0.237500X0*%
%TD*%
%TA.AperFunction,SMDPad,CuDef*%
%ADD28R,1.550000X1.000000*%
%TD*%
%TA.AperFunction,SMDPad,CuDef*%
%ADD29R,1.550000X3.300000*%
%TD*%
%TA.AperFunction,SMDPad,CuDef*%
%ADD30R,1.550000X0.600000*%
%TD*%
%TA.AperFunction,SMDPad,CuDef*%
%ADD31R,1.800000X1.200000*%
%TD*%
%TA.AperFunction,SMDPad,CuDef*%
%ADD32RoundRect,0.250000X-1.000000X-0.650000X1.000000X-0.650000X1.000000X0.650000X-1.000000X0.650000X0*%
%TD*%
%TA.AperFunction,SMDPad,CuDef*%
%ADD33RoundRect,0.050000X-0.350000X-0.075000X0.350000X-0.075000X0.350000X0.075000X-0.350000X0.075000X0*%
%TD*%
%TA.AperFunction,SMDPad,CuDef*%
%ADD34FreePoly2,0.000000*%
%TD*%
%TA.AperFunction,ComponentPad*%
%ADD35C,0.300000*%
%TD*%
%TA.AperFunction,SMDPad,CuDef*%
%ADD36FreePoly3,0.000000*%
%TD*%
%TA.AperFunction,SMDPad,CuDef*%
%ADD37FreePoly4,0.000000*%
%TD*%
%TA.AperFunction,SMDPad,CuDef*%
%ADD38FreePoly5,0.000000*%
%TD*%
%TA.AperFunction,SMDPad,CuDef*%
%ADD39FreePoly6,0.000000*%
%TD*%
%TA.AperFunction,SMDPad,CuDef*%
%ADD40RoundRect,0.049500X-0.100500X-0.225500X0.100500X-0.225500X0.100500X0.225500X-0.100500X0.225500X0*%
%TD*%
%TA.AperFunction,SMDPad,CuDef*%
%ADD41FreePoly7,0.000000*%
%TD*%
%TA.AperFunction,SMDPad,CuDef*%
%ADD42RoundRect,0.225000X-0.225000X-0.250000X0.225000X-0.250000X0.225000X0.250000X-0.225000X0.250000X0*%
%TD*%
%TA.AperFunction,SMDPad,CuDef*%
%ADD43RoundRect,0.027500X-0.292500X-0.082500X0.292500X-0.082500X0.292500X0.082500X-0.292500X0.082500X0*%
%TD*%
%TA.AperFunction,SMDPad,CuDef*%
%ADD44RoundRect,0.027500X-0.082500X-0.292500X0.082500X-0.292500X0.082500X0.292500X-0.082500X0.292500X0*%
%TD*%
%TA.AperFunction,SMDPad,CuDef*%
%ADD45R,1.540000X1.700000*%
%TD*%
%TA.AperFunction,SMDPad,CuDef*%
%ADD46R,1.000000X1.500000*%
%TD*%
%TA.AperFunction,SMDPad,CuDef*%
%ADD47RoundRect,0.027500X0.292500X0.082500X-0.292500X0.082500X-0.292500X-0.082500X0.292500X-0.082500X0*%
%TD*%
%TA.AperFunction,SMDPad,CuDef*%
%ADD48RoundRect,0.027500X0.082500X0.292500X-0.082500X0.292500X-0.082500X-0.292500X0.082500X-0.292500X0*%
%TD*%
%TA.AperFunction,SMDPad,CuDef*%
%ADD49RoundRect,0.075000X0.075000X-0.700000X0.075000X0.700000X-0.075000X0.700000X-0.075000X-0.700000X0*%
%TD*%
%TA.AperFunction,SMDPad,CuDef*%
%ADD50RoundRect,0.075000X0.700000X-0.075000X0.700000X0.075000X-0.700000X0.075000X-0.700000X-0.075000X0*%
%TD*%
%TA.AperFunction,ComponentPad*%
%ADD51C,1.500000*%
%TD*%
%TA.AperFunction,ViaPad*%
%ADD52C,0.550000*%
%TD*%
%TA.AperFunction,Conductor*%
%ADD53C,0.200000*%
%TD*%
%TA.AperFunction,Conductor*%
%ADD54C,0.600000*%
%TD*%
%TA.AperFunction,Conductor*%
%ADD55C,0.700000*%
%TD*%
G04 APERTURE END LIST*
D10*
%TA.AperFunction,EtchedComponent*%
%TO.C,JP3*%
G36*
X197560000Y-82860000D02*
G01*
X197060000Y-82860000D01*
X197060000Y-82460000D01*
X197560000Y-82460000D01*
X197560000Y-82860000D01*
G37*
%TD.AperFunction*%
%TA.AperFunction,EtchedComponent*%
G36*
X197560000Y-83660000D02*
G01*
X197060000Y-83660000D01*
X197060000Y-83260000D01*
X197560000Y-83260000D01*
X197560000Y-83660000D01*
G37*
%TD.AperFunction*%
%TD*%
D11*
%TO.P,C11,1*%
%TO.N,/Project Architecture/Power/VBAT*%
X210975000Y-92340000D03*
%TO.P,C11,2*%
%TO.N,PGND*%
X213925000Y-92340000D03*
%TD*%
D12*
%TO.P,C4,1*%
%TO.N,+3V3*%
X153125000Y-91600000D03*
%TO.P,C4,2*%
%TO.N,DGND*%
X154850000Y-91600000D03*
%TD*%
D13*
%TO.P,C22,1*%
%TO.N,+3V3*%
X202360000Y-102900000D03*
%TO.P,C22,2*%
%TO.N,DGND*%
X203320000Y-102900000D03*
%TD*%
D14*
%TO.P,J6,A1_B12,GND*%
%TO.N,PGND*%
X148230000Y-78705000D03*
%TO.P,J6,A4_B9,VBUS*%
%TO.N,/(lib_symbols/V_USB*%
X147430000Y-78705000D03*
D15*
%TO.P,J6,A5,CC1*%
%TO.N,/(lib_symbols/USB_CC1*%
X146280000Y-78705000D03*
%TO.P,J6,A6,DP1*%
%TO.N,/(lib_symbols/USB_+DATA*%
X145280000Y-78705000D03*
%TO.P,J6,A7,DN1*%
%TO.N,/(lib_symbols/USB_-DATA*%
X144780000Y-78705000D03*
%TO.P,J6,A8,SBU1*%
%TO.N,unconnected-(J6-SBU1-PadA8)*%
X143780000Y-78705000D03*
D14*
%TO.P,J6,B1_A12,GND*%
%TO.N,PGND*%
X141830000Y-78705000D03*
%TO.P,J6,B4_A9,VBUS*%
%TO.N,/(lib_symbols/V_USB*%
X142630000Y-78705000D03*
D15*
%TO.P,J6,B5,CC2*%
%TO.N,/(lib_symbols/USB_CC2*%
X143280000Y-78705000D03*
%TO.P,J6,B6,DP2*%
%TO.N,/(lib_symbols/USB_+DATA*%
X144280000Y-78705000D03*
%TO.P,J6,B7,DN2*%
%TO.N,/(lib_symbols/USB_-DATA*%
X145780000Y-78705000D03*
%TO.P,J6,B8,SBU2*%
%TO.N,unconnected-(J6-SBU2-PadB8)*%
X146780000Y-78705000D03*
D16*
%TO.P,J6,SH1,SHIELD*%
%TO.N,PGND*%
X149350000Y-78140000D03*
%TO.P,J6,SH2,SHIELD*%
X140710000Y-78140000D03*
D17*
%TO.P,J6,SH3,SHIELD*%
X149350000Y-73960000D03*
%TO.P,J6,SH4,SHIELD*%
X140710000Y-73960000D03*
%TD*%
D18*
%TO.P,H1,1*%
%TO.N,N/C*%
X132450000Y-74450000D03*
%TD*%
D19*
%TO.P,R13,1*%
%TO.N,/Project Architecture/ANA_ADC_VBAT*%
X193170000Y-84270000D03*
%TO.P,R13,2*%
%TO.N,AGND*%
X194190000Y-84270000D03*
%TD*%
%TO.P,R5,1*%
%TO.N,Net-(PS1-FB)*%
X216220000Y-97910000D03*
%TO.P,R5,2*%
%TO.N,PGND*%
X217240000Y-97910000D03*
%TD*%
D18*
%TO.P,H4,1*%
%TO.N,N/C*%
X132450000Y-104950000D03*
%TD*%
D20*
%TO.P,D2,1,K*%
%TO.N,Net-(D1-K)*%
X137650000Y-77050000D03*
%TO.P,D2,2,A*%
%TO.N,/(lib_symbols/V_USB*%
X137650000Y-73050000D03*
%TD*%
D19*
%TO.P,R17,1*%
%TO.N,/Project Architecture/USB_CC2*%
X193170000Y-90240000D03*
%TO.P,R17,2*%
%TO.N,PGND*%
X194190000Y-90240000D03*
%TD*%
D21*
%TO.P,C17,1*%
%TO.N,Net-(U1-REGOUT)*%
X160177500Y-95600000D03*
%TO.P,C17,2*%
%TO.N,DGND*%
X160177500Y-93875000D03*
%TD*%
D19*
%TO.P,R8,1*%
%TO.N,/Project Architecture/Microcontroller/DFU_Enable*%
X190030000Y-108820000D03*
%TO.P,R8,2*%
%TO.N,DGND*%
X191050000Y-108820000D03*
%TD*%
D22*
%TO.P,D1,1,K*%
%TO.N,Net-(D1-K)*%
X137650000Y-80350000D03*
%TO.P,D1,2,A*%
%TO.N,+9V*%
X137650000Y-84350000D03*
%TD*%
D13*
%TO.P,C34,1*%
%TO.N,+3V3*%
X191770000Y-106840000D03*
%TO.P,C34,2*%
%TO.N,DGND*%
X192730000Y-106840000D03*
%TD*%
D19*
%TO.P,R12,1*%
%TO.N,Net-(PS1-MODE)*%
X216220000Y-101890000D03*
%TO.P,R12,2*%
%TO.N,PGND*%
X217240000Y-101890000D03*
%TD*%
D11*
%TO.P,C1,1*%
%TO.N,Net-(D1-K)*%
X219065000Y-81240000D03*
%TO.P,C1,2*%
%TO.N,PGND*%
X222015000Y-81240000D03*
%TD*%
D23*
%TO.P,S1,1*%
%TO.N,/Project Architecture/Microcontroller/DFU_Enable*%
X157150000Y-75050000D03*
%TO.P,S1,2*%
%TO.N,+3V3*%
X152950000Y-75050000D03*
D24*
%TO.P,S1,SH1*%
%TO.N,N/C*%
X158850000Y-73250000D03*
D25*
%TO.P,S1,SH2*%
X151250000Y-73250000D03*
%TD*%
D19*
%TO.P,R16,1*%
%TO.N,/Project Architecture/USB_CC1*%
X193170000Y-88250000D03*
%TO.P,R16,2*%
%TO.N,PGND*%
X194190000Y-88250000D03*
%TD*%
%TO.P,R14,1*%
%TO.N,+VBAT*%
X193170000Y-86260000D03*
%TO.P,R14,2*%
%TO.N,/Project Architecture/ANA_ADC_VBAT*%
X194190000Y-86260000D03*
%TD*%
D26*
%TO.P,C16,1*%
%TO.N,/(lib_symbols/Microcontroller/CLK_OUT*%
X146175000Y-104237500D03*
%TO.P,C16,2*%
%TO.N,DGND*%
X146175000Y-105962500D03*
%TD*%
D11*
%TO.P,C20,1*%
%TO.N,+3V3*%
X219065000Y-84590000D03*
%TO.P,C20,2*%
%TO.N,DGND*%
X222015000Y-84590000D03*
%TD*%
D13*
%TO.P,C27,1*%
%TO.N,+3V3*%
X188900000Y-102900000D03*
%TO.P,C27,2*%
%TO.N,DGND*%
X189860000Y-102900000D03*
%TD*%
D18*
%TO.P,H2,1*%
%TO.N,N/C*%
X188650000Y-82040000D03*
%TD*%
D27*
%TO.P,C8,1*%
%TO.N,Net-(U5-VCAP_2)*%
X143337500Y-88900000D03*
%TO.P,C8,2*%
%TO.N,DGND*%
X141612500Y-88900000D03*
%TD*%
D19*
%TO.P,R11,1*%
%TO.N,+3V3*%
X193170000Y-82280000D03*
%TO.P,R11,2*%
%TO.N,/Project Architecture/UART2_RX*%
X194190000Y-82280000D03*
%TD*%
D28*
%TO.P,U2,1,IN*%
%TO.N,Net-(D1-K)*%
X200500000Y-58400000D03*
%TO.P,U2,2,GND*%
%TO.N,DGND*%
X200500000Y-60700000D03*
%TO.P,U2,3,OUT*%
%TO.N,+3V3*%
X200500000Y-63000000D03*
D29*
%TO.P,U2,4,GND*%
%TO.N,DGND*%
X207000000Y-60700000D03*
%TD*%
D30*
%TO.P,J1,1,1*%
%TO.N,+9V*%
X134500000Y-80950000D03*
%TO.P,J1,2,2*%
%TO.N,PGND*%
X134500000Y-81950000D03*
%TO.P,J1,3,3*%
%TO.N,/Project Architecture/UART4_TX*%
X134500000Y-82950000D03*
%TO.P,J1,4,4*%
%TO.N,/Project Architecture/UART4_RX*%
X134500000Y-83950000D03*
%TO.P,J1,5,5*%
%TO.N,DGND*%
X134500000Y-84950000D03*
%TO.P,J1,6,6*%
%TO.N,/Project Architecture/SBUS_TX*%
X134500000Y-85950000D03*
D31*
%TO.P,J1,S1,SHIELD*%
%TO.N,PGND*%
X130625000Y-79650000D03*
%TO.P,J1,S2,SHIELD*%
X130625000Y-87250000D03*
%TD*%
D26*
%TO.P,C14,1*%
%TO.N,+3V3*%
X157877500Y-97837500D03*
%TO.P,C14,2*%
%TO.N,DGND*%
X157877500Y-99562500D03*
%TD*%
D14*
%TO.P,J3,A1_B12,GND*%
%TO.N,PGND*%
X194620000Y-73170000D03*
%TO.P,J3,A4_B9,VBUS*%
%TO.N,/Project Architecture/V_USB*%
X195420000Y-73170000D03*
D15*
%TO.P,J3,A5,CC1*%
%TO.N,/Project Architecture/USB_CC1*%
X196570000Y-73170000D03*
%TO.P,J3,A6,DATA+*%
%TO.N,/Project Architecture/USB_+DATA*%
X197570000Y-73170000D03*
%TO.P,J3,A7,DATA-*%
%TO.N,/Project Architecture/USB_-DATA*%
X198070000Y-73170000D03*
%TO.P,J3,A8,SBU1*%
%TO.N,unconnected-(J3-SBU1-PadA8)*%
X199070000Y-73170000D03*
D14*
%TO.P,J3,B1_A12,GND*%
%TO.N,PGND*%
X201020000Y-73170000D03*
%TO.P,J3,B4_A9,VBUS*%
%TO.N,/Project Architecture/V_USB*%
X200220000Y-73170000D03*
D15*
%TO.P,J3,B5,CC2*%
%TO.N,/Project Architecture/USB_CC2*%
X199570000Y-73170000D03*
%TO.P,J3,B6,DATA+*%
%TO.N,/Project Architecture/USB_+DATA*%
X198570000Y-73170000D03*
%TO.P,J3,B7,DATA-*%
%TO.N,/Project Architecture/USB_-DATA*%
X197070000Y-73170000D03*
%TO.P,J3,B8,SBU2*%
%TO.N,unconnected-(J3-SBU2-PadB8)*%
X196070000Y-73170000D03*
D16*
%TO.P,J3,SH1,SHIELD*%
%TO.N,PGND*%
X193500000Y-73735000D03*
%TO.P,J3,SH2,SHIELD*%
X202140000Y-73735000D03*
D17*
%TO.P,J3,SH3,SHIELD*%
X193500000Y-77915000D03*
%TO.P,J3,SH4,SHIELD*%
X202140000Y-77915000D03*
%TD*%
D13*
%TO.P,C18,1*%
%TO.N,/Project Architecture/Power/VBAT*%
X219140000Y-97900000D03*
%TO.P,C18,2*%
%TO.N,PGND*%
X220100000Y-97900000D03*
%TD*%
D30*
%TO.P,J2,1,1*%
%TO.N,/Project Architecture/UART5_RX*%
X160750000Y-85950000D03*
%TO.P,J2,2,2*%
%TO.N,/Project Architecture/UART5_TX*%
X160750000Y-84950000D03*
%TO.P,J2,3,3*%
%TO.N,DGND*%
X160750000Y-83950000D03*
%TO.P,J2,4,4*%
%TO.N,+3V3*%
X160750000Y-82950000D03*
%TO.P,J2,5,5*%
%TO.N,/Project Architecture/I2C1_SCL*%
X160750000Y-81950000D03*
%TO.P,J2,6,6*%
%TO.N,/Project Architecture/I2C1_SDA*%
X160750000Y-80950000D03*
D31*
%TO.P,J2,S1,SHIELD*%
%TO.N,DGND*%
X164625000Y-87250000D03*
%TO.P,J2,S2,SHIELD*%
X164625000Y-79650000D03*
%TD*%
D13*
%TO.P,C25,1*%
%TO.N,+3V3*%
X186030000Y-104870000D03*
%TO.P,C25,2*%
%TO.N,DGND*%
X186990000Y-104870000D03*
%TD*%
D26*
%TO.P,C9,1*%
%TO.N,Net-(U5-VCAP_1)*%
X154175000Y-93437500D03*
%TO.P,C9,2*%
%TO.N,DGND*%
X154175000Y-95162500D03*
%TD*%
D32*
%TO.P,D3,1,K*%
%TO.N,Net-(D1-K)*%
X211695000Y-86390000D03*
%TO.P,D3,2,A*%
%TO.N,/Project Architecture/Power/10\u201326V to 9V2A Step-Down Converter/+9V*%
X215695000Y-86390000D03*
%TD*%
D13*
%TO.P,C29,1*%
%TO.N,Net-(U5-VCAP_2)*%
X188900000Y-106840000D03*
%TO.P,C29,2*%
%TO.N,DGND*%
X189860000Y-106840000D03*
%TD*%
D11*
%TO.P,C19,1*%
%TO.N,/Project Architecture/Power/10\u201326V to 9V2A Step-Down Converter/+9V*%
X210975000Y-95690000D03*
%TO.P,C19,2*%
%TO.N,PGND*%
X213925000Y-95690000D03*
%TD*%
D33*
%TO.P,PS1,1,EN*%
%TO.N,unconnected-(PS1-EN-Pad1)*%
X217025000Y-92415000D03*
%TO.P,PS1,2,FB*%
%TO.N,Net-(PS1-FB)*%
X217025000Y-92915000D03*
D34*
%TO.P,PS1,3,GND*%
%TO.N,PGND*%
X217025000Y-93427000D03*
D35*
%TO.P,PS1,4,VOUT*%
%TO.N,/Project Architecture/Power/10\u201326V to 9V2A Step-Down Converter/+9V*%
X217175000Y-94215000D03*
X217175000Y-95003000D03*
X217175000Y-95790000D03*
D36*
X217500000Y-95003000D03*
D35*
X217825000Y-94215000D03*
X217825000Y-95003000D03*
X217825000Y-95790000D03*
%TO.P,PS1,5,SW*%
%TO.N,unconnected-(PS1-SW-Pad5)_4*%
X219125000Y-94215000D03*
%TO.N,unconnected-(PS1-SW-Pad5)*%
X219125000Y-95003000D03*
%TO.N,unconnected-(PS1-SW-Pad5)_3*%
X219125000Y-95790000D03*
D37*
%TO.N,unconnected-(PS1-SW-Pad5)_5*%
X219450000Y-95003000D03*
D35*
%TO.N,unconnected-(PS1-SW-Pad5)_6*%
X219775000Y-94215000D03*
%TO.N,unconnected-(PS1-SW-Pad5)_1*%
X219775000Y-95003000D03*
%TO.N,unconnected-(PS1-SW-Pad5)_2*%
X219775000Y-95790000D03*
D38*
%TO.P,PS1,6,VIN*%
%TO.N,/Project Architecture/Power/VBAT*%
X219475000Y-92665000D03*
D39*
%TO.P,PS1,7,MODE*%
%TO.N,Net-(PS1-MODE)*%
X219275000Y-91740000D03*
D40*
%TO.P,PS1,8,SS/PG*%
%TO.N,unconnected-(PS1-SS{slash}PG-Pad8)*%
X218250000Y-91715000D03*
D41*
%TO.P,PS1,9,RT/SYNC*%
%TO.N,PGND*%
X217675000Y-91740000D03*
%TD*%
D18*
%TO.P,H4,1*%
%TO.N,N/C*%
X188650000Y-96340000D03*
%TD*%
D42*
%TO.P,C32,1*%
%TO.N,/Project Architecture/Microcontroller/CLK_OUT*%
X186305000Y-109080000D03*
%TO.P,C32,2*%
%TO.N,DGND*%
X187855000Y-109080000D03*
%TD*%
D13*
%TO.P,C30,1*%
%TO.N,Net-(U5-VCAP_1)*%
X191770000Y-102900000D03*
%TO.P,C30,2*%
%TO.N,DGND*%
X192730000Y-102900000D03*
%TD*%
D43*
%TO.P,U1,1*%
%TO.N,N/C*%
X197225000Y-103555000D03*
%TO.P,U1,2*%
X197225000Y-103955000D03*
%TO.P,U1,3*%
X197225000Y-104355000D03*
%TO.P,U1,4*%
X197225000Y-104755000D03*
%TO.P,U1,5*%
X197225000Y-105155000D03*
%TO.P,U1,6*%
X197225000Y-105555000D03*
D44*
%TO.P,U1,7,AUX_CL*%
%TO.N,unconnected-(U1-AUX_CL-Pad7)*%
X197770000Y-106100000D03*
%TO.P,U1,8,VDDIO*%
%TO.N,+3V3*%
X198170000Y-106100000D03*
%TO.P,U1,9,AD0/SDO*%
%TO.N,/Project Architecture/SPI1_SDI*%
X198570000Y-106100000D03*
%TO.P,U1,10,REGOUT*%
%TO.N,Net-(U1-REGOUT)*%
X198970000Y-106100000D03*
%TO.P,U1,11,FSYNC*%
%TO.N,DGND*%
X199370000Y-106100000D03*
%TO.P,U1,12,INT*%
%TO.N,/Project Architecture/DIG_IMU_EXTI*%
X199770000Y-106100000D03*
D43*
%TO.P,U1,13,VDD*%
%TO.N,+3V3*%
X200315000Y-105555000D03*
%TO.P,U1,14*%
%TO.N,N/C*%
X200315000Y-105155000D03*
%TO.P,U1,15*%
X200315000Y-104755000D03*
%TO.P,U1,16*%
X200315000Y-104355000D03*
%TO.P,U1,17*%
X200315000Y-103955000D03*
%TO.P,U1,18,GND*%
%TO.N,DGND*%
X200315000Y-103555000D03*
D44*
%TO.P,U1,19,RESV_1*%
%TO.N,unconnected-(U1-RESV_1-Pad19)*%
X199770000Y-103010000D03*
%TO.P,U1,20,RESV_2*%
%TO.N,unconnected-(U1-RESV_2-Pad20)*%
X199370000Y-103010000D03*
%TO.P,U1,21,AUX_DA*%
%TO.N,unconnected-(U1-AUX_DA-Pad21)*%
X198970000Y-103010000D03*
%TO.P,U1,22,NCS*%
%TO.N,/Project Architecture/DIG_IMU_CS*%
X198570000Y-103010000D03*
%TO.P,U1,23,SCL/SCLK*%
%TO.N,/Project Architecture/SPI1_SCK*%
X198170000Y-103010000D03*
%TO.P,U1,24,SDA/SDI*%
%TO.N,/Project Architecture/SPI1_SDO*%
X197770000Y-103010000D03*
D45*
%TO.P,U1,25,EXP*%
%TO.N,DGND*%
X198770000Y-104555000D03*
%TD*%
D13*
%TO.P,C31,1*%
%TO.N,+3V3*%
X191770000Y-104870000D03*
%TO.P,C31,2*%
%TO.N,AGND*%
X192730000Y-104870000D03*
%TD*%
%TO.P,C28,1*%
%TO.N,+3V3*%
X188900000Y-104870000D03*
%TO.P,C28,2*%
%TO.N,AGND*%
X189860000Y-104870000D03*
%TD*%
D46*
%TO.P,JP3,1,A*%
%TO.N,DGND*%
X196660000Y-83060000D03*
%TO.P,JP3,2,B*%
%TO.N,AGND*%
X197960000Y-83060000D03*
%TD*%
D27*
%TO.P,C6,1*%
%TO.N,+3V3*%
X149537500Y-105800000D03*
%TO.P,C6,2*%
%TO.N,AGND*%
X147812500Y-105800000D03*
%TD*%
D18*
%TO.P,H3,1*%
%TO.N,N/C*%
X188650000Y-89190000D03*
%TD*%
D27*
%TO.P,C7,1*%
%TO.N,+3V3*%
X149537500Y-104200000D03*
%TO.P,C7,2*%
%TO.N,AGND*%
X147812500Y-104200000D03*
%TD*%
D26*
%TO.P,C15,1*%
%TO.N,+3V3*%
X141275000Y-104437500D03*
%TO.P,C15,2*%
%TO.N,DGND*%
X141275000Y-106162500D03*
%TD*%
D27*
%TO.P,C5,1*%
%TO.N,+3V3*%
X141537500Y-90500000D03*
%TO.P,C5,2*%
%TO.N,DGND*%
X139812500Y-90500000D03*
%TD*%
D18*
%TO.P,H1,1*%
%TO.N,N/C*%
X188650000Y-74890000D03*
%TD*%
D19*
%TO.P,R6,1*%
%TO.N,/Project Architecture/Power/10\u201326V to 9V2A Step-Down Converter/+9V*%
X216220000Y-99900000D03*
%TO.P,R6,2*%
%TO.N,Net-(PS1-FB)*%
X217240000Y-99900000D03*
%TD*%
D13*
%TO.P,C26,1*%
%TO.N,+3V3*%
X186030000Y-106840000D03*
%TO.P,C26,2*%
%TO.N,DGND*%
X186990000Y-106840000D03*
%TD*%
D11*
%TO.P,C21,1*%
%TO.N,/Project Architecture/Power/10\u201326V to 9V2A Step-Down Converter/+9V*%
X210975000Y-99040000D03*
%TO.P,C21,2*%
%TO.N,PGND*%
X213925000Y-99040000D03*
%TD*%
D26*
%TO.P,C3,1*%
%TO.N,+3V3*%
X154175000Y-98737500D03*
%TO.P,C3,2*%
%TO.N,DGND*%
X154175000Y-100462500D03*
%TD*%
D42*
%TO.P,C33,1*%
%TO.N,+3V3*%
X186305000Y-111590000D03*
%TO.P,C33,2*%
%TO.N,DGND*%
X187855000Y-111590000D03*
%TD*%
D30*
%TO.P,J4,1*%
%TO.N,PGND*%
X134550000Y-92250000D03*
%TO.P,J4,2*%
%TO.N,+VBAT*%
X134550000Y-93250000D03*
%TO.P,J4,3*%
%TO.N,/(lib_symbols/ESC_SIG_M1*%
X134550000Y-94250000D03*
%TO.P,J4,4*%
%TO.N,/(lib_symbols/ESC_SIG_M2*%
X134550000Y-95250000D03*
%TO.P,J4,5*%
%TO.N,/(lib_symbols/ESC_SIG_M4*%
X134550000Y-96250000D03*
%TO.P,J4,6*%
%TO.N,/(lib_symbols/ESC_SIG_M3*%
X134550000Y-97250000D03*
%TO.P,J4,7*%
%TO.N,/(lib_symbols/ANA_ADC_CURR*%
X134550000Y-98250000D03*
%TO.P,J4,8*%
%TO.N,/(lib_symbols/UART1_RX*%
X134550000Y-99250000D03*
D31*
%TO.P,J4,P1*%
%TO.N,N/C*%
X130675000Y-90950000D03*
%TO.P,J4,P2*%
X130675000Y-100550000D03*
%TD*%
D27*
%TO.P,C10,1*%
%TO.N,+3V3*%
X141537500Y-102800000D03*
%TO.P,C10,2*%
%TO.N,DGND*%
X139812500Y-102800000D03*
%TD*%
D47*
%TO.P,U1,1*%
%TO.N,N/C*%
X162372500Y-99650000D03*
%TO.P,U1,2*%
X162372500Y-99250000D03*
%TO.P,U1,3*%
X162372500Y-98850000D03*
%TO.P,U1,4*%
X162372500Y-98450000D03*
%TO.P,U1,5*%
X162372500Y-98050000D03*
%TO.P,U1,6*%
X162372500Y-97650000D03*
D48*
%TO.P,U1,7,AUX_CL*%
%TO.N,unconnected-(U1-AUX_CL-Pad7)*%
X161827500Y-97105000D03*
%TO.P,U1,8,VDDIO*%
%TO.N,+3V3*%
X161427500Y-97105000D03*
%TO.P,U1,9,AD0/SDO*%
%TO.N,/(lib_symbols/SPI1_SDI*%
X161027500Y-97105000D03*
%TO.P,U1,10,REGOUT*%
%TO.N,Net-(U1-REGOUT)*%
X160627500Y-97105000D03*
%TO.P,U1,11,FSYNC*%
%TO.N,DGND*%
X160227500Y-97105000D03*
%TO.P,U1,12,INT*%
%TO.N,/(lib_symbols/DIG_IMU_EXTI*%
X159827500Y-97105000D03*
D47*
%TO.P,U1,13,VDD*%
%TO.N,+3V3*%
X159282500Y-97650000D03*
%TO.P,U1,14*%
%TO.N,N/C*%
X159282500Y-98050000D03*
%TO.P,U1,15*%
X159282500Y-98450000D03*
%TO.P,U1,16*%
X159282500Y-98850000D03*
%TO.P,U1,17*%
X159282500Y-99250000D03*
%TO.P,U1,18,GND*%
%TO.N,DGND*%
X159282500Y-99650000D03*
D48*
%TO.P,U1,19,RESV_1*%
%TO.N,unconnected-(U1-RESV_1-Pad19)*%
X159827500Y-100195000D03*
%TO.P,U1,20,RESV_2*%
%TO.N,unconnected-(U1-RESV_2-Pad20)*%
X160227500Y-100195000D03*
%TO.P,U1,21,AUX_DA*%
%TO.N,unconnected-(U1-AUX_DA-Pad21)*%
X160627500Y-100195000D03*
%TO.P,U1,22,NCS*%
%TO.N,/(lib_symbols/DIG_IMU_CS*%
X161027500Y-100195000D03*
%TO.P,U1,23,SCL/SCLK*%
%TO.N,/(lib_symbols/SPI1_SCK*%
X161427500Y-100195000D03*
%TO.P,U1,24,SDA/SDI*%
%TO.N,/(lib_symbols/SPI1_SDO*%
X161827500Y-100195000D03*
D45*
%TO.P,U1,25,EXP*%
%TO.N,DGND*%
X160827500Y-98650000D03*
%TD*%
D13*
%TO.P,C23,1*%
%TO.N,+3V3*%
X202360000Y-104870000D03*
%TO.P,C23,2*%
%TO.N,DGND*%
X203320000Y-104870000D03*
%TD*%
D21*
%TO.P,C12,1*%
%TO.N,+3V3*%
X139075000Y-101200000D03*
%TO.P,C12,2*%
%TO.N,DGND*%
X139075000Y-99475000D03*
%TD*%
D18*
%TO.P,H2,1*%
%TO.N,N/C*%
X162950000Y-74450000D03*
%TD*%
D13*
%TO.P,C24,1*%
%TO.N,+3V3*%
X186030000Y-102900000D03*
%TO.P,C24,2*%
%TO.N,DGND*%
X186990000Y-102900000D03*
%TD*%
D18*
%TO.P,H3,1*%
%TO.N,N/C*%
X162950000Y-104950000D03*
%TD*%
D21*
%TO.P,C13,1*%
%TO.N,+3V3*%
X161877500Y-95600000D03*
%TO.P,C13,2*%
%TO.N,DGND*%
X161877500Y-93875000D03*
%TD*%
D49*
%TO.P,U5,1,VBAT*%
%TO.N,unconnected-(U5-VBAT-Pad1)*%
X142900000Y-102325000D03*
%TO.P,U5,2,PC13*%
%TO.N,unconnected-(U5-PC13-Pad2)*%
X143400000Y-102325000D03*
%TO.P,U5,3,PC14*%
%TO.N,unconnected-(U5-PC14-Pad3)*%
X143900000Y-102325000D03*
%TO.P,U5,4,PC15*%
%TO.N,unconnected-(U5-PC15-Pad4)*%
X144400000Y-102325000D03*
%TO.P,U5,5,PH0*%
%TO.N,/Project Architecture/Microcontroller/CLK_OUT*%
X144900000Y-102325000D03*
%TO.P,U5,6,PH1*%
%TO.N,unconnected-(U5-PH1-Pad6)*%
X145400000Y-102325000D03*
%TO.P,U5,7,NRST*%
%TO.N,unconnected-(U5-NRST-Pad7)*%
X145900000Y-102325000D03*
%TO.P,U5,8,PC0*%
%TO.N,/Project Architecture/ANA_ADC_VBAT*%
X146400000Y-102325000D03*
%TO.P,U5,9,PC1*%
%TO.N,/Project Architecture/ANA_ADC_CURR*%
X146900000Y-102325000D03*
%TO.P,U5,10,PC2*%
%TO.N,unconnected-(U5-PC2-Pad10)*%
X147400000Y-102325000D03*
%TO.P,U5,11,PC3*%
%TO.N,unconnected-(U5-PC3-Pad11)*%
X147900000Y-102325000D03*
%TO.P,U5,12,VSSA*%
%TO.N,AGND*%
X148400000Y-102325000D03*
%TO.P,U5,13,VDDA*%
%TO.N,+3V3*%
X148900000Y-102325000D03*
%TO.P,U5,14,PA0*%
%TO.N,/Project Architecture/UART4_TX*%
X149400000Y-102325000D03*
%TO.P,U5,15,PA1*%
%TO.N,/Project Architecture/UART4_RX*%
X149900000Y-102325000D03*
%TO.P,U5,16,PA2*%
%TO.N,unconnected-(U5-PA2-Pad16)*%
X150400000Y-102325000D03*
D50*
%TO.P,U5,17,PA3*%
%TO.N,/Project Architecture/UART2_RX*%
X152325000Y-100400000D03*
%TO.P,U5,18,VSS*%
%TO.N,DGND*%
X152325000Y-99900000D03*
%TO.P,U5,19,VDD*%
%TO.N,+3V3*%
X152325000Y-99400000D03*
%TO.P,U5,20,PA4*%
%TO.N,/Project Architecture/DIG_IMU_CS*%
X152325000Y-98900000D03*
%TO.P,U5,21,PA5*%
%TO.N,/Project Architecture/SPI1_SCK*%
X152325000Y-98400000D03*
%TO.P,U5,22,PA6*%
%TO.N,/Project Architecture/SPI1_SDI*%
X152325000Y-97900000D03*
%TO.P,U5,23,PA7*%
%TO.N,/Project Architecture/SPI1_SDO*%
X152325000Y-97400000D03*
%TO.P,U5,24,PC4*%
%TO.N,/Project Architecture/DIG_IMU_EXTI*%
X152325000Y-96900000D03*
%TO.P,U5,25,PC5*%
%TO.N,unconnected-(U5-PC5-Pad25)*%
X152325000Y-96400000D03*
%TO.P,U5,26,PB0*%
%TO.N,unconnected-(U5-PB0-Pad26)*%
X152325000Y-95900000D03*
%TO.P,U5,27,PB1*%
%TO.N,unconnected-(U5-PB1-Pad27)*%
X152325000Y-95400000D03*
%TO.P,U5,28,PB2*%
%TO.N,DGND*%
X152325000Y-94900000D03*
%TO.P,U5,29,PB10*%
%TO.N,unconnected-(U5-PB10-Pad29)*%
X152325000Y-94400000D03*
%TO.P,U5,30,PB11*%
%TO.N,unconnected-(U5-PB11-Pad30)*%
X152325000Y-93900000D03*
%TO.P,U5,31,VCAP_1*%
%TO.N,Net-(U5-VCAP_1)*%
X152325000Y-93400000D03*
%TO.P,U5,32,VDD*%
%TO.N,+3V3*%
X152325000Y-92900000D03*
D49*
%TO.P,U5,33,PB12*%
%TO.N,unconnected-(U5-PB12-Pad33)*%
X150400000Y-90975000D03*
%TO.P,U5,34,PB13*%
%TO.N,unconnected-(U5-PB13-Pad34)*%
X149900000Y-90975000D03*
%TO.P,U5,35,PB14*%
%TO.N,unconnected-(U5-PB14-Pad35)*%
X149400000Y-90975000D03*
%TO.P,U5,36,PB15*%
%TO.N,/Project Architecture/ESC_SIG_M3*%
X148900000Y-90975000D03*
%TO.P,U5,37,PC6*%
%TO.N,unconnected-(U5-PC6-Pad37)*%
X148400000Y-90975000D03*
%TO.P,U5,38,PC7*%
%TO.N,unconnected-(U5-PC7-Pad38)*%
X147900000Y-90975000D03*
%TO.P,U5,39,PC8*%
%TO.N,/Project Architecture/ESC_SIG_M4*%
X147400000Y-90975000D03*
%TO.P,U5,40,PC9*%
%TO.N,/Project Architecture/ESC_SIG_M2*%
X146900000Y-90975000D03*
%TO.P,U5,41,PA8*%
%TO.N,/Project Architecture/ESC_SIG_M1*%
X146400000Y-90975000D03*
%TO.P,U5,42,PA9*%
%TO.N,unconnected-(U5-PA9-Pad42)*%
X145900000Y-90975000D03*
%TO.P,U5,43,PA10*%
%TO.N,/Project Architecture/UART1_RX*%
X145400000Y-90975000D03*
%TO.P,U5,44,PA11*%
%TO.N,/Project Architecture/USB_+DATA*%
X144900000Y-90975000D03*
%TO.P,U5,45,PA12*%
%TO.N,/Project Architecture/USB_-DATA*%
X144400000Y-90975000D03*
%TO.P,U5,46,PA13*%
%TO.N,/Project Architecture/Microcontroller/LED0*%
X143900000Y-90975000D03*
%TO.P,U5,47,VCAP_2*%
%TO.N,Net-(U5-VCAP_2)*%
X143400000Y-90975000D03*
%TO.P,U5,48,VDD*%
%TO.N,+3V3*%
X142900000Y-90975000D03*
D50*
%TO.P,U5,49,PA14*%
%TO.N,/Project Architecture/Microcontroller/LED1*%
X140975000Y-92900000D03*
%TO.P,U5,50,PA15*%
%TO.N,unconnected-(U5-PA15-Pad50)*%
X140975000Y-93400000D03*
%TO.P,U5,51,PC10*%
%TO.N,unconnected-(U5-PC10-Pad51)*%
X140975000Y-93900000D03*
%TO.P,U5,52,PC11*%
%TO.N,unconnected-(U5-PC11-Pad52)*%
X140975000Y-94400000D03*
%TO.P,U5,53,PC12*%
%TO.N,/Project Architecture/UART5_TX*%
X140975000Y-94900000D03*
%TO.P,U5,54,PD2*%
%TO.N,/Project Architecture/UART5_RX*%
X140975000Y-95400000D03*
%TO.P,U5,55,PB3*%
%TO.N,unconnected-(U5-PB3-Pad55)*%
X140975000Y-95900000D03*
%TO.P,U5,56,PB4*%
%TO.N,unconnected-(U5-PB4-Pad56)*%
X140975000Y-96400000D03*
%TO.P,U5,57,PB5*%
%TO.N,unconnected-(U5-PB5-Pad57)*%
X140975000Y-96900000D03*
%TO.P,U5,58,PB6*%
%TO.N,unconnected-(U5-PB6-Pad58)*%
X140975000Y-97400000D03*
%TO.P,U5,59,PB7*%
%TO.N,unconnected-(U5-PB7-Pad59)*%
X140975000Y-97900000D03*
%TO.P,U5,60,BOOT0*%
%TO.N,/Project Architecture/Microcontroller/DFU_Enable*%
X140975000Y-98400000D03*
%TO.P,U5,61,PB8*%
%TO.N,/Project Architecture/I2C1_SCL*%
X140975000Y-98900000D03*
%TO.P,U5,62,PB9*%
%TO.N,/Project Architecture/I2C1_SDA*%
X140975000Y-99400000D03*
%TO.P,U5,63,VSS*%
%TO.N,DGND*%
X140975000Y-99900000D03*
%TO.P,U5,64,VDD*%
%TO.N,+3V3*%
X140975000Y-100400000D03*
%TD*%
D32*
%TO.P,D1,1,K*%
%TO.N,Net-(D1-K)*%
X211695000Y-81840000D03*
%TO.P,D1,2,A*%
%TO.N,/Project Architecture/V_USB*%
X215695000Y-81840000D03*
%TD*%
D35*
%TO.P,PS1,4,VOUT*%
%TO.N,+9V*%
X152900000Y-84600000D03*
X152900000Y-85387000D03*
X152900000Y-86175000D03*
X153550000Y-84600000D03*
X153550000Y-85387000D03*
X153550000Y-86175000D03*
%TO.P,PS1,5,SW*%
%TO.N,unconnected-(PS1-SW-Pad5)_6*%
X154850000Y-84600000D03*
%TO.N,unconnected-(PS1-SW-Pad5)_1*%
X154850000Y-85387000D03*
%TO.N,unconnected-(PS1-SW-Pad5)*%
X154850000Y-86175000D03*
%TO.N,unconnected-(PS1-SW-Pad5)_4*%
X155500000Y-84600000D03*
%TO.N,unconnected-(PS1-SW-Pad5)_5*%
X155500000Y-85387000D03*
%TO.N,unconnected-(PS1-SW-Pad5)_3*%
X155500000Y-86175000D03*
%TD*%
D51*
%TO.P,Y1,1,1*%
%TO.N,/Project Architecture/Microcontroller/CLK_OUT*%
X144425000Y-104600000D03*
%TO.P,Y1,2,2*%
%TO.N,+3V3*%
X139545000Y-104600000D03*
%TD*%
D52*
%TO.N,Net-(D1-K)*%
X139250000Y-78650000D03*
X139250000Y-79550000D03*
X139250000Y-77750000D03*
%TO.N,PGND*%
X140200000Y-85900000D03*
X143200000Y-85900000D03*
X130100000Y-78200000D03*
X142200000Y-85900000D03*
X132100000Y-78900000D03*
X131987500Y-88612500D03*
X132100000Y-78200000D03*
X131100000Y-78200000D03*
X132100000Y-79800000D03*
X141200000Y-85900000D03*
X133200000Y-82400000D03*
%TO.N,DGND*%
X155668750Y-93668750D03*
X162050000Y-83950000D03*
X159000000Y-94100000D03*
X138200000Y-99475000D03*
X151400000Y-104900000D03*
X164625000Y-86150000D03*
X143675000Y-106400000D03*
X148700000Y-82100000D03*
X138900000Y-102800000D03*
X152950000Y-72250000D03*
X161000000Y-93875000D03*
X156100000Y-99562500D03*
X163150000Y-79250000D03*
X130500000Y-82450000D03*
X139549000Y-88400000D03*
%TO.N,+3V3*%
X142600000Y-82400000D03*
X147600000Y-82200000D03*
X140100000Y-89025000D03*
X162900000Y-95600000D03*
X159200000Y-83000000D03*
X155400000Y-98737500D03*
X152287575Y-90900566D03*
X139300000Y-87336412D03*
X151400000Y-105800000D03*
X130500000Y-80850000D03*
X151550000Y-75050000D03*
%TO.N,AGND*%
X147812500Y-107000000D03*
%TO.N,+VBAT*%
X157500000Y-92000000D03*
X155600000Y-92800000D03*
X131500000Y-94400000D03*
X157600000Y-91300000D03*
X132700000Y-92300000D03*
X137900000Y-94200000D03*
X135600000Y-90800000D03*
X133100000Y-93250000D03*
X156600000Y-92800000D03*
X132300000Y-94400000D03*
X157600000Y-90600000D03*
%TO.N,+9V*%
X139250000Y-83550000D03*
X142200000Y-85000000D03*
X152250000Y-83525000D03*
X140300000Y-85000000D03*
X135500000Y-79800000D03*
X143200000Y-85000000D03*
X133300000Y-79800000D03*
X139250000Y-84350000D03*
X139250000Y-85250000D03*
X134400000Y-79800000D03*
X148050000Y-88625000D03*
X141200000Y-85000000D03*
%TO.N,/Project Architecture/SBUS_TX*%
X130500000Y-85950000D03*
%TO.N,/Project Architecture/UART4_RX*%
X149900000Y-101000000D03*
%TO.N,/Project Architecture/UART4_TX*%
X148900000Y-101000000D03*
X137400000Y-87100000D03*
X137400000Y-89100000D03*
%TO.N,/(lib_symbols/UART1_RX*%
X135900000Y-99300000D03*
X145400000Y-92400000D03*
%TO.N,/(lib_symbols/ANA_ADC_CURR*%
X133300000Y-98250000D03*
X147400000Y-101000000D03*
%TO.N,/(lib_symbols/ESC_SIG_M4*%
X133300000Y-95500000D03*
X147400000Y-89600000D03*
%TO.N,/(lib_symbols/ESC_SIG_M1*%
X146400000Y-89600000D03*
X133200000Y-94250000D03*
%TO.N,/(lib_symbols/ESC_SIG_M2*%
X146900000Y-92400000D03*
X135800000Y-95250000D03*
%TO.N,/(lib_symbols/ESC_SIG_M3*%
X148900000Y-92400000D03*
X133200000Y-97250000D03*
%TO.N,/(lib_symbols/USB_+DATA*%
X144205000Y-81200000D03*
X145355000Y-81200000D03*
%TO.N,/(lib_symbols/USB_CC1*%
X146013288Y-77586712D03*
%TO.N,/(lib_symbols/USB_CC2*%
X143750000Y-77550000D03*
%TO.N,/(lib_symbols/UART2_RX*%
X152700000Y-101200000D03*
X138300000Y-87600000D03*
X150256587Y-99343413D03*
%TO.N,Net-(PS1-MODE)*%
X155550000Y-89200000D03*
X152000000Y-91837500D03*
%TO.N,/(lib_symbols/ANA_ADC_VBAT*%
X145900000Y-101000000D03*
%TO.N,/(lib_symbols/Microcontroller/DFU_Enable*%
X155050000Y-75050000D03*
X158550000Y-75050000D03*
X142600000Y-98325000D03*
X149191912Y-93491912D03*
%TO.N,/(lib_symbols/SPI1_SDO*%
X156800000Y-97475000D03*
X162400000Y-100200000D03*
%TO.N,/(lib_symbols/SPI1_SDI*%
X161027500Y-94800000D03*
X155400000Y-97975000D03*
%TO.N,/Project Architecture/UART5_RX*%
X155633550Y-94833550D03*
X142300000Y-95900000D03*
X162050000Y-85950000D03*
X145100000Y-96800000D03*
%TO.N,/Project Architecture/UART5_TX*%
X142300000Y-94400000D03*
X162050000Y-84950000D03*
X145500000Y-94000000D03*
%TO.N,/Project Architecture/I2C1_SDA*%
X142600000Y-99475000D03*
X165350000Y-80950000D03*
X154000000Y-96325000D03*
%TO.N,/Project Architecture/I2C1_SCL*%
X145600000Y-97600000D03*
X139700000Y-98500000D03*
X164100000Y-83000000D03*
X155600000Y-95700000D03*
%TO.N,/Project Architecture/Microcontroller/LED1*%
X139600000Y-92900000D03*
%TO.N,/Project Architecture/Microcontroller/LED0*%
X143900000Y-92399000D03*
%TD*%
D53*
%TO.N,Net-(D1-K)*%
X139250000Y-79550000D02*
X138450000Y-80350000D01*
X138450000Y-80350000D02*
X137650000Y-80350000D01*
X139250000Y-78650000D02*
X139250000Y-79550000D01*
X139250000Y-77750000D02*
X138550000Y-77050000D01*
X139250000Y-77750000D02*
X139250000Y-78650000D01*
X138550000Y-77050000D02*
X137650000Y-77050000D01*
%TO.N,PGND*%
X148785000Y-78705000D02*
X149350000Y-78140000D01*
X132100000Y-79800000D02*
X130775000Y-79800000D01*
X130775000Y-79800000D02*
X130625000Y-79650000D01*
X132100000Y-78200000D02*
X132100000Y-79800000D01*
D54*
X134800000Y-81950000D02*
X133225000Y-81950000D01*
D53*
X132100000Y-80525000D02*
X132100000Y-79800000D01*
X134550000Y-92250000D02*
X134550000Y-91175000D01*
X129800000Y-80475000D02*
X130625000Y-79650000D01*
X132100000Y-78900000D02*
X131375000Y-78900000D01*
X134550000Y-91175000D02*
X131987500Y-88612500D01*
X133525000Y-81950000D02*
X132100000Y-80525000D01*
X130100000Y-78200000D02*
X132100000Y-78200000D01*
X131987500Y-88612500D02*
X130625000Y-87250000D01*
X130100000Y-78200000D02*
X130100000Y-79125000D01*
X130625000Y-87250000D02*
X129800000Y-86425000D01*
X131375000Y-78900000D02*
X130625000Y-79650000D01*
X132100000Y-78200000D02*
X130650000Y-79650000D01*
X141275000Y-78705000D02*
X140710000Y-78140000D01*
X133650000Y-81950000D02*
X134500000Y-81950000D01*
X133200000Y-82400000D02*
X133650000Y-81950000D01*
X134500000Y-81950000D02*
X133525000Y-81950000D01*
X129800000Y-86425000D02*
X129800000Y-80475000D01*
X131100000Y-79175000D02*
X130625000Y-79650000D01*
X141830000Y-78705000D02*
X141275000Y-78705000D01*
X130885412Y-79650000D02*
X130925000Y-79650000D01*
X131100000Y-78200000D02*
X131100000Y-79175000D01*
X148230000Y-78705000D02*
X148785000Y-78705000D01*
X130650000Y-79650000D02*
X130625000Y-79650000D01*
D54*
X133225000Y-81950000D02*
X130925000Y-79650000D01*
D53*
X130100000Y-79125000D02*
X130625000Y-79650000D01*
%TO.N,DGND*%
X160177500Y-93875000D02*
X161000000Y-93875000D01*
X163150000Y-79250000D02*
X164225000Y-79250000D01*
X153912500Y-94900000D02*
X154175000Y-95162500D01*
X159282500Y-99650000D02*
X157965000Y-99650000D01*
X139500000Y-88449000D02*
X139500000Y-90187500D01*
X154951000Y-94386500D02*
X154951000Y-91701000D01*
X154175000Y-95162500D02*
X154951000Y-94386500D01*
X131100000Y-84950000D02*
X130500000Y-84350000D01*
X159227500Y-96150000D02*
X159227500Y-94487500D01*
X139812500Y-102800000D02*
X139675000Y-102800000D01*
X161000000Y-93875000D02*
X161877500Y-93875000D01*
X155700000Y-93637500D02*
X155700000Y-93600000D01*
X154437500Y-100462500D02*
X155337500Y-99562500D01*
X134800000Y-84950000D02*
X131100000Y-84950000D01*
X143675000Y-106400000D02*
X145737500Y-106400000D01*
X153612500Y-99900000D02*
X154175000Y-100462500D01*
X141612500Y-88900000D02*
X141412500Y-88900000D01*
X159627500Y-96550000D02*
X159227500Y-96150000D01*
X159952500Y-94100000D02*
X160177500Y-93875000D01*
X157965000Y-99650000D02*
X157877500Y-99562500D01*
X159282500Y-99650000D02*
X159827500Y-99650000D01*
X130500000Y-84350000D02*
X130500000Y-82450000D01*
X152325000Y-99900000D02*
X153612500Y-99900000D01*
X140975000Y-99900000D02*
X139500000Y-99900000D01*
X152325000Y-94900000D02*
X153912500Y-94900000D01*
X156100000Y-99562500D02*
X157877500Y-99562500D01*
X164625000Y-86150000D02*
X164625000Y-87250000D01*
X145737500Y-106400000D02*
X146175000Y-105962500D01*
X160227500Y-96650000D02*
X160127500Y-96550000D01*
X159827500Y-99650000D02*
X160827500Y-98650000D01*
X159840000Y-93875000D02*
X160177500Y-93875000D01*
X141275000Y-106162500D02*
X141512500Y-106400000D01*
X164225000Y-79250000D02*
X164625000Y-79650000D01*
X154175000Y-100462500D02*
X154437500Y-100462500D01*
X139549000Y-88400000D02*
X141112500Y-88400000D01*
X155668750Y-93668750D02*
X155700000Y-93637500D01*
X154175000Y-95162500D02*
X155668750Y-93668750D01*
X139812500Y-102800000D02*
X138900000Y-102800000D01*
X159000000Y-94100000D02*
X159952500Y-94100000D01*
X141512500Y-106400000D02*
X143675000Y-106400000D01*
X160227500Y-97105000D02*
X160227500Y-96650000D01*
X154951000Y-91701000D02*
X154850000Y-91600000D01*
X141112500Y-88400000D02*
X141612500Y-88900000D01*
X139549000Y-88400000D02*
X139500000Y-88449000D01*
X160227500Y-98050000D02*
X160227500Y-97105000D01*
X159227500Y-94487500D02*
X159840000Y-93875000D01*
X155337500Y-99562500D02*
X156100000Y-99562500D01*
X160127500Y-96550000D02*
X159627500Y-96550000D01*
X139500000Y-99900000D02*
X139075000Y-99475000D01*
X160827500Y-98650000D02*
X160227500Y-98050000D01*
X139500000Y-90187500D02*
X139812500Y-90500000D01*
X139075000Y-99475000D02*
X138200000Y-99475000D01*
X160750000Y-83950000D02*
X162050000Y-83950000D01*
%TO.N,/(lib_symbols/Microcontroller/CLK_OUT*%
X144425000Y-104600000D02*
X144900000Y-104125000D01*
X144787500Y-104237500D02*
X144425000Y-104600000D01*
X146175000Y-104237500D02*
X144787500Y-104237500D01*
X144900000Y-104125000D02*
X144900000Y-102325000D01*
%TO.N,+3V3*%
X138324000Y-103379000D02*
X139545000Y-104600000D01*
X142012500Y-90975000D02*
X141537500Y-90500000D01*
X142900000Y-90975000D02*
X142012500Y-90975000D01*
X141537500Y-102800000D02*
X141537500Y-100962500D01*
X141537500Y-104175000D02*
X141275000Y-104437500D01*
X155400000Y-98737500D02*
X156977500Y-98737500D01*
X141537500Y-100962500D02*
X140975000Y-100400000D01*
X149537500Y-105800000D02*
X151400000Y-105800000D01*
X141537500Y-102800000D02*
X141537500Y-104175000D01*
X143900000Y-86900000D02*
X143900000Y-83300000D01*
X143900000Y-83300000D02*
X143000000Y-82400000D01*
X161877500Y-95600000D02*
X162900000Y-95600000D01*
X138324000Y-101951000D02*
X138324000Y-103379000D01*
X148900000Y-103562500D02*
X149537500Y-104200000D01*
X141537500Y-90437500D02*
X141537500Y-90500000D01*
X154175000Y-98737500D02*
X155400000Y-98737500D01*
X152987009Y-91600000D02*
X153125000Y-91600000D01*
X139300000Y-87336412D02*
X139336412Y-87300000D01*
X161427500Y-97105000D02*
X161427500Y-95950000D01*
X153512500Y-99400000D02*
X154175000Y-98737500D01*
X143500000Y-87300000D02*
X143900000Y-86900000D01*
X153125000Y-91600000D02*
X153125000Y-92100000D01*
X159250000Y-82950000D02*
X159200000Y-83000000D01*
X143000000Y-82400000D02*
X142600000Y-82400000D01*
X140200000Y-89100000D02*
X141537500Y-90437500D01*
X139075000Y-101200000D02*
X138324000Y-101951000D01*
X152950000Y-75050000D02*
X151550000Y-75050000D01*
X139336412Y-87300000D02*
X143500000Y-87300000D01*
X160750000Y-82950000D02*
X159250000Y-82950000D01*
X156977500Y-98737500D02*
X157877500Y-97837500D01*
X148900000Y-102325000D02*
X148900000Y-103562500D01*
X140975000Y-100400000D02*
X139875000Y-100400000D01*
X140175000Y-89100000D02*
X140200000Y-89100000D01*
X141275000Y-104437500D02*
X139707500Y-104437500D01*
X159282500Y-97650000D02*
X158065000Y-97650000D01*
X158065000Y-97650000D02*
X157877500Y-97837500D01*
X152325000Y-99400000D02*
X153512500Y-99400000D01*
X152287575Y-90900566D02*
X152987009Y-91600000D01*
X149537500Y-104200000D02*
X149537500Y-105800000D01*
X153125000Y-92100000D02*
X152325000Y-92900000D01*
X139707500Y-104437500D02*
X139545000Y-104600000D01*
X161427500Y-95950000D02*
X161777500Y-95600000D01*
X140100000Y-89025000D02*
X140175000Y-89100000D01*
X139875000Y-100400000D02*
X139075000Y-101200000D01*
%TO.N,AGND*%
X147812500Y-104200000D02*
X147812500Y-105800000D01*
X148400000Y-102325000D02*
X148400000Y-103612500D01*
X147775000Y-107100000D02*
X147812500Y-107062500D01*
X148400000Y-103612500D02*
X147812500Y-104200000D01*
X147812500Y-105800000D02*
X147812500Y-107000000D01*
X147812500Y-107000000D02*
X147812500Y-107062500D01*
%TO.N,Net-(U5-VCAP_2)*%
X143400000Y-88962500D02*
X143337500Y-88900000D01*
X143400000Y-90975000D02*
X143400000Y-88962500D01*
%TO.N,Net-(U5-VCAP_1)*%
X152325000Y-93400000D02*
X154137500Y-93400000D01*
X154137500Y-93400000D02*
X154175000Y-93437500D01*
%TO.N,+VBAT*%
X132300000Y-94400000D02*
X132300000Y-94050000D01*
X135626000Y-92851000D02*
X135626000Y-90826000D01*
X131500000Y-94400000D02*
X132300000Y-94400000D01*
X135227000Y-93250000D02*
X135626000Y-92851000D01*
X132300000Y-94050000D02*
X133100000Y-93250000D01*
X134550000Y-93250000D02*
X135227000Y-93250000D01*
X132700000Y-92850000D02*
X133100000Y-93250000D01*
X136950000Y-93250000D02*
X137900000Y-94200000D01*
X135626000Y-90826000D02*
X135600000Y-90800000D01*
X132700000Y-92300000D02*
X132700000Y-92850000D01*
X134550000Y-93250000D02*
X136950000Y-93250000D01*
X134550000Y-93250000D02*
X133100000Y-93250000D01*
%TO.N,/(lib_symbols/V_USB*%
X142900000Y-77841665D02*
X142900000Y-73500000D01*
X147231000Y-77831000D02*
X141950000Y-72550000D01*
X138150000Y-72550000D02*
X140500000Y-72550000D01*
X147430000Y-78705000D02*
X147231000Y-78506000D01*
X140700000Y-72550000D02*
X140500000Y-72550000D01*
X141950000Y-72550000D02*
X140700000Y-72550000D01*
X142630000Y-78705000D02*
X142630000Y-78111665D01*
X142900000Y-73500000D02*
X141950000Y-72550000D01*
X147231000Y-78506000D02*
X147231000Y-77831000D01*
X137650000Y-73050000D02*
X138150000Y-72550000D01*
X142630000Y-78111665D02*
X142900000Y-77841665D01*
%TO.N,Net-(U1-REGOUT)*%
X160627500Y-96050000D02*
X160177500Y-95600000D01*
X160627500Y-97105000D02*
X160627500Y-96050000D01*
%TO.N,+9V*%
X135500000Y-79800000D02*
X133300000Y-79800000D01*
D55*
X135750000Y-80950000D02*
X134500000Y-80950000D01*
X136100000Y-82300000D02*
X136100000Y-81300000D01*
D53*
X137650000Y-84350000D02*
X137650000Y-83850000D01*
X138450000Y-83550000D02*
X137650000Y-84350000D01*
X134400000Y-79800000D02*
X134400000Y-80850000D01*
X135500000Y-79950000D02*
X134500000Y-80950000D01*
X134400000Y-80850000D02*
X134500000Y-80950000D01*
X135500000Y-79800000D02*
X135500000Y-79950000D01*
X138550000Y-85250000D02*
X137650000Y-84350000D01*
X139250000Y-85250000D02*
X138550000Y-85250000D01*
X139250000Y-84350000D02*
X139250000Y-83550000D01*
D55*
X137650000Y-83850000D02*
X136100000Y-82300000D01*
D53*
X139250000Y-83550000D02*
X138450000Y-83550000D01*
X133300000Y-79800000D02*
X133350000Y-79800000D01*
D55*
X136100000Y-81300000D02*
X135750000Y-80950000D01*
D53*
X133350000Y-79800000D02*
X134500000Y-80950000D01*
X137650000Y-84350000D02*
X139250000Y-84350000D01*
X139250000Y-84350000D02*
X139250000Y-85250000D01*
%TO.N,/Project Architecture/SBUS_TX*%
X134800000Y-85950000D02*
X130500000Y-85950000D01*
%TO.N,/Project Architecture/UART4_RX*%
X139362766Y-91923000D02*
X138500000Y-91060234D01*
X141873924Y-91923000D02*
X139362766Y-91923000D01*
X135150000Y-83950000D02*
X134500000Y-83950000D01*
X135800000Y-84600000D02*
X135150000Y-83950000D01*
X138500000Y-91060234D02*
X138500000Y-89200000D01*
X149001000Y-98901000D02*
X148851924Y-98901000D01*
X149900000Y-101000000D02*
X149900000Y-99800000D01*
X148851924Y-98901000D02*
X141873924Y-91923000D01*
X149900000Y-101000000D02*
X149900000Y-102325000D01*
X149900000Y-99800000D02*
X149001000Y-98901000D01*
X138500000Y-89200000D02*
X135800000Y-86500000D01*
X135800000Y-86500000D02*
X135800000Y-84600000D01*
%TO.N,/Project Architecture/UART4_TX*%
X141942724Y-92558900D02*
X141707824Y-92324000D01*
X148802000Y-99302000D02*
X148685824Y-99302000D01*
X136300000Y-86000000D02*
X136300000Y-84100000D01*
X139700000Y-92324000D02*
X139196666Y-92324000D01*
X149400000Y-101500000D02*
X148900000Y-101000000D01*
X148900000Y-99400000D02*
X148802000Y-99302000D01*
X139861066Y-92324000D02*
X139700000Y-92324000D01*
X149400000Y-102325000D02*
X149400000Y-101500000D01*
X141689800Y-92324000D02*
X141375624Y-92324000D01*
X141375624Y-92324000D02*
X139861066Y-92324000D01*
X148685824Y-99302000D02*
X148450924Y-99067100D01*
X139700000Y-92324000D02*
X139528866Y-92324000D01*
X148900000Y-101000000D02*
X148900000Y-99400000D01*
X136300000Y-84100000D02*
X135150000Y-82950000D01*
X137400000Y-90527334D02*
X137400000Y-89100000D01*
X139528866Y-92324000D02*
X139196666Y-92324000D01*
X135150000Y-82950000D02*
X134500000Y-82950000D01*
X148450924Y-99067100D02*
X148216024Y-98832200D01*
X137400000Y-87100000D02*
X136300000Y-86000000D01*
X139196666Y-92324000D02*
X137400000Y-90527334D01*
X141707824Y-92324000D02*
X141689800Y-92324000D01*
X148216024Y-98832200D02*
X141942724Y-92558900D01*
%TO.N,/(lib_symbols/UART1_RX*%
X135900000Y-99300000D02*
X135800000Y-99300000D01*
X145400000Y-90975000D02*
X145400000Y-92400000D01*
X135750000Y-99250000D02*
X134550000Y-99250000D01*
X135800000Y-99300000D02*
X135750000Y-99250000D01*
%TO.N,/(lib_symbols/ANA_ADC_CURR*%
X146900000Y-102325000D02*
X146900000Y-101500000D01*
X146900000Y-101500000D02*
X147400000Y-101000000D01*
X134550000Y-98250000D02*
X133300000Y-98250000D01*
%TO.N,/(lib_symbols/ESC_SIG_M4*%
X147400000Y-90975000D02*
X147400000Y-89600000D01*
X134550000Y-96250000D02*
X134050000Y-96250000D01*
X134050000Y-96250000D02*
X133300000Y-95500000D01*
%TO.N,/(lib_symbols/ESC_SIG_M1*%
X134550000Y-94250000D02*
X133200000Y-94250000D01*
X146400000Y-90975000D02*
X146400000Y-89600000D01*
%TO.N,/(lib_symbols/ESC_SIG_M2*%
X146900000Y-90975000D02*
X146900000Y-92400000D01*
X134550000Y-95250000D02*
X135800000Y-95250000D01*
%TO.N,/(lib_symbols/ESC_SIG_M3*%
X133200000Y-97250000D02*
X133050000Y-97250000D01*
X148900000Y-90975000D02*
X148900000Y-92400000D01*
X134550000Y-97250000D02*
X133200000Y-97250000D01*
%TO.N,/(lib_symbols/USB_-DATA*%
X144780000Y-78705000D02*
X144780000Y-82152900D01*
X144780000Y-79532000D02*
X144780000Y-78705000D01*
X144780000Y-82152900D02*
X144400000Y-82532900D01*
X145641500Y-79581000D02*
X145780000Y-79442500D01*
X144400000Y-82532900D02*
X144400000Y-90975000D01*
X144829000Y-79581000D02*
X145641500Y-79581000D01*
X145780000Y-79442500D02*
X145780000Y-78705000D01*
X144780000Y-79532000D02*
X144829000Y-79581000D01*
%TO.N,/(lib_symbols/USB_+DATA*%
X144900000Y-82600000D02*
X144900000Y-90975000D01*
X145355000Y-82145000D02*
X144900000Y-82600000D01*
X145329000Y-78656000D02*
X145280000Y-78705000D01*
X144329000Y-77829000D02*
X145306500Y-77829000D01*
X144280000Y-78705000D02*
X144280000Y-81125000D01*
X145329000Y-77851500D02*
X145329000Y-78656000D01*
X144280000Y-81125000D02*
X144205000Y-81200000D01*
X145355000Y-81200000D02*
X145355000Y-82145000D01*
X145355000Y-81200000D02*
X145496957Y-81200000D01*
X144280000Y-78705000D02*
X144280000Y-77878000D01*
X144280000Y-77878000D02*
X144329000Y-77829000D01*
X145306500Y-77829000D02*
X145329000Y-77851500D01*
%TO.N,/(lib_symbols/USB_CC1*%
X146013288Y-77613288D02*
X146280000Y-77880000D01*
X146280000Y-78705000D02*
X146280000Y-77880000D01*
X146013288Y-77586712D02*
X146013288Y-77613288D01*
%TO.N,/(lib_symbols/USB_CC2*%
X143750000Y-77550000D02*
X143280000Y-78020000D01*
X143280000Y-78020000D02*
X143280000Y-78705000D01*
%TO.N,/(lib_symbols/UART2_RX*%
X149413174Y-98500000D02*
X150256587Y-99343413D01*
X149018024Y-98500000D02*
X149413174Y-98500000D01*
X152700000Y-100775000D02*
X152325000Y-100400000D01*
X152700000Y-101200000D02*
X152700000Y-100775000D01*
X142040024Y-91522000D02*
X149018024Y-98500000D01*
X138300000Y-87600000D02*
X138974000Y-88274000D01*
X138974000Y-90967134D02*
X139528866Y-91522000D01*
X138974000Y-88274000D02*
X138974000Y-90967134D01*
X139528866Y-91522000D02*
X142040024Y-91522000D01*
%TO.N,/(lib_symbols/ANA_ADC_VBAT*%
X146400000Y-102325000D02*
X146400000Y-101500000D01*
X146400000Y-101500000D02*
X145900000Y-101000000D01*
%TO.N,/(lib_symbols/Microcontroller/DFU_Enable*%
X142525000Y-98400000D02*
X140975000Y-98400000D01*
X157400000Y-88400000D02*
X158000000Y-87800000D01*
X157150000Y-75050000D02*
X158550000Y-75050000D01*
X158000000Y-75900000D02*
X157150000Y-75050000D01*
X151000000Y-90700000D02*
X153300000Y-88400000D01*
X158000000Y-87800000D02*
X158000000Y-75900000D01*
X151000000Y-91683824D02*
X151000000Y-90700000D01*
X142600000Y-98325000D02*
X142525000Y-98400000D01*
X153300000Y-88400000D02*
X157400000Y-88400000D01*
X149191912Y-93491912D02*
X151000000Y-91683824D01*
X157150000Y-75050000D02*
X155050000Y-75050000D01*
%TO.N,/(lib_symbols/DIG_IMU_CS*%
X151516176Y-98900000D02*
X151249000Y-99167176D01*
X151249000Y-100749000D02*
X152300000Y-101800000D01*
X152325000Y-98900000D02*
X151516176Y-98900000D01*
X152300000Y-101800000D02*
X160055000Y-101800000D01*
X160055000Y-101800000D02*
X161027500Y-100827500D01*
X161027500Y-100827500D02*
X161027500Y-100195000D01*
X151249000Y-99167176D02*
X151249000Y-100749000D01*
%TO.N,/(lib_symbols/SPI1_SDO*%
X162400000Y-100200000D02*
X162395000Y-100195000D01*
X162395000Y-100195000D02*
X161827500Y-100195000D01*
X156800000Y-97475000D02*
X156800000Y-97600000D01*
X152325000Y-97400000D02*
X156725000Y-97400000D01*
X156725000Y-97400000D02*
X156800000Y-97475000D01*
%TO.N,/(lib_symbols/SPI1_SCK*%
X150848000Y-99001076D02*
X150848000Y-100948000D01*
X151449076Y-98400000D02*
X150848000Y-99001076D01*
X161427500Y-100994600D02*
X161427500Y-100195000D01*
X160222100Y-102200000D02*
X161427500Y-100994600D01*
X150848000Y-100948000D02*
X152100000Y-102200000D01*
X152100000Y-102200000D02*
X160222100Y-102200000D01*
X152325000Y-98400000D02*
X151449076Y-98400000D01*
%TO.N,/(lib_symbols/SPI1_SDI*%
X161027500Y-94800000D02*
X161027500Y-97105000D01*
X155400000Y-97975000D02*
X155325000Y-97900000D01*
X155325000Y-97900000D02*
X152325000Y-97900000D01*
%TO.N,/(lib_symbols/DIG_IMU_EXTI*%
X159410400Y-96900000D02*
X159615400Y-97105000D01*
X152325000Y-96900000D02*
X159410400Y-96900000D01*
X159615400Y-97105000D02*
X159827500Y-97105000D01*
%TO.N,/Project Architecture/UART5_RX*%
X144200000Y-95900000D02*
X142300000Y-95900000D01*
X155633550Y-94833550D02*
X160750000Y-89717100D01*
X160750000Y-89717100D02*
X160750000Y-85950000D01*
X160750000Y-85950000D02*
X162050000Y-85950000D01*
X141800000Y-95400000D02*
X142300000Y-95900000D01*
X145100000Y-96800000D02*
X144200000Y-95900000D01*
X140975000Y-95400000D02*
X141800000Y-95400000D01*
%TO.N,/Project Architecture/UART5_TX*%
X151400000Y-91850924D02*
X151401000Y-91849924D01*
X141800000Y-94900000D02*
X142300000Y-94400000D01*
X160750000Y-84950000D02*
X162050000Y-84950000D01*
X159775000Y-84950000D02*
X160750000Y-84950000D01*
X140975000Y-94900000D02*
X141800000Y-94900000D01*
X159400000Y-87800000D02*
X159400000Y-85325000D01*
X151400000Y-92098412D02*
X151400000Y-91850924D01*
X157000000Y-90200000D02*
X159400000Y-87800000D01*
X159400000Y-85325000D02*
X159775000Y-84950000D01*
X145567912Y-94067912D02*
X149430500Y-94067912D01*
X151401000Y-90866100D02*
X152067100Y-90200000D01*
X152067100Y-90200000D02*
X157000000Y-90200000D01*
X145500000Y-94000000D02*
X145567912Y-94067912D01*
X149430500Y-94067912D02*
X151400000Y-92098412D01*
X151401000Y-91849924D02*
X151401000Y-90866100D01*
%TO.N,/Project Architecture/I2C1_SDA*%
X142600000Y-99475000D02*
X142050000Y-99475000D01*
X162900000Y-87000000D02*
X162900000Y-89200000D01*
X162900000Y-89200000D02*
X157750000Y-94350000D01*
X154025000Y-96300000D02*
X154000000Y-96325000D01*
X165350000Y-80950000D02*
X165350000Y-84550000D01*
X157750000Y-94350000D02*
X157750000Y-94364588D01*
X160750000Y-80950000D02*
X165350000Y-80950000D01*
X141975000Y-99400000D02*
X140975000Y-99400000D01*
X155814588Y-96300000D02*
X154025000Y-96300000D01*
X165350000Y-84550000D02*
X162900000Y-87000000D01*
X142050000Y-99475000D02*
X141975000Y-99400000D01*
X157750000Y-94364588D02*
X155814588Y-96300000D01*
%TO.N,/Project Architecture/I2C1_SCL*%
X144300000Y-98900000D02*
X140975000Y-98900000D01*
X161900000Y-89400000D02*
X161900000Y-87432900D01*
X140975000Y-98900000D02*
X140100000Y-98900000D01*
X161900000Y-87432900D02*
X164100000Y-85232900D01*
X145600000Y-97600000D02*
X144300000Y-98900000D01*
X140100000Y-98900000D02*
X139700000Y-98500000D01*
X164100000Y-85232900D02*
X164100000Y-83000000D01*
X163050000Y-81950000D02*
X164100000Y-83000000D01*
X160750000Y-81950000D02*
X163050000Y-81950000D01*
X155600000Y-95700000D02*
X161900000Y-89400000D01*
%TO.N,/Project Architecture/Microcontroller/LED1*%
X140975000Y-92900000D02*
X139600000Y-92900000D01*
%TO.N,/Project Architecture/Microcontroller/LED0*%
X143900000Y-92399000D02*
X143900000Y-90975000D01*
%TD*%
M02*
