M48
; DRILL file {KiCad 9.0.6+1} date 2025-12-06T22:25:55+0000
; FORMAT={-:-/ absolute / metric / decimal}
; #@! TF.CreationDate,2025-12-06T22:25:55+00:00
; #@! TF.GenerationSoftware,Kicad,Pcbnew,9.0.6+1
; #@! TF.FileFunction,Plated,1,4,PTH
FMAT,2
METRIC
; #@! TA.AperFunction,Plated,PTH,ComponentDrill
T1C0.200
; #@! TA.AperFunction,Plated,PTH,ViaDrill
T2C0.250
; #@! TA.AperFunction,Plated,PTH,ComponentDrill
T3C0.600
; #@! TA.AperFunction,Plated,PTH,ComponentDrill
T4C3.200
%
G90
G05
T1
X157.35Y-88.388
X157.35Y-89.037
X157.35Y-90.337
X157.35Y-90.987
X158.137Y-88.388
X158.137Y-89.037
X158.137Y-90.337
X158.137Y-90.987
X158.925Y-88.388
X158.925Y-89.037
X158.925Y-90.337
X158.925Y-90.987
T2
X129.5Y-79.845
X129.5Y-81.0
X129.825Y-89.895
X129.825Y-95.445
X129.85Y-78.595
X129.85Y-86.095
X130.3Y-81.0
X130.35Y-79.845
X131.25Y-74.495
X131.25Y-75.595
X131.25Y-81.0
X131.3Y-79.845
X132.2Y-81.0
X132.25Y-79.845
X132.287Y-84.037
X132.3Y-84.845
X132.3Y-85.8
X132.35Y-92.195
X132.4Y-82.4
X132.5Y-90.195
X134.75Y-103.32
X135.1Y-81.9
X135.1Y-93.5
X135.1Y-95.445
X135.1Y-97.0
X135.2Y-80.85
X135.235Y-92.485
X135.8Y-99.395
X136.3Y-90.4
X136.3Y-91.195
X136.55Y-89.05
X136.55Y-98.695
X137.15Y-79.8
X137.5Y-88.75
X138.125Y-86.695
X138.825Y-96.27
X138.9Y-90.15
X139.25Y-92.0
X139.4Y-89.35
X139.474Y-80.0
X140.05Y-80.65
X140.525Y-81.35
X140.6Y-88.995
X140.796Y-72.733
X140.93Y-75.5
X141.25Y-90.5
X141.375Y-102.395
X141.375Y-103.145
X141.546Y-72.739
X142.2Y-75.5
X142.6Y-98.02
X143.1Y-88.97
X143.6Y-86.745
X144.05Y-89.1
X144.1Y-98.02
X144.875Y-102.595
X144.875Y-103.22
X144.98Y-85.125
X145.055Y-83.95
X145.58Y-85.9
X145.6Y-88.995
X145.825Y-102.595
X146.1Y-98.02
X146.105Y-81.5
X146.65Y-100.745
X146.75Y-95.3
X146.85Y-102.882
X147.25Y-96.1
X147.65Y-96.8
X147.7Y-94.77
X147.875Y-93.795
X148.15Y-98.7
X148.58Y-81.5
X148.98Y-82.55
X149.98Y-84.351
X150.0Y-99.595
X150.188Y-88.307
X150.3Y-91.77
X150.3Y-92.921
X150.73Y-86.15
X151.018Y-87.268
X151.25Y-78.75
X151.25Y-79.55
X151.25Y-100.07
X151.525Y-77.525
X151.6Y-96.8
X151.69Y-82.95
X151.69Y-85.7
X151.9Y-72.35
X151.95Y-86.476
X151.988Y-87.488
X152.0Y-95.075
X152.6Y-97.115
X152.9Y-83.65
X152.9Y-84.65
X153.05Y-82.9
X153.3Y-102.845
X154.522Y-94.155
X154.55Y-98.105
X155.115Y-68.115
X155.115Y-71.24
X156.2Y-102.845
X158.45Y-78.5
X158.5Y-75.45
X158.5Y-76.5
X158.5Y-77.5
X160.637Y-82.837
X161.562Y-81.912
X161.7Y-93.0
X161.85Y-86.015
X162.25Y-91.025
X162.3Y-80.25
X162.55Y-93.0
X162.65Y-86.025
X163.45Y-93.0
X164.25Y-90.05
X164.25Y-92.95
X164.55Y-90.6
X164.75Y-87.15
X164.75Y-87.95
T4
X131.9Y-100.545
X132.754Y-70.082
X162.4Y-70.045
X162.4Y-100.545
T3
G00X136.86Y-69.845
M15
G01X136.86Y-69.045
M16
G05
G00X136.86Y-74.175
M15
G01X136.86Y-73.075
M16
G05
G00X145.5Y-69.845
M15
G01X145.5Y-69.045
M16
G05
G00X145.5Y-74.175
M15
G01X145.5Y-73.075
M16
G05
M30
