%TF.GenerationSoftware,KiCad,Pcbnew,9.0.1+1*%
%TF.CreationDate,Date%
%TF.ProjectId,FCU3,46435533-2e6b-4696-9361-645f70636258,+ (Unreleased)*%
%TF.SameCoordinates,Original*%
%TF.FileFunction,Soldermask,Top*%
%TF.FilePolarity,Negative*%
%FSLAX46Y46*%
G04 Gerber Fmt 4.6, Leading zero omitted, Abs format (unit mm)*
G04 Created by KiCad*
%MOMM*%
%LPD*%
G01*
G04 APERTURE LIST*
G04 Aperture macros list*
%AMRoundRect*
0 Rectangle with rounded corners*
0 $1 Rounding radius*
0 $2 $3 $4 $5 $6 $7 $8 $9 X,Y pos of 4 corners*
0 Add a 4 corners polygon primitive as box body*
4,1,4,$2,$3,$4,$5,$6,$7,$8,$9,$2,$3,0*
0 Add four circle primitives for the rounded corners*
1,1,$1+$1,$2,$3*
1,1,$1+$1,$4,$5*
1,1,$1+$1,$6,$7*
1,1,$1+$1,$8,$9*
0 Add four rect primitives between the rounded corners*
20,1,$1+$1,$2,$3,$4,$5,0*
20,1,$1+$1,$4,$5,$6,$7,0*
20,1,$1+$1,$6,$7,$8,$9,0*
20,1,$1+$1,$8,$9,$2,$3,0*%
G04 Aperture macros list end*
%ADD10C,0.010000*%
%ADD11RoundRect,0.262500X-0.325000X-0.262500X0.325000X-0.262500X0.325000X0.262500X-0.325000X0.262500X0*%
%ADD12C,0.750000*%
%ADD13RoundRect,0.102000X0.300000X0.575000X-0.300000X0.575000X-0.300000X-0.575000X0.300000X-0.575000X0*%
%ADD14RoundRect,0.102000X0.150000X0.575000X-0.150000X0.575000X-0.150000X-0.575000X0.150000X-0.575000X0*%
%ADD15O,1.204000X2.304000*%
%ADD16O,1.204000X2.004000*%
%ADD17C,5.700000*%
%ADD18RoundRect,0.263889X0.686111X-1.036111X0.686111X1.036111X-0.686111X1.036111X-0.686111X-1.036111X0*%
%ADD19RoundRect,0.262500X0.262500X-0.325000X0.262500X0.325000X-0.262500X0.325000X-0.262500X-0.325000X0*%
%ADD20RoundRect,0.263889X-0.686111X1.036111X-0.686111X-1.036111X0.686111X-1.036111X0.686111X1.036111X0*%
%ADD21C,1.000000*%
%ADD22RoundRect,0.102000X0.450000X0.600000X-0.450000X0.600000X-0.450000X-0.600000X0.450000X-0.600000X0*%
%ADD23RoundRect,0.262500X-0.262500X0.325000X-0.262500X-0.325000X0.262500X-0.325000X0.262500X0.325000X0*%
%ADD24RoundRect,0.262500X0.325000X0.262500X-0.325000X0.262500X-0.325000X-0.262500X0.325000X-0.262500X0*%
%ADD25RoundRect,0.102000X-0.775000X0.300000X-0.775000X-0.300000X0.775000X-0.300000X0.775000X0.300000X0*%
%ADD26RoundRect,0.102000X-0.900000X0.600000X-0.900000X-0.600000X0.900000X-0.600000X0.900000X0.600000X0*%
%ADD27RoundRect,0.102000X0.775000X-0.300000X0.775000X0.300000X-0.775000X0.300000X-0.775000X-0.300000X0*%
%ADD28RoundRect,0.102000X0.900000X-0.600000X0.900000X0.600000X-0.900000X0.600000X-0.900000X-0.600000X0*%
%ADD29RoundRect,0.053000X0.369000X0.159000X-0.369000X0.159000X-0.369000X-0.159000X0.369000X-0.159000X0*%
%ADD30RoundRect,0.053000X0.159000X0.369000X-0.159000X0.369000X-0.159000X-0.369000X0.159000X-0.369000X0*%
%ADD31RoundRect,0.102000X0.770000X0.850000X-0.770000X0.850000X-0.770000X-0.850000X0.770000X-0.850000X0*%
%ADD32RoundRect,0.100000X0.100000X-0.725000X0.100000X0.725000X-0.100000X0.725000X-0.100000X-0.725000X0*%
%ADD33RoundRect,0.100000X0.725000X-0.100000X0.725000X0.100000X-0.725000X0.100000X-0.725000X-0.100000X0*%
%ADD34C,1.600000*%
G04 APERTURE END LIST*
D10*
%TO.C,S1*%
X152450000Y-73350000D02*
X151750000Y-73350000D01*
X151750000Y-74050000D01*
X150750000Y-74050000D01*
X150750000Y-72350000D01*
X152450000Y-72350000D01*
X152450000Y-73350000D01*
G36*
X152450000Y-73350000D02*
G01*
X151750000Y-73350000D01*
X151750000Y-74050000D01*
X150750000Y-74050000D01*
X150750000Y-72350000D01*
X152450000Y-72350000D01*
X152450000Y-73350000D01*
G37*
X159350000Y-74050000D02*
X158350000Y-74050000D01*
X158350000Y-73350000D01*
X157650000Y-73350000D01*
X157650000Y-72350000D01*
X159350000Y-72350000D01*
X159350000Y-74050000D01*
G36*
X159350000Y-74050000D02*
G01*
X158350000Y-74050000D01*
X158350000Y-73350000D01*
X157650000Y-73350000D01*
X157650000Y-72350000D01*
X159350000Y-72350000D01*
X159350000Y-74050000D01*
G37*
%TD*%
D11*
%TO.C,C4*%
X153125000Y-91600000D03*
X154850000Y-91600000D03*
%TD*%
D12*
%TO.C,J6*%
X147920000Y-77640000D03*
X142140000Y-77640000D03*
D13*
X148230000Y-78705000D03*
X147430000Y-78705000D03*
D14*
X146280000Y-78705000D03*
X145280000Y-78705000D03*
X144780000Y-78705000D03*
X143780000Y-78705000D03*
D13*
X141830000Y-78705000D03*
X142630000Y-78705000D03*
D14*
X143280000Y-78705000D03*
X144280000Y-78705000D03*
X145780000Y-78705000D03*
X146780000Y-78705000D03*
D15*
X149350000Y-78140000D03*
X140710000Y-78140000D03*
D16*
X149350000Y-73960000D03*
X140710000Y-73960000D03*
%TD*%
D17*
%TO.C,H1*%
X132450000Y-74450000D03*
%TD*%
%TO.C,H4*%
X132450000Y-104950000D03*
%TD*%
D18*
%TO.C,D2*%
X137650000Y-77050000D03*
X137650000Y-73050000D03*
%TD*%
D19*
%TO.C,C17*%
X160177500Y-95600000D03*
X160177500Y-93875000D03*
%TD*%
D20*
%TO.C,D1*%
X137650000Y-80350000D03*
X137650000Y-84350000D03*
%TD*%
D21*
%TO.C,S1*%
X156200000Y-73750000D03*
X153900000Y-73750000D03*
D22*
X157150000Y-75050000D03*
X152950000Y-75050000D03*
%TD*%
D23*
%TO.C,C16*%
X146175000Y-104237500D03*
X146175000Y-105962500D03*
%TD*%
D24*
%TO.C,C8*%
X143337500Y-88900000D03*
X141612500Y-88900000D03*
%TD*%
D25*
%TO.C,J1*%
X134500000Y-80950000D03*
X134500000Y-81950000D03*
X134500000Y-82950000D03*
X134500000Y-83950000D03*
X134500000Y-84950000D03*
X134500000Y-85950000D03*
D26*
X130625000Y-79650000D03*
X130625000Y-87250000D03*
%TD*%
D23*
%TO.C,C14*%
X157877500Y-97837500D03*
X157877500Y-99562500D03*
%TD*%
D27*
%TO.C,J2*%
X160750000Y-85950000D03*
X160750000Y-84950000D03*
X160750000Y-83950000D03*
X160750000Y-82950000D03*
X160750000Y-81950000D03*
X160750000Y-80950000D03*
D28*
X164625000Y-87250000D03*
X164625000Y-79650000D03*
%TD*%
D23*
%TO.C,C9*%
X154175000Y-93437500D03*
X154175000Y-95162500D03*
%TD*%
D24*
%TO.C,C6*%
X149537500Y-105800000D03*
X147812500Y-105800000D03*
%TD*%
%TO.C,C7*%
X149537500Y-104200000D03*
X147812500Y-104200000D03*
%TD*%
D23*
%TO.C,C15*%
X141275000Y-104437500D03*
X141275000Y-106162500D03*
%TD*%
D24*
%TO.C,C5*%
X141537500Y-90500000D03*
X139812500Y-90500000D03*
%TD*%
D23*
%TO.C,C3*%
X154175000Y-98737500D03*
X154175000Y-100462500D03*
%TD*%
D25*
%TO.C,J4*%
X134550000Y-92250000D03*
X134550000Y-93250000D03*
X134550000Y-94250000D03*
X134550000Y-95250000D03*
X134550000Y-96250000D03*
X134550000Y-97250000D03*
X134550000Y-98250000D03*
X134550000Y-99250000D03*
D26*
X130675000Y-90950000D03*
X130675000Y-100550000D03*
%TD*%
D24*
%TO.C,C10*%
X141537500Y-102800000D03*
X139812500Y-102800000D03*
%TD*%
D29*
%TO.C,U1*%
X162372500Y-99650000D03*
X162372500Y-99250000D03*
X162372500Y-98850000D03*
X162372500Y-98450000D03*
X162372500Y-98050000D03*
X162372500Y-97650000D03*
D30*
X161827500Y-97105000D03*
X161427500Y-97105000D03*
X161027500Y-97105000D03*
X160627500Y-97105000D03*
X160227500Y-97105000D03*
X159827500Y-97105000D03*
D29*
X159282500Y-97650000D03*
X159282500Y-98050000D03*
X159282500Y-98450000D03*
X159282500Y-98850000D03*
X159282500Y-99250000D03*
X159282500Y-99650000D03*
D30*
X159827500Y-100195000D03*
X160227500Y-100195000D03*
X160627500Y-100195000D03*
X161027500Y-100195000D03*
X161427500Y-100195000D03*
X161827500Y-100195000D03*
D31*
X160827500Y-98650000D03*
%TD*%
D19*
%TO.C,C12*%
X139075000Y-101200000D03*
X139075000Y-99475000D03*
%TD*%
D17*
%TO.C,H2*%
X162950000Y-74450000D03*
%TD*%
%TO.C,H3*%
X162950000Y-104950000D03*
%TD*%
D19*
%TO.C,C13*%
X161877500Y-95600000D03*
X161877500Y-93875000D03*
%TD*%
D32*
%TO.C,U5*%
X142900000Y-102325000D03*
X143400000Y-102325000D03*
X143900000Y-102325000D03*
X144400000Y-102325000D03*
X144900000Y-102325000D03*
X145400000Y-102325000D03*
X145900000Y-102325000D03*
X146400000Y-102325000D03*
X146900000Y-102325000D03*
X147400000Y-102325000D03*
X147900000Y-102325000D03*
X148400000Y-102325000D03*
X148900000Y-102325000D03*
X149400000Y-102325000D03*
X149900000Y-102325000D03*
X150400000Y-102325000D03*
D33*
X152325000Y-100400000D03*
X152325000Y-99900000D03*
X152325000Y-99400000D03*
X152325000Y-98900000D03*
X152325000Y-98400000D03*
X152325000Y-97900000D03*
X152325000Y-97400000D03*
X152325000Y-96900000D03*
X152325000Y-96400000D03*
X152325000Y-95900000D03*
X152325000Y-95400000D03*
X152325000Y-94900000D03*
X152325000Y-94400000D03*
X152325000Y-93900000D03*
X152325000Y-93400000D03*
X152325000Y-92900000D03*
D32*
X150400000Y-90975000D03*
X149900000Y-90975000D03*
X149400000Y-90975000D03*
X148900000Y-90975000D03*
X148400000Y-90975000D03*
X147900000Y-90975000D03*
X147400000Y-90975000D03*
X146900000Y-90975000D03*
X146400000Y-90975000D03*
X145900000Y-90975000D03*
X145400000Y-90975000D03*
X144900000Y-90975000D03*
X144400000Y-90975000D03*
X143900000Y-90975000D03*
X143400000Y-90975000D03*
X142900000Y-90975000D03*
D33*
X140975000Y-92900000D03*
X140975000Y-93400000D03*
X140975000Y-93900000D03*
X140975000Y-94400000D03*
X140975000Y-94900000D03*
X140975000Y-95400000D03*
X140975000Y-95900000D03*
X140975000Y-96400000D03*
X140975000Y-96900000D03*
X140975000Y-97400000D03*
X140975000Y-97900000D03*
X140975000Y-98400000D03*
X140975000Y-98900000D03*
X140975000Y-99400000D03*
X140975000Y-99900000D03*
X140975000Y-100400000D03*
%TD*%
D34*
%TO.C,Y1*%
X144425000Y-104600000D03*
X139545000Y-104600000D03*
%TD*%
M02*
