%TF.GenerationSoftware,KiCad,Pcbnew,9.0.6+1*%
%TF.CreationDate,Date%
%TF.ProjectId,FCU3,46435533-2e6b-4696-9361-645f70636258,+ (Unreleased)*%
%TF.SameCoordinates,Original*%
%TF.FileFunction,Copper,L1,Top*%
%TF.FilePolarity,Positive*%
%FSLAX46Y46*%
G04 Gerber Fmt 4.6, Leading zero omitted, Abs format (unit mm)*
G04 Created by KiCad*
%MOMM*%
%LPD*%
G01*
G04 APERTURE LIST*
G04 Aperture macros list*
%AMRoundRect*
0 Rectangle with rounded corners*
0 $1 Rounding radius*
0 $2 $3 $4 $5 $6 $7 $8 $9 X,Y pos of 4 corners*
0 Add a 4 corners polygon primitive as box body*
4,1,4,$2,$3,$4,$5,$6,$7,$8,$9,$2,$3,0*
0 Add four circle primitives for the rounded corners*
1,1,$1+$1,$2,$3*
1,1,$1+$1,$4,$5*
1,1,$1+$1,$6,$7*
1,1,$1+$1,$8,$9*
0 Add four rect primitives between the rounded corners*
20,1,$1+$1,$2,$3,$4,$5,0*
20,1,$1+$1,$4,$5,$6,$7,0*
20,1,$1+$1,$6,$7,$8,$9,0*
20,1,$1+$1,$8,$9,$2,$3,0*%
%AMFreePoly0*
4,1,17,0.403536,0.703536,0.405000,0.700000,0.405000,0.005000,1.100000,0.005000,1.103536,0.003536,1.105000,0.000000,1.105000,-0.800000,1.103536,-0.803536,1.100000,-0.805000,-0.400000,-0.805000,-0.403536,-0.803536,-0.405000,-0.800000,-0.405000,0.700000,-0.403536,0.703536,-0.400000,0.705000,0.400000,0.705000,0.403536,0.703536,0.403536,0.703536,$1*%
%AMFreePoly1*
4,1,17,0.403536,0.703536,0.405000,0.700000,0.405000,-0.800000,0.403536,-0.803536,0.400000,-0.805000,-1.100000,-0.805000,-1.103536,-0.803536,-1.105000,-0.800000,-1.105000,0.000000,-1.103536,0.003536,-1.100000,0.005000,-0.405000,0.005000,-0.405000,0.700000,-0.403536,0.703536,-0.400000,0.705000,0.400000,0.705000,0.403536,0.703536,0.403536,0.703536,$1*%
G04 Aperture macros list end*
%TA.AperFunction,SMDPad,CuDef*%
%ADD10RoundRect,0.237500X-0.300000X-0.237500X0.300000X-0.237500X0.300000X0.237500X-0.300000X0.237500X0*%
%TD*%
%TA.AperFunction,SMDPad,CuDef*%
%ADD11R,0.600000X1.150000*%
%TD*%
%TA.AperFunction,SMDPad,CuDef*%
%ADD12R,0.300000X1.150000*%
%TD*%
%TA.AperFunction,ComponentPad*%
%ADD13O,1.000000X2.100000*%
%TD*%
%TA.AperFunction,ComponentPad*%
%ADD14O,1.000000X1.800000*%
%TD*%
%TA.AperFunction,ComponentPad*%
%ADD15C,5.600000*%
%TD*%
%TA.AperFunction,SMDPad,CuDef*%
%ADD16RoundRect,0.250000X0.650000X-1.000000X0.650000X1.000000X-0.650000X1.000000X-0.650000X-1.000000X0*%
%TD*%
%TA.AperFunction,SMDPad,CuDef*%
%ADD17RoundRect,0.237500X0.237500X-0.300000X0.237500X0.300000X-0.237500X0.300000X-0.237500X-0.300000X0*%
%TD*%
%TA.AperFunction,SMDPad,CuDef*%
%ADD18RoundRect,0.250000X-0.650000X1.000000X-0.650000X-1.000000X0.650000X-1.000000X0.650000X1.000000X0*%
%TD*%
%TA.AperFunction,SMDPad,CuDef*%
%ADD19R,0.900000X1.200000*%
%TD*%
%TA.AperFunction,SMDPad,CuDef*%
%ADD20FreePoly0,180.000000*%
%TD*%
%TA.AperFunction,SMDPad,CuDef*%
%ADD21FreePoly1,180.000000*%
%TD*%
%TA.AperFunction,SMDPad,CuDef*%
%ADD22RoundRect,0.237500X-0.237500X0.300000X-0.237500X-0.300000X0.237500X-0.300000X0.237500X0.300000X0*%
%TD*%
%TA.AperFunction,SMDPad,CuDef*%
%ADD23RoundRect,0.237500X0.300000X0.237500X-0.300000X0.237500X-0.300000X-0.237500X0.300000X-0.237500X0*%
%TD*%
%TA.AperFunction,SMDPad,CuDef*%
%ADD24R,1.550000X0.600000*%
%TD*%
%TA.AperFunction,SMDPad,CuDef*%
%ADD25R,1.800000X1.200000*%
%TD*%
%TA.AperFunction,SMDPad,CuDef*%
%ADD26RoundRect,0.027500X0.292500X0.082500X-0.292500X0.082500X-0.292500X-0.082500X0.292500X-0.082500X0*%
%TD*%
%TA.AperFunction,SMDPad,CuDef*%
%ADD27RoundRect,0.027500X0.082500X0.292500X-0.082500X0.292500X-0.082500X-0.292500X0.082500X-0.292500X0*%
%TD*%
%TA.AperFunction,SMDPad,CuDef*%
%ADD28R,1.540000X1.700000*%
%TD*%
%TA.AperFunction,SMDPad,CuDef*%
%ADD29RoundRect,0.075000X0.075000X-0.700000X0.075000X0.700000X-0.075000X0.700000X-0.075000X-0.700000X0*%
%TD*%
%TA.AperFunction,SMDPad,CuDef*%
%ADD30RoundRect,0.075000X0.700000X-0.075000X0.700000X0.075000X-0.700000X0.075000X-0.700000X-0.075000X0*%
%TD*%
%TA.AperFunction,ComponentPad*%
%ADD31C,0.300000*%
%TD*%
%TA.AperFunction,ComponentPad*%
%ADD32C,1.500000*%
%TD*%
%TA.AperFunction,ViaPad*%
%ADD33C,0.550000*%
%TD*%
%TA.AperFunction,Conductor*%
%ADD34C,0.200000*%
%TD*%
%TA.AperFunction,Conductor*%
%ADD35C,0.600000*%
%TD*%
%TA.AperFunction,Conductor*%
%ADD36C,0.700000*%
%TD*%
G04 APERTURE END LIST*
D10*
%TO.P,C4,1*%
%TO.N,+3V3*%
X153125000Y-91600000D03*
%TO.P,C4,2*%
%TO.N,DGND*%
X154850000Y-91600000D03*
%TD*%
D11*
%TO.P,J6,A1_B12,GND*%
%TO.N,PGND*%
X148230000Y-78705000D03*
%TO.P,J6,A4_B9,VBUS*%
%TO.N,/(lib_symbols/V_USB*%
X147430000Y-78705000D03*
D12*
%TO.P,J6,A5,CC1*%
%TO.N,/(lib_symbols/USB_CC1*%
X146280000Y-78705000D03*
%TO.P,J6,A6,DP1*%
%TO.N,/(lib_symbols/USB_+DATA*%
X145280000Y-78705000D03*
%TO.P,J6,A7,DN1*%
%TO.N,/(lib_symbols/USB_-DATA*%
X144780000Y-78705000D03*
%TO.P,J6,A8,SBU1*%
%TO.N,unconnected-(J6-SBU1-PadA8)*%
X143780000Y-78705000D03*
D11*
%TO.P,J6,B1_A12,GND*%
%TO.N,PGND*%
X141830000Y-78705000D03*
%TO.P,J6,B4_A9,VBUS*%
%TO.N,/(lib_symbols/V_USB*%
X142630000Y-78705000D03*
D12*
%TO.P,J6,B5,CC2*%
%TO.N,/(lib_symbols/USB_CC2*%
X143280000Y-78705000D03*
%TO.P,J6,B6,DP2*%
%TO.N,/(lib_symbols/USB_+DATA*%
X144280000Y-78705000D03*
%TO.P,J6,B7,DN2*%
%TO.N,/(lib_symbols/USB_-DATA*%
X145780000Y-78705000D03*
%TO.P,J6,B8,SBU2*%
%TO.N,unconnected-(J6-SBU2-PadB8)*%
X146780000Y-78705000D03*
D13*
%TO.P,J6,SH1,SHIELD*%
%TO.N,PGND*%
X149350000Y-78140000D03*
%TO.P,J6,SH2,SHIELD*%
X140710000Y-78140000D03*
D14*
%TO.P,J6,SH3,SHIELD*%
X149350000Y-73960000D03*
%TO.P,J6,SH4,SHIELD*%
X140710000Y-73960000D03*
%TD*%
D15*
%TO.P,H1,1*%
%TO.N,N/C*%
X132450000Y-74450000D03*
%TD*%
%TO.P,H4,1*%
%TO.N,N/C*%
X132450000Y-104950000D03*
%TD*%
D16*
%TO.P,D2,1,K*%
%TO.N,Net-(D1-K)*%
X137650000Y-77050000D03*
%TO.P,D2,2,A*%
%TO.N,/(lib_symbols/V_USB*%
X137650000Y-73050000D03*
%TD*%
D17*
%TO.P,C17,1*%
%TO.N,Net-(U1-REGOUT)*%
X160177500Y-95600000D03*
%TO.P,C17,2*%
%TO.N,DGND*%
X160177500Y-93875000D03*
%TD*%
D18*
%TO.P,D1,1,K*%
%TO.N,Net-(D1-K)*%
X137650000Y-80350000D03*
%TO.P,D1,2,A*%
%TO.N,+9V*%
X137650000Y-84350000D03*
%TD*%
D19*
%TO.P,S1,1*%
%TO.N,/(lib_symbols/Microcontroller/DFU_Enable*%
X157150000Y-75050000D03*
%TO.P,S1,2*%
%TO.N,+3V3*%
X152950000Y-75050000D03*
D20*
%TO.P,S1,SH1*%
%TO.N,N/C*%
X158850000Y-73250000D03*
D21*
%TO.P,S1,SH2*%
X151250000Y-73250000D03*
%TD*%
D22*
%TO.P,C16,1*%
%TO.N,/(lib_symbols/Microcontroller/CLK_OUT*%
X146175000Y-104237500D03*
%TO.P,C16,2*%
%TO.N,DGND*%
X146175000Y-105962500D03*
%TD*%
D23*
%TO.P,C8,1*%
%TO.N,Net-(U5-VCAP_2)*%
X143337500Y-88900000D03*
%TO.P,C8,2*%
%TO.N,DGND*%
X141612500Y-88900000D03*
%TD*%
D24*
%TO.P,J1,1,1*%
%TO.N,+9V*%
X134500000Y-80950000D03*
%TO.P,J1,2,2*%
%TO.N,PGND*%
X134500000Y-81950000D03*
%TO.P,J1,3,3*%
%TO.N,/(lib_symbols/UART4_TX*%
X134500000Y-82950000D03*
%TO.P,J1,4,4*%
%TO.N,/(lib_symbols/UART4_RX*%
X134500000Y-83950000D03*
%TO.P,J1,5,5*%
%TO.N,DGND*%
X134500000Y-84950000D03*
%TO.P,J1,6,6*%
%TO.N,/(lib_symbols/SBUS_TX*%
X134500000Y-85950000D03*
D25*
%TO.P,J1,S1,SHIELD*%
%TO.N,PGND*%
X130625000Y-79650000D03*
%TO.P,J1,S2,SHIELD*%
X130625000Y-87250000D03*
%TD*%
D22*
%TO.P,C14,1*%
%TO.N,+3V3*%
X157877500Y-97837500D03*
%TO.P,C14,2*%
%TO.N,DGND*%
X157877500Y-99562500D03*
%TD*%
D24*
%TO.P,J2,1,1*%
%TO.N,/(lib_symbols/UART5_RX*%
X160750000Y-85950000D03*
%TO.P,J2,2,2*%
%TO.N,/(lib_symbols/UART5_TX*%
X160750000Y-84950000D03*
%TO.P,J2,3,3*%
%TO.N,DGND*%
X160750000Y-83950000D03*
%TO.P,J2,4,4*%
%TO.N,+3V3*%
X160750000Y-82950000D03*
%TO.P,J2,5,5*%
%TO.N,/(lib_symbols/I2C1_SCL*%
X160750000Y-81950000D03*
%TO.P,J2,6,6*%
%TO.N,/(lib_symbols/I2C1_SDA*%
X160750000Y-80950000D03*
D25*
%TO.P,J2,S1,SHIELD*%
%TO.N,DGND*%
X164625000Y-87250000D03*
%TO.P,J2,S2,SHIELD*%
X164625000Y-79650000D03*
%TD*%
D22*
%TO.P,C9,1*%
%TO.N,Net-(U5-VCAP_1)*%
X154175000Y-93437500D03*
%TO.P,C9,2*%
%TO.N,DGND*%
X154175000Y-95162500D03*
%TD*%
D23*
%TO.P,C6,1*%
%TO.N,+3V3*%
X149537500Y-105800000D03*
%TO.P,C6,2*%
%TO.N,AGND*%
X147812500Y-105800000D03*
%TD*%
%TO.P,C7,1*%
%TO.N,+3V3*%
X149537500Y-104200000D03*
%TO.P,C7,2*%
%TO.N,AGND*%
X147812500Y-104200000D03*
%TD*%
D22*
%TO.P,C15,1*%
%TO.N,+3V3*%
X141275000Y-104437500D03*
%TO.P,C15,2*%
%TO.N,DGND*%
X141275000Y-106162500D03*
%TD*%
D23*
%TO.P,C5,1*%
%TO.N,+3V3*%
X141537500Y-90500000D03*
%TO.P,C5,2*%
%TO.N,DGND*%
X139812500Y-90500000D03*
%TD*%
D22*
%TO.P,C3,1*%
%TO.N,+3V3*%
X154175000Y-98737500D03*
%TO.P,C3,2*%
%TO.N,DGND*%
X154175000Y-100462500D03*
%TD*%
D24*
%TO.P,J4,1*%
%TO.N,PGND*%
X134550000Y-92250000D03*
%TO.P,J4,2*%
%TO.N,+VBAT*%
X134550000Y-93250000D03*
%TO.P,J4,3*%
%TO.N,/(lib_symbols/ESC_SIG_M1*%
X134550000Y-94250000D03*
%TO.P,J4,4*%
%TO.N,/(lib_symbols/ESC_SIG_M2*%
X134550000Y-95250000D03*
%TO.P,J4,5*%
%TO.N,/(lib_symbols/ESC_SIG_M4*%
X134550000Y-96250000D03*
%TO.P,J4,6*%
%TO.N,/(lib_symbols/ESC_SIG_M3*%
X134550000Y-97250000D03*
%TO.P,J4,7*%
%TO.N,/(lib_symbols/ANA_ADC_CURR*%
X134550000Y-98250000D03*
%TO.P,J4,8*%
%TO.N,/(lib_symbols/UART1_RX*%
X134550000Y-99250000D03*
D25*
%TO.P,J4,P1*%
%TO.N,N/C*%
X130675000Y-90950000D03*
%TO.P,J4,P2*%
X130675000Y-100550000D03*
%TD*%
D23*
%TO.P,C10,1*%
%TO.N,+3V3*%
X141537500Y-102800000D03*
%TO.P,C10,2*%
%TO.N,DGND*%
X139812500Y-102800000D03*
%TD*%
D26*
%TO.P,U1,1*%
%TO.N,N/C*%
X162372500Y-99650000D03*
%TO.P,U1,2*%
X162372500Y-99250000D03*
%TO.P,U1,3*%
X162372500Y-98850000D03*
%TO.P,U1,4*%
X162372500Y-98450000D03*
%TO.P,U1,5*%
X162372500Y-98050000D03*
%TO.P,U1,6*%
X162372500Y-97650000D03*
D27*
%TO.P,U1,7,AUX_CL*%
%TO.N,unconnected-(U1-AUX_CL-Pad7)*%
X161827500Y-97105000D03*
%TO.P,U1,8,VDDIO*%
%TO.N,+3V3*%
X161427500Y-97105000D03*
%TO.P,U1,9,AD0/SDO*%
%TO.N,/(lib_symbols/SPI1_SDI*%
X161027500Y-97105000D03*
%TO.P,U1,10,REGOUT*%
%TO.N,Net-(U1-REGOUT)*%
X160627500Y-97105000D03*
%TO.P,U1,11,FSYNC*%
%TO.N,DGND*%
X160227500Y-97105000D03*
%TO.P,U1,12,INT*%
%TO.N,/(lib_symbols/DIG_IMU_EXTI*%
X159827500Y-97105000D03*
D26*
%TO.P,U1,13,VDD*%
%TO.N,+3V3*%
X159282500Y-97650000D03*
%TO.P,U1,14*%
%TO.N,N/C*%
X159282500Y-98050000D03*
%TO.P,U1,15*%
X159282500Y-98450000D03*
%TO.P,U1,16*%
X159282500Y-98850000D03*
%TO.P,U1,17*%
X159282500Y-99250000D03*
%TO.P,U1,18,GND*%
%TO.N,DGND*%
X159282500Y-99650000D03*
D27*
%TO.P,U1,19,RESV_1*%
%TO.N,unconnected-(U1-RESV_1-Pad19)*%
X159827500Y-100195000D03*
%TO.P,U1,20,RESV_2*%
%TO.N,unconnected-(U1-RESV_2-Pad20)*%
X160227500Y-100195000D03*
%TO.P,U1,21,AUX_DA*%
%TO.N,unconnected-(U1-AUX_DA-Pad21)*%
X160627500Y-100195000D03*
%TO.P,U1,22,NCS*%
%TO.N,/(lib_symbols/DIG_IMU_CS*%
X161027500Y-100195000D03*
%TO.P,U1,23,SCL/SCLK*%
%TO.N,/(lib_symbols/SPI1_SCK*%
X161427500Y-100195000D03*
%TO.P,U1,24,SDA/SDI*%
%TO.N,/(lib_symbols/SPI1_SDO*%
X161827500Y-100195000D03*
D28*
%TO.P,U1,25,EXP*%
%TO.N,DGND*%
X160827500Y-98650000D03*
%TD*%
D17*
%TO.P,C12,1*%
%TO.N,+3V3*%
X139075000Y-101200000D03*
%TO.P,C12,2*%
%TO.N,DGND*%
X139075000Y-99475000D03*
%TD*%
D15*
%TO.P,H2,1*%
%TO.N,N/C*%
X162950000Y-74450000D03*
%TD*%
%TO.P,H3,1*%
%TO.N,N/C*%
X162950000Y-104950000D03*
%TD*%
D17*
%TO.P,C13,1*%
%TO.N,+3V3*%
X161877500Y-95600000D03*
%TO.P,C13,2*%
%TO.N,DGND*%
X161877500Y-93875000D03*
%TD*%
D29*
%TO.P,U5,1,VBAT*%
%TO.N,unconnected-(U5-VBAT-Pad1)*%
X142900000Y-102325000D03*
%TO.P,U5,2,PC13*%
%TO.N,unconnected-(U5-PC13-Pad2)*%
X143400000Y-102325000D03*
%TO.P,U5,3,PC14*%
%TO.N,unconnected-(U5-PC14-Pad3)*%
X143900000Y-102325000D03*
%TO.P,U5,4,PC15*%
%TO.N,unconnected-(U5-PC15-Pad4)*%
X144400000Y-102325000D03*
%TO.P,U5,5,PH0*%
%TO.N,/(lib_symbols/Microcontroller/CLK_OUT*%
X144900000Y-102325000D03*
%TO.P,U5,6,PH1*%
%TO.N,unconnected-(U5-PH1-Pad6)*%
X145400000Y-102325000D03*
%TO.P,U5,7,NRST*%
%TO.N,unconnected-(U5-NRST-Pad7)*%
X145900000Y-102325000D03*
%TO.P,U5,8,PC0*%
%TO.N,/(lib_symbols/ANA_ADC_VBAT*%
X146400000Y-102325000D03*
%TO.P,U5,9,PC1*%
%TO.N,/(lib_symbols/ANA_ADC_CURR*%
X146900000Y-102325000D03*
%TO.P,U5,10,PC2*%
%TO.N,unconnected-(U5-PC2-Pad10)*%
X147400000Y-102325000D03*
%TO.P,U5,11,PC3*%
%TO.N,unconnected-(U5-PC3-Pad11)*%
X147900000Y-102325000D03*
%TO.P,U5,12,VSSA*%
%TO.N,AGND*%
X148400000Y-102325000D03*
%TO.P,U5,13,VDDA*%
%TO.N,+3V3*%
X148900000Y-102325000D03*
%TO.P,U5,14,PA0*%
%TO.N,/(lib_symbols/UART4_TX*%
X149400000Y-102325000D03*
%TO.P,U5,15,PA1*%
%TO.N,/(lib_symbols/UART4_RX*%
X149900000Y-102325000D03*
%TO.P,U5,16,PA2*%
%TO.N,unconnected-(U5-PA2-Pad16)*%
X150400000Y-102325000D03*
D30*
%TO.P,U5,17,PA3*%
%TO.N,/(lib_symbols/UART2_RX*%
X152325000Y-100400000D03*
%TO.P,U5,18,VSS*%
%TO.N,DGND*%
X152325000Y-99900000D03*
%TO.P,U5,19,VDD*%
%TO.N,+3V3*%
X152325000Y-99400000D03*
%TO.P,U5,20,PA4*%
%TO.N,/(lib_symbols/DIG_IMU_CS*%
X152325000Y-98900000D03*
%TO.P,U5,21,PA5*%
%TO.N,/(lib_symbols/SPI1_SCK*%
X152325000Y-98400000D03*
%TO.P,U5,22,PA6*%
%TO.N,/(lib_symbols/SPI1_SDI*%
X152325000Y-97900000D03*
%TO.P,U5,23,PA7*%
%TO.N,/(lib_symbols/SPI1_SDO*%
X152325000Y-97400000D03*
%TO.P,U5,24,PC4*%
%TO.N,/(lib_symbols/DIG_IMU_EXTI*%
X152325000Y-96900000D03*
%TO.P,U5,25,PC5*%
%TO.N,unconnected-(U5-PC5-Pad25)*%
X152325000Y-96400000D03*
%TO.P,U5,26,PB0*%
%TO.N,unconnected-(U5-PB0-Pad26)*%
X152325000Y-95900000D03*
%TO.P,U5,27,PB1*%
%TO.N,unconnected-(U5-PB1-Pad27)*%
X152325000Y-95400000D03*
%TO.P,U5,28,PB2*%
%TO.N,DGND*%
X152325000Y-94900000D03*
%TO.P,U5,29,PB10*%
%TO.N,unconnected-(U5-PB10-Pad29)*%
X152325000Y-94400000D03*
%TO.P,U5,30,PB11*%
%TO.N,unconnected-(U5-PB11-Pad30)*%
X152325000Y-93900000D03*
%TO.P,U5,31,VCAP_1*%
%TO.N,Net-(U5-VCAP_1)*%
X152325000Y-93400000D03*
%TO.P,U5,32,VDD*%
%TO.N,+3V3*%
X152325000Y-92900000D03*
D29*
%TO.P,U5,33,PB12*%
%TO.N,unconnected-(U5-PB12-Pad33)*%
X150400000Y-90975000D03*
%TO.P,U5,34,PB13*%
%TO.N,unconnected-(U5-PB13-Pad34)*%
X149900000Y-90975000D03*
%TO.P,U5,35,PB14*%
%TO.N,unconnected-(U5-PB14-Pad35)*%
X149400000Y-90975000D03*
%TO.P,U5,36,PB15*%
%TO.N,/(lib_symbols/ESC_SIG_M3*%
X148900000Y-90975000D03*
%TO.P,U5,37,PC6*%
%TO.N,unconnected-(U5-PC6-Pad37)*%
X148400000Y-90975000D03*
%TO.P,U5,38,PC7*%
%TO.N,unconnected-(U5-PC7-Pad38)*%
X147900000Y-90975000D03*
%TO.P,U5,39,PC8*%
%TO.N,/(lib_symbols/ESC_SIG_M4*%
X147400000Y-90975000D03*
%TO.P,U5,40,PC9*%
%TO.N,/(lib_symbols/ESC_SIG_M2*%
X146900000Y-90975000D03*
%TO.P,U5,41,PA8*%
%TO.N,/(lib_symbols/ESC_SIG_M1*%
X146400000Y-90975000D03*
%TO.P,U5,42,PA9*%
%TO.N,unconnected-(U5-PA9-Pad42)*%
X145900000Y-90975000D03*
%TO.P,U5,43,PA10*%
%TO.N,/(lib_symbols/UART1_RX*%
X145400000Y-90975000D03*
%TO.P,U5,44,PA11*%
%TO.N,/(lib_symbols/USB_+DATA*%
X144900000Y-90975000D03*
%TO.P,U5,45,PA12*%
%TO.N,/(lib_symbols/USB_-DATA*%
X144400000Y-90975000D03*
%TO.P,U5,46,PA13*%
%TO.N,/(lib_symbols/Microcontroller/LED0*%
X143900000Y-90975000D03*
%TO.P,U5,47,VCAP_2*%
%TO.N,Net-(U5-VCAP_2)*%
X143400000Y-90975000D03*
%TO.P,U5,48,VDD*%
%TO.N,+3V3*%
X142900000Y-90975000D03*
D30*
%TO.P,U5,49,PA14*%
%TO.N,/(lib_symbols/Microcontroller/LED1*%
X140975000Y-92900000D03*
%TO.P,U5,50,PA15*%
%TO.N,unconnected-(U5-PA15-Pad50)*%
X140975000Y-93400000D03*
%TO.P,U5,51,PC10*%
%TO.N,unconnected-(U5-PC10-Pad51)*%
X140975000Y-93900000D03*
%TO.P,U5,52,PC11*%
%TO.N,unconnected-(U5-PC11-Pad52)*%
X140975000Y-94400000D03*
%TO.P,U5,53,PC12*%
%TO.N,/(lib_symbols/UART5_TX*%
X140975000Y-94900000D03*
%TO.P,U5,54,PD2*%
%TO.N,/(lib_symbols/UART5_RX*%
X140975000Y-95400000D03*
%TO.P,U5,55,PB3*%
%TO.N,unconnected-(U5-PB3-Pad55)*%
X140975000Y-95900000D03*
%TO.P,U5,56,PB4*%
%TO.N,unconnected-(U5-PB4-Pad56)*%
X140975000Y-96400000D03*
%TO.P,U5,57,PB5*%
%TO.N,unconnected-(U5-PB5-Pad57)*%
X140975000Y-96900000D03*
%TO.P,U5,58,PB6*%
%TO.N,unconnected-(U5-PB6-Pad58)*%
X140975000Y-97400000D03*
%TO.P,U5,59,PB7*%
%TO.N,unconnected-(U5-PB7-Pad59)*%
X140975000Y-97900000D03*
%TO.P,U5,60,BOOT0*%
%TO.N,/(lib_symbols/Microcontroller/DFU_Enable*%
X140975000Y-98400000D03*
%TO.P,U5,61,PB8*%
%TO.N,/(lib_symbols/I2C1_SCL*%
X140975000Y-98900000D03*
%TO.P,U5,62,PB9*%
%TO.N,/(lib_symbols/I2C1_SDA*%
X140975000Y-99400000D03*
%TO.P,U5,63,VSS*%
%TO.N,DGND*%
X140975000Y-99900000D03*
%TO.P,U5,64,VDD*%
%TO.N,+3V3*%
X140975000Y-100400000D03*
%TD*%
D31*
%TO.P,PS1,4,VOUT*%
%TO.N,+9V*%
X152900000Y-84600000D03*
X152900000Y-85387000D03*
X152900000Y-86175000D03*
X153550000Y-84600000D03*
X153550000Y-85387000D03*
X153550000Y-86175000D03*
%TO.P,PS1,5,SW*%
%TO.N,unconnected-(PS1-SW-Pad5)_6*%
X154850000Y-84600000D03*
%TO.N,unconnected-(PS1-SW-Pad5)_1*%
X154850000Y-85387000D03*
%TO.N,unconnected-(PS1-SW-Pad5)*%
X154850000Y-86175000D03*
%TO.N,unconnected-(PS1-SW-Pad5)_4*%
X155500000Y-84600000D03*
%TO.N,unconnected-(PS1-SW-Pad5)_5*%
X155500000Y-85387000D03*
%TO.N,unconnected-(PS1-SW-Pad5)_3*%
X155500000Y-86175000D03*
%TD*%
D32*
%TO.P,Y1,1,1*%
%TO.N,/(lib_symbols/Microcontroller/CLK_OUT*%
X144425000Y-104600000D03*
%TO.P,Y1,2,2*%
%TO.N,+3V3*%
X139545000Y-104600000D03*
%TD*%
D33*
%TO.N,Net-(D1-K)*%
X139250000Y-78650000D03*
X139250000Y-79550000D03*
X139250000Y-77750000D03*
%TO.N,PGND*%
X140200000Y-85900000D03*
X143200000Y-85900000D03*
X130100000Y-78200000D03*
X142200000Y-85900000D03*
X132100000Y-78900000D03*
X131987500Y-88612500D03*
X132100000Y-78200000D03*
X131100000Y-78200000D03*
X132100000Y-79800000D03*
X141200000Y-85900000D03*
X133200000Y-82400000D03*
%TO.N,DGND*%
X155668750Y-93668750D03*
X162050000Y-83950000D03*
X159000000Y-94100000D03*
X138200000Y-99475000D03*
X151400000Y-104900000D03*
X164625000Y-86150000D03*
X143675000Y-106400000D03*
X148700000Y-82100000D03*
X138900000Y-102800000D03*
X152950000Y-72250000D03*
X161000000Y-93875000D03*
X156100000Y-99562500D03*
X163150000Y-79250000D03*
X130500000Y-82450000D03*
X139549000Y-88400000D03*
%TO.N,+3V3*%
X142600000Y-82400000D03*
X147600000Y-82200000D03*
X140100000Y-89025000D03*
X162900000Y-95600000D03*
X159200000Y-83000000D03*
X155400000Y-98737500D03*
X152287575Y-90900566D03*
X139300000Y-87336412D03*
X151400000Y-105800000D03*
X130500000Y-80850000D03*
X151550000Y-75050000D03*
%TO.N,AGND*%
X147812500Y-107000000D03*
%TO.N,+VBAT*%
X157500000Y-92000000D03*
X155600000Y-92800000D03*
X131500000Y-94400000D03*
X157600000Y-91300000D03*
X132700000Y-92300000D03*
X137900000Y-94200000D03*
X135600000Y-90800000D03*
X133100000Y-93250000D03*
X156600000Y-92800000D03*
X132300000Y-94400000D03*
X157600000Y-90600000D03*
%TO.N,+9V*%
X139250000Y-83550000D03*
X142200000Y-85000000D03*
X152250000Y-83525000D03*
X140300000Y-85000000D03*
X135500000Y-79800000D03*
X143200000Y-85000000D03*
X133300000Y-79800000D03*
X139250000Y-84350000D03*
X139250000Y-85250000D03*
X134400000Y-79800000D03*
X148050000Y-88625000D03*
X141200000Y-85000000D03*
%TO.N,/(lib_symbols/SBUS_TX*%
X130500000Y-85950000D03*
%TO.N,/(lib_symbols/UART4_RX*%
X149900000Y-101000000D03*
%TO.N,/(lib_symbols/UART4_TX*%
X148900000Y-101000000D03*
X137400000Y-87100000D03*
X137400000Y-89100000D03*
%TO.N,/(lib_symbols/UART5_RX*%
X155633550Y-94833550D03*
X142300000Y-95900000D03*
X162050000Y-85950000D03*
X145100000Y-96800000D03*
%TO.N,/(lib_symbols/UART5_TX*%
X142300000Y-94400000D03*
X162050000Y-84950000D03*
X145500000Y-94000000D03*
%TO.N,/(lib_symbols/I2C1_SDA*%
X142600000Y-99475000D03*
X165350000Y-80950000D03*
X154000000Y-96325000D03*
%TO.N,/(lib_symbols/I2C1_SCL*%
X145600000Y-97600000D03*
X139700000Y-98500000D03*
X164100000Y-83000000D03*
X155600000Y-95700000D03*
%TO.N,/(lib_symbols/UART1_RX*%
X135900000Y-99300000D03*
X145400000Y-92400000D03*
%TO.N,/(lib_symbols/ANA_ADC_CURR*%
X133300000Y-98250000D03*
X147400000Y-101000000D03*
%TO.N,/(lib_symbols/ESC_SIG_M4*%
X133300000Y-95500000D03*
X147400000Y-89600000D03*
%TO.N,/(lib_symbols/ESC_SIG_M1*%
X146400000Y-89600000D03*
X133200000Y-94250000D03*
%TO.N,/(lib_symbols/ESC_SIG_M2*%
X146900000Y-92400000D03*
X135800000Y-95250000D03*
%TO.N,/(lib_symbols/ESC_SIG_M3*%
X148900000Y-92400000D03*
X133200000Y-97250000D03*
%TO.N,/(lib_symbols/USB_+DATA*%
X144205000Y-81200000D03*
X145355000Y-81200000D03*
%TO.N,/(lib_symbols/USB_CC1*%
X146013288Y-77586712D03*
%TO.N,/(lib_symbols/USB_CC2*%
X143750000Y-77550000D03*
%TO.N,/(lib_symbols/UART2_RX*%
X152700000Y-101200000D03*
X138300000Y-87600000D03*
X150256587Y-99343413D03*
%TO.N,Net-(PS1-MODE)*%
X155550000Y-89200000D03*
X152000000Y-91837500D03*
%TO.N,/(lib_symbols/ANA_ADC_VBAT*%
X145900000Y-101000000D03*
%TO.N,/(lib_symbols/Microcontroller/DFU_Enable*%
X155050000Y-75050000D03*
X158550000Y-75050000D03*
X142600000Y-98325000D03*
X149191912Y-93491912D03*
%TO.N,/(lib_symbols/SPI1_SDO*%
X156800000Y-97475000D03*
X162400000Y-100200000D03*
%TO.N,/(lib_symbols/SPI1_SDI*%
X161027500Y-94800000D03*
X155400000Y-97975000D03*
%TO.N,/(lib_symbols/Microcontroller/LED1*%
X139600000Y-92900000D03*
%TO.N,/(lib_symbols/Microcontroller/LED0*%
X143900000Y-92399000D03*
%TD*%
D34*
%TO.N,Net-(D1-K)*%
X139250000Y-79550000D02*
X138450000Y-80350000D01*
X138450000Y-80350000D02*
X137650000Y-80350000D01*
X139250000Y-78650000D02*
X139250000Y-79550000D01*
X139250000Y-77750000D02*
X138550000Y-77050000D01*
X139250000Y-77750000D02*
X139250000Y-78650000D01*
X138550000Y-77050000D02*
X137650000Y-77050000D01*
%TO.N,PGND*%
X148785000Y-78705000D02*
X149350000Y-78140000D01*
X132100000Y-79800000D02*
X130775000Y-79800000D01*
X130775000Y-79800000D02*
X130625000Y-79650000D01*
X132100000Y-78200000D02*
X132100000Y-79800000D01*
D35*
X134800000Y-81950000D02*
X133225000Y-81950000D01*
D34*
X132100000Y-80525000D02*
X132100000Y-79800000D01*
X134550000Y-92250000D02*
X134550000Y-91175000D01*
X129800000Y-80475000D02*
X130625000Y-79650000D01*
X132100000Y-78900000D02*
X131375000Y-78900000D01*
X134550000Y-91175000D02*
X131987500Y-88612500D01*
X133525000Y-81950000D02*
X132100000Y-80525000D01*
X130100000Y-78200000D02*
X132100000Y-78200000D01*
X131987500Y-88612500D02*
X130625000Y-87250000D01*
X130100000Y-78200000D02*
X130100000Y-79125000D01*
X130625000Y-87250000D02*
X129800000Y-86425000D01*
X131375000Y-78900000D02*
X130625000Y-79650000D01*
X132100000Y-78200000D02*
X130650000Y-79650000D01*
X141275000Y-78705000D02*
X140710000Y-78140000D01*
X133650000Y-81950000D02*
X134500000Y-81950000D01*
X133200000Y-82400000D02*
X133650000Y-81950000D01*
X134500000Y-81950000D02*
X133525000Y-81950000D01*
X129800000Y-86425000D02*
X129800000Y-80475000D01*
X131100000Y-79175000D02*
X130625000Y-79650000D01*
X141830000Y-78705000D02*
X141275000Y-78705000D01*
X130885412Y-79650000D02*
X130925000Y-79650000D01*
X131100000Y-78200000D02*
X131100000Y-79175000D01*
X148230000Y-78705000D02*
X148785000Y-78705000D01*
X130650000Y-79650000D02*
X130625000Y-79650000D01*
D35*
X133225000Y-81950000D02*
X130925000Y-79650000D01*
D34*
X130100000Y-79125000D02*
X130625000Y-79650000D01*
%TO.N,DGND*%
X160177500Y-93875000D02*
X161000000Y-93875000D01*
X163150000Y-79250000D02*
X164225000Y-79250000D01*
X153912500Y-94900000D02*
X154175000Y-95162500D01*
X159282500Y-99650000D02*
X157965000Y-99650000D01*
X139500000Y-88449000D02*
X139500000Y-90187500D01*
X154951000Y-94386500D02*
X154951000Y-91701000D01*
X154175000Y-95162500D02*
X154951000Y-94386500D01*
X131100000Y-84950000D02*
X130500000Y-84350000D01*
X159227500Y-96150000D02*
X159227500Y-94487500D01*
X139812500Y-102800000D02*
X139675000Y-102800000D01*
X161000000Y-93875000D02*
X161877500Y-93875000D01*
X155700000Y-93637500D02*
X155700000Y-93600000D01*
X154437500Y-100462500D02*
X155337500Y-99562500D01*
X134800000Y-84950000D02*
X131100000Y-84950000D01*
X143675000Y-106400000D02*
X145737500Y-106400000D01*
X153612500Y-99900000D02*
X154175000Y-100462500D01*
X141612500Y-88900000D02*
X141412500Y-88900000D01*
X159627500Y-96550000D02*
X159227500Y-96150000D01*
X159952500Y-94100000D02*
X160177500Y-93875000D01*
X157965000Y-99650000D02*
X157877500Y-99562500D01*
X159282500Y-99650000D02*
X159827500Y-99650000D01*
X130500000Y-84350000D02*
X130500000Y-82450000D01*
X152325000Y-99900000D02*
X153612500Y-99900000D01*
X140975000Y-99900000D02*
X139500000Y-99900000D01*
X152325000Y-94900000D02*
X153912500Y-94900000D01*
X156100000Y-99562500D02*
X157877500Y-99562500D01*
X164625000Y-86150000D02*
X164625000Y-87250000D01*
X145737500Y-106400000D02*
X146175000Y-105962500D01*
X160227500Y-96650000D02*
X160127500Y-96550000D01*
X159827500Y-99650000D02*
X160827500Y-98650000D01*
X159840000Y-93875000D02*
X160177500Y-93875000D01*
X141275000Y-106162500D02*
X141512500Y-106400000D01*
X164225000Y-79250000D02*
X164625000Y-79650000D01*
X154175000Y-100462500D02*
X154437500Y-100462500D01*
X139549000Y-88400000D02*
X141112500Y-88400000D01*
X155668750Y-93668750D02*
X155700000Y-93637500D01*
X154175000Y-95162500D02*
X155668750Y-93668750D01*
X139812500Y-102800000D02*
X138900000Y-102800000D01*
X159000000Y-94100000D02*
X159952500Y-94100000D01*
X141512500Y-106400000D02*
X143675000Y-106400000D01*
X160227500Y-97105000D02*
X160227500Y-96650000D01*
X154951000Y-91701000D02*
X154850000Y-91600000D01*
X141112500Y-88400000D02*
X141612500Y-88900000D01*
X139549000Y-88400000D02*
X139500000Y-88449000D01*
X160227500Y-98050000D02*
X160227500Y-97105000D01*
X159227500Y-94487500D02*
X159840000Y-93875000D01*
X155337500Y-99562500D02*
X156100000Y-99562500D01*
X160127500Y-96550000D02*
X159627500Y-96550000D01*
X139500000Y-99900000D02*
X139075000Y-99475000D01*
X160827500Y-98650000D02*
X160227500Y-98050000D01*
X139500000Y-90187500D02*
X139812500Y-90500000D01*
X139075000Y-99475000D02*
X138200000Y-99475000D01*
X160750000Y-83950000D02*
X162050000Y-83950000D01*
%TO.N,/(lib_symbols/Microcontroller/CLK_OUT*%
X144425000Y-104600000D02*
X144900000Y-104125000D01*
X144787500Y-104237500D02*
X144425000Y-104600000D01*
X146175000Y-104237500D02*
X144787500Y-104237500D01*
X144900000Y-104125000D02*
X144900000Y-102325000D01*
%TO.N,+3V3*%
X138324000Y-103379000D02*
X139545000Y-104600000D01*
X142012500Y-90975000D02*
X141537500Y-90500000D01*
X142900000Y-90975000D02*
X142012500Y-90975000D01*
X141537500Y-102800000D02*
X141537500Y-100962500D01*
X141537500Y-104175000D02*
X141275000Y-104437500D01*
X155400000Y-98737500D02*
X156977500Y-98737500D01*
X141537500Y-100962500D02*
X140975000Y-100400000D01*
X149537500Y-105800000D02*
X151400000Y-105800000D01*
X141537500Y-102800000D02*
X141537500Y-104175000D01*
X143900000Y-86900000D02*
X143900000Y-83300000D01*
X143900000Y-83300000D02*
X143000000Y-82400000D01*
X161877500Y-95600000D02*
X162900000Y-95600000D01*
X138324000Y-101951000D02*
X138324000Y-103379000D01*
X148900000Y-103562500D02*
X149537500Y-104200000D01*
X141537500Y-90437500D02*
X141537500Y-90500000D01*
X154175000Y-98737500D02*
X155400000Y-98737500D01*
X152987009Y-91600000D02*
X153125000Y-91600000D01*
X139300000Y-87336412D02*
X139336412Y-87300000D01*
X161427500Y-97105000D02*
X161427500Y-95950000D01*
X153512500Y-99400000D02*
X154175000Y-98737500D01*
X143500000Y-87300000D02*
X143900000Y-86900000D01*
X153125000Y-91600000D02*
X153125000Y-92100000D01*
X159250000Y-82950000D02*
X159200000Y-83000000D01*
X143000000Y-82400000D02*
X142600000Y-82400000D01*
X140200000Y-89100000D02*
X141537500Y-90437500D01*
X139075000Y-101200000D02*
X138324000Y-101951000D01*
X152950000Y-75050000D02*
X151550000Y-75050000D01*
X139336412Y-87300000D02*
X143500000Y-87300000D01*
X160750000Y-82950000D02*
X159250000Y-82950000D01*
X156977500Y-98737500D02*
X157877500Y-97837500D01*
X148900000Y-102325000D02*
X148900000Y-103562500D01*
X140975000Y-100400000D02*
X139875000Y-100400000D01*
X140175000Y-89100000D02*
X140200000Y-89100000D01*
X141275000Y-104437500D02*
X139707500Y-104437500D01*
X159282500Y-97650000D02*
X158065000Y-97650000D01*
X158065000Y-97650000D02*
X157877500Y-97837500D01*
X152325000Y-99400000D02*
X153512500Y-99400000D01*
X152287575Y-90900566D02*
X152987009Y-91600000D01*
X149537500Y-104200000D02*
X149537500Y-105800000D01*
X153125000Y-92100000D02*
X152325000Y-92900000D01*
X139707500Y-104437500D02*
X139545000Y-104600000D01*
X161427500Y-95950000D02*
X161777500Y-95600000D01*
X140100000Y-89025000D02*
X140175000Y-89100000D01*
X139875000Y-100400000D02*
X139075000Y-101200000D01*
%TO.N,AGND*%
X147812500Y-104200000D02*
X147812500Y-105800000D01*
X148400000Y-102325000D02*
X148400000Y-103612500D01*
X147775000Y-107100000D02*
X147812500Y-107062500D01*
X148400000Y-103612500D02*
X147812500Y-104200000D01*
X147812500Y-105800000D02*
X147812500Y-107000000D01*
X147812500Y-107000000D02*
X147812500Y-107062500D01*
%TO.N,Net-(U5-VCAP_2)*%
X143400000Y-88962500D02*
X143337500Y-88900000D01*
X143400000Y-90975000D02*
X143400000Y-88962500D01*
%TO.N,Net-(U5-VCAP_1)*%
X152325000Y-93400000D02*
X154137500Y-93400000D01*
X154137500Y-93400000D02*
X154175000Y-93437500D01*
%TO.N,+VBAT*%
X132300000Y-94400000D02*
X132300000Y-94050000D01*
X135626000Y-92851000D02*
X135626000Y-90826000D01*
X131500000Y-94400000D02*
X132300000Y-94400000D01*
X135227000Y-93250000D02*
X135626000Y-92851000D01*
X132300000Y-94050000D02*
X133100000Y-93250000D01*
X134550000Y-93250000D02*
X135227000Y-93250000D01*
X132700000Y-92850000D02*
X133100000Y-93250000D01*
X136950000Y-93250000D02*
X137900000Y-94200000D01*
X135626000Y-90826000D02*
X135600000Y-90800000D01*
X132700000Y-92300000D02*
X132700000Y-92850000D01*
X134550000Y-93250000D02*
X136950000Y-93250000D01*
X134550000Y-93250000D02*
X133100000Y-93250000D01*
%TO.N,/(lib_symbols/V_USB*%
X142900000Y-77841665D02*
X142900000Y-73500000D01*
X147231000Y-77831000D02*
X141950000Y-72550000D01*
X138150000Y-72550000D02*
X140500000Y-72550000D01*
X147430000Y-78705000D02*
X147231000Y-78506000D01*
X140700000Y-72550000D02*
X140500000Y-72550000D01*
X141950000Y-72550000D02*
X140700000Y-72550000D01*
X142630000Y-78705000D02*
X142630000Y-78111665D01*
X142900000Y-73500000D02*
X141950000Y-72550000D01*
X147231000Y-78506000D02*
X147231000Y-77831000D01*
X137650000Y-73050000D02*
X138150000Y-72550000D01*
X142630000Y-78111665D02*
X142900000Y-77841665D01*
%TO.N,Net-(U1-REGOUT)*%
X160627500Y-96050000D02*
X160177500Y-95600000D01*
X160627500Y-97105000D02*
X160627500Y-96050000D01*
%TO.N,+9V*%
X135500000Y-79800000D02*
X133300000Y-79800000D01*
D36*
X135750000Y-80950000D02*
X134500000Y-80950000D01*
X136100000Y-82300000D02*
X136100000Y-81300000D01*
D34*
X137650000Y-84350000D02*
X137650000Y-83850000D01*
X138450000Y-83550000D02*
X137650000Y-84350000D01*
X134400000Y-79800000D02*
X134400000Y-80850000D01*
X135500000Y-79950000D02*
X134500000Y-80950000D01*
X134400000Y-80850000D02*
X134500000Y-80950000D01*
X135500000Y-79800000D02*
X135500000Y-79950000D01*
X138550000Y-85250000D02*
X137650000Y-84350000D01*
X139250000Y-85250000D02*
X138550000Y-85250000D01*
X139250000Y-84350000D02*
X139250000Y-83550000D01*
D36*
X137650000Y-83850000D02*
X136100000Y-82300000D01*
D34*
X139250000Y-83550000D02*
X138450000Y-83550000D01*
X133300000Y-79800000D02*
X133350000Y-79800000D01*
D36*
X136100000Y-81300000D02*
X135750000Y-80950000D01*
D34*
X133350000Y-79800000D02*
X134500000Y-80950000D01*
X137650000Y-84350000D02*
X139250000Y-84350000D01*
X139250000Y-84350000D02*
X139250000Y-85250000D01*
%TO.N,/(lib_symbols/SBUS_TX*%
X134800000Y-85950000D02*
X130500000Y-85950000D01*
%TO.N,/(lib_symbols/UART4_RX*%
X139362766Y-91923000D02*
X138500000Y-91060234D01*
X141873924Y-91923000D02*
X139362766Y-91923000D01*
X135150000Y-83950000D02*
X134500000Y-83950000D01*
X135800000Y-84600000D02*
X135150000Y-83950000D01*
X138500000Y-91060234D02*
X138500000Y-89200000D01*
X149001000Y-98901000D02*
X148851924Y-98901000D01*
X149900000Y-101000000D02*
X149900000Y-99800000D01*
X148851924Y-98901000D02*
X141873924Y-91923000D01*
X149900000Y-101000000D02*
X149900000Y-102325000D01*
X149900000Y-99800000D02*
X149001000Y-98901000D01*
X138500000Y-89200000D02*
X135800000Y-86500000D01*
X135800000Y-86500000D02*
X135800000Y-84600000D01*
%TO.N,/(lib_symbols/UART4_TX*%
X141942724Y-92558900D02*
X141707824Y-92324000D01*
X148802000Y-99302000D02*
X148685824Y-99302000D01*
X136300000Y-86000000D02*
X136300000Y-84100000D01*
X139700000Y-92324000D02*
X139196666Y-92324000D01*
X149400000Y-101500000D02*
X148900000Y-101000000D01*
X148900000Y-99400000D02*
X148802000Y-99302000D01*
X139861066Y-92324000D02*
X139700000Y-92324000D01*
X149400000Y-102325000D02*
X149400000Y-101500000D01*
X141689800Y-92324000D02*
X141375624Y-92324000D01*
X141375624Y-92324000D02*
X139861066Y-92324000D01*
X148685824Y-99302000D02*
X148450924Y-99067100D01*
X139700000Y-92324000D02*
X139528866Y-92324000D01*
X148900000Y-101000000D02*
X148900000Y-99400000D01*
X136300000Y-84100000D02*
X135150000Y-82950000D01*
X137400000Y-90527334D02*
X137400000Y-89100000D01*
X139528866Y-92324000D02*
X139196666Y-92324000D01*
X135150000Y-82950000D02*
X134500000Y-82950000D01*
X148450924Y-99067100D02*
X148216024Y-98832200D01*
X137400000Y-87100000D02*
X136300000Y-86000000D01*
X139196666Y-92324000D02*
X137400000Y-90527334D01*
X141707824Y-92324000D02*
X141689800Y-92324000D01*
X148216024Y-98832200D02*
X141942724Y-92558900D01*
%TO.N,/(lib_symbols/UART5_RX*%
X144200000Y-95900000D02*
X142300000Y-95900000D01*
X155633550Y-94833550D02*
X160750000Y-89717100D01*
X160750000Y-89717100D02*
X160750000Y-85950000D01*
X160750000Y-85950000D02*
X162050000Y-85950000D01*
X141800000Y-95400000D02*
X142300000Y-95900000D01*
X145100000Y-96800000D02*
X144200000Y-95900000D01*
X140975000Y-95400000D02*
X141800000Y-95400000D01*
%TO.N,/(lib_symbols/UART5_TX*%
X151400000Y-91850924D02*
X151401000Y-91849924D01*
X141800000Y-94900000D02*
X142300000Y-94400000D01*
X160750000Y-84950000D02*
X162050000Y-84950000D01*
X159775000Y-84950000D02*
X160750000Y-84950000D01*
X140975000Y-94900000D02*
X141800000Y-94900000D01*
X159400000Y-87800000D02*
X159400000Y-85325000D01*
X151400000Y-92098412D02*
X151400000Y-91850924D01*
X157000000Y-90200000D02*
X159400000Y-87800000D01*
X159400000Y-85325000D02*
X159775000Y-84950000D01*
X145567912Y-94067912D02*
X149430500Y-94067912D01*
X151401000Y-90866100D02*
X152067100Y-90200000D01*
X152067100Y-90200000D02*
X157000000Y-90200000D01*
X145500000Y-94000000D02*
X145567912Y-94067912D01*
X149430500Y-94067912D02*
X151400000Y-92098412D01*
X151401000Y-91849924D02*
X151401000Y-90866100D01*
%TO.N,/(lib_symbols/I2C1_SDA*%
X142600000Y-99475000D02*
X142050000Y-99475000D01*
X162900000Y-87000000D02*
X162900000Y-89200000D01*
X162900000Y-89200000D02*
X157750000Y-94350000D01*
X154025000Y-96300000D02*
X154000000Y-96325000D01*
X165350000Y-80950000D02*
X165350000Y-84550000D01*
X157750000Y-94350000D02*
X157750000Y-94364588D01*
X160750000Y-80950000D02*
X165350000Y-80950000D01*
X141975000Y-99400000D02*
X140975000Y-99400000D01*
X155814588Y-96300000D02*
X154025000Y-96300000D01*
X165350000Y-84550000D02*
X162900000Y-87000000D01*
X142050000Y-99475000D02*
X141975000Y-99400000D01*
X157750000Y-94364588D02*
X155814588Y-96300000D01*
%TO.N,/(lib_symbols/I2C1_SCL*%
X144300000Y-98900000D02*
X140975000Y-98900000D01*
X161900000Y-89400000D02*
X161900000Y-87432900D01*
X140975000Y-98900000D02*
X140100000Y-98900000D01*
X161900000Y-87432900D02*
X164100000Y-85232900D01*
X145600000Y-97600000D02*
X144300000Y-98900000D01*
X140100000Y-98900000D02*
X139700000Y-98500000D01*
X164100000Y-85232900D02*
X164100000Y-83000000D01*
X163050000Y-81950000D02*
X164100000Y-83000000D01*
X160750000Y-81950000D02*
X163050000Y-81950000D01*
X155600000Y-95700000D02*
X161900000Y-89400000D01*
%TO.N,/(lib_symbols/UART1_RX*%
X135900000Y-99300000D02*
X135800000Y-99300000D01*
X145400000Y-90975000D02*
X145400000Y-92400000D01*
X135750000Y-99250000D02*
X134550000Y-99250000D01*
X135800000Y-99300000D02*
X135750000Y-99250000D01*
%TO.N,/(lib_symbols/ANA_ADC_CURR*%
X146900000Y-102325000D02*
X146900000Y-101500000D01*
X146900000Y-101500000D02*
X147400000Y-101000000D01*
X134550000Y-98250000D02*
X133300000Y-98250000D01*
%TO.N,/(lib_symbols/ESC_SIG_M4*%
X147400000Y-90975000D02*
X147400000Y-89600000D01*
X134550000Y-96250000D02*
X134050000Y-96250000D01*
X134050000Y-96250000D02*
X133300000Y-95500000D01*
%TO.N,/(lib_symbols/ESC_SIG_M1*%
X134550000Y-94250000D02*
X133200000Y-94250000D01*
X146400000Y-90975000D02*
X146400000Y-89600000D01*
%TO.N,/(lib_symbols/ESC_SIG_M2*%
X146900000Y-90975000D02*
X146900000Y-92400000D01*
X134550000Y-95250000D02*
X135800000Y-95250000D01*
%TO.N,/(lib_symbols/ESC_SIG_M3*%
X133200000Y-97250000D02*
X133050000Y-97250000D01*
X148900000Y-90975000D02*
X148900000Y-92400000D01*
X134550000Y-97250000D02*
X133200000Y-97250000D01*
%TO.N,/(lib_symbols/USB_-DATA*%
X144780000Y-78705000D02*
X144780000Y-82152900D01*
X144780000Y-79532000D02*
X144780000Y-78705000D01*
X144780000Y-82152900D02*
X144400000Y-82532900D01*
X145641500Y-79581000D02*
X145780000Y-79442500D01*
X144400000Y-82532900D02*
X144400000Y-90975000D01*
X144829000Y-79581000D02*
X145641500Y-79581000D01*
X145780000Y-79442500D02*
X145780000Y-78705000D01*
X144780000Y-79532000D02*
X144829000Y-79581000D01*
%TO.N,/(lib_symbols/USB_+DATA*%
X144900000Y-82600000D02*
X144900000Y-90975000D01*
X145355000Y-82145000D02*
X144900000Y-82600000D01*
X145329000Y-78656000D02*
X145280000Y-78705000D01*
X144329000Y-77829000D02*
X145306500Y-77829000D01*
X144280000Y-78705000D02*
X144280000Y-81125000D01*
X145329000Y-77851500D02*
X145329000Y-78656000D01*
X144280000Y-81125000D02*
X144205000Y-81200000D01*
X145355000Y-81200000D02*
X145355000Y-82145000D01*
X145355000Y-81200000D02*
X145496957Y-81200000D01*
X144280000Y-78705000D02*
X144280000Y-77878000D01*
X144280000Y-77878000D02*
X144329000Y-77829000D01*
X145306500Y-77829000D02*
X145329000Y-77851500D01*
%TO.N,/(lib_symbols/USB_CC1*%
X146013288Y-77613288D02*
X146280000Y-77880000D01*
X146280000Y-78705000D02*
X146280000Y-77880000D01*
X146013288Y-77586712D02*
X146013288Y-77613288D01*
%TO.N,/(lib_symbols/USB_CC2*%
X143750000Y-77550000D02*
X143280000Y-78020000D01*
X143280000Y-78020000D02*
X143280000Y-78705000D01*
%TO.N,/(lib_symbols/UART2_RX*%
X149413174Y-98500000D02*
X150256587Y-99343413D01*
X149018024Y-98500000D02*
X149413174Y-98500000D01*
X152700000Y-100775000D02*
X152325000Y-100400000D01*
X152700000Y-101200000D02*
X152700000Y-100775000D01*
X142040024Y-91522000D02*
X149018024Y-98500000D01*
X138300000Y-87600000D02*
X138974000Y-88274000D01*
X138974000Y-90967134D02*
X139528866Y-91522000D01*
X138974000Y-88274000D02*
X138974000Y-90967134D01*
X139528866Y-91522000D02*
X142040024Y-91522000D01*
%TO.N,/(lib_symbols/ANA_ADC_VBAT*%
X146400000Y-102325000D02*
X146400000Y-101500000D01*
X146400000Y-101500000D02*
X145900000Y-101000000D01*
%TO.N,/(lib_symbols/Microcontroller/DFU_Enable*%
X142525000Y-98400000D02*
X140975000Y-98400000D01*
X157400000Y-88400000D02*
X158000000Y-87800000D01*
X157150000Y-75050000D02*
X158550000Y-75050000D01*
X158000000Y-75900000D02*
X157150000Y-75050000D01*
X151000000Y-90700000D02*
X153300000Y-88400000D01*
X158000000Y-87800000D02*
X158000000Y-75900000D01*
X151000000Y-91683824D02*
X151000000Y-90700000D01*
X142600000Y-98325000D02*
X142525000Y-98400000D01*
X153300000Y-88400000D02*
X157400000Y-88400000D01*
X149191912Y-93491912D02*
X151000000Y-91683824D01*
X157150000Y-75050000D02*
X155050000Y-75050000D01*
%TO.N,/(lib_symbols/DIG_IMU_CS*%
X151516176Y-98900000D02*
X151249000Y-99167176D01*
X151249000Y-100749000D02*
X152300000Y-101800000D01*
X152325000Y-98900000D02*
X151516176Y-98900000D01*
X152300000Y-101800000D02*
X160055000Y-101800000D01*
X160055000Y-101800000D02*
X161027500Y-100827500D01*
X161027500Y-100827500D02*
X161027500Y-100195000D01*
X151249000Y-99167176D02*
X151249000Y-100749000D01*
%TO.N,/(lib_symbols/SPI1_SDO*%
X162400000Y-100200000D02*
X162395000Y-100195000D01*
X162395000Y-100195000D02*
X161827500Y-100195000D01*
X156800000Y-97475000D02*
X156800000Y-97600000D01*
X152325000Y-97400000D02*
X156725000Y-97400000D01*
X156725000Y-97400000D02*
X156800000Y-97475000D01*
%TO.N,/(lib_symbols/SPI1_SCK*%
X150848000Y-99001076D02*
X150848000Y-100948000D01*
X151449076Y-98400000D02*
X150848000Y-99001076D01*
X161427500Y-100994600D02*
X161427500Y-100195000D01*
X160222100Y-102200000D02*
X161427500Y-100994600D01*
X150848000Y-100948000D02*
X152100000Y-102200000D01*
X152100000Y-102200000D02*
X160222100Y-102200000D01*
X152325000Y-98400000D02*
X151449076Y-98400000D01*
%TO.N,/(lib_symbols/SPI1_SDI*%
X161027500Y-94800000D02*
X161027500Y-97105000D01*
X155400000Y-97975000D02*
X155325000Y-97900000D01*
X155325000Y-97900000D02*
X152325000Y-97900000D01*
%TO.N,/(lib_symbols/DIG_IMU_EXTI*%
X159410400Y-96900000D02*
X159615400Y-97105000D01*
X152325000Y-96900000D02*
X159410400Y-96900000D01*
X159615400Y-97105000D02*
X159827500Y-97105000D01*
%TO.N,/(lib_symbols/Microcontroller/LED1*%
X140975000Y-92900000D02*
X139600000Y-92900000D01*
%TO.N,/(lib_symbols/Microcontroller/LED0*%
X143900000Y-92399000D02*
X143900000Y-90975000D01*
%TD*%
M02*
