M48
; DRILL file {KiCad 9.0.6+1} date 2025-11-26T21:42:03+0000
; FORMAT={-:-/ absolute / metric / decimal}
; #@! TF.CreationDate,2025-11-26T21:42:03+00:00
; #@! TF.GenerationSoftware,Kicad,Pcbnew,9.0.6+1
; #@! TF.FileFunction,Plated,1,4,PTH
FMAT,2
METRIC
; #@! TA.AperFunction,Plated,PTH,ComponentDrill
T1C0.200
; #@! TA.AperFunction,Plated,PTH,ViaDrill
T2C0.250
; #@! TA.AperFunction,Plated,PTH,ComponentDrill
T3C0.600
; #@! TA.AperFunction,Plated,PTH,ComponentDrill
T4C0.800
; #@! TA.AperFunction,Plated,PTH,ComponentDrill
T5C3.200
%
G90
G05
T1
X152.85Y-84.55
X152.85Y-85.337
X152.85Y-86.125
X153.5Y-84.55
X153.5Y-85.337
X153.5Y-86.125
X154.8Y-84.55
X154.8Y-85.337
X154.8Y-86.125
X155.45Y-84.55
X155.45Y-85.337
X155.45Y-86.125
T2
X130.5Y-80.85
X130.5Y-82.45
X130.5Y-85.95
X133.1Y-93.25
X133.2Y-94.25
X133.2Y-97.25
X133.3Y-95.5
X133.3Y-98.25
X135.8Y-95.25
X135.9Y-99.3
X137.4Y-87.1
X137.4Y-89.1
X138.2Y-99.475
X138.9Y-102.8
X139.0Y-87.2
X139.25Y-77.75
X139.25Y-78.65
X139.25Y-79.55
X139.25Y-83.55
X139.25Y-84.35
X139.25Y-85.25
X139.6Y-92.9
X139.7Y-98.5
X142.3Y-94.4
X142.3Y-95.9
X142.3Y-98.4
X142.3Y-99.4
X143.675Y-106.4
X143.75Y-77.55
X143.9Y-92.399
X144.205Y-81.2
X145.355Y-81.2
X145.4Y-92.4
X145.9Y-101.0
X146.013Y-77.587
X146.4Y-89.6
X146.9Y-92.4
X147.4Y-89.6
X147.4Y-101.0
X147.812Y-107.0
X148.05Y-88.625
X148.9Y-92.4
X148.9Y-101.0
X149.9Y-101.0
X150.0Y-98.5
X151.55Y-75.05
X151.85Y-91.837
X152.25Y-83.525
X152.7Y-101.2
X152.95Y-72.25
X155.05Y-75.05
X155.4Y-97.975
X155.4Y-98.737
X155.55Y-89.2
X156.1Y-99.562
X156.8Y-97.475
X158.55Y-75.05
X161.0Y-93.875
X161.028Y-94.8
X162.05Y-83.95
X162.05Y-84.95
X162.05Y-85.95
X162.4Y-100.2
X162.9Y-95.6
X163.15Y-79.25
X164.625Y-86.15
X165.35Y-80.95
X165.35Y-81.95
X165.35Y-82.95
T4
X139.545Y-104.6
X144.425Y-104.6
T5
X132.45Y-74.45
X132.45Y-104.95
X162.95Y-74.45
X162.95Y-104.95
T3
G00X140.71Y-74.36
M15
G01X140.71Y-73.56
M16
G05
G00X140.71Y-78.69
M15
G01X140.71Y-77.59
M16
G05
G00X149.35Y-74.36
M15
G01X149.35Y-73.56
M16
G05
G00X149.35Y-78.69
M15
G01X149.35Y-77.59
M16
G05
M30
