%TF.GenerationSoftware,KiCad,Pcbnew,9.0.6+1*%
%TF.CreationDate,Date%
%TF.ProjectId,FCU3,46435533-2e6b-4696-9361-645f70636258,+ (Unreleased)*%
%TF.SameCoordinates,Original*%
%TF.FileFunction,Copper,L2,Inr*%
%TF.FilePolarity,Positive*%
%FSLAX46Y46*%
G04 Gerber Fmt 4.6, Leading zero omitted, Abs format (unit mm)*
G04 Created by KiCad*
%MOMM*%
%LPD*%
G01*
G04 APERTURE LIST*
%TA.AperFunction,ComponentPad*%
%ADD10C,5.600000*%
%TD*%
%TA.AperFunction,ComponentPad*%
%ADD11C,0.300000*%
%TD*%
%TA.AperFunction,ComponentPad*%
%ADD12O,1.000000X2.100000*%
%TD*%
%TA.AperFunction,ComponentPad*%
%ADD13O,1.000000X1.800000*%
%TD*%
%TA.AperFunction,ViaPad*%
%ADD14C,0.550000*%
%TD*%
G04 APERTURE END LIST*
D10*
%TO.N,N/C*%
%TO.C,H2*%
X162400000Y-70045000D03*
%TD*%
D11*
%TO.N,+9V*%
%TO.C,PS1*%
X158925000Y-88387500D03*
X158137000Y-88387500D03*
X157350000Y-88387500D03*
X158925000Y-89037500D03*
X158137000Y-89037500D03*
X157350000Y-89037500D03*
%TO.N,unconnected-(PS1-SW-Pad5)_4*%
X158925000Y-90337500D03*
%TO.N,unconnected-(PS1-SW-Pad5)_1*%
X158137000Y-90337500D03*
%TO.N,unconnected-(PS1-SW-Pad5)_2*%
X157350000Y-90337500D03*
%TO.N,unconnected-(PS1-SW-Pad5)_6*%
X158925000Y-90987500D03*
%TO.N,unconnected-(PS1-SW-Pad5)*%
X158137000Y-90987500D03*
%TO.N,unconnected-(PS1-SW-Pad5)_3*%
X157350000Y-90987500D03*
%TD*%
D10*
%TO.N,N/C*%
%TO.C,H1*%
X132000000Y-70082500D03*
%TD*%
%TO.N,N/C*%
%TO.C,H4*%
X162400000Y-100545000D03*
%TD*%
%TO.N,N/C*%
%TO.C,H3*%
X131900000Y-100545000D03*
%TD*%
D12*
%TO.N,PGND*%
%TO.C,J3*%
X145500000Y-73625000D03*
X136860000Y-73625000D03*
D13*
X145500000Y-69445000D03*
X136860000Y-69445000D03*
%TD*%
D14*
%TO.N,PGND*%
X129900000Y-78750000D03*
X164750000Y-87150000D03*
X155115200Y-68115000D03*
X160637500Y-82837500D03*
X129850000Y-95250000D03*
X161562500Y-81912500D03*
X162300000Y-80250000D03*
X164550000Y-90600000D03*
X164750000Y-87950000D03*
X129800000Y-85900000D03*
X164250000Y-90050000D03*
X129850000Y-90100000D03*
%TO.N,DGND*%
X151600000Y-96800000D03*
X147850000Y-91800000D03*
X151250000Y-79550000D03*
X146105000Y-81500000D03*
X136550000Y-98695000D03*
X155115200Y-71240000D03*
X151690000Y-85700000D03*
X134650000Y-102950000D03*
X154550000Y-98105000D03*
X132350000Y-92195000D03*
X151525000Y-77525000D03*
X156200000Y-102845000D03*
X151690000Y-82950000D03*
X158500000Y-76500000D03*
X150187500Y-88307500D03*
X141375000Y-103145000D03*
X138125000Y-86695000D03*
X135100000Y-97000000D03*
X153300000Y-102845000D03*
X151250000Y-78750000D03*
X141375000Y-102395000D03*
%TO.N,+3V3*%
X152900000Y-84650000D03*
X135235000Y-92485000D03*
X135800000Y-99395000D03*
X150730000Y-86150000D03*
X151950000Y-86476000D03*
X148580000Y-81500000D03*
X135100000Y-95445000D03*
X145825000Y-102595000D03*
X153050000Y-82900000D03*
X151250000Y-100070000D03*
X151900000Y-72350000D03*
X137500000Y-88750000D03*
X152900000Y-83650000D03*
X152000000Y-95075000D03*
%TO.N,AGND*%
X144875000Y-102595000D03*
X144875000Y-103220000D03*
X137150000Y-79800000D03*
%TO.N,Net-(D2-A)*%
X147750000Y-100350000D03*
X152250000Y-93050000D03*
%TO.N,+VBAT*%
X132250000Y-79845000D03*
X130300000Y-81000000D03*
X131250000Y-81000000D03*
X163450000Y-93000000D03*
X132200000Y-81000000D03*
X161700000Y-93000000D03*
X164250000Y-92950000D03*
X130350000Y-79845000D03*
X131300000Y-79845000D03*
X162550000Y-93000000D03*
%TO.N,Net-(D4-A)*%
X149450000Y-100350000D03*
X152250000Y-92000000D03*
%TO.N,+9V*%
X161825000Y-85450000D03*
%TO.N,/Project Architecture/SBUS_TX*%
X154522500Y-94155000D03*
X158500000Y-75450000D03*
%TO.N,/Project Architecture/UART4_RX*%
X158500000Y-77500000D03*
X146650000Y-100745000D03*
%TO.N,/Project Architecture/UART4_TX*%
X158450000Y-78500000D03*
X146100000Y-98020000D03*
%TO.N,Net-(U3-NRST)*%
X143350000Y-95850000D03*
X143000000Y-92700000D03*
X147300000Y-89600000D03*
%TO.N,Net-(PS1-MODE)*%
X162250000Y-91025000D03*
X162650000Y-86025000D03*
%TO.N,/Project Architecture/Microcontroller/SWDIO*%
X139474000Y-80000000D03*
X140600000Y-88995000D03*
X136300000Y-90400000D03*
%TO.N,/Project Architecture/UART5_RX*%
X139250000Y-92000000D03*
X132500000Y-90195000D03*
%TO.N,/Project Architecture/I2C1_SDA*%
X138825000Y-96270000D03*
X135100000Y-93500000D03*
%TO.N,/Project Architecture/USB_-DATA*%
X142200000Y-75500000D03*
X140930000Y-75500000D03*
%TO.N,/Project Architecture/USB_CC1*%
X131250000Y-75595000D03*
X141545750Y-72739000D03*
%TO.N,/Project Architecture/USB_CC2*%
X131250000Y-74495000D03*
X140795750Y-72732500D03*
%TO.N,/Project Architecture/UART2_RX*%
X152600000Y-97115000D03*
X147650000Y-96800000D03*
%TO.N,/Project Architecture/ANA_ADC_VBAT*%
X136300000Y-91195000D03*
X143450000Y-97200000D03*
%TO.N,/Project Architecture/SPI1_SCK*%
X146750000Y-95300000D03*
X151987569Y-87487569D03*
X144980000Y-85125000D03*
%TO.N,/Project Architecture/SPI1_SDO*%
X145580000Y-85900000D03*
X146900000Y-93450000D03*
%TO.N,/Project Architecture/DIG_IMU_CS*%
X147250000Y-96100000D03*
X145055000Y-83950000D03*
%TO.N,/Project Architecture/SPI1_SDI*%
X151018413Y-87268413D03*
X149980000Y-84351000D03*
%TO.N,/Project Architecture/DIG_IMU_EXTI*%
X148980000Y-82550000D03*
X147800000Y-93300000D03*
%TO.N,/Project Architecture/ESC_SIG_M4*%
X144050000Y-89100000D03*
X132400000Y-82400000D03*
%TO.N,/Project Architecture/ESC_SIG_M3*%
X145600000Y-88995000D03*
X132287500Y-84037500D03*
%TO.N,/Project Architecture/UART1_RX*%
X141250000Y-90500000D03*
X132300000Y-85800000D03*
%TO.N,/Project Architecture/ESC_SIG_M2*%
X135100000Y-81900000D03*
X143600000Y-86745000D03*
%TO.N,/Project Architecture/Microcontroller/SWCLK*%
X140050000Y-80650000D03*
%TO.N,/Project Architecture/ANA_ADC_CURR*%
X132300000Y-84845000D03*
X144100000Y-98020000D03*
%TO.N,/Project Architecture/ESC_SIG_M1*%
X135200000Y-80850000D03*
X143100000Y-88970000D03*
%TD*%
%TA.AperFunction,Conductor*%
%TO.N,PGND*%
G36*
X160453969Y-67549669D02*
G01*
X160499724Y-67602473D01*
X160509668Y-67671631D01*
X160480643Y-67735187D01*
X160464243Y-67750931D01*
X160397477Y-67804174D01*
X160159174Y-68042477D01*
X159949053Y-68305962D01*
X159769752Y-68591316D01*
X159623532Y-68894945D01*
X159512227Y-69213034D01*
X159512223Y-69213046D01*
X159437233Y-69541602D01*
X159437231Y-69541618D01*
X159399500Y-69876491D01*
X159399500Y-70213508D01*
X159437231Y-70548381D01*
X159437233Y-70548397D01*
X159512223Y-70876953D01*
X159512227Y-70876965D01*
X159623532Y-71195054D01*
X159769752Y-71498683D01*
X159769754Y-71498686D01*
X159949054Y-71784039D01*
X160159175Y-72047523D01*
X160397477Y-72285825D01*
X160660961Y-72495946D01*
X160937806Y-72669900D01*
X160946316Y-72675247D01*
X161024186Y-72712747D01*
X161249949Y-72821469D01*
X161478144Y-72901318D01*
X161568034Y-72932772D01*
X161568046Y-72932776D01*
X161896606Y-73007767D01*
X162231492Y-73045499D01*
X162231493Y-73045500D01*
X162231496Y-73045500D01*
X162568507Y-73045500D01*
X162568507Y-73045499D01*
X162903394Y-73007767D01*
X163231954Y-72932776D01*
X163550051Y-72821469D01*
X163853686Y-72675246D01*
X164139039Y-72495946D01*
X164402523Y-72285825D01*
X164640825Y-72047523D01*
X164850946Y-71784039D01*
X165030246Y-71498686D01*
X165163780Y-71221400D01*
X165210602Y-71169541D01*
X165278029Y-71151228D01*
X165344653Y-71172276D01*
X165389322Y-71226002D01*
X165399500Y-71275202D01*
X165399500Y-91955984D01*
X165379815Y-92023023D01*
X165327011Y-92068778D01*
X165275500Y-92079984D01*
X159474000Y-92079984D01*
X159406961Y-92060299D01*
X159361206Y-92007495D01*
X159350000Y-91955984D01*
X159350000Y-90962399D01*
X161774500Y-90962399D01*
X161774500Y-91087601D01*
X161806905Y-91208536D01*
X161869505Y-91316964D01*
X161958036Y-91405495D01*
X162066464Y-91468095D01*
X162187399Y-91500500D01*
X162187401Y-91500500D01*
X162312599Y-91500500D01*
X162312601Y-91500500D01*
X162433536Y-91468095D01*
X162541964Y-91405495D01*
X162630495Y-91316964D01*
X162693095Y-91208536D01*
X162725500Y-91087601D01*
X162725500Y-90962399D01*
X162693095Y-90841464D01*
X162630495Y-90733036D01*
X162541964Y-90644505D01*
X162433536Y-90581905D01*
X162433537Y-90581905D01*
X162393224Y-90571103D01*
X162312601Y-90549500D01*
X162187399Y-90549500D01*
X162106775Y-90571103D01*
X162066463Y-90581905D01*
X161958037Y-90644504D01*
X161958034Y-90644506D01*
X161869506Y-90733034D01*
X161869504Y-90733037D01*
X161806905Y-90841463D01*
X161806905Y-90841464D01*
X161774500Y-90962399D01*
X159350000Y-90962399D01*
X159350000Y-85387399D01*
X161349500Y-85387399D01*
X161349500Y-85512601D01*
X161381905Y-85633536D01*
X161444505Y-85741964D01*
X161533036Y-85830495D01*
X161641464Y-85893095D01*
X161762399Y-85925500D01*
X161762401Y-85925500D01*
X161887599Y-85925500D01*
X161887601Y-85925500D01*
X162008536Y-85893095D01*
X162008537Y-85893093D01*
X162016386Y-85890991D01*
X162017153Y-85893854D01*
X162072502Y-85887897D01*
X162134985Y-85919164D01*
X162170644Y-85979248D01*
X162174500Y-86009929D01*
X162174500Y-86087601D01*
X162206905Y-86208536D01*
X162269505Y-86316964D01*
X162358036Y-86405495D01*
X162466464Y-86468095D01*
X162587399Y-86500500D01*
X162587401Y-86500500D01*
X162712599Y-86500500D01*
X162712601Y-86500500D01*
X162833536Y-86468095D01*
X162941964Y-86405495D01*
X163030495Y-86316964D01*
X163093095Y-86208536D01*
X163125500Y-86087601D01*
X163125500Y-85962399D01*
X163093095Y-85841464D01*
X163030495Y-85733036D01*
X162941964Y-85644505D01*
X162833536Y-85581905D01*
X162833537Y-85581905D01*
X162781997Y-85568095D01*
X162712601Y-85549500D01*
X162587399Y-85549500D01*
X162466464Y-85581905D01*
X162466462Y-85581906D01*
X162458614Y-85584009D01*
X162457848Y-85581153D01*
X162402447Y-85587093D01*
X162339977Y-85555800D01*
X162304343Y-85495700D01*
X162300500Y-85465070D01*
X162300500Y-85387400D01*
X162292329Y-85356905D01*
X162268095Y-85266464D01*
X162205495Y-85158036D01*
X162116964Y-85069505D01*
X162008536Y-85006905D01*
X162008537Y-85006905D01*
X161968224Y-84996103D01*
X161887601Y-84974500D01*
X161762399Y-84974500D01*
X161681775Y-84996103D01*
X161641463Y-85006905D01*
X161533037Y-85069504D01*
X161533034Y-85069506D01*
X161444506Y-85158034D01*
X161444504Y-85158037D01*
X161381905Y-85266463D01*
X161381905Y-85266464D01*
X161349500Y-85387399D01*
X159350000Y-85387399D01*
X159350000Y-80027680D01*
X159350007Y-80026317D01*
X159352603Y-79790208D01*
X159400298Y-75452900D01*
X159400296Y-75452900D01*
X159400297Y-75452899D01*
X159117010Y-75495346D01*
X159047794Y-75485813D01*
X158994720Y-75440372D01*
X158978005Y-75395141D01*
X158977603Y-75395249D01*
X158976437Y-75390899D01*
X158975696Y-75388893D01*
X158975500Y-75387404D01*
X158975500Y-75387399D01*
X158943095Y-75266464D01*
X158880495Y-75158036D01*
X158791964Y-75069505D01*
X158683536Y-75006905D01*
X158683537Y-75006905D01*
X158643224Y-74996103D01*
X158562601Y-74974500D01*
X158437399Y-74974500D01*
X158356775Y-74996103D01*
X158316463Y-75006905D01*
X158208037Y-75069504D01*
X158208034Y-75069506D01*
X158119506Y-75158034D01*
X158119504Y-75158037D01*
X158056905Y-75266463D01*
X158056905Y-75266464D01*
X158024500Y-75387399D01*
X158024500Y-75512601D01*
X158026281Y-75519246D01*
X158024618Y-75589096D01*
X157985456Y-75646958D01*
X157924881Y-75673971D01*
X132602375Y-79468223D01*
X132533158Y-79458690D01*
X132522001Y-79452979D01*
X132433542Y-79401908D01*
X132433537Y-79401905D01*
X132393224Y-79391103D01*
X132312601Y-79369500D01*
X132187399Y-79369500D01*
X132106775Y-79391103D01*
X132066463Y-79401905D01*
X131958037Y-79464503D01*
X131868995Y-79553546D01*
X131849873Y-79563986D01*
X131833497Y-79578349D01*
X131811454Y-79584963D01*
X131807671Y-79587030D01*
X131799692Y-79588494D01*
X131788709Y-79590140D01*
X131719493Y-79580609D01*
X131682650Y-79555191D01*
X131591965Y-79464506D01*
X131591964Y-79464505D01*
X131483536Y-79401905D01*
X131483537Y-79401905D01*
X131443224Y-79391103D01*
X131362601Y-79369500D01*
X131237399Y-79369500D01*
X131156775Y-79391103D01*
X131116463Y-79401905D01*
X131008037Y-79464504D01*
X131008034Y-79464506D01*
X130913758Y-79558783D01*
X130911582Y-79556607D01*
X130866925Y-79589202D01*
X130797178Y-79593343D01*
X130736264Y-79559119D01*
X130734226Y-79556767D01*
X130641965Y-79464506D01*
X130641964Y-79464505D01*
X130533536Y-79401905D01*
X130533537Y-79401905D01*
X130493224Y-79391103D01*
X130412601Y-79369500D01*
X130287399Y-79369500D01*
X130206775Y-79391103D01*
X130166463Y-79401905D01*
X130058037Y-79464504D01*
X130058034Y-79464506D01*
X129969506Y-79553034D01*
X129969504Y-79553037D01*
X129906905Y-79661463D01*
X129874498Y-79782404D01*
X129873990Y-79786268D01*
X129872655Y-79789283D01*
X129872397Y-79790249D01*
X129872246Y-79790208D01*
X129845718Y-79850162D01*
X129787391Y-79888629D01*
X129769427Y-79892704D01*
X129042875Y-80001568D01*
X128973658Y-79992035D01*
X128920584Y-79946594D01*
X128900502Y-79879672D01*
X128900500Y-79878937D01*
X128900500Y-74432399D01*
X130774500Y-74432399D01*
X130774500Y-74557601D01*
X130806905Y-74678536D01*
X130869505Y-74786964D01*
X130958036Y-74875495D01*
X130958037Y-74875496D01*
X130958039Y-74875497D01*
X131065628Y-74937613D01*
X131113843Y-74988179D01*
X131127067Y-75056786D01*
X131101099Y-75121651D01*
X131065628Y-75152387D01*
X130958039Y-75214502D01*
X130958034Y-75214506D01*
X130869506Y-75303034D01*
X130869504Y-75303037D01*
X130806905Y-75411463D01*
X130799955Y-75437400D01*
X130774500Y-75532399D01*
X130774500Y-75657601D01*
X130806905Y-75778536D01*
X130869505Y-75886964D01*
X130958036Y-75975495D01*
X131066464Y-76038095D01*
X131187399Y-76070500D01*
X131187401Y-76070500D01*
X131312599Y-76070500D01*
X131312601Y-76070500D01*
X131433536Y-76038095D01*
X131541964Y-75975495D01*
X131630495Y-75886964D01*
X131693095Y-75778536D01*
X131725500Y-75657601D01*
X131725500Y-75532399D01*
X131706466Y-75461364D01*
X131706466Y-75461362D01*
X131700045Y-75437399D01*
X140454500Y-75437399D01*
X140454500Y-75562601D01*
X140486905Y-75683536D01*
X140549505Y-75791964D01*
X140638036Y-75880495D01*
X140746464Y-75943095D01*
X140867399Y-75975500D01*
X140867401Y-75975500D01*
X140992599Y-75975500D01*
X140992601Y-75975500D01*
X141113536Y-75943095D01*
X141221964Y-75880495D01*
X141310495Y-75791964D01*
X141373095Y-75683536D01*
X141405500Y-75562601D01*
X141405500Y-75437399D01*
X141724500Y-75437399D01*
X141724500Y-75562601D01*
X141756905Y-75683536D01*
X141819505Y-75791964D01*
X141908036Y-75880495D01*
X142016464Y-75943095D01*
X142137399Y-75975500D01*
X142137401Y-75975500D01*
X142262599Y-75975500D01*
X142262601Y-75975500D01*
X142383536Y-75943095D01*
X142491964Y-75880495D01*
X142580495Y-75791964D01*
X142643095Y-75683536D01*
X142675500Y-75562601D01*
X142675500Y-75437399D01*
X142643095Y-75316464D01*
X142580495Y-75208036D01*
X142491964Y-75119505D01*
X142383536Y-75056905D01*
X142383537Y-75056905D01*
X142343224Y-75046103D01*
X142262601Y-75024500D01*
X142137399Y-75024500D01*
X142056775Y-75046103D01*
X142016463Y-75056905D01*
X141908037Y-75119504D01*
X141908034Y-75119506D01*
X141819506Y-75208034D01*
X141819504Y-75208037D01*
X141756905Y-75316463D01*
X141756905Y-75316464D01*
X141724500Y-75437399D01*
X141405500Y-75437399D01*
X141373095Y-75316464D01*
X141310495Y-75208036D01*
X141221964Y-75119505D01*
X141113536Y-75056905D01*
X141113537Y-75056905D01*
X141073224Y-75046103D01*
X140992601Y-75024500D01*
X140867399Y-75024500D01*
X140786775Y-75046103D01*
X140746463Y-75056905D01*
X140638037Y-75119504D01*
X140638034Y-75119506D01*
X140549506Y-75208034D01*
X140549504Y-75208037D01*
X140486905Y-75316463D01*
X140486905Y-75316464D01*
X140454500Y-75437399D01*
X131700045Y-75437399D01*
X131693096Y-75411468D01*
X131693095Y-75411464D01*
X131630495Y-75303036D01*
X131541964Y-75214505D01*
X131434371Y-75152387D01*
X131386156Y-75101821D01*
X131372932Y-75033214D01*
X131398900Y-74968349D01*
X131434370Y-74937613D01*
X131541964Y-74875495D01*
X131630495Y-74786964D01*
X131693095Y-74678536D01*
X131725500Y-74557601D01*
X131725500Y-74432399D01*
X131693095Y-74311464D01*
X131630495Y-74203036D01*
X131541964Y-74114505D01*
X131433536Y-74051905D01*
X131433537Y-74051905D01*
X131393224Y-74041103D01*
X131312601Y-74019500D01*
X131187399Y-74019500D01*
X131106775Y-74041103D01*
X131066463Y-74051905D01*
X130958037Y-74114504D01*
X130958034Y-74114506D01*
X130869506Y-74203034D01*
X130869504Y-74203037D01*
X130806905Y-74311463D01*
X130806905Y-74311464D01*
X130774500Y-74432399D01*
X128900500Y-74432399D01*
X128900500Y-71039193D01*
X128920185Y-70972154D01*
X128972989Y-70926399D01*
X129042147Y-70916455D01*
X129105703Y-70945480D01*
X129141541Y-70998238D01*
X129223532Y-71232554D01*
X129369752Y-71536183D01*
X129369754Y-71536186D01*
X129549054Y-71821539D01*
X129759175Y-72085023D01*
X129997477Y-72323325D01*
X130260961Y-72533446D01*
X130546314Y-72712746D01*
X130849949Y-72858969D01*
X131031613Y-72922536D01*
X131168034Y-72970272D01*
X131168046Y-72970276D01*
X131496606Y-73045267D01*
X131831492Y-73082999D01*
X131831493Y-73083000D01*
X131831496Y-73083000D01*
X132168507Y-73083000D01*
X132168507Y-73082999D01*
X132503394Y-73045267D01*
X132804667Y-72976504D01*
X135860000Y-72976504D01*
X135860000Y-73375000D01*
X136560000Y-73375000D01*
X136560000Y-73875000D01*
X135860000Y-73875000D01*
X135860000Y-74273495D01*
X135898427Y-74466681D01*
X135898430Y-74466693D01*
X135973807Y-74648671D01*
X135973814Y-74648684D01*
X136083248Y-74812462D01*
X136083251Y-74812466D01*
X136222533Y-74951748D01*
X136222537Y-74951751D01*
X136386315Y-75061185D01*
X136386328Y-75061192D01*
X136568308Y-75136569D01*
X136610000Y-75144862D01*
X136610000Y-74341988D01*
X136619940Y-74359205D01*
X136675795Y-74415060D01*
X136744204Y-74454556D01*
X136820504Y-74475000D01*
X136899496Y-74475000D01*
X136975796Y-74454556D01*
X137044205Y-74415060D01*
X137100060Y-74359205D01*
X137110000Y-74341988D01*
X137110000Y-75144862D01*
X137151690Y-75136569D01*
X137151692Y-75136569D01*
X137333671Y-75061192D01*
X137333684Y-75061185D01*
X137497462Y-74951751D01*
X137497466Y-74951748D01*
X137636748Y-74812466D01*
X137636751Y-74812462D01*
X137746185Y-74648684D01*
X137746192Y-74648671D01*
X137821569Y-74466693D01*
X137821572Y-74466681D01*
X137859999Y-74273495D01*
X137860000Y-74273492D01*
X137860000Y-73875000D01*
X137160000Y-73875000D01*
X137160000Y-73375000D01*
X137693598Y-73375000D01*
X137760637Y-73394685D01*
X137800984Y-73436999D01*
X137826285Y-73480821D01*
X137934179Y-73588715D01*
X137934180Y-73588716D01*
X137934182Y-73588717D01*
X138066318Y-73665006D01*
X138066319Y-73665006D01*
X138066322Y-73665008D01*
X138213707Y-73704500D01*
X138213710Y-73704500D01*
X138366290Y-73704500D01*
X138366293Y-73704500D01*
X138513678Y-73665008D01*
X138645821Y-73588715D01*
X138753715Y-73480821D01*
X138830008Y-73348678D01*
X138869500Y-73201293D01*
X138869500Y-73048707D01*
X138830008Y-72901322D01*
X138823930Y-72890795D01*
X138753717Y-72769182D01*
X138753712Y-72769176D01*
X138654435Y-72669899D01*
X140320250Y-72669899D01*
X140320250Y-72795101D01*
X140352655Y-72916036D01*
X140415255Y-73024464D01*
X140503786Y-73112995D01*
X140612214Y-73175595D01*
X140733149Y-73208000D01*
X140733151Y-73208000D01*
X140858349Y-73208000D01*
X140858351Y-73208000D01*
X140979286Y-73175595D01*
X141087714Y-73112995D01*
X141087721Y-73112987D01*
X141091725Y-73109916D01*
X141156893Y-73084719D01*
X141225339Y-73098753D01*
X141247110Y-73114849D01*
X141247341Y-73114549D01*
X141253782Y-73119491D01*
X141253786Y-73119495D01*
X141362214Y-73182095D01*
X141483149Y-73214500D01*
X141483151Y-73214500D01*
X141608349Y-73214500D01*
X141608351Y-73214500D01*
X141729286Y-73182095D01*
X141837714Y-73119495D01*
X141908502Y-73048707D01*
X143490500Y-73048707D01*
X143490500Y-73201293D01*
X143529992Y-73348678D01*
X143529993Y-73348681D01*
X143606282Y-73480817D01*
X143606284Y-73480819D01*
X143606285Y-73480821D01*
X143714179Y-73588715D01*
X143714180Y-73588716D01*
X143714182Y-73588717D01*
X143846318Y-73665006D01*
X143846319Y-73665006D01*
X143846322Y-73665008D01*
X143993707Y-73704500D01*
X143993710Y-73704500D01*
X144146291Y-73704500D01*
X144146293Y-73704500D01*
X144293678Y-73665008D01*
X144425821Y-73588715D01*
X144533715Y-73480821D01*
X144559015Y-73436999D01*
X144609582Y-73388784D01*
X144666402Y-73375000D01*
X145200000Y-73375000D01*
X145200000Y-73875000D01*
X144500000Y-73875000D01*
X144500000Y-74273495D01*
X144538427Y-74466681D01*
X144538430Y-74466693D01*
X144613807Y-74648671D01*
X144613814Y-74648684D01*
X144723248Y-74812462D01*
X144723251Y-74812466D01*
X144862533Y-74951748D01*
X144862537Y-74951751D01*
X145026315Y-75061185D01*
X145026328Y-75061192D01*
X145208308Y-75136569D01*
X145250000Y-75144862D01*
X145250000Y-74341988D01*
X145259940Y-74359205D01*
X145315795Y-74415060D01*
X145384204Y-74454556D01*
X145460504Y-74475000D01*
X145539496Y-74475000D01*
X145615796Y-74454556D01*
X145684205Y-74415060D01*
X145740060Y-74359205D01*
X145750000Y-74341988D01*
X145750000Y-75144862D01*
X145791690Y-75136569D01*
X145791692Y-75136569D01*
X145973671Y-75061192D01*
X145973684Y-75061185D01*
X146137462Y-74951751D01*
X146137466Y-74951748D01*
X146276748Y-74812466D01*
X146276751Y-74812462D01*
X146386185Y-74648684D01*
X146386192Y-74648671D01*
X146461569Y-74466693D01*
X146461572Y-74466681D01*
X146499999Y-74273495D01*
X146500000Y-74273492D01*
X146500000Y-73875000D01*
X145800000Y-73875000D01*
X145800000Y-73375000D01*
X146500000Y-73375000D01*
X146500000Y-72976508D01*
X146499999Y-72976504D01*
X146461572Y-72783318D01*
X146461569Y-72783306D01*
X146386192Y-72601328D01*
X146386185Y-72601315D01*
X146276751Y-72437537D01*
X146276748Y-72437533D01*
X146137466Y-72298251D01*
X146137462Y-72298248D01*
X146121225Y-72287399D01*
X151424500Y-72287399D01*
X151424500Y-72412601D01*
X151456905Y-72533536D01*
X151519505Y-72641964D01*
X151608036Y-72730495D01*
X151716464Y-72793095D01*
X151837399Y-72825500D01*
X151837401Y-72825500D01*
X151962599Y-72825500D01*
X151962601Y-72825500D01*
X152083536Y-72793095D01*
X152191964Y-72730495D01*
X152280495Y-72641964D01*
X152343095Y-72533536D01*
X152375500Y-72412601D01*
X152375500Y-72287399D01*
X152343095Y-72166464D01*
X152280495Y-72058036D01*
X152191964Y-71969505D01*
X152083536Y-71906905D01*
X152083537Y-71906905D01*
X152043224Y-71896103D01*
X151962601Y-71874500D01*
X151837399Y-71874500D01*
X151756775Y-71896103D01*
X151716463Y-71906905D01*
X151608037Y-71969504D01*
X151608034Y-71969506D01*
X151519506Y-72058034D01*
X151519504Y-72058037D01*
X151456905Y-72166463D01*
X151456905Y-72166464D01*
X151424500Y-72287399D01*
X146121225Y-72287399D01*
X145973684Y-72188814D01*
X145973671Y-72188807D01*
X145791691Y-72113429D01*
X145791683Y-72113427D01*
X145750000Y-72105135D01*
X145750000Y-72908011D01*
X145740060Y-72890795D01*
X145684205Y-72834940D01*
X145615796Y-72795444D01*
X145539496Y-72775000D01*
X145460504Y-72775000D01*
X145384204Y-72795444D01*
X145315795Y-72834940D01*
X145259940Y-72890795D01*
X145250000Y-72908011D01*
X145250000Y-72105136D01*
X145249999Y-72105135D01*
X145208316Y-72113427D01*
X145208308Y-72113429D01*
X145026328Y-72188807D01*
X145026315Y-72188814D01*
X144862537Y-72298248D01*
X144862533Y-72298251D01*
X144723251Y-72437533D01*
X144723248Y-72437537D01*
X144613814Y-72601315D01*
X144613808Y-72601326D01*
X144611462Y-72606991D01*
X144567617Y-72661391D01*
X144501321Y-72683451D01*
X144433623Y-72666167D01*
X144429826Y-72663597D01*
X144293681Y-72584993D01*
X144293682Y-72584993D01*
X144281595Y-72581754D01*
X144146293Y-72545500D01*
X143993707Y-72545500D01*
X143858404Y-72581754D01*
X143846318Y-72584993D01*
X143714182Y-72661282D01*
X143714176Y-72661287D01*
X143606287Y-72769176D01*
X143606282Y-72769182D01*
X143529993Y-72901318D01*
X143529992Y-72901322D01*
X143490500Y-73048707D01*
X141908502Y-73048707D01*
X141926245Y-73030964D01*
X141939638Y-73007766D01*
X141956489Y-72978580D01*
X141967768Y-72959041D01*
X141988845Y-72922536D01*
X142021250Y-72801601D01*
X142021250Y-72676399D01*
X141988845Y-72555464D01*
X141926245Y-72447036D01*
X141837714Y-72358505D01*
X141729286Y-72295905D01*
X141729287Y-72295905D01*
X141688974Y-72285103D01*
X141608351Y-72263500D01*
X141483149Y-72263500D01*
X141402525Y-72285103D01*
X141362213Y-72295905D01*
X141253782Y-72358507D01*
X141249763Y-72361591D01*
X141184593Y-72386782D01*
X141116149Y-72372740D01*
X141094389Y-72356650D01*
X141094159Y-72356951D01*
X141087715Y-72352006D01*
X141087714Y-72352005D01*
X140979286Y-72289405D01*
X140979287Y-72289405D01*
X140938974Y-72278603D01*
X140858351Y-72257000D01*
X140733149Y-72257000D01*
X140652525Y-72278603D01*
X140612213Y-72289405D01*
X140503787Y-72352004D01*
X140503784Y-72352006D01*
X140415256Y-72440534D01*
X140415254Y-72440537D01*
X140352655Y-72548963D01*
X140350913Y-72555464D01*
X140320250Y-72669899D01*
X138654435Y-72669899D01*
X138645823Y-72661287D01*
X138645817Y-72661282D01*
X138513681Y-72584993D01*
X138513682Y-72584993D01*
X138501595Y-72581754D01*
X138366293Y-72545500D01*
X138213707Y-72545500D01*
X138078404Y-72581754D01*
X138066318Y-72584993D01*
X137927140Y-72665349D01*
X137925715Y-72662881D01*
X137873405Y-72683102D01*
X137804961Y-72669059D01*
X137754974Y-72620243D01*
X137748534Y-72606983D01*
X137746188Y-72601321D01*
X137746187Y-72601318D01*
X137636751Y-72437537D01*
X137636748Y-72437533D01*
X137497466Y-72298251D01*
X137497462Y-72298248D01*
X137333684Y-72188814D01*
X137333671Y-72188807D01*
X137151691Y-72113429D01*
X137151683Y-72113427D01*
X137110000Y-72105135D01*
X137110000Y-72908011D01*
X137100060Y-72890795D01*
X137044205Y-72834940D01*
X136975796Y-72795444D01*
X136899496Y-72775000D01*
X136820504Y-72775000D01*
X136744204Y-72795444D01*
X136675795Y-72834940D01*
X136619940Y-72890795D01*
X136610000Y-72908011D01*
X136610000Y-72105136D01*
X136609999Y-72105135D01*
X136568316Y-72113427D01*
X136568308Y-72113429D01*
X136386328Y-72188807D01*
X136386315Y-72188814D01*
X136222537Y-72298248D01*
X136222533Y-72298251D01*
X136083251Y-72437533D01*
X136083248Y-72437537D01*
X135973814Y-72601315D01*
X135973807Y-72601328D01*
X135898430Y-72783306D01*
X135898427Y-72783318D01*
X135860000Y-72976504D01*
X132804667Y-72976504D01*
X132831954Y-72970276D01*
X133150051Y-72858969D01*
X133453686Y-72712746D01*
X133739039Y-72533446D01*
X134002523Y-72323325D01*
X134240825Y-72085023D01*
X134450946Y-71821539D01*
X134630246Y-71536186D01*
X134776469Y-71232551D01*
X134795767Y-71177399D01*
X154639700Y-71177399D01*
X154639700Y-71302601D01*
X154672105Y-71423536D01*
X154734705Y-71531964D01*
X154823236Y-71620495D01*
X154931664Y-71683095D01*
X155052599Y-71715500D01*
X155052601Y-71715500D01*
X155177799Y-71715500D01*
X155177801Y-71715500D01*
X155298736Y-71683095D01*
X155407164Y-71620495D01*
X155495695Y-71531964D01*
X155558295Y-71423536D01*
X155590700Y-71302601D01*
X155590700Y-71177399D01*
X155558295Y-71056464D01*
X155495695Y-70948036D01*
X155407164Y-70859505D01*
X155298736Y-70796905D01*
X155298737Y-70796905D01*
X155258424Y-70786103D01*
X155177801Y-70764500D01*
X155052599Y-70764500D01*
X154971975Y-70786103D01*
X154931663Y-70796905D01*
X154823237Y-70859504D01*
X154823234Y-70859506D01*
X154734706Y-70948034D01*
X154734704Y-70948037D01*
X154672105Y-71056463D01*
X154672105Y-71056464D01*
X154639700Y-71177399D01*
X134795767Y-71177399D01*
X134804925Y-71151228D01*
X134812943Y-71128316D01*
X134876026Y-70948034D01*
X134887776Y-70914454D01*
X134962767Y-70585894D01*
X135000500Y-70251004D01*
X135000500Y-69913996D01*
X134994219Y-69858254D01*
X134971603Y-69657521D01*
X134962768Y-69579118D01*
X134962767Y-69579106D01*
X134887776Y-69250546D01*
X134887334Y-69249284D01*
X134793588Y-68981372D01*
X134781387Y-68946504D01*
X135860000Y-68946504D01*
X135860000Y-69195000D01*
X136560000Y-69195000D01*
X136560000Y-69695000D01*
X135860000Y-69695000D01*
X135860000Y-69943495D01*
X135898427Y-70136681D01*
X135898430Y-70136693D01*
X135973807Y-70318671D01*
X135973814Y-70318684D01*
X136083248Y-70482462D01*
X136083251Y-70482466D01*
X136222533Y-70621748D01*
X136222537Y-70621751D01*
X136386315Y-70731185D01*
X136386328Y-70731192D01*
X136568308Y-70806569D01*
X136610000Y-70814862D01*
X136610000Y-70011988D01*
X136619940Y-70029205D01*
X136675795Y-70085060D01*
X136744204Y-70124556D01*
X136820504Y-70145000D01*
X136899496Y-70145000D01*
X136975796Y-70124556D01*
X137044205Y-70085060D01*
X137100060Y-70029205D01*
X137110000Y-70011988D01*
X137110000Y-70814862D01*
X137151690Y-70806569D01*
X137151692Y-70806569D01*
X137333671Y-70731192D01*
X137333684Y-70731185D01*
X137497462Y-70621751D01*
X137497466Y-70621748D01*
X137636748Y-70482466D01*
X137636751Y-70482462D01*
X137746185Y-70318684D01*
X137746192Y-70318671D01*
X137821569Y-70136693D01*
X137821572Y-70136681D01*
X137859999Y-69943495D01*
X137860000Y-69943492D01*
X137860000Y-69695000D01*
X137160000Y-69695000D01*
X137160000Y-69195000D01*
X137860000Y-69195000D01*
X137860000Y-68946508D01*
X137859999Y-68946504D01*
X144500000Y-68946504D01*
X144500000Y-69195000D01*
X145200000Y-69195000D01*
X145200000Y-69695000D01*
X144500000Y-69695000D01*
X144500000Y-69943495D01*
X144538427Y-70136681D01*
X144538430Y-70136693D01*
X144613807Y-70318671D01*
X144613814Y-70318684D01*
X144723248Y-70482462D01*
X144723251Y-70482466D01*
X144862533Y-70621748D01*
X144862537Y-70621751D01*
X145026315Y-70731185D01*
X145026328Y-70731192D01*
X145208308Y-70806569D01*
X145250000Y-70814862D01*
X145250000Y-70011988D01*
X145259940Y-70029205D01*
X145315795Y-70085060D01*
X145384204Y-70124556D01*
X145460504Y-70145000D01*
X145539496Y-70145000D01*
X145615796Y-70124556D01*
X145684205Y-70085060D01*
X145740060Y-70029205D01*
X145750000Y-70011988D01*
X145750000Y-70814862D01*
X145791690Y-70806569D01*
X145791692Y-70806569D01*
X145973671Y-70731192D01*
X145973684Y-70731185D01*
X146137462Y-70621751D01*
X146137466Y-70621748D01*
X146276748Y-70482466D01*
X146276751Y-70482462D01*
X146386185Y-70318684D01*
X146386192Y-70318671D01*
X146461569Y-70136693D01*
X146461572Y-70136681D01*
X146499999Y-69943495D01*
X146500000Y-69943492D01*
X146500000Y-69695000D01*
X145800000Y-69695000D01*
X145800000Y-69195000D01*
X146500000Y-69195000D01*
X146500000Y-68946508D01*
X146499999Y-68946504D01*
X146461572Y-68753318D01*
X146461569Y-68753306D01*
X146386192Y-68571328D01*
X146386185Y-68571315D01*
X146276751Y-68407537D01*
X146276748Y-68407533D01*
X146137466Y-68268251D01*
X146137462Y-68268248D01*
X145973684Y-68158814D01*
X145973671Y-68158807D01*
X145791691Y-68083429D01*
X145791683Y-68083427D01*
X145750000Y-68075135D01*
X145750000Y-68878011D01*
X145740060Y-68860795D01*
X145684205Y-68804940D01*
X145615796Y-68765444D01*
X145539496Y-68745000D01*
X145460504Y-68745000D01*
X145384204Y-68765444D01*
X145315795Y-68804940D01*
X145259940Y-68860795D01*
X145250000Y-68878011D01*
X145250000Y-68075136D01*
X145249999Y-68075135D01*
X145208316Y-68083427D01*
X145208308Y-68083429D01*
X145026328Y-68158807D01*
X145026315Y-68158814D01*
X144862537Y-68268248D01*
X144862533Y-68268251D01*
X144723251Y-68407533D01*
X144723248Y-68407537D01*
X144613814Y-68571315D01*
X144613807Y-68571328D01*
X144538430Y-68753306D01*
X144538427Y-68753318D01*
X144500000Y-68946504D01*
X137859999Y-68946504D01*
X137821572Y-68753318D01*
X137821569Y-68753306D01*
X137746192Y-68571328D01*
X137746185Y-68571315D01*
X137636751Y-68407537D01*
X137636748Y-68407533D01*
X137497466Y-68268251D01*
X137497462Y-68268248D01*
X137333684Y-68158814D01*
X137333671Y-68158807D01*
X137151691Y-68083429D01*
X137151683Y-68083427D01*
X137110000Y-68075135D01*
X137110000Y-68878011D01*
X137100060Y-68860795D01*
X137044205Y-68804940D01*
X136975796Y-68765444D01*
X136899496Y-68745000D01*
X136820504Y-68745000D01*
X136744204Y-68765444D01*
X136675795Y-68804940D01*
X136619940Y-68860795D01*
X136610000Y-68878011D01*
X136610000Y-68075136D01*
X136609999Y-68075135D01*
X136568316Y-68083427D01*
X136568308Y-68083429D01*
X136386328Y-68158807D01*
X136386315Y-68158814D01*
X136222537Y-68268248D01*
X136222533Y-68268251D01*
X136083251Y-68407533D01*
X136083248Y-68407537D01*
X135973814Y-68571315D01*
X135973807Y-68571328D01*
X135898430Y-68753306D01*
X135898427Y-68753318D01*
X135860000Y-68946504D01*
X134781387Y-68946504D01*
X134776469Y-68932449D01*
X134630246Y-68628814D01*
X134450946Y-68343461D01*
X134240825Y-68079977D01*
X134002523Y-67841675D01*
X134002516Y-67841668D01*
X133888734Y-67750931D01*
X133848593Y-67693743D01*
X133845743Y-67623932D01*
X133881088Y-67563661D01*
X133943407Y-67532068D01*
X133966046Y-67529984D01*
X160386930Y-67529984D01*
X160453969Y-67549669D01*
G37*
%TD.AperFunction*%
%TD*%
%TA.AperFunction,Conductor*%
%TO.N,DGND*%
G36*
X159001877Y-75685964D02*
G01*
X159003991Y-75685984D01*
X159015333Y-75687720D01*
X159019756Y-75689391D01*
X159084594Y-75698321D01*
X159085489Y-75698458D01*
X159116340Y-75712887D01*
X159147374Y-75726838D01*
X159147902Y-75727649D01*
X159148778Y-75728059D01*
X159166910Y-75756845D01*
X159185496Y-75785392D01*
X159185501Y-75786359D01*
X159186017Y-75787178D01*
X159190721Y-75822394D01*
X159174950Y-77256650D01*
X159154529Y-77323469D01*
X159101225Y-77368641D01*
X159031961Y-77377823D01*
X158968729Y-77348101D01*
X158943569Y-77317286D01*
X158943095Y-77316465D01*
X158943095Y-77316464D01*
X158880495Y-77208036D01*
X158791964Y-77119505D01*
X158683536Y-77056905D01*
X158683537Y-77056905D01*
X158643224Y-77046103D01*
X158562601Y-77024500D01*
X158437399Y-77024500D01*
X158356775Y-77046103D01*
X158316463Y-77056905D01*
X158208037Y-77119504D01*
X158208034Y-77119506D01*
X158119506Y-77208034D01*
X158119504Y-77208037D01*
X158056905Y-77316463D01*
X158055028Y-77323469D01*
X158024500Y-77437399D01*
X158024500Y-77562601D01*
X158056905Y-77683536D01*
X158119505Y-77791964D01*
X158208036Y-77880495D01*
X158208038Y-77880496D01*
X158214487Y-77885445D01*
X158212910Y-77887499D01*
X158252239Y-77928744D01*
X158265463Y-77997351D01*
X158239496Y-78062216D01*
X158204025Y-78092953D01*
X158158036Y-78119504D01*
X158069506Y-78208034D01*
X158069504Y-78208037D01*
X158006905Y-78316463D01*
X158006905Y-78316464D01*
X157974500Y-78437399D01*
X157974500Y-78562601D01*
X158006905Y-78683536D01*
X158069505Y-78791964D01*
X158158036Y-78880495D01*
X158266464Y-78943095D01*
X158387399Y-78975500D01*
X158387401Y-78975500D01*
X158512599Y-78975500D01*
X158512601Y-78975500D01*
X158633536Y-78943095D01*
X158741964Y-78880495D01*
X158830495Y-78791964D01*
X158893095Y-78683536D01*
X158925500Y-78562601D01*
X158925500Y-78437399D01*
X158893095Y-78316464D01*
X158830495Y-78208036D01*
X158741964Y-78119505D01*
X158741962Y-78119504D01*
X158735513Y-78114555D01*
X158737087Y-78112502D01*
X158697754Y-78071243D01*
X158684538Y-78002635D01*
X158710511Y-77937773D01*
X158745977Y-77907045D01*
X158791964Y-77880495D01*
X158880495Y-77791964D01*
X158938084Y-77692214D01*
X158988650Y-77644000D01*
X159057257Y-77630776D01*
X159122122Y-77656744D01*
X159162651Y-77713657D01*
X159169463Y-77755577D01*
X159165517Y-78114555D01*
X159162579Y-78381706D01*
X159162577Y-78381709D01*
X159159833Y-78631259D01*
X159159834Y-78631260D01*
X159151855Y-79356905D01*
X159145915Y-79897177D01*
X159144517Y-80024275D01*
X159144510Y-80025082D01*
X159144511Y-80025083D01*
X159144510Y-80025262D01*
X159144503Y-80026625D01*
X159144503Y-80026732D01*
X159144502Y-80026731D01*
X159144500Y-80027504D01*
X159144500Y-87917709D01*
X159124815Y-87984748D01*
X159072011Y-88030503D01*
X159002853Y-88040447D01*
X158988409Y-88037484D01*
X158971676Y-88033000D01*
X158971671Y-88033000D01*
X158878329Y-88033000D01*
X158818221Y-88049106D01*
X158788167Y-88057159D01*
X158707333Y-88103828D01*
X158707330Y-88103830D01*
X158641330Y-88169830D01*
X158641326Y-88169835D01*
X158638387Y-88174927D01*
X158587820Y-88223143D01*
X158519213Y-88236366D01*
X158454348Y-88210398D01*
X158423613Y-88174927D01*
X158420673Y-88169835D01*
X158420672Y-88169833D01*
X158420671Y-88169832D01*
X158354668Y-88103829D01*
X158273832Y-88057159D01*
X158273833Y-88057159D01*
X158243778Y-88049106D01*
X158183671Y-88033000D01*
X158090329Y-88033000D01*
X158030221Y-88049106D01*
X158000167Y-88057159D01*
X157919333Y-88103828D01*
X157919330Y-88103830D01*
X157853330Y-88169830D01*
X157853326Y-88169835D01*
X157850887Y-88174061D01*
X157800320Y-88222277D01*
X157731713Y-88235500D01*
X157666848Y-88209532D01*
X157636113Y-88174061D01*
X157633673Y-88169835D01*
X157633672Y-88169833D01*
X157633671Y-88169832D01*
X157567668Y-88103829D01*
X157486832Y-88057159D01*
X157486833Y-88057159D01*
X157456778Y-88049106D01*
X157396671Y-88033000D01*
X157303329Y-88033000D01*
X157243221Y-88049106D01*
X157213167Y-88057159D01*
X157132333Y-88103828D01*
X157132330Y-88103830D01*
X157066330Y-88169830D01*
X157066328Y-88169833D01*
X157019659Y-88250667D01*
X157019659Y-88250668D01*
X156995500Y-88340829D01*
X156995500Y-88434171D01*
X157018364Y-88519500D01*
X157019659Y-88524332D01*
X157066328Y-88605166D01*
X157066330Y-88605169D01*
X157085980Y-88624819D01*
X157119465Y-88686142D01*
X157114481Y-88755834D01*
X157085980Y-88800181D01*
X157066330Y-88819830D01*
X157066328Y-88819833D01*
X157019659Y-88900667D01*
X157011156Y-88932400D01*
X156995500Y-88990829D01*
X156995500Y-89084171D01*
X157019659Y-89174332D01*
X157066329Y-89255168D01*
X157132332Y-89321171D01*
X157213168Y-89367841D01*
X157303329Y-89392000D01*
X157303331Y-89392000D01*
X157396669Y-89392000D01*
X157396671Y-89392000D01*
X157486832Y-89367841D01*
X157567668Y-89321171D01*
X157633671Y-89255168D01*
X157636111Y-89250940D01*
X157686676Y-89202725D01*
X157755282Y-89189499D01*
X157820148Y-89215464D01*
X157850887Y-89250939D01*
X157853329Y-89255168D01*
X157919332Y-89321171D01*
X158000168Y-89367841D01*
X158090329Y-89392000D01*
X158090331Y-89392000D01*
X158183669Y-89392000D01*
X158183671Y-89392000D01*
X158273832Y-89367841D01*
X158354668Y-89321171D01*
X158420671Y-89255168D01*
X158423611Y-89250076D01*
X158474176Y-89201858D01*
X158542783Y-89188633D01*
X158607648Y-89214599D01*
X158638389Y-89250076D01*
X158641326Y-89255164D01*
X158641328Y-89255166D01*
X158641329Y-89255168D01*
X158707332Y-89321171D01*
X158788168Y-89367841D01*
X158878329Y-89392000D01*
X158878331Y-89392000D01*
X158971670Y-89392000D01*
X158971671Y-89392000D01*
X158988405Y-89387516D01*
X159058254Y-89389177D01*
X159116117Y-89428339D01*
X159143623Y-89492567D01*
X159144500Y-89507290D01*
X159144500Y-89867709D01*
X159124815Y-89934748D01*
X159072011Y-89980503D01*
X159002853Y-89990447D01*
X158988409Y-89987484D01*
X158971676Y-89983000D01*
X158971671Y-89983000D01*
X158878329Y-89983000D01*
X158818221Y-89999106D01*
X158788167Y-90007159D01*
X158707333Y-90053828D01*
X158707330Y-90053830D01*
X158641330Y-90119830D01*
X158641326Y-90119835D01*
X158638387Y-90124927D01*
X158587820Y-90173143D01*
X158519213Y-90186366D01*
X158454348Y-90160398D01*
X158423613Y-90124927D01*
X158420673Y-90119835D01*
X158420672Y-90119833D01*
X158420671Y-90119832D01*
X158354668Y-90053829D01*
X158273832Y-90007159D01*
X158273833Y-90007159D01*
X158243778Y-89999106D01*
X158183671Y-89983000D01*
X158090329Y-89983000D01*
X158030221Y-89999106D01*
X158000167Y-90007159D01*
X157919333Y-90053828D01*
X157919330Y-90053830D01*
X157853330Y-90119830D01*
X157853326Y-90119835D01*
X157850887Y-90124061D01*
X157800320Y-90172277D01*
X157731713Y-90185500D01*
X157666848Y-90159532D01*
X157636113Y-90124061D01*
X157633673Y-90119835D01*
X157633672Y-90119833D01*
X157633671Y-90119832D01*
X157567668Y-90053829D01*
X157486832Y-90007159D01*
X157486833Y-90007159D01*
X157456778Y-89999106D01*
X157396671Y-89983000D01*
X157303329Y-89983000D01*
X157243221Y-89999106D01*
X157213167Y-90007159D01*
X157132333Y-90053828D01*
X157132330Y-90053830D01*
X157066330Y-90119830D01*
X157066328Y-90119833D01*
X157019659Y-90200667D01*
X157015426Y-90216464D01*
X156995500Y-90290829D01*
X156995500Y-90384171D01*
X157009763Y-90437399D01*
X157019659Y-90474332D01*
X157066328Y-90555166D01*
X157066330Y-90555169D01*
X157085980Y-90574819D01*
X157119465Y-90636142D01*
X157114481Y-90705834D01*
X157085980Y-90750181D01*
X157066330Y-90769830D01*
X157066328Y-90769833D01*
X157019659Y-90850667D01*
X157019659Y-90850668D01*
X156995500Y-90940829D01*
X156995500Y-91034171D01*
X157019659Y-91124332D01*
X157066329Y-91205168D01*
X157132332Y-91271171D01*
X157213168Y-91317841D01*
X157303329Y-91342000D01*
X157303331Y-91342000D01*
X157396669Y-91342000D01*
X157396671Y-91342000D01*
X157486832Y-91317841D01*
X157567668Y-91271171D01*
X157633671Y-91205168D01*
X157636111Y-91200940D01*
X157686676Y-91152725D01*
X157755282Y-91139499D01*
X157820148Y-91165464D01*
X157850887Y-91200939D01*
X157853329Y-91205168D01*
X157919332Y-91271171D01*
X158000168Y-91317841D01*
X158090329Y-91342000D01*
X158090331Y-91342000D01*
X158183669Y-91342000D01*
X158183671Y-91342000D01*
X158273832Y-91317841D01*
X158354668Y-91271171D01*
X158420671Y-91205168D01*
X158423611Y-91200076D01*
X158474176Y-91151858D01*
X158542783Y-91138633D01*
X158607648Y-91164599D01*
X158638389Y-91200076D01*
X158641326Y-91205164D01*
X158641328Y-91205166D01*
X158641329Y-91205168D01*
X158707332Y-91271171D01*
X158788168Y-91317841D01*
X158878329Y-91342000D01*
X158878331Y-91342000D01*
X158971670Y-91342000D01*
X158971671Y-91342000D01*
X158988405Y-91337516D01*
X159058254Y-91339177D01*
X159116117Y-91378339D01*
X159143623Y-91442567D01*
X159144500Y-91457290D01*
X159144500Y-91955991D01*
X159149197Y-91999670D01*
X159160397Y-92051158D01*
X159162890Y-92061356D01*
X159162891Y-92061359D01*
X159205899Y-92142067D01*
X159205901Y-92142070D01*
X159251660Y-92194879D01*
X159269242Y-92212823D01*
X159269246Y-92212827D01*
X159269247Y-92212828D01*
X159269249Y-92212829D01*
X159348516Y-92257168D01*
X159349063Y-92257474D01*
X159416102Y-92277159D01*
X159474000Y-92285484D01*
X159474004Y-92285484D01*
X162437546Y-92285484D01*
X162504585Y-92305169D01*
X162550340Y-92357973D01*
X162550392Y-92358337D01*
X162592952Y-92306793D01*
X162659504Y-92285519D01*
X162662454Y-92285484D01*
X163987202Y-92285484D01*
X164054241Y-92305169D01*
X164099996Y-92357973D01*
X164109940Y-92427131D01*
X164080915Y-92490687D01*
X164049202Y-92516870D01*
X164027745Y-92529259D01*
X163958037Y-92569504D01*
X163958034Y-92569506D01*
X163912681Y-92614860D01*
X163851358Y-92648345D01*
X163781666Y-92643361D01*
X163749675Y-92622801D01*
X163748409Y-92624451D01*
X163741965Y-92619506D01*
X163741964Y-92619505D01*
X163633536Y-92556905D01*
X163633537Y-92556905D01*
X163551545Y-92534935D01*
X163551544Y-92534935D01*
X163512601Y-92524500D01*
X163387399Y-92524500D01*
X163266464Y-92556905D01*
X163259759Y-92560775D01*
X163259759Y-92560776D01*
X163158037Y-92619504D01*
X163158034Y-92619506D01*
X163087681Y-92689860D01*
X163026358Y-92723345D01*
X162956666Y-92718361D01*
X162912319Y-92689860D01*
X162841965Y-92619506D01*
X162841964Y-92619505D01*
X162733536Y-92556905D01*
X162733537Y-92556905D01*
X162692600Y-92545936D01*
X162630358Y-92529258D01*
X162570700Y-92492893D01*
X162549851Y-92449974D01*
X162531259Y-92490687D01*
X162472481Y-92528461D01*
X162469671Y-92529250D01*
X162407399Y-92545936D01*
X162366463Y-92556905D01*
X162258037Y-92619504D01*
X162258034Y-92619506D01*
X162212681Y-92664860D01*
X162151358Y-92698345D01*
X162081666Y-92693361D01*
X162037319Y-92664860D01*
X161991965Y-92619506D01*
X161991964Y-92619505D01*
X161883536Y-92556905D01*
X161883537Y-92556905D01*
X161843078Y-92546064D01*
X161762601Y-92524500D01*
X161637399Y-92524500D01*
X161556921Y-92546064D01*
X161516463Y-92556905D01*
X161408037Y-92619504D01*
X161408034Y-92619506D01*
X161319506Y-92708034D01*
X161319504Y-92708037D01*
X161256905Y-92816463D01*
X161250000Y-92842233D01*
X161224500Y-92937399D01*
X161224500Y-93062601D01*
X161256905Y-93183536D01*
X161319505Y-93291964D01*
X161408036Y-93380495D01*
X161516464Y-93443095D01*
X161637399Y-93475500D01*
X161637401Y-93475500D01*
X161762599Y-93475500D01*
X161762601Y-93475500D01*
X161883536Y-93443095D01*
X161991964Y-93380495D01*
X162037319Y-93335140D01*
X162098642Y-93301655D01*
X162168334Y-93306639D01*
X162212681Y-93335140D01*
X162258036Y-93380495D01*
X162366464Y-93443095D01*
X162487399Y-93475500D01*
X162487401Y-93475500D01*
X162612599Y-93475500D01*
X162612601Y-93475500D01*
X162733536Y-93443095D01*
X162841964Y-93380495D01*
X162912319Y-93310140D01*
X162973642Y-93276655D01*
X163043334Y-93281639D01*
X163087681Y-93310140D01*
X163158036Y-93380495D01*
X163266464Y-93443095D01*
X163387399Y-93475500D01*
X163387401Y-93475500D01*
X163512599Y-93475500D01*
X163512601Y-93475500D01*
X163633536Y-93443095D01*
X163741964Y-93380495D01*
X163787319Y-93335140D01*
X163848642Y-93301655D01*
X163918334Y-93306639D01*
X163950324Y-93327198D01*
X163951591Y-93325549D01*
X163958032Y-93330491D01*
X163958036Y-93330495D01*
X164066464Y-93393095D01*
X164187399Y-93425500D01*
X164187401Y-93425500D01*
X164312599Y-93425500D01*
X164312601Y-93425500D01*
X164433536Y-93393095D01*
X164541964Y-93330495D01*
X164630495Y-93241964D01*
X164693095Y-93133536D01*
X164725500Y-93012601D01*
X164725500Y-92887399D01*
X164693095Y-92766464D01*
X164630495Y-92658036D01*
X164541964Y-92569505D01*
X164450798Y-92516871D01*
X164402583Y-92466305D01*
X164389359Y-92397698D01*
X164415327Y-92332833D01*
X164472241Y-92292304D01*
X164512798Y-92285484D01*
X165275500Y-92285484D01*
X165342539Y-92305169D01*
X165388294Y-92357973D01*
X165399500Y-92409484D01*
X165399500Y-99314797D01*
X165379815Y-99381836D01*
X165327011Y-99427591D01*
X165257853Y-99437535D01*
X165194297Y-99408510D01*
X165163780Y-99368599D01*
X165030247Y-99091316D01*
X164981983Y-99014505D01*
X164850946Y-98805961D01*
X164640825Y-98542477D01*
X164402523Y-98304175D01*
X164139039Y-98094054D01*
X163853686Y-97914754D01*
X163853683Y-97914752D01*
X163550054Y-97768532D01*
X163231965Y-97657227D01*
X163231953Y-97657223D01*
X162903397Y-97582233D01*
X162903381Y-97582231D01*
X162568508Y-97544500D01*
X162568504Y-97544500D01*
X162231496Y-97544500D01*
X162231491Y-97544500D01*
X161896618Y-97582231D01*
X161896602Y-97582233D01*
X161568046Y-97657223D01*
X161568034Y-97657227D01*
X161249945Y-97768532D01*
X160946316Y-97914752D01*
X160660962Y-98094053D01*
X160397477Y-98304174D01*
X160159174Y-98542477D01*
X159949053Y-98805962D01*
X159769752Y-99091316D01*
X159623532Y-99394945D01*
X159512227Y-99713034D01*
X159512223Y-99713046D01*
X159437233Y-100041602D01*
X159437231Y-100041618D01*
X159399500Y-100376491D01*
X159399500Y-100713508D01*
X159437231Y-101048381D01*
X159437233Y-101048397D01*
X159512223Y-101376953D01*
X159512227Y-101376965D01*
X159623532Y-101695054D01*
X159769752Y-101998683D01*
X159769754Y-101998686D01*
X159949054Y-102284039D01*
X160159175Y-102547523D01*
X160397477Y-102785825D01*
X160660961Y-102995946D01*
X160946314Y-103175246D01*
X160946316Y-103175247D01*
X161223599Y-103308780D01*
X161275458Y-103355602D01*
X161293771Y-103423030D01*
X161272723Y-103489653D01*
X161218997Y-103534322D01*
X161169797Y-103544500D01*
X145441924Y-103544500D01*
X145374885Y-103524815D01*
X145329130Y-103472011D01*
X145319186Y-103402853D01*
X145322149Y-103388406D01*
X145343485Y-103308780D01*
X145350500Y-103282601D01*
X145350500Y-103157399D01*
X145336444Y-103104942D01*
X145338105Y-103035095D01*
X145377267Y-102977231D01*
X145441495Y-102949726D01*
X145510397Y-102961312D01*
X145531706Y-102974474D01*
X145533032Y-102975491D01*
X145533036Y-102975495D01*
X145641464Y-103038095D01*
X145762399Y-103070500D01*
X145762401Y-103070500D01*
X145887599Y-103070500D01*
X145887601Y-103070500D01*
X146008536Y-103038095D01*
X146116964Y-102975495D01*
X146205495Y-102886964D01*
X146268095Y-102778536D01*
X146300500Y-102657601D01*
X146300500Y-102532399D01*
X146268095Y-102411464D01*
X146205495Y-102303036D01*
X146116964Y-102214505D01*
X146008536Y-102151905D01*
X146008537Y-102151905D01*
X145968224Y-102141103D01*
X145887601Y-102119500D01*
X145762399Y-102119500D01*
X145681775Y-102141103D01*
X145641463Y-102151905D01*
X145533037Y-102214504D01*
X145533034Y-102214506D01*
X145438758Y-102308783D01*
X145436582Y-102306607D01*
X145391925Y-102339202D01*
X145322178Y-102343343D01*
X145261264Y-102309119D01*
X145259226Y-102306767D01*
X145166965Y-102214506D01*
X145166964Y-102214505D01*
X145058536Y-102151905D01*
X145058537Y-102151905D01*
X145018224Y-102141103D01*
X144937601Y-102119500D01*
X144812399Y-102119500D01*
X144731775Y-102141103D01*
X144691463Y-102151905D01*
X144583037Y-102214504D01*
X144583034Y-102214506D01*
X144494506Y-102303034D01*
X144494504Y-102303037D01*
X144431905Y-102411463D01*
X144431905Y-102411464D01*
X144399500Y-102532399D01*
X144399500Y-102657601D01*
X144400000Y-102659466D01*
X144431905Y-102778537D01*
X144431907Y-102778540D01*
X144470566Y-102845502D01*
X144487037Y-102913402D01*
X144470566Y-102969498D01*
X144431907Y-103036459D01*
X144431905Y-103036462D01*
X144422785Y-103070500D01*
X144399500Y-103157399D01*
X144399500Y-103282601D01*
X144406515Y-103308780D01*
X144427851Y-103388406D01*
X144426188Y-103458256D01*
X144387026Y-103516119D01*
X144322797Y-103543623D01*
X144308076Y-103544500D01*
X133130203Y-103544500D01*
X133063164Y-103524815D01*
X133017409Y-103472011D01*
X133007465Y-103402853D01*
X133036490Y-103339297D01*
X133076401Y-103308780D01*
X133223025Y-103238169D01*
X133353686Y-103175246D01*
X133639039Y-102995946D01*
X133902523Y-102785825D01*
X134140825Y-102547523D01*
X134350946Y-102284039D01*
X134530246Y-101998686D01*
X134676469Y-101695051D01*
X134767790Y-101434071D01*
X152949499Y-101434071D01*
X152974497Y-101559738D01*
X152974499Y-101559744D01*
X153023533Y-101678124D01*
X153023538Y-101678133D01*
X153094723Y-101784668D01*
X153094726Y-101784672D01*
X153185327Y-101875273D01*
X153185331Y-101875276D01*
X153291866Y-101946461D01*
X153291872Y-101946464D01*
X153291873Y-101946465D01*
X153410256Y-101995501D01*
X153410260Y-101995501D01*
X153410261Y-101995502D01*
X153535928Y-102020500D01*
X153535931Y-102020500D01*
X153664071Y-102020500D01*
X153773747Y-101998683D01*
X153789744Y-101995501D01*
X153908127Y-101946465D01*
X154014669Y-101875276D01*
X154105276Y-101784669D01*
X154176465Y-101678127D01*
X154225501Y-101559744D01*
X154250500Y-101434071D01*
X155249499Y-101434071D01*
X155274497Y-101559738D01*
X155274499Y-101559744D01*
X155323533Y-101678124D01*
X155323538Y-101678133D01*
X155394723Y-101784668D01*
X155394726Y-101784672D01*
X155485327Y-101875273D01*
X155485331Y-101875276D01*
X155591866Y-101946461D01*
X155591872Y-101946464D01*
X155591873Y-101946465D01*
X155710256Y-101995501D01*
X155710260Y-101995501D01*
X155710261Y-101995502D01*
X155835928Y-102020500D01*
X155835931Y-102020500D01*
X155964071Y-102020500D01*
X156073747Y-101998683D01*
X156089744Y-101995501D01*
X156208127Y-101946465D01*
X156314669Y-101875276D01*
X156405276Y-101784669D01*
X156476465Y-101678127D01*
X156525501Y-101559744D01*
X156550500Y-101434069D01*
X156550500Y-101305931D01*
X156550500Y-101305928D01*
X156525502Y-101180261D01*
X156525501Y-101180260D01*
X156525501Y-101180256D01*
X156476465Y-101061873D01*
X156476464Y-101061872D01*
X156476461Y-101061866D01*
X156405276Y-100955331D01*
X156405273Y-100955327D01*
X156314672Y-100864726D01*
X156314668Y-100864723D01*
X156208133Y-100793538D01*
X156208124Y-100793533D01*
X156089744Y-100744499D01*
X156089738Y-100744497D01*
X155964071Y-100719500D01*
X155964069Y-100719500D01*
X155835931Y-100719500D01*
X155835929Y-100719500D01*
X155710261Y-100744497D01*
X155710255Y-100744499D01*
X155591875Y-100793533D01*
X155591866Y-100793538D01*
X155485331Y-100864723D01*
X155485327Y-100864726D01*
X155394726Y-100955327D01*
X155394723Y-100955331D01*
X155323538Y-101061866D01*
X155323533Y-101061875D01*
X155274499Y-101180255D01*
X155274497Y-101180261D01*
X155249500Y-101305928D01*
X155249500Y-101305931D01*
X155249500Y-101434069D01*
X155249500Y-101434071D01*
X155249499Y-101434071D01*
X154250500Y-101434071D01*
X154250500Y-101434069D01*
X154250500Y-101305931D01*
X154250500Y-101305928D01*
X154225502Y-101180261D01*
X154225501Y-101180260D01*
X154225501Y-101180256D01*
X154176465Y-101061873D01*
X154176464Y-101061872D01*
X154176461Y-101061866D01*
X154105276Y-100955331D01*
X154105273Y-100955327D01*
X154014672Y-100864726D01*
X154014668Y-100864723D01*
X153908133Y-100793538D01*
X153908124Y-100793533D01*
X153789744Y-100744499D01*
X153789738Y-100744497D01*
X153664071Y-100719500D01*
X153664069Y-100719500D01*
X153535931Y-100719500D01*
X153535929Y-100719500D01*
X153410261Y-100744497D01*
X153410255Y-100744499D01*
X153291875Y-100793533D01*
X153291866Y-100793538D01*
X153185331Y-100864723D01*
X153185327Y-100864726D01*
X153094726Y-100955327D01*
X153094723Y-100955331D01*
X153023538Y-101061866D01*
X153023533Y-101061875D01*
X152974499Y-101180255D01*
X152974497Y-101180261D01*
X152949500Y-101305928D01*
X152949500Y-101305931D01*
X152949500Y-101434069D01*
X152949500Y-101434071D01*
X152949499Y-101434071D01*
X134767790Y-101434071D01*
X134787776Y-101376954D01*
X134862767Y-101048394D01*
X134900500Y-100713504D01*
X134900500Y-100682399D01*
X146174500Y-100682399D01*
X146174500Y-100807601D01*
X146206905Y-100928536D01*
X146269505Y-101036964D01*
X146358036Y-101125495D01*
X146466464Y-101188095D01*
X146587399Y-101220500D01*
X146587401Y-101220500D01*
X146712599Y-101220500D01*
X146712601Y-101220500D01*
X146833536Y-101188095D01*
X146941964Y-101125495D01*
X147030495Y-101036964D01*
X147093095Y-100928536D01*
X147125500Y-100807601D01*
X147125500Y-100682399D01*
X147125500Y-100682109D01*
X147145185Y-100615070D01*
X147197989Y-100569315D01*
X147267147Y-100559371D01*
X147330703Y-100588396D01*
X147356888Y-100620110D01*
X147369503Y-100641962D01*
X147369505Y-100641964D01*
X147458036Y-100730495D01*
X147566464Y-100793095D01*
X147687399Y-100825500D01*
X147687401Y-100825500D01*
X147812599Y-100825500D01*
X147812601Y-100825500D01*
X147933536Y-100793095D01*
X148041964Y-100730495D01*
X148130495Y-100641964D01*
X148193095Y-100533536D01*
X148225500Y-100412601D01*
X148225500Y-100287399D01*
X148974500Y-100287399D01*
X148974500Y-100412601D01*
X149006905Y-100533536D01*
X149069505Y-100641964D01*
X149158036Y-100730495D01*
X149266464Y-100793095D01*
X149387399Y-100825500D01*
X149387401Y-100825500D01*
X149512599Y-100825500D01*
X149512601Y-100825500D01*
X149633536Y-100793095D01*
X149741964Y-100730495D01*
X149830495Y-100641964D01*
X149893095Y-100533536D01*
X149925500Y-100412601D01*
X149925500Y-100287399D01*
X149893095Y-100166464D01*
X149830495Y-100058036D01*
X149779858Y-100007399D01*
X150774500Y-100007399D01*
X150774500Y-100132601D01*
X150806905Y-100253536D01*
X150869505Y-100361964D01*
X150958036Y-100450495D01*
X151066464Y-100513095D01*
X151187399Y-100545500D01*
X151187401Y-100545500D01*
X151312599Y-100545500D01*
X151312601Y-100545500D01*
X151433536Y-100513095D01*
X151541964Y-100450495D01*
X151630495Y-100361964D01*
X151693095Y-100253536D01*
X151725500Y-100132601D01*
X151725500Y-100007399D01*
X151693095Y-99886464D01*
X151630495Y-99778036D01*
X151541964Y-99689505D01*
X151433536Y-99626905D01*
X151433537Y-99626905D01*
X151393224Y-99616103D01*
X151312601Y-99594500D01*
X151187399Y-99594500D01*
X151106775Y-99616103D01*
X151066463Y-99626905D01*
X150958037Y-99689504D01*
X150958034Y-99689506D01*
X150869506Y-99778034D01*
X150869504Y-99778037D01*
X150806905Y-99886463D01*
X150806905Y-99886464D01*
X150774500Y-100007399D01*
X149779858Y-100007399D01*
X149741964Y-99969505D01*
X149633536Y-99906905D01*
X149633537Y-99906905D01*
X149557250Y-99886464D01*
X149512601Y-99874500D01*
X149387399Y-99874500D01*
X149342750Y-99886464D01*
X149266463Y-99906905D01*
X149158037Y-99969504D01*
X149158034Y-99969506D01*
X149069506Y-100058034D01*
X149069504Y-100058037D01*
X149006905Y-100166463D01*
X149006905Y-100166464D01*
X148974500Y-100287399D01*
X148225500Y-100287399D01*
X148193095Y-100166464D01*
X148130495Y-100058036D01*
X148041964Y-99969505D01*
X147933536Y-99906905D01*
X147933537Y-99906905D01*
X147857250Y-99886464D01*
X147812601Y-99874500D01*
X147687399Y-99874500D01*
X147642750Y-99886464D01*
X147566463Y-99906905D01*
X147458037Y-99969504D01*
X147458034Y-99969506D01*
X147369506Y-100058034D01*
X147369504Y-100058037D01*
X147306905Y-100166463D01*
X147274500Y-100287400D01*
X147274500Y-100412890D01*
X147254815Y-100479929D01*
X147202011Y-100525684D01*
X147132853Y-100535628D01*
X147069297Y-100506603D01*
X147043113Y-100474891D01*
X147030495Y-100453036D01*
X146941965Y-100364506D01*
X146941964Y-100364505D01*
X146833536Y-100301905D01*
X146833537Y-100301905D01*
X146793224Y-100291103D01*
X146712601Y-100269500D01*
X146587399Y-100269500D01*
X146506775Y-100291103D01*
X146466463Y-100301905D01*
X146358037Y-100364504D01*
X146358034Y-100364506D01*
X146269506Y-100453034D01*
X146269504Y-100453037D01*
X146206905Y-100561463D01*
X146206905Y-100561464D01*
X146174500Y-100682399D01*
X134900500Y-100682399D01*
X134900500Y-100376496D01*
X134862767Y-100041606D01*
X134787776Y-99713046D01*
X134676469Y-99394949D01*
X134646346Y-99332399D01*
X135324500Y-99332399D01*
X135324500Y-99457601D01*
X135356905Y-99578536D01*
X135419505Y-99686964D01*
X135508036Y-99775495D01*
X135616464Y-99838095D01*
X135737399Y-99870500D01*
X135737401Y-99870500D01*
X135862599Y-99870500D01*
X135862601Y-99870500D01*
X135983536Y-99838095D01*
X136091964Y-99775495D01*
X136180495Y-99686964D01*
X136243095Y-99578536D01*
X136275500Y-99457601D01*
X136275500Y-99332399D01*
X136243095Y-99211464D01*
X136180495Y-99103036D01*
X136091964Y-99014505D01*
X135983536Y-98951905D01*
X135983537Y-98951905D01*
X135943224Y-98941103D01*
X135862601Y-98919500D01*
X135737399Y-98919500D01*
X135656775Y-98941103D01*
X135616463Y-98951905D01*
X135508037Y-99014504D01*
X135508034Y-99014506D01*
X135419506Y-99103034D01*
X135419504Y-99103037D01*
X135356905Y-99211463D01*
X135356905Y-99211464D01*
X135324500Y-99332399D01*
X134646346Y-99332399D01*
X134530246Y-99091314D01*
X134350946Y-98805961D01*
X134140825Y-98542477D01*
X133902523Y-98304175D01*
X133639039Y-98094054D01*
X133353686Y-97914754D01*
X133353683Y-97914752D01*
X133050054Y-97768532D01*
X132731965Y-97657227D01*
X132731953Y-97657223D01*
X132403397Y-97582233D01*
X132403381Y-97582231D01*
X132068508Y-97544500D01*
X132068504Y-97544500D01*
X131731496Y-97544500D01*
X131731491Y-97544500D01*
X131396618Y-97582231D01*
X131396602Y-97582233D01*
X131068046Y-97657223D01*
X131068034Y-97657227D01*
X130749945Y-97768532D01*
X130446316Y-97914752D01*
X130160962Y-98094053D01*
X129897477Y-98304174D01*
X129659174Y-98542477D01*
X129449053Y-98805962D01*
X129269752Y-99091316D01*
X129136220Y-99368599D01*
X129089398Y-99420458D01*
X129021970Y-99438771D01*
X128955347Y-99417723D01*
X128910678Y-99363997D01*
X128900500Y-99314797D01*
X128900500Y-97137399D01*
X142974500Y-97137399D01*
X142974500Y-97262601D01*
X143006905Y-97383536D01*
X143069505Y-97491964D01*
X143158036Y-97580495D01*
X143266464Y-97643095D01*
X143387399Y-97675500D01*
X143387401Y-97675500D01*
X143512600Y-97675500D01*
X143512601Y-97675500D01*
X143512601Y-97675499D01*
X143520658Y-97674439D01*
X143521037Y-97677318D01*
X143576892Y-97678631D01*
X143634766Y-97717776D01*
X143662290Y-97781996D01*
X143658946Y-97828848D01*
X143656905Y-97836463D01*
X143656905Y-97836464D01*
X143624500Y-97957399D01*
X143624500Y-98082601D01*
X143656905Y-98203536D01*
X143719505Y-98311964D01*
X143808036Y-98400495D01*
X143916464Y-98463095D01*
X144037399Y-98495500D01*
X144037401Y-98495500D01*
X144162599Y-98495500D01*
X144162601Y-98495500D01*
X144283536Y-98463095D01*
X144391964Y-98400495D01*
X144480495Y-98311964D01*
X144543095Y-98203536D01*
X144575500Y-98082601D01*
X144575500Y-97957399D01*
X145624500Y-97957399D01*
X145624500Y-98082601D01*
X145656905Y-98203536D01*
X145719505Y-98311964D01*
X145808036Y-98400495D01*
X145916464Y-98463095D01*
X146037399Y-98495500D01*
X146037401Y-98495500D01*
X146162599Y-98495500D01*
X146162601Y-98495500D01*
X146283536Y-98463095D01*
X146391964Y-98400495D01*
X146480495Y-98311964D01*
X146543095Y-98203536D01*
X146575500Y-98082601D01*
X146575500Y-97957399D01*
X146543095Y-97836464D01*
X146480495Y-97728036D01*
X146391964Y-97639505D01*
X146283536Y-97576905D01*
X146283537Y-97576905D01*
X146213337Y-97558095D01*
X146162601Y-97544500D01*
X146037399Y-97544500D01*
X145986663Y-97558095D01*
X145916463Y-97576905D01*
X145808037Y-97639504D01*
X145808034Y-97639506D01*
X145719506Y-97728034D01*
X145719504Y-97728037D01*
X145656905Y-97836463D01*
X145656905Y-97836464D01*
X145624500Y-97957399D01*
X144575500Y-97957399D01*
X144543095Y-97836464D01*
X144480495Y-97728036D01*
X144391964Y-97639505D01*
X144283536Y-97576905D01*
X144283537Y-97576905D01*
X144213337Y-97558095D01*
X144162601Y-97544500D01*
X144037399Y-97544500D01*
X144037398Y-97544500D01*
X144029342Y-97545561D01*
X144028964Y-97542691D01*
X143973047Y-97541349D01*
X143915193Y-97502175D01*
X143887702Y-97437941D01*
X143891054Y-97391150D01*
X143893093Y-97383538D01*
X143893095Y-97383536D01*
X143925500Y-97262601D01*
X143925500Y-97137399D01*
X143893095Y-97016464D01*
X143830495Y-96908036D01*
X143741964Y-96819505D01*
X143633536Y-96756905D01*
X143633537Y-96756905D01*
X143590973Y-96745500D01*
X143512601Y-96724500D01*
X143387399Y-96724500D01*
X143309027Y-96745500D01*
X143266463Y-96756905D01*
X143158037Y-96819504D01*
X143158034Y-96819506D01*
X143069506Y-96908034D01*
X143069504Y-96908037D01*
X143006905Y-97016463D01*
X143006905Y-97016464D01*
X142974500Y-97137399D01*
X128900500Y-97137399D01*
X128900500Y-96207399D01*
X138349500Y-96207399D01*
X138349500Y-96332601D01*
X138381905Y-96453536D01*
X138444505Y-96561964D01*
X138533036Y-96650495D01*
X138641464Y-96713095D01*
X138762399Y-96745500D01*
X138762401Y-96745500D01*
X138887599Y-96745500D01*
X138887601Y-96745500D01*
X139008536Y-96713095D01*
X139116964Y-96650495D01*
X139205495Y-96561964D01*
X139268095Y-96453536D01*
X139300500Y-96332601D01*
X139300500Y-96207399D01*
X139268095Y-96086464D01*
X139205495Y-95978036D01*
X139116964Y-95889505D01*
X139116963Y-95889504D01*
X139116960Y-95889502D01*
X139112035Y-95886659D01*
X139008536Y-95826905D01*
X139008537Y-95826905D01*
X138968224Y-95816103D01*
X138887601Y-95794500D01*
X138762399Y-95794500D01*
X138681775Y-95816103D01*
X138641463Y-95826905D01*
X138533037Y-95889504D01*
X138533034Y-95889506D01*
X138444506Y-95978034D01*
X138444504Y-95978037D01*
X138381905Y-96086463D01*
X138381905Y-96086464D01*
X138349500Y-96207399D01*
X128900500Y-96207399D01*
X128900500Y-95187399D01*
X129374500Y-95187399D01*
X129374500Y-95312601D01*
X129406905Y-95433536D01*
X129469505Y-95541964D01*
X129558036Y-95630495D01*
X129666464Y-95693095D01*
X129787399Y-95725500D01*
X129787401Y-95725500D01*
X129912599Y-95725500D01*
X129912601Y-95725500D01*
X130033536Y-95693095D01*
X130141964Y-95630495D01*
X130230495Y-95541964D01*
X130293095Y-95433536D01*
X130306797Y-95382400D01*
X130306797Y-95382399D01*
X134624500Y-95382399D01*
X134624500Y-95507601D01*
X134656905Y-95628536D01*
X134719505Y-95736964D01*
X134808036Y-95825495D01*
X134916464Y-95888095D01*
X135037399Y-95920500D01*
X135037401Y-95920500D01*
X135162599Y-95920500D01*
X135162601Y-95920500D01*
X135283536Y-95888095D01*
X135391964Y-95825495D01*
X135430060Y-95787399D01*
X142874500Y-95787399D01*
X142874500Y-95912601D01*
X142906905Y-96033536D01*
X142969505Y-96141964D01*
X143058036Y-96230495D01*
X143166464Y-96293095D01*
X143287399Y-96325500D01*
X143287401Y-96325500D01*
X143412599Y-96325500D01*
X143412601Y-96325500D01*
X143533536Y-96293095D01*
X143641964Y-96230495D01*
X143730495Y-96141964D01*
X143793095Y-96033536D01*
X143825500Y-95912601D01*
X143825500Y-95787399D01*
X143793095Y-95666464D01*
X143730495Y-95558036D01*
X143641964Y-95469505D01*
X143533536Y-95406905D01*
X143533537Y-95406905D01*
X143493224Y-95396103D01*
X143412601Y-95374500D01*
X143287399Y-95374500D01*
X143206775Y-95396103D01*
X143166463Y-95406905D01*
X143058037Y-95469504D01*
X143058034Y-95469506D01*
X142969506Y-95558034D01*
X142969504Y-95558037D01*
X142906905Y-95666463D01*
X142906905Y-95666464D01*
X142874500Y-95787399D01*
X135430060Y-95787399D01*
X135480495Y-95736964D01*
X135543095Y-95628536D01*
X135575500Y-95507601D01*
X135575500Y-95382399D01*
X135543095Y-95261464D01*
X135529201Y-95237399D01*
X146274500Y-95237399D01*
X146274500Y-95362601D01*
X146306905Y-95483536D01*
X146369505Y-95591964D01*
X146458036Y-95680495D01*
X146566464Y-95743095D01*
X146687399Y-95775500D01*
X146687401Y-95775500D01*
X146695458Y-95776561D01*
X146695131Y-95779039D01*
X146750115Y-95795185D01*
X146795870Y-95847989D01*
X146805814Y-95917147D01*
X146802851Y-95931591D01*
X146774500Y-96037399D01*
X146774500Y-96162601D01*
X146806905Y-96283536D01*
X146869505Y-96391964D01*
X146958036Y-96480495D01*
X147066464Y-96543095D01*
X147096065Y-96551026D01*
X147155725Y-96587392D01*
X147186253Y-96650239D01*
X147183745Y-96702893D01*
X147174500Y-96737396D01*
X147174500Y-96737399D01*
X147174500Y-96862601D01*
X147206905Y-96983536D01*
X147269505Y-97091964D01*
X147358036Y-97180495D01*
X147466464Y-97243095D01*
X147587399Y-97275500D01*
X147587401Y-97275500D01*
X147712599Y-97275500D01*
X147712601Y-97275500D01*
X147833536Y-97243095D01*
X147941964Y-97180495D01*
X148030495Y-97091964D01*
X148053338Y-97052399D01*
X152124500Y-97052399D01*
X152124500Y-97177601D01*
X152156905Y-97298536D01*
X152219505Y-97406964D01*
X152308036Y-97495495D01*
X152416464Y-97558095D01*
X152537399Y-97590500D01*
X152537401Y-97590500D01*
X152662599Y-97590500D01*
X152662601Y-97590500D01*
X152783536Y-97558095D01*
X152891964Y-97495495D01*
X152980495Y-97406964D01*
X153043095Y-97298536D01*
X153075500Y-97177601D01*
X153075500Y-97052399D01*
X153043095Y-96931464D01*
X152980495Y-96823036D01*
X152891964Y-96734505D01*
X152783536Y-96671905D01*
X152783537Y-96671905D01*
X152743224Y-96661103D01*
X152662601Y-96639500D01*
X152537399Y-96639500D01*
X152456775Y-96661103D01*
X152416463Y-96671905D01*
X152308037Y-96734504D01*
X152308034Y-96734506D01*
X152219506Y-96823034D01*
X152219504Y-96823037D01*
X152156905Y-96931463D01*
X152156905Y-96931464D01*
X152124500Y-97052399D01*
X148053338Y-97052399D01*
X148093095Y-96983536D01*
X148125500Y-96862601D01*
X148125500Y-96737399D01*
X148093095Y-96616464D01*
X148030495Y-96508036D01*
X147941964Y-96419505D01*
X147833536Y-96356905D01*
X147833534Y-96356904D01*
X147803932Y-96348972D01*
X147744273Y-96312606D01*
X147713745Y-96249758D01*
X147716255Y-96197103D01*
X147725499Y-96162603D01*
X147725500Y-96162600D01*
X147725500Y-96037400D01*
X147724465Y-96033536D01*
X147693095Y-95916464D01*
X147630495Y-95808036D01*
X147541964Y-95719505D01*
X147433536Y-95656905D01*
X147433537Y-95656905D01*
X147312598Y-95624499D01*
X147304542Y-95623439D01*
X147304868Y-95620960D01*
X147249885Y-95604815D01*
X147204130Y-95552011D01*
X147194186Y-95482853D01*
X147197149Y-95468406D01*
X147200609Y-95455493D01*
X147225500Y-95362601D01*
X147225500Y-95237399D01*
X147193095Y-95116464D01*
X147164115Y-95066268D01*
X147133014Y-95012399D01*
X151524500Y-95012399D01*
X151524500Y-95137601D01*
X151556905Y-95258536D01*
X151619505Y-95366964D01*
X151708036Y-95455495D01*
X151816464Y-95518095D01*
X151937399Y-95550500D01*
X151937401Y-95550500D01*
X152062599Y-95550500D01*
X152062601Y-95550500D01*
X152183536Y-95518095D01*
X152291964Y-95455495D01*
X152380495Y-95366964D01*
X152443095Y-95258536D01*
X152475500Y-95137601D01*
X152475500Y-95012399D01*
X152443095Y-94891464D01*
X152380495Y-94783036D01*
X152291964Y-94694505D01*
X152183536Y-94631905D01*
X152183537Y-94631905D01*
X152143224Y-94621103D01*
X152062601Y-94599500D01*
X151937399Y-94599500D01*
X151856775Y-94621103D01*
X151816463Y-94631905D01*
X151708037Y-94694504D01*
X151708034Y-94694506D01*
X151619506Y-94783034D01*
X151619504Y-94783037D01*
X151556905Y-94891463D01*
X151549391Y-94919505D01*
X151524500Y-95012399D01*
X147133014Y-95012399D01*
X147130497Y-95008039D01*
X147130496Y-95008037D01*
X147130495Y-95008036D01*
X147041964Y-94919505D01*
X146933536Y-94856905D01*
X146933537Y-94856905D01*
X146893224Y-94846103D01*
X146812601Y-94824500D01*
X146687399Y-94824500D01*
X146606775Y-94846103D01*
X146566463Y-94856905D01*
X146458037Y-94919504D01*
X146458034Y-94919506D01*
X146369506Y-95008034D01*
X146369504Y-95008037D01*
X146306905Y-95116463D01*
X146306905Y-95116464D01*
X146274500Y-95237399D01*
X135529201Y-95237399D01*
X135480495Y-95153036D01*
X135391964Y-95064505D01*
X135283536Y-95001905D01*
X135283537Y-95001905D01*
X135243224Y-94991103D01*
X135162601Y-94969500D01*
X135037399Y-94969500D01*
X134956775Y-94991103D01*
X134916463Y-95001905D01*
X134808037Y-95064504D01*
X134808034Y-95064506D01*
X134719506Y-95153034D01*
X134719504Y-95153037D01*
X134656905Y-95261463D01*
X134656905Y-95261464D01*
X134624500Y-95382399D01*
X130306797Y-95382399D01*
X130317576Y-95342176D01*
X130320933Y-95329643D01*
X130325500Y-95312601D01*
X130325500Y-95187399D01*
X130293095Y-95066464D01*
X130230495Y-94958036D01*
X130141964Y-94869505D01*
X130033536Y-94806905D01*
X130033537Y-94806905D01*
X129993224Y-94796103D01*
X129912601Y-94774500D01*
X129787399Y-94774500D01*
X129706775Y-94796103D01*
X129666463Y-94806905D01*
X129558037Y-94869504D01*
X129558034Y-94869506D01*
X129469506Y-94958034D01*
X129469504Y-94958037D01*
X129406905Y-95066463D01*
X129406905Y-95066464D01*
X129374500Y-95187399D01*
X128900500Y-95187399D01*
X128900500Y-94092399D01*
X154047000Y-94092399D01*
X154047000Y-94217601D01*
X154079405Y-94338536D01*
X154142005Y-94446964D01*
X154230536Y-94535495D01*
X154338964Y-94598095D01*
X154459899Y-94630500D01*
X154459901Y-94630500D01*
X154585099Y-94630500D01*
X154585101Y-94630500D01*
X154706036Y-94598095D01*
X154814464Y-94535495D01*
X154902995Y-94446964D01*
X154965595Y-94338536D01*
X154998000Y-94217601D01*
X154998000Y-94092399D01*
X154965595Y-93971464D01*
X154902995Y-93863036D01*
X154814464Y-93774505D01*
X154706036Y-93711905D01*
X154706037Y-93711905D01*
X154656714Y-93698689D01*
X154585101Y-93679500D01*
X154459899Y-93679500D01*
X154388286Y-93698689D01*
X154338963Y-93711905D01*
X154230537Y-93774504D01*
X154230534Y-93774506D01*
X154142006Y-93863034D01*
X154142004Y-93863037D01*
X154079405Y-93971463D01*
X154063202Y-94031931D01*
X154047000Y-94092399D01*
X128900500Y-94092399D01*
X128900500Y-93437399D01*
X134624500Y-93437399D01*
X134624500Y-93562601D01*
X134656905Y-93683536D01*
X134719505Y-93791964D01*
X134808036Y-93880495D01*
X134916464Y-93943095D01*
X135037399Y-93975500D01*
X135037401Y-93975500D01*
X135162599Y-93975500D01*
X135162601Y-93975500D01*
X135283536Y-93943095D01*
X135391964Y-93880495D01*
X135480495Y-93791964D01*
X135543095Y-93683536D01*
X135575500Y-93562601D01*
X135575500Y-93437399D01*
X135562102Y-93387399D01*
X146424500Y-93387399D01*
X146424500Y-93512601D01*
X146456905Y-93633536D01*
X146519505Y-93741964D01*
X146608036Y-93830495D01*
X146716464Y-93893095D01*
X146837399Y-93925500D01*
X146837401Y-93925500D01*
X146962599Y-93925500D01*
X146962601Y-93925500D01*
X147083536Y-93893095D01*
X147191964Y-93830495D01*
X147280495Y-93741964D01*
X147305480Y-93698688D01*
X147356046Y-93650473D01*
X147424652Y-93637249D01*
X147489518Y-93663217D01*
X147500548Y-93673007D01*
X147508036Y-93680495D01*
X147616464Y-93743095D01*
X147737399Y-93775500D01*
X147737401Y-93775500D01*
X147862599Y-93775500D01*
X147862601Y-93775500D01*
X147983536Y-93743095D01*
X148091964Y-93680495D01*
X148180495Y-93591964D01*
X148243095Y-93483536D01*
X148275500Y-93362601D01*
X148275500Y-93237399D01*
X148243095Y-93116464D01*
X148180495Y-93008036D01*
X148091964Y-92919505D01*
X147983536Y-92856905D01*
X147983537Y-92856905D01*
X147928780Y-92842233D01*
X147862601Y-92824500D01*
X147737399Y-92824500D01*
X147671220Y-92842233D01*
X147616463Y-92856905D01*
X147508037Y-92919504D01*
X147508034Y-92919506D01*
X147419506Y-93008034D01*
X147419500Y-93008042D01*
X147394518Y-93051312D01*
X147343951Y-93099527D01*
X147275344Y-93112749D01*
X147210479Y-93086781D01*
X147199451Y-93076992D01*
X147191965Y-93069506D01*
X147191964Y-93069505D01*
X147083536Y-93006905D01*
X147083537Y-93006905D01*
X147027769Y-92991962D01*
X146962601Y-92974500D01*
X146837399Y-92974500D01*
X146772231Y-92991962D01*
X146716463Y-93006905D01*
X146608037Y-93069504D01*
X146608034Y-93069506D01*
X146519506Y-93158034D01*
X146519504Y-93158037D01*
X146456905Y-93266463D01*
X146456905Y-93266464D01*
X146424500Y-93387399D01*
X135562102Y-93387399D01*
X135543095Y-93316464D01*
X135480495Y-93208036D01*
X135394609Y-93122150D01*
X135361124Y-93060827D01*
X135366108Y-92991135D01*
X135407980Y-92935202D01*
X135420281Y-92927087D01*
X135526964Y-92865495D01*
X135615495Y-92776964D01*
X135678095Y-92668536D01*
X135686438Y-92637399D01*
X142524500Y-92637399D01*
X142524500Y-92762601D01*
X142556905Y-92883536D01*
X142619505Y-92991964D01*
X142708036Y-93080495D01*
X142816464Y-93143095D01*
X142937399Y-93175500D01*
X142937401Y-93175500D01*
X143062599Y-93175500D01*
X143062601Y-93175500D01*
X143183536Y-93143095D01*
X143291964Y-93080495D01*
X143380495Y-92991964D01*
X143443095Y-92883536D01*
X143475500Y-92762601D01*
X143475500Y-92637399D01*
X143443095Y-92516464D01*
X143380495Y-92408036D01*
X143291964Y-92319505D01*
X143183536Y-92256905D01*
X143183537Y-92256905D01*
X143143224Y-92246103D01*
X143062601Y-92224500D01*
X142937399Y-92224500D01*
X142856775Y-92246103D01*
X142816463Y-92256905D01*
X142708037Y-92319504D01*
X142708034Y-92319506D01*
X142619506Y-92408034D01*
X142619504Y-92408037D01*
X142556905Y-92516463D01*
X142551459Y-92536787D01*
X142524500Y-92637399D01*
X135686438Y-92637399D01*
X135710500Y-92547601D01*
X135710500Y-92422399D01*
X135678095Y-92301464D01*
X135615495Y-92193036D01*
X135526964Y-92104505D01*
X135418536Y-92041905D01*
X135418537Y-92041905D01*
X135378224Y-92031103D01*
X135297601Y-92009500D01*
X135172399Y-92009500D01*
X135091775Y-92031103D01*
X135051463Y-92041905D01*
X134943037Y-92104504D01*
X134943034Y-92104506D01*
X134854506Y-92193034D01*
X134854504Y-92193037D01*
X134791905Y-92301463D01*
X134776763Y-92357973D01*
X134759500Y-92422399D01*
X134759500Y-92547601D01*
X134791905Y-92668536D01*
X134846211Y-92762599D01*
X134854504Y-92776962D01*
X134854506Y-92776965D01*
X134940390Y-92862849D01*
X134973875Y-92924172D01*
X134968891Y-92993864D01*
X134927019Y-93049797D01*
X134914709Y-93057917D01*
X134808039Y-93119502D01*
X134808034Y-93119506D01*
X134719506Y-93208034D01*
X134719504Y-93208037D01*
X134656905Y-93316463D01*
X134654029Y-93327198D01*
X134624500Y-93437399D01*
X128900500Y-93437399D01*
X128900500Y-91937399D01*
X138774500Y-91937399D01*
X138774500Y-92062601D01*
X138806905Y-92183536D01*
X138869505Y-92291964D01*
X138958036Y-92380495D01*
X139066464Y-92443095D01*
X139187399Y-92475500D01*
X139187401Y-92475500D01*
X139312599Y-92475500D01*
X139312601Y-92475500D01*
X139433536Y-92443095D01*
X139541964Y-92380495D01*
X139630495Y-92291964D01*
X139693095Y-92183536D01*
X139725500Y-92062601D01*
X139725500Y-91937399D01*
X151774500Y-91937399D01*
X151774500Y-92062601D01*
X151806905Y-92183536D01*
X151869505Y-92291964D01*
X151958036Y-92380495D01*
X151958037Y-92380496D01*
X151958039Y-92380497D01*
X152022326Y-92417613D01*
X152070541Y-92468180D01*
X152083765Y-92536787D01*
X152057797Y-92601651D01*
X152022326Y-92632387D01*
X151958039Y-92669502D01*
X151958034Y-92669506D01*
X151869506Y-92758034D01*
X151869504Y-92758037D01*
X151806905Y-92866463D01*
X151806905Y-92866464D01*
X151774500Y-92987399D01*
X151774500Y-93112601D01*
X151806905Y-93233536D01*
X151869505Y-93341964D01*
X151958036Y-93430495D01*
X152066464Y-93493095D01*
X152187399Y-93525500D01*
X152187401Y-93525500D01*
X152312599Y-93525500D01*
X152312601Y-93525500D01*
X152433536Y-93493095D01*
X152541964Y-93430495D01*
X152630495Y-93341964D01*
X152693095Y-93233536D01*
X152725500Y-93112601D01*
X152725500Y-92987399D01*
X152693095Y-92866464D01*
X152630495Y-92758036D01*
X152541964Y-92669505D01*
X152541963Y-92669504D01*
X152504070Y-92647627D01*
X152477673Y-92632387D01*
X152429458Y-92581821D01*
X152416234Y-92513214D01*
X152442202Y-92448349D01*
X152477672Y-92417612D01*
X152541964Y-92380495D01*
X152630495Y-92291964D01*
X152693095Y-92183536D01*
X152725500Y-92062601D01*
X152725500Y-91937399D01*
X152693095Y-91816464D01*
X152630495Y-91708036D01*
X152541964Y-91619505D01*
X152433536Y-91556905D01*
X152433537Y-91556905D01*
X152393224Y-91546103D01*
X152312601Y-91524500D01*
X152187399Y-91524500D01*
X152106775Y-91546103D01*
X152066463Y-91556905D01*
X151958037Y-91619504D01*
X151958034Y-91619506D01*
X151869506Y-91708034D01*
X151869504Y-91708037D01*
X151806905Y-91816463D01*
X151806905Y-91816464D01*
X151774500Y-91937399D01*
X139725500Y-91937399D01*
X139693095Y-91816464D01*
X139630495Y-91708036D01*
X139541964Y-91619505D01*
X139433536Y-91556905D01*
X139433537Y-91556905D01*
X139393224Y-91546103D01*
X139312601Y-91524500D01*
X139187399Y-91524500D01*
X139106775Y-91546103D01*
X139066463Y-91556905D01*
X138958037Y-91619504D01*
X138958034Y-91619506D01*
X138869506Y-91708034D01*
X138869504Y-91708037D01*
X138806905Y-91816463D01*
X138806905Y-91816464D01*
X138774500Y-91937399D01*
X128900500Y-91937399D01*
X128900500Y-90037399D01*
X129374500Y-90037399D01*
X129374500Y-90162601D01*
X129406905Y-90283536D01*
X129469505Y-90391964D01*
X129558036Y-90480495D01*
X129666464Y-90543095D01*
X129787399Y-90575500D01*
X129787401Y-90575500D01*
X129912599Y-90575500D01*
X129912601Y-90575500D01*
X130033536Y-90543095D01*
X130141964Y-90480495D01*
X130230495Y-90391964D01*
X130293095Y-90283536D01*
X130325500Y-90162601D01*
X130325500Y-90132399D01*
X132024500Y-90132399D01*
X132024500Y-90257601D01*
X132056905Y-90378536D01*
X132119505Y-90486964D01*
X132208036Y-90575495D01*
X132316464Y-90638095D01*
X132437399Y-90670500D01*
X132437401Y-90670500D01*
X132562599Y-90670500D01*
X132562601Y-90670500D01*
X132683536Y-90638095D01*
X132791964Y-90575495D01*
X132880495Y-90486964D01*
X132943095Y-90378536D01*
X132954118Y-90337399D01*
X135824500Y-90337399D01*
X135824500Y-90462601D01*
X135846069Y-90543095D01*
X135856905Y-90583536D01*
X135919504Y-90691962D01*
X135919506Y-90691965D01*
X135937360Y-90709819D01*
X135970845Y-90771142D01*
X135965861Y-90840834D01*
X135937360Y-90885181D01*
X135919506Y-90903034D01*
X135919504Y-90903037D01*
X135856905Y-91011463D01*
X135840702Y-91071931D01*
X135824500Y-91132399D01*
X135824500Y-91257601D01*
X135856905Y-91378536D01*
X135919505Y-91486964D01*
X136008036Y-91575495D01*
X136116464Y-91638095D01*
X136237399Y-91670500D01*
X136237401Y-91670500D01*
X136362599Y-91670500D01*
X136362601Y-91670500D01*
X136483536Y-91638095D01*
X136591964Y-91575495D01*
X136680495Y-91486964D01*
X136743095Y-91378536D01*
X136775500Y-91257601D01*
X136775500Y-91132399D01*
X136743095Y-91011464D01*
X136680495Y-90903036D01*
X136662640Y-90885181D01*
X136629155Y-90823858D01*
X136634139Y-90754166D01*
X136662640Y-90709819D01*
X136668630Y-90703829D01*
X136680495Y-90691964D01*
X136743095Y-90583536D01*
X136775500Y-90462601D01*
X136775500Y-90437399D01*
X140774500Y-90437399D01*
X140774500Y-90562601D01*
X140806905Y-90683536D01*
X140869505Y-90791964D01*
X140958036Y-90880495D01*
X141066464Y-90943095D01*
X141187399Y-90975500D01*
X141187401Y-90975500D01*
X141312599Y-90975500D01*
X141312601Y-90975500D01*
X141433536Y-90943095D01*
X141541964Y-90880495D01*
X141630495Y-90791964D01*
X141693095Y-90683536D01*
X141725500Y-90562601D01*
X141725500Y-90437399D01*
X141693095Y-90316464D01*
X141630495Y-90208036D01*
X141541964Y-90119505D01*
X141433536Y-90056905D01*
X141433537Y-90056905D01*
X141381997Y-90043095D01*
X141312601Y-90024500D01*
X141187399Y-90024500D01*
X141118003Y-90043095D01*
X141066463Y-90056905D01*
X140958037Y-90119504D01*
X140958034Y-90119506D01*
X140869506Y-90208034D01*
X140869504Y-90208037D01*
X140806905Y-90316463D01*
X140806905Y-90316464D01*
X140774500Y-90437399D01*
X136775500Y-90437399D01*
X136775500Y-90337399D01*
X136743095Y-90216464D01*
X136680495Y-90108036D01*
X136591964Y-90019505D01*
X136483536Y-89956905D01*
X136483537Y-89956905D01*
X136443224Y-89946103D01*
X136362601Y-89924500D01*
X136237399Y-89924500D01*
X136156775Y-89946103D01*
X136116463Y-89956905D01*
X136008037Y-90019504D01*
X136008034Y-90019506D01*
X135919506Y-90108034D01*
X135919504Y-90108037D01*
X135856905Y-90216463D01*
X135856905Y-90216464D01*
X135824500Y-90337399D01*
X132954118Y-90337399D01*
X132975500Y-90257601D01*
X132975500Y-90132399D01*
X132943095Y-90011464D01*
X132880495Y-89903036D01*
X132791964Y-89814505D01*
X132683536Y-89751905D01*
X132683537Y-89751905D01*
X132643224Y-89741103D01*
X132562601Y-89719500D01*
X132437399Y-89719500D01*
X132356775Y-89741103D01*
X132316463Y-89751905D01*
X132208037Y-89814504D01*
X132208034Y-89814506D01*
X132119506Y-89903034D01*
X132119504Y-89903037D01*
X132056905Y-90011463D01*
X132048429Y-90043095D01*
X132024500Y-90132399D01*
X130325500Y-90132399D01*
X130325500Y-90037399D01*
X130293095Y-89916464D01*
X130230495Y-89808036D01*
X130141964Y-89719505D01*
X130033536Y-89656905D01*
X130033537Y-89656905D01*
X129993224Y-89646103D01*
X129912601Y-89624500D01*
X129787399Y-89624500D01*
X129706775Y-89646103D01*
X129666463Y-89656905D01*
X129558037Y-89719504D01*
X129558034Y-89719506D01*
X129469506Y-89808034D01*
X129469504Y-89808037D01*
X129406905Y-89916463D01*
X129402006Y-89934748D01*
X129374500Y-90037399D01*
X128900500Y-90037399D01*
X128900500Y-88687399D01*
X137024500Y-88687399D01*
X137024500Y-88812601D01*
X137056905Y-88933536D01*
X137119505Y-89041964D01*
X137208036Y-89130495D01*
X137316464Y-89193095D01*
X137437399Y-89225500D01*
X137437401Y-89225500D01*
X137562599Y-89225500D01*
X137562601Y-89225500D01*
X137683536Y-89193095D01*
X137791964Y-89130495D01*
X137880495Y-89041964D01*
X137943095Y-88933536D01*
X137943400Y-88932399D01*
X140124500Y-88932399D01*
X140124500Y-89057601D01*
X140156905Y-89178536D01*
X140219505Y-89286964D01*
X140308036Y-89375495D01*
X140416464Y-89438095D01*
X140537399Y-89470500D01*
X140537401Y-89470500D01*
X140662599Y-89470500D01*
X140662601Y-89470500D01*
X140783536Y-89438095D01*
X140891964Y-89375495D01*
X140980495Y-89286964D01*
X141043095Y-89178536D01*
X141075500Y-89057601D01*
X141075500Y-88932399D01*
X141068801Y-88907399D01*
X142624500Y-88907399D01*
X142624500Y-89032601D01*
X142656905Y-89153536D01*
X142719505Y-89261964D01*
X142808036Y-89350495D01*
X142916464Y-89413095D01*
X143037399Y-89445500D01*
X143037401Y-89445500D01*
X143162599Y-89445500D01*
X143162601Y-89445500D01*
X143283536Y-89413095D01*
X143391964Y-89350495D01*
X143438472Y-89303986D01*
X143499793Y-89270502D01*
X143569484Y-89275486D01*
X143625418Y-89317357D01*
X143633540Y-89329669D01*
X143669503Y-89391962D01*
X143669505Y-89391964D01*
X143758036Y-89480495D01*
X143866464Y-89543095D01*
X143987399Y-89575500D01*
X143987401Y-89575500D01*
X144112599Y-89575500D01*
X144112601Y-89575500D01*
X144233536Y-89543095D01*
X144243402Y-89537399D01*
X146824500Y-89537399D01*
X146824500Y-89662601D01*
X146856905Y-89783536D01*
X146919505Y-89891964D01*
X147008036Y-89980495D01*
X147116464Y-90043095D01*
X147237399Y-90075500D01*
X147237401Y-90075500D01*
X147362599Y-90075500D01*
X147362601Y-90075500D01*
X147483536Y-90043095D01*
X147591964Y-89980495D01*
X147680495Y-89891964D01*
X147743095Y-89783536D01*
X147775500Y-89662601D01*
X147775500Y-89537399D01*
X147743095Y-89416464D01*
X147680495Y-89308036D01*
X147591964Y-89219505D01*
X147483536Y-89156905D01*
X147483537Y-89156905D01*
X147443224Y-89146103D01*
X147362601Y-89124500D01*
X147237399Y-89124500D01*
X147156775Y-89146103D01*
X147116463Y-89156905D01*
X147008037Y-89219504D01*
X147008034Y-89219506D01*
X146919506Y-89308034D01*
X146919504Y-89308037D01*
X146856905Y-89416463D01*
X146856905Y-89416464D01*
X146824500Y-89537399D01*
X144243402Y-89537399D01*
X144341964Y-89480495D01*
X144430495Y-89391964D01*
X144493095Y-89283536D01*
X144525500Y-89162601D01*
X144525500Y-89037399D01*
X144497365Y-88932399D01*
X145124500Y-88932399D01*
X145124500Y-89057601D01*
X145156905Y-89178536D01*
X145219505Y-89286964D01*
X145308036Y-89375495D01*
X145416464Y-89438095D01*
X145537399Y-89470500D01*
X145537401Y-89470500D01*
X145662599Y-89470500D01*
X145662601Y-89470500D01*
X145783536Y-89438095D01*
X145891964Y-89375495D01*
X145980495Y-89286964D01*
X146043095Y-89178536D01*
X146075500Y-89057601D01*
X146075500Y-88932399D01*
X146043095Y-88811464D01*
X145980495Y-88703036D01*
X145891964Y-88614505D01*
X145783536Y-88551905D01*
X145783537Y-88551905D01*
X145743224Y-88541103D01*
X145662601Y-88519500D01*
X145537399Y-88519500D01*
X145456775Y-88541103D01*
X145416463Y-88551905D01*
X145308037Y-88614504D01*
X145308034Y-88614506D01*
X145219506Y-88703034D01*
X145219504Y-88703037D01*
X145156905Y-88811463D01*
X145156905Y-88811464D01*
X145124500Y-88932399D01*
X144497365Y-88932399D01*
X144493095Y-88916464D01*
X144430495Y-88808036D01*
X144341964Y-88719505D01*
X144233536Y-88656905D01*
X144233537Y-88656905D01*
X144193224Y-88646103D01*
X144112601Y-88624500D01*
X143987399Y-88624500D01*
X143906775Y-88646103D01*
X143866463Y-88656905D01*
X143758037Y-88719504D01*
X143758034Y-88719506D01*
X143711527Y-88766013D01*
X143650204Y-88799497D01*
X143580512Y-88794512D01*
X143524579Y-88752640D01*
X143516459Y-88740329D01*
X143500392Y-88712500D01*
X143480495Y-88678036D01*
X143391964Y-88589505D01*
X143283536Y-88526905D01*
X143283537Y-88526905D01*
X143243224Y-88516103D01*
X143162601Y-88494500D01*
X143037399Y-88494500D01*
X142956775Y-88516103D01*
X142916463Y-88526905D01*
X142808037Y-88589504D01*
X142808034Y-88589506D01*
X142719506Y-88678034D01*
X142719504Y-88678037D01*
X142656905Y-88786463D01*
X142653413Y-88799497D01*
X142624500Y-88907399D01*
X141068801Y-88907399D01*
X141043095Y-88811464D01*
X140980495Y-88703036D01*
X140891964Y-88614505D01*
X140783536Y-88551905D01*
X140783537Y-88551905D01*
X140743224Y-88541103D01*
X140662601Y-88519500D01*
X140537399Y-88519500D01*
X140456775Y-88541103D01*
X140416463Y-88551905D01*
X140308037Y-88614504D01*
X140308034Y-88614506D01*
X140219506Y-88703034D01*
X140219504Y-88703037D01*
X140156905Y-88811463D01*
X140156905Y-88811464D01*
X140124500Y-88932399D01*
X137943400Y-88932399D01*
X137975500Y-88812601D01*
X137975500Y-88687399D01*
X137943095Y-88566464D01*
X137880495Y-88458036D01*
X137791964Y-88369505D01*
X137683536Y-88306905D01*
X137683537Y-88306905D01*
X137643224Y-88296103D01*
X137562601Y-88274500D01*
X137437399Y-88274500D01*
X137356775Y-88296103D01*
X137316463Y-88306905D01*
X137208037Y-88369504D01*
X137208034Y-88369506D01*
X137119506Y-88458034D01*
X137119504Y-88458037D01*
X137056905Y-88566463D01*
X137056905Y-88566464D01*
X137024500Y-88687399D01*
X128900500Y-88687399D01*
X128900500Y-86682399D01*
X143124500Y-86682399D01*
X143124500Y-86807601D01*
X143156905Y-86928536D01*
X143219505Y-87036964D01*
X143308036Y-87125495D01*
X143416464Y-87188095D01*
X143537399Y-87220500D01*
X143537401Y-87220500D01*
X143662599Y-87220500D01*
X143662601Y-87220500D01*
X143783536Y-87188095D01*
X143891964Y-87125495D01*
X143980495Y-87036964D01*
X144043095Y-86928536D01*
X144075500Y-86807601D01*
X144075500Y-86682399D01*
X144043095Y-86561464D01*
X143980495Y-86453036D01*
X143891964Y-86364505D01*
X143783536Y-86301905D01*
X143783537Y-86301905D01*
X143743224Y-86291103D01*
X143662601Y-86269500D01*
X143537399Y-86269500D01*
X143456775Y-86291103D01*
X143416463Y-86301905D01*
X143308037Y-86364504D01*
X143308034Y-86364506D01*
X143219506Y-86453034D01*
X143219504Y-86453037D01*
X143156905Y-86561463D01*
X143148429Y-86593095D01*
X143124500Y-86682399D01*
X128900500Y-86682399D01*
X128900500Y-85837399D01*
X129324500Y-85837399D01*
X129324500Y-85962601D01*
X129356905Y-86083536D01*
X129419505Y-86191964D01*
X129508036Y-86280495D01*
X129616464Y-86343095D01*
X129737399Y-86375500D01*
X129737401Y-86375500D01*
X129862599Y-86375500D01*
X129862601Y-86375500D01*
X129983536Y-86343095D01*
X130091964Y-86280495D01*
X130180495Y-86191964D01*
X130243095Y-86083536D01*
X130275500Y-85962601D01*
X130275500Y-85837399D01*
X130243095Y-85716464D01*
X130180495Y-85608036D01*
X130091964Y-85519505D01*
X129983536Y-85456905D01*
X129983537Y-85456905D01*
X129943224Y-85446103D01*
X129862601Y-85424500D01*
X129737399Y-85424500D01*
X129656775Y-85446103D01*
X129616463Y-85456905D01*
X129508037Y-85519504D01*
X129508034Y-85519506D01*
X129419506Y-85608034D01*
X129419504Y-85608037D01*
X129356905Y-85716463D01*
X129350023Y-85742147D01*
X129324500Y-85837399D01*
X128900500Y-85837399D01*
X128900500Y-83974899D01*
X131812000Y-83974899D01*
X131812000Y-84100101D01*
X131844405Y-84221036D01*
X131883296Y-84288399D01*
X131907004Y-84329462D01*
X131907006Y-84329465D01*
X131937360Y-84359819D01*
X131970845Y-84421142D01*
X131965861Y-84490834D01*
X131937360Y-84535181D01*
X131919506Y-84553034D01*
X131919504Y-84553037D01*
X131856905Y-84661463D01*
X131856905Y-84661464D01*
X131824500Y-84782399D01*
X131824500Y-84907601D01*
X131833708Y-84941964D01*
X131856905Y-85028536D01*
X131919504Y-85136962D01*
X131919506Y-85136965D01*
X132013783Y-85231242D01*
X132012433Y-85232591D01*
X132047455Y-85280560D01*
X132051605Y-85350306D01*
X132017389Y-85411224D01*
X132009357Y-85418183D01*
X131919506Y-85508034D01*
X131919504Y-85508037D01*
X131856905Y-85616463D01*
X131856905Y-85616464D01*
X131824500Y-85737399D01*
X131824500Y-85862601D01*
X131856905Y-85983536D01*
X131919505Y-86091964D01*
X132008036Y-86180495D01*
X132116464Y-86243095D01*
X132237399Y-86275500D01*
X132237401Y-86275500D01*
X132362599Y-86275500D01*
X132362601Y-86275500D01*
X132483536Y-86243095D01*
X132591964Y-86180495D01*
X132680495Y-86091964D01*
X132743095Y-85983536D01*
X132775500Y-85862601D01*
X132775500Y-85737399D01*
X132743095Y-85616464D01*
X132680495Y-85508036D01*
X132591964Y-85419505D01*
X132586217Y-85413758D01*
X132587567Y-85412407D01*
X132552548Y-85364452D01*
X132548391Y-85294706D01*
X132582601Y-85233785D01*
X132590642Y-85226816D01*
X132591961Y-85225496D01*
X132591964Y-85225495D01*
X132680495Y-85136964D01*
X132723544Y-85062399D01*
X144504500Y-85062399D01*
X144504500Y-85187601D01*
X144536905Y-85308536D01*
X144599505Y-85416964D01*
X144688036Y-85505495D01*
X144796464Y-85568095D01*
X144917399Y-85600500D01*
X144917401Y-85600500D01*
X145006378Y-85600500D01*
X145073417Y-85620185D01*
X145119172Y-85672989D01*
X145129116Y-85742147D01*
X145126152Y-85756590D01*
X145122692Y-85769506D01*
X145104500Y-85837396D01*
X145104500Y-85837399D01*
X145104500Y-85962601D01*
X145136905Y-86083536D01*
X145199505Y-86191964D01*
X145288036Y-86280495D01*
X145396464Y-86343095D01*
X145517399Y-86375500D01*
X145517401Y-86375500D01*
X145642599Y-86375500D01*
X145642601Y-86375500D01*
X145763536Y-86343095D01*
X145871964Y-86280495D01*
X145960495Y-86191964D01*
X146020865Y-86087399D01*
X150254500Y-86087399D01*
X150254500Y-86212601D01*
X150286905Y-86333536D01*
X150349505Y-86441964D01*
X150438036Y-86530495D01*
X150546464Y-86593095D01*
X150667399Y-86625500D01*
X150667401Y-86625500D01*
X150718197Y-86625500D01*
X150785236Y-86645185D01*
X150830991Y-86697989D01*
X150840935Y-86767147D01*
X150811910Y-86830703D01*
X150780197Y-86856886D01*
X150768656Y-86863550D01*
X150726449Y-86887917D01*
X150637919Y-86976447D01*
X150637917Y-86976450D01*
X150575318Y-87084876D01*
X150569370Y-87107074D01*
X150542913Y-87205812D01*
X150542913Y-87331014D01*
X150575318Y-87451949D01*
X150637918Y-87560377D01*
X150726449Y-87648908D01*
X150834877Y-87711508D01*
X150955812Y-87743913D01*
X150955814Y-87743913D01*
X151081012Y-87743913D01*
X151081014Y-87743913D01*
X151201949Y-87711508D01*
X151310377Y-87648908D01*
X151338446Y-87620838D01*
X151399765Y-87587355D01*
X151469457Y-87592339D01*
X151525391Y-87634209D01*
X151539955Y-87664181D01*
X151541365Y-87663598D01*
X151544474Y-87671105D01*
X151607074Y-87779533D01*
X151695605Y-87868064D01*
X151804033Y-87930664D01*
X151924968Y-87963069D01*
X151924970Y-87963069D01*
X152050168Y-87963069D01*
X152050170Y-87963069D01*
X152171105Y-87930664D01*
X152279533Y-87868064D01*
X152368064Y-87779533D01*
X152430664Y-87671105D01*
X152463069Y-87550170D01*
X152463069Y-87424968D01*
X152430664Y-87304033D01*
X152368064Y-87195605D01*
X152279533Y-87107074D01*
X152279531Y-87107073D01*
X152279526Y-87107069D01*
X152229741Y-87078326D01*
X152181525Y-87027760D01*
X152168301Y-86959153D01*
X152194269Y-86894288D01*
X152229744Y-86863550D01*
X152241283Y-86856888D01*
X152241964Y-86856495D01*
X152330495Y-86767964D01*
X152393095Y-86659536D01*
X152425500Y-86538601D01*
X152425500Y-86413399D01*
X152393095Y-86292464D01*
X152330495Y-86184036D01*
X152241964Y-86095505D01*
X152133536Y-86032905D01*
X152133537Y-86032905D01*
X152093224Y-86022103D01*
X152012601Y-86000500D01*
X151887399Y-86000500D01*
X151806775Y-86022103D01*
X151766463Y-86032905D01*
X151658037Y-86095504D01*
X151658034Y-86095506D01*
X151569506Y-86184034D01*
X151569504Y-86184037D01*
X151506905Y-86292463D01*
X151506905Y-86292464D01*
X151474500Y-86413399D01*
X151474500Y-86538601D01*
X151506905Y-86659536D01*
X151569505Y-86767964D01*
X151658036Y-86856495D01*
X151707827Y-86885241D01*
X151756043Y-86935808D01*
X151769267Y-87004415D01*
X151743299Y-87069280D01*
X151725087Y-87087992D01*
X151716966Y-87094741D01*
X151695605Y-87107074D01*
X151663502Y-87139176D01*
X151659115Y-87142823D01*
X151632071Y-87154507D01*
X151606212Y-87168627D01*
X151600360Y-87168208D01*
X151594975Y-87170535D01*
X151565907Y-87165743D01*
X151536521Y-87163641D01*
X151531824Y-87160125D01*
X151526036Y-87159171D01*
X151504172Y-87139424D01*
X151480588Y-87121769D01*
X151477433Y-87115274D01*
X151474184Y-87112340D01*
X151471874Y-87103829D01*
X151466030Y-87091798D01*
X151464617Y-87092384D01*
X151461509Y-87084881D01*
X151461508Y-87084877D01*
X151398908Y-86976449D01*
X151310377Y-86887918D01*
X151201949Y-86825318D01*
X151201950Y-86825318D01*
X151135829Y-86807601D01*
X151081014Y-86792913D01*
X151030216Y-86792913D01*
X150963177Y-86773228D01*
X150917422Y-86720424D01*
X150907478Y-86651266D01*
X150936503Y-86587710D01*
X150968215Y-86561526D01*
X151021964Y-86530495D01*
X151110495Y-86441964D01*
X151173095Y-86333536D01*
X151205500Y-86212601D01*
X151205500Y-86087399D01*
X151173095Y-85966464D01*
X151110495Y-85858036D01*
X151021964Y-85769505D01*
X150913536Y-85706905D01*
X150913537Y-85706905D01*
X150873224Y-85696103D01*
X150792601Y-85674500D01*
X150667399Y-85674500D01*
X150586775Y-85696103D01*
X150546463Y-85706905D01*
X150438037Y-85769504D01*
X150438034Y-85769506D01*
X150349506Y-85858034D01*
X150349504Y-85858037D01*
X150286905Y-85966463D01*
X150286905Y-85966464D01*
X150254500Y-86087399D01*
X146020865Y-86087399D01*
X146023095Y-86083536D01*
X146055500Y-85962601D01*
X146055500Y-85837399D01*
X146023095Y-85716464D01*
X145960495Y-85608036D01*
X145871964Y-85519505D01*
X145763536Y-85456905D01*
X145763537Y-85456905D01*
X145723224Y-85446103D01*
X145642601Y-85424500D01*
X145553622Y-85424500D01*
X145486583Y-85404815D01*
X145440828Y-85352011D01*
X145430884Y-85282853D01*
X145433848Y-85268405D01*
X145455500Y-85187601D01*
X145455500Y-85062399D01*
X145423095Y-84941464D01*
X145360495Y-84833036D01*
X145271964Y-84744505D01*
X145163536Y-84681905D01*
X145163537Y-84681905D01*
X145119769Y-84670177D01*
X145119766Y-84670176D01*
X145042601Y-84649500D01*
X144917399Y-84649500D01*
X144905057Y-84652807D01*
X144905056Y-84652807D01*
X144796463Y-84681905D01*
X144688037Y-84744504D01*
X144688034Y-84744506D01*
X144599506Y-84833034D01*
X144599504Y-84833037D01*
X144536905Y-84941463D01*
X144520702Y-85001931D01*
X144504500Y-85062399D01*
X132723544Y-85062399D01*
X132743095Y-85028536D01*
X132775500Y-84907601D01*
X132775500Y-84782399D01*
X132743095Y-84661464D01*
X132680495Y-84553036D01*
X132650140Y-84522681D01*
X132616655Y-84461358D01*
X132621639Y-84391666D01*
X132650140Y-84347319D01*
X132667995Y-84329464D01*
X132730595Y-84221036D01*
X132763000Y-84100101D01*
X132763000Y-83974899D01*
X132739554Y-83887399D01*
X144579500Y-83887399D01*
X144579500Y-84012601D01*
X144611905Y-84133536D01*
X144674505Y-84241964D01*
X144763036Y-84330495D01*
X144871464Y-84393095D01*
X144992399Y-84425500D01*
X145117601Y-84425500D01*
X145238536Y-84393095D01*
X145346964Y-84330495D01*
X145389060Y-84288399D01*
X149504500Y-84288399D01*
X149504500Y-84413601D01*
X149536905Y-84534536D01*
X149599505Y-84642964D01*
X149688036Y-84731495D01*
X149796464Y-84794095D01*
X149917399Y-84826500D01*
X149917401Y-84826500D01*
X150042599Y-84826500D01*
X150042601Y-84826500D01*
X150163536Y-84794095D01*
X150271964Y-84731495D01*
X150360495Y-84642964D01*
X150423095Y-84534536D01*
X150455500Y-84413601D01*
X150455500Y-84288399D01*
X150423095Y-84167464D01*
X150360495Y-84059036D01*
X150271964Y-83970505D01*
X150163536Y-83907905D01*
X150163537Y-83907905D01*
X150123224Y-83897103D01*
X150042601Y-83875500D01*
X149917399Y-83875500D01*
X149836775Y-83897103D01*
X149796463Y-83907905D01*
X149688037Y-83970504D01*
X149688034Y-83970506D01*
X149599506Y-84059034D01*
X149599504Y-84059037D01*
X149536905Y-84167463D01*
X149526359Y-84206821D01*
X149504500Y-84288399D01*
X145389060Y-84288399D01*
X145435495Y-84241964D01*
X145498095Y-84133536D01*
X145530500Y-84012601D01*
X145530500Y-83887399D01*
X145498095Y-83766464D01*
X145435495Y-83658036D01*
X145364858Y-83587399D01*
X152424500Y-83587399D01*
X152424500Y-83712601D01*
X152438933Y-83766463D01*
X152456905Y-83833536D01*
X152519504Y-83941962D01*
X152519506Y-83941965D01*
X152608036Y-84030495D01*
X152629025Y-84042613D01*
X152677240Y-84093180D01*
X152690462Y-84161788D01*
X152664494Y-84226652D01*
X152629025Y-84257387D01*
X152608036Y-84269504D01*
X152519506Y-84358034D01*
X152519504Y-84358037D01*
X152456905Y-84466463D01*
X152456905Y-84466464D01*
X152424500Y-84587399D01*
X152424500Y-84712601D01*
X152456905Y-84833536D01*
X152519505Y-84941964D01*
X152608036Y-85030495D01*
X152716464Y-85093095D01*
X152837399Y-85125500D01*
X152837401Y-85125500D01*
X152962599Y-85125500D01*
X152962601Y-85125500D01*
X153083536Y-85093095D01*
X153191964Y-85030495D01*
X153280495Y-84941964D01*
X153343095Y-84833536D01*
X153375500Y-84712601D01*
X153375500Y-84587399D01*
X153343095Y-84466464D01*
X153280495Y-84358036D01*
X153191964Y-84269505D01*
X153191963Y-84269504D01*
X153170976Y-84257388D01*
X153122760Y-84206821D01*
X153109536Y-84138214D01*
X153135504Y-84073349D01*
X153170976Y-84042612D01*
X153191964Y-84030495D01*
X153280495Y-83941964D01*
X153343095Y-83833536D01*
X153375500Y-83712601D01*
X153375500Y-83587399D01*
X153343095Y-83466464D01*
X153343091Y-83466457D01*
X153322186Y-83430247D01*
X153305713Y-83362347D01*
X153328566Y-83296320D01*
X153341892Y-83280567D01*
X153368778Y-83253681D01*
X153430495Y-83191964D01*
X153493095Y-83083536D01*
X153525500Y-82962601D01*
X153525500Y-82837399D01*
X153493095Y-82716464D01*
X153430495Y-82608036D01*
X153341964Y-82519505D01*
X153233536Y-82456905D01*
X153233537Y-82456905D01*
X153193224Y-82446103D01*
X153112601Y-82424500D01*
X152987399Y-82424500D01*
X152906775Y-82446103D01*
X152866463Y-82456905D01*
X152758037Y-82519504D01*
X152758034Y-82519506D01*
X152669506Y-82608034D01*
X152669504Y-82608037D01*
X152606905Y-82716463D01*
X152606905Y-82716464D01*
X152574500Y-82837399D01*
X152574500Y-82962601D01*
X152606905Y-83083536D01*
X152623283Y-83111904D01*
X152627815Y-83119754D01*
X152644285Y-83187655D01*
X152621432Y-83253681D01*
X152608108Y-83269433D01*
X152519503Y-83358037D01*
X152456905Y-83466463D01*
X152446069Y-83506905D01*
X152424500Y-83587399D01*
X145364858Y-83587399D01*
X145346964Y-83569505D01*
X145238536Y-83506905D01*
X145238537Y-83506905D01*
X145198224Y-83496103D01*
X145117601Y-83474500D01*
X144992399Y-83474500D01*
X144911775Y-83496103D01*
X144871463Y-83506905D01*
X144763037Y-83569504D01*
X144763034Y-83569506D01*
X144674506Y-83658034D01*
X144674504Y-83658037D01*
X144611905Y-83766463D01*
X144611905Y-83766464D01*
X144579500Y-83887399D01*
X132739554Y-83887399D01*
X132730595Y-83853964D01*
X132667995Y-83745536D01*
X132579464Y-83657005D01*
X132471036Y-83594405D01*
X132471037Y-83594405D01*
X132430724Y-83583603D01*
X132350101Y-83562000D01*
X132224899Y-83562000D01*
X132144275Y-83583603D01*
X132103963Y-83594405D01*
X131995537Y-83657004D01*
X131995534Y-83657006D01*
X131907006Y-83745534D01*
X131907004Y-83745537D01*
X131844405Y-83853963D01*
X131844405Y-83853964D01*
X131812000Y-83974899D01*
X128900500Y-83974899D01*
X128900500Y-82337399D01*
X131924500Y-82337399D01*
X131924500Y-82462601D01*
X131956905Y-82583536D01*
X132019505Y-82691964D01*
X132108036Y-82780495D01*
X132216464Y-82843095D01*
X132337399Y-82875500D01*
X132337401Y-82875500D01*
X132462599Y-82875500D01*
X132462601Y-82875500D01*
X132583536Y-82843095D01*
X132691964Y-82780495D01*
X132780495Y-82691964D01*
X132843095Y-82583536D01*
X132875500Y-82462601D01*
X132875500Y-82337399D01*
X132843095Y-82216464D01*
X132780495Y-82108036D01*
X132691964Y-82019505D01*
X132583536Y-81956905D01*
X132583537Y-81956905D01*
X132574711Y-81954540D01*
X132462601Y-81924500D01*
X132337399Y-81924500D01*
X132268003Y-81943095D01*
X132216463Y-81956905D01*
X132108037Y-82019504D01*
X132108034Y-82019506D01*
X132019506Y-82108034D01*
X132019504Y-82108037D01*
X131956905Y-82216463D01*
X131956905Y-82216464D01*
X131924500Y-82337399D01*
X128900500Y-82337399D01*
X128900500Y-81837399D01*
X134624500Y-81837399D01*
X134624500Y-81962601D01*
X134656905Y-82083536D01*
X134719505Y-82191964D01*
X134808036Y-82280495D01*
X134916464Y-82343095D01*
X135037399Y-82375500D01*
X135037401Y-82375500D01*
X135162599Y-82375500D01*
X135162601Y-82375500D01*
X135283536Y-82343095D01*
X135391964Y-82280495D01*
X135480495Y-82191964D01*
X135543095Y-82083536D01*
X135575500Y-81962601D01*
X135575500Y-81837399D01*
X135543095Y-81716464D01*
X135480495Y-81608036D01*
X135391964Y-81519505D01*
X135373765Y-81508998D01*
X135370021Y-81506456D01*
X135350568Y-81482827D01*
X135329456Y-81460683D01*
X135328574Y-81456110D01*
X135325614Y-81452514D01*
X135323829Y-81437399D01*
X148104500Y-81437399D01*
X148104500Y-81562601D01*
X148136905Y-81683536D01*
X148199505Y-81791964D01*
X148288036Y-81880495D01*
X148396464Y-81943095D01*
X148517399Y-81975500D01*
X148517401Y-81975500D01*
X148582679Y-81975500D01*
X148649718Y-81995185D01*
X148695473Y-82047989D01*
X148705417Y-82117147D01*
X148676392Y-82180703D01*
X148670360Y-82187181D01*
X148599506Y-82258034D01*
X148599504Y-82258037D01*
X148536905Y-82366463D01*
X148536905Y-82366464D01*
X148504500Y-82487399D01*
X148504500Y-82612601D01*
X148536905Y-82733536D01*
X148599505Y-82841964D01*
X148688036Y-82930495D01*
X148796464Y-82993095D01*
X148917399Y-83025500D01*
X148917401Y-83025500D01*
X149042599Y-83025500D01*
X149042601Y-83025500D01*
X149163536Y-82993095D01*
X149271964Y-82930495D01*
X149360495Y-82841964D01*
X149423095Y-82733536D01*
X149455500Y-82612601D01*
X149455500Y-82487399D01*
X149423095Y-82366464D01*
X149360495Y-82258036D01*
X149271964Y-82169505D01*
X149163536Y-82106905D01*
X149163537Y-82106905D01*
X149123224Y-82096103D01*
X149042601Y-82074500D01*
X148977321Y-82074500D01*
X148910282Y-82054815D01*
X148864527Y-82002011D01*
X148854583Y-81932853D01*
X148883608Y-81869297D01*
X148889640Y-81862819D01*
X148915060Y-81837399D01*
X148960495Y-81791964D01*
X149023095Y-81683536D01*
X149055500Y-81562601D01*
X149055500Y-81437399D01*
X149023095Y-81316464D01*
X148960495Y-81208036D01*
X148871964Y-81119505D01*
X148763536Y-81056905D01*
X148763537Y-81056905D01*
X148723224Y-81046103D01*
X148642601Y-81024500D01*
X148517399Y-81024500D01*
X148436775Y-81046103D01*
X148396463Y-81056905D01*
X148288037Y-81119504D01*
X148288034Y-81119506D01*
X148199506Y-81208034D01*
X148199504Y-81208037D01*
X148136905Y-81316463D01*
X148136905Y-81316464D01*
X148104500Y-81437399D01*
X135323829Y-81437399D01*
X135322024Y-81422121D01*
X135316235Y-81392076D01*
X135317966Y-81387751D01*
X135317420Y-81383126D01*
X135330829Y-81355621D01*
X135342204Y-81327212D01*
X135346493Y-81323495D01*
X135348040Y-81320323D01*
X135355117Y-81316023D01*
X135377675Y-81296478D01*
X135383533Y-81293095D01*
X135383536Y-81293095D01*
X135491964Y-81230495D01*
X135580495Y-81141964D01*
X135643095Y-81033536D01*
X135675500Y-80912601D01*
X135675500Y-80787399D01*
X135643095Y-80666464D01*
X135580495Y-80558036D01*
X135491964Y-80469505D01*
X135383536Y-80406905D01*
X135383537Y-80406905D01*
X135339999Y-80395239D01*
X135262601Y-80374500D01*
X135137399Y-80374500D01*
X135060001Y-80395239D01*
X135016463Y-80406905D01*
X134908037Y-80469504D01*
X134908034Y-80469506D01*
X134819506Y-80558034D01*
X134819504Y-80558037D01*
X134756905Y-80666463D01*
X134756905Y-80666464D01*
X134724500Y-80787399D01*
X134724500Y-80912601D01*
X134756905Y-81033536D01*
X134819505Y-81141964D01*
X134908036Y-81230495D01*
X134918508Y-81236541D01*
X134922327Y-81238746D01*
X134970542Y-81289314D01*
X134983764Y-81357921D01*
X134957796Y-81422786D01*
X134922325Y-81453520D01*
X134808042Y-81519500D01*
X134808034Y-81519506D01*
X134719506Y-81608034D01*
X134719504Y-81608037D01*
X134656905Y-81716463D01*
X134656905Y-81716464D01*
X134624500Y-81837399D01*
X128900500Y-81837399D01*
X128900500Y-80329090D01*
X128920185Y-80262051D01*
X128972989Y-80216296D01*
X129023762Y-80205093D01*
X129073326Y-80204799D01*
X129799878Y-80095935D01*
X129814888Y-80093112D01*
X129832852Y-80089037D01*
X129832853Y-80089036D01*
X129838296Y-80087802D01*
X129838761Y-80089854D01*
X129899370Y-80088164D01*
X129959179Y-80124285D01*
X129966140Y-80132579D01*
X129969504Y-80136963D01*
X129969505Y-80136964D01*
X130058036Y-80225495D01*
X130166464Y-80288095D01*
X130196065Y-80296026D01*
X130255725Y-80332392D01*
X130286253Y-80395239D01*
X130277958Y-80464614D01*
X130233472Y-80518492D01*
X130196067Y-80535575D01*
X130116464Y-80556905D01*
X130116462Y-80556905D01*
X130116462Y-80556906D01*
X130008037Y-80619504D01*
X130008034Y-80619506D01*
X129919506Y-80708034D01*
X129919504Y-80708037D01*
X129856905Y-80816463D01*
X129856905Y-80816464D01*
X129824500Y-80937399D01*
X129824500Y-81062601D01*
X129856905Y-81183536D01*
X129919505Y-81291964D01*
X130008036Y-81380495D01*
X130116464Y-81443095D01*
X130237399Y-81475500D01*
X130237401Y-81475500D01*
X130362599Y-81475500D01*
X130362601Y-81475500D01*
X130483536Y-81443095D01*
X130591964Y-81380495D01*
X130680495Y-81291964D01*
X130680495Y-81291963D01*
X130686242Y-81286217D01*
X130688421Y-81288396D01*
X130733035Y-81255811D01*
X130802780Y-81251646D01*
X130863706Y-81285849D01*
X130865756Y-81288215D01*
X130869505Y-81291964D01*
X130958036Y-81380495D01*
X131066464Y-81443095D01*
X131187399Y-81475500D01*
X131187401Y-81475500D01*
X131312599Y-81475500D01*
X131312601Y-81475500D01*
X131433536Y-81443095D01*
X131541964Y-81380495D01*
X131630495Y-81291964D01*
X131630495Y-81291963D01*
X131636242Y-81286217D01*
X131638421Y-81288396D01*
X131683035Y-81255811D01*
X131752780Y-81251646D01*
X131813706Y-81285849D01*
X131815756Y-81288215D01*
X131819505Y-81291964D01*
X131908036Y-81380495D01*
X132016464Y-81443095D01*
X132137399Y-81475500D01*
X132137401Y-81475500D01*
X132262599Y-81475500D01*
X132262601Y-81475500D01*
X132383536Y-81443095D01*
X132491964Y-81380495D01*
X132580495Y-81291964D01*
X132643095Y-81183536D01*
X132675500Y-81062601D01*
X132675500Y-80937399D01*
X132643095Y-80816464D01*
X132580495Y-80708036D01*
X132491964Y-80619505D01*
X132383536Y-80556905D01*
X132383534Y-80556904D01*
X132353932Y-80548972D01*
X132294273Y-80512606D01*
X132263745Y-80449758D01*
X132272042Y-80380382D01*
X132316529Y-80326506D01*
X132353930Y-80309425D01*
X132433536Y-80288095D01*
X132541964Y-80225495D01*
X132630495Y-80136964D01*
X132693095Y-80028536D01*
X132725500Y-79907601D01*
X132725500Y-79782399D01*
X132725497Y-79782391D01*
X132725283Y-79780760D01*
X132725500Y-79779367D01*
X132725500Y-79774271D01*
X132726294Y-79774271D01*
X132726506Y-79772908D01*
X132724223Y-79765298D01*
X132731810Y-79738879D01*
X132732041Y-79737399D01*
X136674500Y-79737399D01*
X136674500Y-79862601D01*
X136706905Y-79983536D01*
X136769505Y-80091964D01*
X136858036Y-80180495D01*
X136966464Y-80243095D01*
X137087399Y-80275500D01*
X137087401Y-80275500D01*
X137212599Y-80275500D01*
X137212601Y-80275500D01*
X137333536Y-80243095D01*
X137441964Y-80180495D01*
X137530495Y-80091964D01*
X137593095Y-79983536D01*
X137605458Y-79937399D01*
X138998500Y-79937399D01*
X138998500Y-80062601D01*
X139030905Y-80183536D01*
X139093505Y-80291964D01*
X139182036Y-80380495D01*
X139290464Y-80443095D01*
X139411399Y-80475500D01*
X139411401Y-80475500D01*
X139450500Y-80475500D01*
X139517539Y-80495185D01*
X139563294Y-80547989D01*
X139574500Y-80599500D01*
X139574500Y-80712601D01*
X139606905Y-80833536D01*
X139669505Y-80941964D01*
X139758036Y-81030495D01*
X139866464Y-81093095D01*
X139987399Y-81125500D01*
X139987401Y-81125500D01*
X140112599Y-81125500D01*
X140112601Y-81125500D01*
X140233536Y-81093095D01*
X140341964Y-81030495D01*
X140430495Y-80941964D01*
X140493095Y-80833536D01*
X140525500Y-80712601D01*
X140525500Y-80587399D01*
X140493095Y-80466464D01*
X140430495Y-80358036D01*
X140341964Y-80269505D01*
X140233536Y-80206905D01*
X140233537Y-80206905D01*
X140189599Y-80195132D01*
X140112601Y-80174500D01*
X140073500Y-80174500D01*
X140006461Y-80154815D01*
X139960706Y-80102011D01*
X139949500Y-80050500D01*
X139949500Y-79937400D01*
X139942015Y-79909466D01*
X139917095Y-79816464D01*
X139854495Y-79708036D01*
X139765964Y-79619505D01*
X139657536Y-79556905D01*
X139657537Y-79556905D01*
X139617224Y-79546103D01*
X139536601Y-79524500D01*
X139411399Y-79524500D01*
X139330775Y-79546103D01*
X139290463Y-79556905D01*
X139182037Y-79619504D01*
X139182034Y-79619506D01*
X139093506Y-79708034D01*
X139093504Y-79708037D01*
X139030905Y-79816463D01*
X139030905Y-79816464D01*
X138998500Y-79937399D01*
X137605458Y-79937399D01*
X137625500Y-79862601D01*
X137625500Y-79737399D01*
X137593095Y-79616464D01*
X137530495Y-79508036D01*
X137441964Y-79419505D01*
X137333536Y-79356905D01*
X137333537Y-79356905D01*
X137293224Y-79346103D01*
X137212601Y-79324500D01*
X137087399Y-79324500D01*
X137006775Y-79346103D01*
X136966463Y-79356905D01*
X136858037Y-79419504D01*
X136858034Y-79419506D01*
X136769506Y-79508034D01*
X136769504Y-79508037D01*
X136706905Y-79616463D01*
X136706905Y-79616464D01*
X136674500Y-79737399D01*
X132732041Y-79737399D01*
X132736043Y-79711723D01*
X132741316Y-79705780D01*
X132743510Y-79698143D01*
X132764175Y-79680020D01*
X132782418Y-79659463D01*
X132791405Y-79656140D01*
X132796041Y-79652076D01*
X132829841Y-79641933D01*
X157955333Y-75877202D01*
X158008577Y-75861655D01*
X158069152Y-75834642D01*
X158086496Y-75825761D01*
X158155136Y-75812728D01*
X158205009Y-75828747D01*
X158208035Y-75830494D01*
X158208036Y-75830495D01*
X158316464Y-75893095D01*
X158437399Y-75925500D01*
X158437401Y-75925500D01*
X158562599Y-75925500D01*
X158562601Y-75925500D01*
X158683536Y-75893095D01*
X158791964Y-75830495D01*
X158880495Y-75741964D01*
X158880498Y-75741957D01*
X158885445Y-75735513D01*
X158887653Y-75737207D01*
X158893222Y-75731895D01*
X158904882Y-75714111D01*
X158917996Y-75708265D01*
X158928389Y-75698352D01*
X158949273Y-75694322D01*
X158968698Y-75685664D01*
X158993010Y-75685884D01*
X158996993Y-75685116D01*
X159001877Y-75685964D01*
G37*
%TD.AperFunction*%
%TA.AperFunction,Conductor*%
G36*
X155166508Y-70974223D02*
G01*
X155203650Y-70984175D01*
X155233555Y-70996563D01*
X155266851Y-71015787D01*
X155292531Y-71035492D01*
X155319705Y-71062666D01*
X155339411Y-71088347D01*
X155358636Y-71121646D01*
X155371023Y-71151550D01*
X155380974Y-71188684D01*
X155385200Y-71220780D01*
X155385200Y-71259218D01*
X155380974Y-71291314D01*
X155371023Y-71328448D01*
X155358636Y-71358352D01*
X155339411Y-71391651D01*
X155319705Y-71417332D01*
X155292532Y-71444505D01*
X155266851Y-71464211D01*
X155233552Y-71483436D01*
X155203648Y-71495823D01*
X155166514Y-71505774D01*
X155134418Y-71510000D01*
X155095982Y-71510000D01*
X155063887Y-71505774D01*
X155026748Y-71495822D01*
X154996843Y-71483435D01*
X154963548Y-71464212D01*
X154963547Y-71464211D01*
X154937867Y-71444506D01*
X154910693Y-71417332D01*
X154890987Y-71391651D01*
X154871763Y-71358354D01*
X154859375Y-71328445D01*
X154849425Y-71291308D01*
X154845200Y-71259217D01*
X154845200Y-71220779D01*
X154849424Y-71188689D01*
X154859377Y-71151542D01*
X154871760Y-71121646D01*
X154890986Y-71088347D01*
X154910685Y-71062674D01*
X154937871Y-71035488D01*
X154963550Y-71015785D01*
X154996845Y-70996563D01*
X155026750Y-70984176D01*
X155063888Y-70974225D01*
X155095981Y-70970000D01*
X155134420Y-70970000D01*
X155166508Y-70974223D01*
G37*
%TD.AperFunction*%
%TD*%
M02*
