%TF.GenerationSoftware,KiCad,Pcbnew,9.0.6+1*%
%TF.CreationDate,Date%
%TF.ProjectId,FCU3,46435533-2e6b-4696-9361-645f70636258,+ (Unreleased)*%
%TF.SameCoordinates,Original*%
%TF.FileFunction,Copper,L3,Inr*%
%TF.FilePolarity,Positive*%
%FSLAX46Y46*%
G04 Gerber Fmt 4.6, Leading zero omitted, Abs format (unit mm)*
G04 Created by KiCad*
%MOMM*%
%LPD*%
G01*
G04 APERTURE LIST*
%TA.AperFunction,ComponentPad*%
%ADD10C,5.600000*%
%TD*%
%TA.AperFunction,ComponentPad*%
%ADD11C,0.300000*%
%TD*%
%TA.AperFunction,ComponentPad*%
%ADD12O,1.000000X2.100000*%
%TD*%
%TA.AperFunction,ComponentPad*%
%ADD13O,1.000000X1.800000*%
%TD*%
%TA.AperFunction,ViaPad*%
%ADD14C,0.550000*%
%TD*%
%TA.AperFunction,Conductor*%
%ADD15C,0.200000*%
%TD*%
G04 APERTURE END LIST*
D10*
%TO.N,N/C*%
%TO.C,H2*%
X162400000Y-70045000D03*
%TD*%
D11*
%TO.N,+9V*%
%TO.C,PS1*%
X158925000Y-88387500D03*
X158137000Y-88387500D03*
X157350000Y-88387500D03*
X158925000Y-89037500D03*
X158137000Y-89037500D03*
X157350000Y-89037500D03*
%TO.N,unconnected-(PS1-SW-Pad5)_4*%
X158925000Y-90337500D03*
%TO.N,unconnected-(PS1-SW-Pad5)_1*%
X158137000Y-90337500D03*
%TO.N,unconnected-(PS1-SW-Pad5)_2*%
X157350000Y-90337500D03*
%TO.N,unconnected-(PS1-SW-Pad5)_6*%
X158925000Y-90987500D03*
%TO.N,unconnected-(PS1-SW-Pad5)*%
X158137000Y-90987500D03*
%TO.N,unconnected-(PS1-SW-Pad5)_3*%
X157350000Y-90987500D03*
%TD*%
D10*
%TO.N,N/C*%
%TO.C,H1*%
X132754125Y-70082500D03*
%TD*%
%TO.N,N/C*%
%TO.C,H4*%
X162400000Y-100545000D03*
%TD*%
%TO.N,N/C*%
%TO.C,H3*%
X131900000Y-100545000D03*
%TD*%
D12*
%TO.N,PGND*%
%TO.C,J3*%
X145500000Y-73625000D03*
X136860000Y-73625000D03*
D13*
X145500000Y-69445000D03*
X136860000Y-69445000D03*
%TD*%
D14*
%TO.N,*%
X129850000Y-78595000D03*
X129825000Y-89895000D03*
X129825000Y-95445000D03*
X129850000Y-86095000D03*
%TO.N,PGND*%
X164750000Y-87150000D03*
X155115200Y-68115000D03*
X160637500Y-82837500D03*
X161562500Y-81912500D03*
X162300000Y-80250000D03*
X164550000Y-90600000D03*
X164750000Y-87950000D03*
X164250000Y-90050000D03*
%TO.N,DGND*%
X151450000Y-97045000D03*
X150300000Y-91770000D03*
X151250000Y-79550000D03*
X146105000Y-81500000D03*
X136550000Y-98695000D03*
X155115200Y-71240000D03*
X151690000Y-85700000D03*
X134750000Y-103320000D03*
X157400000Y-97150000D03*
X132350000Y-92195000D03*
X151525000Y-77525000D03*
X156200000Y-102845000D03*
X151690000Y-82950000D03*
X158500000Y-76500000D03*
X146850000Y-102882500D03*
X150187500Y-88307500D03*
X141375000Y-103145000D03*
X138125000Y-86695000D03*
X153300000Y-102845000D03*
X151250000Y-78750000D03*
X141375000Y-102395000D03*
%TO.N,+3V3*%
X152900000Y-84650000D03*
X135235000Y-92485000D03*
X135800000Y-99395000D03*
X150730000Y-86150000D03*
X151950000Y-86476000D03*
X148580000Y-81500000D03*
X135100000Y-95445000D03*
X145825000Y-102595000D03*
X153050000Y-82900000D03*
X151250000Y-100070000D03*
X137500000Y-88750000D03*
X152900000Y-83650000D03*
X152200000Y-95300000D03*
%TO.N,AGND*%
X144875000Y-102595000D03*
X144875000Y-103220000D03*
X139000000Y-79845000D03*
%TO.N,+VBAT*%
X129500000Y-79845000D03*
X132250000Y-79845000D03*
X130300000Y-81000000D03*
X131250000Y-81000000D03*
X129500000Y-81000000D03*
X132200000Y-81000000D03*
X130350000Y-79845000D03*
X131300000Y-79845000D03*
%TO.N,+9V*%
X161850000Y-86015000D03*
%TO.N,/Project Architecture/Power/VBAT*%
X163450000Y-93000000D03*
X161700000Y-93000000D03*
X164250000Y-92950000D03*
X162550000Y-93000000D03*
%TO.N,/Project Architecture/SBUS_TX*%
X157372500Y-93200000D03*
X158500000Y-75450000D03*
%TO.N,/Project Architecture/UART4_RX*%
X158500000Y-77500000D03*
X146650000Y-100745000D03*
%TO.N,/Project Architecture/UART4_TX*%
X158450000Y-78500000D03*
X146100000Y-98020000D03*
%TO.N,Net-(PS1-MODE)*%
X162250000Y-91025000D03*
X162650000Y-86025000D03*
%TO.N,/Project Architecture/UART5_RX*%
X138800000Y-92270000D03*
X132500000Y-90195000D03*
%TO.N,/Project Architecture/I2C1_SDA*%
X138825000Y-96270000D03*
X135100000Y-93500000D03*
%TO.N,/Project Architecture/USB_-DATA*%
X142200000Y-75500000D03*
X140930000Y-75500000D03*
%TO.N,/Project Architecture/USB_CC1*%
X131250000Y-75595000D03*
X141545750Y-72739000D03*
%TO.N,/Project Architecture/USB_CC2*%
X131250000Y-74495000D03*
X140795750Y-72732500D03*
%TO.N,/Project Architecture/UART2_RX*%
X151650000Y-96000000D03*
X147650000Y-96800000D03*
%TO.N,/Project Architecture/ANA_ADC_VBAT*%
X135950000Y-90900000D03*
X142600000Y-98020000D03*
%TO.N,/Project Architecture/SPI1_SCK*%
X151987569Y-87487569D03*
X144980000Y-85125000D03*
%TO.N,/Project Architecture/SPI1_SDO*%
X145580000Y-85900000D03*
X150300000Y-92921000D03*
%TO.N,/Project Architecture/DIG_IMU_CS*%
X147750000Y-95750000D03*
X145055000Y-83950000D03*
%TO.N,/Project Architecture/SPI1_SDI*%
X151018413Y-87268413D03*
X149980000Y-84351000D03*
X147700000Y-94770000D03*
%TO.N,/Project Architecture/DIG_IMU_EXTI*%
X148980000Y-82550000D03*
X147875000Y-93795000D03*
%TO.N,/Project Architecture/ESC_SIG_M4*%
X144050000Y-89100000D03*
X132400000Y-82400000D03*
%TO.N,/Project Architecture/ESC_SIG_M3*%
X145600000Y-88995000D03*
X132400000Y-83925000D03*
%TO.N,/Project Architecture/UART1_RX*%
X141000000Y-89800000D03*
X132300000Y-85845000D03*
%TO.N,/Project Architecture/ESC_SIG_M2*%
X135100000Y-81900000D03*
X143600000Y-86745000D03*
%TO.N,/Project Architecture/Microcontroller/LED1*%
X148150000Y-98700000D03*
X138825000Y-89770000D03*
%TO.N,/Project Architecture/ANA_ADC_CURR*%
X132350000Y-84845000D03*
X144100000Y-98020000D03*
%TO.N,/Project Architecture/Microcontroller/LED0*%
X150000000Y-99595000D03*
X140600000Y-88995000D03*
%TO.N,/Project Architecture/ESC_SIG_M1*%
X135200000Y-80850000D03*
X143100000Y-88970000D03*
%TD*%
D15*
%TO.N,+9V*%
X159477500Y-88387500D02*
X158925000Y-88387500D01*
X161850000Y-86015000D02*
X159477500Y-88387500D01*
%TO.N,Net-(PS1-MODE)*%
X162650000Y-90625000D02*
X162650000Y-86025000D01*
X162250000Y-91025000D02*
X162650000Y-90625000D01*
%TD*%
%TA.AperFunction,Conductor*%
%TO.N,+VBAT*%
G36*
X159292528Y-79219966D02*
G01*
X159338541Y-79272545D01*
X159350000Y-79324608D01*
X159350000Y-87963000D01*
X159347449Y-87971685D01*
X159348738Y-87980647D01*
X159337759Y-88004687D01*
X159330315Y-88030039D01*
X159323474Y-88035966D01*
X159319713Y-88044203D01*
X159297478Y-88058492D01*
X159277511Y-88075794D01*
X159266996Y-88078081D01*
X159260935Y-88081977D01*
X159226000Y-88087000D01*
X159146744Y-88087000D01*
X159084745Y-88070387D01*
X159061838Y-88057162D01*
X159061833Y-88057159D01*
X159013480Y-88044203D01*
X158971671Y-88033000D01*
X158878329Y-88033000D01*
X158836520Y-88044203D01*
X158788167Y-88057159D01*
X158707333Y-88103828D01*
X158707330Y-88103830D01*
X158641330Y-88169830D01*
X158641326Y-88169835D01*
X158638387Y-88174927D01*
X158587820Y-88223143D01*
X158519213Y-88236366D01*
X158454348Y-88210398D01*
X158423613Y-88174927D01*
X158420673Y-88169835D01*
X158420672Y-88169833D01*
X158420671Y-88169832D01*
X158354668Y-88103829D01*
X158273832Y-88057159D01*
X158273833Y-88057159D01*
X158225480Y-88044203D01*
X158183671Y-88033000D01*
X158090329Y-88033000D01*
X158048520Y-88044203D01*
X158000167Y-88057159D01*
X157919333Y-88103828D01*
X157919330Y-88103830D01*
X157853330Y-88169830D01*
X157853326Y-88169835D01*
X157850887Y-88174061D01*
X157800320Y-88222277D01*
X157731713Y-88235500D01*
X157666848Y-88209532D01*
X157636113Y-88174061D01*
X157633673Y-88169835D01*
X157633672Y-88169833D01*
X157633671Y-88169832D01*
X157567668Y-88103829D01*
X157486832Y-88057159D01*
X157486833Y-88057159D01*
X157438480Y-88044203D01*
X157396671Y-88033000D01*
X157303329Y-88033000D01*
X157261520Y-88044203D01*
X157213167Y-88057159D01*
X157132333Y-88103828D01*
X157132330Y-88103830D01*
X157066330Y-88169830D01*
X157066328Y-88169833D01*
X157019659Y-88250667D01*
X157019659Y-88250668D01*
X156995500Y-88340829D01*
X156995500Y-88434171D01*
X157018364Y-88519500D01*
X157019659Y-88524332D01*
X157066328Y-88605166D01*
X157066330Y-88605169D01*
X157085980Y-88624819D01*
X157119465Y-88686142D01*
X157114481Y-88755834D01*
X157085980Y-88800181D01*
X157066330Y-88819830D01*
X157066328Y-88819833D01*
X157019659Y-88900667D01*
X157010852Y-88933536D01*
X156995500Y-88990829D01*
X156995500Y-89084171D01*
X157019659Y-89174332D01*
X157066329Y-89255168D01*
X157132332Y-89321171D01*
X157213168Y-89367841D01*
X157303329Y-89392000D01*
X157303331Y-89392000D01*
X157396669Y-89392000D01*
X157396671Y-89392000D01*
X157486832Y-89367841D01*
X157567668Y-89321171D01*
X157633671Y-89255168D01*
X157636111Y-89250940D01*
X157686676Y-89202725D01*
X157755282Y-89189499D01*
X157820148Y-89215464D01*
X157850887Y-89250939D01*
X157853329Y-89255168D01*
X157919332Y-89321171D01*
X158000168Y-89367841D01*
X158090329Y-89392000D01*
X158090331Y-89392000D01*
X158183669Y-89392000D01*
X158183671Y-89392000D01*
X158273832Y-89367841D01*
X158354668Y-89321171D01*
X158420671Y-89255168D01*
X158423611Y-89250076D01*
X158474176Y-89201858D01*
X158542783Y-89188633D01*
X158607648Y-89214599D01*
X158638389Y-89250076D01*
X158641326Y-89255164D01*
X158641328Y-89255166D01*
X158641329Y-89255168D01*
X158707332Y-89321171D01*
X158788168Y-89367841D01*
X158878329Y-89392000D01*
X158878331Y-89392000D01*
X158971669Y-89392000D01*
X158971671Y-89392000D01*
X159061832Y-89367841D01*
X159142668Y-89321171D01*
X159142674Y-89321164D01*
X159149113Y-89316225D01*
X159150952Y-89318621D01*
X159199642Y-89292035D01*
X159269334Y-89297019D01*
X159325267Y-89338891D01*
X159349684Y-89404355D01*
X159350000Y-89413201D01*
X159350000Y-89961799D01*
X159330315Y-90028838D01*
X159277511Y-90074593D01*
X159208353Y-90084537D01*
X159149847Y-90057818D01*
X159149113Y-90058775D01*
X159144954Y-90055583D01*
X159144797Y-90055512D01*
X159144498Y-90055233D01*
X159142669Y-90053830D01*
X159142668Y-90053829D01*
X159061832Y-90007159D01*
X159061833Y-90007159D01*
X159031778Y-89999106D01*
X158971671Y-89983000D01*
X158878329Y-89983000D01*
X158818221Y-89999106D01*
X158788167Y-90007159D01*
X158707333Y-90053828D01*
X158707330Y-90053830D01*
X158641330Y-90119830D01*
X158641326Y-90119835D01*
X158638387Y-90124927D01*
X158587820Y-90173143D01*
X158519213Y-90186366D01*
X158454348Y-90160398D01*
X158423613Y-90124927D01*
X158420673Y-90119835D01*
X158420672Y-90119833D01*
X158420671Y-90119832D01*
X158354668Y-90053829D01*
X158273832Y-90007159D01*
X158273833Y-90007159D01*
X158243778Y-89999106D01*
X158183671Y-89983000D01*
X158090329Y-89983000D01*
X158030221Y-89999106D01*
X158000167Y-90007159D01*
X157919333Y-90053828D01*
X157919330Y-90053830D01*
X157853330Y-90119830D01*
X157853326Y-90119835D01*
X157850887Y-90124061D01*
X157800320Y-90172277D01*
X157731713Y-90185500D01*
X157666848Y-90159532D01*
X157636113Y-90124061D01*
X157633673Y-90119835D01*
X157633672Y-90119833D01*
X157633671Y-90119832D01*
X157567668Y-90053829D01*
X157486832Y-90007159D01*
X157486833Y-90007159D01*
X157456778Y-89999106D01*
X157396671Y-89983000D01*
X157303329Y-89983000D01*
X157243221Y-89999106D01*
X157213167Y-90007159D01*
X157132333Y-90053828D01*
X157132330Y-90053830D01*
X157066330Y-90119830D01*
X157066328Y-90119833D01*
X157019659Y-90200667D01*
X157010852Y-90233536D01*
X156995500Y-90290829D01*
X156995500Y-90384171D01*
X157004153Y-90416464D01*
X157019659Y-90474332D01*
X157066328Y-90555166D01*
X157066330Y-90555169D01*
X157085980Y-90574819D01*
X157119465Y-90636142D01*
X157114481Y-90705834D01*
X157085980Y-90750181D01*
X157066330Y-90769830D01*
X157066328Y-90769833D01*
X157019659Y-90850667D01*
X157019659Y-90850668D01*
X156995500Y-90940829D01*
X156995500Y-91034171D01*
X157019659Y-91124332D01*
X157066329Y-91205168D01*
X157132332Y-91271171D01*
X157213168Y-91317841D01*
X157303329Y-91342000D01*
X157303331Y-91342000D01*
X157396669Y-91342000D01*
X157396671Y-91342000D01*
X157486832Y-91317841D01*
X157567668Y-91271171D01*
X157633671Y-91205168D01*
X157636111Y-91200940D01*
X157686676Y-91152725D01*
X157755282Y-91139499D01*
X157820148Y-91165464D01*
X157850887Y-91200939D01*
X157853329Y-91205168D01*
X157919332Y-91271171D01*
X158000168Y-91317841D01*
X158090329Y-91342000D01*
X158090331Y-91342000D01*
X158183669Y-91342000D01*
X158183671Y-91342000D01*
X158273832Y-91317841D01*
X158354668Y-91271171D01*
X158420671Y-91205168D01*
X158423611Y-91200076D01*
X158474176Y-91151858D01*
X158542783Y-91138633D01*
X158607648Y-91164599D01*
X158638389Y-91200076D01*
X158641326Y-91205164D01*
X158641328Y-91205166D01*
X158641329Y-91205168D01*
X158707332Y-91271171D01*
X158788168Y-91317841D01*
X158878329Y-91342000D01*
X158878331Y-91342000D01*
X158971669Y-91342000D01*
X158971671Y-91342000D01*
X159061832Y-91317841D01*
X159142668Y-91271171D01*
X159142674Y-91271164D01*
X159149113Y-91266225D01*
X159150952Y-91268621D01*
X159199642Y-91242035D01*
X159269334Y-91247019D01*
X159325267Y-91288891D01*
X159349684Y-91354355D01*
X159350000Y-91363201D01*
X159350000Y-91400000D01*
X161881610Y-91379907D01*
X161948801Y-91399059D01*
X161958008Y-91405478D01*
X161958034Y-91405493D01*
X161958036Y-91405495D01*
X162066464Y-91468095D01*
X162187399Y-91500500D01*
X162187401Y-91500500D01*
X162312599Y-91500500D01*
X162312601Y-91500500D01*
X162433536Y-91468095D01*
X162541964Y-91405495D01*
X162541967Y-91405491D01*
X162548409Y-91400549D01*
X162550374Y-91403109D01*
X162598383Y-91376860D01*
X162623811Y-91374017D01*
X165274519Y-91352980D01*
X165341709Y-91372131D01*
X165387882Y-91424570D01*
X165399500Y-91476975D01*
X165399500Y-93376000D01*
X165379815Y-93443039D01*
X165327011Y-93488794D01*
X165275500Y-93500000D01*
X164671821Y-93500000D01*
X164604782Y-93480315D01*
X164559027Y-93427511D01*
X164549083Y-93358353D01*
X164578108Y-93294797D01*
X164584140Y-93288319D01*
X164630495Y-93241964D01*
X164693095Y-93133536D01*
X164725500Y-93012601D01*
X164725500Y-92887399D01*
X164693095Y-92766464D01*
X164630495Y-92658036D01*
X164541964Y-92569505D01*
X164433536Y-92506905D01*
X164433537Y-92506905D01*
X164359116Y-92486964D01*
X164312601Y-92474500D01*
X164187399Y-92474500D01*
X164140884Y-92486964D01*
X164066463Y-92506905D01*
X163958037Y-92569504D01*
X163958034Y-92569506D01*
X163912681Y-92614860D01*
X163851358Y-92648345D01*
X163781666Y-92643361D01*
X163749675Y-92622801D01*
X163748409Y-92624451D01*
X163741965Y-92619506D01*
X163741964Y-92619505D01*
X163633536Y-92556905D01*
X163633537Y-92556905D01*
X163593224Y-92546103D01*
X163512601Y-92524500D01*
X163387399Y-92524500D01*
X163306775Y-92546103D01*
X163266463Y-92556905D01*
X163158037Y-92619504D01*
X163158034Y-92619506D01*
X163087681Y-92689860D01*
X163026358Y-92723345D01*
X162956666Y-92718361D01*
X162912319Y-92689860D01*
X162841965Y-92619506D01*
X162841964Y-92619505D01*
X162733536Y-92556905D01*
X162733537Y-92556905D01*
X162693224Y-92546103D01*
X162612601Y-92524500D01*
X162487399Y-92524500D01*
X162406775Y-92546103D01*
X162366463Y-92556905D01*
X162258037Y-92619504D01*
X162258034Y-92619506D01*
X162212681Y-92664860D01*
X162151358Y-92698345D01*
X162081666Y-92693361D01*
X162037319Y-92664860D01*
X161991965Y-92619506D01*
X161991964Y-92619505D01*
X161883536Y-92556905D01*
X161883537Y-92556905D01*
X161843224Y-92546103D01*
X161762601Y-92524500D01*
X161637399Y-92524500D01*
X161556775Y-92546103D01*
X161516463Y-92556905D01*
X161408037Y-92619504D01*
X161408034Y-92619506D01*
X161319506Y-92708034D01*
X161319504Y-92708037D01*
X161256905Y-92816463D01*
X161256905Y-92816464D01*
X161224500Y-92937399D01*
X161224500Y-93062601D01*
X161256905Y-93183536D01*
X161319505Y-93291964D01*
X161319507Y-93291966D01*
X161324451Y-93298409D01*
X161322279Y-93300075D01*
X161349345Y-93349642D01*
X161344361Y-93419334D01*
X161302489Y-93475267D01*
X161237025Y-93499684D01*
X161228179Y-93500000D01*
X157945988Y-93500000D01*
X157878949Y-93480315D01*
X157833194Y-93427511D01*
X157823250Y-93358353D01*
X157826214Y-93343905D01*
X157848000Y-93262601D01*
X157848000Y-93137399D01*
X157815595Y-93016464D01*
X157752995Y-92908036D01*
X157664464Y-92819505D01*
X157556036Y-92756905D01*
X157556037Y-92756905D01*
X157513473Y-92745500D01*
X157435101Y-92724500D01*
X157309899Y-92724500D01*
X157231527Y-92745500D01*
X157188963Y-92756905D01*
X157080537Y-92819504D01*
X157080534Y-92819506D01*
X156992006Y-92908034D01*
X156992004Y-92908037D01*
X156929405Y-93016463D01*
X156897000Y-93137400D01*
X156897000Y-93262603D01*
X156903891Y-93288319D01*
X156915192Y-93330495D01*
X156918786Y-93343905D01*
X156917124Y-93413755D01*
X156877963Y-93471618D01*
X156813734Y-93499123D01*
X156799012Y-93500000D01*
X154024000Y-93500000D01*
X153956961Y-93480315D01*
X153911206Y-93427511D01*
X153900000Y-93376000D01*
X153900000Y-82050000D01*
X149001821Y-82050000D01*
X148934782Y-82030315D01*
X148889027Y-81977511D01*
X148879083Y-81908353D01*
X148908108Y-81844797D01*
X148914140Y-81838319D01*
X148915060Y-81837399D01*
X148960495Y-81791964D01*
X149023095Y-81683536D01*
X149055500Y-81562601D01*
X149055500Y-81437399D01*
X149023095Y-81316464D01*
X148960495Y-81208036D01*
X148871964Y-81119505D01*
X148763536Y-81056905D01*
X148763537Y-81056905D01*
X148723224Y-81046103D01*
X148642601Y-81024500D01*
X148517399Y-81024500D01*
X148436775Y-81046103D01*
X148396463Y-81056905D01*
X148288037Y-81119504D01*
X148288034Y-81119506D01*
X148199506Y-81208034D01*
X148199504Y-81208037D01*
X148136905Y-81316463D01*
X148136905Y-81316464D01*
X148104500Y-81437399D01*
X148104500Y-81562601D01*
X148136905Y-81683536D01*
X148163132Y-81728964D01*
X148199504Y-81791962D01*
X148199506Y-81791965D01*
X148245860Y-81838319D01*
X148279345Y-81899642D01*
X148274361Y-81969334D01*
X148232489Y-82025267D01*
X148167025Y-82049684D01*
X148158179Y-82050000D01*
X146526821Y-82050000D01*
X146459782Y-82030315D01*
X146414027Y-81977511D01*
X146404083Y-81908353D01*
X146433108Y-81844797D01*
X146439140Y-81838319D01*
X146440060Y-81837399D01*
X146485495Y-81791964D01*
X146548095Y-81683536D01*
X146580500Y-81562601D01*
X146580500Y-81437399D01*
X146548095Y-81316464D01*
X146485495Y-81208036D01*
X146396964Y-81119505D01*
X146288536Y-81056905D01*
X146288537Y-81056905D01*
X146248224Y-81046103D01*
X146167601Y-81024500D01*
X146042399Y-81024500D01*
X145961775Y-81046103D01*
X145921463Y-81056905D01*
X145813037Y-81119504D01*
X145813034Y-81119506D01*
X145724506Y-81208034D01*
X145724504Y-81208037D01*
X145661905Y-81316463D01*
X145661905Y-81316464D01*
X145629500Y-81437399D01*
X145629500Y-81562601D01*
X145661905Y-81683536D01*
X145688132Y-81728964D01*
X145724504Y-81791962D01*
X145724506Y-81791965D01*
X145770860Y-81838319D01*
X145804345Y-81899642D01*
X145799361Y-81969334D01*
X145757489Y-82025267D01*
X145692025Y-82049684D01*
X145683179Y-82050000D01*
X135699500Y-82050000D01*
X135632461Y-82030315D01*
X135586706Y-81977511D01*
X135575500Y-81926000D01*
X135575500Y-81837400D01*
X135575500Y-81837399D01*
X135543095Y-81716464D01*
X135480495Y-81608036D01*
X135391964Y-81519505D01*
X135388470Y-81517488D01*
X135377670Y-81511252D01*
X135329456Y-81460683D01*
X135316235Y-81392076D01*
X135342204Y-81327212D01*
X135377675Y-81296478D01*
X135383533Y-81293095D01*
X135383536Y-81293095D01*
X135491964Y-81230495D01*
X135580495Y-81141964D01*
X135643095Y-81033536D01*
X135675500Y-80912601D01*
X135675500Y-80787399D01*
X135643095Y-80666464D01*
X135580495Y-80558036D01*
X135491964Y-80469505D01*
X135383536Y-80406905D01*
X135383537Y-80406905D01*
X135343224Y-80396103D01*
X135262601Y-80374500D01*
X135137399Y-80374500D01*
X135056775Y-80396103D01*
X135016463Y-80406905D01*
X134908037Y-80469504D01*
X134908034Y-80469506D01*
X134819506Y-80558034D01*
X134819504Y-80558037D01*
X134756905Y-80666463D01*
X134756905Y-80666464D01*
X134724500Y-80787399D01*
X134724500Y-80912601D01*
X134756905Y-81033536D01*
X134819505Y-81141964D01*
X134908036Y-81230495D01*
X134918508Y-81236541D01*
X134922327Y-81238746D01*
X134970542Y-81289314D01*
X134983764Y-81357921D01*
X134957796Y-81422786D01*
X134922325Y-81453520D01*
X134808042Y-81519500D01*
X134808034Y-81519506D01*
X134719506Y-81608034D01*
X134719504Y-81608037D01*
X134656905Y-81716463D01*
X134640702Y-81776931D01*
X134636675Y-81791964D01*
X134624500Y-81837400D01*
X134624500Y-81926000D01*
X134604815Y-81993039D01*
X134552011Y-82038794D01*
X134500500Y-82050000D01*
X132773798Y-82050000D01*
X132706759Y-82030315D01*
X132698310Y-82024375D01*
X132691966Y-82019507D01*
X132691964Y-82019505D01*
X132583536Y-81956905D01*
X132583537Y-81956905D01*
X132531997Y-81943095D01*
X132462601Y-81924500D01*
X132337399Y-81924500D01*
X132268003Y-81943095D01*
X132216463Y-81956905D01*
X132108037Y-82019504D01*
X132101690Y-82024375D01*
X132036521Y-82049570D01*
X132026202Y-82050000D01*
X129024500Y-82050000D01*
X128957461Y-82030315D01*
X128911706Y-81977511D01*
X128900500Y-81926000D01*
X128900500Y-79472413D01*
X128920185Y-79405374D01*
X128972989Y-79359619D01*
X129023888Y-79348414D01*
X138570885Y-79301692D01*
X138638016Y-79321048D01*
X138684029Y-79373627D01*
X138694311Y-79442736D01*
X138665597Y-79506433D01*
X138659170Y-79513370D01*
X138619506Y-79553034D01*
X138619504Y-79553037D01*
X138556905Y-79661463D01*
X138556905Y-79661464D01*
X138524500Y-79782399D01*
X138524500Y-79907601D01*
X138556905Y-80028536D01*
X138619505Y-80136964D01*
X138708036Y-80225495D01*
X138816464Y-80288095D01*
X138937399Y-80320500D01*
X138937401Y-80320500D01*
X139062599Y-80320500D01*
X139062601Y-80320500D01*
X139183536Y-80288095D01*
X139291964Y-80225495D01*
X139380495Y-80136964D01*
X139443095Y-80028536D01*
X139475500Y-79907601D01*
X139475500Y-79782399D01*
X139443095Y-79661464D01*
X139380495Y-79553036D01*
X139336656Y-79509197D01*
X139303171Y-79447874D01*
X139308155Y-79378182D01*
X139350027Y-79322249D01*
X139415491Y-79297832D01*
X139423686Y-79297518D01*
X150677936Y-79242440D01*
X150745065Y-79261796D01*
X150791078Y-79314375D01*
X150801360Y-79383484D01*
X150798312Y-79398531D01*
X150774501Y-79487396D01*
X150774500Y-79487399D01*
X150774500Y-79612601D01*
X150806905Y-79733536D01*
X150869505Y-79841964D01*
X150958036Y-79930495D01*
X151066464Y-79993095D01*
X151187399Y-80025500D01*
X151187401Y-80025500D01*
X151312599Y-80025500D01*
X151312601Y-80025500D01*
X151433536Y-79993095D01*
X151541964Y-79930495D01*
X151630495Y-79841964D01*
X151693095Y-79733536D01*
X151725500Y-79612601D01*
X151725500Y-79487399D01*
X151700191Y-79392946D01*
X151701853Y-79323098D01*
X151741014Y-79265235D01*
X151805242Y-79237730D01*
X151819345Y-79236854D01*
X159225395Y-79200609D01*
X159292528Y-79219966D01*
G37*
%TD.AperFunction*%
%TD*%
%TA.AperFunction,Conductor*%
%TO.N,+3V3*%
G36*
X146125032Y-81979471D02*
G01*
X146139100Y-81978609D01*
X146157890Y-81989119D01*
X146178547Y-81995185D01*
X146188986Y-82006513D01*
X146200078Y-82012717D01*
X146220938Y-82041183D01*
X146250169Y-82096036D01*
X146258720Y-82112083D01*
X146258722Y-82112086D01*
X146304481Y-82164895D01*
X146322063Y-82182839D01*
X146322067Y-82182843D01*
X146322068Y-82182844D01*
X146322070Y-82182845D01*
X146386418Y-82218839D01*
X146401884Y-82227490D01*
X146468923Y-82247175D01*
X146526821Y-82255500D01*
X146526825Y-82255500D01*
X148158183Y-82255500D01*
X148158633Y-82255491D01*
X148165515Y-82255369D01*
X148174361Y-82255053D01*
X148238840Y-82242227D01*
X148304304Y-82217810D01*
X148327273Y-82207603D01*
X148373049Y-82168748D01*
X148436897Y-82140374D01*
X148505951Y-82151023D01*
X148558285Y-82197314D01*
X148577285Y-82264551D01*
X148560679Y-82325284D01*
X148536907Y-82366459D01*
X148536905Y-82366462D01*
X148533412Y-82379500D01*
X148504500Y-82487399D01*
X148504500Y-82612601D01*
X148536905Y-82733536D01*
X148599505Y-82841964D01*
X148688036Y-82930495D01*
X148796464Y-82993095D01*
X148917399Y-83025500D01*
X148917401Y-83025500D01*
X149042599Y-83025500D01*
X149042601Y-83025500D01*
X149163536Y-82993095D01*
X149271964Y-82930495D01*
X149360495Y-82841964D01*
X149423095Y-82733536D01*
X149455500Y-82612601D01*
X149455500Y-82487399D01*
X149435187Y-82411591D01*
X149436850Y-82341745D01*
X149476012Y-82283882D01*
X149540240Y-82256377D01*
X149554962Y-82255500D01*
X151502847Y-82255500D01*
X151569886Y-82275185D01*
X151615641Y-82327989D01*
X151625585Y-82397147D01*
X151596560Y-82460703D01*
X151537782Y-82498477D01*
X151534981Y-82499263D01*
X151516122Y-82504317D01*
X151506463Y-82506905D01*
X151398037Y-82569504D01*
X151398034Y-82569506D01*
X151309506Y-82658034D01*
X151309504Y-82658037D01*
X151246905Y-82766463D01*
X151243146Y-82780493D01*
X151214500Y-82887399D01*
X151214500Y-83012601D01*
X151246905Y-83133536D01*
X151309505Y-83241964D01*
X151398036Y-83330495D01*
X151506464Y-83393095D01*
X151627399Y-83425500D01*
X151627401Y-83425500D01*
X151752599Y-83425500D01*
X151752601Y-83425500D01*
X151873536Y-83393095D01*
X151981964Y-83330495D01*
X152070495Y-83241964D01*
X152133095Y-83133536D01*
X152165500Y-83012601D01*
X152165500Y-82887399D01*
X152133095Y-82766464D01*
X152070495Y-82658036D01*
X151981964Y-82569505D01*
X151873536Y-82506905D01*
X151873537Y-82506905D01*
X151863877Y-82504317D01*
X151845057Y-82499274D01*
X151785399Y-82462909D01*
X151754870Y-82400062D01*
X151763165Y-82330687D01*
X151807651Y-82276809D01*
X151874203Y-82255535D01*
X151877153Y-82255500D01*
X153570500Y-82255500D01*
X153637539Y-82275185D01*
X153683294Y-82327989D01*
X153694500Y-82379500D01*
X153694500Y-93376007D01*
X153699197Y-93419686D01*
X153710397Y-93471174D01*
X153712342Y-93479133D01*
X153712890Y-93481373D01*
X153755900Y-93562085D01*
X153771852Y-93580495D01*
X153801660Y-93614895D01*
X153814497Y-93627996D01*
X153819246Y-93632843D01*
X153819247Y-93632844D01*
X153819249Y-93632845D01*
X153895505Y-93675500D01*
X153899063Y-93677490D01*
X153966102Y-93697175D01*
X154024000Y-93705500D01*
X154024004Y-93705500D01*
X156799011Y-93705500D01*
X156799012Y-93705500D01*
X156811232Y-93705136D01*
X156825954Y-93704259D01*
X156894630Y-93688030D01*
X156958859Y-93660525D01*
X156981321Y-93649234D01*
X156997576Y-93634047D01*
X157060000Y-93602664D01*
X157129482Y-93610011D01*
X157144227Y-93617266D01*
X157188964Y-93643095D01*
X157309899Y-93675500D01*
X157309901Y-93675500D01*
X157435099Y-93675500D01*
X157435101Y-93675500D01*
X157556036Y-93643095D01*
X157597578Y-93619110D01*
X157665474Y-93602639D01*
X157731501Y-93625491D01*
X157734895Y-93627996D01*
X157741233Y-93632842D01*
X157741234Y-93632843D01*
X157759562Y-93643095D01*
X157803747Y-93667811D01*
X157821051Y-93677490D01*
X157888090Y-93697175D01*
X157945988Y-93705500D01*
X157945992Y-93705500D01*
X161228183Y-93705500D01*
X161228633Y-93705491D01*
X161235515Y-93705369D01*
X161244361Y-93705053D01*
X161308840Y-93692227D01*
X161374304Y-93667810D01*
X161397273Y-93657603D01*
X161466999Y-93598421D01*
X161508871Y-93542488D01*
X161516910Y-93530254D01*
X161570172Y-93485040D01*
X161629271Y-93476489D01*
X161629271Y-93475500D01*
X161636112Y-93475500D01*
X161636727Y-93475411D01*
X161637395Y-93475498D01*
X161637399Y-93475500D01*
X161637403Y-93475500D01*
X161762599Y-93475500D01*
X161762601Y-93475500D01*
X161883536Y-93443095D01*
X161991964Y-93380495D01*
X162037319Y-93335140D01*
X162098642Y-93301655D01*
X162168334Y-93306639D01*
X162212681Y-93335140D01*
X162258036Y-93380495D01*
X162366464Y-93443095D01*
X162487399Y-93475500D01*
X162487401Y-93475500D01*
X162612599Y-93475500D01*
X162612601Y-93475500D01*
X162733536Y-93443095D01*
X162841964Y-93380495D01*
X162912319Y-93310140D01*
X162973642Y-93276655D01*
X163043334Y-93281639D01*
X163087681Y-93310140D01*
X163158036Y-93380495D01*
X163266464Y-93443095D01*
X163387399Y-93475500D01*
X163387401Y-93475500D01*
X163512599Y-93475500D01*
X163512601Y-93475500D01*
X163633536Y-93443095D01*
X163741964Y-93380495D01*
X163787319Y-93335140D01*
X163848642Y-93301655D01*
X163918334Y-93306639D01*
X163950324Y-93327198D01*
X163951591Y-93325549D01*
X163958032Y-93330491D01*
X163958036Y-93330495D01*
X164066464Y-93393095D01*
X164187399Y-93425500D01*
X164187401Y-93425500D01*
X164256508Y-93425500D01*
X164323547Y-93445185D01*
X164365939Y-93491184D01*
X164403721Y-93562085D01*
X164419673Y-93580495D01*
X164449481Y-93614895D01*
X164462318Y-93627996D01*
X164467067Y-93632843D01*
X164467068Y-93632844D01*
X164467070Y-93632845D01*
X164543326Y-93675500D01*
X164546884Y-93677490D01*
X164613923Y-93697175D01*
X164671821Y-93705500D01*
X164671825Y-93705500D01*
X165275500Y-93705500D01*
X165342539Y-93725185D01*
X165388294Y-93777989D01*
X165399500Y-93829500D01*
X165399500Y-99314797D01*
X165379815Y-99381836D01*
X165327011Y-99427591D01*
X165257853Y-99437535D01*
X165194297Y-99408510D01*
X165163780Y-99368599D01*
X165030247Y-99091316D01*
X165020305Y-99075493D01*
X164850946Y-98805961D01*
X164640825Y-98542477D01*
X164402523Y-98304175D01*
X164139039Y-98094054D01*
X163853686Y-97914754D01*
X163853683Y-97914752D01*
X163550054Y-97768532D01*
X163231965Y-97657227D01*
X163231953Y-97657223D01*
X162903397Y-97582233D01*
X162903381Y-97582231D01*
X162568508Y-97544500D01*
X162568504Y-97544500D01*
X162231496Y-97544500D01*
X162231491Y-97544500D01*
X161896618Y-97582231D01*
X161896602Y-97582233D01*
X161568046Y-97657223D01*
X161568034Y-97657227D01*
X161249945Y-97768532D01*
X160946316Y-97914752D01*
X160660962Y-98094053D01*
X160397477Y-98304174D01*
X160159174Y-98542477D01*
X159949053Y-98805962D01*
X159769752Y-99091316D01*
X159623532Y-99394945D01*
X159512227Y-99713034D01*
X159512223Y-99713046D01*
X159437233Y-100041602D01*
X159437231Y-100041618D01*
X159399500Y-100376491D01*
X159399500Y-100713508D01*
X159437231Y-101048381D01*
X159437233Y-101048397D01*
X159512223Y-101376953D01*
X159512227Y-101376965D01*
X159623532Y-101695054D01*
X159769752Y-101998683D01*
X159769754Y-101998686D01*
X159949054Y-102284039D01*
X160159175Y-102547523D01*
X160397477Y-102785825D01*
X160660961Y-102995946D01*
X160945071Y-103174465D01*
X160946316Y-103175247D01*
X161223599Y-103308780D01*
X161275458Y-103355602D01*
X161293771Y-103423030D01*
X161272723Y-103489653D01*
X161218997Y-103534322D01*
X161169797Y-103544500D01*
X156368493Y-103544500D01*
X156301454Y-103524815D01*
X156255699Y-103472011D01*
X156245755Y-103402853D01*
X156274780Y-103339297D01*
X156333558Y-103301523D01*
X156336357Y-103300736D01*
X156383536Y-103288095D01*
X156491964Y-103225495D01*
X156580495Y-103136964D01*
X156643095Y-103028536D01*
X156675500Y-102907601D01*
X156675500Y-102782399D01*
X156643095Y-102661464D01*
X156580495Y-102553036D01*
X156491964Y-102464505D01*
X156383536Y-102401905D01*
X156383537Y-102401905D01*
X156343224Y-102391103D01*
X156262601Y-102369500D01*
X156137399Y-102369500D01*
X156056775Y-102391103D01*
X156016463Y-102401905D01*
X155908037Y-102464504D01*
X155908034Y-102464506D01*
X155819506Y-102553034D01*
X155819504Y-102553037D01*
X155756905Y-102661463D01*
X155756905Y-102661464D01*
X155724500Y-102782399D01*
X155724500Y-102907601D01*
X155756905Y-103028536D01*
X155819505Y-103136964D01*
X155908036Y-103225495D01*
X156016464Y-103288095D01*
X156063602Y-103300725D01*
X156123261Y-103337091D01*
X156153790Y-103399938D01*
X156145495Y-103469313D01*
X156101009Y-103523191D01*
X156034457Y-103544465D01*
X156031507Y-103544500D01*
X153468493Y-103544500D01*
X153401454Y-103524815D01*
X153355699Y-103472011D01*
X153345755Y-103402853D01*
X153374780Y-103339297D01*
X153433558Y-103301523D01*
X153436357Y-103300736D01*
X153483536Y-103288095D01*
X153591964Y-103225495D01*
X153680495Y-103136964D01*
X153743095Y-103028536D01*
X153775500Y-102907601D01*
X153775500Y-102782399D01*
X153743095Y-102661464D01*
X153680495Y-102553036D01*
X153591964Y-102464505D01*
X153483536Y-102401905D01*
X153483537Y-102401905D01*
X153443224Y-102391103D01*
X153362601Y-102369500D01*
X153237399Y-102369500D01*
X153156775Y-102391103D01*
X153116463Y-102401905D01*
X153008037Y-102464504D01*
X153008034Y-102464506D01*
X152919506Y-102553034D01*
X152919504Y-102553037D01*
X152856905Y-102661463D01*
X152856905Y-102661464D01*
X152824500Y-102782399D01*
X152824500Y-102907601D01*
X152856905Y-103028536D01*
X152919505Y-103136964D01*
X153008036Y-103225495D01*
X153116464Y-103288095D01*
X153163602Y-103300725D01*
X153223261Y-103337091D01*
X153253790Y-103399938D01*
X153245495Y-103469313D01*
X153201009Y-103523191D01*
X153134457Y-103544465D01*
X153131507Y-103544500D01*
X147117156Y-103544500D01*
X147050117Y-103524815D01*
X147004362Y-103472011D01*
X146994418Y-103402853D01*
X147023443Y-103339297D01*
X147055155Y-103313112D01*
X147141964Y-103262995D01*
X147230495Y-103174464D01*
X147293095Y-103066036D01*
X147325500Y-102945101D01*
X147325500Y-102819899D01*
X147293095Y-102698964D01*
X147230495Y-102590536D01*
X147141964Y-102502005D01*
X147033536Y-102439405D01*
X147033537Y-102439405D01*
X146993224Y-102428603D01*
X146912601Y-102407000D01*
X146787399Y-102407000D01*
X146706775Y-102428603D01*
X146666463Y-102439405D01*
X146558037Y-102502004D01*
X146558034Y-102502006D01*
X146469506Y-102590534D01*
X146469504Y-102590537D01*
X146406905Y-102698963D01*
X146406905Y-102698964D01*
X146374500Y-102819899D01*
X146374500Y-102945101D01*
X146406905Y-103066036D01*
X146469505Y-103174464D01*
X146558036Y-103262995D01*
X146644843Y-103313112D01*
X146693059Y-103363679D01*
X146706283Y-103432286D01*
X146680315Y-103497151D01*
X146623401Y-103537680D01*
X146582844Y-103544500D01*
X145441924Y-103544500D01*
X145374885Y-103524815D01*
X145329130Y-103472011D01*
X145319186Y-103402853D01*
X145322149Y-103388406D01*
X145323704Y-103382603D01*
X145350500Y-103282601D01*
X145350500Y-103157399D01*
X145318095Y-103036464D01*
X145279432Y-102969498D01*
X145262961Y-102901599D01*
X145279433Y-102845501D01*
X145318095Y-102778536D01*
X145350500Y-102657601D01*
X145350500Y-102532399D01*
X145318095Y-102411464D01*
X145255495Y-102303036D01*
X145166964Y-102214505D01*
X145058536Y-102151905D01*
X145058537Y-102151905D01*
X145018224Y-102141103D01*
X144937601Y-102119500D01*
X144812399Y-102119500D01*
X144731775Y-102141103D01*
X144691463Y-102151905D01*
X144583037Y-102214504D01*
X144583034Y-102214506D01*
X144494506Y-102303034D01*
X144494504Y-102303037D01*
X144431905Y-102411463D01*
X144431905Y-102411464D01*
X144399500Y-102532399D01*
X144399500Y-102657601D01*
X144418006Y-102726666D01*
X144431905Y-102778537D01*
X144431907Y-102778540D01*
X144470566Y-102845502D01*
X144487037Y-102913402D01*
X144470566Y-102969498D01*
X144431907Y-103036459D01*
X144431905Y-103036462D01*
X144419596Y-103082400D01*
X144399500Y-103157399D01*
X144399500Y-103282601D01*
X144426296Y-103382603D01*
X144427851Y-103388406D01*
X144426188Y-103458256D01*
X144387026Y-103516119D01*
X144322797Y-103543623D01*
X144308076Y-103544500D01*
X141908183Y-103544500D01*
X141841144Y-103524815D01*
X141795389Y-103472011D01*
X141785445Y-103402853D01*
X141800795Y-103358502D01*
X141813156Y-103337091D01*
X141818095Y-103328536D01*
X141850500Y-103207601D01*
X141850500Y-103082399D01*
X141818095Y-102961464D01*
X141755495Y-102853036D01*
X141755491Y-102853032D01*
X141750549Y-102846591D01*
X141753040Y-102844679D01*
X141726655Y-102796358D01*
X141731639Y-102726666D01*
X141752198Y-102694675D01*
X141750549Y-102693409D01*
X141755488Y-102686970D01*
X141755495Y-102686964D01*
X141818095Y-102578536D01*
X141850500Y-102457601D01*
X141850500Y-102332399D01*
X141818095Y-102211464D01*
X141755495Y-102103036D01*
X141666964Y-102014505D01*
X141558536Y-101951905D01*
X141558537Y-101951905D01*
X141518224Y-101941103D01*
X141437601Y-101919500D01*
X141312399Y-101919500D01*
X141231775Y-101941103D01*
X141191463Y-101951905D01*
X141083037Y-102014504D01*
X141083034Y-102014506D01*
X140994506Y-102103034D01*
X140994504Y-102103037D01*
X140931905Y-102211463D01*
X140931905Y-102211464D01*
X140899500Y-102332399D01*
X140899500Y-102457601D01*
X140931905Y-102578536D01*
X140994505Y-102686964D01*
X140994507Y-102686966D01*
X140999451Y-102693409D01*
X140996959Y-102695320D01*
X141023345Y-102743642D01*
X141018361Y-102813334D01*
X140997801Y-102845324D01*
X140999451Y-102846591D01*
X140994504Y-102853037D01*
X140931905Y-102961463D01*
X140931905Y-102961464D01*
X140899500Y-103082399D01*
X140899500Y-103207601D01*
X140904295Y-103225495D01*
X140931905Y-103328537D01*
X140931907Y-103328540D01*
X140949205Y-103358502D01*
X140965676Y-103426402D01*
X140942823Y-103492428D01*
X140887902Y-103535618D01*
X140841817Y-103544500D01*
X135343719Y-103544500D01*
X135276680Y-103524815D01*
X135230925Y-103472011D01*
X135220981Y-103402853D01*
X135223945Y-103388405D01*
X135225499Y-103382603D01*
X135225500Y-103382600D01*
X135225500Y-103257400D01*
X135216951Y-103225495D01*
X135193095Y-103136464D01*
X135130495Y-103028036D01*
X135041964Y-102939505D01*
X134933536Y-102876905D01*
X134933537Y-102876905D01*
X134893224Y-102866103D01*
X134812601Y-102844500D01*
X134687399Y-102844500D01*
X134606775Y-102866103D01*
X134566463Y-102876905D01*
X134458037Y-102939504D01*
X134458034Y-102939506D01*
X134369506Y-103028034D01*
X134369504Y-103028037D01*
X134306905Y-103136463D01*
X134274500Y-103257400D01*
X134274500Y-103382603D01*
X134276055Y-103388405D01*
X134274393Y-103458255D01*
X134235232Y-103516118D01*
X134171003Y-103543623D01*
X134156281Y-103544500D01*
X133130203Y-103544500D01*
X133063164Y-103524815D01*
X133017409Y-103472011D01*
X133007465Y-103402853D01*
X133036490Y-103339297D01*
X133076401Y-103308780D01*
X133286504Y-103207599D01*
X133353686Y-103175246D01*
X133639039Y-102995946D01*
X133902523Y-102785825D01*
X134140825Y-102547523D01*
X134350946Y-102284039D01*
X134530246Y-101998686D01*
X134676469Y-101695051D01*
X134767790Y-101434071D01*
X152949499Y-101434071D01*
X152974497Y-101559738D01*
X152974499Y-101559744D01*
X153023533Y-101678124D01*
X153023538Y-101678133D01*
X153094723Y-101784668D01*
X153094726Y-101784672D01*
X153185327Y-101875273D01*
X153185331Y-101875276D01*
X153291866Y-101946461D01*
X153291872Y-101946464D01*
X153291873Y-101946465D01*
X153410256Y-101995501D01*
X153410260Y-101995501D01*
X153410261Y-101995502D01*
X153535928Y-102020500D01*
X153535931Y-102020500D01*
X153664071Y-102020500D01*
X153773747Y-101998683D01*
X153789744Y-101995501D01*
X153908127Y-101946465D01*
X154014669Y-101875276D01*
X154105276Y-101784669D01*
X154176465Y-101678127D01*
X154225501Y-101559744D01*
X154250500Y-101434071D01*
X155249499Y-101434071D01*
X155274497Y-101559738D01*
X155274499Y-101559744D01*
X155323533Y-101678124D01*
X155323538Y-101678133D01*
X155394723Y-101784668D01*
X155394726Y-101784672D01*
X155485327Y-101875273D01*
X155485331Y-101875276D01*
X155591866Y-101946461D01*
X155591872Y-101946464D01*
X155591873Y-101946465D01*
X155710256Y-101995501D01*
X155710260Y-101995501D01*
X155710261Y-101995502D01*
X155835928Y-102020500D01*
X155835931Y-102020500D01*
X155964071Y-102020500D01*
X156073747Y-101998683D01*
X156089744Y-101995501D01*
X156208127Y-101946465D01*
X156314669Y-101875276D01*
X156405276Y-101784669D01*
X156476465Y-101678127D01*
X156525501Y-101559744D01*
X156550500Y-101434069D01*
X156550500Y-101305931D01*
X156550500Y-101305928D01*
X156525502Y-101180261D01*
X156525501Y-101180260D01*
X156525501Y-101180256D01*
X156476465Y-101061873D01*
X156476464Y-101061872D01*
X156476461Y-101061866D01*
X156405276Y-100955331D01*
X156405273Y-100955327D01*
X156314672Y-100864726D01*
X156314668Y-100864723D01*
X156208133Y-100793538D01*
X156208124Y-100793533D01*
X156089744Y-100744499D01*
X156089738Y-100744497D01*
X155964071Y-100719500D01*
X155964069Y-100719500D01*
X155835931Y-100719500D01*
X155835929Y-100719500D01*
X155710261Y-100744497D01*
X155710255Y-100744499D01*
X155591875Y-100793533D01*
X155591866Y-100793538D01*
X155485331Y-100864723D01*
X155485327Y-100864726D01*
X155394726Y-100955327D01*
X155394723Y-100955331D01*
X155323538Y-101061866D01*
X155323533Y-101061875D01*
X155274499Y-101180255D01*
X155274497Y-101180261D01*
X155249500Y-101305928D01*
X155249500Y-101305931D01*
X155249500Y-101434069D01*
X155249500Y-101434071D01*
X155249499Y-101434071D01*
X154250500Y-101434071D01*
X154250500Y-101434069D01*
X154250500Y-101305931D01*
X154250500Y-101305928D01*
X154225502Y-101180261D01*
X154225501Y-101180260D01*
X154225501Y-101180256D01*
X154176465Y-101061873D01*
X154176464Y-101061872D01*
X154176461Y-101061866D01*
X154105276Y-100955331D01*
X154105273Y-100955327D01*
X154014672Y-100864726D01*
X154014668Y-100864723D01*
X153908133Y-100793538D01*
X153908124Y-100793533D01*
X153789744Y-100744499D01*
X153789738Y-100744497D01*
X153664071Y-100719500D01*
X153664069Y-100719500D01*
X153535931Y-100719500D01*
X153535929Y-100719500D01*
X153410261Y-100744497D01*
X153410255Y-100744499D01*
X153291875Y-100793533D01*
X153291866Y-100793538D01*
X153185331Y-100864723D01*
X153185327Y-100864726D01*
X153094726Y-100955327D01*
X153094723Y-100955331D01*
X153023538Y-101061866D01*
X153023533Y-101061875D01*
X152974499Y-101180255D01*
X152974497Y-101180261D01*
X152949500Y-101305928D01*
X152949500Y-101305931D01*
X152949500Y-101434069D01*
X152949500Y-101434071D01*
X152949499Y-101434071D01*
X134767790Y-101434071D01*
X134787776Y-101376954D01*
X134862767Y-101048394D01*
X134900500Y-100713504D01*
X134900500Y-100682399D01*
X146174500Y-100682399D01*
X146174500Y-100807601D01*
X146206905Y-100928536D01*
X146269505Y-101036964D01*
X146358036Y-101125495D01*
X146466464Y-101188095D01*
X146587399Y-101220500D01*
X146587401Y-101220500D01*
X146712599Y-101220500D01*
X146712601Y-101220500D01*
X146833536Y-101188095D01*
X146941964Y-101125495D01*
X147030495Y-101036964D01*
X147093095Y-100928536D01*
X147125500Y-100807601D01*
X147125500Y-100682399D01*
X147093095Y-100561464D01*
X147030495Y-100453036D01*
X146941964Y-100364505D01*
X146833536Y-100301905D01*
X146833537Y-100301905D01*
X146793224Y-100291103D01*
X146712601Y-100269500D01*
X146587399Y-100269500D01*
X146506775Y-100291103D01*
X146466463Y-100301905D01*
X146358037Y-100364504D01*
X146358034Y-100364506D01*
X146269506Y-100453034D01*
X146269504Y-100453037D01*
X146206905Y-100561463D01*
X146206905Y-100561464D01*
X146174500Y-100682399D01*
X134900500Y-100682399D01*
X134900500Y-100376496D01*
X134862767Y-100041606D01*
X134787776Y-99713046D01*
X134768375Y-99657601D01*
X134736052Y-99565226D01*
X134724565Y-99532399D01*
X149524500Y-99532399D01*
X149524500Y-99657601D01*
X149556905Y-99778536D01*
X149619505Y-99886964D01*
X149708036Y-99975495D01*
X149816464Y-100038095D01*
X149937399Y-100070500D01*
X149937401Y-100070500D01*
X150062599Y-100070500D01*
X150062601Y-100070500D01*
X150183536Y-100038095D01*
X150291964Y-99975495D01*
X150380495Y-99886964D01*
X150443095Y-99778536D01*
X150475500Y-99657601D01*
X150475500Y-99532399D01*
X150443095Y-99411464D01*
X150380495Y-99303036D01*
X150291964Y-99214505D01*
X150183536Y-99151905D01*
X150183537Y-99151905D01*
X150131997Y-99138095D01*
X150062601Y-99119500D01*
X149937399Y-99119500D01*
X149868003Y-99138095D01*
X149816463Y-99151905D01*
X149708037Y-99214504D01*
X149708034Y-99214506D01*
X149619506Y-99303034D01*
X149619504Y-99303037D01*
X149556905Y-99411463D01*
X149556905Y-99411464D01*
X149524500Y-99532399D01*
X134724565Y-99532399D01*
X134684438Y-99417723D01*
X134676469Y-99394949D01*
X134530246Y-99091314D01*
X134350946Y-98805961D01*
X134267707Y-98701583D01*
X134267707Y-98701581D01*
X134212536Y-98632399D01*
X136074500Y-98632399D01*
X136074500Y-98757601D01*
X136106905Y-98878536D01*
X136169505Y-98986964D01*
X136258036Y-99075495D01*
X136366464Y-99138095D01*
X136487399Y-99170500D01*
X136487401Y-99170500D01*
X136612599Y-99170500D01*
X136612601Y-99170500D01*
X136733536Y-99138095D01*
X136841964Y-99075495D01*
X136930495Y-98986964D01*
X136993095Y-98878536D01*
X137025500Y-98757601D01*
X137025500Y-98632399D01*
X136993095Y-98511464D01*
X136930495Y-98403036D01*
X136841964Y-98314505D01*
X136733536Y-98251905D01*
X136733537Y-98251905D01*
X136693224Y-98241103D01*
X136612601Y-98219500D01*
X136487399Y-98219500D01*
X136406775Y-98241103D01*
X136366463Y-98251905D01*
X136258037Y-98314504D01*
X136258034Y-98314506D01*
X136169506Y-98403034D01*
X136169504Y-98403037D01*
X136106905Y-98511463D01*
X136106905Y-98511464D01*
X136074500Y-98632399D01*
X134212536Y-98632399D01*
X134140831Y-98542483D01*
X133902522Y-98304174D01*
X133639034Y-98094050D01*
X133639029Y-98094046D01*
X133575718Y-98054265D01*
X133575716Y-98054265D01*
X133421555Y-97957399D01*
X142124500Y-97957399D01*
X142124500Y-98082601D01*
X142156905Y-98203536D01*
X142219505Y-98311964D01*
X142308036Y-98400495D01*
X142416464Y-98463095D01*
X142537399Y-98495500D01*
X142537401Y-98495500D01*
X142662599Y-98495500D01*
X142662601Y-98495500D01*
X142783536Y-98463095D01*
X142891964Y-98400495D01*
X142980495Y-98311964D01*
X143043095Y-98203536D01*
X143075500Y-98082601D01*
X143075500Y-97957399D01*
X143624500Y-97957399D01*
X143624500Y-98082601D01*
X143656905Y-98203536D01*
X143719505Y-98311964D01*
X143808036Y-98400495D01*
X143916464Y-98463095D01*
X144037399Y-98495500D01*
X144037401Y-98495500D01*
X144162599Y-98495500D01*
X144162601Y-98495500D01*
X144283536Y-98463095D01*
X144391964Y-98400495D01*
X144480495Y-98311964D01*
X144543095Y-98203536D01*
X144575500Y-98082601D01*
X144575500Y-97957399D01*
X145624500Y-97957399D01*
X145624500Y-98082601D01*
X145656905Y-98203536D01*
X145719505Y-98311964D01*
X145808036Y-98400495D01*
X145916464Y-98463095D01*
X146037399Y-98495500D01*
X146037401Y-98495500D01*
X146162599Y-98495500D01*
X146162601Y-98495500D01*
X146283536Y-98463095D01*
X146391964Y-98400495D01*
X146410060Y-98382399D01*
X147974500Y-98382399D01*
X147974500Y-98507601D01*
X148006905Y-98628536D01*
X148069505Y-98736964D01*
X148158036Y-98825495D01*
X148266464Y-98888095D01*
X148387399Y-98920500D01*
X148387401Y-98920500D01*
X148512599Y-98920500D01*
X148512601Y-98920500D01*
X148633536Y-98888095D01*
X148741964Y-98825495D01*
X148830495Y-98736964D01*
X148893095Y-98628536D01*
X148925500Y-98507601D01*
X148925500Y-98382399D01*
X148893095Y-98261464D01*
X148830495Y-98153036D01*
X148741964Y-98064505D01*
X148633536Y-98001905D01*
X148633537Y-98001905D01*
X148593224Y-97991103D01*
X148512601Y-97969500D01*
X148387399Y-97969500D01*
X148306775Y-97991103D01*
X148266463Y-98001905D01*
X148158037Y-98064504D01*
X148158034Y-98064506D01*
X148069506Y-98153034D01*
X148069504Y-98153037D01*
X148006905Y-98261463D01*
X148006905Y-98261464D01*
X147974500Y-98382399D01*
X146410060Y-98382399D01*
X146480495Y-98311964D01*
X146543095Y-98203536D01*
X146575500Y-98082601D01*
X146575500Y-97957399D01*
X146543095Y-97836464D01*
X146480495Y-97728036D01*
X146391964Y-97639505D01*
X146283536Y-97576905D01*
X146283537Y-97576905D01*
X146227769Y-97561962D01*
X146162601Y-97544500D01*
X146037399Y-97544500D01*
X145972231Y-97561962D01*
X145916463Y-97576905D01*
X145808037Y-97639504D01*
X145808034Y-97639506D01*
X145719506Y-97728034D01*
X145719504Y-97728037D01*
X145656905Y-97836463D01*
X145656905Y-97836464D01*
X145624500Y-97957399D01*
X144575500Y-97957399D01*
X144543095Y-97836464D01*
X144480495Y-97728036D01*
X144391964Y-97639505D01*
X144283536Y-97576905D01*
X144283537Y-97576905D01*
X144227769Y-97561962D01*
X144162601Y-97544500D01*
X144037399Y-97544500D01*
X143972231Y-97561962D01*
X143916463Y-97576905D01*
X143808037Y-97639504D01*
X143808034Y-97639506D01*
X143719506Y-97728034D01*
X143719504Y-97728037D01*
X143656905Y-97836463D01*
X143656905Y-97836464D01*
X143624500Y-97957399D01*
X143075500Y-97957399D01*
X143043095Y-97836464D01*
X142980495Y-97728036D01*
X142891964Y-97639505D01*
X142783536Y-97576905D01*
X142783537Y-97576905D01*
X142727769Y-97561962D01*
X142662601Y-97544500D01*
X142537399Y-97544500D01*
X142472231Y-97561962D01*
X142416463Y-97576905D01*
X142308037Y-97639504D01*
X142308034Y-97639506D01*
X142219506Y-97728034D01*
X142219504Y-97728037D01*
X142156905Y-97836463D01*
X142156905Y-97836464D01*
X142124500Y-97957399D01*
X133421555Y-97957399D01*
X133353683Y-97914752D01*
X133050054Y-97768532D01*
X132731965Y-97657227D01*
X132731953Y-97657223D01*
X132403397Y-97582233D01*
X132403381Y-97582231D01*
X132068508Y-97544500D01*
X132068504Y-97544500D01*
X131731496Y-97544500D01*
X131731491Y-97544500D01*
X131396618Y-97582231D01*
X131396602Y-97582233D01*
X131068046Y-97657223D01*
X131068034Y-97657227D01*
X130749945Y-97768532D01*
X130446316Y-97914752D01*
X130160962Y-98094053D01*
X129897477Y-98304174D01*
X129659174Y-98542477D01*
X129449053Y-98805962D01*
X129269752Y-99091316D01*
X129136220Y-99368599D01*
X129089398Y-99420458D01*
X129021970Y-99438771D01*
X128955347Y-99417723D01*
X128910678Y-99363997D01*
X128900500Y-99314797D01*
X128900500Y-95382399D01*
X129349500Y-95382399D01*
X129349500Y-95507601D01*
X129381905Y-95628536D01*
X129444505Y-95736964D01*
X129533036Y-95825495D01*
X129641464Y-95888095D01*
X129762399Y-95920500D01*
X129762401Y-95920500D01*
X129887599Y-95920500D01*
X129887601Y-95920500D01*
X130008536Y-95888095D01*
X130116964Y-95825495D01*
X130205495Y-95736964D01*
X130268095Y-95628536D01*
X130300500Y-95507601D01*
X130300500Y-95382399D01*
X130268095Y-95261464D01*
X130236881Y-95207399D01*
X138349500Y-95207399D01*
X138349500Y-95332601D01*
X138362844Y-95382399D01*
X138381905Y-95453536D01*
X138444504Y-95561962D01*
X138444506Y-95561965D01*
X138533036Y-95650495D01*
X138554025Y-95662613D01*
X138602240Y-95713180D01*
X138615462Y-95781788D01*
X138589494Y-95846652D01*
X138554025Y-95877387D01*
X138533036Y-95889504D01*
X138444506Y-95978034D01*
X138444504Y-95978037D01*
X138381905Y-96086463D01*
X138381905Y-96086464D01*
X138349500Y-96207399D01*
X138349500Y-96332601D01*
X138381905Y-96453536D01*
X138444505Y-96561964D01*
X138533036Y-96650495D01*
X138641464Y-96713095D01*
X138762399Y-96745500D01*
X138762401Y-96745500D01*
X138887599Y-96745500D01*
X138887601Y-96745500D01*
X139008536Y-96713095D01*
X139116964Y-96650495D01*
X139205495Y-96561964D01*
X139268095Y-96453536D01*
X139300500Y-96332601D01*
X139300500Y-96232399D01*
X147249500Y-96232399D01*
X147249500Y-96357601D01*
X147281905Y-96478536D01*
X147344505Y-96586964D01*
X147433036Y-96675495D01*
X147492161Y-96709630D01*
X147540376Y-96760195D01*
X147553600Y-96828802D01*
X147527633Y-96893667D01*
X147517843Y-96904698D01*
X147444503Y-96978037D01*
X147381905Y-97086463D01*
X147381905Y-97086464D01*
X147349500Y-97207399D01*
X147349500Y-97332601D01*
X147381905Y-97453536D01*
X147444505Y-97561964D01*
X147533036Y-97650495D01*
X147641464Y-97713095D01*
X147762399Y-97745500D01*
X147762401Y-97745500D01*
X147887599Y-97745500D01*
X147887601Y-97745500D01*
X148008536Y-97713095D01*
X148116964Y-97650495D01*
X148205495Y-97561964D01*
X148268095Y-97453536D01*
X148300500Y-97332601D01*
X148300500Y-97207399D01*
X148268095Y-97086464D01*
X148208014Y-96982399D01*
X150974500Y-96982399D01*
X150974500Y-97107601D01*
X151006905Y-97228536D01*
X151069505Y-97336964D01*
X151158036Y-97425495D01*
X151266464Y-97488095D01*
X151387399Y-97520500D01*
X151387401Y-97520500D01*
X151512599Y-97520500D01*
X151512601Y-97520500D01*
X151633536Y-97488095D01*
X151741964Y-97425495D01*
X151830495Y-97336964D01*
X151893095Y-97228536D01*
X151925500Y-97107601D01*
X151925500Y-96982399D01*
X151893095Y-96861464D01*
X151830495Y-96753036D01*
X151741964Y-96664505D01*
X151633536Y-96601905D01*
X151633537Y-96601905D01*
X151577765Y-96586961D01*
X151512601Y-96569500D01*
X151387399Y-96569500D01*
X151322235Y-96586961D01*
X151266463Y-96601905D01*
X151158037Y-96664504D01*
X151158034Y-96664506D01*
X151069506Y-96753034D01*
X151069504Y-96753037D01*
X151006905Y-96861463D01*
X150999391Y-96889505D01*
X150974500Y-96982399D01*
X148208014Y-96982399D01*
X148205495Y-96978036D01*
X148116964Y-96889505D01*
X148116963Y-96889504D01*
X148068393Y-96861463D01*
X148057838Y-96855369D01*
X148009623Y-96804803D01*
X147996399Y-96736196D01*
X148022367Y-96671331D01*
X148032141Y-96660317D01*
X148105495Y-96586964D01*
X148168095Y-96478536D01*
X148200500Y-96357601D01*
X148200500Y-96232399D01*
X148168095Y-96111464D01*
X148105495Y-96003036D01*
X148016964Y-95914505D01*
X147908536Y-95851905D01*
X147908537Y-95851905D01*
X147868224Y-95841103D01*
X147787601Y-95819500D01*
X147662399Y-95819500D01*
X147581775Y-95841103D01*
X147541463Y-95851905D01*
X147433037Y-95914504D01*
X147433034Y-95914506D01*
X147344506Y-96003034D01*
X147344504Y-96003037D01*
X147281905Y-96111463D01*
X147281905Y-96111464D01*
X147249500Y-96232399D01*
X139300500Y-96232399D01*
X139300500Y-96207399D01*
X139268095Y-96086464D01*
X139205495Y-95978036D01*
X139116964Y-95889505D01*
X139116963Y-95889504D01*
X139095976Y-95877388D01*
X139047760Y-95826821D01*
X139034536Y-95758214D01*
X139060504Y-95693349D01*
X139095976Y-95662612D01*
X139116964Y-95650495D01*
X139205495Y-95561964D01*
X139268095Y-95453536D01*
X139300500Y-95332601D01*
X139300500Y-95207399D01*
X139268095Y-95086464D01*
X139205495Y-94978036D01*
X139116964Y-94889505D01*
X139008536Y-94826905D01*
X139008537Y-94826905D01*
X138999711Y-94824540D01*
X138887601Y-94794500D01*
X138762399Y-94794500D01*
X138681775Y-94816103D01*
X138641463Y-94826905D01*
X138533037Y-94889504D01*
X138533034Y-94889506D01*
X138444506Y-94978034D01*
X138444504Y-94978037D01*
X138381905Y-95086463D01*
X138381905Y-95086464D01*
X138349500Y-95207399D01*
X130236881Y-95207399D01*
X130205495Y-95153036D01*
X130116964Y-95064505D01*
X130008536Y-95001905D01*
X130008537Y-95001905D01*
X129968224Y-94991103D01*
X129887601Y-94969500D01*
X129762399Y-94969500D01*
X129681775Y-94991103D01*
X129641463Y-95001905D01*
X129533037Y-95064504D01*
X129533034Y-95064506D01*
X129444506Y-95153034D01*
X129444504Y-95153037D01*
X129381905Y-95261463D01*
X129381905Y-95261464D01*
X129349500Y-95382399D01*
X128900500Y-95382399D01*
X128900500Y-94707399D01*
X147224500Y-94707399D01*
X147224500Y-94832601D01*
X147256905Y-94953536D01*
X147319505Y-95061964D01*
X147408036Y-95150495D01*
X147516464Y-95213095D01*
X147637399Y-95245500D01*
X147637401Y-95245500D01*
X147762599Y-95245500D01*
X147762601Y-95245500D01*
X147883536Y-95213095D01*
X147893402Y-95207399D01*
X149699500Y-95207399D01*
X149699500Y-95332601D01*
X149731905Y-95453536D01*
X149794505Y-95561964D01*
X149883036Y-95650495D01*
X149991464Y-95713095D01*
X150112399Y-95745500D01*
X150112401Y-95745500D01*
X150237599Y-95745500D01*
X150237601Y-95745500D01*
X150358536Y-95713095D01*
X150466964Y-95650495D01*
X150555495Y-95561964D01*
X150618095Y-95453536D01*
X150650500Y-95332601D01*
X150650500Y-95207399D01*
X150618095Y-95086464D01*
X150555495Y-94978036D01*
X150466964Y-94889505D01*
X150466963Y-94889504D01*
X150458472Y-94884602D01*
X150410258Y-94834034D01*
X150397037Y-94765426D01*
X150423006Y-94700562D01*
X150458475Y-94669829D01*
X150491964Y-94650495D01*
X150580495Y-94561964D01*
X150643095Y-94453536D01*
X150675500Y-94332601D01*
X150675500Y-94207399D01*
X150643095Y-94086464D01*
X150580495Y-93978036D01*
X150491964Y-93889505D01*
X150383536Y-93826905D01*
X150383537Y-93826905D01*
X150343224Y-93816103D01*
X150262601Y-93794500D01*
X150137399Y-93794500D01*
X150056775Y-93816103D01*
X150016463Y-93826905D01*
X149908037Y-93889504D01*
X149908034Y-93889506D01*
X149819506Y-93978034D01*
X149819504Y-93978037D01*
X149756905Y-94086463D01*
X149744476Y-94132849D01*
X149724500Y-94207399D01*
X149724500Y-94332601D01*
X149756905Y-94453536D01*
X149819505Y-94561964D01*
X149908036Y-94650495D01*
X149908037Y-94650496D01*
X149908039Y-94650497D01*
X149916524Y-94655396D01*
X149964740Y-94705963D01*
X149977962Y-94774570D01*
X149951994Y-94839435D01*
X149916525Y-94870170D01*
X149883036Y-94889504D01*
X149794506Y-94978034D01*
X149794504Y-94978037D01*
X149731905Y-95086463D01*
X149731905Y-95086464D01*
X149699500Y-95207399D01*
X147893402Y-95207399D01*
X147991964Y-95150495D01*
X148080495Y-95061964D01*
X148143095Y-94953536D01*
X148175500Y-94832601D01*
X148175500Y-94707399D01*
X148143095Y-94586464D01*
X148080495Y-94478036D01*
X148034609Y-94432150D01*
X148001124Y-94370827D01*
X148006108Y-94301135D01*
X148047980Y-94245202D01*
X148060281Y-94237087D01*
X148166964Y-94175495D01*
X148255495Y-94086964D01*
X148318095Y-93978536D01*
X148350500Y-93857601D01*
X148350500Y-93732399D01*
X148318095Y-93611464D01*
X148255495Y-93503036D01*
X148166964Y-93414505D01*
X148058536Y-93351905D01*
X148058537Y-93351905D01*
X147995969Y-93335140D01*
X147937601Y-93319500D01*
X147812399Y-93319500D01*
X147754031Y-93335140D01*
X147691463Y-93351905D01*
X147583037Y-93414504D01*
X147583034Y-93414506D01*
X147494506Y-93503034D01*
X147494504Y-93503037D01*
X147431905Y-93611463D01*
X147423429Y-93643095D01*
X147399500Y-93732399D01*
X147399500Y-93857601D01*
X147431770Y-93978034D01*
X147431905Y-93978536D01*
X147494504Y-94086962D01*
X147494506Y-94086965D01*
X147540390Y-94132849D01*
X147573875Y-94194172D01*
X147568891Y-94263864D01*
X147527019Y-94319797D01*
X147514709Y-94327917D01*
X147408039Y-94389502D01*
X147408034Y-94389506D01*
X147319506Y-94478034D01*
X147319504Y-94478037D01*
X147256905Y-94586463D01*
X147256905Y-94586464D01*
X147224500Y-94707399D01*
X128900500Y-94707399D01*
X128900500Y-93437399D01*
X134624500Y-93437399D01*
X134624500Y-93562601D01*
X134656905Y-93683536D01*
X134719505Y-93791964D01*
X134808036Y-93880495D01*
X134916464Y-93943095D01*
X135037399Y-93975500D01*
X135037401Y-93975500D01*
X135162599Y-93975500D01*
X135162601Y-93975500D01*
X135283536Y-93943095D01*
X135391964Y-93880495D01*
X135480495Y-93791964D01*
X135543095Y-93683536D01*
X135575500Y-93562601D01*
X135575500Y-93437399D01*
X135543095Y-93316464D01*
X135480495Y-93208036D01*
X135391964Y-93119505D01*
X135283536Y-93056905D01*
X135283537Y-93056905D01*
X135243224Y-93046103D01*
X135162601Y-93024500D01*
X135037399Y-93024500D01*
X134956775Y-93046103D01*
X134916463Y-93056905D01*
X134808037Y-93119504D01*
X134808034Y-93119506D01*
X134719506Y-93208034D01*
X134719504Y-93208037D01*
X134656905Y-93316463D01*
X134654029Y-93327198D01*
X134624500Y-93437399D01*
X128900500Y-93437399D01*
X128900500Y-92132399D01*
X131874500Y-92132399D01*
X131874500Y-92257601D01*
X131906905Y-92378536D01*
X131969505Y-92486964D01*
X132058036Y-92575495D01*
X132166464Y-92638095D01*
X132287399Y-92670500D01*
X132287401Y-92670500D01*
X132412599Y-92670500D01*
X132412601Y-92670500D01*
X132533536Y-92638095D01*
X132641964Y-92575495D01*
X132730495Y-92486964D01*
X132793095Y-92378536D01*
X132825500Y-92257601D01*
X132825500Y-92207399D01*
X138324500Y-92207399D01*
X138324500Y-92332601D01*
X138356905Y-92453536D01*
X138419505Y-92561964D01*
X138508036Y-92650495D01*
X138616464Y-92713095D01*
X138737399Y-92745500D01*
X138737401Y-92745500D01*
X138862599Y-92745500D01*
X138862601Y-92745500D01*
X138983536Y-92713095D01*
X139091964Y-92650495D01*
X139180495Y-92561964D01*
X139243095Y-92453536D01*
X139275500Y-92332601D01*
X139275500Y-92207399D01*
X139243095Y-92086464D01*
X139180495Y-91978036D01*
X139091964Y-91889505D01*
X138983536Y-91826905D01*
X138983537Y-91826905D01*
X138974711Y-91824540D01*
X138862601Y-91794500D01*
X138737399Y-91794500D01*
X138662741Y-91814505D01*
X138616463Y-91826905D01*
X138508037Y-91889504D01*
X138508034Y-91889506D01*
X138419506Y-91978034D01*
X138419504Y-91978037D01*
X138356905Y-92086463D01*
X138344596Y-92132400D01*
X138324500Y-92207399D01*
X132825500Y-92207399D01*
X132825500Y-92132399D01*
X132793095Y-92011464D01*
X132730495Y-91903036D01*
X132641964Y-91814505D01*
X132533536Y-91751905D01*
X132533537Y-91751905D01*
X132493224Y-91741103D01*
X132412601Y-91719500D01*
X132287399Y-91719500D01*
X132206775Y-91741103D01*
X132166463Y-91751905D01*
X132058037Y-91814504D01*
X132058034Y-91814506D01*
X131969506Y-91903034D01*
X131969504Y-91903037D01*
X131906905Y-92011463D01*
X131906905Y-92011464D01*
X131874500Y-92132399D01*
X128900500Y-92132399D01*
X128900500Y-91707399D01*
X149824500Y-91707399D01*
X149824500Y-91832601D01*
X149856905Y-91953536D01*
X149919505Y-92061964D01*
X150008036Y-92150495D01*
X150116464Y-92213095D01*
X150237399Y-92245500D01*
X150237401Y-92245500D01*
X150362599Y-92245500D01*
X150362601Y-92245500D01*
X150483536Y-92213095D01*
X150591964Y-92150495D01*
X150680495Y-92061964D01*
X150743095Y-91953536D01*
X150775500Y-91832601D01*
X150775500Y-91707399D01*
X150743095Y-91586464D01*
X150680495Y-91478036D01*
X150591964Y-91389505D01*
X150483536Y-91326905D01*
X150483537Y-91326905D01*
X150443224Y-91316103D01*
X150362601Y-91294500D01*
X150237399Y-91294500D01*
X150156775Y-91316103D01*
X150116463Y-91326905D01*
X150008037Y-91389504D01*
X150008034Y-91389506D01*
X149919506Y-91478034D01*
X149919504Y-91478037D01*
X149856905Y-91586463D01*
X149856905Y-91586464D01*
X149824500Y-91707399D01*
X128900500Y-91707399D01*
X128900500Y-89832399D01*
X129349500Y-89832399D01*
X129349500Y-89957601D01*
X129381905Y-90078536D01*
X129444505Y-90186964D01*
X129533036Y-90275495D01*
X129641464Y-90338095D01*
X129762399Y-90370500D01*
X129762401Y-90370500D01*
X129887599Y-90370500D01*
X129887601Y-90370500D01*
X130008536Y-90338095D01*
X130116964Y-90275495D01*
X130205495Y-90186964D01*
X130236998Y-90132399D01*
X132024500Y-90132399D01*
X132024500Y-90257601D01*
X132056905Y-90378536D01*
X132119505Y-90486964D01*
X132208036Y-90575495D01*
X132316464Y-90638095D01*
X132437399Y-90670500D01*
X132437401Y-90670500D01*
X132562599Y-90670500D01*
X132562601Y-90670500D01*
X132683536Y-90638095D01*
X132791964Y-90575495D01*
X132880495Y-90486964D01*
X132943095Y-90378536D01*
X132975500Y-90257601D01*
X132975500Y-90132399D01*
X132943095Y-90011464D01*
X132880495Y-89903036D01*
X132791964Y-89814505D01*
X132683536Y-89751905D01*
X132683537Y-89751905D01*
X132643224Y-89741103D01*
X132562601Y-89719500D01*
X132437399Y-89719500D01*
X132356775Y-89741103D01*
X132316463Y-89751905D01*
X132208037Y-89814504D01*
X132208034Y-89814506D01*
X132119506Y-89903034D01*
X132119504Y-89903037D01*
X132056905Y-90011463D01*
X132043374Y-90061962D01*
X132024500Y-90132399D01*
X130236998Y-90132399D01*
X130268095Y-90078536D01*
X130300500Y-89957601D01*
X130300500Y-89832399D01*
X130268095Y-89711464D01*
X130265748Y-89707399D01*
X138349500Y-89707399D01*
X138349500Y-89832601D01*
X138381905Y-89953536D01*
X138444505Y-90061964D01*
X138533036Y-90150495D01*
X138641464Y-90213095D01*
X138762399Y-90245500D01*
X138762401Y-90245500D01*
X138887599Y-90245500D01*
X138887601Y-90245500D01*
X139008536Y-90213095D01*
X139116964Y-90150495D01*
X139205495Y-90061964D01*
X139268095Y-89953536D01*
X139300500Y-89832601D01*
X139300500Y-89707399D01*
X139268095Y-89586464D01*
X139205495Y-89478036D01*
X139116964Y-89389505D01*
X139008536Y-89326905D01*
X139008537Y-89326905D01*
X138968224Y-89316103D01*
X138887601Y-89294500D01*
X138762399Y-89294500D01*
X138681775Y-89316103D01*
X138641463Y-89326905D01*
X138533037Y-89389504D01*
X138533034Y-89389506D01*
X138444506Y-89478034D01*
X138444504Y-89478037D01*
X138381905Y-89586463D01*
X138381905Y-89586464D01*
X138349500Y-89707399D01*
X130265748Y-89707399D01*
X130205495Y-89603036D01*
X130116964Y-89514505D01*
X130008536Y-89451905D01*
X130008537Y-89451905D01*
X129956997Y-89438095D01*
X129887601Y-89419500D01*
X129762399Y-89419500D01*
X129693003Y-89438095D01*
X129641463Y-89451905D01*
X129533037Y-89514504D01*
X129533034Y-89514506D01*
X129444506Y-89603034D01*
X129444504Y-89603037D01*
X129381905Y-89711463D01*
X129374955Y-89737400D01*
X129349500Y-89832399D01*
X128900500Y-89832399D01*
X128900500Y-88932399D01*
X140124500Y-88932399D01*
X140124500Y-89057601D01*
X140156905Y-89178536D01*
X140219505Y-89286964D01*
X140308036Y-89375495D01*
X140416464Y-89438095D01*
X140472801Y-89453190D01*
X140532460Y-89489556D01*
X140562989Y-89552403D01*
X140556681Y-89607990D01*
X140559009Y-89608614D01*
X140556906Y-89616462D01*
X140556905Y-89616464D01*
X140524500Y-89737399D01*
X140524500Y-89862601D01*
X140556905Y-89983536D01*
X140619505Y-90091964D01*
X140708036Y-90180495D01*
X140816464Y-90243095D01*
X140937399Y-90275500D01*
X140937401Y-90275500D01*
X141062599Y-90275500D01*
X141062601Y-90275500D01*
X141183536Y-90243095D01*
X141291964Y-90180495D01*
X141380495Y-90091964D01*
X141443095Y-89983536D01*
X141475500Y-89862601D01*
X141475500Y-89737399D01*
X141443095Y-89616464D01*
X141380495Y-89508036D01*
X141291964Y-89419505D01*
X141183536Y-89356905D01*
X141183533Y-89356904D01*
X141127197Y-89341808D01*
X141067538Y-89305442D01*
X141037010Y-89242595D01*
X141043326Y-89187011D01*
X141040991Y-89186386D01*
X141043093Y-89178537D01*
X141043095Y-89178536D01*
X141075500Y-89057601D01*
X141075500Y-88932399D01*
X141068801Y-88907399D01*
X142624500Y-88907399D01*
X142624500Y-89032601D01*
X142656905Y-89153536D01*
X142719505Y-89261964D01*
X142808036Y-89350495D01*
X142916464Y-89413095D01*
X143037399Y-89445500D01*
X143037401Y-89445500D01*
X143162599Y-89445500D01*
X143162601Y-89445500D01*
X143283536Y-89413095D01*
X143391964Y-89350495D01*
X143438472Y-89303986D01*
X143499793Y-89270502D01*
X143569484Y-89275486D01*
X143625418Y-89317357D01*
X143633536Y-89329662D01*
X143640548Y-89341808D01*
X143669503Y-89391962D01*
X143669505Y-89391964D01*
X143758036Y-89480495D01*
X143866464Y-89543095D01*
X143987399Y-89575500D01*
X143987401Y-89575500D01*
X144112599Y-89575500D01*
X144112601Y-89575500D01*
X144233536Y-89543095D01*
X144341964Y-89480495D01*
X144430495Y-89391964D01*
X144493095Y-89283536D01*
X144525500Y-89162601D01*
X144525500Y-89037399D01*
X144497365Y-88932399D01*
X145124500Y-88932399D01*
X145124500Y-89057601D01*
X145156905Y-89178536D01*
X145219505Y-89286964D01*
X145308036Y-89375495D01*
X145416464Y-89438095D01*
X145537399Y-89470500D01*
X145537401Y-89470500D01*
X145662599Y-89470500D01*
X145662601Y-89470500D01*
X145783536Y-89438095D01*
X145891964Y-89375495D01*
X145980495Y-89286964D01*
X146043095Y-89178536D01*
X146075500Y-89057601D01*
X146075500Y-88932399D01*
X146043095Y-88811464D01*
X145980495Y-88703036D01*
X145891964Y-88614505D01*
X145783536Y-88551905D01*
X145783537Y-88551905D01*
X145743224Y-88541103D01*
X145662601Y-88519500D01*
X145537399Y-88519500D01*
X145456775Y-88541103D01*
X145416463Y-88551905D01*
X145308037Y-88614504D01*
X145308034Y-88614506D01*
X145219506Y-88703034D01*
X145219504Y-88703037D01*
X145156905Y-88811463D01*
X145147195Y-88847701D01*
X145124500Y-88932399D01*
X144497365Y-88932399D01*
X144493095Y-88916464D01*
X144430495Y-88808036D01*
X144341964Y-88719505D01*
X144233536Y-88656905D01*
X144233537Y-88656905D01*
X144193224Y-88646103D01*
X144112601Y-88624500D01*
X143987399Y-88624500D01*
X143906775Y-88646103D01*
X143866463Y-88656905D01*
X143758037Y-88719504D01*
X143758034Y-88719506D01*
X143711527Y-88766013D01*
X143650204Y-88799497D01*
X143580512Y-88794512D01*
X143524579Y-88752640D01*
X143516459Y-88740329D01*
X143500392Y-88712500D01*
X143480495Y-88678036D01*
X143391964Y-88589505D01*
X143283536Y-88526905D01*
X143283537Y-88526905D01*
X143243224Y-88516103D01*
X143162601Y-88494500D01*
X143037399Y-88494500D01*
X142956775Y-88516103D01*
X142916463Y-88526905D01*
X142808037Y-88589504D01*
X142808034Y-88589506D01*
X142719506Y-88678034D01*
X142719504Y-88678037D01*
X142656905Y-88786463D01*
X142653413Y-88799497D01*
X142624500Y-88907399D01*
X141068801Y-88907399D01*
X141043095Y-88811464D01*
X140980495Y-88703036D01*
X140891964Y-88614505D01*
X140783536Y-88551905D01*
X140783537Y-88551905D01*
X140743224Y-88541103D01*
X140662601Y-88519500D01*
X140537399Y-88519500D01*
X140456775Y-88541103D01*
X140416463Y-88551905D01*
X140308037Y-88614504D01*
X140308034Y-88614506D01*
X140219506Y-88703034D01*
X140219504Y-88703037D01*
X140156905Y-88811463D01*
X140147195Y-88847701D01*
X140124500Y-88932399D01*
X128900500Y-88932399D01*
X128900500Y-88244899D01*
X149712000Y-88244899D01*
X149712000Y-88370101D01*
X149744405Y-88491036D01*
X149807005Y-88599464D01*
X149895536Y-88687995D01*
X150003964Y-88750595D01*
X150124899Y-88783000D01*
X150124901Y-88783000D01*
X150250099Y-88783000D01*
X150250101Y-88783000D01*
X150371036Y-88750595D01*
X150479464Y-88687995D01*
X150567995Y-88599464D01*
X150630595Y-88491036D01*
X150663000Y-88370101D01*
X150663000Y-88244899D01*
X150630595Y-88123964D01*
X150567995Y-88015536D01*
X150479464Y-87927005D01*
X150371036Y-87864405D01*
X150371037Y-87864405D01*
X150330724Y-87853603D01*
X150250101Y-87832000D01*
X150124899Y-87832000D01*
X150044275Y-87853603D01*
X150003963Y-87864405D01*
X149895537Y-87927004D01*
X149895534Y-87927006D01*
X149807006Y-88015534D01*
X149807004Y-88015537D01*
X149744405Y-88123963D01*
X149744405Y-88123964D01*
X149712000Y-88244899D01*
X128900500Y-88244899D01*
X128900500Y-86632399D01*
X137649500Y-86632399D01*
X137649500Y-86757601D01*
X137681905Y-86878536D01*
X137744505Y-86986964D01*
X137833036Y-87075495D01*
X137941464Y-87138095D01*
X138062399Y-87170500D01*
X138062401Y-87170500D01*
X138187599Y-87170500D01*
X138187601Y-87170500D01*
X138308536Y-87138095D01*
X138416964Y-87075495D01*
X138505495Y-86986964D01*
X138568095Y-86878536D01*
X138600500Y-86757601D01*
X138600500Y-86682399D01*
X143124500Y-86682399D01*
X143124500Y-86807601D01*
X143156905Y-86928536D01*
X143219505Y-87036964D01*
X143308036Y-87125495D01*
X143416464Y-87188095D01*
X143537399Y-87220500D01*
X143537401Y-87220500D01*
X143662599Y-87220500D01*
X143662601Y-87220500D01*
X143783536Y-87188095D01*
X143891964Y-87125495D01*
X143980495Y-87036964D01*
X144043095Y-86928536D01*
X144075500Y-86807601D01*
X144075500Y-86682399D01*
X144043095Y-86561464D01*
X143980495Y-86453036D01*
X143891964Y-86364505D01*
X143783536Y-86301905D01*
X143783537Y-86301905D01*
X143731997Y-86288095D01*
X143662601Y-86269500D01*
X143537399Y-86269500D01*
X143468003Y-86288095D01*
X143416463Y-86301905D01*
X143308037Y-86364504D01*
X143308034Y-86364506D01*
X143219506Y-86453034D01*
X143219504Y-86453037D01*
X143156905Y-86561463D01*
X143156905Y-86561464D01*
X143124500Y-86682399D01*
X138600500Y-86682399D01*
X138600500Y-86632399D01*
X138568095Y-86511464D01*
X138505495Y-86403036D01*
X138416964Y-86314505D01*
X138308536Y-86251905D01*
X138308537Y-86251905D01*
X138268224Y-86241103D01*
X138187601Y-86219500D01*
X138062399Y-86219500D01*
X137981775Y-86241103D01*
X137941463Y-86251905D01*
X137833037Y-86314504D01*
X137833034Y-86314506D01*
X137744506Y-86403034D01*
X137744504Y-86403037D01*
X137681905Y-86511463D01*
X137674770Y-86538093D01*
X137649500Y-86632399D01*
X128900500Y-86632399D01*
X128900500Y-86032399D01*
X129374500Y-86032399D01*
X129374500Y-86157601D01*
X129406905Y-86278536D01*
X129469505Y-86386964D01*
X129558036Y-86475495D01*
X129666464Y-86538095D01*
X129787399Y-86570500D01*
X129787401Y-86570500D01*
X129912599Y-86570500D01*
X129912601Y-86570500D01*
X130033536Y-86538095D01*
X130141964Y-86475495D01*
X130230495Y-86386964D01*
X130293095Y-86278536D01*
X130325500Y-86157601D01*
X130325500Y-86032399D01*
X130293095Y-85911464D01*
X130230495Y-85803036D01*
X130209858Y-85782399D01*
X131824500Y-85782399D01*
X131824500Y-85907601D01*
X131856905Y-86028536D01*
X131919505Y-86136964D01*
X132008036Y-86225495D01*
X132116464Y-86288095D01*
X132237399Y-86320500D01*
X132237401Y-86320500D01*
X132362599Y-86320500D01*
X132362601Y-86320500D01*
X132483536Y-86288095D01*
X132591964Y-86225495D01*
X132680495Y-86136964D01*
X132743095Y-86028536D01*
X132775500Y-85907601D01*
X132775500Y-85782399D01*
X132743095Y-85661464D01*
X132680495Y-85553036D01*
X132591964Y-85464505D01*
X132591962Y-85464504D01*
X132585513Y-85459555D01*
X132587087Y-85457502D01*
X132547754Y-85416243D01*
X132534538Y-85347635D01*
X132560511Y-85282773D01*
X132595977Y-85252045D01*
X132641964Y-85225495D01*
X132730495Y-85136964D01*
X132773544Y-85062399D01*
X144504500Y-85062399D01*
X144504500Y-85187601D01*
X144536905Y-85308536D01*
X144599505Y-85416964D01*
X144688036Y-85505495D01*
X144796464Y-85568095D01*
X144917399Y-85600500D01*
X144917401Y-85600500D01*
X145006378Y-85600500D01*
X145073417Y-85620185D01*
X145119172Y-85672989D01*
X145129116Y-85742147D01*
X145126152Y-85756590D01*
X145120916Y-85776131D01*
X145104500Y-85837396D01*
X145104500Y-85837399D01*
X145104500Y-85962601D01*
X145136905Y-86083536D01*
X145199505Y-86191964D01*
X145288036Y-86280495D01*
X145396464Y-86343095D01*
X145517399Y-86375500D01*
X145517401Y-86375500D01*
X145642599Y-86375500D01*
X145642601Y-86375500D01*
X145763536Y-86343095D01*
X145871964Y-86280495D01*
X145960495Y-86191964D01*
X146023095Y-86083536D01*
X146055500Y-85962601D01*
X146055500Y-85837399D01*
X146023095Y-85716464D01*
X145977447Y-85637399D01*
X151214500Y-85637399D01*
X151214500Y-85762601D01*
X151246905Y-85883536D01*
X151309505Y-85991964D01*
X151398036Y-86080495D01*
X151506464Y-86143095D01*
X151627399Y-86175500D01*
X151627401Y-86175500D01*
X151752599Y-86175500D01*
X151752601Y-86175500D01*
X151873536Y-86143095D01*
X151981964Y-86080495D01*
X152070495Y-85991964D01*
X152133095Y-85883536D01*
X152165500Y-85762601D01*
X152165500Y-85637399D01*
X152133095Y-85516464D01*
X152070495Y-85408036D01*
X151981964Y-85319505D01*
X151873536Y-85256905D01*
X151873537Y-85256905D01*
X151833224Y-85246103D01*
X151752601Y-85224500D01*
X151627399Y-85224500D01*
X151546775Y-85246103D01*
X151506463Y-85256905D01*
X151398037Y-85319504D01*
X151398034Y-85319506D01*
X151309506Y-85408034D01*
X151309504Y-85408037D01*
X151246905Y-85516463D01*
X151246905Y-85516464D01*
X151214500Y-85637399D01*
X145977447Y-85637399D01*
X145960495Y-85608036D01*
X145871964Y-85519505D01*
X145763536Y-85456905D01*
X145763537Y-85456905D01*
X145692807Y-85437953D01*
X145642601Y-85424500D01*
X145553622Y-85424500D01*
X145486583Y-85404815D01*
X145440828Y-85352011D01*
X145430884Y-85282853D01*
X145433848Y-85268405D01*
X145455500Y-85187601D01*
X145455500Y-85062399D01*
X145423095Y-84941464D01*
X145360495Y-84833036D01*
X145271964Y-84744505D01*
X145163536Y-84681905D01*
X145163537Y-84681905D01*
X145119769Y-84670177D01*
X145119766Y-84670176D01*
X145042601Y-84649500D01*
X144917399Y-84649500D01*
X144905057Y-84652807D01*
X144905056Y-84652807D01*
X144796463Y-84681905D01*
X144688037Y-84744504D01*
X144688034Y-84744506D01*
X144599506Y-84833034D01*
X144599504Y-84833037D01*
X144536905Y-84941463D01*
X144536905Y-84941464D01*
X144504500Y-85062399D01*
X132773544Y-85062399D01*
X132793095Y-85028536D01*
X132825500Y-84907601D01*
X132825500Y-84782399D01*
X132793095Y-84661464D01*
X132730495Y-84553036D01*
X132673681Y-84496222D01*
X132640196Y-84434899D01*
X132645180Y-84365207D01*
X132685882Y-84310161D01*
X132691957Y-84305498D01*
X132691964Y-84305495D01*
X132780495Y-84216964D01*
X132843095Y-84108536D01*
X132875500Y-83987601D01*
X132875500Y-83887399D01*
X144579500Y-83887399D01*
X144579500Y-84012601D01*
X144611905Y-84133536D01*
X144674505Y-84241964D01*
X144763036Y-84330495D01*
X144871464Y-84393095D01*
X144992399Y-84425500D01*
X145117601Y-84425500D01*
X145238536Y-84393095D01*
X145346964Y-84330495D01*
X145389060Y-84288399D01*
X149504500Y-84288399D01*
X149504500Y-84413601D01*
X149536905Y-84534536D01*
X149599505Y-84642964D01*
X149688036Y-84731495D01*
X149796464Y-84794095D01*
X149917399Y-84826500D01*
X149917401Y-84826500D01*
X150042599Y-84826500D01*
X150042601Y-84826500D01*
X150163536Y-84794095D01*
X150271964Y-84731495D01*
X150360495Y-84642964D01*
X150423095Y-84534536D01*
X150455500Y-84413601D01*
X150455500Y-84288399D01*
X150423095Y-84167464D01*
X150360495Y-84059036D01*
X150271964Y-83970505D01*
X150163536Y-83907905D01*
X150163537Y-83907905D01*
X150123224Y-83897103D01*
X150042601Y-83875500D01*
X149917399Y-83875500D01*
X149836775Y-83897103D01*
X149796463Y-83907905D01*
X149688037Y-83970504D01*
X149688034Y-83970506D01*
X149599506Y-84059034D01*
X149599504Y-84059037D01*
X149536905Y-84167463D01*
X149536905Y-84167464D01*
X149504500Y-84288399D01*
X145389060Y-84288399D01*
X145435495Y-84241964D01*
X145498095Y-84133536D01*
X145530500Y-84012601D01*
X145530500Y-83887399D01*
X145498095Y-83766464D01*
X145435495Y-83658036D01*
X145346964Y-83569505D01*
X145238536Y-83506905D01*
X145238537Y-83506905D01*
X145198224Y-83496103D01*
X145117601Y-83474500D01*
X144992399Y-83474500D01*
X144911775Y-83496103D01*
X144871463Y-83506905D01*
X144763037Y-83569504D01*
X144763034Y-83569506D01*
X144674506Y-83658034D01*
X144674504Y-83658037D01*
X144611905Y-83766463D01*
X144611905Y-83766464D01*
X144579500Y-83887399D01*
X132875500Y-83887399D01*
X132875500Y-83862399D01*
X132843095Y-83741464D01*
X132780495Y-83633036D01*
X132691964Y-83544505D01*
X132583536Y-83481905D01*
X132583537Y-83481905D01*
X132543224Y-83471103D01*
X132462601Y-83449500D01*
X132337399Y-83449500D01*
X132256775Y-83471103D01*
X132216463Y-83481905D01*
X132108037Y-83544504D01*
X132108034Y-83544506D01*
X132019506Y-83633034D01*
X132019504Y-83633037D01*
X131956905Y-83741463D01*
X131956905Y-83741464D01*
X131924500Y-83862399D01*
X131924500Y-83987601D01*
X131943642Y-84059037D01*
X131956905Y-84108536D01*
X132019504Y-84216962D01*
X132019506Y-84216965D01*
X132076318Y-84273777D01*
X132109803Y-84335100D01*
X132104819Y-84404792D01*
X132064126Y-84459832D01*
X132058034Y-84464506D01*
X131969506Y-84553034D01*
X131969504Y-84553037D01*
X131906905Y-84661463D01*
X131906905Y-84661464D01*
X131874500Y-84782399D01*
X131874500Y-84907601D01*
X131906905Y-85028536D01*
X131969505Y-85136964D01*
X132058036Y-85225495D01*
X132058038Y-85225496D01*
X132064487Y-85230445D01*
X132062910Y-85232499D01*
X132102239Y-85273744D01*
X132115463Y-85342351D01*
X132089496Y-85407216D01*
X132054025Y-85437953D01*
X132008036Y-85464504D01*
X131919506Y-85553034D01*
X131919504Y-85553037D01*
X131856905Y-85661463D01*
X131856905Y-85661464D01*
X131824500Y-85782399D01*
X130209858Y-85782399D01*
X130141964Y-85714505D01*
X130033536Y-85651905D01*
X130033537Y-85651905D01*
X129993224Y-85641103D01*
X129912601Y-85619500D01*
X129787399Y-85619500D01*
X129706775Y-85641103D01*
X129666463Y-85651905D01*
X129558037Y-85714504D01*
X129558034Y-85714506D01*
X129469506Y-85803034D01*
X129469504Y-85803037D01*
X129406905Y-85911463D01*
X129393203Y-85962599D01*
X129374500Y-86032399D01*
X128900500Y-86032399D01*
X128900500Y-82379500D01*
X128920185Y-82312461D01*
X128972989Y-82266706D01*
X129024500Y-82255500D01*
X131800500Y-82255500D01*
X131867539Y-82275185D01*
X131913294Y-82327989D01*
X131924500Y-82379500D01*
X131924500Y-82462601D01*
X131956905Y-82583536D01*
X132019505Y-82691964D01*
X132108036Y-82780495D01*
X132216464Y-82843095D01*
X132337399Y-82875500D01*
X132337401Y-82875500D01*
X132462599Y-82875500D01*
X132462601Y-82875500D01*
X132583536Y-82843095D01*
X132691964Y-82780495D01*
X132780495Y-82691964D01*
X132843095Y-82583536D01*
X132875500Y-82462601D01*
X132875500Y-82379500D01*
X132895185Y-82312461D01*
X132947989Y-82266706D01*
X132999500Y-82255500D01*
X134500491Y-82255500D01*
X134500500Y-82255500D01*
X134544184Y-82250803D01*
X134583606Y-82242227D01*
X134595674Y-82239602D01*
X134595690Y-82239598D01*
X134595695Y-82239597D01*
X134605873Y-82237110D01*
X134628399Y-82225105D01*
X134696819Y-82210949D01*
X134762032Y-82236031D01*
X134774395Y-82246855D01*
X134792092Y-82264551D01*
X134808036Y-82280495D01*
X134916464Y-82343095D01*
X135037399Y-82375500D01*
X135037401Y-82375500D01*
X135162599Y-82375500D01*
X135162601Y-82375500D01*
X135283536Y-82343095D01*
X135391964Y-82280495D01*
X135425119Y-82247339D01*
X135486439Y-82213855D01*
X135556131Y-82218839D01*
X135573331Y-82226801D01*
X135574563Y-82227490D01*
X135641602Y-82247175D01*
X135699500Y-82255500D01*
X135699504Y-82255500D01*
X145683183Y-82255500D01*
X145683633Y-82255491D01*
X145690515Y-82255369D01*
X145699361Y-82255053D01*
X145763840Y-82242227D01*
X145829304Y-82217810D01*
X145852273Y-82207603D01*
X145921999Y-82148421D01*
X145963871Y-82092488D01*
X145977678Y-82071477D01*
X145980152Y-82063355D01*
X146018523Y-82004966D01*
X146082370Y-81976589D01*
X146098768Y-81975500D01*
X146111508Y-81975500D01*
X146125032Y-81979471D01*
G37*
%TD.AperFunction*%
%TA.AperFunction,Conductor*%
G36*
X148631308Y-81234223D02*
G01*
X148668450Y-81244175D01*
X148698355Y-81256563D01*
X148731651Y-81275787D01*
X148757331Y-81295492D01*
X148784505Y-81322666D01*
X148804211Y-81348347D01*
X148823436Y-81381646D01*
X148835823Y-81411550D01*
X148845774Y-81448684D01*
X148850000Y-81480780D01*
X148850000Y-81519218D01*
X148845774Y-81551314D01*
X148835823Y-81588448D01*
X148823436Y-81618352D01*
X148804211Y-81651651D01*
X148784511Y-81677327D01*
X148768818Y-81693021D01*
X148763738Y-81698285D01*
X148757715Y-81704753D01*
X148757710Y-81704759D01*
X148721180Y-81759427D01*
X148721176Y-81759434D01*
X148692658Y-81821880D01*
X148646903Y-81874684D01*
X148579863Y-81894368D01*
X148512824Y-81874683D01*
X148475693Y-81837632D01*
X148465597Y-81821996D01*
X148459708Y-81801156D01*
X148426223Y-81739833D01*
X148391170Y-81693009D01*
X148366160Y-81667999D01*
X148359003Y-81656915D01*
X148358486Y-81655168D01*
X148355787Y-81651651D01*
X148348996Y-81639889D01*
X148336562Y-81618351D01*
X148324175Y-81588445D01*
X148314225Y-81551308D01*
X148310000Y-81519217D01*
X148310000Y-81480779D01*
X148314224Y-81448689D01*
X148324177Y-81411542D01*
X148336560Y-81381646D01*
X148355786Y-81348347D01*
X148375485Y-81322674D01*
X148402671Y-81295488D01*
X148428350Y-81275785D01*
X148461645Y-81256563D01*
X148491550Y-81244176D01*
X148528688Y-81234225D01*
X148560781Y-81230000D01*
X148599220Y-81230000D01*
X148631308Y-81234223D01*
G37*
%TD.AperFunction*%
%TD*%
M02*
