%TF.GenerationSoftware,KiCad,Pcbnew,9.0.6+1*%
%TF.CreationDate,Date%
%TF.ProjectId,FCU3,46435533-2e6b-4696-9361-645f70636258,+ (Unreleased)*%
%TF.SameCoordinates,Original*%
%TF.FileFunction,Soldermask,Top*%
%TF.FilePolarity,Negative*%
%FSLAX46Y46*%
G04 Gerber Fmt 4.6, Leading zero omitted, Abs format (unit mm)*
G04 Created by KiCad*
%MOMM*%
%LPD*%
G01*
G04 APERTURE LIST*
G04 Aperture macros list*
%AMRoundRect*
0 Rectangle with rounded corners*
0 $1 Rounding radius*
0 $2 $3 $4 $5 $6 $7 $8 $9 X,Y pos of 4 corners*
0 Add a 4 corners polygon primitive as box body*
4,1,4,$2,$3,$4,$5,$6,$7,$8,$9,$2,$3,0*
0 Add four circle primitives for the rounded corners*
1,1,$1+$1,$2,$3*
1,1,$1+$1,$4,$5*
1,1,$1+$1,$6,$7*
1,1,$1+$1,$8,$9*
0 Add four rect primitives between the rounded corners*
20,1,$1+$1,$2,$3,$4,$5,0*
20,1,$1+$1,$4,$5,$6,$7,0*
20,1,$1+$1,$6,$7,$8,$9,0*
20,1,$1+$1,$8,$9,$2,$3,0*%
G04 Aperture macros list end*
%ADD10C,0.010000*%
%ADD11RoundRect,0.271739X-0.353261X-0.678261X0.353261X-0.678261X0.353261X0.678261X-0.353261X0.678261X0*%
%ADD12RoundRect,0.262500X-0.325000X-0.262500X0.325000X-0.262500X0.325000X0.262500X-0.325000X0.262500X0*%
%ADD13RoundRect,0.165000X-0.165000X-0.195000X0.165000X-0.195000X0.165000X0.195000X-0.165000X0.195000X0*%
%ADD14C,0.750000*%
%ADD15RoundRect,0.102000X0.300000X0.575000X-0.300000X0.575000X-0.300000X-0.575000X0.300000X-0.575000X0*%
%ADD16RoundRect,0.102000X0.150000X0.575000X-0.150000X0.575000X-0.150000X-0.575000X0.150000X-0.575000X0*%
%ADD17O,1.204000X2.304000*%
%ADD18O,1.204000X2.004000*%
%ADD19C,5.700000*%
%ADD20RoundRect,0.160000X-0.160000X-0.210000X0.160000X-0.210000X0.160000X0.210000X-0.160000X0.210000X0*%
%ADD21RoundRect,0.263889X0.686111X-1.036111X0.686111X1.036111X-0.686111X1.036111X-0.686111X-1.036111X0*%
%ADD22RoundRect,0.262500X0.262500X-0.325000X0.262500X0.325000X-0.262500X0.325000X-0.262500X-0.325000X0*%
%ADD23RoundRect,0.263889X-0.686111X1.036111X-0.686111X-1.036111X0.686111X-1.036111X0.686111X1.036111X0*%
%ADD24C,1.000000*%
%ADD25RoundRect,0.102000X0.450000X0.600000X-0.450000X0.600000X-0.450000X-0.600000X0.450000X-0.600000X0*%
%ADD26RoundRect,0.262500X-0.262500X0.325000X-0.262500X-0.325000X0.262500X-0.325000X0.262500X0.325000X0*%
%ADD27RoundRect,0.262500X0.325000X0.262500X-0.325000X0.262500X-0.325000X-0.262500X0.325000X-0.262500X0*%
%ADD28RoundRect,0.102000X-0.775000X-0.500000X0.775000X-0.500000X0.775000X0.500000X-0.775000X0.500000X0*%
%ADD29RoundRect,0.102000X-0.775000X-1.650000X0.775000X-1.650000X0.775000X1.650000X-0.775000X1.650000X0*%
%ADD30RoundRect,0.102000X-0.775000X0.300000X-0.775000X-0.300000X0.775000X-0.300000X0.775000X0.300000X0*%
%ADD31RoundRect,0.102000X-0.900000X0.600000X-0.900000X-0.600000X0.900000X-0.600000X0.900000X0.600000X0*%
%ADD32RoundRect,0.102000X-0.300000X-0.575000X0.300000X-0.575000X0.300000X0.575000X-0.300000X0.575000X0*%
%ADD33RoundRect,0.102000X-0.150000X-0.575000X0.150000X-0.575000X0.150000X0.575000X-0.150000X0.575000X0*%
%ADD34RoundRect,0.102000X0.775000X-0.300000X0.775000X0.300000X-0.775000X0.300000X-0.775000X-0.300000X0*%
%ADD35RoundRect,0.102000X0.900000X-0.600000X0.900000X0.600000X-0.900000X0.600000X-0.900000X-0.600000X0*%
%ADD36RoundRect,0.263889X-1.036111X-0.686111X1.036111X-0.686111X1.036111X0.686111X-1.036111X0.686111X0*%
%ADD37RoundRect,0.250000X-0.250000X-0.275000X0.250000X-0.275000X0.250000X0.275000X-0.250000X0.275000X0*%
%ADD38RoundRect,0.053000X-0.369000X-0.159000X0.369000X-0.159000X0.369000X0.159000X-0.369000X0.159000X0*%
%ADD39RoundRect,0.053000X-0.159000X-0.369000X0.159000X-0.369000X0.159000X0.369000X-0.159000X0.369000X0*%
%ADD40RoundRect,0.102000X-0.770000X-0.850000X0.770000X-0.850000X0.770000X0.850000X-0.770000X0.850000X0*%
%ADD41RoundRect,0.050000X-0.500000X-0.750000X0.500000X-0.750000X0.500000X0.750000X-0.500000X0.750000X0*%
%ADD42RoundRect,0.053000X0.369000X0.159000X-0.369000X0.159000X-0.369000X-0.159000X0.369000X-0.159000X0*%
%ADD43RoundRect,0.053000X0.159000X0.369000X-0.159000X0.369000X-0.159000X-0.369000X0.159000X-0.369000X0*%
%ADD44RoundRect,0.102000X0.770000X0.850000X-0.770000X0.850000X-0.770000X-0.850000X0.770000X-0.850000X0*%
%ADD45RoundRect,0.100000X0.100000X-0.725000X0.100000X0.725000X-0.100000X0.725000X-0.100000X-0.725000X0*%
%ADD46RoundRect,0.100000X0.725000X-0.100000X0.725000X0.100000X-0.725000X0.100000X-0.725000X-0.100000X0*%
%ADD47C,1.600000*%
G04 APERTURE END LIST*
D10*
%TO.C,S1*%
X152450000Y-73350000D02*
X151750000Y-73350000D01*
X151750000Y-74050000D01*
X150750000Y-74050000D01*
X150750000Y-72350000D01*
X152450000Y-72350000D01*
X152450000Y-73350000D01*
G36*
X152450000Y-73350000D02*
G01*
X151750000Y-73350000D01*
X151750000Y-74050000D01*
X150750000Y-74050000D01*
X150750000Y-72350000D01*
X152450000Y-72350000D01*
X152450000Y-73350000D01*
G37*
X159350000Y-74050000D02*
X158350000Y-74050000D01*
X158350000Y-73350000D01*
X157650000Y-73350000D01*
X157650000Y-72350000D01*
X159350000Y-72350000D01*
X159350000Y-74050000D01*
G36*
X159350000Y-74050000D02*
G01*
X158350000Y-74050000D01*
X158350000Y-73350000D01*
X157650000Y-73350000D01*
X157650000Y-72350000D01*
X159350000Y-72350000D01*
X159350000Y-74050000D01*
G37*
%TO.C,PS1*%
X217385000Y-92241000D02*
X217391000Y-92241000D01*
X217396000Y-92242000D01*
X217401000Y-92243000D01*
X217406000Y-92245000D01*
X217411000Y-92247000D01*
X217416000Y-92249000D01*
X217420000Y-92251000D01*
X217425000Y-92253000D01*
X217429000Y-92256000D01*
X217434000Y-92259000D01*
X217438000Y-92262000D01*
X217442000Y-92266000D01*
X217446000Y-92269000D01*
X217449000Y-92273000D01*
X217453000Y-92277000D01*
X217456000Y-92281000D01*
X217459000Y-92286000D01*
X217462000Y-92290000D01*
X217464000Y-92295000D01*
X217466000Y-92299000D01*
X217468000Y-92304000D01*
X217470000Y-92309000D01*
X217472000Y-92314000D01*
X217473000Y-92319000D01*
X217474000Y-92324000D01*
X217474000Y-92330000D01*
X217475000Y-92335000D01*
X217475000Y-92340000D01*
X217475000Y-92490000D01*
X217475000Y-92495000D01*
X217474000Y-92500000D01*
X217474000Y-92506000D01*
X217473000Y-92511000D01*
X217472000Y-92516000D01*
X217470000Y-92521000D01*
X217468000Y-92526000D01*
X217466000Y-92531000D01*
X217464000Y-92535000D01*
X217462000Y-92540000D01*
X217459000Y-92544000D01*
X217456000Y-92549000D01*
X217453000Y-92553000D01*
X217449000Y-92557000D01*
X217446000Y-92561000D01*
X217442000Y-92564000D01*
X217438000Y-92568000D01*
X217434000Y-92571000D01*
X217429000Y-92574000D01*
X217425000Y-92577000D01*
X217420000Y-92579000D01*
X217416000Y-92581000D01*
X217411000Y-92583000D01*
X217406000Y-92585000D01*
X217401000Y-92587000D01*
X217396000Y-92588000D01*
X217391000Y-92589000D01*
X217385000Y-92589000D01*
X217380000Y-92590000D01*
X217375000Y-92590000D01*
X216675000Y-92590000D01*
X216670000Y-92590000D01*
X216665000Y-92589000D01*
X216659000Y-92589000D01*
X216654000Y-92588000D01*
X216649000Y-92587000D01*
X216644000Y-92585000D01*
X216639000Y-92583000D01*
X216634000Y-92581000D01*
X216630000Y-92579000D01*
X216625000Y-92577000D01*
X216621000Y-92574000D01*
X216616000Y-92571000D01*
X216612000Y-92568000D01*
X216608000Y-92564000D01*
X216604000Y-92561000D01*
X216601000Y-92557000D01*
X216597000Y-92553000D01*
X216594000Y-92549000D01*
X216591000Y-92544000D01*
X216588000Y-92540000D01*
X216586000Y-92535000D01*
X216584000Y-92531000D01*
X216582000Y-92526000D01*
X216580000Y-92521000D01*
X216578000Y-92516000D01*
X216577000Y-92511000D01*
X216576000Y-92506000D01*
X216576000Y-92500000D01*
X216575000Y-92495000D01*
X216575000Y-92490000D01*
X216575000Y-92340000D01*
X216575000Y-92335000D01*
X216576000Y-92330000D01*
X216576000Y-92324000D01*
X216577000Y-92319000D01*
X216578000Y-92314000D01*
X216580000Y-92309000D01*
X216582000Y-92304000D01*
X216584000Y-92299000D01*
X216586000Y-92295000D01*
X216588000Y-92290000D01*
X216591000Y-92286000D01*
X216594000Y-92281000D01*
X216597000Y-92277000D01*
X216601000Y-92273000D01*
X216604000Y-92269000D01*
X216608000Y-92266000D01*
X216612000Y-92262000D01*
X216616000Y-92259000D01*
X216621000Y-92256000D01*
X216625000Y-92253000D01*
X216630000Y-92251000D01*
X216634000Y-92249000D01*
X216639000Y-92247000D01*
X216644000Y-92245000D01*
X216649000Y-92243000D01*
X216654000Y-92242000D01*
X216659000Y-92241000D01*
X216665000Y-92241000D01*
X216670000Y-92240000D01*
X216675000Y-92240000D01*
X217375000Y-92240000D01*
X217380000Y-92240000D01*
X217385000Y-92241000D01*
G36*
X217385000Y-92241000D02*
G01*
X217391000Y-92241000D01*
X217396000Y-92242000D01*
X217401000Y-92243000D01*
X217406000Y-92245000D01*
X217411000Y-92247000D01*
X217416000Y-92249000D01*
X217420000Y-92251000D01*
X217425000Y-92253000D01*
X217429000Y-92256000D01*
X217434000Y-92259000D01*
X217438000Y-92262000D01*
X217442000Y-92266000D01*
X217446000Y-92269000D01*
X217449000Y-92273000D01*
X217453000Y-92277000D01*
X217456000Y-92281000D01*
X217459000Y-92286000D01*
X217462000Y-92290000D01*
X217464000Y-92295000D01*
X217466000Y-92299000D01*
X217468000Y-92304000D01*
X217470000Y-92309000D01*
X217472000Y-92314000D01*
X217473000Y-92319000D01*
X217474000Y-92324000D01*
X217474000Y-92330000D01*
X217475000Y-92335000D01*
X217475000Y-92340000D01*
X217475000Y-92490000D01*
X217475000Y-92495000D01*
X217474000Y-92500000D01*
X217474000Y-92506000D01*
X217473000Y-92511000D01*
X217472000Y-92516000D01*
X217470000Y-92521000D01*
X217468000Y-92526000D01*
X217466000Y-92531000D01*
X217464000Y-92535000D01*
X217462000Y-92540000D01*
X217459000Y-92544000D01*
X217456000Y-92549000D01*
X217453000Y-92553000D01*
X217449000Y-92557000D01*
X217446000Y-92561000D01*
X217442000Y-92564000D01*
X217438000Y-92568000D01*
X217434000Y-92571000D01*
X217429000Y-92574000D01*
X217425000Y-92577000D01*
X217420000Y-92579000D01*
X217416000Y-92581000D01*
X217411000Y-92583000D01*
X217406000Y-92585000D01*
X217401000Y-92587000D01*
X217396000Y-92588000D01*
X217391000Y-92589000D01*
X217385000Y-92589000D01*
X217380000Y-92590000D01*
X217375000Y-92590000D01*
X216675000Y-92590000D01*
X216670000Y-92590000D01*
X216665000Y-92589000D01*
X216659000Y-92589000D01*
X216654000Y-92588000D01*
X216649000Y-92587000D01*
X216644000Y-92585000D01*
X216639000Y-92583000D01*
X216634000Y-92581000D01*
X216630000Y-92579000D01*
X216625000Y-92577000D01*
X216621000Y-92574000D01*
X216616000Y-92571000D01*
X216612000Y-92568000D01*
X216608000Y-92564000D01*
X216604000Y-92561000D01*
X216601000Y-92557000D01*
X216597000Y-92553000D01*
X216594000Y-92549000D01*
X216591000Y-92544000D01*
X216588000Y-92540000D01*
X216586000Y-92535000D01*
X216584000Y-92531000D01*
X216582000Y-92526000D01*
X216580000Y-92521000D01*
X216578000Y-92516000D01*
X216577000Y-92511000D01*
X216576000Y-92506000D01*
X216576000Y-92500000D01*
X216575000Y-92495000D01*
X216575000Y-92490000D01*
X216575000Y-92340000D01*
X216575000Y-92335000D01*
X216576000Y-92330000D01*
X216576000Y-92324000D01*
X216577000Y-92319000D01*
X216578000Y-92314000D01*
X216580000Y-92309000D01*
X216582000Y-92304000D01*
X216584000Y-92299000D01*
X216586000Y-92295000D01*
X216588000Y-92290000D01*
X216591000Y-92286000D01*
X216594000Y-92281000D01*
X216597000Y-92277000D01*
X216601000Y-92273000D01*
X216604000Y-92269000D01*
X216608000Y-92266000D01*
X216612000Y-92262000D01*
X216616000Y-92259000D01*
X216621000Y-92256000D01*
X216625000Y-92253000D01*
X216630000Y-92251000D01*
X216634000Y-92249000D01*
X216639000Y-92247000D01*
X216644000Y-92245000D01*
X216649000Y-92243000D01*
X216654000Y-92242000D01*
X216659000Y-92241000D01*
X216665000Y-92241000D01*
X216670000Y-92240000D01*
X216675000Y-92240000D01*
X217375000Y-92240000D01*
X217380000Y-92240000D01*
X217385000Y-92241000D01*
G37*
X217385000Y-92741000D02*
X217391000Y-92741000D01*
X217396000Y-92742000D01*
X217401000Y-92743000D01*
X217406000Y-92745000D01*
X217411000Y-92747000D01*
X217416000Y-92749000D01*
X217420000Y-92751000D01*
X217425000Y-92753000D01*
X217429000Y-92756000D01*
X217434000Y-92759000D01*
X217438000Y-92762000D01*
X217442000Y-92766000D01*
X217446000Y-92769000D01*
X217449000Y-92773000D01*
X217453000Y-92777000D01*
X217456000Y-92781000D01*
X217459000Y-92786000D01*
X217462000Y-92790000D01*
X217464000Y-92795000D01*
X217466000Y-92799000D01*
X217468000Y-92804000D01*
X217470000Y-92809000D01*
X217472000Y-92814000D01*
X217473000Y-92819000D01*
X217474000Y-92824000D01*
X217474000Y-92830000D01*
X217475000Y-92835000D01*
X217475000Y-92840000D01*
X217475000Y-92990000D01*
X217475000Y-92995000D01*
X217474000Y-93000000D01*
X217474000Y-93006000D01*
X217473000Y-93011000D01*
X217472000Y-93016000D01*
X217470000Y-93021000D01*
X217468000Y-93026000D01*
X217466000Y-93031000D01*
X217464000Y-93035000D01*
X217462000Y-93040000D01*
X217459000Y-93044000D01*
X217456000Y-93049000D01*
X217453000Y-93053000D01*
X217449000Y-93057000D01*
X217446000Y-93061000D01*
X217442000Y-93064000D01*
X217438000Y-93068000D01*
X217434000Y-93071000D01*
X217429000Y-93074000D01*
X217425000Y-93077000D01*
X217420000Y-93079000D01*
X217416000Y-93081000D01*
X217411000Y-93083000D01*
X217406000Y-93085000D01*
X217401000Y-93087000D01*
X217396000Y-93088000D01*
X217391000Y-93089000D01*
X217385000Y-93089000D01*
X217380000Y-93090000D01*
X217375000Y-93090000D01*
X216675000Y-93090000D01*
X216670000Y-93090000D01*
X216665000Y-93089000D01*
X216659000Y-93089000D01*
X216654000Y-93088000D01*
X216649000Y-93087000D01*
X216644000Y-93085000D01*
X216639000Y-93083000D01*
X216634000Y-93081000D01*
X216630000Y-93079000D01*
X216625000Y-93077000D01*
X216621000Y-93074000D01*
X216616000Y-93071000D01*
X216612000Y-93068000D01*
X216608000Y-93064000D01*
X216604000Y-93061000D01*
X216601000Y-93057000D01*
X216597000Y-93053000D01*
X216594000Y-93049000D01*
X216591000Y-93044000D01*
X216588000Y-93040000D01*
X216586000Y-93035000D01*
X216584000Y-93031000D01*
X216582000Y-93026000D01*
X216580000Y-93021000D01*
X216578000Y-93016000D01*
X216577000Y-93011000D01*
X216576000Y-93006000D01*
X216576000Y-93000000D01*
X216575000Y-92995000D01*
X216575000Y-92990000D01*
X216575000Y-92840000D01*
X216575000Y-92835000D01*
X216576000Y-92830000D01*
X216576000Y-92824000D01*
X216577000Y-92819000D01*
X216578000Y-92814000D01*
X216580000Y-92809000D01*
X216582000Y-92804000D01*
X216584000Y-92799000D01*
X216586000Y-92795000D01*
X216588000Y-92790000D01*
X216591000Y-92786000D01*
X216594000Y-92781000D01*
X216597000Y-92777000D01*
X216601000Y-92773000D01*
X216604000Y-92769000D01*
X216608000Y-92766000D01*
X216612000Y-92762000D01*
X216616000Y-92759000D01*
X216621000Y-92756000D01*
X216625000Y-92753000D01*
X216630000Y-92751000D01*
X216634000Y-92749000D01*
X216639000Y-92747000D01*
X216644000Y-92745000D01*
X216649000Y-92743000D01*
X216654000Y-92742000D01*
X216659000Y-92741000D01*
X216665000Y-92741000D01*
X216670000Y-92740000D01*
X216675000Y-92740000D01*
X217375000Y-92740000D01*
X217380000Y-92740000D01*
X217385000Y-92741000D01*
G36*
X217385000Y-92741000D02*
G01*
X217391000Y-92741000D01*
X217396000Y-92742000D01*
X217401000Y-92743000D01*
X217406000Y-92745000D01*
X217411000Y-92747000D01*
X217416000Y-92749000D01*
X217420000Y-92751000D01*
X217425000Y-92753000D01*
X217429000Y-92756000D01*
X217434000Y-92759000D01*
X217438000Y-92762000D01*
X217442000Y-92766000D01*
X217446000Y-92769000D01*
X217449000Y-92773000D01*
X217453000Y-92777000D01*
X217456000Y-92781000D01*
X217459000Y-92786000D01*
X217462000Y-92790000D01*
X217464000Y-92795000D01*
X217466000Y-92799000D01*
X217468000Y-92804000D01*
X217470000Y-92809000D01*
X217472000Y-92814000D01*
X217473000Y-92819000D01*
X217474000Y-92824000D01*
X217474000Y-92830000D01*
X217475000Y-92835000D01*
X217475000Y-92840000D01*
X217475000Y-92990000D01*
X217475000Y-92995000D01*
X217474000Y-93000000D01*
X217474000Y-93006000D01*
X217473000Y-93011000D01*
X217472000Y-93016000D01*
X217470000Y-93021000D01*
X217468000Y-93026000D01*
X217466000Y-93031000D01*
X217464000Y-93035000D01*
X217462000Y-93040000D01*
X217459000Y-93044000D01*
X217456000Y-93049000D01*
X217453000Y-93053000D01*
X217449000Y-93057000D01*
X217446000Y-93061000D01*
X217442000Y-93064000D01*
X217438000Y-93068000D01*
X217434000Y-93071000D01*
X217429000Y-93074000D01*
X217425000Y-93077000D01*
X217420000Y-93079000D01*
X217416000Y-93081000D01*
X217411000Y-93083000D01*
X217406000Y-93085000D01*
X217401000Y-93087000D01*
X217396000Y-93088000D01*
X217391000Y-93089000D01*
X217385000Y-93089000D01*
X217380000Y-93090000D01*
X217375000Y-93090000D01*
X216675000Y-93090000D01*
X216670000Y-93090000D01*
X216665000Y-93089000D01*
X216659000Y-93089000D01*
X216654000Y-93088000D01*
X216649000Y-93087000D01*
X216644000Y-93085000D01*
X216639000Y-93083000D01*
X216634000Y-93081000D01*
X216630000Y-93079000D01*
X216625000Y-93077000D01*
X216621000Y-93074000D01*
X216616000Y-93071000D01*
X216612000Y-93068000D01*
X216608000Y-93064000D01*
X216604000Y-93061000D01*
X216601000Y-93057000D01*
X216597000Y-93053000D01*
X216594000Y-93049000D01*
X216591000Y-93044000D01*
X216588000Y-93040000D01*
X216586000Y-93035000D01*
X216584000Y-93031000D01*
X216582000Y-93026000D01*
X216580000Y-93021000D01*
X216578000Y-93016000D01*
X216577000Y-93011000D01*
X216576000Y-93006000D01*
X216576000Y-93000000D01*
X216575000Y-92995000D01*
X216575000Y-92990000D01*
X216575000Y-92840000D01*
X216575000Y-92835000D01*
X216576000Y-92830000D01*
X216576000Y-92824000D01*
X216577000Y-92819000D01*
X216578000Y-92814000D01*
X216580000Y-92809000D01*
X216582000Y-92804000D01*
X216584000Y-92799000D01*
X216586000Y-92795000D01*
X216588000Y-92790000D01*
X216591000Y-92786000D01*
X216594000Y-92781000D01*
X216597000Y-92777000D01*
X216601000Y-92773000D01*
X216604000Y-92769000D01*
X216608000Y-92766000D01*
X216612000Y-92762000D01*
X216616000Y-92759000D01*
X216621000Y-92756000D01*
X216625000Y-92753000D01*
X216630000Y-92751000D01*
X216634000Y-92749000D01*
X216639000Y-92747000D01*
X216644000Y-92745000D01*
X216649000Y-92743000D01*
X216654000Y-92742000D01*
X216659000Y-92741000D01*
X216665000Y-92741000D01*
X216670000Y-92740000D01*
X216675000Y-92740000D01*
X217375000Y-92740000D01*
X217380000Y-92740000D01*
X217385000Y-92741000D01*
G37*
X218360000Y-91391000D02*
X218366000Y-91391000D01*
X218371000Y-91392000D01*
X218376000Y-91393000D01*
X218381000Y-91395000D01*
X218386000Y-91397000D01*
X218391000Y-91399000D01*
X218395000Y-91401000D01*
X218400000Y-91403000D01*
X218404000Y-91406000D01*
X218409000Y-91409000D01*
X218413000Y-91412000D01*
X218417000Y-91416000D01*
X218421000Y-91419000D01*
X218424000Y-91423000D01*
X218428000Y-91427000D01*
X218431000Y-91431000D01*
X218434000Y-91436000D01*
X218437000Y-91440000D01*
X218439000Y-91445000D01*
X218441000Y-91449000D01*
X218443000Y-91454000D01*
X218445000Y-91459000D01*
X218447000Y-91464000D01*
X218448000Y-91469000D01*
X218449000Y-91474000D01*
X218449000Y-91480000D01*
X218450000Y-91485000D01*
X218450000Y-91490000D01*
X218450000Y-91940000D01*
X218450000Y-91945000D01*
X218449000Y-91950000D01*
X218449000Y-91956000D01*
X218448000Y-91961000D01*
X218447000Y-91966000D01*
X218445000Y-91971000D01*
X218443000Y-91976000D01*
X218441000Y-91981000D01*
X218439000Y-91985000D01*
X218437000Y-91990000D01*
X218434000Y-91994000D01*
X218431000Y-91999000D01*
X218428000Y-92003000D01*
X218424000Y-92007000D01*
X218421000Y-92011000D01*
X218417000Y-92014000D01*
X218413000Y-92018000D01*
X218409000Y-92021000D01*
X218404000Y-92024000D01*
X218400000Y-92027000D01*
X218395000Y-92029000D01*
X218391000Y-92031000D01*
X218386000Y-92033000D01*
X218381000Y-92035000D01*
X218376000Y-92037000D01*
X218371000Y-92038000D01*
X218366000Y-92039000D01*
X218360000Y-92039000D01*
X218355000Y-92040000D01*
X218350000Y-92040000D01*
X218150000Y-92040000D01*
X218145000Y-92040000D01*
X218140000Y-92039000D01*
X218134000Y-92039000D01*
X218129000Y-92038000D01*
X218124000Y-92037000D01*
X218119000Y-92035000D01*
X218114000Y-92033000D01*
X218109000Y-92031000D01*
X218105000Y-92029000D01*
X218100000Y-92027000D01*
X218096000Y-92024000D01*
X218091000Y-92021000D01*
X218087000Y-92018000D01*
X218083000Y-92014000D01*
X218079000Y-92011000D01*
X218076000Y-92007000D01*
X218072000Y-92003000D01*
X218069000Y-91999000D01*
X218066000Y-91994000D01*
X218063000Y-91990000D01*
X218061000Y-91985000D01*
X218059000Y-91981000D01*
X218057000Y-91976000D01*
X218055000Y-91971000D01*
X218053000Y-91966000D01*
X218052000Y-91961000D01*
X218051000Y-91956000D01*
X218051000Y-91950000D01*
X218050000Y-91945000D01*
X218050000Y-91940000D01*
X218050000Y-91490000D01*
X218050000Y-91485000D01*
X218051000Y-91480000D01*
X218051000Y-91474000D01*
X218052000Y-91469000D01*
X218053000Y-91464000D01*
X218055000Y-91459000D01*
X218057000Y-91454000D01*
X218059000Y-91449000D01*
X218061000Y-91445000D01*
X218063000Y-91440000D01*
X218066000Y-91436000D01*
X218069000Y-91431000D01*
X218072000Y-91427000D01*
X218076000Y-91423000D01*
X218079000Y-91419000D01*
X218083000Y-91416000D01*
X218087000Y-91412000D01*
X218091000Y-91409000D01*
X218096000Y-91406000D01*
X218100000Y-91403000D01*
X218105000Y-91401000D01*
X218109000Y-91399000D01*
X218114000Y-91397000D01*
X218119000Y-91395000D01*
X218124000Y-91393000D01*
X218129000Y-91392000D01*
X218134000Y-91391000D01*
X218140000Y-91391000D01*
X218145000Y-91390000D01*
X218150000Y-91390000D01*
X218350000Y-91390000D01*
X218355000Y-91390000D01*
X218360000Y-91391000D01*
G36*
X218360000Y-91391000D02*
G01*
X218366000Y-91391000D01*
X218371000Y-91392000D01*
X218376000Y-91393000D01*
X218381000Y-91395000D01*
X218386000Y-91397000D01*
X218391000Y-91399000D01*
X218395000Y-91401000D01*
X218400000Y-91403000D01*
X218404000Y-91406000D01*
X218409000Y-91409000D01*
X218413000Y-91412000D01*
X218417000Y-91416000D01*
X218421000Y-91419000D01*
X218424000Y-91423000D01*
X218428000Y-91427000D01*
X218431000Y-91431000D01*
X218434000Y-91436000D01*
X218437000Y-91440000D01*
X218439000Y-91445000D01*
X218441000Y-91449000D01*
X218443000Y-91454000D01*
X218445000Y-91459000D01*
X218447000Y-91464000D01*
X218448000Y-91469000D01*
X218449000Y-91474000D01*
X218449000Y-91480000D01*
X218450000Y-91485000D01*
X218450000Y-91490000D01*
X218450000Y-91940000D01*
X218450000Y-91945000D01*
X218449000Y-91950000D01*
X218449000Y-91956000D01*
X218448000Y-91961000D01*
X218447000Y-91966000D01*
X218445000Y-91971000D01*
X218443000Y-91976000D01*
X218441000Y-91981000D01*
X218439000Y-91985000D01*
X218437000Y-91990000D01*
X218434000Y-91994000D01*
X218431000Y-91999000D01*
X218428000Y-92003000D01*
X218424000Y-92007000D01*
X218421000Y-92011000D01*
X218417000Y-92014000D01*
X218413000Y-92018000D01*
X218409000Y-92021000D01*
X218404000Y-92024000D01*
X218400000Y-92027000D01*
X218395000Y-92029000D01*
X218391000Y-92031000D01*
X218386000Y-92033000D01*
X218381000Y-92035000D01*
X218376000Y-92037000D01*
X218371000Y-92038000D01*
X218366000Y-92039000D01*
X218360000Y-92039000D01*
X218355000Y-92040000D01*
X218350000Y-92040000D01*
X218150000Y-92040000D01*
X218145000Y-92040000D01*
X218140000Y-92039000D01*
X218134000Y-92039000D01*
X218129000Y-92038000D01*
X218124000Y-92037000D01*
X218119000Y-92035000D01*
X218114000Y-92033000D01*
X218109000Y-92031000D01*
X218105000Y-92029000D01*
X218100000Y-92027000D01*
X218096000Y-92024000D01*
X218091000Y-92021000D01*
X218087000Y-92018000D01*
X218083000Y-92014000D01*
X218079000Y-92011000D01*
X218076000Y-92007000D01*
X218072000Y-92003000D01*
X218069000Y-91999000D01*
X218066000Y-91994000D01*
X218063000Y-91990000D01*
X218061000Y-91985000D01*
X218059000Y-91981000D01*
X218057000Y-91976000D01*
X218055000Y-91971000D01*
X218053000Y-91966000D01*
X218052000Y-91961000D01*
X218051000Y-91956000D01*
X218051000Y-91950000D01*
X218050000Y-91945000D01*
X218050000Y-91940000D01*
X218050000Y-91490000D01*
X218050000Y-91485000D01*
X218051000Y-91480000D01*
X218051000Y-91474000D01*
X218052000Y-91469000D01*
X218053000Y-91464000D01*
X218055000Y-91459000D01*
X218057000Y-91454000D01*
X218059000Y-91449000D01*
X218061000Y-91445000D01*
X218063000Y-91440000D01*
X218066000Y-91436000D01*
X218069000Y-91431000D01*
X218072000Y-91427000D01*
X218076000Y-91423000D01*
X218079000Y-91419000D01*
X218083000Y-91416000D01*
X218087000Y-91412000D01*
X218091000Y-91409000D01*
X218096000Y-91406000D01*
X218100000Y-91403000D01*
X218105000Y-91401000D01*
X218109000Y-91399000D01*
X218114000Y-91397000D01*
X218119000Y-91395000D01*
X218124000Y-91393000D01*
X218129000Y-91392000D01*
X218134000Y-91391000D01*
X218140000Y-91391000D01*
X218145000Y-91390000D01*
X218150000Y-91390000D01*
X218350000Y-91390000D01*
X218355000Y-91390000D01*
X218360000Y-91391000D01*
G37*
X217810000Y-91391000D02*
X217816000Y-91391000D01*
X217821000Y-91392000D01*
X217826000Y-91393000D01*
X217831000Y-91395000D01*
X217836000Y-91397000D01*
X217841000Y-91399000D01*
X217845000Y-91401000D01*
X217850000Y-91403000D01*
X217854000Y-91406000D01*
X217859000Y-91409000D01*
X217863000Y-91412000D01*
X217867000Y-91416000D01*
X217871000Y-91419000D01*
X217874000Y-91423000D01*
X217878000Y-91427000D01*
X217881000Y-91431000D01*
X217884000Y-91436000D01*
X217887000Y-91440000D01*
X217889000Y-91445000D01*
X217891000Y-91449000D01*
X217893000Y-91454000D01*
X217895000Y-91459000D01*
X217897000Y-91464000D01*
X217898000Y-91469000D01*
X217899000Y-91474000D01*
X217899000Y-91480000D01*
X217900000Y-91485000D01*
X217900000Y-91490000D01*
X217900000Y-91990000D01*
X217900000Y-91995000D01*
X217899000Y-92000000D01*
X217899000Y-92006000D01*
X217898000Y-92011000D01*
X217897000Y-92016000D01*
X217895000Y-92021000D01*
X217893000Y-92026000D01*
X217891000Y-92031000D01*
X217889000Y-92035000D01*
X217887000Y-92040000D01*
X217884000Y-92044000D01*
X217881000Y-92049000D01*
X217878000Y-92053000D01*
X217874000Y-92057000D01*
X217871000Y-92061000D01*
X217867000Y-92064000D01*
X217863000Y-92068000D01*
X217859000Y-92071000D01*
X217854000Y-92074000D01*
X217850000Y-92077000D01*
X217845000Y-92079000D01*
X217841000Y-92081000D01*
X217836000Y-92083000D01*
X217831000Y-92085000D01*
X217826000Y-92087000D01*
X217821000Y-92088000D01*
X217816000Y-92089000D01*
X217810000Y-92089000D01*
X217805000Y-92090000D01*
X217800000Y-92090000D01*
X216675000Y-92090000D01*
X216670000Y-92090000D01*
X216665000Y-92089000D01*
X216659000Y-92089000D01*
X216654000Y-92088000D01*
X216649000Y-92087000D01*
X216644000Y-92085000D01*
X216639000Y-92083000D01*
X216634000Y-92081000D01*
X216630000Y-92079000D01*
X216625000Y-92077000D01*
X216621000Y-92074000D01*
X216616000Y-92071000D01*
X216612000Y-92068000D01*
X216608000Y-92064000D01*
X216604000Y-92061000D01*
X216601000Y-92057000D01*
X216597000Y-92053000D01*
X216594000Y-92049000D01*
X216591000Y-92044000D01*
X216588000Y-92040000D01*
X216586000Y-92035000D01*
X216584000Y-92031000D01*
X216582000Y-92026000D01*
X216580000Y-92021000D01*
X216578000Y-92016000D01*
X216577000Y-92011000D01*
X216576000Y-92006000D01*
X216576000Y-92000000D01*
X216575000Y-91995000D01*
X216575000Y-91990000D01*
X216575000Y-91840000D01*
X216575000Y-91835000D01*
X216576000Y-91830000D01*
X216576000Y-91824000D01*
X216577000Y-91819000D01*
X216578000Y-91814000D01*
X216580000Y-91809000D01*
X216582000Y-91804000D01*
X216584000Y-91799000D01*
X216586000Y-91795000D01*
X216588000Y-91790000D01*
X216591000Y-91786000D01*
X216594000Y-91781000D01*
X216597000Y-91777000D01*
X216601000Y-91773000D01*
X216604000Y-91769000D01*
X216608000Y-91766000D01*
X216612000Y-91762000D01*
X216616000Y-91759000D01*
X216621000Y-91756000D01*
X216625000Y-91753000D01*
X216630000Y-91751000D01*
X216634000Y-91749000D01*
X216639000Y-91747000D01*
X216644000Y-91745000D01*
X216649000Y-91743000D01*
X216654000Y-91742000D01*
X216659000Y-91741000D01*
X216665000Y-91741000D01*
X216670000Y-91740000D01*
X216675000Y-91740000D01*
X217400000Y-91740000D01*
X217403000Y-91740000D01*
X217405000Y-91740000D01*
X217408000Y-91739000D01*
X217410000Y-91739000D01*
X217413000Y-91738000D01*
X217415000Y-91738000D01*
X217418000Y-91737000D01*
X217420000Y-91736000D01*
X217423000Y-91735000D01*
X217425000Y-91733000D01*
X217427000Y-91732000D01*
X217429000Y-91730000D01*
X217431000Y-91729000D01*
X217433000Y-91727000D01*
X217435000Y-91725000D01*
X217437000Y-91723000D01*
X217439000Y-91721000D01*
X217440000Y-91719000D01*
X217442000Y-91717000D01*
X217443000Y-91715000D01*
X217445000Y-91713000D01*
X217446000Y-91710000D01*
X217447000Y-91708000D01*
X217448000Y-91705000D01*
X217448000Y-91703000D01*
X217449000Y-91700000D01*
X217449000Y-91698000D01*
X217450000Y-91695000D01*
X217450000Y-91693000D01*
X217450000Y-91690000D01*
X217450000Y-91490000D01*
X217450000Y-91485000D01*
X217451000Y-91480000D01*
X217451000Y-91474000D01*
X217452000Y-91469000D01*
X217453000Y-91464000D01*
X217455000Y-91459000D01*
X217457000Y-91454000D01*
X217459000Y-91449000D01*
X217461000Y-91445000D01*
X217463000Y-91440000D01*
X217466000Y-91436000D01*
X217469000Y-91431000D01*
X217472000Y-91427000D01*
X217476000Y-91423000D01*
X217479000Y-91419000D01*
X217483000Y-91416000D01*
X217487000Y-91412000D01*
X217491000Y-91409000D01*
X217496000Y-91406000D01*
X217500000Y-91403000D01*
X217505000Y-91401000D01*
X217509000Y-91399000D01*
X217514000Y-91397000D01*
X217519000Y-91395000D01*
X217524000Y-91393000D01*
X217529000Y-91392000D01*
X217534000Y-91391000D01*
X217540000Y-91391000D01*
X217545000Y-91390000D01*
X217550000Y-91390000D01*
X217800000Y-91390000D01*
X217805000Y-91390000D01*
X217810000Y-91391000D01*
G36*
X217810000Y-91391000D02*
G01*
X217816000Y-91391000D01*
X217821000Y-91392000D01*
X217826000Y-91393000D01*
X217831000Y-91395000D01*
X217836000Y-91397000D01*
X217841000Y-91399000D01*
X217845000Y-91401000D01*
X217850000Y-91403000D01*
X217854000Y-91406000D01*
X217859000Y-91409000D01*
X217863000Y-91412000D01*
X217867000Y-91416000D01*
X217871000Y-91419000D01*
X217874000Y-91423000D01*
X217878000Y-91427000D01*
X217881000Y-91431000D01*
X217884000Y-91436000D01*
X217887000Y-91440000D01*
X217889000Y-91445000D01*
X217891000Y-91449000D01*
X217893000Y-91454000D01*
X217895000Y-91459000D01*
X217897000Y-91464000D01*
X217898000Y-91469000D01*
X217899000Y-91474000D01*
X217899000Y-91480000D01*
X217900000Y-91485000D01*
X217900000Y-91490000D01*
X217900000Y-91990000D01*
X217900000Y-91995000D01*
X217899000Y-92000000D01*
X217899000Y-92006000D01*
X217898000Y-92011000D01*
X217897000Y-92016000D01*
X217895000Y-92021000D01*
X217893000Y-92026000D01*
X217891000Y-92031000D01*
X217889000Y-92035000D01*
X217887000Y-92040000D01*
X217884000Y-92044000D01*
X217881000Y-92049000D01*
X217878000Y-92053000D01*
X217874000Y-92057000D01*
X217871000Y-92061000D01*
X217867000Y-92064000D01*
X217863000Y-92068000D01*
X217859000Y-92071000D01*
X217854000Y-92074000D01*
X217850000Y-92077000D01*
X217845000Y-92079000D01*
X217841000Y-92081000D01*
X217836000Y-92083000D01*
X217831000Y-92085000D01*
X217826000Y-92087000D01*
X217821000Y-92088000D01*
X217816000Y-92089000D01*
X217810000Y-92089000D01*
X217805000Y-92090000D01*
X217800000Y-92090000D01*
X216675000Y-92090000D01*
X216670000Y-92090000D01*
X216665000Y-92089000D01*
X216659000Y-92089000D01*
X216654000Y-92088000D01*
X216649000Y-92087000D01*
X216644000Y-92085000D01*
X216639000Y-92083000D01*
X216634000Y-92081000D01*
X216630000Y-92079000D01*
X216625000Y-92077000D01*
X216621000Y-92074000D01*
X216616000Y-92071000D01*
X216612000Y-92068000D01*
X216608000Y-92064000D01*
X216604000Y-92061000D01*
X216601000Y-92057000D01*
X216597000Y-92053000D01*
X216594000Y-92049000D01*
X216591000Y-92044000D01*
X216588000Y-92040000D01*
X216586000Y-92035000D01*
X216584000Y-92031000D01*
X216582000Y-92026000D01*
X216580000Y-92021000D01*
X216578000Y-92016000D01*
X216577000Y-92011000D01*
X216576000Y-92006000D01*
X216576000Y-92000000D01*
X216575000Y-91995000D01*
X216575000Y-91990000D01*
X216575000Y-91840000D01*
X216575000Y-91835000D01*
X216576000Y-91830000D01*
X216576000Y-91824000D01*
X216577000Y-91819000D01*
X216578000Y-91814000D01*
X216580000Y-91809000D01*
X216582000Y-91804000D01*
X216584000Y-91799000D01*
X216586000Y-91795000D01*
X216588000Y-91790000D01*
X216591000Y-91786000D01*
X216594000Y-91781000D01*
X216597000Y-91777000D01*
X216601000Y-91773000D01*
X216604000Y-91769000D01*
X216608000Y-91766000D01*
X216612000Y-91762000D01*
X216616000Y-91759000D01*
X216621000Y-91756000D01*
X216625000Y-91753000D01*
X216630000Y-91751000D01*
X216634000Y-91749000D01*
X216639000Y-91747000D01*
X216644000Y-91745000D01*
X216649000Y-91743000D01*
X216654000Y-91742000D01*
X216659000Y-91741000D01*
X216665000Y-91741000D01*
X216670000Y-91740000D01*
X216675000Y-91740000D01*
X217400000Y-91740000D01*
X217403000Y-91740000D01*
X217405000Y-91740000D01*
X217408000Y-91739000D01*
X217410000Y-91739000D01*
X217413000Y-91738000D01*
X217415000Y-91738000D01*
X217418000Y-91737000D01*
X217420000Y-91736000D01*
X217423000Y-91735000D01*
X217425000Y-91733000D01*
X217427000Y-91732000D01*
X217429000Y-91730000D01*
X217431000Y-91729000D01*
X217433000Y-91727000D01*
X217435000Y-91725000D01*
X217437000Y-91723000D01*
X217439000Y-91721000D01*
X217440000Y-91719000D01*
X217442000Y-91717000D01*
X217443000Y-91715000D01*
X217445000Y-91713000D01*
X217446000Y-91710000D01*
X217447000Y-91708000D01*
X217448000Y-91705000D01*
X217448000Y-91703000D01*
X217449000Y-91700000D01*
X217449000Y-91698000D01*
X217450000Y-91695000D01*
X217450000Y-91693000D01*
X217450000Y-91690000D01*
X217450000Y-91490000D01*
X217450000Y-91485000D01*
X217451000Y-91480000D01*
X217451000Y-91474000D01*
X217452000Y-91469000D01*
X217453000Y-91464000D01*
X217455000Y-91459000D01*
X217457000Y-91454000D01*
X217459000Y-91449000D01*
X217461000Y-91445000D01*
X217463000Y-91440000D01*
X217466000Y-91436000D01*
X217469000Y-91431000D01*
X217472000Y-91427000D01*
X217476000Y-91423000D01*
X217479000Y-91419000D01*
X217483000Y-91416000D01*
X217487000Y-91412000D01*
X217491000Y-91409000D01*
X217496000Y-91406000D01*
X217500000Y-91403000D01*
X217505000Y-91401000D01*
X217509000Y-91399000D01*
X217514000Y-91397000D01*
X217519000Y-91395000D01*
X217524000Y-91393000D01*
X217529000Y-91392000D01*
X217534000Y-91391000D01*
X217540000Y-91391000D01*
X217545000Y-91390000D01*
X217550000Y-91390000D01*
X217800000Y-91390000D01*
X217805000Y-91390000D01*
X217810000Y-91391000D01*
G37*
X219410000Y-91391000D02*
X219416000Y-91391000D01*
X219421000Y-91392000D01*
X219426000Y-91393000D01*
X219431000Y-91395000D01*
X219436000Y-91397000D01*
X219441000Y-91399000D01*
X219445000Y-91401000D01*
X219450000Y-91403000D01*
X219454000Y-91406000D01*
X219459000Y-91409000D01*
X219463000Y-91412000D01*
X219467000Y-91416000D01*
X219471000Y-91419000D01*
X219474000Y-91423000D01*
X219478000Y-91427000D01*
X219481000Y-91431000D01*
X219484000Y-91436000D01*
X219487000Y-91440000D01*
X219489000Y-91445000D01*
X219491000Y-91449000D01*
X219493000Y-91454000D01*
X219495000Y-91459000D01*
X219497000Y-91464000D01*
X219498000Y-91469000D01*
X219499000Y-91474000D01*
X219499000Y-91480000D01*
X219500000Y-91485000D01*
X219500000Y-91490000D01*
X219500000Y-91690000D01*
X219500000Y-91693000D01*
X219500000Y-91695000D01*
X219501000Y-91698000D01*
X219501000Y-91700000D01*
X219502000Y-91703000D01*
X219502000Y-91705000D01*
X219503000Y-91708000D01*
X219504000Y-91710000D01*
X219505000Y-91713000D01*
X219507000Y-91715000D01*
X219508000Y-91717000D01*
X219510000Y-91719000D01*
X219511000Y-91721000D01*
X219513000Y-91723000D01*
X219515000Y-91725000D01*
X219517000Y-91727000D01*
X219519000Y-91729000D01*
X219521000Y-91730000D01*
X219523000Y-91732000D01*
X219525000Y-91733000D01*
X219527000Y-91735000D01*
X219530000Y-91736000D01*
X219532000Y-91737000D01*
X219535000Y-91738000D01*
X219537000Y-91738000D01*
X219540000Y-91739000D01*
X219542000Y-91739000D01*
X219545000Y-91740000D01*
X219547000Y-91740000D01*
X219550000Y-91740000D01*
X220275000Y-91740000D01*
X220280000Y-91740000D01*
X220285000Y-91741000D01*
X220291000Y-91741000D01*
X220296000Y-91742000D01*
X220301000Y-91743000D01*
X220306000Y-91745000D01*
X220311000Y-91747000D01*
X220316000Y-91749000D01*
X220320000Y-91751000D01*
X220325000Y-91753000D01*
X220329000Y-91756000D01*
X220334000Y-91759000D01*
X220338000Y-91762000D01*
X220342000Y-91766000D01*
X220346000Y-91769000D01*
X220349000Y-91773000D01*
X220353000Y-91777000D01*
X220356000Y-91781000D01*
X220359000Y-91786000D01*
X220362000Y-91790000D01*
X220364000Y-91795000D01*
X220366000Y-91799000D01*
X220368000Y-91804000D01*
X220370000Y-91809000D01*
X220372000Y-91814000D01*
X220373000Y-91819000D01*
X220374000Y-91824000D01*
X220374000Y-91830000D01*
X220375000Y-91835000D01*
X220375000Y-91840000D01*
X220375000Y-91990000D01*
X220375000Y-91995000D01*
X220374000Y-92000000D01*
X220374000Y-92006000D01*
X220373000Y-92011000D01*
X220372000Y-92016000D01*
X220370000Y-92021000D01*
X220368000Y-92026000D01*
X220366000Y-92031000D01*
X220364000Y-92035000D01*
X220362000Y-92040000D01*
X220359000Y-92044000D01*
X220356000Y-92049000D01*
X220353000Y-92053000D01*
X220349000Y-92057000D01*
X220346000Y-92061000D01*
X220342000Y-92064000D01*
X220338000Y-92068000D01*
X220334000Y-92071000D01*
X220329000Y-92074000D01*
X220325000Y-92077000D01*
X220320000Y-92079000D01*
X220316000Y-92081000D01*
X220311000Y-92083000D01*
X220306000Y-92085000D01*
X220301000Y-92087000D01*
X220296000Y-92088000D01*
X220291000Y-92089000D01*
X220285000Y-92089000D01*
X220280000Y-92090000D01*
X220275000Y-92090000D01*
X219150000Y-92090000D01*
X219145000Y-92090000D01*
X219140000Y-92089000D01*
X219134000Y-92089000D01*
X219129000Y-92088000D01*
X219124000Y-92087000D01*
X219119000Y-92085000D01*
X219114000Y-92083000D01*
X219109000Y-92081000D01*
X219105000Y-92079000D01*
X219100000Y-92077000D01*
X219096000Y-92074000D01*
X219091000Y-92071000D01*
X219087000Y-92068000D01*
X219083000Y-92064000D01*
X219079000Y-92061000D01*
X219076000Y-92057000D01*
X219072000Y-92053000D01*
X219069000Y-92049000D01*
X219066000Y-92044000D01*
X219063000Y-92040000D01*
X219061000Y-92035000D01*
X219059000Y-92031000D01*
X219057000Y-92026000D01*
X219055000Y-92021000D01*
X219053000Y-92016000D01*
X219052000Y-92011000D01*
X219051000Y-92006000D01*
X219051000Y-92000000D01*
X219050000Y-91995000D01*
X219050000Y-91990000D01*
X219050000Y-91490000D01*
X219050000Y-91485000D01*
X219051000Y-91480000D01*
X219051000Y-91474000D01*
X219052000Y-91469000D01*
X219053000Y-91464000D01*
X219055000Y-91459000D01*
X219057000Y-91454000D01*
X219059000Y-91449000D01*
X219061000Y-91445000D01*
X219063000Y-91440000D01*
X219066000Y-91436000D01*
X219069000Y-91431000D01*
X219072000Y-91427000D01*
X219076000Y-91423000D01*
X219079000Y-91419000D01*
X219083000Y-91416000D01*
X219087000Y-91412000D01*
X219091000Y-91409000D01*
X219096000Y-91406000D01*
X219100000Y-91403000D01*
X219105000Y-91401000D01*
X219109000Y-91399000D01*
X219114000Y-91397000D01*
X219119000Y-91395000D01*
X219124000Y-91393000D01*
X219129000Y-91392000D01*
X219134000Y-91391000D01*
X219140000Y-91391000D01*
X219145000Y-91390000D01*
X219150000Y-91390000D01*
X219400000Y-91390000D01*
X219405000Y-91390000D01*
X219410000Y-91391000D01*
G36*
X219410000Y-91391000D02*
G01*
X219416000Y-91391000D01*
X219421000Y-91392000D01*
X219426000Y-91393000D01*
X219431000Y-91395000D01*
X219436000Y-91397000D01*
X219441000Y-91399000D01*
X219445000Y-91401000D01*
X219450000Y-91403000D01*
X219454000Y-91406000D01*
X219459000Y-91409000D01*
X219463000Y-91412000D01*
X219467000Y-91416000D01*
X219471000Y-91419000D01*
X219474000Y-91423000D01*
X219478000Y-91427000D01*
X219481000Y-91431000D01*
X219484000Y-91436000D01*
X219487000Y-91440000D01*
X219489000Y-91445000D01*
X219491000Y-91449000D01*
X219493000Y-91454000D01*
X219495000Y-91459000D01*
X219497000Y-91464000D01*
X219498000Y-91469000D01*
X219499000Y-91474000D01*
X219499000Y-91480000D01*
X219500000Y-91485000D01*
X219500000Y-91490000D01*
X219500000Y-91690000D01*
X219500000Y-91693000D01*
X219500000Y-91695000D01*
X219501000Y-91698000D01*
X219501000Y-91700000D01*
X219502000Y-91703000D01*
X219502000Y-91705000D01*
X219503000Y-91708000D01*
X219504000Y-91710000D01*
X219505000Y-91713000D01*
X219507000Y-91715000D01*
X219508000Y-91717000D01*
X219510000Y-91719000D01*
X219511000Y-91721000D01*
X219513000Y-91723000D01*
X219515000Y-91725000D01*
X219517000Y-91727000D01*
X219519000Y-91729000D01*
X219521000Y-91730000D01*
X219523000Y-91732000D01*
X219525000Y-91733000D01*
X219527000Y-91735000D01*
X219530000Y-91736000D01*
X219532000Y-91737000D01*
X219535000Y-91738000D01*
X219537000Y-91738000D01*
X219540000Y-91739000D01*
X219542000Y-91739000D01*
X219545000Y-91740000D01*
X219547000Y-91740000D01*
X219550000Y-91740000D01*
X220275000Y-91740000D01*
X220280000Y-91740000D01*
X220285000Y-91741000D01*
X220291000Y-91741000D01*
X220296000Y-91742000D01*
X220301000Y-91743000D01*
X220306000Y-91745000D01*
X220311000Y-91747000D01*
X220316000Y-91749000D01*
X220320000Y-91751000D01*
X220325000Y-91753000D01*
X220329000Y-91756000D01*
X220334000Y-91759000D01*
X220338000Y-91762000D01*
X220342000Y-91766000D01*
X220346000Y-91769000D01*
X220349000Y-91773000D01*
X220353000Y-91777000D01*
X220356000Y-91781000D01*
X220359000Y-91786000D01*
X220362000Y-91790000D01*
X220364000Y-91795000D01*
X220366000Y-91799000D01*
X220368000Y-91804000D01*
X220370000Y-91809000D01*
X220372000Y-91814000D01*
X220373000Y-91819000D01*
X220374000Y-91824000D01*
X220374000Y-91830000D01*
X220375000Y-91835000D01*
X220375000Y-91840000D01*
X220375000Y-91990000D01*
X220375000Y-91995000D01*
X220374000Y-92000000D01*
X220374000Y-92006000D01*
X220373000Y-92011000D01*
X220372000Y-92016000D01*
X220370000Y-92021000D01*
X220368000Y-92026000D01*
X220366000Y-92031000D01*
X220364000Y-92035000D01*
X220362000Y-92040000D01*
X220359000Y-92044000D01*
X220356000Y-92049000D01*
X220353000Y-92053000D01*
X220349000Y-92057000D01*
X220346000Y-92061000D01*
X220342000Y-92064000D01*
X220338000Y-92068000D01*
X220334000Y-92071000D01*
X220329000Y-92074000D01*
X220325000Y-92077000D01*
X220320000Y-92079000D01*
X220316000Y-92081000D01*
X220311000Y-92083000D01*
X220306000Y-92085000D01*
X220301000Y-92087000D01*
X220296000Y-92088000D01*
X220291000Y-92089000D01*
X220285000Y-92089000D01*
X220280000Y-92090000D01*
X220275000Y-92090000D01*
X219150000Y-92090000D01*
X219145000Y-92090000D01*
X219140000Y-92089000D01*
X219134000Y-92089000D01*
X219129000Y-92088000D01*
X219124000Y-92087000D01*
X219119000Y-92085000D01*
X219114000Y-92083000D01*
X219109000Y-92081000D01*
X219105000Y-92079000D01*
X219100000Y-92077000D01*
X219096000Y-92074000D01*
X219091000Y-92071000D01*
X219087000Y-92068000D01*
X219083000Y-92064000D01*
X219079000Y-92061000D01*
X219076000Y-92057000D01*
X219072000Y-92053000D01*
X219069000Y-92049000D01*
X219066000Y-92044000D01*
X219063000Y-92040000D01*
X219061000Y-92035000D01*
X219059000Y-92031000D01*
X219057000Y-92026000D01*
X219055000Y-92021000D01*
X219053000Y-92016000D01*
X219052000Y-92011000D01*
X219051000Y-92006000D01*
X219051000Y-92000000D01*
X219050000Y-91995000D01*
X219050000Y-91990000D01*
X219050000Y-91490000D01*
X219050000Y-91485000D01*
X219051000Y-91480000D01*
X219051000Y-91474000D01*
X219052000Y-91469000D01*
X219053000Y-91464000D01*
X219055000Y-91459000D01*
X219057000Y-91454000D01*
X219059000Y-91449000D01*
X219061000Y-91445000D01*
X219063000Y-91440000D01*
X219066000Y-91436000D01*
X219069000Y-91431000D01*
X219072000Y-91427000D01*
X219076000Y-91423000D01*
X219079000Y-91419000D01*
X219083000Y-91416000D01*
X219087000Y-91412000D01*
X219091000Y-91409000D01*
X219096000Y-91406000D01*
X219100000Y-91403000D01*
X219105000Y-91401000D01*
X219109000Y-91399000D01*
X219114000Y-91397000D01*
X219119000Y-91395000D01*
X219124000Y-91393000D01*
X219129000Y-91392000D01*
X219134000Y-91391000D01*
X219140000Y-91391000D01*
X219145000Y-91390000D01*
X219150000Y-91390000D01*
X219400000Y-91390000D01*
X219405000Y-91390000D01*
X219410000Y-91391000D01*
G37*
X218310000Y-92191000D02*
X218316000Y-92191000D01*
X218321000Y-92192000D01*
X218326000Y-92193000D01*
X218331000Y-92195000D01*
X218336000Y-92197000D01*
X218341000Y-92199000D01*
X218345000Y-92201000D01*
X218350000Y-92203000D01*
X218354000Y-92206000D01*
X218359000Y-92209000D01*
X218363000Y-92212000D01*
X218367000Y-92216000D01*
X218371000Y-92219000D01*
X218374000Y-92223000D01*
X218378000Y-92227000D01*
X218381000Y-92231000D01*
X218384000Y-92236000D01*
X218387000Y-92240000D01*
X218389000Y-92245000D01*
X218391000Y-92249000D01*
X218393000Y-92254000D01*
X218395000Y-92259000D01*
X218397000Y-92264000D01*
X218398000Y-92269000D01*
X218399000Y-92274000D01*
X218399000Y-92280000D01*
X218400000Y-92285000D01*
X218400000Y-92290000D01*
X218400000Y-93514000D01*
X218400000Y-93520000D01*
X218399000Y-93525000D01*
X218399000Y-93530000D01*
X218398000Y-93535000D01*
X218397000Y-93540000D01*
X218395000Y-93545000D01*
X218393000Y-93550000D01*
X218391000Y-93555000D01*
X218389000Y-93560000D01*
X218387000Y-93564000D01*
X218384000Y-93569000D01*
X218381000Y-93573000D01*
X218378000Y-93577000D01*
X218374000Y-93581000D01*
X218371000Y-93585000D01*
X218367000Y-93589000D01*
X218363000Y-93592000D01*
X218359000Y-93595000D01*
X218354000Y-93598000D01*
X218350000Y-93601000D01*
X218345000Y-93604000D01*
X218341000Y-93606000D01*
X218336000Y-93608000D01*
X218331000Y-93610000D01*
X218326000Y-93611000D01*
X218321000Y-93612000D01*
X218316000Y-93613000D01*
X218310000Y-93614000D01*
X218305000Y-93614000D01*
X218300000Y-93614000D01*
X216675000Y-93614000D01*
X216670000Y-93614000D01*
X216665000Y-93614000D01*
X216659000Y-93613000D01*
X216654000Y-93612000D01*
X216649000Y-93611000D01*
X216644000Y-93610000D01*
X216639000Y-93608000D01*
X216634000Y-93606000D01*
X216630000Y-93604000D01*
X216625000Y-93601000D01*
X216621000Y-93598000D01*
X216616000Y-93595000D01*
X216612000Y-93592000D01*
X216608000Y-93589000D01*
X216604000Y-93585000D01*
X216601000Y-93581000D01*
X216597000Y-93577000D01*
X216594000Y-93573000D01*
X216591000Y-93569000D01*
X216588000Y-93565000D01*
X216586000Y-93560000D01*
X216584000Y-93555000D01*
X216582000Y-93550000D01*
X216580000Y-93545000D01*
X216578000Y-93540000D01*
X216577000Y-93535000D01*
X216576000Y-93530000D01*
X216576000Y-93525000D01*
X216575000Y-93520000D01*
X216575000Y-93514000D01*
X216575000Y-93340000D01*
X216575000Y-93334000D01*
X216576000Y-93329000D01*
X216576000Y-93324000D01*
X216577000Y-93319000D01*
X216578000Y-93314000D01*
X216580000Y-93309000D01*
X216582000Y-93304000D01*
X216584000Y-93299000D01*
X216586000Y-93294000D01*
X216588000Y-93289000D01*
X216591000Y-93285000D01*
X216594000Y-93281000D01*
X216597000Y-93277000D01*
X216601000Y-93273000D01*
X216604000Y-93269000D01*
X216608000Y-93265000D01*
X216612000Y-93262000D01*
X216616000Y-93259000D01*
X216621000Y-93256000D01*
X216625000Y-93253000D01*
X216630000Y-93250000D01*
X216634000Y-93248000D01*
X216639000Y-93246000D01*
X216644000Y-93244000D01*
X216649000Y-93243000D01*
X216654000Y-93242000D01*
X216659000Y-93241000D01*
X216665000Y-93240000D01*
X216670000Y-93240000D01*
X216675000Y-93240000D01*
X217854000Y-93240000D01*
X217856000Y-93239000D01*
X217858000Y-93239000D01*
X217860000Y-93239000D01*
X217862000Y-93239000D01*
X217864000Y-93239000D01*
X217866000Y-93239000D01*
X217868000Y-93238000D01*
X217870000Y-93238000D01*
X217871000Y-93237000D01*
X217873000Y-93237000D01*
X217875000Y-93236000D01*
X217877000Y-93236000D01*
X217879000Y-93235000D01*
X217881000Y-93235000D01*
X217883000Y-93234000D01*
X217884000Y-93233000D01*
X217886000Y-93232000D01*
X217888000Y-93231000D01*
X217890000Y-93230000D01*
X217891000Y-93229000D01*
X217893000Y-93228000D01*
X217895000Y-93227000D01*
X217896000Y-93226000D01*
X217898000Y-93225000D01*
X217900000Y-93224000D01*
X217901000Y-93223000D01*
X217903000Y-93222000D01*
X217904000Y-93220000D01*
X217906000Y-93219000D01*
X217907000Y-93218000D01*
X218028000Y-93096000D01*
X218029000Y-93095000D01*
X218031000Y-93094000D01*
X218032000Y-93092000D01*
X218033000Y-93091000D01*
X218035000Y-93089000D01*
X218036000Y-93088000D01*
X218037000Y-93086000D01*
X218038000Y-93084000D01*
X218039000Y-93083000D01*
X218040000Y-93081000D01*
X218041000Y-93079000D01*
X218042000Y-93077000D01*
X218043000Y-93076000D01*
X218044000Y-93074000D01*
X218044000Y-93072000D01*
X218045000Y-93070000D01*
X218046000Y-93068000D01*
X218046000Y-93067000D01*
X218047000Y-93065000D01*
X218047000Y-93063000D01*
X218048000Y-93061000D01*
X218048000Y-93059000D01*
X218049000Y-93057000D01*
X218049000Y-93055000D01*
X218049000Y-93053000D01*
X218050000Y-93051000D01*
X218050000Y-93049000D01*
X218050000Y-93047000D01*
X218050000Y-93045000D01*
X218050000Y-93043000D01*
X218050000Y-92290000D01*
X218050000Y-92285000D01*
X218051000Y-92280000D01*
X218051000Y-92274000D01*
X218052000Y-92269000D01*
X218053000Y-92264000D01*
X218055000Y-92259000D01*
X218057000Y-92254000D01*
X218059000Y-92249000D01*
X218061000Y-92245000D01*
X218063000Y-92240000D01*
X218066000Y-92236000D01*
X218069000Y-92231000D01*
X218072000Y-92227000D01*
X218076000Y-92223000D01*
X218079000Y-92219000D01*
X218083000Y-92216000D01*
X218087000Y-92212000D01*
X218091000Y-92209000D01*
X218096000Y-92206000D01*
X218100000Y-92203000D01*
X218105000Y-92201000D01*
X218109000Y-92199000D01*
X218114000Y-92197000D01*
X218119000Y-92195000D01*
X218124000Y-92193000D01*
X218129000Y-92192000D01*
X218134000Y-92191000D01*
X218140000Y-92191000D01*
X218145000Y-92190000D01*
X218150000Y-92190000D01*
X218300000Y-92190000D01*
X218305000Y-92190000D01*
X218310000Y-92191000D01*
G36*
X218310000Y-92191000D02*
G01*
X218316000Y-92191000D01*
X218321000Y-92192000D01*
X218326000Y-92193000D01*
X218331000Y-92195000D01*
X218336000Y-92197000D01*
X218341000Y-92199000D01*
X218345000Y-92201000D01*
X218350000Y-92203000D01*
X218354000Y-92206000D01*
X218359000Y-92209000D01*
X218363000Y-92212000D01*
X218367000Y-92216000D01*
X218371000Y-92219000D01*
X218374000Y-92223000D01*
X218378000Y-92227000D01*
X218381000Y-92231000D01*
X218384000Y-92236000D01*
X218387000Y-92240000D01*
X218389000Y-92245000D01*
X218391000Y-92249000D01*
X218393000Y-92254000D01*
X218395000Y-92259000D01*
X218397000Y-92264000D01*
X218398000Y-92269000D01*
X218399000Y-92274000D01*
X218399000Y-92280000D01*
X218400000Y-92285000D01*
X218400000Y-92290000D01*
X218400000Y-93514000D01*
X218400000Y-93520000D01*
X218399000Y-93525000D01*
X218399000Y-93530000D01*
X218398000Y-93535000D01*
X218397000Y-93540000D01*
X218395000Y-93545000D01*
X218393000Y-93550000D01*
X218391000Y-93555000D01*
X218389000Y-93560000D01*
X218387000Y-93564000D01*
X218384000Y-93569000D01*
X218381000Y-93573000D01*
X218378000Y-93577000D01*
X218374000Y-93581000D01*
X218371000Y-93585000D01*
X218367000Y-93589000D01*
X218363000Y-93592000D01*
X218359000Y-93595000D01*
X218354000Y-93598000D01*
X218350000Y-93601000D01*
X218345000Y-93604000D01*
X218341000Y-93606000D01*
X218336000Y-93608000D01*
X218331000Y-93610000D01*
X218326000Y-93611000D01*
X218321000Y-93612000D01*
X218316000Y-93613000D01*
X218310000Y-93614000D01*
X218305000Y-93614000D01*
X218300000Y-93614000D01*
X216675000Y-93614000D01*
X216670000Y-93614000D01*
X216665000Y-93614000D01*
X216659000Y-93613000D01*
X216654000Y-93612000D01*
X216649000Y-93611000D01*
X216644000Y-93610000D01*
X216639000Y-93608000D01*
X216634000Y-93606000D01*
X216630000Y-93604000D01*
X216625000Y-93601000D01*
X216621000Y-93598000D01*
X216616000Y-93595000D01*
X216612000Y-93592000D01*
X216608000Y-93589000D01*
X216604000Y-93585000D01*
X216601000Y-93581000D01*
X216597000Y-93577000D01*
X216594000Y-93573000D01*
X216591000Y-93569000D01*
X216588000Y-93565000D01*
X216586000Y-93560000D01*
X216584000Y-93555000D01*
X216582000Y-93550000D01*
X216580000Y-93545000D01*
X216578000Y-93540000D01*
X216577000Y-93535000D01*
X216576000Y-93530000D01*
X216576000Y-93525000D01*
X216575000Y-93520000D01*
X216575000Y-93514000D01*
X216575000Y-93340000D01*
X216575000Y-93334000D01*
X216576000Y-93329000D01*
X216576000Y-93324000D01*
X216577000Y-93319000D01*
X216578000Y-93314000D01*
X216580000Y-93309000D01*
X216582000Y-93304000D01*
X216584000Y-93299000D01*
X216586000Y-93294000D01*
X216588000Y-93289000D01*
X216591000Y-93285000D01*
X216594000Y-93281000D01*
X216597000Y-93277000D01*
X216601000Y-93273000D01*
X216604000Y-93269000D01*
X216608000Y-93265000D01*
X216612000Y-93262000D01*
X216616000Y-93259000D01*
X216621000Y-93256000D01*
X216625000Y-93253000D01*
X216630000Y-93250000D01*
X216634000Y-93248000D01*
X216639000Y-93246000D01*
X216644000Y-93244000D01*
X216649000Y-93243000D01*
X216654000Y-93242000D01*
X216659000Y-93241000D01*
X216665000Y-93240000D01*
X216670000Y-93240000D01*
X216675000Y-93240000D01*
X217854000Y-93240000D01*
X217856000Y-93239000D01*
X217858000Y-93239000D01*
X217860000Y-93239000D01*
X217862000Y-93239000D01*
X217864000Y-93239000D01*
X217866000Y-93239000D01*
X217868000Y-93238000D01*
X217870000Y-93238000D01*
X217871000Y-93237000D01*
X217873000Y-93237000D01*
X217875000Y-93236000D01*
X217877000Y-93236000D01*
X217879000Y-93235000D01*
X217881000Y-93235000D01*
X217883000Y-93234000D01*
X217884000Y-93233000D01*
X217886000Y-93232000D01*
X217888000Y-93231000D01*
X217890000Y-93230000D01*
X217891000Y-93229000D01*
X217893000Y-93228000D01*
X217895000Y-93227000D01*
X217896000Y-93226000D01*
X217898000Y-93225000D01*
X217900000Y-93224000D01*
X217901000Y-93223000D01*
X217903000Y-93222000D01*
X217904000Y-93220000D01*
X217906000Y-93219000D01*
X217907000Y-93218000D01*
X218028000Y-93096000D01*
X218029000Y-93095000D01*
X218031000Y-93094000D01*
X218032000Y-93092000D01*
X218033000Y-93091000D01*
X218035000Y-93089000D01*
X218036000Y-93088000D01*
X218037000Y-93086000D01*
X218038000Y-93084000D01*
X218039000Y-93083000D01*
X218040000Y-93081000D01*
X218041000Y-93079000D01*
X218042000Y-93077000D01*
X218043000Y-93076000D01*
X218044000Y-93074000D01*
X218044000Y-93072000D01*
X218045000Y-93070000D01*
X218046000Y-93068000D01*
X218046000Y-93067000D01*
X218047000Y-93065000D01*
X218047000Y-93063000D01*
X218048000Y-93061000D01*
X218048000Y-93059000D01*
X218049000Y-93057000D01*
X218049000Y-93055000D01*
X218049000Y-93053000D01*
X218050000Y-93051000D01*
X218050000Y-93049000D01*
X218050000Y-93047000D01*
X218050000Y-93045000D01*
X218050000Y-93043000D01*
X218050000Y-92290000D01*
X218050000Y-92285000D01*
X218051000Y-92280000D01*
X218051000Y-92274000D01*
X218052000Y-92269000D01*
X218053000Y-92264000D01*
X218055000Y-92259000D01*
X218057000Y-92254000D01*
X218059000Y-92249000D01*
X218061000Y-92245000D01*
X218063000Y-92240000D01*
X218066000Y-92236000D01*
X218069000Y-92231000D01*
X218072000Y-92227000D01*
X218076000Y-92223000D01*
X218079000Y-92219000D01*
X218083000Y-92216000D01*
X218087000Y-92212000D01*
X218091000Y-92209000D01*
X218096000Y-92206000D01*
X218100000Y-92203000D01*
X218105000Y-92201000D01*
X218109000Y-92199000D01*
X218114000Y-92197000D01*
X218119000Y-92195000D01*
X218124000Y-92193000D01*
X218129000Y-92192000D01*
X218134000Y-92191000D01*
X218140000Y-92191000D01*
X218145000Y-92190000D01*
X218150000Y-92190000D01*
X218300000Y-92190000D01*
X218305000Y-92190000D01*
X218310000Y-92191000D01*
G37*
X220283000Y-92291000D02*
X220285000Y-92291000D01*
X220288000Y-92292000D01*
X220290000Y-92292000D01*
X220293000Y-92293000D01*
X220295000Y-92294000D01*
X220298000Y-92295000D01*
X220300000Y-92297000D01*
X220302000Y-92298000D01*
X220304000Y-92300000D01*
X220306000Y-92301000D01*
X220308000Y-92303000D01*
X220310000Y-92305000D01*
X220312000Y-92307000D01*
X220314000Y-92309000D01*
X220315000Y-92311000D01*
X220317000Y-92313000D01*
X220318000Y-92315000D01*
X220320000Y-92317000D01*
X220321000Y-92320000D01*
X220322000Y-92322000D01*
X220323000Y-92325000D01*
X220323000Y-92327000D01*
X220324000Y-92330000D01*
X220324000Y-92332000D01*
X220325000Y-92335000D01*
X220325000Y-92337000D01*
X220325000Y-92340000D01*
X220325000Y-92490000D01*
X220325000Y-92493000D01*
X220325000Y-92495000D01*
X220324000Y-92498000D01*
X220324000Y-92500000D01*
X220323000Y-92503000D01*
X220323000Y-92505000D01*
X220322000Y-92508000D01*
X220321000Y-92510000D01*
X220320000Y-92513000D01*
X220318000Y-92515000D01*
X220317000Y-92517000D01*
X220315000Y-92519000D01*
X220314000Y-92521000D01*
X220312000Y-92523000D01*
X220310000Y-92525000D01*
X220308000Y-92527000D01*
X220306000Y-92529000D01*
X220304000Y-92530000D01*
X220302000Y-92532000D01*
X220300000Y-92533000D01*
X220298000Y-92535000D01*
X220295000Y-92536000D01*
X220293000Y-92537000D01*
X220290000Y-92538000D01*
X220288000Y-92538000D01*
X220285000Y-92539000D01*
X220283000Y-92539000D01*
X220280000Y-92540000D01*
X220278000Y-92540000D01*
X220275000Y-92540000D01*
X219975000Y-92540000D01*
X219972000Y-92540000D01*
X219970000Y-92540000D01*
X219967000Y-92541000D01*
X219965000Y-92541000D01*
X219962000Y-92542000D01*
X219960000Y-92542000D01*
X219957000Y-92543000D01*
X219955000Y-92544000D01*
X219952000Y-92545000D01*
X219950000Y-92547000D01*
X219948000Y-92548000D01*
X219946000Y-92550000D01*
X219944000Y-92551000D01*
X219942000Y-92553000D01*
X219940000Y-92555000D01*
X219938000Y-92557000D01*
X219936000Y-92559000D01*
X219935000Y-92561000D01*
X219933000Y-92563000D01*
X219932000Y-92565000D01*
X219930000Y-92567000D01*
X219929000Y-92570000D01*
X219928000Y-92572000D01*
X219927000Y-92575000D01*
X219927000Y-92577000D01*
X219926000Y-92580000D01*
X219926000Y-92582000D01*
X219925000Y-92585000D01*
X219925000Y-92587000D01*
X219925000Y-92590000D01*
X219925000Y-92740000D01*
X219925000Y-92743000D01*
X219925000Y-92745000D01*
X219926000Y-92748000D01*
X219926000Y-92750000D01*
X219927000Y-92753000D01*
X219927000Y-92755000D01*
X219928000Y-92758000D01*
X219929000Y-92760000D01*
X219930000Y-92763000D01*
X219932000Y-92765000D01*
X219933000Y-92767000D01*
X219935000Y-92769000D01*
X219936000Y-92771000D01*
X219938000Y-92773000D01*
X219940000Y-92775000D01*
X219942000Y-92777000D01*
X219944000Y-92779000D01*
X219946000Y-92780000D01*
X219948000Y-92782000D01*
X219950000Y-92783000D01*
X219952000Y-92785000D01*
X219955000Y-92786000D01*
X219957000Y-92787000D01*
X219960000Y-92788000D01*
X219962000Y-92788000D01*
X219965000Y-92789000D01*
X219967000Y-92789000D01*
X219970000Y-92790000D01*
X219972000Y-92790000D01*
X219975000Y-92790000D01*
X220275000Y-92790000D01*
X220278000Y-92790000D01*
X220280000Y-92790000D01*
X220283000Y-92791000D01*
X220285000Y-92791000D01*
X220288000Y-92792000D01*
X220290000Y-92792000D01*
X220293000Y-92793000D01*
X220295000Y-92794000D01*
X220298000Y-92795000D01*
X220300000Y-92797000D01*
X220302000Y-92798000D01*
X220304000Y-92800000D01*
X220306000Y-92801000D01*
X220308000Y-92803000D01*
X220310000Y-92805000D01*
X220312000Y-92807000D01*
X220314000Y-92809000D01*
X220315000Y-92811000D01*
X220317000Y-92813000D01*
X220318000Y-92815000D01*
X220320000Y-92817000D01*
X220321000Y-92820000D01*
X220322000Y-92822000D01*
X220323000Y-92825000D01*
X220323000Y-92827000D01*
X220324000Y-92830000D01*
X220324000Y-92832000D01*
X220325000Y-92835000D01*
X220325000Y-92837000D01*
X220325000Y-92840000D01*
X220325000Y-92990000D01*
X220325000Y-92993000D01*
X220325000Y-92995000D01*
X220324000Y-92998000D01*
X220324000Y-93000000D01*
X220323000Y-93003000D01*
X220323000Y-93005000D01*
X220322000Y-93008000D01*
X220321000Y-93010000D01*
X220320000Y-93013000D01*
X220318000Y-93015000D01*
X220317000Y-93017000D01*
X220315000Y-93019000D01*
X220314000Y-93021000D01*
X220312000Y-93023000D01*
X220310000Y-93025000D01*
X220308000Y-93027000D01*
X220306000Y-93029000D01*
X220304000Y-93030000D01*
X220302000Y-93032000D01*
X220300000Y-93033000D01*
X220298000Y-93035000D01*
X220295000Y-93036000D01*
X220293000Y-93037000D01*
X220290000Y-93038000D01*
X220288000Y-93038000D01*
X220285000Y-93039000D01*
X220283000Y-93039000D01*
X220280000Y-93040000D01*
X220278000Y-93040000D01*
X220275000Y-93040000D01*
X219175000Y-93040000D01*
X219172000Y-93040000D01*
X219170000Y-93040000D01*
X219167000Y-93039000D01*
X219165000Y-93039000D01*
X219162000Y-93038000D01*
X219160000Y-93038000D01*
X219157000Y-93037000D01*
X219155000Y-93036000D01*
X219152000Y-93035000D01*
X219150000Y-93033000D01*
X219148000Y-93032000D01*
X219146000Y-93030000D01*
X219144000Y-93029000D01*
X219142000Y-93027000D01*
X219140000Y-93025000D01*
X219138000Y-93023000D01*
X219136000Y-93021000D01*
X219135000Y-93019000D01*
X219133000Y-93017000D01*
X219132000Y-93015000D01*
X219130000Y-93013000D01*
X219129000Y-93010000D01*
X219128000Y-93008000D01*
X219127000Y-93005000D01*
X219127000Y-93003000D01*
X219126000Y-93000000D01*
X219126000Y-92998000D01*
X219125000Y-92995000D01*
X219125000Y-92993000D01*
X219125000Y-92990000D01*
X219125000Y-92340000D01*
X219125000Y-92337000D01*
X219125000Y-92335000D01*
X219126000Y-92332000D01*
X219126000Y-92330000D01*
X219127000Y-92327000D01*
X219127000Y-92325000D01*
X219128000Y-92322000D01*
X219129000Y-92320000D01*
X219130000Y-92317000D01*
X219132000Y-92315000D01*
X219133000Y-92313000D01*
X219135000Y-92311000D01*
X219136000Y-92309000D01*
X219138000Y-92307000D01*
X219140000Y-92305000D01*
X219142000Y-92303000D01*
X219144000Y-92301000D01*
X219146000Y-92300000D01*
X219148000Y-92298000D01*
X219150000Y-92297000D01*
X219152000Y-92295000D01*
X219155000Y-92294000D01*
X219157000Y-92293000D01*
X219160000Y-92292000D01*
X219162000Y-92292000D01*
X219165000Y-92291000D01*
X219167000Y-92291000D01*
X219170000Y-92290000D01*
X219172000Y-92290000D01*
X219175000Y-92290000D01*
X220275000Y-92290000D01*
X220278000Y-92290000D01*
X220280000Y-92290000D01*
X220283000Y-92291000D01*
G36*
X220283000Y-92291000D02*
G01*
X220285000Y-92291000D01*
X220288000Y-92292000D01*
X220290000Y-92292000D01*
X220293000Y-92293000D01*
X220295000Y-92294000D01*
X220298000Y-92295000D01*
X220300000Y-92297000D01*
X220302000Y-92298000D01*
X220304000Y-92300000D01*
X220306000Y-92301000D01*
X220308000Y-92303000D01*
X220310000Y-92305000D01*
X220312000Y-92307000D01*
X220314000Y-92309000D01*
X220315000Y-92311000D01*
X220317000Y-92313000D01*
X220318000Y-92315000D01*
X220320000Y-92317000D01*
X220321000Y-92320000D01*
X220322000Y-92322000D01*
X220323000Y-92325000D01*
X220323000Y-92327000D01*
X220324000Y-92330000D01*
X220324000Y-92332000D01*
X220325000Y-92335000D01*
X220325000Y-92337000D01*
X220325000Y-92340000D01*
X220325000Y-92490000D01*
X220325000Y-92493000D01*
X220325000Y-92495000D01*
X220324000Y-92498000D01*
X220324000Y-92500000D01*
X220323000Y-92503000D01*
X220323000Y-92505000D01*
X220322000Y-92508000D01*
X220321000Y-92510000D01*
X220320000Y-92513000D01*
X220318000Y-92515000D01*
X220317000Y-92517000D01*
X220315000Y-92519000D01*
X220314000Y-92521000D01*
X220312000Y-92523000D01*
X220310000Y-92525000D01*
X220308000Y-92527000D01*
X220306000Y-92529000D01*
X220304000Y-92530000D01*
X220302000Y-92532000D01*
X220300000Y-92533000D01*
X220298000Y-92535000D01*
X220295000Y-92536000D01*
X220293000Y-92537000D01*
X220290000Y-92538000D01*
X220288000Y-92538000D01*
X220285000Y-92539000D01*
X220283000Y-92539000D01*
X220280000Y-92540000D01*
X220278000Y-92540000D01*
X220275000Y-92540000D01*
X219975000Y-92540000D01*
X219972000Y-92540000D01*
X219970000Y-92540000D01*
X219967000Y-92541000D01*
X219965000Y-92541000D01*
X219962000Y-92542000D01*
X219960000Y-92542000D01*
X219957000Y-92543000D01*
X219955000Y-92544000D01*
X219952000Y-92545000D01*
X219950000Y-92547000D01*
X219948000Y-92548000D01*
X219946000Y-92550000D01*
X219944000Y-92551000D01*
X219942000Y-92553000D01*
X219940000Y-92555000D01*
X219938000Y-92557000D01*
X219936000Y-92559000D01*
X219935000Y-92561000D01*
X219933000Y-92563000D01*
X219932000Y-92565000D01*
X219930000Y-92567000D01*
X219929000Y-92570000D01*
X219928000Y-92572000D01*
X219927000Y-92575000D01*
X219927000Y-92577000D01*
X219926000Y-92580000D01*
X219926000Y-92582000D01*
X219925000Y-92585000D01*
X219925000Y-92587000D01*
X219925000Y-92590000D01*
X219925000Y-92740000D01*
X219925000Y-92743000D01*
X219925000Y-92745000D01*
X219926000Y-92748000D01*
X219926000Y-92750000D01*
X219927000Y-92753000D01*
X219927000Y-92755000D01*
X219928000Y-92758000D01*
X219929000Y-92760000D01*
X219930000Y-92763000D01*
X219932000Y-92765000D01*
X219933000Y-92767000D01*
X219935000Y-92769000D01*
X219936000Y-92771000D01*
X219938000Y-92773000D01*
X219940000Y-92775000D01*
X219942000Y-92777000D01*
X219944000Y-92779000D01*
X219946000Y-92780000D01*
X219948000Y-92782000D01*
X219950000Y-92783000D01*
X219952000Y-92785000D01*
X219955000Y-92786000D01*
X219957000Y-92787000D01*
X219960000Y-92788000D01*
X219962000Y-92788000D01*
X219965000Y-92789000D01*
X219967000Y-92789000D01*
X219970000Y-92790000D01*
X219972000Y-92790000D01*
X219975000Y-92790000D01*
X220275000Y-92790000D01*
X220278000Y-92790000D01*
X220280000Y-92790000D01*
X220283000Y-92791000D01*
X220285000Y-92791000D01*
X220288000Y-92792000D01*
X220290000Y-92792000D01*
X220293000Y-92793000D01*
X220295000Y-92794000D01*
X220298000Y-92795000D01*
X220300000Y-92797000D01*
X220302000Y-92798000D01*
X220304000Y-92800000D01*
X220306000Y-92801000D01*
X220308000Y-92803000D01*
X220310000Y-92805000D01*
X220312000Y-92807000D01*
X220314000Y-92809000D01*
X220315000Y-92811000D01*
X220317000Y-92813000D01*
X220318000Y-92815000D01*
X220320000Y-92817000D01*
X220321000Y-92820000D01*
X220322000Y-92822000D01*
X220323000Y-92825000D01*
X220323000Y-92827000D01*
X220324000Y-92830000D01*
X220324000Y-92832000D01*
X220325000Y-92835000D01*
X220325000Y-92837000D01*
X220325000Y-92840000D01*
X220325000Y-92990000D01*
X220325000Y-92993000D01*
X220325000Y-92995000D01*
X220324000Y-92998000D01*
X220324000Y-93000000D01*
X220323000Y-93003000D01*
X220323000Y-93005000D01*
X220322000Y-93008000D01*
X220321000Y-93010000D01*
X220320000Y-93013000D01*
X220318000Y-93015000D01*
X220317000Y-93017000D01*
X220315000Y-93019000D01*
X220314000Y-93021000D01*
X220312000Y-93023000D01*
X220310000Y-93025000D01*
X220308000Y-93027000D01*
X220306000Y-93029000D01*
X220304000Y-93030000D01*
X220302000Y-93032000D01*
X220300000Y-93033000D01*
X220298000Y-93035000D01*
X220295000Y-93036000D01*
X220293000Y-93037000D01*
X220290000Y-93038000D01*
X220288000Y-93038000D01*
X220285000Y-93039000D01*
X220283000Y-93039000D01*
X220280000Y-93040000D01*
X220278000Y-93040000D01*
X220275000Y-93040000D01*
X219175000Y-93040000D01*
X219172000Y-93040000D01*
X219170000Y-93040000D01*
X219167000Y-93039000D01*
X219165000Y-93039000D01*
X219162000Y-93038000D01*
X219160000Y-93038000D01*
X219157000Y-93037000D01*
X219155000Y-93036000D01*
X219152000Y-93035000D01*
X219150000Y-93033000D01*
X219148000Y-93032000D01*
X219146000Y-93030000D01*
X219144000Y-93029000D01*
X219142000Y-93027000D01*
X219140000Y-93025000D01*
X219138000Y-93023000D01*
X219136000Y-93021000D01*
X219135000Y-93019000D01*
X219133000Y-93017000D01*
X219132000Y-93015000D01*
X219130000Y-93013000D01*
X219129000Y-93010000D01*
X219128000Y-93008000D01*
X219127000Y-93005000D01*
X219127000Y-93003000D01*
X219126000Y-93000000D01*
X219126000Y-92998000D01*
X219125000Y-92995000D01*
X219125000Y-92993000D01*
X219125000Y-92990000D01*
X219125000Y-92340000D01*
X219125000Y-92337000D01*
X219125000Y-92335000D01*
X219126000Y-92332000D01*
X219126000Y-92330000D01*
X219127000Y-92327000D01*
X219127000Y-92325000D01*
X219128000Y-92322000D01*
X219129000Y-92320000D01*
X219130000Y-92317000D01*
X219132000Y-92315000D01*
X219133000Y-92313000D01*
X219135000Y-92311000D01*
X219136000Y-92309000D01*
X219138000Y-92307000D01*
X219140000Y-92305000D01*
X219142000Y-92303000D01*
X219144000Y-92301000D01*
X219146000Y-92300000D01*
X219148000Y-92298000D01*
X219150000Y-92297000D01*
X219152000Y-92295000D01*
X219155000Y-92294000D01*
X219157000Y-92293000D01*
X219160000Y-92292000D01*
X219162000Y-92292000D01*
X219165000Y-92291000D01*
X219167000Y-92291000D01*
X219170000Y-92290000D01*
X219172000Y-92290000D01*
X219175000Y-92290000D01*
X220275000Y-92290000D01*
X220278000Y-92290000D01*
X220280000Y-92290000D01*
X220283000Y-92291000D01*
G37*
X217983000Y-94016000D02*
X217985000Y-94016000D01*
X217988000Y-94017000D01*
X217990000Y-94017000D01*
X217993000Y-94018000D01*
X217995000Y-94019000D01*
X217998000Y-94020000D01*
X218000000Y-94022000D01*
X218002000Y-94023000D01*
X218004000Y-94025000D01*
X218006000Y-94026000D01*
X218008000Y-94028000D01*
X218010000Y-94030000D01*
X218012000Y-94032000D01*
X218014000Y-94034000D01*
X218015000Y-94036000D01*
X218017000Y-94038000D01*
X218018000Y-94040000D01*
X218020000Y-94042000D01*
X218021000Y-94045000D01*
X218022000Y-94047000D01*
X218023000Y-94050000D01*
X218023000Y-94052000D01*
X218024000Y-94055000D01*
X218024000Y-94057000D01*
X218025000Y-94060000D01*
X218025000Y-94062000D01*
X218025000Y-94065000D01*
X218025000Y-95890000D01*
X218025000Y-95893000D01*
X218025000Y-95895000D01*
X218024000Y-95898000D01*
X218024000Y-95900000D01*
X218023000Y-95903000D01*
X218023000Y-95905000D01*
X218022000Y-95908000D01*
X218021000Y-95910000D01*
X218020000Y-95913000D01*
X218018000Y-95915000D01*
X218017000Y-95917000D01*
X218015000Y-95919000D01*
X218014000Y-95921000D01*
X218012000Y-95923000D01*
X218010000Y-95925000D01*
X218008000Y-95927000D01*
X218006000Y-95929000D01*
X218004000Y-95930000D01*
X218002000Y-95932000D01*
X218000000Y-95933000D01*
X217998000Y-95935000D01*
X217995000Y-95936000D01*
X217993000Y-95937000D01*
X217990000Y-95938000D01*
X217988000Y-95938000D01*
X217985000Y-95939000D01*
X217983000Y-95939000D01*
X217980000Y-95940000D01*
X217978000Y-95940000D01*
X217975000Y-95940000D01*
X217075000Y-95940000D01*
X217072000Y-95940000D01*
X217070000Y-95940000D01*
X217067000Y-95939000D01*
X217065000Y-95939000D01*
X217062000Y-95938000D01*
X217060000Y-95938000D01*
X217057000Y-95937000D01*
X217055000Y-95936000D01*
X217052000Y-95935000D01*
X217050000Y-95933000D01*
X217048000Y-95932000D01*
X217046000Y-95930000D01*
X217044000Y-95929000D01*
X217042000Y-95927000D01*
X217040000Y-95925000D01*
X217038000Y-95923000D01*
X217036000Y-95921000D01*
X217035000Y-95919000D01*
X217033000Y-95917000D01*
X217032000Y-95915000D01*
X217030000Y-95913000D01*
X217029000Y-95910000D01*
X217028000Y-95908000D01*
X217027000Y-95905000D01*
X217027000Y-95903000D01*
X217026000Y-95900000D01*
X217026000Y-95898000D01*
X217025000Y-95895000D01*
X217025000Y-95893000D01*
X217025000Y-95890000D01*
X217025000Y-95730000D01*
X217025000Y-95727000D01*
X217025000Y-95725000D01*
X217024000Y-95722000D01*
X217024000Y-95720000D01*
X217023000Y-95717000D01*
X217023000Y-95715000D01*
X217022000Y-95712000D01*
X217021000Y-95710000D01*
X217020000Y-95707000D01*
X217018000Y-95705000D01*
X217017000Y-95703000D01*
X217015000Y-95701000D01*
X217014000Y-95699000D01*
X217012000Y-95697000D01*
X217010000Y-95695000D01*
X217008000Y-95693000D01*
X217006000Y-95691000D01*
X217004000Y-95690000D01*
X217002000Y-95688000D01*
X217000000Y-95687000D01*
X216998000Y-95685000D01*
X216995000Y-95684000D01*
X216993000Y-95683000D01*
X216990000Y-95682000D01*
X216988000Y-95682000D01*
X216985000Y-95681000D01*
X216983000Y-95681000D01*
X216980000Y-95680000D01*
X216978000Y-95680000D01*
X216975000Y-95680000D01*
X216675000Y-95680000D01*
X216672000Y-95680000D01*
X216670000Y-95680000D01*
X216667000Y-95679000D01*
X216665000Y-95679000D01*
X216662000Y-95678000D01*
X216660000Y-95678000D01*
X216657000Y-95677000D01*
X216655000Y-95676000D01*
X216652000Y-95675000D01*
X216650000Y-95673000D01*
X216648000Y-95672000D01*
X216646000Y-95670000D01*
X216644000Y-95669000D01*
X216642000Y-95667000D01*
X216640000Y-95665000D01*
X216638000Y-95663000D01*
X216636000Y-95661000D01*
X216635000Y-95659000D01*
X216633000Y-95657000D01*
X216632000Y-95655000D01*
X216630000Y-95653000D01*
X216629000Y-95650000D01*
X216628000Y-95648000D01*
X216627000Y-95645000D01*
X216627000Y-95643000D01*
X216626000Y-95640000D01*
X216626000Y-95638000D01*
X216625000Y-95635000D01*
X216625000Y-95633000D01*
X216625000Y-95630000D01*
X216625000Y-95480000D01*
X216625000Y-95477000D01*
X216625000Y-95475000D01*
X216626000Y-95472000D01*
X216626000Y-95470000D01*
X216627000Y-95467000D01*
X216627000Y-95465000D01*
X216628000Y-95462000D01*
X216629000Y-95460000D01*
X216630000Y-95457000D01*
X216632000Y-95455000D01*
X216633000Y-95453000D01*
X216635000Y-95451000D01*
X216636000Y-95449000D01*
X216638000Y-95447000D01*
X216640000Y-95445000D01*
X216642000Y-95443000D01*
X216644000Y-95441000D01*
X216646000Y-95440000D01*
X216648000Y-95438000D01*
X216650000Y-95437000D01*
X216652000Y-95435000D01*
X216655000Y-95434000D01*
X216657000Y-95433000D01*
X216660000Y-95432000D01*
X216662000Y-95432000D01*
X216665000Y-95431000D01*
X216667000Y-95431000D01*
X216670000Y-95430000D01*
X216672000Y-95430000D01*
X216675000Y-95430000D01*
X216975000Y-95430000D01*
X216978000Y-95430000D01*
X216980000Y-95430000D01*
X216983000Y-95429000D01*
X216985000Y-95429000D01*
X216988000Y-95428000D01*
X216990000Y-95428000D01*
X216993000Y-95427000D01*
X216995000Y-95426000D01*
X216998000Y-95425000D01*
X217000000Y-95423000D01*
X217002000Y-95422000D01*
X217004000Y-95420000D01*
X217006000Y-95419000D01*
X217008000Y-95417000D01*
X217010000Y-95415000D01*
X217012000Y-95413000D01*
X217014000Y-95411000D01*
X217015000Y-95409000D01*
X217017000Y-95407000D01*
X217018000Y-95405000D01*
X217020000Y-95403000D01*
X217021000Y-95400000D01*
X217022000Y-95398000D01*
X217023000Y-95395000D01*
X217023000Y-95393000D01*
X217024000Y-95390000D01*
X217024000Y-95388000D01*
X217025000Y-95385000D01*
X217025000Y-95383000D01*
X217025000Y-95380000D01*
X217025000Y-95230000D01*
X217025000Y-95227000D01*
X217025000Y-95225000D01*
X217024000Y-95222000D01*
X217024000Y-95220000D01*
X217023000Y-95217000D01*
X217023000Y-95215000D01*
X217022000Y-95212000D01*
X217021000Y-95210000D01*
X217020000Y-95207000D01*
X217018000Y-95205000D01*
X217017000Y-95203000D01*
X217015000Y-95201000D01*
X217014000Y-95199000D01*
X217012000Y-95197000D01*
X217010000Y-95195000D01*
X217008000Y-95193000D01*
X217006000Y-95191000D01*
X217004000Y-95190000D01*
X217002000Y-95188000D01*
X217000000Y-95187000D01*
X216998000Y-95185000D01*
X216995000Y-95184000D01*
X216993000Y-95183000D01*
X216990000Y-95182000D01*
X216988000Y-95182000D01*
X216985000Y-95181000D01*
X216983000Y-95181000D01*
X216980000Y-95180000D01*
X216978000Y-95180000D01*
X216975000Y-95180000D01*
X216675000Y-95180000D01*
X216672000Y-95180000D01*
X216670000Y-95180000D01*
X216667000Y-95179000D01*
X216665000Y-95179000D01*
X216662000Y-95178000D01*
X216660000Y-95178000D01*
X216657000Y-95177000D01*
X216655000Y-95176000D01*
X216652000Y-95175000D01*
X216650000Y-95173000D01*
X216648000Y-95172000D01*
X216646000Y-95170000D01*
X216644000Y-95169000D01*
X216642000Y-95167000D01*
X216640000Y-95165000D01*
X216638000Y-95163000D01*
X216636000Y-95161000D01*
X216635000Y-95159000D01*
X216633000Y-95157000D01*
X216632000Y-95155000D01*
X216630000Y-95153000D01*
X216629000Y-95150000D01*
X216628000Y-95148000D01*
X216627000Y-95145000D01*
X216627000Y-95143000D01*
X216626000Y-95140000D01*
X216626000Y-95138000D01*
X216625000Y-95135000D01*
X216625000Y-95133000D01*
X216625000Y-95130000D01*
X216625000Y-94980000D01*
X216625000Y-94977000D01*
X216625000Y-94975000D01*
X216626000Y-94972000D01*
X216626000Y-94970000D01*
X216627000Y-94967000D01*
X216627000Y-94965000D01*
X216628000Y-94962000D01*
X216629000Y-94960000D01*
X216630000Y-94957000D01*
X216632000Y-94955000D01*
X216633000Y-94953000D01*
X216635000Y-94951000D01*
X216636000Y-94949000D01*
X216638000Y-94947000D01*
X216640000Y-94945000D01*
X216642000Y-94943000D01*
X216644000Y-94941000D01*
X216646000Y-94940000D01*
X216648000Y-94938000D01*
X216650000Y-94937000D01*
X216652000Y-94935000D01*
X216655000Y-94934000D01*
X216657000Y-94933000D01*
X216660000Y-94932000D01*
X216662000Y-94932000D01*
X216665000Y-94931000D01*
X216667000Y-94931000D01*
X216670000Y-94930000D01*
X216672000Y-94930000D01*
X216675000Y-94930000D01*
X216975000Y-94930000D01*
X216978000Y-94930000D01*
X216980000Y-94930000D01*
X216983000Y-94929000D01*
X216985000Y-94929000D01*
X216988000Y-94928000D01*
X216990000Y-94928000D01*
X216993000Y-94927000D01*
X216995000Y-94926000D01*
X216998000Y-94925000D01*
X217000000Y-94923000D01*
X217002000Y-94922000D01*
X217004000Y-94920000D01*
X217006000Y-94919000D01*
X217008000Y-94917000D01*
X217010000Y-94915000D01*
X217012000Y-94913000D01*
X217014000Y-94911000D01*
X217015000Y-94909000D01*
X217017000Y-94907000D01*
X217018000Y-94905000D01*
X217020000Y-94903000D01*
X217021000Y-94900000D01*
X217022000Y-94898000D01*
X217023000Y-94895000D01*
X217023000Y-94893000D01*
X217024000Y-94890000D01*
X217024000Y-94888000D01*
X217025000Y-94885000D01*
X217025000Y-94883000D01*
X217025000Y-94880000D01*
X217025000Y-94730000D01*
X217025000Y-94727000D01*
X217025000Y-94725000D01*
X217024000Y-94722000D01*
X217024000Y-94720000D01*
X217023000Y-94717000D01*
X217023000Y-94715000D01*
X217022000Y-94712000D01*
X217021000Y-94710000D01*
X217020000Y-94707000D01*
X217018000Y-94705000D01*
X217017000Y-94703000D01*
X217015000Y-94701000D01*
X217014000Y-94699000D01*
X217012000Y-94697000D01*
X217010000Y-94695000D01*
X217008000Y-94693000D01*
X217006000Y-94691000D01*
X217004000Y-94690000D01*
X217002000Y-94688000D01*
X217000000Y-94687000D01*
X216998000Y-94685000D01*
X216995000Y-94684000D01*
X216993000Y-94683000D01*
X216990000Y-94682000D01*
X216988000Y-94682000D01*
X216985000Y-94681000D01*
X216983000Y-94681000D01*
X216980000Y-94680000D01*
X216978000Y-94680000D01*
X216975000Y-94680000D01*
X216675000Y-94680000D01*
X216672000Y-94680000D01*
X216670000Y-94680000D01*
X216667000Y-94679000D01*
X216665000Y-94679000D01*
X216662000Y-94678000D01*
X216660000Y-94678000D01*
X216657000Y-94677000D01*
X216655000Y-94676000D01*
X216652000Y-94675000D01*
X216650000Y-94673000D01*
X216648000Y-94672000D01*
X216646000Y-94670000D01*
X216644000Y-94669000D01*
X216642000Y-94667000D01*
X216640000Y-94665000D01*
X216638000Y-94663000D01*
X216636000Y-94661000D01*
X216635000Y-94659000D01*
X216633000Y-94657000D01*
X216632000Y-94655000D01*
X216630000Y-94653000D01*
X216629000Y-94650000D01*
X216628000Y-94648000D01*
X216627000Y-94645000D01*
X216627000Y-94643000D01*
X216626000Y-94640000D01*
X216626000Y-94638000D01*
X216625000Y-94635000D01*
X216625000Y-94633000D01*
X216625000Y-94630000D01*
X216625000Y-94480000D01*
X216625000Y-94477000D01*
X216625000Y-94475000D01*
X216626000Y-94472000D01*
X216626000Y-94470000D01*
X216627000Y-94467000D01*
X216627000Y-94465000D01*
X216628000Y-94462000D01*
X216629000Y-94460000D01*
X216630000Y-94457000D01*
X216632000Y-94455000D01*
X216633000Y-94453000D01*
X216635000Y-94451000D01*
X216636000Y-94449000D01*
X216638000Y-94447000D01*
X216640000Y-94445000D01*
X216642000Y-94443000D01*
X216644000Y-94441000D01*
X216646000Y-94440000D01*
X216648000Y-94438000D01*
X216650000Y-94437000D01*
X216652000Y-94435000D01*
X216655000Y-94434000D01*
X216657000Y-94433000D01*
X216660000Y-94432000D01*
X216662000Y-94432000D01*
X216665000Y-94431000D01*
X216667000Y-94431000D01*
X216670000Y-94430000D01*
X216672000Y-94430000D01*
X216675000Y-94430000D01*
X216975000Y-94430000D01*
X216978000Y-94430000D01*
X216980000Y-94430000D01*
X216983000Y-94429000D01*
X216985000Y-94429000D01*
X216988000Y-94428000D01*
X216990000Y-94428000D01*
X216993000Y-94427000D01*
X216995000Y-94426000D01*
X216998000Y-94425000D01*
X217000000Y-94423000D01*
X217002000Y-94422000D01*
X217004000Y-94420000D01*
X217006000Y-94419000D01*
X217008000Y-94417000D01*
X217010000Y-94415000D01*
X217012000Y-94413000D01*
X217014000Y-94411000D01*
X217015000Y-94409000D01*
X217017000Y-94407000D01*
X217018000Y-94405000D01*
X217020000Y-94403000D01*
X217021000Y-94400000D01*
X217022000Y-94398000D01*
X217023000Y-94395000D01*
X217023000Y-94393000D01*
X217024000Y-94390000D01*
X217024000Y-94388000D01*
X217025000Y-94385000D01*
X217025000Y-94383000D01*
X217025000Y-94380000D01*
X217025000Y-94065000D01*
X217025000Y-94062000D01*
X217025000Y-94060000D01*
X217026000Y-94057000D01*
X217026000Y-94055000D01*
X217027000Y-94052000D01*
X217027000Y-94050000D01*
X217028000Y-94047000D01*
X217029000Y-94045000D01*
X217030000Y-94042000D01*
X217032000Y-94040000D01*
X217033000Y-94038000D01*
X217035000Y-94036000D01*
X217036000Y-94034000D01*
X217038000Y-94032000D01*
X217040000Y-94030000D01*
X217042000Y-94028000D01*
X217044000Y-94026000D01*
X217046000Y-94025000D01*
X217048000Y-94023000D01*
X217050000Y-94022000D01*
X217052000Y-94020000D01*
X217055000Y-94019000D01*
X217057000Y-94018000D01*
X217060000Y-94017000D01*
X217062000Y-94017000D01*
X217065000Y-94016000D01*
X217067000Y-94016000D01*
X217070000Y-94015000D01*
X217072000Y-94015000D01*
X217075000Y-94015000D01*
X217975000Y-94015000D01*
X217978000Y-94015000D01*
X217980000Y-94015000D01*
X217983000Y-94016000D01*
G36*
X217983000Y-94016000D02*
G01*
X217985000Y-94016000D01*
X217988000Y-94017000D01*
X217990000Y-94017000D01*
X217993000Y-94018000D01*
X217995000Y-94019000D01*
X217998000Y-94020000D01*
X218000000Y-94022000D01*
X218002000Y-94023000D01*
X218004000Y-94025000D01*
X218006000Y-94026000D01*
X218008000Y-94028000D01*
X218010000Y-94030000D01*
X218012000Y-94032000D01*
X218014000Y-94034000D01*
X218015000Y-94036000D01*
X218017000Y-94038000D01*
X218018000Y-94040000D01*
X218020000Y-94042000D01*
X218021000Y-94045000D01*
X218022000Y-94047000D01*
X218023000Y-94050000D01*
X218023000Y-94052000D01*
X218024000Y-94055000D01*
X218024000Y-94057000D01*
X218025000Y-94060000D01*
X218025000Y-94062000D01*
X218025000Y-94065000D01*
X218025000Y-95890000D01*
X218025000Y-95893000D01*
X218025000Y-95895000D01*
X218024000Y-95898000D01*
X218024000Y-95900000D01*
X218023000Y-95903000D01*
X218023000Y-95905000D01*
X218022000Y-95908000D01*
X218021000Y-95910000D01*
X218020000Y-95913000D01*
X218018000Y-95915000D01*
X218017000Y-95917000D01*
X218015000Y-95919000D01*
X218014000Y-95921000D01*
X218012000Y-95923000D01*
X218010000Y-95925000D01*
X218008000Y-95927000D01*
X218006000Y-95929000D01*
X218004000Y-95930000D01*
X218002000Y-95932000D01*
X218000000Y-95933000D01*
X217998000Y-95935000D01*
X217995000Y-95936000D01*
X217993000Y-95937000D01*
X217990000Y-95938000D01*
X217988000Y-95938000D01*
X217985000Y-95939000D01*
X217983000Y-95939000D01*
X217980000Y-95940000D01*
X217978000Y-95940000D01*
X217975000Y-95940000D01*
X217075000Y-95940000D01*
X217072000Y-95940000D01*
X217070000Y-95940000D01*
X217067000Y-95939000D01*
X217065000Y-95939000D01*
X217062000Y-95938000D01*
X217060000Y-95938000D01*
X217057000Y-95937000D01*
X217055000Y-95936000D01*
X217052000Y-95935000D01*
X217050000Y-95933000D01*
X217048000Y-95932000D01*
X217046000Y-95930000D01*
X217044000Y-95929000D01*
X217042000Y-95927000D01*
X217040000Y-95925000D01*
X217038000Y-95923000D01*
X217036000Y-95921000D01*
X217035000Y-95919000D01*
X217033000Y-95917000D01*
X217032000Y-95915000D01*
X217030000Y-95913000D01*
X217029000Y-95910000D01*
X217028000Y-95908000D01*
X217027000Y-95905000D01*
X217027000Y-95903000D01*
X217026000Y-95900000D01*
X217026000Y-95898000D01*
X217025000Y-95895000D01*
X217025000Y-95893000D01*
X217025000Y-95890000D01*
X217025000Y-95730000D01*
X217025000Y-95727000D01*
X217025000Y-95725000D01*
X217024000Y-95722000D01*
X217024000Y-95720000D01*
X217023000Y-95717000D01*
X217023000Y-95715000D01*
X217022000Y-95712000D01*
X217021000Y-95710000D01*
X217020000Y-95707000D01*
X217018000Y-95705000D01*
X217017000Y-95703000D01*
X217015000Y-95701000D01*
X217014000Y-95699000D01*
X217012000Y-95697000D01*
X217010000Y-95695000D01*
X217008000Y-95693000D01*
X217006000Y-95691000D01*
X217004000Y-95690000D01*
X217002000Y-95688000D01*
X217000000Y-95687000D01*
X216998000Y-95685000D01*
X216995000Y-95684000D01*
X216993000Y-95683000D01*
X216990000Y-95682000D01*
X216988000Y-95682000D01*
X216985000Y-95681000D01*
X216983000Y-95681000D01*
X216980000Y-95680000D01*
X216978000Y-95680000D01*
X216975000Y-95680000D01*
X216675000Y-95680000D01*
X216672000Y-95680000D01*
X216670000Y-95680000D01*
X216667000Y-95679000D01*
X216665000Y-95679000D01*
X216662000Y-95678000D01*
X216660000Y-95678000D01*
X216657000Y-95677000D01*
X216655000Y-95676000D01*
X216652000Y-95675000D01*
X216650000Y-95673000D01*
X216648000Y-95672000D01*
X216646000Y-95670000D01*
X216644000Y-95669000D01*
X216642000Y-95667000D01*
X216640000Y-95665000D01*
X216638000Y-95663000D01*
X216636000Y-95661000D01*
X216635000Y-95659000D01*
X216633000Y-95657000D01*
X216632000Y-95655000D01*
X216630000Y-95653000D01*
X216629000Y-95650000D01*
X216628000Y-95648000D01*
X216627000Y-95645000D01*
X216627000Y-95643000D01*
X216626000Y-95640000D01*
X216626000Y-95638000D01*
X216625000Y-95635000D01*
X216625000Y-95633000D01*
X216625000Y-95630000D01*
X216625000Y-95480000D01*
X216625000Y-95477000D01*
X216625000Y-95475000D01*
X216626000Y-95472000D01*
X216626000Y-95470000D01*
X216627000Y-95467000D01*
X216627000Y-95465000D01*
X216628000Y-95462000D01*
X216629000Y-95460000D01*
X216630000Y-95457000D01*
X216632000Y-95455000D01*
X216633000Y-95453000D01*
X216635000Y-95451000D01*
X216636000Y-95449000D01*
X216638000Y-95447000D01*
X216640000Y-95445000D01*
X216642000Y-95443000D01*
X216644000Y-95441000D01*
X216646000Y-95440000D01*
X216648000Y-95438000D01*
X216650000Y-95437000D01*
X216652000Y-95435000D01*
X216655000Y-95434000D01*
X216657000Y-95433000D01*
X216660000Y-95432000D01*
X216662000Y-95432000D01*
X216665000Y-95431000D01*
X216667000Y-95431000D01*
X216670000Y-95430000D01*
X216672000Y-95430000D01*
X216675000Y-95430000D01*
X216975000Y-95430000D01*
X216978000Y-95430000D01*
X216980000Y-95430000D01*
X216983000Y-95429000D01*
X216985000Y-95429000D01*
X216988000Y-95428000D01*
X216990000Y-95428000D01*
X216993000Y-95427000D01*
X216995000Y-95426000D01*
X216998000Y-95425000D01*
X217000000Y-95423000D01*
X217002000Y-95422000D01*
X217004000Y-95420000D01*
X217006000Y-95419000D01*
X217008000Y-95417000D01*
X217010000Y-95415000D01*
X217012000Y-95413000D01*
X217014000Y-95411000D01*
X217015000Y-95409000D01*
X217017000Y-95407000D01*
X217018000Y-95405000D01*
X217020000Y-95403000D01*
X217021000Y-95400000D01*
X217022000Y-95398000D01*
X217023000Y-95395000D01*
X217023000Y-95393000D01*
X217024000Y-95390000D01*
X217024000Y-95388000D01*
X217025000Y-95385000D01*
X217025000Y-95383000D01*
X217025000Y-95380000D01*
X217025000Y-95230000D01*
X217025000Y-95227000D01*
X217025000Y-95225000D01*
X217024000Y-95222000D01*
X217024000Y-95220000D01*
X217023000Y-95217000D01*
X217023000Y-95215000D01*
X217022000Y-95212000D01*
X217021000Y-95210000D01*
X217020000Y-95207000D01*
X217018000Y-95205000D01*
X217017000Y-95203000D01*
X217015000Y-95201000D01*
X217014000Y-95199000D01*
X217012000Y-95197000D01*
X217010000Y-95195000D01*
X217008000Y-95193000D01*
X217006000Y-95191000D01*
X217004000Y-95190000D01*
X217002000Y-95188000D01*
X217000000Y-95187000D01*
X216998000Y-95185000D01*
X216995000Y-95184000D01*
X216993000Y-95183000D01*
X216990000Y-95182000D01*
X216988000Y-95182000D01*
X216985000Y-95181000D01*
X216983000Y-95181000D01*
X216980000Y-95180000D01*
X216978000Y-95180000D01*
X216975000Y-95180000D01*
X216675000Y-95180000D01*
X216672000Y-95180000D01*
X216670000Y-95180000D01*
X216667000Y-95179000D01*
X216665000Y-95179000D01*
X216662000Y-95178000D01*
X216660000Y-95178000D01*
X216657000Y-95177000D01*
X216655000Y-95176000D01*
X216652000Y-95175000D01*
X216650000Y-95173000D01*
X216648000Y-95172000D01*
X216646000Y-95170000D01*
X216644000Y-95169000D01*
X216642000Y-95167000D01*
X216640000Y-95165000D01*
X216638000Y-95163000D01*
X216636000Y-95161000D01*
X216635000Y-95159000D01*
X216633000Y-95157000D01*
X216632000Y-95155000D01*
X216630000Y-95153000D01*
X216629000Y-95150000D01*
X216628000Y-95148000D01*
X216627000Y-95145000D01*
X216627000Y-95143000D01*
X216626000Y-95140000D01*
X216626000Y-95138000D01*
X216625000Y-95135000D01*
X216625000Y-95133000D01*
X216625000Y-95130000D01*
X216625000Y-94980000D01*
X216625000Y-94977000D01*
X216625000Y-94975000D01*
X216626000Y-94972000D01*
X216626000Y-94970000D01*
X216627000Y-94967000D01*
X216627000Y-94965000D01*
X216628000Y-94962000D01*
X216629000Y-94960000D01*
X216630000Y-94957000D01*
X216632000Y-94955000D01*
X216633000Y-94953000D01*
X216635000Y-94951000D01*
X216636000Y-94949000D01*
X216638000Y-94947000D01*
X216640000Y-94945000D01*
X216642000Y-94943000D01*
X216644000Y-94941000D01*
X216646000Y-94940000D01*
X216648000Y-94938000D01*
X216650000Y-94937000D01*
X216652000Y-94935000D01*
X216655000Y-94934000D01*
X216657000Y-94933000D01*
X216660000Y-94932000D01*
X216662000Y-94932000D01*
X216665000Y-94931000D01*
X216667000Y-94931000D01*
X216670000Y-94930000D01*
X216672000Y-94930000D01*
X216675000Y-94930000D01*
X216975000Y-94930000D01*
X216978000Y-94930000D01*
X216980000Y-94930000D01*
X216983000Y-94929000D01*
X216985000Y-94929000D01*
X216988000Y-94928000D01*
X216990000Y-94928000D01*
X216993000Y-94927000D01*
X216995000Y-94926000D01*
X216998000Y-94925000D01*
X217000000Y-94923000D01*
X217002000Y-94922000D01*
X217004000Y-94920000D01*
X217006000Y-94919000D01*
X217008000Y-94917000D01*
X217010000Y-94915000D01*
X217012000Y-94913000D01*
X217014000Y-94911000D01*
X217015000Y-94909000D01*
X217017000Y-94907000D01*
X217018000Y-94905000D01*
X217020000Y-94903000D01*
X217021000Y-94900000D01*
X217022000Y-94898000D01*
X217023000Y-94895000D01*
X217023000Y-94893000D01*
X217024000Y-94890000D01*
X217024000Y-94888000D01*
X217025000Y-94885000D01*
X217025000Y-94883000D01*
X217025000Y-94880000D01*
X217025000Y-94730000D01*
X217025000Y-94727000D01*
X217025000Y-94725000D01*
X217024000Y-94722000D01*
X217024000Y-94720000D01*
X217023000Y-94717000D01*
X217023000Y-94715000D01*
X217022000Y-94712000D01*
X217021000Y-94710000D01*
X217020000Y-94707000D01*
X217018000Y-94705000D01*
X217017000Y-94703000D01*
X217015000Y-94701000D01*
X217014000Y-94699000D01*
X217012000Y-94697000D01*
X217010000Y-94695000D01*
X217008000Y-94693000D01*
X217006000Y-94691000D01*
X217004000Y-94690000D01*
X217002000Y-94688000D01*
X217000000Y-94687000D01*
X216998000Y-94685000D01*
X216995000Y-94684000D01*
X216993000Y-94683000D01*
X216990000Y-94682000D01*
X216988000Y-94682000D01*
X216985000Y-94681000D01*
X216983000Y-94681000D01*
X216980000Y-94680000D01*
X216978000Y-94680000D01*
X216975000Y-94680000D01*
X216675000Y-94680000D01*
X216672000Y-94680000D01*
X216670000Y-94680000D01*
X216667000Y-94679000D01*
X216665000Y-94679000D01*
X216662000Y-94678000D01*
X216660000Y-94678000D01*
X216657000Y-94677000D01*
X216655000Y-94676000D01*
X216652000Y-94675000D01*
X216650000Y-94673000D01*
X216648000Y-94672000D01*
X216646000Y-94670000D01*
X216644000Y-94669000D01*
X216642000Y-94667000D01*
X216640000Y-94665000D01*
X216638000Y-94663000D01*
X216636000Y-94661000D01*
X216635000Y-94659000D01*
X216633000Y-94657000D01*
X216632000Y-94655000D01*
X216630000Y-94653000D01*
X216629000Y-94650000D01*
X216628000Y-94648000D01*
X216627000Y-94645000D01*
X216627000Y-94643000D01*
X216626000Y-94640000D01*
X216626000Y-94638000D01*
X216625000Y-94635000D01*
X216625000Y-94633000D01*
X216625000Y-94630000D01*
X216625000Y-94480000D01*
X216625000Y-94477000D01*
X216625000Y-94475000D01*
X216626000Y-94472000D01*
X216626000Y-94470000D01*
X216627000Y-94467000D01*
X216627000Y-94465000D01*
X216628000Y-94462000D01*
X216629000Y-94460000D01*
X216630000Y-94457000D01*
X216632000Y-94455000D01*
X216633000Y-94453000D01*
X216635000Y-94451000D01*
X216636000Y-94449000D01*
X216638000Y-94447000D01*
X216640000Y-94445000D01*
X216642000Y-94443000D01*
X216644000Y-94441000D01*
X216646000Y-94440000D01*
X216648000Y-94438000D01*
X216650000Y-94437000D01*
X216652000Y-94435000D01*
X216655000Y-94434000D01*
X216657000Y-94433000D01*
X216660000Y-94432000D01*
X216662000Y-94432000D01*
X216665000Y-94431000D01*
X216667000Y-94431000D01*
X216670000Y-94430000D01*
X216672000Y-94430000D01*
X216675000Y-94430000D01*
X216975000Y-94430000D01*
X216978000Y-94430000D01*
X216980000Y-94430000D01*
X216983000Y-94429000D01*
X216985000Y-94429000D01*
X216988000Y-94428000D01*
X216990000Y-94428000D01*
X216993000Y-94427000D01*
X216995000Y-94426000D01*
X216998000Y-94425000D01*
X217000000Y-94423000D01*
X217002000Y-94422000D01*
X217004000Y-94420000D01*
X217006000Y-94419000D01*
X217008000Y-94417000D01*
X217010000Y-94415000D01*
X217012000Y-94413000D01*
X217014000Y-94411000D01*
X217015000Y-94409000D01*
X217017000Y-94407000D01*
X217018000Y-94405000D01*
X217020000Y-94403000D01*
X217021000Y-94400000D01*
X217022000Y-94398000D01*
X217023000Y-94395000D01*
X217023000Y-94393000D01*
X217024000Y-94390000D01*
X217024000Y-94388000D01*
X217025000Y-94385000D01*
X217025000Y-94383000D01*
X217025000Y-94380000D01*
X217025000Y-94065000D01*
X217025000Y-94062000D01*
X217025000Y-94060000D01*
X217026000Y-94057000D01*
X217026000Y-94055000D01*
X217027000Y-94052000D01*
X217027000Y-94050000D01*
X217028000Y-94047000D01*
X217029000Y-94045000D01*
X217030000Y-94042000D01*
X217032000Y-94040000D01*
X217033000Y-94038000D01*
X217035000Y-94036000D01*
X217036000Y-94034000D01*
X217038000Y-94032000D01*
X217040000Y-94030000D01*
X217042000Y-94028000D01*
X217044000Y-94026000D01*
X217046000Y-94025000D01*
X217048000Y-94023000D01*
X217050000Y-94022000D01*
X217052000Y-94020000D01*
X217055000Y-94019000D01*
X217057000Y-94018000D01*
X217060000Y-94017000D01*
X217062000Y-94017000D01*
X217065000Y-94016000D01*
X217067000Y-94016000D01*
X217070000Y-94015000D01*
X217072000Y-94015000D01*
X217075000Y-94015000D01*
X217975000Y-94015000D01*
X217978000Y-94015000D01*
X217980000Y-94015000D01*
X217983000Y-94016000D01*
G37*
X219883000Y-94016000D02*
X219885000Y-94016000D01*
X219888000Y-94017000D01*
X219890000Y-94017000D01*
X219893000Y-94018000D01*
X219895000Y-94019000D01*
X219898000Y-94020000D01*
X219900000Y-94022000D01*
X219902000Y-94023000D01*
X219904000Y-94025000D01*
X219906000Y-94026000D01*
X219908000Y-94028000D01*
X219910000Y-94030000D01*
X219912000Y-94032000D01*
X219914000Y-94034000D01*
X219915000Y-94036000D01*
X219917000Y-94038000D01*
X219918000Y-94040000D01*
X219920000Y-94042000D01*
X219921000Y-94045000D01*
X219922000Y-94047000D01*
X219923000Y-94050000D01*
X219923000Y-94052000D01*
X219924000Y-94055000D01*
X219924000Y-94057000D01*
X219925000Y-94060000D01*
X219925000Y-94062000D01*
X219925000Y-94065000D01*
X219925000Y-94380000D01*
X219925000Y-94383000D01*
X219925000Y-94385000D01*
X219926000Y-94388000D01*
X219926000Y-94390000D01*
X219927000Y-94393000D01*
X219927000Y-94395000D01*
X219928000Y-94398000D01*
X219929000Y-94400000D01*
X219930000Y-94403000D01*
X219932000Y-94405000D01*
X219933000Y-94407000D01*
X219935000Y-94409000D01*
X219936000Y-94411000D01*
X219938000Y-94413000D01*
X219940000Y-94415000D01*
X219942000Y-94417000D01*
X219944000Y-94419000D01*
X219946000Y-94420000D01*
X219948000Y-94422000D01*
X219950000Y-94423000D01*
X219952000Y-94425000D01*
X219955000Y-94426000D01*
X219957000Y-94427000D01*
X219960000Y-94428000D01*
X219962000Y-94428000D01*
X219965000Y-94429000D01*
X219967000Y-94429000D01*
X219970000Y-94430000D01*
X219972000Y-94430000D01*
X219975000Y-94430000D01*
X220275000Y-94430000D01*
X220278000Y-94430000D01*
X220280000Y-94430000D01*
X220283000Y-94431000D01*
X220285000Y-94431000D01*
X220288000Y-94432000D01*
X220290000Y-94432000D01*
X220293000Y-94433000D01*
X220295000Y-94434000D01*
X220298000Y-94435000D01*
X220300000Y-94437000D01*
X220302000Y-94438000D01*
X220304000Y-94440000D01*
X220306000Y-94441000D01*
X220308000Y-94443000D01*
X220310000Y-94445000D01*
X220312000Y-94447000D01*
X220314000Y-94449000D01*
X220315000Y-94451000D01*
X220317000Y-94453000D01*
X220318000Y-94455000D01*
X220320000Y-94457000D01*
X220321000Y-94460000D01*
X220322000Y-94462000D01*
X220323000Y-94465000D01*
X220323000Y-94467000D01*
X220324000Y-94470000D01*
X220324000Y-94472000D01*
X220325000Y-94475000D01*
X220325000Y-94477000D01*
X220325000Y-94480000D01*
X220325000Y-94630000D01*
X220325000Y-94633000D01*
X220325000Y-94635000D01*
X220324000Y-94638000D01*
X220324000Y-94640000D01*
X220323000Y-94643000D01*
X220323000Y-94645000D01*
X220322000Y-94648000D01*
X220321000Y-94650000D01*
X220320000Y-94653000D01*
X220318000Y-94655000D01*
X220317000Y-94657000D01*
X220315000Y-94659000D01*
X220314000Y-94661000D01*
X220312000Y-94663000D01*
X220310000Y-94665000D01*
X220308000Y-94667000D01*
X220306000Y-94669000D01*
X220304000Y-94670000D01*
X220302000Y-94672000D01*
X220300000Y-94673000D01*
X220298000Y-94675000D01*
X220295000Y-94676000D01*
X220293000Y-94677000D01*
X220290000Y-94678000D01*
X220288000Y-94678000D01*
X220285000Y-94679000D01*
X220283000Y-94679000D01*
X220280000Y-94680000D01*
X220278000Y-94680000D01*
X220275000Y-94680000D01*
X219975000Y-94680000D01*
X219972000Y-94680000D01*
X219970000Y-94680000D01*
X219967000Y-94681000D01*
X219965000Y-94681000D01*
X219962000Y-94682000D01*
X219960000Y-94682000D01*
X219957000Y-94683000D01*
X219955000Y-94684000D01*
X219952000Y-94685000D01*
X219950000Y-94687000D01*
X219948000Y-94688000D01*
X219946000Y-94690000D01*
X219944000Y-94691000D01*
X219942000Y-94693000D01*
X219940000Y-94695000D01*
X219938000Y-94697000D01*
X219936000Y-94699000D01*
X219935000Y-94701000D01*
X219933000Y-94703000D01*
X219932000Y-94705000D01*
X219930000Y-94707000D01*
X219929000Y-94710000D01*
X219928000Y-94712000D01*
X219927000Y-94715000D01*
X219927000Y-94717000D01*
X219926000Y-94720000D01*
X219926000Y-94722000D01*
X219925000Y-94725000D01*
X219925000Y-94727000D01*
X219925000Y-94730000D01*
X219925000Y-94880000D01*
X219925000Y-94883000D01*
X219925000Y-94885000D01*
X219926000Y-94888000D01*
X219926000Y-94890000D01*
X219927000Y-94893000D01*
X219927000Y-94895000D01*
X219928000Y-94898000D01*
X219929000Y-94900000D01*
X219930000Y-94903000D01*
X219932000Y-94905000D01*
X219933000Y-94907000D01*
X219935000Y-94909000D01*
X219936000Y-94911000D01*
X219938000Y-94913000D01*
X219940000Y-94915000D01*
X219942000Y-94917000D01*
X219944000Y-94919000D01*
X219946000Y-94920000D01*
X219948000Y-94922000D01*
X219950000Y-94923000D01*
X219952000Y-94925000D01*
X219955000Y-94926000D01*
X219957000Y-94927000D01*
X219960000Y-94928000D01*
X219962000Y-94928000D01*
X219965000Y-94929000D01*
X219967000Y-94929000D01*
X219970000Y-94930000D01*
X219972000Y-94930000D01*
X219975000Y-94930000D01*
X220275000Y-94930000D01*
X220278000Y-94930000D01*
X220280000Y-94930000D01*
X220283000Y-94931000D01*
X220285000Y-94931000D01*
X220288000Y-94932000D01*
X220290000Y-94932000D01*
X220293000Y-94933000D01*
X220295000Y-94934000D01*
X220298000Y-94935000D01*
X220300000Y-94937000D01*
X220302000Y-94938000D01*
X220304000Y-94940000D01*
X220306000Y-94941000D01*
X220308000Y-94943000D01*
X220310000Y-94945000D01*
X220312000Y-94947000D01*
X220314000Y-94949000D01*
X220315000Y-94951000D01*
X220317000Y-94953000D01*
X220318000Y-94955000D01*
X220320000Y-94957000D01*
X220321000Y-94960000D01*
X220322000Y-94962000D01*
X220323000Y-94965000D01*
X220323000Y-94967000D01*
X220324000Y-94970000D01*
X220324000Y-94972000D01*
X220325000Y-94975000D01*
X220325000Y-94977000D01*
X220325000Y-94980000D01*
X220325000Y-95130000D01*
X220325000Y-95133000D01*
X220325000Y-95135000D01*
X220324000Y-95138000D01*
X220324000Y-95140000D01*
X220323000Y-95143000D01*
X220323000Y-95145000D01*
X220322000Y-95148000D01*
X220321000Y-95150000D01*
X220320000Y-95153000D01*
X220318000Y-95155000D01*
X220317000Y-95157000D01*
X220315000Y-95159000D01*
X220314000Y-95161000D01*
X220312000Y-95163000D01*
X220310000Y-95165000D01*
X220308000Y-95167000D01*
X220306000Y-95169000D01*
X220304000Y-95170000D01*
X220302000Y-95172000D01*
X220300000Y-95173000D01*
X220298000Y-95175000D01*
X220295000Y-95176000D01*
X220293000Y-95177000D01*
X220290000Y-95178000D01*
X220288000Y-95178000D01*
X220285000Y-95179000D01*
X220283000Y-95179000D01*
X220280000Y-95180000D01*
X220278000Y-95180000D01*
X220275000Y-95180000D01*
X219975000Y-95180000D01*
X219972000Y-95180000D01*
X219970000Y-95180000D01*
X219967000Y-95181000D01*
X219965000Y-95181000D01*
X219962000Y-95182000D01*
X219960000Y-95182000D01*
X219957000Y-95183000D01*
X219955000Y-95184000D01*
X219952000Y-95185000D01*
X219950000Y-95187000D01*
X219948000Y-95188000D01*
X219946000Y-95190000D01*
X219944000Y-95191000D01*
X219942000Y-95193000D01*
X219940000Y-95195000D01*
X219938000Y-95197000D01*
X219936000Y-95199000D01*
X219935000Y-95201000D01*
X219933000Y-95203000D01*
X219932000Y-95205000D01*
X219930000Y-95207000D01*
X219929000Y-95210000D01*
X219928000Y-95212000D01*
X219927000Y-95215000D01*
X219927000Y-95217000D01*
X219926000Y-95220000D01*
X219926000Y-95222000D01*
X219925000Y-95225000D01*
X219925000Y-95227000D01*
X219925000Y-95230000D01*
X219925000Y-95380000D01*
X219925000Y-95383000D01*
X219925000Y-95385000D01*
X219926000Y-95388000D01*
X219926000Y-95390000D01*
X219927000Y-95393000D01*
X219927000Y-95395000D01*
X219928000Y-95398000D01*
X219929000Y-95400000D01*
X219930000Y-95403000D01*
X219932000Y-95405000D01*
X219933000Y-95407000D01*
X219935000Y-95409000D01*
X219936000Y-95411000D01*
X219938000Y-95413000D01*
X219940000Y-95415000D01*
X219942000Y-95417000D01*
X219944000Y-95419000D01*
X219946000Y-95420000D01*
X219948000Y-95422000D01*
X219950000Y-95423000D01*
X219952000Y-95425000D01*
X219955000Y-95426000D01*
X219957000Y-95427000D01*
X219960000Y-95428000D01*
X219962000Y-95428000D01*
X219965000Y-95429000D01*
X219967000Y-95429000D01*
X219970000Y-95430000D01*
X219972000Y-95430000D01*
X219975000Y-95430000D01*
X220275000Y-95430000D01*
X220278000Y-95430000D01*
X220280000Y-95430000D01*
X220283000Y-95431000D01*
X220285000Y-95431000D01*
X220288000Y-95432000D01*
X220290000Y-95432000D01*
X220293000Y-95433000D01*
X220295000Y-95434000D01*
X220298000Y-95435000D01*
X220300000Y-95437000D01*
X220302000Y-95438000D01*
X220304000Y-95440000D01*
X220306000Y-95441000D01*
X220308000Y-95443000D01*
X220310000Y-95445000D01*
X220312000Y-95447000D01*
X220314000Y-95449000D01*
X220315000Y-95451000D01*
X220317000Y-95453000D01*
X220318000Y-95455000D01*
X220320000Y-95457000D01*
X220321000Y-95460000D01*
X220322000Y-95462000D01*
X220323000Y-95465000D01*
X220323000Y-95467000D01*
X220324000Y-95470000D01*
X220324000Y-95472000D01*
X220325000Y-95475000D01*
X220325000Y-95477000D01*
X220325000Y-95480000D01*
X220325000Y-95630000D01*
X220325000Y-95633000D01*
X220325000Y-95635000D01*
X220324000Y-95638000D01*
X220324000Y-95640000D01*
X220323000Y-95643000D01*
X220323000Y-95645000D01*
X220322000Y-95648000D01*
X220321000Y-95650000D01*
X220320000Y-95653000D01*
X220318000Y-95655000D01*
X220317000Y-95657000D01*
X220315000Y-95659000D01*
X220314000Y-95661000D01*
X220312000Y-95663000D01*
X220310000Y-95665000D01*
X220308000Y-95667000D01*
X220306000Y-95669000D01*
X220304000Y-95670000D01*
X220302000Y-95672000D01*
X220300000Y-95673000D01*
X220298000Y-95675000D01*
X220295000Y-95676000D01*
X220293000Y-95677000D01*
X220290000Y-95678000D01*
X220288000Y-95678000D01*
X220285000Y-95679000D01*
X220283000Y-95679000D01*
X220280000Y-95680000D01*
X220278000Y-95680000D01*
X220275000Y-95680000D01*
X219975000Y-95680000D01*
X219972000Y-95680000D01*
X219970000Y-95680000D01*
X219967000Y-95681000D01*
X219965000Y-95681000D01*
X219962000Y-95682000D01*
X219960000Y-95682000D01*
X219957000Y-95683000D01*
X219955000Y-95684000D01*
X219952000Y-95685000D01*
X219950000Y-95687000D01*
X219948000Y-95688000D01*
X219946000Y-95690000D01*
X219944000Y-95691000D01*
X219942000Y-95693000D01*
X219940000Y-95695000D01*
X219938000Y-95697000D01*
X219936000Y-95699000D01*
X219935000Y-95701000D01*
X219933000Y-95703000D01*
X219932000Y-95705000D01*
X219930000Y-95707000D01*
X219929000Y-95710000D01*
X219928000Y-95712000D01*
X219927000Y-95715000D01*
X219927000Y-95717000D01*
X219926000Y-95720000D01*
X219926000Y-95722000D01*
X219925000Y-95725000D01*
X219925000Y-95727000D01*
X219925000Y-95730000D01*
X219925000Y-95890000D01*
X219925000Y-95893000D01*
X219925000Y-95895000D01*
X219924000Y-95898000D01*
X219924000Y-95900000D01*
X219923000Y-95903000D01*
X219923000Y-95905000D01*
X219922000Y-95908000D01*
X219921000Y-95910000D01*
X219920000Y-95913000D01*
X219918000Y-95915000D01*
X219917000Y-95917000D01*
X219915000Y-95919000D01*
X219914000Y-95921000D01*
X219912000Y-95923000D01*
X219910000Y-95925000D01*
X219908000Y-95927000D01*
X219906000Y-95929000D01*
X219904000Y-95930000D01*
X219902000Y-95932000D01*
X219900000Y-95933000D01*
X219898000Y-95935000D01*
X219895000Y-95936000D01*
X219893000Y-95937000D01*
X219890000Y-95938000D01*
X219888000Y-95938000D01*
X219885000Y-95939000D01*
X219883000Y-95939000D01*
X219880000Y-95940000D01*
X219878000Y-95940000D01*
X219875000Y-95940000D01*
X218975000Y-95940000D01*
X218972000Y-95940000D01*
X218970000Y-95940000D01*
X218967000Y-95939000D01*
X218965000Y-95939000D01*
X218962000Y-95938000D01*
X218960000Y-95938000D01*
X218957000Y-95937000D01*
X218955000Y-95936000D01*
X218952000Y-95935000D01*
X218950000Y-95933000D01*
X218948000Y-95932000D01*
X218946000Y-95930000D01*
X218944000Y-95929000D01*
X218942000Y-95927000D01*
X218940000Y-95925000D01*
X218938000Y-95923000D01*
X218936000Y-95921000D01*
X218935000Y-95919000D01*
X218933000Y-95917000D01*
X218932000Y-95915000D01*
X218930000Y-95913000D01*
X218929000Y-95910000D01*
X218928000Y-95908000D01*
X218927000Y-95905000D01*
X218927000Y-95903000D01*
X218926000Y-95900000D01*
X218926000Y-95898000D01*
X218925000Y-95895000D01*
X218925000Y-95893000D01*
X218925000Y-95890000D01*
X218925000Y-94065000D01*
X218925000Y-94062000D01*
X218925000Y-94060000D01*
X218926000Y-94057000D01*
X218926000Y-94055000D01*
X218927000Y-94052000D01*
X218927000Y-94050000D01*
X218928000Y-94047000D01*
X218929000Y-94045000D01*
X218930000Y-94042000D01*
X218932000Y-94040000D01*
X218933000Y-94038000D01*
X218935000Y-94036000D01*
X218936000Y-94034000D01*
X218938000Y-94032000D01*
X218940000Y-94030000D01*
X218942000Y-94028000D01*
X218944000Y-94026000D01*
X218946000Y-94025000D01*
X218948000Y-94023000D01*
X218950000Y-94022000D01*
X218952000Y-94020000D01*
X218955000Y-94019000D01*
X218957000Y-94018000D01*
X218960000Y-94017000D01*
X218962000Y-94017000D01*
X218965000Y-94016000D01*
X218967000Y-94016000D01*
X218970000Y-94015000D01*
X218972000Y-94015000D01*
X218975000Y-94015000D01*
X219875000Y-94015000D01*
X219878000Y-94015000D01*
X219880000Y-94015000D01*
X219883000Y-94016000D01*
G36*
X219883000Y-94016000D02*
G01*
X219885000Y-94016000D01*
X219888000Y-94017000D01*
X219890000Y-94017000D01*
X219893000Y-94018000D01*
X219895000Y-94019000D01*
X219898000Y-94020000D01*
X219900000Y-94022000D01*
X219902000Y-94023000D01*
X219904000Y-94025000D01*
X219906000Y-94026000D01*
X219908000Y-94028000D01*
X219910000Y-94030000D01*
X219912000Y-94032000D01*
X219914000Y-94034000D01*
X219915000Y-94036000D01*
X219917000Y-94038000D01*
X219918000Y-94040000D01*
X219920000Y-94042000D01*
X219921000Y-94045000D01*
X219922000Y-94047000D01*
X219923000Y-94050000D01*
X219923000Y-94052000D01*
X219924000Y-94055000D01*
X219924000Y-94057000D01*
X219925000Y-94060000D01*
X219925000Y-94062000D01*
X219925000Y-94065000D01*
X219925000Y-94380000D01*
X219925000Y-94383000D01*
X219925000Y-94385000D01*
X219926000Y-94388000D01*
X219926000Y-94390000D01*
X219927000Y-94393000D01*
X219927000Y-94395000D01*
X219928000Y-94398000D01*
X219929000Y-94400000D01*
X219930000Y-94403000D01*
X219932000Y-94405000D01*
X219933000Y-94407000D01*
X219935000Y-94409000D01*
X219936000Y-94411000D01*
X219938000Y-94413000D01*
X219940000Y-94415000D01*
X219942000Y-94417000D01*
X219944000Y-94419000D01*
X219946000Y-94420000D01*
X219948000Y-94422000D01*
X219950000Y-94423000D01*
X219952000Y-94425000D01*
X219955000Y-94426000D01*
X219957000Y-94427000D01*
X219960000Y-94428000D01*
X219962000Y-94428000D01*
X219965000Y-94429000D01*
X219967000Y-94429000D01*
X219970000Y-94430000D01*
X219972000Y-94430000D01*
X219975000Y-94430000D01*
X220275000Y-94430000D01*
X220278000Y-94430000D01*
X220280000Y-94430000D01*
X220283000Y-94431000D01*
X220285000Y-94431000D01*
X220288000Y-94432000D01*
X220290000Y-94432000D01*
X220293000Y-94433000D01*
X220295000Y-94434000D01*
X220298000Y-94435000D01*
X220300000Y-94437000D01*
X220302000Y-94438000D01*
X220304000Y-94440000D01*
X220306000Y-94441000D01*
X220308000Y-94443000D01*
X220310000Y-94445000D01*
X220312000Y-94447000D01*
X220314000Y-94449000D01*
X220315000Y-94451000D01*
X220317000Y-94453000D01*
X220318000Y-94455000D01*
X220320000Y-94457000D01*
X220321000Y-94460000D01*
X220322000Y-94462000D01*
X220323000Y-94465000D01*
X220323000Y-94467000D01*
X220324000Y-94470000D01*
X220324000Y-94472000D01*
X220325000Y-94475000D01*
X220325000Y-94477000D01*
X220325000Y-94480000D01*
X220325000Y-94630000D01*
X220325000Y-94633000D01*
X220325000Y-94635000D01*
X220324000Y-94638000D01*
X220324000Y-94640000D01*
X220323000Y-94643000D01*
X220323000Y-94645000D01*
X220322000Y-94648000D01*
X220321000Y-94650000D01*
X220320000Y-94653000D01*
X220318000Y-94655000D01*
X220317000Y-94657000D01*
X220315000Y-94659000D01*
X220314000Y-94661000D01*
X220312000Y-94663000D01*
X220310000Y-94665000D01*
X220308000Y-94667000D01*
X220306000Y-94669000D01*
X220304000Y-94670000D01*
X220302000Y-94672000D01*
X220300000Y-94673000D01*
X220298000Y-94675000D01*
X220295000Y-94676000D01*
X220293000Y-94677000D01*
X220290000Y-94678000D01*
X220288000Y-94678000D01*
X220285000Y-94679000D01*
X220283000Y-94679000D01*
X220280000Y-94680000D01*
X220278000Y-94680000D01*
X220275000Y-94680000D01*
X219975000Y-94680000D01*
X219972000Y-94680000D01*
X219970000Y-94680000D01*
X219967000Y-94681000D01*
X219965000Y-94681000D01*
X219962000Y-94682000D01*
X219960000Y-94682000D01*
X219957000Y-94683000D01*
X219955000Y-94684000D01*
X219952000Y-94685000D01*
X219950000Y-94687000D01*
X219948000Y-94688000D01*
X219946000Y-94690000D01*
X219944000Y-94691000D01*
X219942000Y-94693000D01*
X219940000Y-94695000D01*
X219938000Y-94697000D01*
X219936000Y-94699000D01*
X219935000Y-94701000D01*
X219933000Y-94703000D01*
X219932000Y-94705000D01*
X219930000Y-94707000D01*
X219929000Y-94710000D01*
X219928000Y-94712000D01*
X219927000Y-94715000D01*
X219927000Y-94717000D01*
X219926000Y-94720000D01*
X219926000Y-94722000D01*
X219925000Y-94725000D01*
X219925000Y-94727000D01*
X219925000Y-94730000D01*
X219925000Y-94880000D01*
X219925000Y-94883000D01*
X219925000Y-94885000D01*
X219926000Y-94888000D01*
X219926000Y-94890000D01*
X219927000Y-94893000D01*
X219927000Y-94895000D01*
X219928000Y-94898000D01*
X219929000Y-94900000D01*
X219930000Y-94903000D01*
X219932000Y-94905000D01*
X219933000Y-94907000D01*
X219935000Y-94909000D01*
X219936000Y-94911000D01*
X219938000Y-94913000D01*
X219940000Y-94915000D01*
X219942000Y-94917000D01*
X219944000Y-94919000D01*
X219946000Y-94920000D01*
X219948000Y-94922000D01*
X219950000Y-94923000D01*
X219952000Y-94925000D01*
X219955000Y-94926000D01*
X219957000Y-94927000D01*
X219960000Y-94928000D01*
X219962000Y-94928000D01*
X219965000Y-94929000D01*
X219967000Y-94929000D01*
X219970000Y-94930000D01*
X219972000Y-94930000D01*
X219975000Y-94930000D01*
X220275000Y-94930000D01*
X220278000Y-94930000D01*
X220280000Y-94930000D01*
X220283000Y-94931000D01*
X220285000Y-94931000D01*
X220288000Y-94932000D01*
X220290000Y-94932000D01*
X220293000Y-94933000D01*
X220295000Y-94934000D01*
X220298000Y-94935000D01*
X220300000Y-94937000D01*
X220302000Y-94938000D01*
X220304000Y-94940000D01*
X220306000Y-94941000D01*
X220308000Y-94943000D01*
X220310000Y-94945000D01*
X220312000Y-94947000D01*
X220314000Y-94949000D01*
X220315000Y-94951000D01*
X220317000Y-94953000D01*
X220318000Y-94955000D01*
X220320000Y-94957000D01*
X220321000Y-94960000D01*
X220322000Y-94962000D01*
X220323000Y-94965000D01*
X220323000Y-94967000D01*
X220324000Y-94970000D01*
X220324000Y-94972000D01*
X220325000Y-94975000D01*
X220325000Y-94977000D01*
X220325000Y-94980000D01*
X220325000Y-95130000D01*
X220325000Y-95133000D01*
X220325000Y-95135000D01*
X220324000Y-95138000D01*
X220324000Y-95140000D01*
X220323000Y-95143000D01*
X220323000Y-95145000D01*
X220322000Y-95148000D01*
X220321000Y-95150000D01*
X220320000Y-95153000D01*
X220318000Y-95155000D01*
X220317000Y-95157000D01*
X220315000Y-95159000D01*
X220314000Y-95161000D01*
X220312000Y-95163000D01*
X220310000Y-95165000D01*
X220308000Y-95167000D01*
X220306000Y-95169000D01*
X220304000Y-95170000D01*
X220302000Y-95172000D01*
X220300000Y-95173000D01*
X220298000Y-95175000D01*
X220295000Y-95176000D01*
X220293000Y-95177000D01*
X220290000Y-95178000D01*
X220288000Y-95178000D01*
X220285000Y-95179000D01*
X220283000Y-95179000D01*
X220280000Y-95180000D01*
X220278000Y-95180000D01*
X220275000Y-95180000D01*
X219975000Y-95180000D01*
X219972000Y-95180000D01*
X219970000Y-95180000D01*
X219967000Y-95181000D01*
X219965000Y-95181000D01*
X219962000Y-95182000D01*
X219960000Y-95182000D01*
X219957000Y-95183000D01*
X219955000Y-95184000D01*
X219952000Y-95185000D01*
X219950000Y-95187000D01*
X219948000Y-95188000D01*
X219946000Y-95190000D01*
X219944000Y-95191000D01*
X219942000Y-95193000D01*
X219940000Y-95195000D01*
X219938000Y-95197000D01*
X219936000Y-95199000D01*
X219935000Y-95201000D01*
X219933000Y-95203000D01*
X219932000Y-95205000D01*
X219930000Y-95207000D01*
X219929000Y-95210000D01*
X219928000Y-95212000D01*
X219927000Y-95215000D01*
X219927000Y-95217000D01*
X219926000Y-95220000D01*
X219926000Y-95222000D01*
X219925000Y-95225000D01*
X219925000Y-95227000D01*
X219925000Y-95230000D01*
X219925000Y-95380000D01*
X219925000Y-95383000D01*
X219925000Y-95385000D01*
X219926000Y-95388000D01*
X219926000Y-95390000D01*
X219927000Y-95393000D01*
X219927000Y-95395000D01*
X219928000Y-95398000D01*
X219929000Y-95400000D01*
X219930000Y-95403000D01*
X219932000Y-95405000D01*
X219933000Y-95407000D01*
X219935000Y-95409000D01*
X219936000Y-95411000D01*
X219938000Y-95413000D01*
X219940000Y-95415000D01*
X219942000Y-95417000D01*
X219944000Y-95419000D01*
X219946000Y-95420000D01*
X219948000Y-95422000D01*
X219950000Y-95423000D01*
X219952000Y-95425000D01*
X219955000Y-95426000D01*
X219957000Y-95427000D01*
X219960000Y-95428000D01*
X219962000Y-95428000D01*
X219965000Y-95429000D01*
X219967000Y-95429000D01*
X219970000Y-95430000D01*
X219972000Y-95430000D01*
X219975000Y-95430000D01*
X220275000Y-95430000D01*
X220278000Y-95430000D01*
X220280000Y-95430000D01*
X220283000Y-95431000D01*
X220285000Y-95431000D01*
X220288000Y-95432000D01*
X220290000Y-95432000D01*
X220293000Y-95433000D01*
X220295000Y-95434000D01*
X220298000Y-95435000D01*
X220300000Y-95437000D01*
X220302000Y-95438000D01*
X220304000Y-95440000D01*
X220306000Y-95441000D01*
X220308000Y-95443000D01*
X220310000Y-95445000D01*
X220312000Y-95447000D01*
X220314000Y-95449000D01*
X220315000Y-95451000D01*
X220317000Y-95453000D01*
X220318000Y-95455000D01*
X220320000Y-95457000D01*
X220321000Y-95460000D01*
X220322000Y-95462000D01*
X220323000Y-95465000D01*
X220323000Y-95467000D01*
X220324000Y-95470000D01*
X220324000Y-95472000D01*
X220325000Y-95475000D01*
X220325000Y-95477000D01*
X220325000Y-95480000D01*
X220325000Y-95630000D01*
X220325000Y-95633000D01*
X220325000Y-95635000D01*
X220324000Y-95638000D01*
X220324000Y-95640000D01*
X220323000Y-95643000D01*
X220323000Y-95645000D01*
X220322000Y-95648000D01*
X220321000Y-95650000D01*
X220320000Y-95653000D01*
X220318000Y-95655000D01*
X220317000Y-95657000D01*
X220315000Y-95659000D01*
X220314000Y-95661000D01*
X220312000Y-95663000D01*
X220310000Y-95665000D01*
X220308000Y-95667000D01*
X220306000Y-95669000D01*
X220304000Y-95670000D01*
X220302000Y-95672000D01*
X220300000Y-95673000D01*
X220298000Y-95675000D01*
X220295000Y-95676000D01*
X220293000Y-95677000D01*
X220290000Y-95678000D01*
X220288000Y-95678000D01*
X220285000Y-95679000D01*
X220283000Y-95679000D01*
X220280000Y-95680000D01*
X220278000Y-95680000D01*
X220275000Y-95680000D01*
X219975000Y-95680000D01*
X219972000Y-95680000D01*
X219970000Y-95680000D01*
X219967000Y-95681000D01*
X219965000Y-95681000D01*
X219962000Y-95682000D01*
X219960000Y-95682000D01*
X219957000Y-95683000D01*
X219955000Y-95684000D01*
X219952000Y-95685000D01*
X219950000Y-95687000D01*
X219948000Y-95688000D01*
X219946000Y-95690000D01*
X219944000Y-95691000D01*
X219942000Y-95693000D01*
X219940000Y-95695000D01*
X219938000Y-95697000D01*
X219936000Y-95699000D01*
X219935000Y-95701000D01*
X219933000Y-95703000D01*
X219932000Y-95705000D01*
X219930000Y-95707000D01*
X219929000Y-95710000D01*
X219928000Y-95712000D01*
X219927000Y-95715000D01*
X219927000Y-95717000D01*
X219926000Y-95720000D01*
X219926000Y-95722000D01*
X219925000Y-95725000D01*
X219925000Y-95727000D01*
X219925000Y-95730000D01*
X219925000Y-95890000D01*
X219925000Y-95893000D01*
X219925000Y-95895000D01*
X219924000Y-95898000D01*
X219924000Y-95900000D01*
X219923000Y-95903000D01*
X219923000Y-95905000D01*
X219922000Y-95908000D01*
X219921000Y-95910000D01*
X219920000Y-95913000D01*
X219918000Y-95915000D01*
X219917000Y-95917000D01*
X219915000Y-95919000D01*
X219914000Y-95921000D01*
X219912000Y-95923000D01*
X219910000Y-95925000D01*
X219908000Y-95927000D01*
X219906000Y-95929000D01*
X219904000Y-95930000D01*
X219902000Y-95932000D01*
X219900000Y-95933000D01*
X219898000Y-95935000D01*
X219895000Y-95936000D01*
X219893000Y-95937000D01*
X219890000Y-95938000D01*
X219888000Y-95938000D01*
X219885000Y-95939000D01*
X219883000Y-95939000D01*
X219880000Y-95940000D01*
X219878000Y-95940000D01*
X219875000Y-95940000D01*
X218975000Y-95940000D01*
X218972000Y-95940000D01*
X218970000Y-95940000D01*
X218967000Y-95939000D01*
X218965000Y-95939000D01*
X218962000Y-95938000D01*
X218960000Y-95938000D01*
X218957000Y-95937000D01*
X218955000Y-95936000D01*
X218952000Y-95935000D01*
X218950000Y-95933000D01*
X218948000Y-95932000D01*
X218946000Y-95930000D01*
X218944000Y-95929000D01*
X218942000Y-95927000D01*
X218940000Y-95925000D01*
X218938000Y-95923000D01*
X218936000Y-95921000D01*
X218935000Y-95919000D01*
X218933000Y-95917000D01*
X218932000Y-95915000D01*
X218930000Y-95913000D01*
X218929000Y-95910000D01*
X218928000Y-95908000D01*
X218927000Y-95905000D01*
X218927000Y-95903000D01*
X218926000Y-95900000D01*
X218926000Y-95898000D01*
X218925000Y-95895000D01*
X218925000Y-95893000D01*
X218925000Y-95890000D01*
X218925000Y-94065000D01*
X218925000Y-94062000D01*
X218925000Y-94060000D01*
X218926000Y-94057000D01*
X218926000Y-94055000D01*
X218927000Y-94052000D01*
X218927000Y-94050000D01*
X218928000Y-94047000D01*
X218929000Y-94045000D01*
X218930000Y-94042000D01*
X218932000Y-94040000D01*
X218933000Y-94038000D01*
X218935000Y-94036000D01*
X218936000Y-94034000D01*
X218938000Y-94032000D01*
X218940000Y-94030000D01*
X218942000Y-94028000D01*
X218944000Y-94026000D01*
X218946000Y-94025000D01*
X218948000Y-94023000D01*
X218950000Y-94022000D01*
X218952000Y-94020000D01*
X218955000Y-94019000D01*
X218957000Y-94018000D01*
X218960000Y-94017000D01*
X218962000Y-94017000D01*
X218965000Y-94016000D01*
X218967000Y-94016000D01*
X218970000Y-94015000D01*
X218972000Y-94015000D01*
X218975000Y-94015000D01*
X219875000Y-94015000D01*
X219878000Y-94015000D01*
X219880000Y-94015000D01*
X219883000Y-94016000D01*
G37*
%TO.C,JP3*%
G36*
X197160000Y-82310000D02*
G01*
X197460000Y-82310000D01*
X197460000Y-83810000D01*
X197160000Y-83810000D01*
X197160000Y-82310000D01*
G37*
%TD*%
D11*
%TO.C,C11*%
X210975000Y-92340000D03*
X213925000Y-92340000D03*
%TD*%
D12*
%TO.C,C4*%
X153125000Y-91600000D03*
X154850000Y-91600000D03*
%TD*%
D13*
%TO.C,C22*%
X202360000Y-102900000D03*
X203320000Y-102900000D03*
%TD*%
D14*
%TO.C,J6*%
X147920000Y-77640000D03*
X142140000Y-77640000D03*
D15*
X148230000Y-78705000D03*
X147430000Y-78705000D03*
D16*
X146280000Y-78705000D03*
X145280000Y-78705000D03*
X144780000Y-78705000D03*
X143780000Y-78705000D03*
D15*
X141830000Y-78705000D03*
X142630000Y-78705000D03*
D16*
X143280000Y-78705000D03*
X144280000Y-78705000D03*
X145780000Y-78705000D03*
X146780000Y-78705000D03*
D17*
X149350000Y-78140000D03*
X140710000Y-78140000D03*
D18*
X149350000Y-73960000D03*
X140710000Y-73960000D03*
%TD*%
D19*
%TO.C,H1*%
X132450000Y-74450000D03*
%TD*%
D20*
%TO.C,R13*%
X193170000Y-84270000D03*
X194190000Y-84270000D03*
%TD*%
%TO.C,R5*%
X216220000Y-97910000D03*
X217240000Y-97910000D03*
%TD*%
D19*
%TO.C,H4*%
X132450000Y-104950000D03*
%TD*%
D21*
%TO.C,D2*%
X137650000Y-77050000D03*
X137650000Y-73050000D03*
%TD*%
D20*
%TO.C,R17*%
X193170000Y-90240000D03*
X194190000Y-90240000D03*
%TD*%
D22*
%TO.C,C17*%
X160177500Y-95600000D03*
X160177500Y-93875000D03*
%TD*%
D20*
%TO.C,R8*%
X190030000Y-108820000D03*
X191050000Y-108820000D03*
%TD*%
D23*
%TO.C,D1*%
X137650000Y-80350000D03*
X137650000Y-84350000D03*
%TD*%
D13*
%TO.C,C34*%
X191770000Y-106840000D03*
X192730000Y-106840000D03*
%TD*%
D20*
%TO.C,R12*%
X216220000Y-101890000D03*
X217240000Y-101890000D03*
%TD*%
D11*
%TO.C,C1*%
X219065000Y-81240000D03*
X222015000Y-81240000D03*
%TD*%
D24*
%TO.C,S1*%
X156200000Y-73750000D03*
X153900000Y-73750000D03*
D25*
X157150000Y-75050000D03*
X152950000Y-75050000D03*
%TD*%
D20*
%TO.C,R16*%
X193170000Y-88250000D03*
X194190000Y-88250000D03*
%TD*%
%TO.C,R14*%
X193170000Y-86260000D03*
X194190000Y-86260000D03*
%TD*%
D26*
%TO.C,C16*%
X146175000Y-104237500D03*
X146175000Y-105962500D03*
%TD*%
D11*
%TO.C,C20*%
X219065000Y-84590000D03*
X222015000Y-84590000D03*
%TD*%
D13*
%TO.C,C27*%
X188900000Y-102900000D03*
X189860000Y-102900000D03*
%TD*%
D19*
%TO.C,H2*%
X188650000Y-82040000D03*
%TD*%
D27*
%TO.C,C8*%
X143337500Y-88900000D03*
X141612500Y-88900000D03*
%TD*%
D20*
%TO.C,R11*%
X193170000Y-82280000D03*
X194190000Y-82280000D03*
%TD*%
D28*
%TO.C,U2*%
X200500000Y-58400000D03*
X200500000Y-60700000D03*
X200500000Y-63000000D03*
D29*
X207000000Y-60700000D03*
%TD*%
D30*
%TO.C,J1*%
X134500000Y-80950000D03*
X134500000Y-81950000D03*
X134500000Y-82950000D03*
X134500000Y-83950000D03*
X134500000Y-84950000D03*
X134500000Y-85950000D03*
D31*
X130625000Y-79650000D03*
X130625000Y-87250000D03*
%TD*%
D26*
%TO.C,C14*%
X157877500Y-97837500D03*
X157877500Y-99562500D03*
%TD*%
D14*
%TO.C,J3*%
X194930000Y-74235000D03*
X200710000Y-74235000D03*
D32*
X194620000Y-73170000D03*
X195420000Y-73170000D03*
D33*
X196570000Y-73170000D03*
X197570000Y-73170000D03*
X198070000Y-73170000D03*
X199070000Y-73170000D03*
D32*
X201020000Y-73170000D03*
X200220000Y-73170000D03*
D33*
X199570000Y-73170000D03*
X198570000Y-73170000D03*
X197070000Y-73170000D03*
X196070000Y-73170000D03*
D17*
X193500000Y-73735000D03*
X202140000Y-73735000D03*
D18*
X193500000Y-77915000D03*
X202140000Y-77915000D03*
%TD*%
D13*
%TO.C,C18*%
X219140000Y-97900000D03*
X220100000Y-97900000D03*
%TD*%
D34*
%TO.C,J2*%
X160750000Y-85950000D03*
X160750000Y-84950000D03*
X160750000Y-83950000D03*
X160750000Y-82950000D03*
X160750000Y-81950000D03*
X160750000Y-80950000D03*
D35*
X164625000Y-87250000D03*
X164625000Y-79650000D03*
%TD*%
D13*
%TO.C,C25*%
X186030000Y-104870000D03*
X186990000Y-104870000D03*
%TD*%
D26*
%TO.C,C9*%
X154175000Y-93437500D03*
X154175000Y-95162500D03*
%TD*%
D36*
%TO.C,D3*%
X211695000Y-86390000D03*
X215695000Y-86390000D03*
%TD*%
D13*
%TO.C,C29*%
X188900000Y-106840000D03*
X189860000Y-106840000D03*
%TD*%
D11*
%TO.C,C19*%
X210975000Y-95690000D03*
X213925000Y-95690000D03*
%TD*%
D19*
%TO.C,H4*%
X188650000Y-96340000D03*
%TD*%
D37*
%TO.C,C32*%
X186305000Y-109080000D03*
X187855000Y-109080000D03*
%TD*%
D13*
%TO.C,C30*%
X191770000Y-102900000D03*
X192730000Y-102900000D03*
%TD*%
D38*
%TO.C,U1*%
X197225000Y-103555000D03*
X197225000Y-103955000D03*
X197225000Y-104355000D03*
X197225000Y-104755000D03*
X197225000Y-105155000D03*
X197225000Y-105555000D03*
D39*
X197770000Y-106100000D03*
X198170000Y-106100000D03*
X198570000Y-106100000D03*
X198970000Y-106100000D03*
X199370000Y-106100000D03*
X199770000Y-106100000D03*
D38*
X200315000Y-105555000D03*
X200315000Y-105155000D03*
X200315000Y-104755000D03*
X200315000Y-104355000D03*
X200315000Y-103955000D03*
X200315000Y-103555000D03*
D39*
X199770000Y-103010000D03*
X199370000Y-103010000D03*
X198970000Y-103010000D03*
X198570000Y-103010000D03*
X198170000Y-103010000D03*
X197770000Y-103010000D03*
D40*
X198770000Y-104555000D03*
%TD*%
D13*
%TO.C,C31*%
X191770000Y-104870000D03*
X192730000Y-104870000D03*
%TD*%
%TO.C,C28*%
X188900000Y-104870000D03*
X189860000Y-104870000D03*
%TD*%
D41*
%TO.C,JP3*%
X196660000Y-83060000D03*
X197960000Y-83060000D03*
%TD*%
D27*
%TO.C,C6*%
X149537500Y-105800000D03*
X147812500Y-105800000D03*
%TD*%
D19*
%TO.C,H3*%
X188650000Y-89190000D03*
%TD*%
D27*
%TO.C,C7*%
X149537500Y-104200000D03*
X147812500Y-104200000D03*
%TD*%
D26*
%TO.C,C15*%
X141275000Y-104437500D03*
X141275000Y-106162500D03*
%TD*%
D27*
%TO.C,C5*%
X141537500Y-90500000D03*
X139812500Y-90500000D03*
%TD*%
D19*
%TO.C,H1*%
X188650000Y-74890000D03*
%TD*%
D20*
%TO.C,R6*%
X216220000Y-99900000D03*
X217240000Y-99900000D03*
%TD*%
D13*
%TO.C,C26*%
X186030000Y-106840000D03*
X186990000Y-106840000D03*
%TD*%
D11*
%TO.C,C21*%
X210975000Y-99040000D03*
X213925000Y-99040000D03*
%TD*%
D26*
%TO.C,C3*%
X154175000Y-98737500D03*
X154175000Y-100462500D03*
%TD*%
D37*
%TO.C,C33*%
X186305000Y-111590000D03*
X187855000Y-111590000D03*
%TD*%
D30*
%TO.C,J4*%
X134550000Y-92250000D03*
X134550000Y-93250000D03*
X134550000Y-94250000D03*
X134550000Y-95250000D03*
X134550000Y-96250000D03*
X134550000Y-97250000D03*
X134550000Y-98250000D03*
X134550000Y-99250000D03*
D31*
X130675000Y-90950000D03*
X130675000Y-100550000D03*
%TD*%
D27*
%TO.C,C10*%
X141537500Y-102800000D03*
X139812500Y-102800000D03*
%TD*%
D42*
%TO.C,U1*%
X162372500Y-99650000D03*
X162372500Y-99250000D03*
X162372500Y-98850000D03*
X162372500Y-98450000D03*
X162372500Y-98050000D03*
X162372500Y-97650000D03*
D43*
X161827500Y-97105000D03*
X161427500Y-97105000D03*
X161027500Y-97105000D03*
X160627500Y-97105000D03*
X160227500Y-97105000D03*
X159827500Y-97105000D03*
D42*
X159282500Y-97650000D03*
X159282500Y-98050000D03*
X159282500Y-98450000D03*
X159282500Y-98850000D03*
X159282500Y-99250000D03*
X159282500Y-99650000D03*
D43*
X159827500Y-100195000D03*
X160227500Y-100195000D03*
X160627500Y-100195000D03*
X161027500Y-100195000D03*
X161427500Y-100195000D03*
X161827500Y-100195000D03*
D44*
X160827500Y-98650000D03*
%TD*%
D13*
%TO.C,C23*%
X202360000Y-104870000D03*
X203320000Y-104870000D03*
%TD*%
D22*
%TO.C,C12*%
X139075000Y-101200000D03*
X139075000Y-99475000D03*
%TD*%
D19*
%TO.C,H2*%
X162950000Y-74450000D03*
%TD*%
D13*
%TO.C,C24*%
X186030000Y-102900000D03*
X186990000Y-102900000D03*
%TD*%
D19*
%TO.C,H3*%
X162950000Y-104950000D03*
%TD*%
D22*
%TO.C,C13*%
X161877500Y-95600000D03*
X161877500Y-93875000D03*
%TD*%
D45*
%TO.C,U5*%
X142900000Y-102325000D03*
X143400000Y-102325000D03*
X143900000Y-102325000D03*
X144400000Y-102325000D03*
X144900000Y-102325000D03*
X145400000Y-102325000D03*
X145900000Y-102325000D03*
X146400000Y-102325000D03*
X146900000Y-102325000D03*
X147400000Y-102325000D03*
X147900000Y-102325000D03*
X148400000Y-102325000D03*
X148900000Y-102325000D03*
X149400000Y-102325000D03*
X149900000Y-102325000D03*
X150400000Y-102325000D03*
D46*
X152325000Y-100400000D03*
X152325000Y-99900000D03*
X152325000Y-99400000D03*
X152325000Y-98900000D03*
X152325000Y-98400000D03*
X152325000Y-97900000D03*
X152325000Y-97400000D03*
X152325000Y-96900000D03*
X152325000Y-96400000D03*
X152325000Y-95900000D03*
X152325000Y-95400000D03*
X152325000Y-94900000D03*
X152325000Y-94400000D03*
X152325000Y-93900000D03*
X152325000Y-93400000D03*
X152325000Y-92900000D03*
D45*
X150400000Y-90975000D03*
X149900000Y-90975000D03*
X149400000Y-90975000D03*
X148900000Y-90975000D03*
X148400000Y-90975000D03*
X147900000Y-90975000D03*
X147400000Y-90975000D03*
X146900000Y-90975000D03*
X146400000Y-90975000D03*
X145900000Y-90975000D03*
X145400000Y-90975000D03*
X144900000Y-90975000D03*
X144400000Y-90975000D03*
X143900000Y-90975000D03*
X143400000Y-90975000D03*
X142900000Y-90975000D03*
D46*
X140975000Y-92900000D03*
X140975000Y-93400000D03*
X140975000Y-93900000D03*
X140975000Y-94400000D03*
X140975000Y-94900000D03*
X140975000Y-95400000D03*
X140975000Y-95900000D03*
X140975000Y-96400000D03*
X140975000Y-96900000D03*
X140975000Y-97400000D03*
X140975000Y-97900000D03*
X140975000Y-98400000D03*
X140975000Y-98900000D03*
X140975000Y-99400000D03*
X140975000Y-99900000D03*
X140975000Y-100400000D03*
%TD*%
D36*
%TO.C,D1*%
X211695000Y-81840000D03*
X215695000Y-81840000D03*
%TD*%
D47*
%TO.C,Y1*%
X144425000Y-104600000D03*
X139545000Y-104600000D03*
%TD*%
M02*
