%TF.GenerationSoftware,KiCad,Pcbnew,9.0.6+1*%
%TF.CreationDate,Date%
%TF.ProjectId,FCU3,46435533-2e6b-4696-9361-645f70636258,+ (Unreleased)*%
%TF.SameCoordinates,Original*%
%TF.FileFunction,Copper,L4,Bot*%
%TF.FilePolarity,Positive*%
%FSLAX46Y46*%
G04 Gerber Fmt 4.6, Leading zero omitted, Abs format (unit mm)*
G04 Created by KiCad*
%MOMM*%
%LPD*%
G01*
G04 APERTURE LIST*
%TA.AperFunction,EtchedComponent*%
%ADD10C,0.000000*%
%TD*%
%TA.AperFunction,ComponentPad*%
%ADD11C,0.450000*%
%TD*%
%TA.AperFunction,ComponentPad*%
%ADD12O,1.000000X2.100000*%
%TD*%
%TA.AperFunction,ComponentPad*%
%ADD13O,1.000000X1.800000*%
%TD*%
%TA.AperFunction,SMDPad,CuDef*%
%ADD14R,2.000000X2.000000*%
%TD*%
%TA.AperFunction,SMDPad,CuDef*%
%ADD15R,1.500000X1.000000*%
%TD*%
%TA.AperFunction,SMDPad,CuDef*%
%ADD16R,1.000000X1.500000*%
%TD*%
%TA.AperFunction,ViaPad*%
%ADD17C,0.550000*%
%TD*%
%TA.AperFunction,Conductor*%
%ADD18C,0.200000*%
%TD*%
%TA.AperFunction,Conductor*%
%ADD19C,0.600000*%
%TD*%
%TA.AperFunction,Conductor*%
%ADD20C,1.000000*%
%TD*%
%TA.AperFunction,Conductor*%
%ADD21C,0.800000*%
%TD*%
G04 APERTURE END LIST*
D10*
%TA.AperFunction,EtchedComponent*%
%TO.C,JP4*%
G36*
X153715200Y-69895000D02*
G01*
X153315200Y-69895000D01*
X153315200Y-69395000D01*
X153715200Y-69395000D01*
X153715200Y-69895000D01*
G37*
%TD.AperFunction*%
%TA.AperFunction,EtchedComponent*%
G36*
X154515200Y-69895000D02*
G01*
X154115200Y-69895000D01*
X154115200Y-69395000D01*
X154515200Y-69395000D01*
X154515200Y-69895000D01*
G37*
%TD.AperFunction*%
%TA.AperFunction,EtchedComponent*%
%TO.C,JP3*%
G36*
X143375000Y-102245000D02*
G01*
X142875000Y-102245000D01*
X142875000Y-101845000D01*
X143375000Y-101845000D01*
X143375000Y-102245000D01*
G37*
%TD.AperFunction*%
%TA.AperFunction,EtchedComponent*%
G36*
X143375000Y-103045000D02*
G01*
X142875000Y-103045000D01*
X142875000Y-102645000D01*
X143375000Y-102645000D01*
X143375000Y-103045000D01*
G37*
%TD.AperFunction*%
%TD*%
D11*
%TO.P,PS1,4,VOUT*%
%TO.N,+9V*%
X158925000Y-88375000D03*
X158137000Y-88375000D03*
X157400000Y-88375000D03*
X158925000Y-89025000D03*
X158137000Y-89025000D03*
X157400000Y-89025000D03*
%TO.P,PS1,5,SW*%
%TO.N,unconnected-(PS1-SW-Pad5)_4*%
X158925000Y-90325000D03*
%TO.N,unconnected-(PS1-SW-Pad5)_3*%
X158137000Y-90325000D03*
%TO.N,unconnected-(PS1-SW-Pad5)_6*%
X157400000Y-90325000D03*
%TO.N,unconnected-(PS1-SW-Pad5)_2*%
X158925000Y-90975000D03*
%TO.N,unconnected-(PS1-SW-Pad5)_5*%
X158137000Y-90975000D03*
%TO.N,unconnected-(PS1-SW-Pad5)_1*%
X157400000Y-90975000D03*
%TD*%
D12*
%TO.P,J3,SH1,SHIELD*%
%TO.N,PGND*%
X145500000Y-73625000D03*
%TO.P,J3,SH2,SHIELD*%
X136860000Y-73625000D03*
D13*
%TO.P,J3,SH3,SHIELD*%
X145500000Y-69445000D03*
%TO.P,J3,SH4,SHIELD*%
X136860000Y-69445000D03*
%TD*%
D14*
%TO.P,TP2,1,1*%
%TO.N,/Project Architecture/Microcontroller/SWDIO*%
X139100000Y-69500000D03*
%TD*%
D15*
%TO.P,JP4,1,A*%
%TO.N,PGND*%
X153915200Y-68995000D03*
%TO.P,JP4,2,B*%
%TO.N,DGND*%
X153915200Y-70295000D03*
%TD*%
D14*
%TO.P,TP4,1,1*%
%TO.N,DGND*%
X157400000Y-69395000D03*
%TD*%
%TO.P,TP1,1,1*%
%TO.N,+3V3*%
X147800000Y-69450000D03*
%TD*%
%TO.P,TP3,1,1*%
%TO.N,/Project Architecture/Microcontroller/SWCLK*%
X142950000Y-69550000D03*
%TD*%
%TO.P,TP5,1,1*%
%TO.N,Net-(U3-NRST)*%
X151050000Y-69450000D03*
%TD*%
D16*
%TO.P,JP3,1,A*%
%TO.N,DGND*%
X142475000Y-102445000D03*
%TO.P,JP3,2,B*%
%TO.N,AGND*%
X143775000Y-102445000D03*
%TD*%
D17*
%TO.N,PGND*%
X129500000Y-78700000D03*
X130400000Y-78700000D03*
X133725000Y-76270000D03*
X164750000Y-87150000D03*
X131400000Y-77900000D03*
X155115200Y-68115000D03*
X160637500Y-82837500D03*
X129850000Y-95250000D03*
X161562500Y-81912500D03*
X162300000Y-80250000D03*
X164475000Y-90525000D03*
X131400000Y-77000000D03*
X164750000Y-87950000D03*
X129800000Y-85900000D03*
X131400000Y-78700000D03*
X163800000Y-90050000D03*
X129850000Y-90100000D03*
%TO.N,DGND*%
X151600000Y-96800000D03*
X147850000Y-91800000D03*
X151250000Y-79550000D03*
X146105000Y-81500000D03*
X136550000Y-98695000D03*
X155115200Y-71240000D03*
X151690000Y-85700000D03*
X134650000Y-102950000D03*
X154550000Y-98105000D03*
X132350000Y-92195000D03*
X151525000Y-77525000D03*
X156200000Y-102845000D03*
X151690000Y-82950000D03*
X158500000Y-76500000D03*
X150187500Y-88307500D03*
X141375000Y-103145000D03*
X138125000Y-86695000D03*
X135100000Y-97000000D03*
X153300000Y-102845000D03*
X151250000Y-78750000D03*
X141375000Y-102395000D03*
%TO.N,+3V3*%
X152900000Y-84650000D03*
X135235000Y-92485000D03*
X135800000Y-99395000D03*
X150730000Y-86150000D03*
X151950000Y-86476000D03*
X148580000Y-81500000D03*
X135100000Y-95445000D03*
X145825000Y-102800000D03*
X153050000Y-82900000D03*
X151250000Y-100070000D03*
X151900000Y-72350000D03*
X137500000Y-88750000D03*
X152900000Y-83650000D03*
X152000000Y-95075000D03*
%TO.N,AGND*%
X134400000Y-87000000D03*
X144875000Y-102800000D03*
%TO.N,Net-(D2-A)*%
X147750000Y-100350000D03*
X152250000Y-93050000D03*
%TO.N,+VBAT*%
X131525000Y-80545000D03*
X130525000Y-81700000D03*
X163450000Y-93000000D03*
X131475000Y-81700000D03*
X161700000Y-93000000D03*
X161000000Y-92900000D03*
X164250000Y-92950000D03*
X130575000Y-80545000D03*
X162550000Y-93000000D03*
%TO.N,Net-(D4-A)*%
X149450000Y-100350000D03*
X152250000Y-92000000D03*
%TO.N,+9V*%
X161825000Y-85450000D03*
%TO.N,/Project Architecture/SBUS_TX*%
X154522500Y-94155000D03*
X158500000Y-75450000D03*
%TO.N,/Project Architecture/UART4_RX*%
X158500000Y-77500000D03*
X146650000Y-100745000D03*
%TO.N,/Project Architecture/UART4_TX*%
X158450000Y-78500000D03*
X146100000Y-98020000D03*
%TO.N,Net-(U3-NRST)*%
X143350000Y-95850000D03*
X143000000Y-92700000D03*
X147300000Y-89600000D03*
%TO.N,Net-(PS1-MODE)*%
X162250000Y-91025000D03*
X162650000Y-86025000D03*
%TO.N,/Project Architecture/Microcontroller/SWDIO*%
X139474000Y-80000000D03*
X140600000Y-88995000D03*
X136300000Y-89500000D03*
%TO.N,/Project Architecture/UART5_RX*%
X139100000Y-92900000D03*
X132500000Y-90195000D03*
%TO.N,/Project Architecture/I2C1_SDA*%
X138825000Y-96270000D03*
X135100000Y-93500000D03*
%TO.N,/Project Architecture/USB_-DATA*%
X142200000Y-75500000D03*
X140930000Y-75500000D03*
%TO.N,/Project Architecture/USB_CC1*%
X131250000Y-75595000D03*
X141545750Y-72739000D03*
%TO.N,/Project Architecture/USB_CC2*%
X131250000Y-74495000D03*
X140795750Y-72732500D03*
%TO.N,/Project Architecture/UART2_RX*%
X152600000Y-97115000D03*
X147650000Y-96800000D03*
%TO.N,/Project Architecture/ANA_ADC_VBAT*%
X136300000Y-90250003D03*
X143450000Y-97200000D03*
%TO.N,/Project Architecture/SPI1_SCK*%
X146750000Y-95300000D03*
X151987569Y-87487569D03*
X144980000Y-85125000D03*
%TO.N,/Project Architecture/SPI1_SDO*%
X145580000Y-85900000D03*
X146900000Y-93450000D03*
%TO.N,/Project Architecture/DIG_IMU_CS*%
X147250000Y-96100000D03*
X145055000Y-83950000D03*
%TO.N,/Project Architecture/SPI1_SDI*%
X151018413Y-87268413D03*
X149980000Y-84351000D03*
%TO.N,/Project Architecture/DIG_IMU_EXTI*%
X148980000Y-82550000D03*
X147800000Y-93300000D03*
%TO.N,/Project Architecture/ESC_SIG_M4*%
X144050000Y-89100000D03*
X137000000Y-82175000D03*
%TO.N,/Project Architecture/ESC_SIG_M3*%
X145600000Y-89000000D03*
X135500000Y-82200000D03*
%TO.N,/Project Architecture/UART1_RX*%
X141250000Y-90500000D03*
X132200000Y-79200000D03*
%TO.N,/Project Architecture/Microcontroller/SWCLK*%
X140050000Y-80650000D03*
%TO.N,/Project Architecture/ANA_ADC_CURR*%
X132300000Y-83500000D03*
X144100000Y-97700000D03*
%TO.N,/Project Architecture/ESC_SIG_M2*%
X138899000Y-82172500D03*
X143127500Y-86272500D03*
%TO.N,/Project Architecture/ESC_SIG_M1*%
X135200000Y-79000000D03*
X142900000Y-89300000D03*
%TD*%
D18*
%TO.N,PGND*%
X136872500Y-69432500D02*
X136860000Y-69445000D01*
X129800000Y-90050000D02*
X129850000Y-90100000D01*
D19*
X155115200Y-68115000D02*
X154795200Y-68115000D01*
D18*
X145487500Y-69432500D02*
X145500000Y-69445000D01*
X129800000Y-85900000D02*
X129800000Y-90050000D01*
X129850000Y-90100000D02*
X129850000Y-95250000D01*
D19*
X154795200Y-68115000D02*
X153915200Y-68995000D01*
D18*
%TO.N,DGND*%
X141775000Y-103145000D02*
X142475000Y-102445000D01*
D19*
X154860200Y-71240000D02*
X153915200Y-70295000D01*
D18*
X142425000Y-102395000D02*
X142475000Y-102445000D01*
X151250000Y-79550000D02*
X151250000Y-79600000D01*
D20*
X151250000Y-77800000D02*
X151250000Y-78750000D01*
X151525000Y-77525000D02*
X151250000Y-77800000D01*
D18*
X155115200Y-71240000D02*
X155555000Y-71240000D01*
X141375000Y-103145000D02*
X141775000Y-103145000D01*
X141375000Y-102395000D02*
X142425000Y-102395000D01*
D20*
X153915200Y-70295000D02*
X153915200Y-75134800D01*
D18*
X155555000Y-71240000D02*
X157400000Y-69395000D01*
D20*
X153915200Y-75134800D02*
X151525000Y-77525000D01*
D19*
X155115200Y-71240000D02*
X154860200Y-71240000D01*
D20*
X151250000Y-78750000D02*
X151250000Y-79550000D01*
D18*
%TO.N,+3V3*%
X147800000Y-69450000D02*
X150700000Y-72350000D01*
X135235000Y-92485000D02*
X135065000Y-92485000D01*
X150700000Y-72350000D02*
X151900000Y-72350000D01*
X135065000Y-92485000D02*
X134450000Y-93100000D01*
X134450000Y-94795000D02*
X135100000Y-95445000D01*
X134450000Y-93100000D02*
X134450000Y-94795000D01*
%TO.N,AGND*%
X144130000Y-102800000D02*
X143775000Y-102445000D01*
X142199000Y-94599000D02*
X139300000Y-91700000D01*
X134400000Y-89300000D02*
X134400000Y-87000000D01*
X139300000Y-91700000D02*
X136800000Y-91700000D01*
X136800000Y-91700000D02*
X134400000Y-89300000D01*
X144875000Y-101775000D02*
X142199000Y-99099000D01*
X144875000Y-102800000D02*
X144875000Y-101775000D01*
X142199000Y-99099000D02*
X142199000Y-94599000D01*
X144875000Y-102800000D02*
X144130000Y-102800000D01*
%TO.N,Net-(D2-A)*%
X153250000Y-97450000D02*
X153250000Y-94050000D01*
X147750000Y-100350000D02*
X150100000Y-98000000D01*
X150100000Y-98000000D02*
X152700000Y-98000000D01*
X153250000Y-94050000D02*
X152250000Y-93050000D01*
X152700000Y-98000000D02*
X153250000Y-97450000D01*
%TO.N,Net-(D4-A)*%
X150700000Y-99100000D02*
X152400000Y-99100000D01*
X149450000Y-100350000D02*
X150700000Y-99100000D01*
X153900000Y-97600000D02*
X153900000Y-93650000D01*
X153900000Y-93650000D02*
X152250000Y-92000000D01*
X152400000Y-99100000D02*
X153900000Y-97600000D01*
%TO.N,+9V*%
X158925000Y-88387500D02*
X157350000Y-88387500D01*
D21*
X157350000Y-89037500D02*
X156562500Y-89037500D01*
X158137000Y-88387500D02*
X158137000Y-89037500D01*
X158925000Y-88387500D02*
X159637500Y-88387500D01*
X157350000Y-88387500D02*
X156487500Y-88387500D01*
D18*
X158925000Y-87675000D02*
X158900000Y-87650000D01*
D21*
X158137000Y-88387500D02*
X158137000Y-87537000D01*
D18*
X159650000Y-88400000D02*
X159637500Y-88387500D01*
X156487500Y-88387500D02*
X156450000Y-88350000D01*
D21*
X158925000Y-89037500D02*
X159687500Y-89037500D01*
X157350000Y-89037500D02*
X157350000Y-88387500D01*
D18*
X159687500Y-89037500D02*
X159700000Y-89050000D01*
D21*
X158925000Y-88387500D02*
X158925000Y-87675000D01*
D18*
X157350000Y-89037500D02*
X158925000Y-89037500D01*
D21*
X157350000Y-88387500D02*
X157350000Y-87650000D01*
D18*
X156562500Y-89037500D02*
X156550000Y-89050000D01*
X158137000Y-87537000D02*
X158100000Y-87500000D01*
D21*
X158925000Y-89037500D02*
X158925000Y-88387500D01*
D18*
%TO.N,/Project Architecture/SBUS_TX*%
X159200000Y-93200000D02*
X155477500Y-93200000D01*
X161100000Y-80350000D02*
X162450000Y-81700000D01*
X161250000Y-83500000D02*
X161250000Y-91150000D01*
X161250000Y-91150000D02*
X159200000Y-93200000D01*
X162450000Y-82300000D02*
X161250000Y-83500000D01*
X158500000Y-75450000D02*
X160050000Y-75450000D01*
X162450000Y-81700000D02*
X162450000Y-82300000D01*
X160050000Y-75450000D02*
X161100000Y-76500000D01*
X155477500Y-93200000D02*
X154522500Y-94155000D01*
X161100000Y-76500000D02*
X161100000Y-80350000D01*
%TO.N,/Project Architecture/UART4_RX*%
X145524000Y-92426000D02*
X148800000Y-89150000D01*
X154899000Y-81101000D02*
X158500000Y-77500000D01*
X148800000Y-89150000D02*
X152900000Y-89150000D01*
X146650000Y-100745000D02*
X145524000Y-99619000D01*
X152900000Y-89150000D02*
X154899000Y-87151000D01*
X145524000Y-99619000D02*
X145524000Y-92426000D01*
X154899000Y-87151000D02*
X154899000Y-81101000D01*
%TO.N,/Project Architecture/UART4_TX*%
X158450000Y-78500000D02*
X155300000Y-81650000D01*
X148817100Y-89700000D02*
X146100000Y-92417100D01*
X155300000Y-88100000D02*
X153700000Y-89700000D01*
X146100000Y-92417100D02*
X146100000Y-98020000D01*
X155300000Y-81650000D02*
X155300000Y-88100000D01*
X153700000Y-89700000D02*
X148817100Y-89700000D01*
%TO.N,Net-(U3-NRST)*%
X151050000Y-70250000D02*
X151050000Y-69450000D01*
X143350000Y-93050000D02*
X143000000Y-92700000D01*
X143900000Y-85034588D02*
X143900000Y-82350000D01*
X152750000Y-71950000D02*
X151050000Y-70250000D01*
X152750000Y-73500000D02*
X152750000Y-71950000D01*
X143350000Y-95850000D02*
X143350000Y-93050000D01*
X147300000Y-89600000D02*
X147300000Y-88434588D01*
X143900000Y-82350000D02*
X152750000Y-73500000D01*
X147300000Y-88434588D02*
X143900000Y-85034588D01*
%TO.N,/Project Architecture/Microcontroller/SWDIO*%
X136300000Y-89500000D02*
X140095000Y-89500000D01*
X140095000Y-89500000D02*
X140600000Y-88995000D01*
X139300000Y-69500000D02*
X142776000Y-72976000D01*
X142776000Y-76698000D02*
X139474000Y-80000000D01*
X139100000Y-69500000D02*
X139300000Y-69500000D01*
X142776000Y-72976000D02*
X142776000Y-76698000D01*
%TO.N,/Project Architecture/UART5_RX*%
X137000000Y-92900000D02*
X134300000Y-90200000D01*
X139100000Y-92900000D02*
X137000000Y-92900000D01*
X132505000Y-90200000D02*
X132500000Y-90195000D01*
X134300000Y-90200000D02*
X132505000Y-90200000D01*
%TO.N,/Project Architecture/I2C1_SDA*%
X137820000Y-96270000D02*
X138825000Y-96270000D01*
X135100000Y-93550000D02*
X137820000Y-96270000D01*
X135100000Y-93500000D02*
X135100000Y-93550000D01*
%TO.N,/Project Architecture/USB_-DATA*%
X142200000Y-75500000D02*
X140930000Y-75500000D01*
%TO.N,/Project Architecture/USB_CC1*%
X141545750Y-73154250D02*
X139150000Y-75550000D01*
X141600750Y-72684000D02*
X141545750Y-72739000D01*
X141545750Y-72739000D02*
X141545750Y-73154250D01*
X131295000Y-75550000D02*
X131250000Y-75595000D01*
X139150000Y-75550000D02*
X131295000Y-75550000D01*
%TO.N,/Project Architecture/USB_CC2*%
X133860000Y-75100000D02*
X133255000Y-74495000D01*
X133255000Y-74495000D02*
X131250000Y-74495000D01*
X138428250Y-75100000D02*
X133860000Y-75100000D01*
X140795750Y-72732500D02*
X138428250Y-75100000D01*
%TO.N,/Project Architecture/UART2_RX*%
X152600000Y-96650000D02*
X151950000Y-96000000D01*
X152600000Y-97115000D02*
X152600000Y-96650000D01*
X151950000Y-96000000D02*
X150850000Y-96000000D01*
X150850000Y-96000000D02*
X150050000Y-96800000D01*
X150050000Y-96800000D02*
X147650000Y-96800000D01*
%TO.N,/Project Architecture/ANA_ADC_VBAT*%
X142600000Y-96350000D02*
X143450000Y-97200000D01*
X142600000Y-93200000D02*
X142600000Y-96350000D01*
X136300000Y-90250003D02*
X139650003Y-90250003D01*
X139650003Y-90250003D02*
X142600000Y-93200000D01*
%TO.N,/Project Architecture/SPI1_SCK*%
X150250000Y-87550000D02*
X150250000Y-87300000D01*
X150250000Y-87300000D02*
X148075000Y-85125000D01*
X148075000Y-85125000D02*
X144980000Y-85125000D01*
X150887569Y-88187569D02*
X150250000Y-87550000D01*
X151287569Y-88187569D02*
X150887569Y-88187569D01*
X151987569Y-87487569D02*
X151287569Y-88187569D01*
%TO.N,/Project Architecture/SPI1_SDI*%
X149980000Y-86230000D02*
X149980000Y-84351000D01*
X151018413Y-87268413D02*
X149980000Y-86230000D01*
%TO.N,/Project Architecture/ESC_SIG_M4*%
X144050000Y-89063174D02*
X144050000Y-89100000D01*
X137000000Y-82175000D02*
X137161826Y-82175000D01*
X137161826Y-82175000D02*
X144050000Y-89063174D01*
%TO.N,/Project Architecture/ESC_SIG_M3*%
X144795000Y-88995000D02*
X145595000Y-88995000D01*
X145595000Y-88995000D02*
X145600000Y-89000000D01*
X135500000Y-82200000D02*
X136200000Y-81500000D01*
X136200000Y-81500000D02*
X137300000Y-81500000D01*
X137300000Y-81500000D02*
X144795000Y-88995000D01*
%TO.N,/Project Architecture/UART1_RX*%
X131400000Y-83000000D02*
X132200000Y-82200000D01*
X141250000Y-88550000D02*
X138545000Y-85845000D01*
X133145000Y-85845000D02*
X131400000Y-84100000D01*
X131400000Y-84100000D02*
X131400000Y-83000000D01*
X132200000Y-82200000D02*
X132200000Y-79200000D01*
X141250000Y-90500000D02*
X141250000Y-88550000D01*
X138545000Y-85845000D02*
X133145000Y-85845000D01*
%TO.N,/Project Architecture/Microcontroller/SWCLK*%
X143300000Y-69450000D02*
X143697100Y-69450000D01*
X143300000Y-69450000D02*
X143300000Y-77400000D01*
X143300000Y-77400000D02*
X140050000Y-80650000D01*
%TO.N,/Project Architecture/ANA_ADC_CURR*%
X143576000Y-92708900D02*
X143576000Y-92461412D01*
X143238588Y-92124000D02*
X142424000Y-92124000D01*
X141651000Y-89968706D02*
X141651000Y-87951000D01*
X141651000Y-87951000D02*
X138126000Y-84426000D01*
X143576000Y-92461412D02*
X143238588Y-92124000D01*
X142000000Y-90317706D02*
X141651000Y-89968706D01*
X138126000Y-84426000D02*
X133226000Y-84426000D01*
X144100000Y-97700000D02*
X144100000Y-93400000D01*
X144100000Y-93400000D02*
X143751000Y-93051000D01*
X142424000Y-92124000D02*
X142000000Y-91700000D01*
X143751000Y-92883900D02*
X143576000Y-92708900D01*
X143751000Y-93051000D02*
X143751000Y-92883900D01*
X133226000Y-84426000D02*
X132300000Y-83500000D01*
X142000000Y-91700000D02*
X142000000Y-90317706D01*
%TO.N,/Project Architecture/ESC_SIG_M2*%
X139027500Y-82172500D02*
X138899000Y-82172500D01*
X143127500Y-86272500D02*
X139027500Y-82172500D01*
%TO.N,/Project Architecture/ESC_SIG_M1*%
X146176000Y-89238588D02*
X145714588Y-89700000D01*
X136482900Y-78800000D02*
X146176000Y-88493100D01*
X135200000Y-79000000D02*
X135400000Y-78800000D01*
X146176000Y-88493100D02*
X146176000Y-89238588D01*
X145714588Y-89700000D02*
X143300000Y-89700000D01*
X135400000Y-78800000D02*
X136482900Y-78800000D01*
X143300000Y-89700000D02*
X142900000Y-89300000D01*
%TD*%
%TA.AperFunction,Conductor*%
%TO.N,+9V*%
G36*
X160892539Y-83519685D02*
G01*
X160938294Y-83572489D01*
X160949500Y-83624000D01*
X160949500Y-90974167D01*
X160929815Y-91041206D01*
X160913181Y-91061848D01*
X159111848Y-92863181D01*
X159050525Y-92896666D01*
X159024167Y-92899500D01*
X155474000Y-92899500D01*
X155406961Y-92879815D01*
X155361206Y-92827011D01*
X155350000Y-92775500D01*
X155350000Y-90275565D01*
X157024500Y-90275565D01*
X157024500Y-90374435D01*
X157050090Y-90469938D01*
X157050091Y-90469939D01*
X157050091Y-90469940D01*
X157099526Y-90555563D01*
X157106282Y-90562319D01*
X157139767Y-90623642D01*
X157134783Y-90693334D01*
X157106282Y-90737681D01*
X157099526Y-90744436D01*
X157050091Y-90830059D01*
X157050091Y-90830060D01*
X157050090Y-90830062D01*
X157024500Y-90925565D01*
X157024500Y-91024435D01*
X157050090Y-91119938D01*
X157099525Y-91205562D01*
X157169438Y-91275475D01*
X157255062Y-91324910D01*
X157350565Y-91350500D01*
X157350567Y-91350500D01*
X157449432Y-91350500D01*
X157449435Y-91350500D01*
X157544938Y-91324910D01*
X157630562Y-91275475D01*
X157680819Y-91225218D01*
X157742142Y-91191733D01*
X157811834Y-91196717D01*
X157856181Y-91225218D01*
X157906438Y-91275475D01*
X157992062Y-91324910D01*
X158087565Y-91350500D01*
X158087567Y-91350500D01*
X158186432Y-91350500D01*
X158186435Y-91350500D01*
X158281938Y-91324910D01*
X158367562Y-91275475D01*
X158437475Y-91205562D01*
X158437475Y-91205561D01*
X158443222Y-91199815D01*
X158445754Y-91202347D01*
X158488791Y-91170774D01*
X158558528Y-91166463D01*
X158618580Y-91200012D01*
X158618778Y-91199815D01*
X158619474Y-91200511D01*
X158619524Y-91200539D01*
X158619666Y-91200703D01*
X158624525Y-91205562D01*
X158694438Y-91275475D01*
X158780062Y-91324910D01*
X158875565Y-91350500D01*
X158875567Y-91350500D01*
X158974432Y-91350500D01*
X158974435Y-91350500D01*
X159069938Y-91324910D01*
X159155562Y-91275475D01*
X159225475Y-91205562D01*
X159274910Y-91119938D01*
X159300500Y-91024435D01*
X159300500Y-90925565D01*
X159274910Y-90830062D01*
X159225475Y-90744438D01*
X159218718Y-90737681D01*
X159185233Y-90676358D01*
X159190217Y-90606666D01*
X159218718Y-90562319D01*
X159225475Y-90555562D01*
X159274910Y-90469938D01*
X159300500Y-90374435D01*
X159300500Y-90275565D01*
X159274910Y-90180062D01*
X159225475Y-90094438D01*
X159155562Y-90024525D01*
X159069938Y-89975090D01*
X159069936Y-89975089D01*
X159062431Y-89971981D01*
X159062941Y-89970749D01*
X159010499Y-89938784D01*
X158979971Y-89875937D01*
X158988266Y-89806561D01*
X159032752Y-89752684D01*
X159078063Y-89733757D01*
X159136476Y-89722138D01*
X159254891Y-89673088D01*
X158765901Y-89184099D01*
X158651477Y-89069675D01*
X158635946Y-89069675D01*
X158608835Y-89084479D01*
X158582477Y-89087313D01*
X158479523Y-89087313D01*
X158458277Y-89081074D01*
X158436189Y-89079495D01*
X158422132Y-89070461D01*
X158419455Y-89069675D01*
X158410523Y-89069675D01*
X158383780Y-89096418D01*
X158322457Y-89129903D01*
X158252765Y-89124919D01*
X158208418Y-89096418D01*
X158207710Y-89095710D01*
X158221776Y-89081645D01*
X158237000Y-89044891D01*
X158237000Y-89005109D01*
X158825000Y-89005109D01*
X158825000Y-89044891D01*
X158840224Y-89081645D01*
X158868355Y-89109776D01*
X158905109Y-89125000D01*
X158944891Y-89125000D01*
X158981645Y-89109776D01*
X159009776Y-89081645D01*
X159025000Y-89044891D01*
X159025000Y-89005109D01*
X159009776Y-88968355D01*
X158981645Y-88940224D01*
X158944891Y-88925000D01*
X158905109Y-88925000D01*
X158868355Y-88940224D01*
X158840224Y-88968355D01*
X158825000Y-89005109D01*
X158237000Y-89005109D01*
X158221776Y-88968355D01*
X158193645Y-88940224D01*
X158156891Y-88925000D01*
X158117109Y-88925000D01*
X158080355Y-88940224D01*
X158052224Y-88968355D01*
X158037000Y-89005109D01*
X158037000Y-89044891D01*
X158052224Y-89081645D01*
X158066289Y-89095710D01*
X158065582Y-89096418D01*
X158004259Y-89129903D01*
X157942101Y-89127457D01*
X157817539Y-89089895D01*
X157802979Y-89080387D01*
X157786300Y-89075490D01*
X157769185Y-89061698D01*
X157766137Y-89061698D01*
X157710019Y-89092341D01*
X157683661Y-89095175D01*
X157648023Y-89095175D01*
X157559099Y-89184099D01*
X157070107Y-89673088D01*
X157188524Y-89722138D01*
X157188532Y-89722140D01*
X157246936Y-89733758D01*
X157308847Y-89766142D01*
X157343421Y-89826858D01*
X157339682Y-89896628D01*
X157298816Y-89953300D01*
X157262338Y-89971424D01*
X157262569Y-89971981D01*
X157255059Y-89975091D01*
X157169436Y-90024526D01*
X157099526Y-90094436D01*
X157050091Y-90180059D01*
X157050091Y-90180060D01*
X157050090Y-90180062D01*
X157024500Y-90275565D01*
X155350000Y-90275565D01*
X155350000Y-88526333D01*
X155369685Y-88459294D01*
X155386319Y-88438652D01*
X155449971Y-88375000D01*
X155521382Y-88303589D01*
X156675000Y-88303589D01*
X156675000Y-88446410D01*
X156702859Y-88586466D01*
X156702862Y-88586478D01*
X156730229Y-88652548D01*
X156737698Y-88722017D01*
X156730229Y-88747452D01*
X156702862Y-88813521D01*
X156702859Y-88813533D01*
X156675000Y-88953589D01*
X156675000Y-89096410D01*
X156702859Y-89236466D01*
X156702862Y-89236478D01*
X156751909Y-89354890D01*
X157101692Y-89005109D01*
X157300000Y-89005109D01*
X157300000Y-89044891D01*
X157315224Y-89081645D01*
X157343355Y-89109776D01*
X157380109Y-89125000D01*
X157419891Y-89125000D01*
X157456645Y-89109776D01*
X157484776Y-89081645D01*
X157500000Y-89044891D01*
X157500000Y-89005109D01*
X157484776Y-88968355D01*
X157456645Y-88940224D01*
X157419891Y-88925000D01*
X157380109Y-88925000D01*
X157343355Y-88940224D01*
X157315224Y-88968355D01*
X157300000Y-89005109D01*
X157101692Y-89005109D01*
X157240901Y-88865901D01*
X157406802Y-88700000D01*
X158130198Y-88700000D01*
X158137000Y-88706802D01*
X158143802Y-88700000D01*
X158918198Y-88700000D01*
X159084099Y-88865901D01*
X159573088Y-89354891D01*
X159622138Y-89236475D01*
X159622140Y-89236467D01*
X159649999Y-89096410D01*
X159650000Y-89096407D01*
X159650000Y-88953593D01*
X159649999Y-88953589D01*
X159622140Y-88813532D01*
X159622139Y-88813528D01*
X159594770Y-88747454D01*
X159587301Y-88677985D01*
X159594770Y-88652546D01*
X159622139Y-88586471D01*
X159622140Y-88586467D01*
X159649999Y-88446410D01*
X159650000Y-88446407D01*
X159650000Y-88303593D01*
X159649999Y-88303589D01*
X159622140Y-88163532D01*
X159622138Y-88163524D01*
X159573088Y-88045107D01*
X159084099Y-88534099D01*
X158918198Y-88700000D01*
X158143802Y-88700000D01*
X158137000Y-88693198D01*
X158130198Y-88700000D01*
X157406802Y-88700000D01*
X157061911Y-88355109D01*
X157300000Y-88355109D01*
X157300000Y-88394891D01*
X157315224Y-88431645D01*
X157343355Y-88459776D01*
X157380109Y-88475000D01*
X157419891Y-88475000D01*
X157456645Y-88459776D01*
X157484776Y-88431645D01*
X157500000Y-88394891D01*
X157500000Y-88355109D01*
X157484776Y-88318355D01*
X157456645Y-88290224D01*
X157419891Y-88275000D01*
X157380109Y-88275000D01*
X157343355Y-88290224D01*
X157315224Y-88318355D01*
X157300000Y-88355109D01*
X157061911Y-88355109D01*
X156751909Y-88045107D01*
X156702864Y-88163514D01*
X156702859Y-88163530D01*
X156675000Y-88303589D01*
X155521382Y-88303589D01*
X155540460Y-88284511D01*
X155580022Y-88215988D01*
X155600500Y-88139562D01*
X155600500Y-88060438D01*
X155600500Y-87726909D01*
X157070107Y-87726909D01*
X157648023Y-88304825D01*
X157888977Y-88304825D01*
X157890220Y-88303582D01*
X157951543Y-88270097D01*
X158021235Y-88275081D01*
X158065582Y-88303582D01*
X158066289Y-88304289D01*
X158052224Y-88318355D01*
X158037000Y-88355109D01*
X158037000Y-88394891D01*
X158052224Y-88431645D01*
X158080355Y-88459776D01*
X158117109Y-88475000D01*
X158156891Y-88475000D01*
X158193645Y-88459776D01*
X158221776Y-88431645D01*
X158237000Y-88394891D01*
X158237000Y-88355109D01*
X158825000Y-88355109D01*
X158825000Y-88394891D01*
X158840224Y-88431645D01*
X158868355Y-88459776D01*
X158905109Y-88475000D01*
X158944891Y-88475000D01*
X158981645Y-88459776D01*
X159009776Y-88431645D01*
X159025000Y-88394891D01*
X159025000Y-88355109D01*
X159009776Y-88318355D01*
X158981645Y-88290224D01*
X158944891Y-88275000D01*
X158905109Y-88275000D01*
X158868355Y-88290224D01*
X158840224Y-88318355D01*
X158825000Y-88355109D01*
X158237000Y-88355109D01*
X158221776Y-88318355D01*
X158207710Y-88304289D01*
X158208418Y-88303582D01*
X158269741Y-88270097D01*
X158325907Y-88270899D01*
X158495113Y-88312802D01*
X158582362Y-88312802D01*
X158582362Y-88317397D01*
X158625811Y-88320505D01*
X158641091Y-88330325D01*
X158651477Y-88330325D01*
X158765901Y-88215901D01*
X159254891Y-87726910D01*
X159136478Y-87677862D01*
X159136466Y-87677859D01*
X158996410Y-87650000D01*
X158853589Y-87650000D01*
X158713532Y-87677859D01*
X158713520Y-87677862D01*
X158578452Y-87733809D01*
X158508983Y-87741278D01*
X158483548Y-87733809D01*
X158348479Y-87677862D01*
X158348467Y-87677859D01*
X158208410Y-87650000D01*
X158065589Y-87650000D01*
X157925532Y-87677859D01*
X157925520Y-87677862D01*
X157815952Y-87723247D01*
X157746483Y-87730716D01*
X157721048Y-87723247D01*
X157611479Y-87677862D01*
X157611467Y-87677859D01*
X157471410Y-87650000D01*
X157328589Y-87650000D01*
X157188530Y-87677859D01*
X157188514Y-87677864D01*
X157070107Y-87726909D01*
X155600500Y-87726909D01*
X155600500Y-83624000D01*
X155620185Y-83556961D01*
X155672989Y-83511206D01*
X155724500Y-83500000D01*
X160825500Y-83500000D01*
X160892539Y-83519685D01*
G37*
%TD.AperFunction*%
%TD*%
M02*
