%TF.GenerationSoftware,KiCad,Pcbnew,9.0.6+1*%
%TF.CreationDate,Date%
%TF.ProjectId,FCU3,46435533-2e6b-4696-9361-645f70636258,+ (Unreleased)*%
%TF.SameCoordinates,Original*%
%TF.FileFunction,Legend,Top*%
%TF.FilePolarity,Positive*%
%FSLAX46Y46*%
G04 Gerber Fmt 4.6, Leading zero omitted, Abs format (unit mm)*
G04 Created by KiCad*
%MOMM*%
%LPD*%
G01*
G04 APERTURE LIST*
G04 Aperture macros list*
%AMRoundRect*
0 Rectangle with rounded corners*
0 $1 Rounding radius*
0 $2 $3 $4 $5 $6 $7 $8 $9 X,Y pos of 4 corners*
0 Add a 4 corners polygon primitive as box body*
4,1,4,$2,$3,$4,$5,$6,$7,$8,$9,$2,$3,0*
0 Add four circle primitives for the rounded corners*
1,1,$1+$1,$2,$3*
1,1,$1+$1,$4,$5*
1,1,$1+$1,$6,$7*
1,1,$1+$1,$8,$9*
0 Add four rect primitives between the rounded corners*
20,1,$1+$1,$2,$3,$4,$5,0*
20,1,$1+$1,$4,$5,$6,$7,0*
20,1,$1+$1,$6,$7,$8,$9,0*
20,1,$1+$1,$8,$9,$2,$3,0*%
G04 Aperture macros list end*
%ADD10C,0.150000*%
%ADD11C,0.120000*%
%ADD12C,0.127000*%
%ADD13C,0.200000*%
%ADD14C,0.282841*%
%ADD15C,0.010000*%
%ADD16RoundRect,0.262500X-0.325000X-0.262500X0.325000X-0.262500X0.325000X0.262500X-0.325000X0.262500X0*%
%ADD17C,0.750000*%
%ADD18RoundRect,0.102000X0.300000X0.575000X-0.300000X0.575000X-0.300000X-0.575000X0.300000X-0.575000X0*%
%ADD19RoundRect,0.102000X0.150000X0.575000X-0.150000X0.575000X-0.150000X-0.575000X0.150000X-0.575000X0*%
%ADD20O,1.204000X2.304000*%
%ADD21O,1.204000X2.004000*%
%ADD22C,5.700000*%
%ADD23RoundRect,0.263889X0.686111X-1.036111X0.686111X1.036111X-0.686111X1.036111X-0.686111X-1.036111X0*%
%ADD24RoundRect,0.262500X0.262500X-0.325000X0.262500X0.325000X-0.262500X0.325000X-0.262500X-0.325000X0*%
%ADD25RoundRect,0.263889X-0.686111X1.036111X-0.686111X-1.036111X0.686111X-1.036111X0.686111X1.036111X0*%
%ADD26C,1.000000*%
%ADD27RoundRect,0.102000X0.450000X0.600000X-0.450000X0.600000X-0.450000X-0.600000X0.450000X-0.600000X0*%
%ADD28RoundRect,0.262500X-0.262500X0.325000X-0.262500X-0.325000X0.262500X-0.325000X0.262500X0.325000X0*%
%ADD29RoundRect,0.262500X0.325000X0.262500X-0.325000X0.262500X-0.325000X-0.262500X0.325000X-0.262500X0*%
%ADD30RoundRect,0.102000X-0.775000X0.300000X-0.775000X-0.300000X0.775000X-0.300000X0.775000X0.300000X0*%
%ADD31RoundRect,0.102000X-0.900000X0.600000X-0.900000X-0.600000X0.900000X-0.600000X0.900000X0.600000X0*%
%ADD32RoundRect,0.102000X0.775000X-0.300000X0.775000X0.300000X-0.775000X0.300000X-0.775000X-0.300000X0*%
%ADD33RoundRect,0.102000X0.900000X-0.600000X0.900000X0.600000X-0.900000X0.600000X-0.900000X-0.600000X0*%
%ADD34RoundRect,0.053000X0.369000X0.159000X-0.369000X0.159000X-0.369000X-0.159000X0.369000X-0.159000X0*%
%ADD35RoundRect,0.053000X0.159000X0.369000X-0.159000X0.369000X-0.159000X-0.369000X0.159000X-0.369000X0*%
%ADD36RoundRect,0.102000X0.770000X0.850000X-0.770000X0.850000X-0.770000X-0.850000X0.770000X-0.850000X0*%
%ADD37RoundRect,0.100000X0.100000X-0.725000X0.100000X0.725000X-0.100000X0.725000X-0.100000X-0.725000X0*%
%ADD38RoundRect,0.100000X0.725000X-0.100000X0.725000X0.100000X-0.725000X0.100000X-0.725000X-0.100000X0*%
%ADD39C,1.600000*%
G04 APERTURE END LIST*
D10*
X153820833Y-90529580D02*
X153773214Y-90577200D01*
X153773214Y-90577200D02*
X153630357Y-90624819D01*
X153630357Y-90624819D02*
X153535119Y-90624819D01*
X153535119Y-90624819D02*
X153392262Y-90577200D01*
X153392262Y-90577200D02*
X153297024Y-90481961D01*
X153297024Y-90481961D02*
X153249405Y-90386723D01*
X153249405Y-90386723D02*
X153201786Y-90196247D01*
X153201786Y-90196247D02*
X153201786Y-90053390D01*
X153201786Y-90053390D02*
X153249405Y-89862914D01*
X153249405Y-89862914D02*
X153297024Y-89767676D01*
X153297024Y-89767676D02*
X153392262Y-89672438D01*
X153392262Y-89672438D02*
X153535119Y-89624819D01*
X153535119Y-89624819D02*
X153630357Y-89624819D01*
X153630357Y-89624819D02*
X153773214Y-89672438D01*
X153773214Y-89672438D02*
X153820833Y-89720057D01*
X154677976Y-89958152D02*
X154677976Y-90624819D01*
X154439881Y-89577200D02*
X154201786Y-90291485D01*
X154201786Y-90291485D02*
X154820833Y-90291485D01*
X150716666Y-78404819D02*
X150716666Y-79119104D01*
X150716666Y-79119104D02*
X150669047Y-79261961D01*
X150669047Y-79261961D02*
X150573809Y-79357200D01*
X150573809Y-79357200D02*
X150430952Y-79404819D01*
X150430952Y-79404819D02*
X150335714Y-79404819D01*
X151621428Y-78404819D02*
X151430952Y-78404819D01*
X151430952Y-78404819D02*
X151335714Y-78452438D01*
X151335714Y-78452438D02*
X151288095Y-78500057D01*
X151288095Y-78500057D02*
X151192857Y-78642914D01*
X151192857Y-78642914D02*
X151145238Y-78833390D01*
X151145238Y-78833390D02*
X151145238Y-79214342D01*
X151145238Y-79214342D02*
X151192857Y-79309580D01*
X151192857Y-79309580D02*
X151240476Y-79357200D01*
X151240476Y-79357200D02*
X151335714Y-79404819D01*
X151335714Y-79404819D02*
X151526190Y-79404819D01*
X151526190Y-79404819D02*
X151621428Y-79357200D01*
X151621428Y-79357200D02*
X151669047Y-79309580D01*
X151669047Y-79309580D02*
X151716666Y-79214342D01*
X151716666Y-79214342D02*
X151716666Y-78976247D01*
X151716666Y-78976247D02*
X151669047Y-78881009D01*
X151669047Y-78881009D02*
X151621428Y-78833390D01*
X151621428Y-78833390D02*
X151526190Y-78785771D01*
X151526190Y-78785771D02*
X151335714Y-78785771D01*
X151335714Y-78785771D02*
X151240476Y-78833390D01*
X151240476Y-78833390D02*
X151192857Y-78881009D01*
X151192857Y-78881009D02*
X151145238Y-78976247D01*
X134111905Y-78204819D02*
X134111905Y-77204819D01*
X134111905Y-77204819D02*
X134350000Y-77204819D01*
X134350000Y-77204819D02*
X134492857Y-77252438D01*
X134492857Y-77252438D02*
X134588095Y-77347676D01*
X134588095Y-77347676D02*
X134635714Y-77442914D01*
X134635714Y-77442914D02*
X134683333Y-77633390D01*
X134683333Y-77633390D02*
X134683333Y-77776247D01*
X134683333Y-77776247D02*
X134635714Y-77966723D01*
X134635714Y-77966723D02*
X134588095Y-78061961D01*
X134588095Y-78061961D02*
X134492857Y-78157200D01*
X134492857Y-78157200D02*
X134350000Y-78204819D01*
X134350000Y-78204819D02*
X134111905Y-78204819D01*
X135064286Y-77300057D02*
X135111905Y-77252438D01*
X135111905Y-77252438D02*
X135207143Y-77204819D01*
X135207143Y-77204819D02*
X135445238Y-77204819D01*
X135445238Y-77204819D02*
X135540476Y-77252438D01*
X135540476Y-77252438D02*
X135588095Y-77300057D01*
X135588095Y-77300057D02*
X135635714Y-77395295D01*
X135635714Y-77395295D02*
X135635714Y-77490533D01*
X135635714Y-77490533D02*
X135588095Y-77633390D01*
X135588095Y-77633390D02*
X135016667Y-78204819D01*
X135016667Y-78204819D02*
X135635714Y-78204819D01*
X158937080Y-95380357D02*
X158984700Y-95427976D01*
X158984700Y-95427976D02*
X159032319Y-95570833D01*
X159032319Y-95570833D02*
X159032319Y-95666071D01*
X159032319Y-95666071D02*
X158984700Y-95808928D01*
X158984700Y-95808928D02*
X158889461Y-95904166D01*
X158889461Y-95904166D02*
X158794223Y-95951785D01*
X158794223Y-95951785D02*
X158603747Y-95999404D01*
X158603747Y-95999404D02*
X158460890Y-95999404D01*
X158460890Y-95999404D02*
X158270414Y-95951785D01*
X158270414Y-95951785D02*
X158175176Y-95904166D01*
X158175176Y-95904166D02*
X158079938Y-95808928D01*
X158079938Y-95808928D02*
X158032319Y-95666071D01*
X158032319Y-95666071D02*
X158032319Y-95570833D01*
X158032319Y-95570833D02*
X158079938Y-95427976D01*
X158079938Y-95427976D02*
X158127557Y-95380357D01*
X159032319Y-94427976D02*
X159032319Y-94999404D01*
X159032319Y-94713690D02*
X158032319Y-94713690D01*
X158032319Y-94713690D02*
X158175176Y-94808928D01*
X158175176Y-94808928D02*
X158270414Y-94904166D01*
X158270414Y-94904166D02*
X158318033Y-94999404D01*
X158032319Y-94094642D02*
X158032319Y-93427976D01*
X158032319Y-93427976D02*
X159032319Y-93856547D01*
X140604819Y-83088094D02*
X139604819Y-83088094D01*
X139604819Y-83088094D02*
X139604819Y-82849999D01*
X139604819Y-82849999D02*
X139652438Y-82707142D01*
X139652438Y-82707142D02*
X139747676Y-82611904D01*
X139747676Y-82611904D02*
X139842914Y-82564285D01*
X139842914Y-82564285D02*
X140033390Y-82516666D01*
X140033390Y-82516666D02*
X140176247Y-82516666D01*
X140176247Y-82516666D02*
X140366723Y-82564285D01*
X140366723Y-82564285D02*
X140461961Y-82611904D01*
X140461961Y-82611904D02*
X140557200Y-82707142D01*
X140557200Y-82707142D02*
X140604819Y-82849999D01*
X140604819Y-82849999D02*
X140604819Y-83088094D01*
X140604819Y-81564285D02*
X140604819Y-82135713D01*
X140604819Y-81849999D02*
X139604819Y-81849999D01*
X139604819Y-81849999D02*
X139747676Y-81945237D01*
X139747676Y-81945237D02*
X139842914Y-82040475D01*
X139842914Y-82040475D02*
X139890533Y-82135713D01*
X154238095Y-77157200D02*
X154380952Y-77204819D01*
X154380952Y-77204819D02*
X154619047Y-77204819D01*
X154619047Y-77204819D02*
X154714285Y-77157200D01*
X154714285Y-77157200D02*
X154761904Y-77109580D01*
X154761904Y-77109580D02*
X154809523Y-77014342D01*
X154809523Y-77014342D02*
X154809523Y-76919104D01*
X154809523Y-76919104D02*
X154761904Y-76823866D01*
X154761904Y-76823866D02*
X154714285Y-76776247D01*
X154714285Y-76776247D02*
X154619047Y-76728628D01*
X154619047Y-76728628D02*
X154428571Y-76681009D01*
X154428571Y-76681009D02*
X154333333Y-76633390D01*
X154333333Y-76633390D02*
X154285714Y-76585771D01*
X154285714Y-76585771D02*
X154238095Y-76490533D01*
X154238095Y-76490533D02*
X154238095Y-76395295D01*
X154238095Y-76395295D02*
X154285714Y-76300057D01*
X154285714Y-76300057D02*
X154333333Y-76252438D01*
X154333333Y-76252438D02*
X154428571Y-76204819D01*
X154428571Y-76204819D02*
X154666666Y-76204819D01*
X154666666Y-76204819D02*
X154809523Y-76252438D01*
X155761904Y-77204819D02*
X155190476Y-77204819D01*
X155476190Y-77204819D02*
X155476190Y-76204819D01*
X155476190Y-76204819D02*
X155380952Y-76347676D01*
X155380952Y-76347676D02*
X155285714Y-76442914D01*
X155285714Y-76442914D02*
X155190476Y-76490533D01*
X145507142Y-107809580D02*
X145459523Y-107857200D01*
X145459523Y-107857200D02*
X145316666Y-107904819D01*
X145316666Y-107904819D02*
X145221428Y-107904819D01*
X145221428Y-107904819D02*
X145078571Y-107857200D01*
X145078571Y-107857200D02*
X144983333Y-107761961D01*
X144983333Y-107761961D02*
X144935714Y-107666723D01*
X144935714Y-107666723D02*
X144888095Y-107476247D01*
X144888095Y-107476247D02*
X144888095Y-107333390D01*
X144888095Y-107333390D02*
X144935714Y-107142914D01*
X144935714Y-107142914D02*
X144983333Y-107047676D01*
X144983333Y-107047676D02*
X145078571Y-106952438D01*
X145078571Y-106952438D02*
X145221428Y-106904819D01*
X145221428Y-106904819D02*
X145316666Y-106904819D01*
X145316666Y-106904819D02*
X145459523Y-106952438D01*
X145459523Y-106952438D02*
X145507142Y-107000057D01*
X146459523Y-107904819D02*
X145888095Y-107904819D01*
X146173809Y-107904819D02*
X146173809Y-106904819D01*
X146173809Y-106904819D02*
X146078571Y-107047676D01*
X146078571Y-107047676D02*
X145983333Y-107142914D01*
X145983333Y-107142914D02*
X145888095Y-107190533D01*
X147316666Y-106904819D02*
X147126190Y-106904819D01*
X147126190Y-106904819D02*
X147030952Y-106952438D01*
X147030952Y-106952438D02*
X146983333Y-107000057D01*
X146983333Y-107000057D02*
X146888095Y-107142914D01*
X146888095Y-107142914D02*
X146840476Y-107333390D01*
X146840476Y-107333390D02*
X146840476Y-107714342D01*
X146840476Y-107714342D02*
X146888095Y-107809580D01*
X146888095Y-107809580D02*
X146935714Y-107857200D01*
X146935714Y-107857200D02*
X147030952Y-107904819D01*
X147030952Y-107904819D02*
X147221428Y-107904819D01*
X147221428Y-107904819D02*
X147316666Y-107857200D01*
X147316666Y-107857200D02*
X147364285Y-107809580D01*
X147364285Y-107809580D02*
X147411904Y-107714342D01*
X147411904Y-107714342D02*
X147411904Y-107476247D01*
X147411904Y-107476247D02*
X147364285Y-107381009D01*
X147364285Y-107381009D02*
X147316666Y-107333390D01*
X147316666Y-107333390D02*
X147221428Y-107285771D01*
X147221428Y-107285771D02*
X147030952Y-107285771D01*
X147030952Y-107285771D02*
X146935714Y-107333390D01*
X146935714Y-107333390D02*
X146888095Y-107381009D01*
X146888095Y-107381009D02*
X146840476Y-107476247D01*
X142308333Y-87759580D02*
X142260714Y-87807200D01*
X142260714Y-87807200D02*
X142117857Y-87854819D01*
X142117857Y-87854819D02*
X142022619Y-87854819D01*
X142022619Y-87854819D02*
X141879762Y-87807200D01*
X141879762Y-87807200D02*
X141784524Y-87711961D01*
X141784524Y-87711961D02*
X141736905Y-87616723D01*
X141736905Y-87616723D02*
X141689286Y-87426247D01*
X141689286Y-87426247D02*
X141689286Y-87283390D01*
X141689286Y-87283390D02*
X141736905Y-87092914D01*
X141736905Y-87092914D02*
X141784524Y-86997676D01*
X141784524Y-86997676D02*
X141879762Y-86902438D01*
X141879762Y-86902438D02*
X142022619Y-86854819D01*
X142022619Y-86854819D02*
X142117857Y-86854819D01*
X142117857Y-86854819D02*
X142260714Y-86902438D01*
X142260714Y-86902438D02*
X142308333Y-86950057D01*
X142879762Y-87283390D02*
X142784524Y-87235771D01*
X142784524Y-87235771D02*
X142736905Y-87188152D01*
X142736905Y-87188152D02*
X142689286Y-87092914D01*
X142689286Y-87092914D02*
X142689286Y-87045295D01*
X142689286Y-87045295D02*
X142736905Y-86950057D01*
X142736905Y-86950057D02*
X142784524Y-86902438D01*
X142784524Y-86902438D02*
X142879762Y-86854819D01*
X142879762Y-86854819D02*
X143070238Y-86854819D01*
X143070238Y-86854819D02*
X143165476Y-86902438D01*
X143165476Y-86902438D02*
X143213095Y-86950057D01*
X143213095Y-86950057D02*
X143260714Y-87045295D01*
X143260714Y-87045295D02*
X143260714Y-87092914D01*
X143260714Y-87092914D02*
X143213095Y-87188152D01*
X143213095Y-87188152D02*
X143165476Y-87235771D01*
X143165476Y-87235771D02*
X143070238Y-87283390D01*
X143070238Y-87283390D02*
X142879762Y-87283390D01*
X142879762Y-87283390D02*
X142784524Y-87331009D01*
X142784524Y-87331009D02*
X142736905Y-87378628D01*
X142736905Y-87378628D02*
X142689286Y-87473866D01*
X142689286Y-87473866D02*
X142689286Y-87664342D01*
X142689286Y-87664342D02*
X142736905Y-87759580D01*
X142736905Y-87759580D02*
X142784524Y-87807200D01*
X142784524Y-87807200D02*
X142879762Y-87854819D01*
X142879762Y-87854819D02*
X143070238Y-87854819D01*
X143070238Y-87854819D02*
X143165476Y-87807200D01*
X143165476Y-87807200D02*
X143213095Y-87759580D01*
X143213095Y-87759580D02*
X143260714Y-87664342D01*
X143260714Y-87664342D02*
X143260714Y-87473866D01*
X143260714Y-87473866D02*
X143213095Y-87378628D01*
X143213095Y-87378628D02*
X143165476Y-87331009D01*
X143165476Y-87331009D02*
X143070238Y-87283390D01*
X135904819Y-87383333D02*
X136619104Y-87383333D01*
X136619104Y-87383333D02*
X136761961Y-87430952D01*
X136761961Y-87430952D02*
X136857200Y-87526190D01*
X136857200Y-87526190D02*
X136904819Y-87669047D01*
X136904819Y-87669047D02*
X136904819Y-87764285D01*
X136904819Y-86383333D02*
X136904819Y-86954761D01*
X136904819Y-86669047D02*
X135904819Y-86669047D01*
X135904819Y-86669047D02*
X136047676Y-86764285D01*
X136047676Y-86764285D02*
X136142914Y-86859523D01*
X136142914Y-86859523D02*
X136190533Y-86954761D01*
X158237080Y-102542857D02*
X158284700Y-102590476D01*
X158284700Y-102590476D02*
X158332319Y-102733333D01*
X158332319Y-102733333D02*
X158332319Y-102828571D01*
X158332319Y-102828571D02*
X158284700Y-102971428D01*
X158284700Y-102971428D02*
X158189461Y-103066666D01*
X158189461Y-103066666D02*
X158094223Y-103114285D01*
X158094223Y-103114285D02*
X157903747Y-103161904D01*
X157903747Y-103161904D02*
X157760890Y-103161904D01*
X157760890Y-103161904D02*
X157570414Y-103114285D01*
X157570414Y-103114285D02*
X157475176Y-103066666D01*
X157475176Y-103066666D02*
X157379938Y-102971428D01*
X157379938Y-102971428D02*
X157332319Y-102828571D01*
X157332319Y-102828571D02*
X157332319Y-102733333D01*
X157332319Y-102733333D02*
X157379938Y-102590476D01*
X157379938Y-102590476D02*
X157427557Y-102542857D01*
X158332319Y-101590476D02*
X158332319Y-102161904D01*
X158332319Y-101876190D02*
X157332319Y-101876190D01*
X157332319Y-101876190D02*
X157475176Y-101971428D01*
X157475176Y-101971428D02*
X157570414Y-102066666D01*
X157570414Y-102066666D02*
X157618033Y-102161904D01*
X157665652Y-100733333D02*
X158332319Y-100733333D01*
X157284700Y-100971428D02*
X157998985Y-101209523D01*
X157998985Y-101209523D02*
X157998985Y-100590476D01*
X158329819Y-84608333D02*
X159044104Y-84608333D01*
X159044104Y-84608333D02*
X159186961Y-84655952D01*
X159186961Y-84655952D02*
X159282200Y-84751190D01*
X159282200Y-84751190D02*
X159329819Y-84894047D01*
X159329819Y-84894047D02*
X159329819Y-84989285D01*
X158425057Y-84179761D02*
X158377438Y-84132142D01*
X158377438Y-84132142D02*
X158329819Y-84036904D01*
X158329819Y-84036904D02*
X158329819Y-83798809D01*
X158329819Y-83798809D02*
X158377438Y-83703571D01*
X158377438Y-83703571D02*
X158425057Y-83655952D01*
X158425057Y-83655952D02*
X158520295Y-83608333D01*
X158520295Y-83608333D02*
X158615533Y-83608333D01*
X158615533Y-83608333D02*
X158758390Y-83655952D01*
X158758390Y-83655952D02*
X159329819Y-84227380D01*
X159329819Y-84227380D02*
X159329819Y-83608333D01*
X155964580Y-94466666D02*
X156012200Y-94514285D01*
X156012200Y-94514285D02*
X156059819Y-94657142D01*
X156059819Y-94657142D02*
X156059819Y-94752380D01*
X156059819Y-94752380D02*
X156012200Y-94895237D01*
X156012200Y-94895237D02*
X155916961Y-94990475D01*
X155916961Y-94990475D02*
X155821723Y-95038094D01*
X155821723Y-95038094D02*
X155631247Y-95085713D01*
X155631247Y-95085713D02*
X155488390Y-95085713D01*
X155488390Y-95085713D02*
X155297914Y-95038094D01*
X155297914Y-95038094D02*
X155202676Y-94990475D01*
X155202676Y-94990475D02*
X155107438Y-94895237D01*
X155107438Y-94895237D02*
X155059819Y-94752380D01*
X155059819Y-94752380D02*
X155059819Y-94657142D01*
X155059819Y-94657142D02*
X155107438Y-94514285D01*
X155107438Y-94514285D02*
X155155057Y-94466666D01*
X156059819Y-93990475D02*
X156059819Y-93799999D01*
X156059819Y-93799999D02*
X156012200Y-93704761D01*
X156012200Y-93704761D02*
X155964580Y-93657142D01*
X155964580Y-93657142D02*
X155821723Y-93561904D01*
X155821723Y-93561904D02*
X155631247Y-93514285D01*
X155631247Y-93514285D02*
X155250295Y-93514285D01*
X155250295Y-93514285D02*
X155155057Y-93561904D01*
X155155057Y-93561904D02*
X155107438Y-93609523D01*
X155107438Y-93609523D02*
X155059819Y-93704761D01*
X155059819Y-93704761D02*
X155059819Y-93895237D01*
X155059819Y-93895237D02*
X155107438Y-93990475D01*
X155107438Y-93990475D02*
X155155057Y-94038094D01*
X155155057Y-94038094D02*
X155250295Y-94085713D01*
X155250295Y-94085713D02*
X155488390Y-94085713D01*
X155488390Y-94085713D02*
X155583628Y-94038094D01*
X155583628Y-94038094D02*
X155631247Y-93990475D01*
X155631247Y-93990475D02*
X155678866Y-93895237D01*
X155678866Y-93895237D02*
X155678866Y-93704761D01*
X155678866Y-93704761D02*
X155631247Y-93609523D01*
X155631247Y-93609523D02*
X155583628Y-93561904D01*
X155583628Y-93561904D02*
X155488390Y-93514285D01*
X151208333Y-106059580D02*
X151160714Y-106107200D01*
X151160714Y-106107200D02*
X151017857Y-106154819D01*
X151017857Y-106154819D02*
X150922619Y-106154819D01*
X150922619Y-106154819D02*
X150779762Y-106107200D01*
X150779762Y-106107200D02*
X150684524Y-106011961D01*
X150684524Y-106011961D02*
X150636905Y-105916723D01*
X150636905Y-105916723D02*
X150589286Y-105726247D01*
X150589286Y-105726247D02*
X150589286Y-105583390D01*
X150589286Y-105583390D02*
X150636905Y-105392914D01*
X150636905Y-105392914D02*
X150684524Y-105297676D01*
X150684524Y-105297676D02*
X150779762Y-105202438D01*
X150779762Y-105202438D02*
X150922619Y-105154819D01*
X150922619Y-105154819D02*
X151017857Y-105154819D01*
X151017857Y-105154819D02*
X151160714Y-105202438D01*
X151160714Y-105202438D02*
X151208333Y-105250057D01*
X152065476Y-105154819D02*
X151875000Y-105154819D01*
X151875000Y-105154819D02*
X151779762Y-105202438D01*
X151779762Y-105202438D02*
X151732143Y-105250057D01*
X151732143Y-105250057D02*
X151636905Y-105392914D01*
X151636905Y-105392914D02*
X151589286Y-105583390D01*
X151589286Y-105583390D02*
X151589286Y-105964342D01*
X151589286Y-105964342D02*
X151636905Y-106059580D01*
X151636905Y-106059580D02*
X151684524Y-106107200D01*
X151684524Y-106107200D02*
X151779762Y-106154819D01*
X151779762Y-106154819D02*
X151970238Y-106154819D01*
X151970238Y-106154819D02*
X152065476Y-106107200D01*
X152065476Y-106107200D02*
X152113095Y-106059580D01*
X152113095Y-106059580D02*
X152160714Y-105964342D01*
X152160714Y-105964342D02*
X152160714Y-105726247D01*
X152160714Y-105726247D02*
X152113095Y-105631009D01*
X152113095Y-105631009D02*
X152065476Y-105583390D01*
X152065476Y-105583390D02*
X151970238Y-105535771D01*
X151970238Y-105535771D02*
X151779762Y-105535771D01*
X151779762Y-105535771D02*
X151684524Y-105583390D01*
X151684524Y-105583390D02*
X151636905Y-105631009D01*
X151636905Y-105631009D02*
X151589286Y-105726247D01*
X151308333Y-104559580D02*
X151260714Y-104607200D01*
X151260714Y-104607200D02*
X151117857Y-104654819D01*
X151117857Y-104654819D02*
X151022619Y-104654819D01*
X151022619Y-104654819D02*
X150879762Y-104607200D01*
X150879762Y-104607200D02*
X150784524Y-104511961D01*
X150784524Y-104511961D02*
X150736905Y-104416723D01*
X150736905Y-104416723D02*
X150689286Y-104226247D01*
X150689286Y-104226247D02*
X150689286Y-104083390D01*
X150689286Y-104083390D02*
X150736905Y-103892914D01*
X150736905Y-103892914D02*
X150784524Y-103797676D01*
X150784524Y-103797676D02*
X150879762Y-103702438D01*
X150879762Y-103702438D02*
X151022619Y-103654819D01*
X151022619Y-103654819D02*
X151117857Y-103654819D01*
X151117857Y-103654819D02*
X151260714Y-103702438D01*
X151260714Y-103702438D02*
X151308333Y-103750057D01*
X151641667Y-103654819D02*
X152308333Y-103654819D01*
X152308333Y-103654819D02*
X151879762Y-104654819D01*
X143134580Y-105942857D02*
X143182200Y-105990476D01*
X143182200Y-105990476D02*
X143229819Y-106133333D01*
X143229819Y-106133333D02*
X143229819Y-106228571D01*
X143229819Y-106228571D02*
X143182200Y-106371428D01*
X143182200Y-106371428D02*
X143086961Y-106466666D01*
X143086961Y-106466666D02*
X142991723Y-106514285D01*
X142991723Y-106514285D02*
X142801247Y-106561904D01*
X142801247Y-106561904D02*
X142658390Y-106561904D01*
X142658390Y-106561904D02*
X142467914Y-106514285D01*
X142467914Y-106514285D02*
X142372676Y-106466666D01*
X142372676Y-106466666D02*
X142277438Y-106371428D01*
X142277438Y-106371428D02*
X142229819Y-106228571D01*
X142229819Y-106228571D02*
X142229819Y-106133333D01*
X142229819Y-106133333D02*
X142277438Y-105990476D01*
X142277438Y-105990476D02*
X142325057Y-105942857D01*
X143229819Y-104990476D02*
X143229819Y-105561904D01*
X143229819Y-105276190D02*
X142229819Y-105276190D01*
X142229819Y-105276190D02*
X142372676Y-105371428D01*
X142372676Y-105371428D02*
X142467914Y-105466666D01*
X142467914Y-105466666D02*
X142515533Y-105561904D01*
X142229819Y-104085714D02*
X142229819Y-104561904D01*
X142229819Y-104561904D02*
X142706009Y-104609523D01*
X142706009Y-104609523D02*
X142658390Y-104561904D01*
X142658390Y-104561904D02*
X142610771Y-104466666D01*
X142610771Y-104466666D02*
X142610771Y-104228571D01*
X142610771Y-104228571D02*
X142658390Y-104133333D01*
X142658390Y-104133333D02*
X142706009Y-104085714D01*
X142706009Y-104085714D02*
X142801247Y-104038095D01*
X142801247Y-104038095D02*
X143039342Y-104038095D01*
X143039342Y-104038095D02*
X143134580Y-104085714D01*
X143134580Y-104085714D02*
X143182200Y-104133333D01*
X143182200Y-104133333D02*
X143229819Y-104228571D01*
X143229819Y-104228571D02*
X143229819Y-104466666D01*
X143229819Y-104466666D02*
X143182200Y-104561904D01*
X143182200Y-104561904D02*
X143134580Y-104609523D01*
X137808333Y-90859580D02*
X137760714Y-90907200D01*
X137760714Y-90907200D02*
X137617857Y-90954819D01*
X137617857Y-90954819D02*
X137522619Y-90954819D01*
X137522619Y-90954819D02*
X137379762Y-90907200D01*
X137379762Y-90907200D02*
X137284524Y-90811961D01*
X137284524Y-90811961D02*
X137236905Y-90716723D01*
X137236905Y-90716723D02*
X137189286Y-90526247D01*
X137189286Y-90526247D02*
X137189286Y-90383390D01*
X137189286Y-90383390D02*
X137236905Y-90192914D01*
X137236905Y-90192914D02*
X137284524Y-90097676D01*
X137284524Y-90097676D02*
X137379762Y-90002438D01*
X137379762Y-90002438D02*
X137522619Y-89954819D01*
X137522619Y-89954819D02*
X137617857Y-89954819D01*
X137617857Y-89954819D02*
X137760714Y-90002438D01*
X137760714Y-90002438D02*
X137808333Y-90050057D01*
X138713095Y-89954819D02*
X138236905Y-89954819D01*
X138236905Y-89954819D02*
X138189286Y-90431009D01*
X138189286Y-90431009D02*
X138236905Y-90383390D01*
X138236905Y-90383390D02*
X138332143Y-90335771D01*
X138332143Y-90335771D02*
X138570238Y-90335771D01*
X138570238Y-90335771D02*
X138665476Y-90383390D01*
X138665476Y-90383390D02*
X138713095Y-90431009D01*
X138713095Y-90431009D02*
X138760714Y-90526247D01*
X138760714Y-90526247D02*
X138760714Y-90764342D01*
X138760714Y-90764342D02*
X138713095Y-90859580D01*
X138713095Y-90859580D02*
X138665476Y-90907200D01*
X138665476Y-90907200D02*
X138570238Y-90954819D01*
X138570238Y-90954819D02*
X138332143Y-90954819D01*
X138332143Y-90954819D02*
X138236905Y-90907200D01*
X138236905Y-90907200D02*
X138189286Y-90859580D01*
X155964580Y-99766666D02*
X156012200Y-99814285D01*
X156012200Y-99814285D02*
X156059819Y-99957142D01*
X156059819Y-99957142D02*
X156059819Y-100052380D01*
X156059819Y-100052380D02*
X156012200Y-100195237D01*
X156012200Y-100195237D02*
X155916961Y-100290475D01*
X155916961Y-100290475D02*
X155821723Y-100338094D01*
X155821723Y-100338094D02*
X155631247Y-100385713D01*
X155631247Y-100385713D02*
X155488390Y-100385713D01*
X155488390Y-100385713D02*
X155297914Y-100338094D01*
X155297914Y-100338094D02*
X155202676Y-100290475D01*
X155202676Y-100290475D02*
X155107438Y-100195237D01*
X155107438Y-100195237D02*
X155059819Y-100052380D01*
X155059819Y-100052380D02*
X155059819Y-99957142D01*
X155059819Y-99957142D02*
X155107438Y-99814285D01*
X155107438Y-99814285D02*
X155155057Y-99766666D01*
X155059819Y-99433332D02*
X155059819Y-98814285D01*
X155059819Y-98814285D02*
X155440771Y-99147618D01*
X155440771Y-99147618D02*
X155440771Y-99004761D01*
X155440771Y-99004761D02*
X155488390Y-98909523D01*
X155488390Y-98909523D02*
X155536009Y-98861904D01*
X155536009Y-98861904D02*
X155631247Y-98814285D01*
X155631247Y-98814285D02*
X155869342Y-98814285D01*
X155869342Y-98814285D02*
X155964580Y-98861904D01*
X155964580Y-98861904D02*
X156012200Y-98909523D01*
X156012200Y-98909523D02*
X156059819Y-99004761D01*
X156059819Y-99004761D02*
X156059819Y-99290475D01*
X156059819Y-99290475D02*
X156012200Y-99385713D01*
X156012200Y-99385713D02*
X155964580Y-99433332D01*
X135771873Y-95157629D02*
X136486997Y-95157629D01*
X136486997Y-95157629D02*
X136630022Y-95205303D01*
X136630022Y-95205303D02*
X136725372Y-95300653D01*
X136725372Y-95300653D02*
X136773046Y-95443678D01*
X136773046Y-95443678D02*
X136773046Y-95539028D01*
X136105598Y-94251806D02*
X136773046Y-94251806D01*
X135724199Y-94490180D02*
X136439322Y-94728555D01*
X136439322Y-94728555D02*
X136439322Y-94108781D01*
X136732142Y-103159580D02*
X136684523Y-103207200D01*
X136684523Y-103207200D02*
X136541666Y-103254819D01*
X136541666Y-103254819D02*
X136446428Y-103254819D01*
X136446428Y-103254819D02*
X136303571Y-103207200D01*
X136303571Y-103207200D02*
X136208333Y-103111961D01*
X136208333Y-103111961D02*
X136160714Y-103016723D01*
X136160714Y-103016723D02*
X136113095Y-102826247D01*
X136113095Y-102826247D02*
X136113095Y-102683390D01*
X136113095Y-102683390D02*
X136160714Y-102492914D01*
X136160714Y-102492914D02*
X136208333Y-102397676D01*
X136208333Y-102397676D02*
X136303571Y-102302438D01*
X136303571Y-102302438D02*
X136446428Y-102254819D01*
X136446428Y-102254819D02*
X136541666Y-102254819D01*
X136541666Y-102254819D02*
X136684523Y-102302438D01*
X136684523Y-102302438D02*
X136732142Y-102350057D01*
X137684523Y-103254819D02*
X137113095Y-103254819D01*
X137398809Y-103254819D02*
X137398809Y-102254819D01*
X137398809Y-102254819D02*
X137303571Y-102397676D01*
X137303571Y-102397676D02*
X137208333Y-102492914D01*
X137208333Y-102492914D02*
X137113095Y-102540533D01*
X138303571Y-102254819D02*
X138398809Y-102254819D01*
X138398809Y-102254819D02*
X138494047Y-102302438D01*
X138494047Y-102302438D02*
X138541666Y-102350057D01*
X138541666Y-102350057D02*
X138589285Y-102445295D01*
X138589285Y-102445295D02*
X138636904Y-102635771D01*
X138636904Y-102635771D02*
X138636904Y-102873866D01*
X138636904Y-102873866D02*
X138589285Y-103064342D01*
X138589285Y-103064342D02*
X138541666Y-103159580D01*
X138541666Y-103159580D02*
X138494047Y-103207200D01*
X138494047Y-103207200D02*
X138398809Y-103254819D01*
X138398809Y-103254819D02*
X138303571Y-103254819D01*
X138303571Y-103254819D02*
X138208333Y-103207200D01*
X138208333Y-103207200D02*
X138160714Y-103159580D01*
X138160714Y-103159580D02*
X138113095Y-103064342D01*
X138113095Y-103064342D02*
X138065476Y-102873866D01*
X138065476Y-102873866D02*
X138065476Y-102635771D01*
X138065476Y-102635771D02*
X138113095Y-102445295D01*
X138113095Y-102445295D02*
X138160714Y-102350057D01*
X138160714Y-102350057D02*
X138208333Y-102302438D01*
X138208333Y-102302438D02*
X138303571Y-102254819D01*
X163388095Y-98104819D02*
X163388095Y-98914342D01*
X163388095Y-98914342D02*
X163435714Y-99009580D01*
X163435714Y-99009580D02*
X163483333Y-99057200D01*
X163483333Y-99057200D02*
X163578571Y-99104819D01*
X163578571Y-99104819D02*
X163769047Y-99104819D01*
X163769047Y-99104819D02*
X163864285Y-99057200D01*
X163864285Y-99057200D02*
X163911904Y-99009580D01*
X163911904Y-99009580D02*
X163959523Y-98914342D01*
X163959523Y-98914342D02*
X163959523Y-98104819D01*
X164959523Y-99104819D02*
X164388095Y-99104819D01*
X164673809Y-99104819D02*
X164673809Y-98104819D01*
X164673809Y-98104819D02*
X164578571Y-98247676D01*
X164578571Y-98247676D02*
X164483333Y-98342914D01*
X164483333Y-98342914D02*
X164388095Y-98390533D01*
X138034580Y-100980357D02*
X138082200Y-101027976D01*
X138082200Y-101027976D02*
X138129819Y-101170833D01*
X138129819Y-101170833D02*
X138129819Y-101266071D01*
X138129819Y-101266071D02*
X138082200Y-101408928D01*
X138082200Y-101408928D02*
X137986961Y-101504166D01*
X137986961Y-101504166D02*
X137891723Y-101551785D01*
X137891723Y-101551785D02*
X137701247Y-101599404D01*
X137701247Y-101599404D02*
X137558390Y-101599404D01*
X137558390Y-101599404D02*
X137367914Y-101551785D01*
X137367914Y-101551785D02*
X137272676Y-101504166D01*
X137272676Y-101504166D02*
X137177438Y-101408928D01*
X137177438Y-101408928D02*
X137129819Y-101266071D01*
X137129819Y-101266071D02*
X137129819Y-101170833D01*
X137129819Y-101170833D02*
X137177438Y-101027976D01*
X137177438Y-101027976D02*
X137225057Y-100980357D01*
X138129819Y-100027976D02*
X138129819Y-100599404D01*
X138129819Y-100313690D02*
X137129819Y-100313690D01*
X137129819Y-100313690D02*
X137272676Y-100408928D01*
X137272676Y-100408928D02*
X137367914Y-100504166D01*
X137367914Y-100504166D02*
X137415533Y-100599404D01*
X137225057Y-99647023D02*
X137177438Y-99599404D01*
X137177438Y-99599404D02*
X137129819Y-99504166D01*
X137129819Y-99504166D02*
X137129819Y-99266071D01*
X137129819Y-99266071D02*
X137177438Y-99170833D01*
X137177438Y-99170833D02*
X137225057Y-99123214D01*
X137225057Y-99123214D02*
X137320295Y-99075595D01*
X137320295Y-99075595D02*
X137415533Y-99075595D01*
X137415533Y-99075595D02*
X137558390Y-99123214D01*
X137558390Y-99123214D02*
X138129819Y-99694642D01*
X138129819Y-99694642D02*
X138129819Y-99075595D01*
X163737080Y-95380357D02*
X163784700Y-95427976D01*
X163784700Y-95427976D02*
X163832319Y-95570833D01*
X163832319Y-95570833D02*
X163832319Y-95666071D01*
X163832319Y-95666071D02*
X163784700Y-95808928D01*
X163784700Y-95808928D02*
X163689461Y-95904166D01*
X163689461Y-95904166D02*
X163594223Y-95951785D01*
X163594223Y-95951785D02*
X163403747Y-95999404D01*
X163403747Y-95999404D02*
X163260890Y-95999404D01*
X163260890Y-95999404D02*
X163070414Y-95951785D01*
X163070414Y-95951785D02*
X162975176Y-95904166D01*
X162975176Y-95904166D02*
X162879938Y-95808928D01*
X162879938Y-95808928D02*
X162832319Y-95666071D01*
X162832319Y-95666071D02*
X162832319Y-95570833D01*
X162832319Y-95570833D02*
X162879938Y-95427976D01*
X162879938Y-95427976D02*
X162927557Y-95380357D01*
X163832319Y-94427976D02*
X163832319Y-94999404D01*
X163832319Y-94713690D02*
X162832319Y-94713690D01*
X162832319Y-94713690D02*
X162975176Y-94808928D01*
X162975176Y-94808928D02*
X163070414Y-94904166D01*
X163070414Y-94904166D02*
X163118033Y-94999404D01*
X162832319Y-94094642D02*
X162832319Y-93475595D01*
X162832319Y-93475595D02*
X163213271Y-93808928D01*
X163213271Y-93808928D02*
X163213271Y-93666071D01*
X163213271Y-93666071D02*
X163260890Y-93570833D01*
X163260890Y-93570833D02*
X163308509Y-93523214D01*
X163308509Y-93523214D02*
X163403747Y-93475595D01*
X163403747Y-93475595D02*
X163641842Y-93475595D01*
X163641842Y-93475595D02*
X163737080Y-93523214D01*
X163737080Y-93523214D02*
X163784700Y-93570833D01*
X163784700Y-93570833D02*
X163832319Y-93666071D01*
X163832319Y-93666071D02*
X163832319Y-93951785D01*
X163832319Y-93951785D02*
X163784700Y-94047023D01*
X163784700Y-94047023D02*
X163737080Y-94094642D01*
X138704819Y-97411904D02*
X139514342Y-97411904D01*
X139514342Y-97411904D02*
X139609580Y-97364285D01*
X139609580Y-97364285D02*
X139657200Y-97316666D01*
X139657200Y-97316666D02*
X139704819Y-97221428D01*
X139704819Y-97221428D02*
X139704819Y-97030952D01*
X139704819Y-97030952D02*
X139657200Y-96935714D01*
X139657200Y-96935714D02*
X139609580Y-96888095D01*
X139609580Y-96888095D02*
X139514342Y-96840476D01*
X139514342Y-96840476D02*
X138704819Y-96840476D01*
X138704819Y-95888095D02*
X138704819Y-96364285D01*
X138704819Y-96364285D02*
X139181009Y-96411904D01*
X139181009Y-96411904D02*
X139133390Y-96364285D01*
X139133390Y-96364285D02*
X139085771Y-96269047D01*
X139085771Y-96269047D02*
X139085771Y-96030952D01*
X139085771Y-96030952D02*
X139133390Y-95935714D01*
X139133390Y-95935714D02*
X139181009Y-95888095D01*
X139181009Y-95888095D02*
X139276247Y-95840476D01*
X139276247Y-95840476D02*
X139514342Y-95840476D01*
X139514342Y-95840476D02*
X139609580Y-95888095D01*
X139609580Y-95888095D02*
X139657200Y-95935714D01*
X139657200Y-95935714D02*
X139704819Y-96030952D01*
X139704819Y-96030952D02*
X139704819Y-96269047D01*
X139704819Y-96269047D02*
X139657200Y-96364285D01*
X139657200Y-96364285D02*
X139609580Y-96411904D01*
X155504819Y-74016666D02*
X155028628Y-74349999D01*
X155504819Y-74588094D02*
X154504819Y-74588094D01*
X154504819Y-74588094D02*
X154504819Y-74207142D01*
X154504819Y-74207142D02*
X154552438Y-74111904D01*
X154552438Y-74111904D02*
X154600057Y-74064285D01*
X154600057Y-74064285D02*
X154695295Y-74016666D01*
X154695295Y-74016666D02*
X154838152Y-74016666D01*
X154838152Y-74016666D02*
X154933390Y-74064285D01*
X154933390Y-74064285D02*
X154981009Y-74111904D01*
X154981009Y-74111904D02*
X155028628Y-74207142D01*
X155028628Y-74207142D02*
X155028628Y-74588094D01*
X154933390Y-73445237D02*
X154885771Y-73540475D01*
X154885771Y-73540475D02*
X154838152Y-73588094D01*
X154838152Y-73588094D02*
X154742914Y-73635713D01*
X154742914Y-73635713D02*
X154695295Y-73635713D01*
X154695295Y-73635713D02*
X154600057Y-73588094D01*
X154600057Y-73588094D02*
X154552438Y-73540475D01*
X154552438Y-73540475D02*
X154504819Y-73445237D01*
X154504819Y-73445237D02*
X154504819Y-73254761D01*
X154504819Y-73254761D02*
X154552438Y-73159523D01*
X154552438Y-73159523D02*
X154600057Y-73111904D01*
X154600057Y-73111904D02*
X154695295Y-73064285D01*
X154695295Y-73064285D02*
X154742914Y-73064285D01*
X154742914Y-73064285D02*
X154838152Y-73111904D01*
X154838152Y-73111904D02*
X154885771Y-73159523D01*
X154885771Y-73159523D02*
X154933390Y-73254761D01*
X154933390Y-73254761D02*
X154933390Y-73445237D01*
X154933390Y-73445237D02*
X154981009Y-73540475D01*
X154981009Y-73540475D02*
X155028628Y-73588094D01*
X155028628Y-73588094D02*
X155123866Y-73635713D01*
X155123866Y-73635713D02*
X155314342Y-73635713D01*
X155314342Y-73635713D02*
X155409580Y-73588094D01*
X155409580Y-73588094D02*
X155457200Y-73540475D01*
X155457200Y-73540475D02*
X155504819Y-73445237D01*
X155504819Y-73445237D02*
X155504819Y-73254761D01*
X155504819Y-73254761D02*
X155457200Y-73159523D01*
X155457200Y-73159523D02*
X155409580Y-73111904D01*
X155409580Y-73111904D02*
X155314342Y-73064285D01*
X155314342Y-73064285D02*
X155123866Y-73064285D01*
X155123866Y-73064285D02*
X155028628Y-73111904D01*
X155028628Y-73111904D02*
X154981009Y-73159523D01*
X154981009Y-73159523D02*
X154933390Y-73254761D01*
D11*
%TO.C,C4*%
X153841233Y-91090000D02*
X154133767Y-91090000D01*
X153841233Y-92110000D02*
X154133767Y-92110000D01*
D12*
%TO.C,J6*%
X140560000Y-72710000D02*
X140560000Y-71360000D01*
X140560000Y-76710000D02*
X140560000Y-75210000D01*
X149500000Y-72710000D02*
X149500000Y-71360000D01*
X149500000Y-76710000D02*
X149500000Y-75210000D01*
D13*
X148330000Y-79860000D02*
G75*
G02*
X148130000Y-79860000I-100000J0D01*
G01*
X148130000Y-79860000D02*
G75*
G02*
X148330000Y-79860000I100000J0D01*
G01*
D11*
%TO.C,D2*%
X136000000Y-78560000D02*
X136000000Y-73050000D01*
X136000000Y-78560000D02*
X139300000Y-78560000D01*
X139300000Y-78560000D02*
X139300000Y-73050000D01*
%TO.C,C17*%
X159667500Y-94883767D02*
X159667500Y-94591233D01*
X160687500Y-94883767D02*
X160687500Y-94591233D01*
%TO.C,D1*%
X136000000Y-78840000D02*
X136000000Y-84350000D01*
X139300000Y-78840000D02*
X136000000Y-78840000D01*
X139300000Y-78840000D02*
X139300000Y-84350000D01*
D12*
%TO.C,S1*%
X151550000Y-74270000D02*
X151550000Y-75250000D01*
X151550000Y-75250000D02*
X152180000Y-75250000D01*
X152670000Y-72750000D02*
X157430000Y-72750000D01*
X156380000Y-75250000D02*
X153720000Y-75250000D01*
X158550000Y-74270000D02*
X158550000Y-75250000D01*
X158550000Y-75250000D02*
X157920000Y-75250000D01*
D11*
%TO.C,C16*%
X145665000Y-104953733D02*
X145665000Y-105246267D01*
X146685000Y-104953733D02*
X146685000Y-105246267D01*
%TO.C,C8*%
X142621267Y-88390000D02*
X142328733Y-88390000D01*
X142621267Y-89410000D02*
X142328733Y-89410000D01*
D12*
%TO.C,J1*%
X129925000Y-80650000D02*
X129925000Y-86250000D01*
X134175000Y-79450000D02*
X131900000Y-79450000D01*
X134175000Y-80250000D02*
X134175000Y-79450000D01*
X134175000Y-86650000D02*
X134175000Y-87450000D01*
X134175000Y-87450000D02*
X131900000Y-87450000D01*
D13*
X135100000Y-80150000D02*
G75*
G02*
X134900000Y-80150000I-100000J0D01*
G01*
X134900000Y-80150000D02*
G75*
G02*
X135100000Y-80150000I100000J0D01*
G01*
D11*
%TO.C,C14*%
X157367500Y-98553733D02*
X157367500Y-98846267D01*
X158387500Y-98553733D02*
X158387500Y-98846267D01*
D12*
%TO.C,J2*%
X161075000Y-79450000D02*
X163350000Y-79450000D01*
X161075000Y-80250000D02*
X161075000Y-79450000D01*
X161075000Y-86650000D02*
X161075000Y-87450000D01*
X161075000Y-87450000D02*
X163350000Y-87450000D01*
X165325000Y-86250000D02*
X165325000Y-80650000D01*
D13*
X160350000Y-86750000D02*
G75*
G02*
X160150000Y-86750000I-100000J0D01*
G01*
X160150000Y-86750000D02*
G75*
G02*
X160350000Y-86750000I100000J0D01*
G01*
D11*
%TO.C,C9*%
X153665000Y-94153733D02*
X153665000Y-94446267D01*
X154685000Y-94153733D02*
X154685000Y-94446267D01*
%TO.C,C6*%
X148821267Y-105290000D02*
X148528733Y-105290000D01*
X148821267Y-106310000D02*
X148528733Y-106310000D01*
%TO.C,C7*%
X148821267Y-103690000D02*
X148528733Y-103690000D01*
X148821267Y-104710000D02*
X148528733Y-104710000D01*
%TO.C,C15*%
X140765000Y-105153733D02*
X140765000Y-105446267D01*
X141785000Y-105153733D02*
X141785000Y-105446267D01*
%TO.C,C5*%
X140821267Y-89990000D02*
X140528733Y-89990000D01*
X140821267Y-91010000D02*
X140528733Y-91010000D01*
%TO.C,C3*%
X153665000Y-99453733D02*
X153665000Y-99746267D01*
X154685000Y-99453733D02*
X154685000Y-99746267D01*
D13*
%TO.C,J4*%
X129975000Y-91850000D02*
X129975000Y-99650000D01*
D14*
X135016420Y-91450000D02*
G75*
G02*
X134733580Y-91450000I-141420J0D01*
G01*
X134733580Y-91450000D02*
G75*
G02*
X135016420Y-91450000I141420J0D01*
G01*
D11*
%TO.C,C10*%
X140821267Y-102290000D02*
X140528733Y-102290000D01*
X140821267Y-103310000D02*
X140528733Y-103310000D01*
D12*
%TO.C,U1*%
X159327500Y-97150000D02*
X159327500Y-97220000D01*
X159327500Y-97150000D02*
X159397500Y-97150000D01*
X159327500Y-100150000D02*
X159327500Y-100080000D01*
X159327500Y-100150000D02*
X159397500Y-100150000D01*
X162327500Y-97150000D02*
X162257500Y-97150000D01*
X162327500Y-97150000D02*
X162327500Y-97220000D01*
X162327500Y-100150000D02*
X162257500Y-100150000D01*
X162327500Y-100150000D02*
X162327500Y-100080000D01*
D13*
X163312500Y-99650000D02*
G75*
G02*
X163112500Y-99650000I-100000J0D01*
G01*
X163112500Y-99650000D02*
G75*
G02*
X163312500Y-99650000I100000J0D01*
G01*
D11*
%TO.C,C12*%
X138565000Y-100483767D02*
X138565000Y-100191233D01*
X139585000Y-100483767D02*
X139585000Y-100191233D01*
%TO.C,C13*%
X161367500Y-94883767D02*
X161367500Y-94591233D01*
X162387500Y-94883767D02*
X162387500Y-94591233D01*
%TO.C,U5*%
X141540000Y-91540000D02*
X142490000Y-91540000D01*
X141540000Y-92490000D02*
X141540000Y-91540000D01*
X141540000Y-100810000D02*
X141540000Y-101760000D01*
X141540000Y-101760000D02*
X142490000Y-101760000D01*
X151760000Y-91540000D02*
X150810000Y-91540000D01*
X151760000Y-92490000D02*
X151760000Y-91540000D01*
X151760000Y-100810000D02*
X151760000Y-101760000D01*
X151760000Y-101760000D02*
X150810000Y-101760000D01*
X142490000Y-102375000D02*
X142020000Y-102715000D01*
X142020000Y-102035000D01*
X142490000Y-102375000D01*
G36*
X142490000Y-102375000D02*
G01*
X142020000Y-102715000D01*
X142020000Y-102035000D01*
X142490000Y-102375000D01*
G37*
%TD*%
%LPC*%
D15*
%TO.C,S1*%
X152450000Y-73350000D02*
X151750000Y-73350000D01*
X151750000Y-74050000D01*
X150750000Y-74050000D01*
X150750000Y-72350000D01*
X152450000Y-72350000D01*
X152450000Y-73350000D01*
G36*
X152450000Y-73350000D02*
G01*
X151750000Y-73350000D01*
X151750000Y-74050000D01*
X150750000Y-74050000D01*
X150750000Y-72350000D01*
X152450000Y-72350000D01*
X152450000Y-73350000D01*
G37*
X159350000Y-74050000D02*
X158350000Y-74050000D01*
X158350000Y-73350000D01*
X157650000Y-73350000D01*
X157650000Y-72350000D01*
X159350000Y-72350000D01*
X159350000Y-74050000D01*
G36*
X159350000Y-74050000D02*
G01*
X158350000Y-74050000D01*
X158350000Y-73350000D01*
X157650000Y-73350000D01*
X157650000Y-72350000D01*
X159350000Y-72350000D01*
X159350000Y-74050000D01*
G37*
%TD*%
D16*
%TO.C,C4*%
X153125000Y-91600000D03*
X154850000Y-91600000D03*
%TD*%
D17*
%TO.C,J6*%
X147920000Y-77640000D03*
X142140000Y-77640000D03*
D18*
X148230000Y-78705000D03*
X147430000Y-78705000D03*
D19*
X146280000Y-78705000D03*
X145280000Y-78705000D03*
X144780000Y-78705000D03*
X143780000Y-78705000D03*
D18*
X141830000Y-78705000D03*
X142630000Y-78705000D03*
D19*
X143280000Y-78705000D03*
X144280000Y-78705000D03*
X145780000Y-78705000D03*
X146780000Y-78705000D03*
D20*
X149350000Y-78140000D03*
X140710000Y-78140000D03*
D21*
X149350000Y-73960000D03*
X140710000Y-73960000D03*
%TD*%
D22*
%TO.C,H1*%
X132450000Y-74450000D03*
%TD*%
%TO.C,H4*%
X132450000Y-104950000D03*
%TD*%
D23*
%TO.C,D2*%
X137650000Y-77050000D03*
X137650000Y-73050000D03*
%TD*%
D24*
%TO.C,C17*%
X160177500Y-95600000D03*
X160177500Y-93875000D03*
%TD*%
D25*
%TO.C,D1*%
X137650000Y-80350000D03*
X137650000Y-84350000D03*
%TD*%
D26*
%TO.C,S1*%
X156200000Y-73750000D03*
X153900000Y-73750000D03*
D27*
X157150000Y-75050000D03*
X152950000Y-75050000D03*
%TD*%
D28*
%TO.C,C16*%
X146175000Y-104237500D03*
X146175000Y-105962500D03*
%TD*%
D29*
%TO.C,C8*%
X143337500Y-88900000D03*
X141612500Y-88900000D03*
%TD*%
D30*
%TO.C,J1*%
X134500000Y-80950000D03*
X134500000Y-81950000D03*
X134500000Y-82950000D03*
X134500000Y-83950000D03*
X134500000Y-84950000D03*
X134500000Y-85950000D03*
D31*
X130625000Y-79650000D03*
X130625000Y-87250000D03*
%TD*%
D28*
%TO.C,C14*%
X157877500Y-97837500D03*
X157877500Y-99562500D03*
%TD*%
D32*
%TO.C,J2*%
X160750000Y-85950000D03*
X160750000Y-84950000D03*
X160750000Y-83950000D03*
X160750000Y-82950000D03*
X160750000Y-81950000D03*
X160750000Y-80950000D03*
D33*
X164625000Y-87250000D03*
X164625000Y-79650000D03*
%TD*%
D28*
%TO.C,C9*%
X154175000Y-93437500D03*
X154175000Y-95162500D03*
%TD*%
D29*
%TO.C,C6*%
X149537500Y-105800000D03*
X147812500Y-105800000D03*
%TD*%
%TO.C,C7*%
X149537500Y-104200000D03*
X147812500Y-104200000D03*
%TD*%
D28*
%TO.C,C15*%
X141275000Y-104437500D03*
X141275000Y-106162500D03*
%TD*%
D29*
%TO.C,C5*%
X141537500Y-90500000D03*
X139812500Y-90500000D03*
%TD*%
D28*
%TO.C,C3*%
X154175000Y-98737500D03*
X154175000Y-100462500D03*
%TD*%
D30*
%TO.C,J4*%
X134550000Y-92250000D03*
X134550000Y-93250000D03*
X134550000Y-94250000D03*
X134550000Y-95250000D03*
X134550000Y-96250000D03*
X134550000Y-97250000D03*
X134550000Y-98250000D03*
X134550000Y-99250000D03*
D31*
X130675000Y-90950000D03*
X130675000Y-100550000D03*
%TD*%
D29*
%TO.C,C10*%
X141537500Y-102800000D03*
X139812500Y-102800000D03*
%TD*%
D34*
%TO.C,U1*%
X162372500Y-99650000D03*
X162372500Y-99250000D03*
X162372500Y-98850000D03*
X162372500Y-98450000D03*
X162372500Y-98050000D03*
X162372500Y-97650000D03*
D35*
X161827500Y-97105000D03*
X161427500Y-97105000D03*
X161027500Y-97105000D03*
X160627500Y-97105000D03*
X160227500Y-97105000D03*
X159827500Y-97105000D03*
D34*
X159282500Y-97650000D03*
X159282500Y-98050000D03*
X159282500Y-98450000D03*
X159282500Y-98850000D03*
X159282500Y-99250000D03*
X159282500Y-99650000D03*
D35*
X159827500Y-100195000D03*
X160227500Y-100195000D03*
X160627500Y-100195000D03*
X161027500Y-100195000D03*
X161427500Y-100195000D03*
X161827500Y-100195000D03*
D36*
X160827500Y-98650000D03*
%TD*%
D24*
%TO.C,C12*%
X139075000Y-101200000D03*
X139075000Y-99475000D03*
%TD*%
D22*
%TO.C,H2*%
X162950000Y-74450000D03*
%TD*%
%TO.C,H3*%
X162950000Y-104950000D03*
%TD*%
D24*
%TO.C,C13*%
X161877500Y-95600000D03*
X161877500Y-93875000D03*
%TD*%
D37*
%TO.C,U5*%
X142900000Y-102325000D03*
X143400000Y-102325000D03*
X143900000Y-102325000D03*
X144400000Y-102325000D03*
X144900000Y-102325000D03*
X145400000Y-102325000D03*
X145900000Y-102325000D03*
X146400000Y-102325000D03*
X146900000Y-102325000D03*
X147400000Y-102325000D03*
X147900000Y-102325000D03*
X148400000Y-102325000D03*
X148900000Y-102325000D03*
X149400000Y-102325000D03*
X149900000Y-102325000D03*
X150400000Y-102325000D03*
D38*
X152325000Y-100400000D03*
X152325000Y-99900000D03*
X152325000Y-99400000D03*
X152325000Y-98900000D03*
X152325000Y-98400000D03*
X152325000Y-97900000D03*
X152325000Y-97400000D03*
X152325000Y-96900000D03*
X152325000Y-96400000D03*
X152325000Y-95900000D03*
X152325000Y-95400000D03*
X152325000Y-94900000D03*
X152325000Y-94400000D03*
X152325000Y-93900000D03*
X152325000Y-93400000D03*
X152325000Y-92900000D03*
D37*
X150400000Y-90975000D03*
X149900000Y-90975000D03*
X149400000Y-90975000D03*
X148900000Y-90975000D03*
X148400000Y-90975000D03*
X147900000Y-90975000D03*
X147400000Y-90975000D03*
X146900000Y-90975000D03*
X146400000Y-90975000D03*
X145900000Y-90975000D03*
X145400000Y-90975000D03*
X144900000Y-90975000D03*
X144400000Y-90975000D03*
X143900000Y-90975000D03*
X143400000Y-90975000D03*
X142900000Y-90975000D03*
D38*
X140975000Y-92900000D03*
X140975000Y-93400000D03*
X140975000Y-93900000D03*
X140975000Y-94400000D03*
X140975000Y-94900000D03*
X140975000Y-95400000D03*
X140975000Y-95900000D03*
X140975000Y-96400000D03*
X140975000Y-96900000D03*
X140975000Y-97400000D03*
X140975000Y-97900000D03*
X140975000Y-98400000D03*
X140975000Y-98900000D03*
X140975000Y-99400000D03*
X140975000Y-99900000D03*
X140975000Y-100400000D03*
%TD*%
D39*
%TO.C,Y1*%
X144425000Y-104600000D03*
X139545000Y-104600000D03*
%TD*%
%LPD*%
M02*
