%TF.GenerationSoftware,KiCad,Pcbnew,9.0.6+1*%
%TF.CreationDate,Date%
%TF.ProjectId,FCU3,46435533-2e6b-4696-9361-645f70636258,+ (Unreleased)*%
%TF.SameCoordinates,Original*%
%TF.FileFunction,Paste,Top*%
%TF.FilePolarity,Positive*%
%FSLAX46Y46*%
G04 Gerber Fmt 4.6, Leading zero omitted, Abs format (unit mm)*
G04 Created by KiCad*
%MOMM*%
%LPD*%
G01*
G04 APERTURE LIST*
G04 Aperture macros list*
%AMRoundRect*
0 Rectangle with rounded corners*
0 $1 Rounding radius*
0 $2 $3 $4 $5 $6 $7 $8 $9 X,Y pos of 4 corners*
0 Add a 4 corners polygon primitive as box body*
4,1,4,$2,$3,$4,$5,$6,$7,$8,$9,$2,$3,0*
0 Add four circle primitives for the rounded corners*
1,1,$1+$1,$2,$3*
1,1,$1+$1,$4,$5*
1,1,$1+$1,$6,$7*
1,1,$1+$1,$8,$9*
0 Add four rect primitives between the rounded corners*
20,1,$1+$1,$2,$3,$4,$5,0*
20,1,$1+$1,$4,$5,$6,$7,0*
20,1,$1+$1,$6,$7,$8,$9,0*
20,1,$1+$1,$8,$9,$2,$3,0*%
G04 Aperture macros list end*
%ADD10C,0.010000*%
%ADD11RoundRect,0.140000X0.170000X-0.140000X0.170000X0.140000X-0.170000X0.140000X-0.170000X-0.140000X0*%
%ADD12RoundRect,0.140000X0.140000X0.170000X-0.140000X0.170000X-0.140000X-0.170000X0.140000X-0.170000X0*%
%ADD13RoundRect,0.218750X0.256250X-0.218750X0.256250X0.218750X-0.256250X0.218750X-0.256250X-0.218750X0*%
%ADD14RoundRect,0.250000X-0.650000X1.000000X-0.650000X-1.000000X0.650000X-1.000000X0.650000X1.000000X0*%
%ADD15RoundRect,0.140000X-0.140000X-0.170000X0.140000X-0.170000X0.140000X0.170000X-0.140000X0.170000X0*%
%ADD16RoundRect,0.135000X-0.135000X-0.185000X0.135000X-0.185000X0.135000X0.185000X-0.135000X0.185000X0*%
%ADD17RoundRect,0.135000X-0.185000X0.135000X-0.185000X-0.135000X0.185000X-0.135000X0.185000X0.135000X0*%
%ADD18RoundRect,0.135000X0.185000X-0.135000X0.185000X0.135000X-0.185000X0.135000X-0.185000X-0.135000X0*%
%ADD19R,1.550000X0.600000*%
%ADD20R,1.800000X1.200000*%
%ADD21RoundRect,0.250000X-0.325000X-0.650000X0.325000X-0.650000X0.325000X0.650000X-0.325000X0.650000X0*%
%ADD22R,1.400000X1.200000*%
%ADD23RoundRect,0.225000X-0.250000X0.225000X-0.250000X-0.225000X0.250000X-0.225000X0.250000X0.225000X0*%
%ADD24RoundRect,0.250000X0.650000X-0.325000X0.650000X0.325000X-0.650000X0.325000X-0.650000X-0.325000X0*%
%ADD25R,1.270000X0.558800*%
%ADD26RoundRect,0.135000X0.135000X0.185000X-0.135000X0.185000X-0.135000X-0.185000X0.135000X-0.185000X0*%
%ADD27RoundRect,0.050000X-0.075000X0.350000X-0.075000X-0.350000X0.075000X-0.350000X0.075000X0.350000X0*%
%ADD28RoundRect,0.049500X-0.225500X0.100500X-0.225500X-0.100500X0.225500X-0.100500X0.225500X0.100500X0*%
%ADD29RoundRect,0.075000X0.075000X-0.700000X0.075000X0.700000X-0.075000X0.700000X-0.075000X-0.700000X0*%
%ADD30RoundRect,0.075000X0.700000X-0.075000X0.700000X0.075000X-0.700000X0.075000X-0.700000X-0.075000X0*%
%ADD31RoundRect,0.140000X-0.170000X0.140000X-0.170000X-0.140000X0.170000X-0.140000X0.170000X0.140000X0*%
%ADD32RoundRect,0.150000X-0.587500X-0.150000X0.587500X-0.150000X0.587500X0.150000X-0.587500X0.150000X0*%
%ADD33RoundRect,0.027500X0.082500X-0.292500X0.082500X0.292500X-0.082500X0.292500X-0.082500X-0.292500X0*%
%ADD34RoundRect,0.027500X0.292500X-0.082500X0.292500X0.082500X-0.292500X0.082500X-0.292500X-0.082500X0*%
%ADD35R,0.900000X1.200000*%
%ADD36RoundRect,0.225000X-0.225000X-0.250000X0.225000X-0.250000X0.225000X0.250000X-0.225000X0.250000X0*%
%ADD37R,0.600000X1.150000*%
%ADD38R,0.300000X1.150000*%
G04 APERTURE END LIST*
D10*
%TO.C,PS1*%
X157668000Y-87826000D02*
X157670000Y-87826000D01*
X157673000Y-87827000D01*
X157675000Y-87827000D01*
X157678000Y-87828000D01*
X157680000Y-87829000D01*
X157683000Y-87830000D01*
X157685000Y-87832000D01*
X157687000Y-87833000D01*
X157689000Y-87835000D01*
X157691000Y-87836000D01*
X157693000Y-87838000D01*
X157695000Y-87840000D01*
X157697000Y-87842000D01*
X157699000Y-87844000D01*
X157700000Y-87846000D01*
X157702000Y-87848000D01*
X157703000Y-87850000D01*
X157705000Y-87852000D01*
X157706000Y-87855000D01*
X157707000Y-87857000D01*
X157708000Y-87860000D01*
X157708000Y-87862000D01*
X157709000Y-87865000D01*
X157709000Y-87867000D01*
X157710000Y-87870000D01*
X157710000Y-87872000D01*
X157710000Y-87875000D01*
X157710000Y-88225000D01*
X157710000Y-88228000D01*
X157710000Y-88230000D01*
X157709000Y-88233000D01*
X157709000Y-88235000D01*
X157708000Y-88238000D01*
X157708000Y-88240000D01*
X157707000Y-88243000D01*
X157706000Y-88245000D01*
X157705000Y-88248000D01*
X157703000Y-88250000D01*
X157702000Y-88252000D01*
X157700000Y-88254000D01*
X157699000Y-88256000D01*
X157697000Y-88258000D01*
X157695000Y-88260000D01*
X157693000Y-88262000D01*
X157691000Y-88264000D01*
X157689000Y-88265000D01*
X157687000Y-88267000D01*
X157685000Y-88268000D01*
X157683000Y-88270000D01*
X157680000Y-88271000D01*
X157678000Y-88272000D01*
X157675000Y-88273000D01*
X157673000Y-88273000D01*
X157670000Y-88274000D01*
X157668000Y-88274000D01*
X157665000Y-88275000D01*
X157663000Y-88275000D01*
X157660000Y-88275000D01*
X157510000Y-88275000D01*
X157507000Y-88275000D01*
X157505000Y-88275000D01*
X157502000Y-88274000D01*
X157500000Y-88274000D01*
X157497000Y-88273000D01*
X157495000Y-88273000D01*
X157492000Y-88272000D01*
X157490000Y-88271000D01*
X157487000Y-88270000D01*
X157485000Y-88268000D01*
X157483000Y-88267000D01*
X157481000Y-88265000D01*
X157479000Y-88264000D01*
X157477000Y-88262000D01*
X157475000Y-88260000D01*
X157473000Y-88258000D01*
X157471000Y-88256000D01*
X157470000Y-88254000D01*
X157468000Y-88252000D01*
X157467000Y-88250000D01*
X157465000Y-88248000D01*
X157464000Y-88245000D01*
X157463000Y-88243000D01*
X157462000Y-88240000D01*
X157462000Y-88238000D01*
X157461000Y-88235000D01*
X157461000Y-88233000D01*
X157460000Y-88230000D01*
X157460000Y-88228000D01*
X157460000Y-88225000D01*
X157460000Y-87875000D01*
X157460000Y-87872000D01*
X157460000Y-87870000D01*
X157461000Y-87867000D01*
X157461000Y-87865000D01*
X157462000Y-87862000D01*
X157462000Y-87860000D01*
X157463000Y-87857000D01*
X157464000Y-87855000D01*
X157465000Y-87852000D01*
X157467000Y-87850000D01*
X157468000Y-87848000D01*
X157470000Y-87846000D01*
X157471000Y-87844000D01*
X157473000Y-87842000D01*
X157475000Y-87840000D01*
X157477000Y-87838000D01*
X157479000Y-87836000D01*
X157481000Y-87835000D01*
X157483000Y-87833000D01*
X157485000Y-87832000D01*
X157487000Y-87830000D01*
X157490000Y-87829000D01*
X157492000Y-87828000D01*
X157495000Y-87827000D01*
X157497000Y-87827000D01*
X157500000Y-87826000D01*
X157502000Y-87826000D01*
X157505000Y-87825000D01*
X157507000Y-87825000D01*
X157510000Y-87825000D01*
X157660000Y-87825000D01*
X157663000Y-87825000D01*
X157665000Y-87825000D01*
X157668000Y-87826000D01*
G36*
X157668000Y-87826000D02*
G01*
X157670000Y-87826000D01*
X157673000Y-87827000D01*
X157675000Y-87827000D01*
X157678000Y-87828000D01*
X157680000Y-87829000D01*
X157683000Y-87830000D01*
X157685000Y-87832000D01*
X157687000Y-87833000D01*
X157689000Y-87835000D01*
X157691000Y-87836000D01*
X157693000Y-87838000D01*
X157695000Y-87840000D01*
X157697000Y-87842000D01*
X157699000Y-87844000D01*
X157700000Y-87846000D01*
X157702000Y-87848000D01*
X157703000Y-87850000D01*
X157705000Y-87852000D01*
X157706000Y-87855000D01*
X157707000Y-87857000D01*
X157708000Y-87860000D01*
X157708000Y-87862000D01*
X157709000Y-87865000D01*
X157709000Y-87867000D01*
X157710000Y-87870000D01*
X157710000Y-87872000D01*
X157710000Y-87875000D01*
X157710000Y-88225000D01*
X157710000Y-88228000D01*
X157710000Y-88230000D01*
X157709000Y-88233000D01*
X157709000Y-88235000D01*
X157708000Y-88238000D01*
X157708000Y-88240000D01*
X157707000Y-88243000D01*
X157706000Y-88245000D01*
X157705000Y-88248000D01*
X157703000Y-88250000D01*
X157702000Y-88252000D01*
X157700000Y-88254000D01*
X157699000Y-88256000D01*
X157697000Y-88258000D01*
X157695000Y-88260000D01*
X157693000Y-88262000D01*
X157691000Y-88264000D01*
X157689000Y-88265000D01*
X157687000Y-88267000D01*
X157685000Y-88268000D01*
X157683000Y-88270000D01*
X157680000Y-88271000D01*
X157678000Y-88272000D01*
X157675000Y-88273000D01*
X157673000Y-88273000D01*
X157670000Y-88274000D01*
X157668000Y-88274000D01*
X157665000Y-88275000D01*
X157663000Y-88275000D01*
X157660000Y-88275000D01*
X157510000Y-88275000D01*
X157507000Y-88275000D01*
X157505000Y-88275000D01*
X157502000Y-88274000D01*
X157500000Y-88274000D01*
X157497000Y-88273000D01*
X157495000Y-88273000D01*
X157492000Y-88272000D01*
X157490000Y-88271000D01*
X157487000Y-88270000D01*
X157485000Y-88268000D01*
X157483000Y-88267000D01*
X157481000Y-88265000D01*
X157479000Y-88264000D01*
X157477000Y-88262000D01*
X157475000Y-88260000D01*
X157473000Y-88258000D01*
X157471000Y-88256000D01*
X157470000Y-88254000D01*
X157468000Y-88252000D01*
X157467000Y-88250000D01*
X157465000Y-88248000D01*
X157464000Y-88245000D01*
X157463000Y-88243000D01*
X157462000Y-88240000D01*
X157462000Y-88238000D01*
X157461000Y-88235000D01*
X157461000Y-88233000D01*
X157460000Y-88230000D01*
X157460000Y-88228000D01*
X157460000Y-88225000D01*
X157460000Y-87875000D01*
X157460000Y-87872000D01*
X157460000Y-87870000D01*
X157461000Y-87867000D01*
X157461000Y-87865000D01*
X157462000Y-87862000D01*
X157462000Y-87860000D01*
X157463000Y-87857000D01*
X157464000Y-87855000D01*
X157465000Y-87852000D01*
X157467000Y-87850000D01*
X157468000Y-87848000D01*
X157470000Y-87846000D01*
X157471000Y-87844000D01*
X157473000Y-87842000D01*
X157475000Y-87840000D01*
X157477000Y-87838000D01*
X157479000Y-87836000D01*
X157481000Y-87835000D01*
X157483000Y-87833000D01*
X157485000Y-87832000D01*
X157487000Y-87830000D01*
X157490000Y-87829000D01*
X157492000Y-87828000D01*
X157495000Y-87827000D01*
X157497000Y-87827000D01*
X157500000Y-87826000D01*
X157502000Y-87826000D01*
X157505000Y-87825000D01*
X157507000Y-87825000D01*
X157510000Y-87825000D01*
X157660000Y-87825000D01*
X157663000Y-87825000D01*
X157665000Y-87825000D01*
X157668000Y-87826000D01*
G37*
X157668000Y-91076000D02*
X157670000Y-91076000D01*
X157673000Y-91077000D01*
X157675000Y-91077000D01*
X157678000Y-91078000D01*
X157680000Y-91079000D01*
X157683000Y-91080000D01*
X157685000Y-91082000D01*
X157687000Y-91083000D01*
X157689000Y-91085000D01*
X157691000Y-91086000D01*
X157693000Y-91088000D01*
X157695000Y-91090000D01*
X157697000Y-91092000D01*
X157699000Y-91094000D01*
X157700000Y-91096000D01*
X157702000Y-91098000D01*
X157703000Y-91100000D01*
X157705000Y-91102000D01*
X157706000Y-91105000D01*
X157707000Y-91107000D01*
X157708000Y-91110000D01*
X157708000Y-91112000D01*
X157709000Y-91115000D01*
X157709000Y-91117000D01*
X157710000Y-91120000D01*
X157710000Y-91122000D01*
X157710000Y-91125000D01*
X157710000Y-91475000D01*
X157710000Y-91478000D01*
X157710000Y-91480000D01*
X157709000Y-91483000D01*
X157709000Y-91485000D01*
X157708000Y-91488000D01*
X157708000Y-91490000D01*
X157707000Y-91493000D01*
X157706000Y-91495000D01*
X157705000Y-91498000D01*
X157703000Y-91500000D01*
X157702000Y-91502000D01*
X157700000Y-91504000D01*
X157699000Y-91506000D01*
X157697000Y-91508000D01*
X157695000Y-91510000D01*
X157693000Y-91512000D01*
X157691000Y-91514000D01*
X157689000Y-91515000D01*
X157687000Y-91517000D01*
X157685000Y-91518000D01*
X157683000Y-91520000D01*
X157680000Y-91521000D01*
X157678000Y-91522000D01*
X157675000Y-91523000D01*
X157673000Y-91523000D01*
X157670000Y-91524000D01*
X157668000Y-91524000D01*
X157665000Y-91525000D01*
X157663000Y-91525000D01*
X157660000Y-91525000D01*
X157510000Y-91525000D01*
X157507000Y-91525000D01*
X157505000Y-91525000D01*
X157502000Y-91524000D01*
X157500000Y-91524000D01*
X157497000Y-91523000D01*
X157495000Y-91523000D01*
X157492000Y-91522000D01*
X157490000Y-91521000D01*
X157487000Y-91520000D01*
X157485000Y-91518000D01*
X157483000Y-91517000D01*
X157481000Y-91515000D01*
X157479000Y-91514000D01*
X157477000Y-91512000D01*
X157475000Y-91510000D01*
X157473000Y-91508000D01*
X157471000Y-91506000D01*
X157470000Y-91504000D01*
X157468000Y-91502000D01*
X157467000Y-91500000D01*
X157465000Y-91498000D01*
X157464000Y-91495000D01*
X157463000Y-91493000D01*
X157462000Y-91490000D01*
X157462000Y-91488000D01*
X157461000Y-91485000D01*
X157461000Y-91483000D01*
X157460000Y-91480000D01*
X157460000Y-91478000D01*
X157460000Y-91475000D01*
X157460000Y-91125000D01*
X157460000Y-91122000D01*
X157460000Y-91120000D01*
X157461000Y-91117000D01*
X157461000Y-91115000D01*
X157462000Y-91112000D01*
X157462000Y-91110000D01*
X157463000Y-91107000D01*
X157464000Y-91105000D01*
X157465000Y-91102000D01*
X157467000Y-91100000D01*
X157468000Y-91098000D01*
X157470000Y-91096000D01*
X157471000Y-91094000D01*
X157473000Y-91092000D01*
X157475000Y-91090000D01*
X157477000Y-91088000D01*
X157479000Y-91086000D01*
X157481000Y-91085000D01*
X157483000Y-91083000D01*
X157485000Y-91082000D01*
X157487000Y-91080000D01*
X157490000Y-91079000D01*
X157492000Y-91078000D01*
X157495000Y-91077000D01*
X157497000Y-91077000D01*
X157500000Y-91076000D01*
X157502000Y-91076000D01*
X157505000Y-91075000D01*
X157507000Y-91075000D01*
X157510000Y-91075000D01*
X157660000Y-91075000D01*
X157663000Y-91075000D01*
X157665000Y-91075000D01*
X157668000Y-91076000D01*
G36*
X157668000Y-91076000D02*
G01*
X157670000Y-91076000D01*
X157673000Y-91077000D01*
X157675000Y-91077000D01*
X157678000Y-91078000D01*
X157680000Y-91079000D01*
X157683000Y-91080000D01*
X157685000Y-91082000D01*
X157687000Y-91083000D01*
X157689000Y-91085000D01*
X157691000Y-91086000D01*
X157693000Y-91088000D01*
X157695000Y-91090000D01*
X157697000Y-91092000D01*
X157699000Y-91094000D01*
X157700000Y-91096000D01*
X157702000Y-91098000D01*
X157703000Y-91100000D01*
X157705000Y-91102000D01*
X157706000Y-91105000D01*
X157707000Y-91107000D01*
X157708000Y-91110000D01*
X157708000Y-91112000D01*
X157709000Y-91115000D01*
X157709000Y-91117000D01*
X157710000Y-91120000D01*
X157710000Y-91122000D01*
X157710000Y-91125000D01*
X157710000Y-91475000D01*
X157710000Y-91478000D01*
X157710000Y-91480000D01*
X157709000Y-91483000D01*
X157709000Y-91485000D01*
X157708000Y-91488000D01*
X157708000Y-91490000D01*
X157707000Y-91493000D01*
X157706000Y-91495000D01*
X157705000Y-91498000D01*
X157703000Y-91500000D01*
X157702000Y-91502000D01*
X157700000Y-91504000D01*
X157699000Y-91506000D01*
X157697000Y-91508000D01*
X157695000Y-91510000D01*
X157693000Y-91512000D01*
X157691000Y-91514000D01*
X157689000Y-91515000D01*
X157687000Y-91517000D01*
X157685000Y-91518000D01*
X157683000Y-91520000D01*
X157680000Y-91521000D01*
X157678000Y-91522000D01*
X157675000Y-91523000D01*
X157673000Y-91523000D01*
X157670000Y-91524000D01*
X157668000Y-91524000D01*
X157665000Y-91525000D01*
X157663000Y-91525000D01*
X157660000Y-91525000D01*
X157510000Y-91525000D01*
X157507000Y-91525000D01*
X157505000Y-91525000D01*
X157502000Y-91524000D01*
X157500000Y-91524000D01*
X157497000Y-91523000D01*
X157495000Y-91523000D01*
X157492000Y-91522000D01*
X157490000Y-91521000D01*
X157487000Y-91520000D01*
X157485000Y-91518000D01*
X157483000Y-91517000D01*
X157481000Y-91515000D01*
X157479000Y-91514000D01*
X157477000Y-91512000D01*
X157475000Y-91510000D01*
X157473000Y-91508000D01*
X157471000Y-91506000D01*
X157470000Y-91504000D01*
X157468000Y-91502000D01*
X157467000Y-91500000D01*
X157465000Y-91498000D01*
X157464000Y-91495000D01*
X157463000Y-91493000D01*
X157462000Y-91490000D01*
X157462000Y-91488000D01*
X157461000Y-91485000D01*
X157461000Y-91483000D01*
X157460000Y-91480000D01*
X157460000Y-91478000D01*
X157460000Y-91475000D01*
X157460000Y-91125000D01*
X157460000Y-91122000D01*
X157460000Y-91120000D01*
X157461000Y-91117000D01*
X157461000Y-91115000D01*
X157462000Y-91112000D01*
X157462000Y-91110000D01*
X157463000Y-91107000D01*
X157464000Y-91105000D01*
X157465000Y-91102000D01*
X157467000Y-91100000D01*
X157468000Y-91098000D01*
X157470000Y-91096000D01*
X157471000Y-91094000D01*
X157473000Y-91092000D01*
X157475000Y-91090000D01*
X157477000Y-91088000D01*
X157479000Y-91086000D01*
X157481000Y-91085000D01*
X157483000Y-91083000D01*
X157485000Y-91082000D01*
X157487000Y-91080000D01*
X157490000Y-91079000D01*
X157492000Y-91078000D01*
X157495000Y-91077000D01*
X157497000Y-91077000D01*
X157500000Y-91076000D01*
X157502000Y-91076000D01*
X157505000Y-91075000D01*
X157507000Y-91075000D01*
X157510000Y-91075000D01*
X157660000Y-91075000D01*
X157663000Y-91075000D01*
X157665000Y-91075000D01*
X157668000Y-91076000D01*
G37*
X158168000Y-87826000D02*
X158170000Y-87826000D01*
X158173000Y-87827000D01*
X158175000Y-87827000D01*
X158178000Y-87828000D01*
X158180000Y-87829000D01*
X158183000Y-87830000D01*
X158185000Y-87832000D01*
X158187000Y-87833000D01*
X158189000Y-87835000D01*
X158191000Y-87836000D01*
X158193000Y-87838000D01*
X158195000Y-87840000D01*
X158197000Y-87842000D01*
X158199000Y-87844000D01*
X158200000Y-87846000D01*
X158202000Y-87848000D01*
X158203000Y-87850000D01*
X158205000Y-87852000D01*
X158206000Y-87855000D01*
X158207000Y-87857000D01*
X158208000Y-87860000D01*
X158208000Y-87862000D01*
X158209000Y-87865000D01*
X158209000Y-87867000D01*
X158210000Y-87870000D01*
X158210000Y-87872000D01*
X158210000Y-87875000D01*
X158210000Y-88225000D01*
X158210000Y-88228000D01*
X158210000Y-88230000D01*
X158209000Y-88233000D01*
X158209000Y-88235000D01*
X158208000Y-88238000D01*
X158208000Y-88240000D01*
X158207000Y-88243000D01*
X158206000Y-88245000D01*
X158205000Y-88248000D01*
X158203000Y-88250000D01*
X158202000Y-88252000D01*
X158200000Y-88254000D01*
X158199000Y-88256000D01*
X158197000Y-88258000D01*
X158195000Y-88260000D01*
X158193000Y-88262000D01*
X158191000Y-88264000D01*
X158189000Y-88265000D01*
X158187000Y-88267000D01*
X158185000Y-88268000D01*
X158183000Y-88270000D01*
X158180000Y-88271000D01*
X158178000Y-88272000D01*
X158175000Y-88273000D01*
X158173000Y-88273000D01*
X158170000Y-88274000D01*
X158168000Y-88274000D01*
X158165000Y-88275000D01*
X158163000Y-88275000D01*
X158160000Y-88275000D01*
X158010000Y-88275000D01*
X158007000Y-88275000D01*
X158005000Y-88275000D01*
X158002000Y-88274000D01*
X158000000Y-88274000D01*
X157997000Y-88273000D01*
X157995000Y-88273000D01*
X157992000Y-88272000D01*
X157990000Y-88271000D01*
X157987000Y-88270000D01*
X157985000Y-88268000D01*
X157983000Y-88267000D01*
X157981000Y-88265000D01*
X157979000Y-88264000D01*
X157977000Y-88262000D01*
X157975000Y-88260000D01*
X157973000Y-88258000D01*
X157971000Y-88256000D01*
X157970000Y-88254000D01*
X157968000Y-88252000D01*
X157967000Y-88250000D01*
X157965000Y-88248000D01*
X157964000Y-88245000D01*
X157963000Y-88243000D01*
X157962000Y-88240000D01*
X157962000Y-88238000D01*
X157961000Y-88235000D01*
X157961000Y-88233000D01*
X157960000Y-88230000D01*
X157960000Y-88228000D01*
X157960000Y-88225000D01*
X157960000Y-87875000D01*
X157960000Y-87872000D01*
X157960000Y-87870000D01*
X157961000Y-87867000D01*
X157961000Y-87865000D01*
X157962000Y-87862000D01*
X157962000Y-87860000D01*
X157963000Y-87857000D01*
X157964000Y-87855000D01*
X157965000Y-87852000D01*
X157967000Y-87850000D01*
X157968000Y-87848000D01*
X157970000Y-87846000D01*
X157971000Y-87844000D01*
X157973000Y-87842000D01*
X157975000Y-87840000D01*
X157977000Y-87838000D01*
X157979000Y-87836000D01*
X157981000Y-87835000D01*
X157983000Y-87833000D01*
X157985000Y-87832000D01*
X157987000Y-87830000D01*
X157990000Y-87829000D01*
X157992000Y-87828000D01*
X157995000Y-87827000D01*
X157997000Y-87827000D01*
X158000000Y-87826000D01*
X158002000Y-87826000D01*
X158005000Y-87825000D01*
X158007000Y-87825000D01*
X158010000Y-87825000D01*
X158160000Y-87825000D01*
X158163000Y-87825000D01*
X158165000Y-87825000D01*
X158168000Y-87826000D01*
G36*
X158168000Y-87826000D02*
G01*
X158170000Y-87826000D01*
X158173000Y-87827000D01*
X158175000Y-87827000D01*
X158178000Y-87828000D01*
X158180000Y-87829000D01*
X158183000Y-87830000D01*
X158185000Y-87832000D01*
X158187000Y-87833000D01*
X158189000Y-87835000D01*
X158191000Y-87836000D01*
X158193000Y-87838000D01*
X158195000Y-87840000D01*
X158197000Y-87842000D01*
X158199000Y-87844000D01*
X158200000Y-87846000D01*
X158202000Y-87848000D01*
X158203000Y-87850000D01*
X158205000Y-87852000D01*
X158206000Y-87855000D01*
X158207000Y-87857000D01*
X158208000Y-87860000D01*
X158208000Y-87862000D01*
X158209000Y-87865000D01*
X158209000Y-87867000D01*
X158210000Y-87870000D01*
X158210000Y-87872000D01*
X158210000Y-87875000D01*
X158210000Y-88225000D01*
X158210000Y-88228000D01*
X158210000Y-88230000D01*
X158209000Y-88233000D01*
X158209000Y-88235000D01*
X158208000Y-88238000D01*
X158208000Y-88240000D01*
X158207000Y-88243000D01*
X158206000Y-88245000D01*
X158205000Y-88248000D01*
X158203000Y-88250000D01*
X158202000Y-88252000D01*
X158200000Y-88254000D01*
X158199000Y-88256000D01*
X158197000Y-88258000D01*
X158195000Y-88260000D01*
X158193000Y-88262000D01*
X158191000Y-88264000D01*
X158189000Y-88265000D01*
X158187000Y-88267000D01*
X158185000Y-88268000D01*
X158183000Y-88270000D01*
X158180000Y-88271000D01*
X158178000Y-88272000D01*
X158175000Y-88273000D01*
X158173000Y-88273000D01*
X158170000Y-88274000D01*
X158168000Y-88274000D01*
X158165000Y-88275000D01*
X158163000Y-88275000D01*
X158160000Y-88275000D01*
X158010000Y-88275000D01*
X158007000Y-88275000D01*
X158005000Y-88275000D01*
X158002000Y-88274000D01*
X158000000Y-88274000D01*
X157997000Y-88273000D01*
X157995000Y-88273000D01*
X157992000Y-88272000D01*
X157990000Y-88271000D01*
X157987000Y-88270000D01*
X157985000Y-88268000D01*
X157983000Y-88267000D01*
X157981000Y-88265000D01*
X157979000Y-88264000D01*
X157977000Y-88262000D01*
X157975000Y-88260000D01*
X157973000Y-88258000D01*
X157971000Y-88256000D01*
X157970000Y-88254000D01*
X157968000Y-88252000D01*
X157967000Y-88250000D01*
X157965000Y-88248000D01*
X157964000Y-88245000D01*
X157963000Y-88243000D01*
X157962000Y-88240000D01*
X157962000Y-88238000D01*
X157961000Y-88235000D01*
X157961000Y-88233000D01*
X157960000Y-88230000D01*
X157960000Y-88228000D01*
X157960000Y-88225000D01*
X157960000Y-87875000D01*
X157960000Y-87872000D01*
X157960000Y-87870000D01*
X157961000Y-87867000D01*
X157961000Y-87865000D01*
X157962000Y-87862000D01*
X157962000Y-87860000D01*
X157963000Y-87857000D01*
X157964000Y-87855000D01*
X157965000Y-87852000D01*
X157967000Y-87850000D01*
X157968000Y-87848000D01*
X157970000Y-87846000D01*
X157971000Y-87844000D01*
X157973000Y-87842000D01*
X157975000Y-87840000D01*
X157977000Y-87838000D01*
X157979000Y-87836000D01*
X157981000Y-87835000D01*
X157983000Y-87833000D01*
X157985000Y-87832000D01*
X157987000Y-87830000D01*
X157990000Y-87829000D01*
X157992000Y-87828000D01*
X157995000Y-87827000D01*
X157997000Y-87827000D01*
X158000000Y-87826000D01*
X158002000Y-87826000D01*
X158005000Y-87825000D01*
X158007000Y-87825000D01*
X158010000Y-87825000D01*
X158160000Y-87825000D01*
X158163000Y-87825000D01*
X158165000Y-87825000D01*
X158168000Y-87826000D01*
G37*
X158168000Y-91076000D02*
X158170000Y-91076000D01*
X158173000Y-91077000D01*
X158175000Y-91077000D01*
X158178000Y-91078000D01*
X158180000Y-91079000D01*
X158183000Y-91080000D01*
X158185000Y-91082000D01*
X158187000Y-91083000D01*
X158189000Y-91085000D01*
X158191000Y-91086000D01*
X158193000Y-91088000D01*
X158195000Y-91090000D01*
X158197000Y-91092000D01*
X158199000Y-91094000D01*
X158200000Y-91096000D01*
X158202000Y-91098000D01*
X158203000Y-91100000D01*
X158205000Y-91102000D01*
X158206000Y-91105000D01*
X158207000Y-91107000D01*
X158208000Y-91110000D01*
X158208000Y-91112000D01*
X158209000Y-91115000D01*
X158209000Y-91117000D01*
X158210000Y-91120000D01*
X158210000Y-91122000D01*
X158210000Y-91125000D01*
X158210000Y-91475000D01*
X158210000Y-91478000D01*
X158210000Y-91480000D01*
X158209000Y-91483000D01*
X158209000Y-91485000D01*
X158208000Y-91488000D01*
X158208000Y-91490000D01*
X158207000Y-91493000D01*
X158206000Y-91495000D01*
X158205000Y-91498000D01*
X158203000Y-91500000D01*
X158202000Y-91502000D01*
X158200000Y-91504000D01*
X158199000Y-91506000D01*
X158197000Y-91508000D01*
X158195000Y-91510000D01*
X158193000Y-91512000D01*
X158191000Y-91514000D01*
X158189000Y-91515000D01*
X158187000Y-91517000D01*
X158185000Y-91518000D01*
X158183000Y-91520000D01*
X158180000Y-91521000D01*
X158178000Y-91522000D01*
X158175000Y-91523000D01*
X158173000Y-91523000D01*
X158170000Y-91524000D01*
X158168000Y-91524000D01*
X158165000Y-91525000D01*
X158163000Y-91525000D01*
X158160000Y-91525000D01*
X158010000Y-91525000D01*
X158007000Y-91525000D01*
X158005000Y-91525000D01*
X158002000Y-91524000D01*
X158000000Y-91524000D01*
X157997000Y-91523000D01*
X157995000Y-91523000D01*
X157992000Y-91522000D01*
X157990000Y-91521000D01*
X157987000Y-91520000D01*
X157985000Y-91518000D01*
X157983000Y-91517000D01*
X157981000Y-91515000D01*
X157979000Y-91514000D01*
X157977000Y-91512000D01*
X157975000Y-91510000D01*
X157973000Y-91508000D01*
X157971000Y-91506000D01*
X157970000Y-91504000D01*
X157968000Y-91502000D01*
X157967000Y-91500000D01*
X157965000Y-91498000D01*
X157964000Y-91495000D01*
X157963000Y-91493000D01*
X157962000Y-91490000D01*
X157962000Y-91488000D01*
X157961000Y-91485000D01*
X157961000Y-91483000D01*
X157960000Y-91480000D01*
X157960000Y-91478000D01*
X157960000Y-91475000D01*
X157960000Y-91125000D01*
X157960000Y-91122000D01*
X157960000Y-91120000D01*
X157961000Y-91117000D01*
X157961000Y-91115000D01*
X157962000Y-91112000D01*
X157962000Y-91110000D01*
X157963000Y-91107000D01*
X157964000Y-91105000D01*
X157965000Y-91102000D01*
X157967000Y-91100000D01*
X157968000Y-91098000D01*
X157970000Y-91096000D01*
X157971000Y-91094000D01*
X157973000Y-91092000D01*
X157975000Y-91090000D01*
X157977000Y-91088000D01*
X157979000Y-91086000D01*
X157981000Y-91085000D01*
X157983000Y-91083000D01*
X157985000Y-91082000D01*
X157987000Y-91080000D01*
X157990000Y-91079000D01*
X157992000Y-91078000D01*
X157995000Y-91077000D01*
X157997000Y-91077000D01*
X158000000Y-91076000D01*
X158002000Y-91076000D01*
X158005000Y-91075000D01*
X158007000Y-91075000D01*
X158010000Y-91075000D01*
X158160000Y-91075000D01*
X158163000Y-91075000D01*
X158165000Y-91075000D01*
X158168000Y-91076000D01*
G36*
X158168000Y-91076000D02*
G01*
X158170000Y-91076000D01*
X158173000Y-91077000D01*
X158175000Y-91077000D01*
X158178000Y-91078000D01*
X158180000Y-91079000D01*
X158183000Y-91080000D01*
X158185000Y-91082000D01*
X158187000Y-91083000D01*
X158189000Y-91085000D01*
X158191000Y-91086000D01*
X158193000Y-91088000D01*
X158195000Y-91090000D01*
X158197000Y-91092000D01*
X158199000Y-91094000D01*
X158200000Y-91096000D01*
X158202000Y-91098000D01*
X158203000Y-91100000D01*
X158205000Y-91102000D01*
X158206000Y-91105000D01*
X158207000Y-91107000D01*
X158208000Y-91110000D01*
X158208000Y-91112000D01*
X158209000Y-91115000D01*
X158209000Y-91117000D01*
X158210000Y-91120000D01*
X158210000Y-91122000D01*
X158210000Y-91125000D01*
X158210000Y-91475000D01*
X158210000Y-91478000D01*
X158210000Y-91480000D01*
X158209000Y-91483000D01*
X158209000Y-91485000D01*
X158208000Y-91488000D01*
X158208000Y-91490000D01*
X158207000Y-91493000D01*
X158206000Y-91495000D01*
X158205000Y-91498000D01*
X158203000Y-91500000D01*
X158202000Y-91502000D01*
X158200000Y-91504000D01*
X158199000Y-91506000D01*
X158197000Y-91508000D01*
X158195000Y-91510000D01*
X158193000Y-91512000D01*
X158191000Y-91514000D01*
X158189000Y-91515000D01*
X158187000Y-91517000D01*
X158185000Y-91518000D01*
X158183000Y-91520000D01*
X158180000Y-91521000D01*
X158178000Y-91522000D01*
X158175000Y-91523000D01*
X158173000Y-91523000D01*
X158170000Y-91524000D01*
X158168000Y-91524000D01*
X158165000Y-91525000D01*
X158163000Y-91525000D01*
X158160000Y-91525000D01*
X158010000Y-91525000D01*
X158007000Y-91525000D01*
X158005000Y-91525000D01*
X158002000Y-91524000D01*
X158000000Y-91524000D01*
X157997000Y-91523000D01*
X157995000Y-91523000D01*
X157992000Y-91522000D01*
X157990000Y-91521000D01*
X157987000Y-91520000D01*
X157985000Y-91518000D01*
X157983000Y-91517000D01*
X157981000Y-91515000D01*
X157979000Y-91514000D01*
X157977000Y-91512000D01*
X157975000Y-91510000D01*
X157973000Y-91508000D01*
X157971000Y-91506000D01*
X157970000Y-91504000D01*
X157968000Y-91502000D01*
X157967000Y-91500000D01*
X157965000Y-91498000D01*
X157964000Y-91495000D01*
X157963000Y-91493000D01*
X157962000Y-91490000D01*
X157962000Y-91488000D01*
X157961000Y-91485000D01*
X157961000Y-91483000D01*
X157960000Y-91480000D01*
X157960000Y-91478000D01*
X157960000Y-91475000D01*
X157960000Y-91125000D01*
X157960000Y-91122000D01*
X157960000Y-91120000D01*
X157961000Y-91117000D01*
X157961000Y-91115000D01*
X157962000Y-91112000D01*
X157962000Y-91110000D01*
X157963000Y-91107000D01*
X157964000Y-91105000D01*
X157965000Y-91102000D01*
X157967000Y-91100000D01*
X157968000Y-91098000D01*
X157970000Y-91096000D01*
X157971000Y-91094000D01*
X157973000Y-91092000D01*
X157975000Y-91090000D01*
X157977000Y-91088000D01*
X157979000Y-91086000D01*
X157981000Y-91085000D01*
X157983000Y-91083000D01*
X157985000Y-91082000D01*
X157987000Y-91080000D01*
X157990000Y-91079000D01*
X157992000Y-91078000D01*
X157995000Y-91077000D01*
X157997000Y-91077000D01*
X158000000Y-91076000D01*
X158002000Y-91076000D01*
X158005000Y-91075000D01*
X158007000Y-91075000D01*
X158010000Y-91075000D01*
X158160000Y-91075000D01*
X158163000Y-91075000D01*
X158165000Y-91075000D01*
X158168000Y-91076000D01*
G37*
X158668000Y-87826000D02*
X158670000Y-87826000D01*
X158673000Y-87827000D01*
X158675000Y-87827000D01*
X158678000Y-87828000D01*
X158680000Y-87829000D01*
X158683000Y-87830000D01*
X158685000Y-87832000D01*
X158687000Y-87833000D01*
X158689000Y-87835000D01*
X158691000Y-87836000D01*
X158693000Y-87838000D01*
X158695000Y-87840000D01*
X158697000Y-87842000D01*
X158699000Y-87844000D01*
X158700000Y-87846000D01*
X158702000Y-87848000D01*
X158703000Y-87850000D01*
X158705000Y-87852000D01*
X158706000Y-87855000D01*
X158707000Y-87857000D01*
X158708000Y-87860000D01*
X158708000Y-87862000D01*
X158709000Y-87865000D01*
X158709000Y-87867000D01*
X158710000Y-87870000D01*
X158710000Y-87872000D01*
X158710000Y-87875000D01*
X158710000Y-88225000D01*
X158710000Y-88228000D01*
X158710000Y-88230000D01*
X158709000Y-88233000D01*
X158709000Y-88235000D01*
X158708000Y-88238000D01*
X158708000Y-88240000D01*
X158707000Y-88243000D01*
X158706000Y-88245000D01*
X158705000Y-88248000D01*
X158703000Y-88250000D01*
X158702000Y-88252000D01*
X158700000Y-88254000D01*
X158699000Y-88256000D01*
X158697000Y-88258000D01*
X158695000Y-88260000D01*
X158693000Y-88262000D01*
X158691000Y-88264000D01*
X158689000Y-88265000D01*
X158687000Y-88267000D01*
X158685000Y-88268000D01*
X158683000Y-88270000D01*
X158680000Y-88271000D01*
X158678000Y-88272000D01*
X158675000Y-88273000D01*
X158673000Y-88273000D01*
X158670000Y-88274000D01*
X158668000Y-88274000D01*
X158665000Y-88275000D01*
X158663000Y-88275000D01*
X158660000Y-88275000D01*
X158510000Y-88275000D01*
X158507000Y-88275000D01*
X158505000Y-88275000D01*
X158502000Y-88274000D01*
X158500000Y-88274000D01*
X158497000Y-88273000D01*
X158495000Y-88273000D01*
X158492000Y-88272000D01*
X158490000Y-88271000D01*
X158487000Y-88270000D01*
X158485000Y-88268000D01*
X158483000Y-88267000D01*
X158481000Y-88265000D01*
X158479000Y-88264000D01*
X158477000Y-88262000D01*
X158475000Y-88260000D01*
X158473000Y-88258000D01*
X158471000Y-88256000D01*
X158470000Y-88254000D01*
X158468000Y-88252000D01*
X158467000Y-88250000D01*
X158465000Y-88248000D01*
X158464000Y-88245000D01*
X158463000Y-88243000D01*
X158462000Y-88240000D01*
X158462000Y-88238000D01*
X158461000Y-88235000D01*
X158461000Y-88233000D01*
X158460000Y-88230000D01*
X158460000Y-88228000D01*
X158460000Y-88225000D01*
X158460000Y-87875000D01*
X158460000Y-87872000D01*
X158460000Y-87870000D01*
X158461000Y-87867000D01*
X158461000Y-87865000D01*
X158462000Y-87862000D01*
X158462000Y-87860000D01*
X158463000Y-87857000D01*
X158464000Y-87855000D01*
X158465000Y-87852000D01*
X158467000Y-87850000D01*
X158468000Y-87848000D01*
X158470000Y-87846000D01*
X158471000Y-87844000D01*
X158473000Y-87842000D01*
X158475000Y-87840000D01*
X158477000Y-87838000D01*
X158479000Y-87836000D01*
X158481000Y-87835000D01*
X158483000Y-87833000D01*
X158485000Y-87832000D01*
X158487000Y-87830000D01*
X158490000Y-87829000D01*
X158492000Y-87828000D01*
X158495000Y-87827000D01*
X158497000Y-87827000D01*
X158500000Y-87826000D01*
X158502000Y-87826000D01*
X158505000Y-87825000D01*
X158507000Y-87825000D01*
X158510000Y-87825000D01*
X158660000Y-87825000D01*
X158663000Y-87825000D01*
X158665000Y-87825000D01*
X158668000Y-87826000D01*
G36*
X158668000Y-87826000D02*
G01*
X158670000Y-87826000D01*
X158673000Y-87827000D01*
X158675000Y-87827000D01*
X158678000Y-87828000D01*
X158680000Y-87829000D01*
X158683000Y-87830000D01*
X158685000Y-87832000D01*
X158687000Y-87833000D01*
X158689000Y-87835000D01*
X158691000Y-87836000D01*
X158693000Y-87838000D01*
X158695000Y-87840000D01*
X158697000Y-87842000D01*
X158699000Y-87844000D01*
X158700000Y-87846000D01*
X158702000Y-87848000D01*
X158703000Y-87850000D01*
X158705000Y-87852000D01*
X158706000Y-87855000D01*
X158707000Y-87857000D01*
X158708000Y-87860000D01*
X158708000Y-87862000D01*
X158709000Y-87865000D01*
X158709000Y-87867000D01*
X158710000Y-87870000D01*
X158710000Y-87872000D01*
X158710000Y-87875000D01*
X158710000Y-88225000D01*
X158710000Y-88228000D01*
X158710000Y-88230000D01*
X158709000Y-88233000D01*
X158709000Y-88235000D01*
X158708000Y-88238000D01*
X158708000Y-88240000D01*
X158707000Y-88243000D01*
X158706000Y-88245000D01*
X158705000Y-88248000D01*
X158703000Y-88250000D01*
X158702000Y-88252000D01*
X158700000Y-88254000D01*
X158699000Y-88256000D01*
X158697000Y-88258000D01*
X158695000Y-88260000D01*
X158693000Y-88262000D01*
X158691000Y-88264000D01*
X158689000Y-88265000D01*
X158687000Y-88267000D01*
X158685000Y-88268000D01*
X158683000Y-88270000D01*
X158680000Y-88271000D01*
X158678000Y-88272000D01*
X158675000Y-88273000D01*
X158673000Y-88273000D01*
X158670000Y-88274000D01*
X158668000Y-88274000D01*
X158665000Y-88275000D01*
X158663000Y-88275000D01*
X158660000Y-88275000D01*
X158510000Y-88275000D01*
X158507000Y-88275000D01*
X158505000Y-88275000D01*
X158502000Y-88274000D01*
X158500000Y-88274000D01*
X158497000Y-88273000D01*
X158495000Y-88273000D01*
X158492000Y-88272000D01*
X158490000Y-88271000D01*
X158487000Y-88270000D01*
X158485000Y-88268000D01*
X158483000Y-88267000D01*
X158481000Y-88265000D01*
X158479000Y-88264000D01*
X158477000Y-88262000D01*
X158475000Y-88260000D01*
X158473000Y-88258000D01*
X158471000Y-88256000D01*
X158470000Y-88254000D01*
X158468000Y-88252000D01*
X158467000Y-88250000D01*
X158465000Y-88248000D01*
X158464000Y-88245000D01*
X158463000Y-88243000D01*
X158462000Y-88240000D01*
X158462000Y-88238000D01*
X158461000Y-88235000D01*
X158461000Y-88233000D01*
X158460000Y-88230000D01*
X158460000Y-88228000D01*
X158460000Y-88225000D01*
X158460000Y-87875000D01*
X158460000Y-87872000D01*
X158460000Y-87870000D01*
X158461000Y-87867000D01*
X158461000Y-87865000D01*
X158462000Y-87862000D01*
X158462000Y-87860000D01*
X158463000Y-87857000D01*
X158464000Y-87855000D01*
X158465000Y-87852000D01*
X158467000Y-87850000D01*
X158468000Y-87848000D01*
X158470000Y-87846000D01*
X158471000Y-87844000D01*
X158473000Y-87842000D01*
X158475000Y-87840000D01*
X158477000Y-87838000D01*
X158479000Y-87836000D01*
X158481000Y-87835000D01*
X158483000Y-87833000D01*
X158485000Y-87832000D01*
X158487000Y-87830000D01*
X158490000Y-87829000D01*
X158492000Y-87828000D01*
X158495000Y-87827000D01*
X158497000Y-87827000D01*
X158500000Y-87826000D01*
X158502000Y-87826000D01*
X158505000Y-87825000D01*
X158507000Y-87825000D01*
X158510000Y-87825000D01*
X158660000Y-87825000D01*
X158663000Y-87825000D01*
X158665000Y-87825000D01*
X158668000Y-87826000D01*
G37*
X158668000Y-91076000D02*
X158670000Y-91076000D01*
X158673000Y-91077000D01*
X158675000Y-91077000D01*
X158678000Y-91078000D01*
X158680000Y-91079000D01*
X158683000Y-91080000D01*
X158685000Y-91082000D01*
X158687000Y-91083000D01*
X158689000Y-91085000D01*
X158691000Y-91086000D01*
X158693000Y-91088000D01*
X158695000Y-91090000D01*
X158697000Y-91092000D01*
X158699000Y-91094000D01*
X158700000Y-91096000D01*
X158702000Y-91098000D01*
X158703000Y-91100000D01*
X158705000Y-91102000D01*
X158706000Y-91105000D01*
X158707000Y-91107000D01*
X158708000Y-91110000D01*
X158708000Y-91112000D01*
X158709000Y-91115000D01*
X158709000Y-91117000D01*
X158710000Y-91120000D01*
X158710000Y-91122000D01*
X158710000Y-91125000D01*
X158710000Y-91475000D01*
X158710000Y-91478000D01*
X158710000Y-91480000D01*
X158709000Y-91483000D01*
X158709000Y-91485000D01*
X158708000Y-91488000D01*
X158708000Y-91490000D01*
X158707000Y-91493000D01*
X158706000Y-91495000D01*
X158705000Y-91498000D01*
X158703000Y-91500000D01*
X158702000Y-91502000D01*
X158700000Y-91504000D01*
X158699000Y-91506000D01*
X158697000Y-91508000D01*
X158695000Y-91510000D01*
X158693000Y-91512000D01*
X158691000Y-91514000D01*
X158689000Y-91515000D01*
X158687000Y-91517000D01*
X158685000Y-91518000D01*
X158683000Y-91520000D01*
X158680000Y-91521000D01*
X158678000Y-91522000D01*
X158675000Y-91523000D01*
X158673000Y-91523000D01*
X158670000Y-91524000D01*
X158668000Y-91524000D01*
X158665000Y-91525000D01*
X158663000Y-91525000D01*
X158660000Y-91525000D01*
X158510000Y-91525000D01*
X158507000Y-91525000D01*
X158505000Y-91525000D01*
X158502000Y-91524000D01*
X158500000Y-91524000D01*
X158497000Y-91523000D01*
X158495000Y-91523000D01*
X158492000Y-91522000D01*
X158490000Y-91521000D01*
X158487000Y-91520000D01*
X158485000Y-91518000D01*
X158483000Y-91517000D01*
X158481000Y-91515000D01*
X158479000Y-91514000D01*
X158477000Y-91512000D01*
X158475000Y-91510000D01*
X158473000Y-91508000D01*
X158471000Y-91506000D01*
X158470000Y-91504000D01*
X158468000Y-91502000D01*
X158467000Y-91500000D01*
X158465000Y-91498000D01*
X158464000Y-91495000D01*
X158463000Y-91493000D01*
X158462000Y-91490000D01*
X158462000Y-91488000D01*
X158461000Y-91485000D01*
X158461000Y-91483000D01*
X158460000Y-91480000D01*
X158460000Y-91478000D01*
X158460000Y-91475000D01*
X158460000Y-91125000D01*
X158460000Y-91122000D01*
X158460000Y-91120000D01*
X158461000Y-91117000D01*
X158461000Y-91115000D01*
X158462000Y-91112000D01*
X158462000Y-91110000D01*
X158463000Y-91107000D01*
X158464000Y-91105000D01*
X158465000Y-91102000D01*
X158467000Y-91100000D01*
X158468000Y-91098000D01*
X158470000Y-91096000D01*
X158471000Y-91094000D01*
X158473000Y-91092000D01*
X158475000Y-91090000D01*
X158477000Y-91088000D01*
X158479000Y-91086000D01*
X158481000Y-91085000D01*
X158483000Y-91083000D01*
X158485000Y-91082000D01*
X158487000Y-91080000D01*
X158490000Y-91079000D01*
X158492000Y-91078000D01*
X158495000Y-91077000D01*
X158497000Y-91077000D01*
X158500000Y-91076000D01*
X158502000Y-91076000D01*
X158505000Y-91075000D01*
X158507000Y-91075000D01*
X158510000Y-91075000D01*
X158660000Y-91075000D01*
X158663000Y-91075000D01*
X158665000Y-91075000D01*
X158668000Y-91076000D01*
G36*
X158668000Y-91076000D02*
G01*
X158670000Y-91076000D01*
X158673000Y-91077000D01*
X158675000Y-91077000D01*
X158678000Y-91078000D01*
X158680000Y-91079000D01*
X158683000Y-91080000D01*
X158685000Y-91082000D01*
X158687000Y-91083000D01*
X158689000Y-91085000D01*
X158691000Y-91086000D01*
X158693000Y-91088000D01*
X158695000Y-91090000D01*
X158697000Y-91092000D01*
X158699000Y-91094000D01*
X158700000Y-91096000D01*
X158702000Y-91098000D01*
X158703000Y-91100000D01*
X158705000Y-91102000D01*
X158706000Y-91105000D01*
X158707000Y-91107000D01*
X158708000Y-91110000D01*
X158708000Y-91112000D01*
X158709000Y-91115000D01*
X158709000Y-91117000D01*
X158710000Y-91120000D01*
X158710000Y-91122000D01*
X158710000Y-91125000D01*
X158710000Y-91475000D01*
X158710000Y-91478000D01*
X158710000Y-91480000D01*
X158709000Y-91483000D01*
X158709000Y-91485000D01*
X158708000Y-91488000D01*
X158708000Y-91490000D01*
X158707000Y-91493000D01*
X158706000Y-91495000D01*
X158705000Y-91498000D01*
X158703000Y-91500000D01*
X158702000Y-91502000D01*
X158700000Y-91504000D01*
X158699000Y-91506000D01*
X158697000Y-91508000D01*
X158695000Y-91510000D01*
X158693000Y-91512000D01*
X158691000Y-91514000D01*
X158689000Y-91515000D01*
X158687000Y-91517000D01*
X158685000Y-91518000D01*
X158683000Y-91520000D01*
X158680000Y-91521000D01*
X158678000Y-91522000D01*
X158675000Y-91523000D01*
X158673000Y-91523000D01*
X158670000Y-91524000D01*
X158668000Y-91524000D01*
X158665000Y-91525000D01*
X158663000Y-91525000D01*
X158660000Y-91525000D01*
X158510000Y-91525000D01*
X158507000Y-91525000D01*
X158505000Y-91525000D01*
X158502000Y-91524000D01*
X158500000Y-91524000D01*
X158497000Y-91523000D01*
X158495000Y-91523000D01*
X158492000Y-91522000D01*
X158490000Y-91521000D01*
X158487000Y-91520000D01*
X158485000Y-91518000D01*
X158483000Y-91517000D01*
X158481000Y-91515000D01*
X158479000Y-91514000D01*
X158477000Y-91512000D01*
X158475000Y-91510000D01*
X158473000Y-91508000D01*
X158471000Y-91506000D01*
X158470000Y-91504000D01*
X158468000Y-91502000D01*
X158467000Y-91500000D01*
X158465000Y-91498000D01*
X158464000Y-91495000D01*
X158463000Y-91493000D01*
X158462000Y-91490000D01*
X158462000Y-91488000D01*
X158461000Y-91485000D01*
X158461000Y-91483000D01*
X158460000Y-91480000D01*
X158460000Y-91478000D01*
X158460000Y-91475000D01*
X158460000Y-91125000D01*
X158460000Y-91122000D01*
X158460000Y-91120000D01*
X158461000Y-91117000D01*
X158461000Y-91115000D01*
X158462000Y-91112000D01*
X158462000Y-91110000D01*
X158463000Y-91107000D01*
X158464000Y-91105000D01*
X158465000Y-91102000D01*
X158467000Y-91100000D01*
X158468000Y-91098000D01*
X158470000Y-91096000D01*
X158471000Y-91094000D01*
X158473000Y-91092000D01*
X158475000Y-91090000D01*
X158477000Y-91088000D01*
X158479000Y-91086000D01*
X158481000Y-91085000D01*
X158483000Y-91083000D01*
X158485000Y-91082000D01*
X158487000Y-91080000D01*
X158490000Y-91079000D01*
X158492000Y-91078000D01*
X158495000Y-91077000D01*
X158497000Y-91077000D01*
X158500000Y-91076000D01*
X158502000Y-91076000D01*
X158505000Y-91075000D01*
X158507000Y-91075000D01*
X158510000Y-91075000D01*
X158660000Y-91075000D01*
X158663000Y-91075000D01*
X158665000Y-91075000D01*
X158668000Y-91076000D01*
G37*
X160858000Y-89301000D02*
X160860000Y-89301000D01*
X160863000Y-89302000D01*
X160865000Y-89302000D01*
X160868000Y-89303000D01*
X160870000Y-89304000D01*
X160873000Y-89305000D01*
X160875000Y-89307000D01*
X160877000Y-89308000D01*
X160879000Y-89310000D01*
X160881000Y-89311000D01*
X160883000Y-89313000D01*
X160885000Y-89315000D01*
X160887000Y-89317000D01*
X160889000Y-89319000D01*
X160890000Y-89321000D01*
X160892000Y-89323000D01*
X160893000Y-89325000D01*
X160895000Y-89327000D01*
X160896000Y-89330000D01*
X160897000Y-89332000D01*
X160898000Y-89335000D01*
X160898000Y-89337000D01*
X160899000Y-89340000D01*
X160899000Y-89342000D01*
X160900000Y-89345000D01*
X160900000Y-89347000D01*
X160900000Y-89350000D01*
X160900000Y-89500000D01*
X160900000Y-89503000D01*
X160900000Y-89505000D01*
X160899000Y-89508000D01*
X160899000Y-89510000D01*
X160898000Y-89513000D01*
X160898000Y-89515000D01*
X160897000Y-89518000D01*
X160896000Y-89520000D01*
X160895000Y-89523000D01*
X160893000Y-89525000D01*
X160892000Y-89527000D01*
X160890000Y-89529000D01*
X160889000Y-89531000D01*
X160887000Y-89533000D01*
X160885000Y-89535000D01*
X160883000Y-89537000D01*
X160881000Y-89539000D01*
X160879000Y-89540000D01*
X160877000Y-89542000D01*
X160875000Y-89543000D01*
X160873000Y-89545000D01*
X160870000Y-89546000D01*
X160868000Y-89547000D01*
X160865000Y-89548000D01*
X160863000Y-89548000D01*
X160860000Y-89549000D01*
X160858000Y-89549000D01*
X160855000Y-89550000D01*
X160853000Y-89550000D01*
X160850000Y-89550000D01*
X159625000Y-89550000D01*
X159622000Y-89550000D01*
X159620000Y-89550000D01*
X159617000Y-89549000D01*
X159615000Y-89549000D01*
X159612000Y-89548000D01*
X159610000Y-89548000D01*
X159607000Y-89547000D01*
X159605000Y-89546000D01*
X159602000Y-89545000D01*
X159600000Y-89543000D01*
X159598000Y-89542000D01*
X159596000Y-89540000D01*
X159594000Y-89539000D01*
X159592000Y-89537000D01*
X159590000Y-89535000D01*
X159588000Y-89533000D01*
X159586000Y-89531000D01*
X159585000Y-89529000D01*
X159583000Y-89527000D01*
X159582000Y-89525000D01*
X159580000Y-89523000D01*
X159579000Y-89520000D01*
X159578000Y-89518000D01*
X159577000Y-89515000D01*
X159577000Y-89513000D01*
X159576000Y-89510000D01*
X159576000Y-89508000D01*
X159575000Y-89505000D01*
X159575000Y-89503000D01*
X159575000Y-89500000D01*
X159575000Y-89350000D01*
X159575000Y-89347000D01*
X159575000Y-89345000D01*
X159576000Y-89342000D01*
X159576000Y-89340000D01*
X159577000Y-89337000D01*
X159577000Y-89335000D01*
X159578000Y-89332000D01*
X159579000Y-89330000D01*
X159580000Y-89327000D01*
X159582000Y-89325000D01*
X159583000Y-89323000D01*
X159585000Y-89321000D01*
X159586000Y-89319000D01*
X159588000Y-89317000D01*
X159590000Y-89315000D01*
X159592000Y-89313000D01*
X159594000Y-89311000D01*
X159596000Y-89310000D01*
X159598000Y-89308000D01*
X159600000Y-89307000D01*
X159602000Y-89305000D01*
X159605000Y-89304000D01*
X159607000Y-89303000D01*
X159610000Y-89302000D01*
X159612000Y-89302000D01*
X159615000Y-89301000D01*
X159617000Y-89301000D01*
X159620000Y-89300000D01*
X159622000Y-89300000D01*
X159625000Y-89300000D01*
X160850000Y-89300000D01*
X160853000Y-89300000D01*
X160855000Y-89300000D01*
X160858000Y-89301000D01*
G36*
X160858000Y-89301000D02*
G01*
X160860000Y-89301000D01*
X160863000Y-89302000D01*
X160865000Y-89302000D01*
X160868000Y-89303000D01*
X160870000Y-89304000D01*
X160873000Y-89305000D01*
X160875000Y-89307000D01*
X160877000Y-89308000D01*
X160879000Y-89310000D01*
X160881000Y-89311000D01*
X160883000Y-89313000D01*
X160885000Y-89315000D01*
X160887000Y-89317000D01*
X160889000Y-89319000D01*
X160890000Y-89321000D01*
X160892000Y-89323000D01*
X160893000Y-89325000D01*
X160895000Y-89327000D01*
X160896000Y-89330000D01*
X160897000Y-89332000D01*
X160898000Y-89335000D01*
X160898000Y-89337000D01*
X160899000Y-89340000D01*
X160899000Y-89342000D01*
X160900000Y-89345000D01*
X160900000Y-89347000D01*
X160900000Y-89350000D01*
X160900000Y-89500000D01*
X160900000Y-89503000D01*
X160900000Y-89505000D01*
X160899000Y-89508000D01*
X160899000Y-89510000D01*
X160898000Y-89513000D01*
X160898000Y-89515000D01*
X160897000Y-89518000D01*
X160896000Y-89520000D01*
X160895000Y-89523000D01*
X160893000Y-89525000D01*
X160892000Y-89527000D01*
X160890000Y-89529000D01*
X160889000Y-89531000D01*
X160887000Y-89533000D01*
X160885000Y-89535000D01*
X160883000Y-89537000D01*
X160881000Y-89539000D01*
X160879000Y-89540000D01*
X160877000Y-89542000D01*
X160875000Y-89543000D01*
X160873000Y-89545000D01*
X160870000Y-89546000D01*
X160868000Y-89547000D01*
X160865000Y-89548000D01*
X160863000Y-89548000D01*
X160860000Y-89549000D01*
X160858000Y-89549000D01*
X160855000Y-89550000D01*
X160853000Y-89550000D01*
X160850000Y-89550000D01*
X159625000Y-89550000D01*
X159622000Y-89550000D01*
X159620000Y-89550000D01*
X159617000Y-89549000D01*
X159615000Y-89549000D01*
X159612000Y-89548000D01*
X159610000Y-89548000D01*
X159607000Y-89547000D01*
X159605000Y-89546000D01*
X159602000Y-89545000D01*
X159600000Y-89543000D01*
X159598000Y-89542000D01*
X159596000Y-89540000D01*
X159594000Y-89539000D01*
X159592000Y-89537000D01*
X159590000Y-89535000D01*
X159588000Y-89533000D01*
X159586000Y-89531000D01*
X159585000Y-89529000D01*
X159583000Y-89527000D01*
X159582000Y-89525000D01*
X159580000Y-89523000D01*
X159579000Y-89520000D01*
X159578000Y-89518000D01*
X159577000Y-89515000D01*
X159577000Y-89513000D01*
X159576000Y-89510000D01*
X159576000Y-89508000D01*
X159575000Y-89505000D01*
X159575000Y-89503000D01*
X159575000Y-89500000D01*
X159575000Y-89350000D01*
X159575000Y-89347000D01*
X159575000Y-89345000D01*
X159576000Y-89342000D01*
X159576000Y-89340000D01*
X159577000Y-89337000D01*
X159577000Y-89335000D01*
X159578000Y-89332000D01*
X159579000Y-89330000D01*
X159580000Y-89327000D01*
X159582000Y-89325000D01*
X159583000Y-89323000D01*
X159585000Y-89321000D01*
X159586000Y-89319000D01*
X159588000Y-89317000D01*
X159590000Y-89315000D01*
X159592000Y-89313000D01*
X159594000Y-89311000D01*
X159596000Y-89310000D01*
X159598000Y-89308000D01*
X159600000Y-89307000D01*
X159602000Y-89305000D01*
X159605000Y-89304000D01*
X159607000Y-89303000D01*
X159610000Y-89302000D01*
X159612000Y-89302000D01*
X159615000Y-89301000D01*
X159617000Y-89301000D01*
X159620000Y-89300000D01*
X159622000Y-89300000D01*
X159625000Y-89300000D01*
X160850000Y-89300000D01*
X160853000Y-89300000D01*
X160855000Y-89300000D01*
X160858000Y-89301000D01*
G37*
X159058000Y-88476000D02*
X159060000Y-88476000D01*
X159063000Y-88477000D01*
X159065000Y-88478000D01*
X159068000Y-88479000D01*
X159070000Y-88480000D01*
X159073000Y-88481000D01*
X159075000Y-88483000D01*
X159077000Y-88484000D01*
X159079000Y-88486000D01*
X159081000Y-88487000D01*
X159083000Y-88489000D01*
X159085000Y-88491000D01*
X159086000Y-88493000D01*
X159088000Y-88495000D01*
X159089000Y-88497000D01*
X159091000Y-88500000D01*
X159092000Y-88502000D01*
X159093000Y-88504000D01*
X159094000Y-88507000D01*
X159095000Y-88509000D01*
X159096000Y-88512000D01*
X159096000Y-88514000D01*
X159097000Y-88517000D01*
X159097000Y-88519000D01*
X159097000Y-88522000D01*
X159098000Y-88524000D01*
X159098000Y-89150000D01*
X159097000Y-89152000D01*
X159097000Y-89155000D01*
X159097000Y-89157000D01*
X159096000Y-89160000D01*
X159096000Y-89162000D01*
X159095000Y-89165000D01*
X159094000Y-89167000D01*
X159093000Y-89170000D01*
X159092000Y-89172000D01*
X159091000Y-89175000D01*
X159089000Y-89177000D01*
X159088000Y-89179000D01*
X159086000Y-89181000D01*
X159085000Y-89183000D01*
X159083000Y-89185000D01*
X159081000Y-89187000D01*
X159079000Y-89188000D01*
X159077000Y-89190000D01*
X159075000Y-89191000D01*
X159073000Y-89193000D01*
X159070000Y-89194000D01*
X159068000Y-89195000D01*
X159065000Y-89196000D01*
X159063000Y-89197000D01*
X159060000Y-89198000D01*
X159058000Y-89198000D01*
X159055000Y-89199000D01*
X159053000Y-89199000D01*
X159050000Y-89199000D01*
X159047000Y-89200000D01*
X157278000Y-89200000D01*
X157275000Y-89199000D01*
X157272000Y-89199000D01*
X157270000Y-89199000D01*
X157267000Y-89198000D01*
X157265000Y-89198000D01*
X157262000Y-89197000D01*
X157260000Y-89196000D01*
X157257000Y-89195000D01*
X157255000Y-89194000D01*
X157252000Y-89193000D01*
X157250000Y-89191000D01*
X157248000Y-89190000D01*
X157246000Y-89188000D01*
X157244000Y-89187000D01*
X157242000Y-89185000D01*
X157240000Y-89183000D01*
X157239000Y-89181000D01*
X157237000Y-89179000D01*
X157236000Y-89177000D01*
X157234000Y-89175000D01*
X157233000Y-89172000D01*
X157232000Y-89170000D01*
X157231000Y-89167000D01*
X157230000Y-89165000D01*
X157229000Y-89162000D01*
X157229000Y-89160000D01*
X157228000Y-89157000D01*
X157228000Y-89155000D01*
X157228000Y-89152000D01*
X157228000Y-89150000D01*
X157227500Y-88524500D01*
X157228000Y-88524000D01*
X157228000Y-88522000D01*
X157228000Y-88519000D01*
X157228000Y-88517000D01*
X157229000Y-88514000D01*
X157229000Y-88512000D01*
X157230000Y-88509000D01*
X157231000Y-88507000D01*
X157232000Y-88504000D01*
X157233000Y-88502000D01*
X157234000Y-88500000D01*
X157236000Y-88497000D01*
X157237000Y-88495000D01*
X157239000Y-88493000D01*
X157240000Y-88491000D01*
X157242000Y-88489000D01*
X157244000Y-88487000D01*
X157246000Y-88486000D01*
X157248000Y-88484000D01*
X157250000Y-88483000D01*
X157252000Y-88481000D01*
X157255000Y-88480000D01*
X157257000Y-88479000D01*
X157260000Y-88478000D01*
X157262000Y-88477000D01*
X157265000Y-88476000D01*
X157267000Y-88476000D01*
X157270000Y-88475000D01*
X157272000Y-88475000D01*
X157275000Y-88475000D01*
X157278000Y-88475000D01*
X159047000Y-88475000D01*
X159050000Y-88475000D01*
X159053000Y-88475000D01*
X159055000Y-88475000D01*
X159058000Y-88476000D01*
G36*
X159058000Y-88476000D02*
G01*
X159060000Y-88476000D01*
X159063000Y-88477000D01*
X159065000Y-88478000D01*
X159068000Y-88479000D01*
X159070000Y-88480000D01*
X159073000Y-88481000D01*
X159075000Y-88483000D01*
X159077000Y-88484000D01*
X159079000Y-88486000D01*
X159081000Y-88487000D01*
X159083000Y-88489000D01*
X159085000Y-88491000D01*
X159086000Y-88493000D01*
X159088000Y-88495000D01*
X159089000Y-88497000D01*
X159091000Y-88500000D01*
X159092000Y-88502000D01*
X159093000Y-88504000D01*
X159094000Y-88507000D01*
X159095000Y-88509000D01*
X159096000Y-88512000D01*
X159096000Y-88514000D01*
X159097000Y-88517000D01*
X159097000Y-88519000D01*
X159097000Y-88522000D01*
X159098000Y-88524000D01*
X159098000Y-89150000D01*
X159097000Y-89152000D01*
X159097000Y-89155000D01*
X159097000Y-89157000D01*
X159096000Y-89160000D01*
X159096000Y-89162000D01*
X159095000Y-89165000D01*
X159094000Y-89167000D01*
X159093000Y-89170000D01*
X159092000Y-89172000D01*
X159091000Y-89175000D01*
X159089000Y-89177000D01*
X159088000Y-89179000D01*
X159086000Y-89181000D01*
X159085000Y-89183000D01*
X159083000Y-89185000D01*
X159081000Y-89187000D01*
X159079000Y-89188000D01*
X159077000Y-89190000D01*
X159075000Y-89191000D01*
X159073000Y-89193000D01*
X159070000Y-89194000D01*
X159068000Y-89195000D01*
X159065000Y-89196000D01*
X159063000Y-89197000D01*
X159060000Y-89198000D01*
X159058000Y-89198000D01*
X159055000Y-89199000D01*
X159053000Y-89199000D01*
X159050000Y-89199000D01*
X159047000Y-89200000D01*
X157278000Y-89200000D01*
X157275000Y-89199000D01*
X157272000Y-89199000D01*
X157270000Y-89199000D01*
X157267000Y-89198000D01*
X157265000Y-89198000D01*
X157262000Y-89197000D01*
X157260000Y-89196000D01*
X157257000Y-89195000D01*
X157255000Y-89194000D01*
X157252000Y-89193000D01*
X157250000Y-89191000D01*
X157248000Y-89190000D01*
X157246000Y-89188000D01*
X157244000Y-89187000D01*
X157242000Y-89185000D01*
X157240000Y-89183000D01*
X157239000Y-89181000D01*
X157237000Y-89179000D01*
X157236000Y-89177000D01*
X157234000Y-89175000D01*
X157233000Y-89172000D01*
X157232000Y-89170000D01*
X157231000Y-89167000D01*
X157230000Y-89165000D01*
X157229000Y-89162000D01*
X157229000Y-89160000D01*
X157228000Y-89157000D01*
X157228000Y-89155000D01*
X157228000Y-89152000D01*
X157228000Y-89150000D01*
X157227500Y-88524500D01*
X157228000Y-88524000D01*
X157228000Y-88522000D01*
X157228000Y-88519000D01*
X157228000Y-88517000D01*
X157229000Y-88514000D01*
X157229000Y-88512000D01*
X157230000Y-88509000D01*
X157231000Y-88507000D01*
X157232000Y-88504000D01*
X157233000Y-88502000D01*
X157234000Y-88500000D01*
X157236000Y-88497000D01*
X157237000Y-88495000D01*
X157239000Y-88493000D01*
X157240000Y-88491000D01*
X157242000Y-88489000D01*
X157244000Y-88487000D01*
X157246000Y-88486000D01*
X157248000Y-88484000D01*
X157250000Y-88483000D01*
X157252000Y-88481000D01*
X157255000Y-88480000D01*
X157257000Y-88479000D01*
X157260000Y-88478000D01*
X157262000Y-88477000D01*
X157265000Y-88476000D01*
X157267000Y-88476000D01*
X157270000Y-88475000D01*
X157272000Y-88475000D01*
X157275000Y-88475000D01*
X157278000Y-88475000D01*
X159047000Y-88475000D01*
X159050000Y-88475000D01*
X159053000Y-88475000D01*
X159055000Y-88475000D01*
X159058000Y-88476000D01*
G37*
X159050000Y-90151000D02*
X159053000Y-90151000D01*
X159055000Y-90151000D01*
X159058000Y-90152000D01*
X159060000Y-90152000D01*
X159063000Y-90153000D01*
X159065000Y-90154000D01*
X159068000Y-90155000D01*
X159070000Y-90156000D01*
X159073000Y-90157000D01*
X159075000Y-90159000D01*
X159077000Y-90160000D01*
X159079000Y-90162000D01*
X159081000Y-90163000D01*
X159083000Y-90165000D01*
X159085000Y-90167000D01*
X159086000Y-90169000D01*
X159088000Y-90171000D01*
X159089000Y-90173000D01*
X159091000Y-90175000D01*
X159092000Y-90178000D01*
X159093000Y-90180000D01*
X159094000Y-90183000D01*
X159095000Y-90185000D01*
X159096000Y-90188000D01*
X159096000Y-90190000D01*
X159097000Y-90193000D01*
X159097000Y-90195000D01*
X159097000Y-90198000D01*
X159098000Y-90200000D01*
X159098000Y-90826000D01*
X159097000Y-90828000D01*
X159097000Y-90831000D01*
X159097000Y-90833000D01*
X159096000Y-90836000D01*
X159096000Y-90838000D01*
X159095000Y-90841000D01*
X159094000Y-90843000D01*
X159093000Y-90846000D01*
X159092000Y-90848000D01*
X159091000Y-90850000D01*
X159089000Y-90853000D01*
X159088000Y-90855000D01*
X159086000Y-90857000D01*
X159085000Y-90859000D01*
X159083000Y-90861000D01*
X159081000Y-90863000D01*
X159079000Y-90864000D01*
X159077000Y-90866000D01*
X159075000Y-90867000D01*
X159073000Y-90869000D01*
X159070000Y-90870000D01*
X159068000Y-90871000D01*
X159065000Y-90872000D01*
X159063000Y-90873000D01*
X159060000Y-90874000D01*
X159058000Y-90874000D01*
X159055000Y-90875000D01*
X159053000Y-90875000D01*
X159050000Y-90875000D01*
X159047000Y-90875000D01*
X157278000Y-90875000D01*
X157275000Y-90875000D01*
X157272000Y-90875000D01*
X157270000Y-90875000D01*
X157267000Y-90874000D01*
X157265000Y-90874000D01*
X157262000Y-90873000D01*
X157260000Y-90872000D01*
X157257000Y-90871000D01*
X157255000Y-90870000D01*
X157252000Y-90869000D01*
X157250000Y-90867000D01*
X157248000Y-90866000D01*
X157246000Y-90864000D01*
X157244000Y-90863000D01*
X157242000Y-90861000D01*
X157240000Y-90859000D01*
X157239000Y-90857000D01*
X157237000Y-90855000D01*
X157236000Y-90853000D01*
X157234000Y-90850000D01*
X157233000Y-90848000D01*
X157232000Y-90846000D01*
X157231000Y-90843000D01*
X157230000Y-90841000D01*
X157229000Y-90838000D01*
X157229000Y-90836000D01*
X157228000Y-90833000D01*
X157228000Y-90831000D01*
X157228000Y-90828000D01*
X157228000Y-90826000D01*
X157227500Y-90825500D01*
X157228000Y-90200000D01*
X157228000Y-90198000D01*
X157228000Y-90195000D01*
X157228000Y-90193000D01*
X157229000Y-90190000D01*
X157229000Y-90188000D01*
X157230000Y-90185000D01*
X157231000Y-90183000D01*
X157232000Y-90180000D01*
X157233000Y-90178000D01*
X157234000Y-90175000D01*
X157236000Y-90173000D01*
X157237000Y-90171000D01*
X157239000Y-90169000D01*
X157240000Y-90167000D01*
X157242000Y-90165000D01*
X157244000Y-90163000D01*
X157246000Y-90162000D01*
X157248000Y-90160000D01*
X157250000Y-90159000D01*
X157252000Y-90157000D01*
X157255000Y-90156000D01*
X157257000Y-90155000D01*
X157260000Y-90154000D01*
X157262000Y-90153000D01*
X157265000Y-90152000D01*
X157267000Y-90152000D01*
X157270000Y-90151000D01*
X157272000Y-90151000D01*
X157275000Y-90151000D01*
X157278000Y-90150000D01*
X159047000Y-90150000D01*
X159050000Y-90151000D01*
G36*
X159050000Y-90151000D02*
G01*
X159053000Y-90151000D01*
X159055000Y-90151000D01*
X159058000Y-90152000D01*
X159060000Y-90152000D01*
X159063000Y-90153000D01*
X159065000Y-90154000D01*
X159068000Y-90155000D01*
X159070000Y-90156000D01*
X159073000Y-90157000D01*
X159075000Y-90159000D01*
X159077000Y-90160000D01*
X159079000Y-90162000D01*
X159081000Y-90163000D01*
X159083000Y-90165000D01*
X159085000Y-90167000D01*
X159086000Y-90169000D01*
X159088000Y-90171000D01*
X159089000Y-90173000D01*
X159091000Y-90175000D01*
X159092000Y-90178000D01*
X159093000Y-90180000D01*
X159094000Y-90183000D01*
X159095000Y-90185000D01*
X159096000Y-90188000D01*
X159096000Y-90190000D01*
X159097000Y-90193000D01*
X159097000Y-90195000D01*
X159097000Y-90198000D01*
X159098000Y-90200000D01*
X159098000Y-90826000D01*
X159097000Y-90828000D01*
X159097000Y-90831000D01*
X159097000Y-90833000D01*
X159096000Y-90836000D01*
X159096000Y-90838000D01*
X159095000Y-90841000D01*
X159094000Y-90843000D01*
X159093000Y-90846000D01*
X159092000Y-90848000D01*
X159091000Y-90850000D01*
X159089000Y-90853000D01*
X159088000Y-90855000D01*
X159086000Y-90857000D01*
X159085000Y-90859000D01*
X159083000Y-90861000D01*
X159081000Y-90863000D01*
X159079000Y-90864000D01*
X159077000Y-90866000D01*
X159075000Y-90867000D01*
X159073000Y-90869000D01*
X159070000Y-90870000D01*
X159068000Y-90871000D01*
X159065000Y-90872000D01*
X159063000Y-90873000D01*
X159060000Y-90874000D01*
X159058000Y-90874000D01*
X159055000Y-90875000D01*
X159053000Y-90875000D01*
X159050000Y-90875000D01*
X159047000Y-90875000D01*
X157278000Y-90875000D01*
X157275000Y-90875000D01*
X157272000Y-90875000D01*
X157270000Y-90875000D01*
X157267000Y-90874000D01*
X157265000Y-90874000D01*
X157262000Y-90873000D01*
X157260000Y-90872000D01*
X157257000Y-90871000D01*
X157255000Y-90870000D01*
X157252000Y-90869000D01*
X157250000Y-90867000D01*
X157248000Y-90866000D01*
X157246000Y-90864000D01*
X157244000Y-90863000D01*
X157242000Y-90861000D01*
X157240000Y-90859000D01*
X157239000Y-90857000D01*
X157237000Y-90855000D01*
X157236000Y-90853000D01*
X157234000Y-90850000D01*
X157233000Y-90848000D01*
X157232000Y-90846000D01*
X157231000Y-90843000D01*
X157230000Y-90841000D01*
X157229000Y-90838000D01*
X157229000Y-90836000D01*
X157228000Y-90833000D01*
X157228000Y-90831000D01*
X157228000Y-90828000D01*
X157228000Y-90826000D01*
X157227500Y-90825500D01*
X157228000Y-90200000D01*
X157228000Y-90198000D01*
X157228000Y-90195000D01*
X157228000Y-90193000D01*
X157229000Y-90190000D01*
X157229000Y-90188000D01*
X157230000Y-90185000D01*
X157231000Y-90183000D01*
X157232000Y-90180000D01*
X157233000Y-90178000D01*
X157234000Y-90175000D01*
X157236000Y-90173000D01*
X157237000Y-90171000D01*
X157239000Y-90169000D01*
X157240000Y-90167000D01*
X157242000Y-90165000D01*
X157244000Y-90163000D01*
X157246000Y-90162000D01*
X157248000Y-90160000D01*
X157250000Y-90159000D01*
X157252000Y-90157000D01*
X157255000Y-90156000D01*
X157257000Y-90155000D01*
X157260000Y-90154000D01*
X157262000Y-90153000D01*
X157265000Y-90152000D01*
X157267000Y-90152000D01*
X157270000Y-90151000D01*
X157272000Y-90151000D01*
X157275000Y-90151000D01*
X157278000Y-90150000D01*
X159047000Y-90150000D01*
X159050000Y-90151000D01*
G37*
X159808000Y-87826000D02*
X159811000Y-87826000D01*
X159813000Y-87827000D01*
X159816000Y-87827000D01*
X159818000Y-87828000D01*
X159821000Y-87829000D01*
X159823000Y-87830000D01*
X159826000Y-87832000D01*
X159828000Y-87833000D01*
X159830000Y-87835000D01*
X159832000Y-87836000D01*
X159834000Y-87838000D01*
X159836000Y-87840000D01*
X159838000Y-87842000D01*
X159839000Y-87844000D01*
X159841000Y-87846000D01*
X159842000Y-87848000D01*
X159844000Y-87850000D01*
X159845000Y-87852000D01*
X159846000Y-87855000D01*
X159847000Y-87857000D01*
X159848000Y-87860000D01*
X159849000Y-87862000D01*
X159849000Y-87865000D01*
X159850000Y-87867000D01*
X159850000Y-87870000D01*
X159850000Y-87872000D01*
X159851000Y-87875000D01*
X159851000Y-89050000D01*
X159850000Y-89053000D01*
X159850000Y-89055000D01*
X159850000Y-89058000D01*
X159849000Y-89060000D01*
X159849000Y-89063000D01*
X159848000Y-89065000D01*
X159847000Y-89068000D01*
X159846000Y-89070000D01*
X159845000Y-89073000D01*
X159844000Y-89075000D01*
X159842000Y-89077000D01*
X159841000Y-89079000D01*
X159839000Y-89081000D01*
X159838000Y-89083000D01*
X159836000Y-89085000D01*
X159834000Y-89087000D01*
X159832000Y-89089000D01*
X159830000Y-89090000D01*
X159828000Y-89092000D01*
X159826000Y-89093000D01*
X159823000Y-89095000D01*
X159821000Y-89096000D01*
X159818000Y-89097000D01*
X159816000Y-89098000D01*
X159813000Y-89098000D01*
X159811000Y-89099000D01*
X159808000Y-89099000D01*
X159806000Y-89100000D01*
X159803000Y-89100000D01*
X159800000Y-89100000D01*
X159626000Y-89100000D01*
X159623000Y-89100000D01*
X159620000Y-89100000D01*
X159618000Y-89099000D01*
X159615000Y-89099000D01*
X159613000Y-89098000D01*
X159610000Y-89098000D01*
X159608000Y-89097000D01*
X159605000Y-89096000D01*
X159603000Y-89095000D01*
X159601000Y-89093000D01*
X159598000Y-89092000D01*
X159596000Y-89090000D01*
X159594000Y-89089000D01*
X159592000Y-89087000D01*
X159590000Y-89085000D01*
X159588000Y-89083000D01*
X159587000Y-89081000D01*
X159585000Y-89079000D01*
X159584000Y-89077000D01*
X159582000Y-89075000D01*
X159581000Y-89073000D01*
X159580000Y-89070000D01*
X159579000Y-89068000D01*
X159578000Y-89065000D01*
X159577000Y-89063000D01*
X159577000Y-89060000D01*
X159576000Y-89058000D01*
X159576000Y-89055000D01*
X159576000Y-89053000D01*
X159576000Y-89050000D01*
X159575500Y-87875000D01*
X159576000Y-87875000D01*
X159576000Y-87872000D01*
X159576000Y-87870000D01*
X159576000Y-87867000D01*
X159577000Y-87865000D01*
X159577000Y-87862000D01*
X159578000Y-87860000D01*
X159579000Y-87857000D01*
X159580000Y-87855000D01*
X159581000Y-87852000D01*
X159582000Y-87850000D01*
X159584000Y-87848000D01*
X159585000Y-87846000D01*
X159587000Y-87844000D01*
X159588000Y-87842000D01*
X159590000Y-87840000D01*
X159592000Y-87838000D01*
X159594000Y-87836000D01*
X159596000Y-87835000D01*
X159598000Y-87833000D01*
X159601000Y-87832000D01*
X159603000Y-87830000D01*
X159605000Y-87829000D01*
X159608000Y-87828000D01*
X159610000Y-87827000D01*
X159613000Y-87827000D01*
X159615000Y-87826000D01*
X159618000Y-87826000D01*
X159620000Y-87825000D01*
X159623000Y-87825000D01*
X159626000Y-87825000D01*
X159800000Y-87825000D01*
X159803000Y-87825000D01*
X159806000Y-87825000D01*
X159808000Y-87826000D01*
G36*
X159808000Y-87826000D02*
G01*
X159811000Y-87826000D01*
X159813000Y-87827000D01*
X159816000Y-87827000D01*
X159818000Y-87828000D01*
X159821000Y-87829000D01*
X159823000Y-87830000D01*
X159826000Y-87832000D01*
X159828000Y-87833000D01*
X159830000Y-87835000D01*
X159832000Y-87836000D01*
X159834000Y-87838000D01*
X159836000Y-87840000D01*
X159838000Y-87842000D01*
X159839000Y-87844000D01*
X159841000Y-87846000D01*
X159842000Y-87848000D01*
X159844000Y-87850000D01*
X159845000Y-87852000D01*
X159846000Y-87855000D01*
X159847000Y-87857000D01*
X159848000Y-87860000D01*
X159849000Y-87862000D01*
X159849000Y-87865000D01*
X159850000Y-87867000D01*
X159850000Y-87870000D01*
X159850000Y-87872000D01*
X159851000Y-87875000D01*
X159851000Y-89050000D01*
X159850000Y-89053000D01*
X159850000Y-89055000D01*
X159850000Y-89058000D01*
X159849000Y-89060000D01*
X159849000Y-89063000D01*
X159848000Y-89065000D01*
X159847000Y-89068000D01*
X159846000Y-89070000D01*
X159845000Y-89073000D01*
X159844000Y-89075000D01*
X159842000Y-89077000D01*
X159841000Y-89079000D01*
X159839000Y-89081000D01*
X159838000Y-89083000D01*
X159836000Y-89085000D01*
X159834000Y-89087000D01*
X159832000Y-89089000D01*
X159830000Y-89090000D01*
X159828000Y-89092000D01*
X159826000Y-89093000D01*
X159823000Y-89095000D01*
X159821000Y-89096000D01*
X159818000Y-89097000D01*
X159816000Y-89098000D01*
X159813000Y-89098000D01*
X159811000Y-89099000D01*
X159808000Y-89099000D01*
X159806000Y-89100000D01*
X159803000Y-89100000D01*
X159800000Y-89100000D01*
X159626000Y-89100000D01*
X159623000Y-89100000D01*
X159620000Y-89100000D01*
X159618000Y-89099000D01*
X159615000Y-89099000D01*
X159613000Y-89098000D01*
X159610000Y-89098000D01*
X159608000Y-89097000D01*
X159605000Y-89096000D01*
X159603000Y-89095000D01*
X159601000Y-89093000D01*
X159598000Y-89092000D01*
X159596000Y-89090000D01*
X159594000Y-89089000D01*
X159592000Y-89087000D01*
X159590000Y-89085000D01*
X159588000Y-89083000D01*
X159587000Y-89081000D01*
X159585000Y-89079000D01*
X159584000Y-89077000D01*
X159582000Y-89075000D01*
X159581000Y-89073000D01*
X159580000Y-89070000D01*
X159579000Y-89068000D01*
X159578000Y-89065000D01*
X159577000Y-89063000D01*
X159577000Y-89060000D01*
X159576000Y-89058000D01*
X159576000Y-89055000D01*
X159576000Y-89053000D01*
X159576000Y-89050000D01*
X159575500Y-87875000D01*
X159576000Y-87875000D01*
X159576000Y-87872000D01*
X159576000Y-87870000D01*
X159576000Y-87867000D01*
X159577000Y-87865000D01*
X159577000Y-87862000D01*
X159578000Y-87860000D01*
X159579000Y-87857000D01*
X159580000Y-87855000D01*
X159581000Y-87852000D01*
X159582000Y-87850000D01*
X159584000Y-87848000D01*
X159585000Y-87846000D01*
X159587000Y-87844000D01*
X159588000Y-87842000D01*
X159590000Y-87840000D01*
X159592000Y-87838000D01*
X159594000Y-87836000D01*
X159596000Y-87835000D01*
X159598000Y-87833000D01*
X159601000Y-87832000D01*
X159603000Y-87830000D01*
X159605000Y-87829000D01*
X159608000Y-87828000D01*
X159610000Y-87827000D01*
X159613000Y-87827000D01*
X159615000Y-87826000D01*
X159618000Y-87826000D01*
X159620000Y-87825000D01*
X159623000Y-87825000D01*
X159626000Y-87825000D01*
X159800000Y-87825000D01*
X159803000Y-87825000D01*
X159806000Y-87825000D01*
X159808000Y-87826000D01*
G37*
X161308000Y-87826000D02*
X161310000Y-87826000D01*
X161313000Y-87827000D01*
X161315000Y-87827000D01*
X161318000Y-87828000D01*
X161320000Y-87829000D01*
X161323000Y-87830000D01*
X161325000Y-87832000D01*
X161327000Y-87833000D01*
X161329000Y-87835000D01*
X161331000Y-87836000D01*
X161333000Y-87838000D01*
X161335000Y-87840000D01*
X161337000Y-87842000D01*
X161339000Y-87844000D01*
X161340000Y-87846000D01*
X161342000Y-87848000D01*
X161343000Y-87850000D01*
X161345000Y-87852000D01*
X161346000Y-87855000D01*
X161347000Y-87857000D01*
X161348000Y-87860000D01*
X161348000Y-87862000D01*
X161349000Y-87865000D01*
X161349000Y-87867000D01*
X161350000Y-87870000D01*
X161350000Y-87872000D01*
X161350000Y-87875000D01*
X161350000Y-88600000D01*
X161350000Y-88605000D01*
X161351000Y-88610000D01*
X161351000Y-88616000D01*
X161352000Y-88621000D01*
X161353000Y-88626000D01*
X161355000Y-88631000D01*
X161357000Y-88636000D01*
X161359000Y-88641000D01*
X161361000Y-88645000D01*
X161363000Y-88650000D01*
X161366000Y-88654000D01*
X161369000Y-88659000D01*
X161372000Y-88663000D01*
X161376000Y-88667000D01*
X161379000Y-88671000D01*
X161383000Y-88674000D01*
X161387000Y-88678000D01*
X161391000Y-88681000D01*
X161396000Y-88684000D01*
X161400000Y-88687000D01*
X161405000Y-88689000D01*
X161409000Y-88691000D01*
X161414000Y-88693000D01*
X161419000Y-88695000D01*
X161424000Y-88697000D01*
X161429000Y-88698000D01*
X161434000Y-88699000D01*
X161440000Y-88699000D01*
X161445000Y-88700000D01*
X161450000Y-88700000D01*
X161650000Y-88700000D01*
X161653000Y-88700000D01*
X161655000Y-88700000D01*
X161658000Y-88701000D01*
X161660000Y-88701000D01*
X161663000Y-88702000D01*
X161665000Y-88702000D01*
X161668000Y-88703000D01*
X161670000Y-88704000D01*
X161673000Y-88705000D01*
X161675000Y-88707000D01*
X161677000Y-88708000D01*
X161679000Y-88710000D01*
X161681000Y-88711000D01*
X161683000Y-88713000D01*
X161685000Y-88715000D01*
X161687000Y-88717000D01*
X161689000Y-88719000D01*
X161690000Y-88721000D01*
X161692000Y-88723000D01*
X161693000Y-88725000D01*
X161695000Y-88727000D01*
X161696000Y-88730000D01*
X161697000Y-88732000D01*
X161698000Y-88735000D01*
X161698000Y-88737000D01*
X161699000Y-88740000D01*
X161699000Y-88742000D01*
X161700000Y-88745000D01*
X161700000Y-88747000D01*
X161700000Y-88750000D01*
X161700000Y-89000000D01*
X161700000Y-89003000D01*
X161700000Y-89005000D01*
X161699000Y-89008000D01*
X161699000Y-89010000D01*
X161698000Y-89013000D01*
X161698000Y-89015000D01*
X161697000Y-89018000D01*
X161696000Y-89020000D01*
X161695000Y-89023000D01*
X161693000Y-89025000D01*
X161692000Y-89027000D01*
X161690000Y-89029000D01*
X161689000Y-89031000D01*
X161687000Y-89033000D01*
X161685000Y-89035000D01*
X161683000Y-89037000D01*
X161681000Y-89039000D01*
X161679000Y-89040000D01*
X161677000Y-89042000D01*
X161675000Y-89043000D01*
X161673000Y-89045000D01*
X161670000Y-89046000D01*
X161668000Y-89047000D01*
X161665000Y-89048000D01*
X161663000Y-89048000D01*
X161660000Y-89049000D01*
X161658000Y-89049000D01*
X161655000Y-89050000D01*
X161653000Y-89050000D01*
X161650000Y-89050000D01*
X161150000Y-89050000D01*
X161147000Y-89050000D01*
X161145000Y-89050000D01*
X161142000Y-89049000D01*
X161140000Y-89049000D01*
X161137000Y-89048000D01*
X161135000Y-89048000D01*
X161132000Y-89047000D01*
X161130000Y-89046000D01*
X161127000Y-89045000D01*
X161125000Y-89043000D01*
X161123000Y-89042000D01*
X161121000Y-89040000D01*
X161119000Y-89039000D01*
X161117000Y-89037000D01*
X161115000Y-89035000D01*
X161113000Y-89033000D01*
X161111000Y-89031000D01*
X161110000Y-89029000D01*
X161108000Y-89027000D01*
X161107000Y-89025000D01*
X161105000Y-89023000D01*
X161104000Y-89020000D01*
X161103000Y-89018000D01*
X161102000Y-89015000D01*
X161102000Y-89013000D01*
X161101000Y-89010000D01*
X161101000Y-89008000D01*
X161100000Y-89005000D01*
X161100000Y-89003000D01*
X161100000Y-89000000D01*
X161100000Y-87875000D01*
X161100000Y-87872000D01*
X161100000Y-87870000D01*
X161101000Y-87867000D01*
X161101000Y-87865000D01*
X161102000Y-87862000D01*
X161102000Y-87860000D01*
X161103000Y-87857000D01*
X161104000Y-87855000D01*
X161105000Y-87852000D01*
X161107000Y-87850000D01*
X161108000Y-87848000D01*
X161110000Y-87846000D01*
X161111000Y-87844000D01*
X161113000Y-87842000D01*
X161115000Y-87840000D01*
X161117000Y-87838000D01*
X161119000Y-87836000D01*
X161121000Y-87835000D01*
X161123000Y-87833000D01*
X161125000Y-87832000D01*
X161127000Y-87830000D01*
X161130000Y-87829000D01*
X161132000Y-87828000D01*
X161135000Y-87827000D01*
X161137000Y-87827000D01*
X161140000Y-87826000D01*
X161142000Y-87826000D01*
X161145000Y-87825000D01*
X161147000Y-87825000D01*
X161150000Y-87825000D01*
X161300000Y-87825000D01*
X161303000Y-87825000D01*
X161305000Y-87825000D01*
X161308000Y-87826000D01*
G36*
X161308000Y-87826000D02*
G01*
X161310000Y-87826000D01*
X161313000Y-87827000D01*
X161315000Y-87827000D01*
X161318000Y-87828000D01*
X161320000Y-87829000D01*
X161323000Y-87830000D01*
X161325000Y-87832000D01*
X161327000Y-87833000D01*
X161329000Y-87835000D01*
X161331000Y-87836000D01*
X161333000Y-87838000D01*
X161335000Y-87840000D01*
X161337000Y-87842000D01*
X161339000Y-87844000D01*
X161340000Y-87846000D01*
X161342000Y-87848000D01*
X161343000Y-87850000D01*
X161345000Y-87852000D01*
X161346000Y-87855000D01*
X161347000Y-87857000D01*
X161348000Y-87860000D01*
X161348000Y-87862000D01*
X161349000Y-87865000D01*
X161349000Y-87867000D01*
X161350000Y-87870000D01*
X161350000Y-87872000D01*
X161350000Y-87875000D01*
X161350000Y-88600000D01*
X161350000Y-88605000D01*
X161351000Y-88610000D01*
X161351000Y-88616000D01*
X161352000Y-88621000D01*
X161353000Y-88626000D01*
X161355000Y-88631000D01*
X161357000Y-88636000D01*
X161359000Y-88641000D01*
X161361000Y-88645000D01*
X161363000Y-88650000D01*
X161366000Y-88654000D01*
X161369000Y-88659000D01*
X161372000Y-88663000D01*
X161376000Y-88667000D01*
X161379000Y-88671000D01*
X161383000Y-88674000D01*
X161387000Y-88678000D01*
X161391000Y-88681000D01*
X161396000Y-88684000D01*
X161400000Y-88687000D01*
X161405000Y-88689000D01*
X161409000Y-88691000D01*
X161414000Y-88693000D01*
X161419000Y-88695000D01*
X161424000Y-88697000D01*
X161429000Y-88698000D01*
X161434000Y-88699000D01*
X161440000Y-88699000D01*
X161445000Y-88700000D01*
X161450000Y-88700000D01*
X161650000Y-88700000D01*
X161653000Y-88700000D01*
X161655000Y-88700000D01*
X161658000Y-88701000D01*
X161660000Y-88701000D01*
X161663000Y-88702000D01*
X161665000Y-88702000D01*
X161668000Y-88703000D01*
X161670000Y-88704000D01*
X161673000Y-88705000D01*
X161675000Y-88707000D01*
X161677000Y-88708000D01*
X161679000Y-88710000D01*
X161681000Y-88711000D01*
X161683000Y-88713000D01*
X161685000Y-88715000D01*
X161687000Y-88717000D01*
X161689000Y-88719000D01*
X161690000Y-88721000D01*
X161692000Y-88723000D01*
X161693000Y-88725000D01*
X161695000Y-88727000D01*
X161696000Y-88730000D01*
X161697000Y-88732000D01*
X161698000Y-88735000D01*
X161698000Y-88737000D01*
X161699000Y-88740000D01*
X161699000Y-88742000D01*
X161700000Y-88745000D01*
X161700000Y-88747000D01*
X161700000Y-88750000D01*
X161700000Y-89000000D01*
X161700000Y-89003000D01*
X161700000Y-89005000D01*
X161699000Y-89008000D01*
X161699000Y-89010000D01*
X161698000Y-89013000D01*
X161698000Y-89015000D01*
X161697000Y-89018000D01*
X161696000Y-89020000D01*
X161695000Y-89023000D01*
X161693000Y-89025000D01*
X161692000Y-89027000D01*
X161690000Y-89029000D01*
X161689000Y-89031000D01*
X161687000Y-89033000D01*
X161685000Y-89035000D01*
X161683000Y-89037000D01*
X161681000Y-89039000D01*
X161679000Y-89040000D01*
X161677000Y-89042000D01*
X161675000Y-89043000D01*
X161673000Y-89045000D01*
X161670000Y-89046000D01*
X161668000Y-89047000D01*
X161665000Y-89048000D01*
X161663000Y-89048000D01*
X161660000Y-89049000D01*
X161658000Y-89049000D01*
X161655000Y-89050000D01*
X161653000Y-89050000D01*
X161650000Y-89050000D01*
X161150000Y-89050000D01*
X161147000Y-89050000D01*
X161145000Y-89050000D01*
X161142000Y-89049000D01*
X161140000Y-89049000D01*
X161137000Y-89048000D01*
X161135000Y-89048000D01*
X161132000Y-89047000D01*
X161130000Y-89046000D01*
X161127000Y-89045000D01*
X161125000Y-89043000D01*
X161123000Y-89042000D01*
X161121000Y-89040000D01*
X161119000Y-89039000D01*
X161117000Y-89037000D01*
X161115000Y-89035000D01*
X161113000Y-89033000D01*
X161111000Y-89031000D01*
X161110000Y-89029000D01*
X161108000Y-89027000D01*
X161107000Y-89025000D01*
X161105000Y-89023000D01*
X161104000Y-89020000D01*
X161103000Y-89018000D01*
X161102000Y-89015000D01*
X161102000Y-89013000D01*
X161101000Y-89010000D01*
X161101000Y-89008000D01*
X161100000Y-89005000D01*
X161100000Y-89003000D01*
X161100000Y-89000000D01*
X161100000Y-87875000D01*
X161100000Y-87872000D01*
X161100000Y-87870000D01*
X161101000Y-87867000D01*
X161101000Y-87865000D01*
X161102000Y-87862000D01*
X161102000Y-87860000D01*
X161103000Y-87857000D01*
X161104000Y-87855000D01*
X161105000Y-87852000D01*
X161107000Y-87850000D01*
X161108000Y-87848000D01*
X161110000Y-87846000D01*
X161111000Y-87844000D01*
X161113000Y-87842000D01*
X161115000Y-87840000D01*
X161117000Y-87838000D01*
X161119000Y-87836000D01*
X161121000Y-87835000D01*
X161123000Y-87833000D01*
X161125000Y-87832000D01*
X161127000Y-87830000D01*
X161130000Y-87829000D01*
X161132000Y-87828000D01*
X161135000Y-87827000D01*
X161137000Y-87827000D01*
X161140000Y-87826000D01*
X161142000Y-87826000D01*
X161145000Y-87825000D01*
X161147000Y-87825000D01*
X161150000Y-87825000D01*
X161300000Y-87825000D01*
X161303000Y-87825000D01*
X161305000Y-87825000D01*
X161308000Y-87826000D01*
G37*
X161658000Y-90301000D02*
X161660000Y-90301000D01*
X161663000Y-90302000D01*
X161665000Y-90302000D01*
X161668000Y-90303000D01*
X161670000Y-90304000D01*
X161673000Y-90305000D01*
X161675000Y-90307000D01*
X161677000Y-90308000D01*
X161679000Y-90310000D01*
X161681000Y-90311000D01*
X161683000Y-90313000D01*
X161685000Y-90315000D01*
X161687000Y-90317000D01*
X161689000Y-90319000D01*
X161690000Y-90321000D01*
X161692000Y-90323000D01*
X161693000Y-90325000D01*
X161695000Y-90327000D01*
X161696000Y-90330000D01*
X161697000Y-90332000D01*
X161698000Y-90335000D01*
X161698000Y-90337000D01*
X161699000Y-90340000D01*
X161699000Y-90342000D01*
X161700000Y-90345000D01*
X161700000Y-90347000D01*
X161700000Y-90350000D01*
X161700000Y-90600000D01*
X161700000Y-90603000D01*
X161700000Y-90605000D01*
X161699000Y-90608000D01*
X161699000Y-90610000D01*
X161698000Y-90613000D01*
X161698000Y-90615000D01*
X161697000Y-90618000D01*
X161696000Y-90620000D01*
X161695000Y-90623000D01*
X161693000Y-90625000D01*
X161692000Y-90627000D01*
X161690000Y-90629000D01*
X161689000Y-90631000D01*
X161687000Y-90633000D01*
X161685000Y-90635000D01*
X161683000Y-90637000D01*
X161681000Y-90639000D01*
X161679000Y-90640000D01*
X161677000Y-90642000D01*
X161675000Y-90643000D01*
X161673000Y-90645000D01*
X161670000Y-90646000D01*
X161668000Y-90647000D01*
X161665000Y-90648000D01*
X161663000Y-90648000D01*
X161660000Y-90649000D01*
X161658000Y-90649000D01*
X161655000Y-90650000D01*
X161653000Y-90650000D01*
X161650000Y-90650000D01*
X161450000Y-90650000D01*
X161445000Y-90650000D01*
X161440000Y-90651000D01*
X161434000Y-90651000D01*
X161429000Y-90652000D01*
X161424000Y-90653000D01*
X161419000Y-90655000D01*
X161414000Y-90657000D01*
X161409000Y-90659000D01*
X161405000Y-90661000D01*
X161400000Y-90663000D01*
X161396000Y-90666000D01*
X161391000Y-90669000D01*
X161387000Y-90672000D01*
X161383000Y-90676000D01*
X161379000Y-90679000D01*
X161376000Y-90683000D01*
X161372000Y-90687000D01*
X161369000Y-90691000D01*
X161366000Y-90696000D01*
X161363000Y-90700000D01*
X161361000Y-90705000D01*
X161359000Y-90709000D01*
X161357000Y-90714000D01*
X161355000Y-90719000D01*
X161353000Y-90724000D01*
X161352000Y-90729000D01*
X161351000Y-90734000D01*
X161351000Y-90740000D01*
X161350000Y-90745000D01*
X161350000Y-90750000D01*
X161350000Y-91475000D01*
X161350000Y-91478000D01*
X161350000Y-91480000D01*
X161349000Y-91483000D01*
X161349000Y-91485000D01*
X161348000Y-91488000D01*
X161348000Y-91490000D01*
X161347000Y-91493000D01*
X161346000Y-91495000D01*
X161345000Y-91498000D01*
X161343000Y-91500000D01*
X161342000Y-91502000D01*
X161340000Y-91504000D01*
X161339000Y-91506000D01*
X161337000Y-91508000D01*
X161335000Y-91510000D01*
X161333000Y-91512000D01*
X161331000Y-91514000D01*
X161329000Y-91515000D01*
X161327000Y-91517000D01*
X161325000Y-91518000D01*
X161323000Y-91520000D01*
X161320000Y-91521000D01*
X161318000Y-91522000D01*
X161315000Y-91523000D01*
X161313000Y-91523000D01*
X161310000Y-91524000D01*
X161308000Y-91524000D01*
X161305000Y-91525000D01*
X161303000Y-91525000D01*
X161300000Y-91525000D01*
X161150000Y-91525000D01*
X161147000Y-91525000D01*
X161145000Y-91525000D01*
X161142000Y-91524000D01*
X161140000Y-91524000D01*
X161137000Y-91523000D01*
X161135000Y-91523000D01*
X161132000Y-91522000D01*
X161130000Y-91521000D01*
X161127000Y-91520000D01*
X161125000Y-91518000D01*
X161123000Y-91517000D01*
X161121000Y-91515000D01*
X161119000Y-91514000D01*
X161117000Y-91512000D01*
X161115000Y-91510000D01*
X161113000Y-91508000D01*
X161111000Y-91506000D01*
X161110000Y-91504000D01*
X161108000Y-91502000D01*
X161107000Y-91500000D01*
X161105000Y-91498000D01*
X161104000Y-91495000D01*
X161103000Y-91493000D01*
X161102000Y-91490000D01*
X161102000Y-91488000D01*
X161101000Y-91485000D01*
X161101000Y-91483000D01*
X161100000Y-91480000D01*
X161100000Y-91478000D01*
X161100000Y-91475000D01*
X161100000Y-90350000D01*
X161100000Y-90347000D01*
X161100000Y-90345000D01*
X161101000Y-90342000D01*
X161101000Y-90340000D01*
X161102000Y-90337000D01*
X161102000Y-90335000D01*
X161103000Y-90332000D01*
X161104000Y-90330000D01*
X161105000Y-90327000D01*
X161107000Y-90325000D01*
X161108000Y-90323000D01*
X161110000Y-90321000D01*
X161111000Y-90319000D01*
X161113000Y-90317000D01*
X161115000Y-90315000D01*
X161117000Y-90313000D01*
X161119000Y-90311000D01*
X161121000Y-90310000D01*
X161123000Y-90308000D01*
X161125000Y-90307000D01*
X161127000Y-90305000D01*
X161130000Y-90304000D01*
X161132000Y-90303000D01*
X161135000Y-90302000D01*
X161137000Y-90302000D01*
X161140000Y-90301000D01*
X161142000Y-90301000D01*
X161145000Y-90300000D01*
X161147000Y-90300000D01*
X161150000Y-90300000D01*
X161650000Y-90300000D01*
X161653000Y-90300000D01*
X161655000Y-90300000D01*
X161658000Y-90301000D01*
G36*
X161658000Y-90301000D02*
G01*
X161660000Y-90301000D01*
X161663000Y-90302000D01*
X161665000Y-90302000D01*
X161668000Y-90303000D01*
X161670000Y-90304000D01*
X161673000Y-90305000D01*
X161675000Y-90307000D01*
X161677000Y-90308000D01*
X161679000Y-90310000D01*
X161681000Y-90311000D01*
X161683000Y-90313000D01*
X161685000Y-90315000D01*
X161687000Y-90317000D01*
X161689000Y-90319000D01*
X161690000Y-90321000D01*
X161692000Y-90323000D01*
X161693000Y-90325000D01*
X161695000Y-90327000D01*
X161696000Y-90330000D01*
X161697000Y-90332000D01*
X161698000Y-90335000D01*
X161698000Y-90337000D01*
X161699000Y-90340000D01*
X161699000Y-90342000D01*
X161700000Y-90345000D01*
X161700000Y-90347000D01*
X161700000Y-90350000D01*
X161700000Y-90600000D01*
X161700000Y-90603000D01*
X161700000Y-90605000D01*
X161699000Y-90608000D01*
X161699000Y-90610000D01*
X161698000Y-90613000D01*
X161698000Y-90615000D01*
X161697000Y-90618000D01*
X161696000Y-90620000D01*
X161695000Y-90623000D01*
X161693000Y-90625000D01*
X161692000Y-90627000D01*
X161690000Y-90629000D01*
X161689000Y-90631000D01*
X161687000Y-90633000D01*
X161685000Y-90635000D01*
X161683000Y-90637000D01*
X161681000Y-90639000D01*
X161679000Y-90640000D01*
X161677000Y-90642000D01*
X161675000Y-90643000D01*
X161673000Y-90645000D01*
X161670000Y-90646000D01*
X161668000Y-90647000D01*
X161665000Y-90648000D01*
X161663000Y-90648000D01*
X161660000Y-90649000D01*
X161658000Y-90649000D01*
X161655000Y-90650000D01*
X161653000Y-90650000D01*
X161650000Y-90650000D01*
X161450000Y-90650000D01*
X161445000Y-90650000D01*
X161440000Y-90651000D01*
X161434000Y-90651000D01*
X161429000Y-90652000D01*
X161424000Y-90653000D01*
X161419000Y-90655000D01*
X161414000Y-90657000D01*
X161409000Y-90659000D01*
X161405000Y-90661000D01*
X161400000Y-90663000D01*
X161396000Y-90666000D01*
X161391000Y-90669000D01*
X161387000Y-90672000D01*
X161383000Y-90676000D01*
X161379000Y-90679000D01*
X161376000Y-90683000D01*
X161372000Y-90687000D01*
X161369000Y-90691000D01*
X161366000Y-90696000D01*
X161363000Y-90700000D01*
X161361000Y-90705000D01*
X161359000Y-90709000D01*
X161357000Y-90714000D01*
X161355000Y-90719000D01*
X161353000Y-90724000D01*
X161352000Y-90729000D01*
X161351000Y-90734000D01*
X161351000Y-90740000D01*
X161350000Y-90745000D01*
X161350000Y-90750000D01*
X161350000Y-91475000D01*
X161350000Y-91478000D01*
X161350000Y-91480000D01*
X161349000Y-91483000D01*
X161349000Y-91485000D01*
X161348000Y-91488000D01*
X161348000Y-91490000D01*
X161347000Y-91493000D01*
X161346000Y-91495000D01*
X161345000Y-91498000D01*
X161343000Y-91500000D01*
X161342000Y-91502000D01*
X161340000Y-91504000D01*
X161339000Y-91506000D01*
X161337000Y-91508000D01*
X161335000Y-91510000D01*
X161333000Y-91512000D01*
X161331000Y-91514000D01*
X161329000Y-91515000D01*
X161327000Y-91517000D01*
X161325000Y-91518000D01*
X161323000Y-91520000D01*
X161320000Y-91521000D01*
X161318000Y-91522000D01*
X161315000Y-91523000D01*
X161313000Y-91523000D01*
X161310000Y-91524000D01*
X161308000Y-91524000D01*
X161305000Y-91525000D01*
X161303000Y-91525000D01*
X161300000Y-91525000D01*
X161150000Y-91525000D01*
X161147000Y-91525000D01*
X161145000Y-91525000D01*
X161142000Y-91524000D01*
X161140000Y-91524000D01*
X161137000Y-91523000D01*
X161135000Y-91523000D01*
X161132000Y-91522000D01*
X161130000Y-91521000D01*
X161127000Y-91520000D01*
X161125000Y-91518000D01*
X161123000Y-91517000D01*
X161121000Y-91515000D01*
X161119000Y-91514000D01*
X161117000Y-91512000D01*
X161115000Y-91510000D01*
X161113000Y-91508000D01*
X161111000Y-91506000D01*
X161110000Y-91504000D01*
X161108000Y-91502000D01*
X161107000Y-91500000D01*
X161105000Y-91498000D01*
X161104000Y-91495000D01*
X161103000Y-91493000D01*
X161102000Y-91490000D01*
X161102000Y-91488000D01*
X161101000Y-91485000D01*
X161101000Y-91483000D01*
X161100000Y-91480000D01*
X161100000Y-91478000D01*
X161100000Y-91475000D01*
X161100000Y-90350000D01*
X161100000Y-90347000D01*
X161100000Y-90345000D01*
X161101000Y-90342000D01*
X161101000Y-90340000D01*
X161102000Y-90337000D01*
X161102000Y-90335000D01*
X161103000Y-90332000D01*
X161104000Y-90330000D01*
X161105000Y-90327000D01*
X161107000Y-90325000D01*
X161108000Y-90323000D01*
X161110000Y-90321000D01*
X161111000Y-90319000D01*
X161113000Y-90317000D01*
X161115000Y-90315000D01*
X161117000Y-90313000D01*
X161119000Y-90311000D01*
X161121000Y-90310000D01*
X161123000Y-90308000D01*
X161125000Y-90307000D01*
X161127000Y-90305000D01*
X161130000Y-90304000D01*
X161132000Y-90303000D01*
X161135000Y-90302000D01*
X161137000Y-90302000D01*
X161140000Y-90301000D01*
X161142000Y-90301000D01*
X161145000Y-90300000D01*
X161147000Y-90300000D01*
X161150000Y-90300000D01*
X161650000Y-90300000D01*
X161653000Y-90300000D01*
X161655000Y-90300000D01*
X161658000Y-90301000D01*
G37*
X160808000Y-90326000D02*
X160810000Y-90326000D01*
X160813000Y-90327000D01*
X160815000Y-90327000D01*
X160818000Y-90328000D01*
X160820000Y-90329000D01*
X160823000Y-90330000D01*
X160825000Y-90332000D01*
X160827000Y-90333000D01*
X160829000Y-90335000D01*
X160831000Y-90336000D01*
X160833000Y-90338000D01*
X160835000Y-90340000D01*
X160837000Y-90342000D01*
X160839000Y-90344000D01*
X160840000Y-90346000D01*
X160842000Y-90348000D01*
X160843000Y-90350000D01*
X160845000Y-90352000D01*
X160846000Y-90355000D01*
X160847000Y-90357000D01*
X160848000Y-90360000D01*
X160848000Y-90362000D01*
X160849000Y-90365000D01*
X160849000Y-90367000D01*
X160850000Y-90370000D01*
X160850000Y-90372000D01*
X160850000Y-90375000D01*
X160850000Y-91475000D01*
X160850000Y-91478000D01*
X160850000Y-91480000D01*
X160849000Y-91483000D01*
X160849000Y-91485000D01*
X160848000Y-91488000D01*
X160848000Y-91490000D01*
X160847000Y-91493000D01*
X160846000Y-91495000D01*
X160845000Y-91498000D01*
X160843000Y-91500000D01*
X160842000Y-91502000D01*
X160840000Y-91504000D01*
X160839000Y-91506000D01*
X160837000Y-91508000D01*
X160835000Y-91510000D01*
X160833000Y-91512000D01*
X160831000Y-91514000D01*
X160829000Y-91515000D01*
X160827000Y-91517000D01*
X160825000Y-91518000D01*
X160823000Y-91520000D01*
X160820000Y-91521000D01*
X160818000Y-91522000D01*
X160815000Y-91523000D01*
X160813000Y-91523000D01*
X160810000Y-91524000D01*
X160808000Y-91524000D01*
X160805000Y-91525000D01*
X160803000Y-91525000D01*
X160800000Y-91525000D01*
X160650000Y-91525000D01*
X160647000Y-91525000D01*
X160645000Y-91525000D01*
X160642000Y-91524000D01*
X160640000Y-91524000D01*
X160637000Y-91523000D01*
X160635000Y-91523000D01*
X160632000Y-91522000D01*
X160630000Y-91521000D01*
X160627000Y-91520000D01*
X160625000Y-91518000D01*
X160623000Y-91517000D01*
X160621000Y-91515000D01*
X160619000Y-91514000D01*
X160617000Y-91512000D01*
X160615000Y-91510000D01*
X160613000Y-91508000D01*
X160611000Y-91506000D01*
X160610000Y-91504000D01*
X160608000Y-91502000D01*
X160607000Y-91500000D01*
X160605000Y-91498000D01*
X160604000Y-91495000D01*
X160603000Y-91493000D01*
X160602000Y-91490000D01*
X160602000Y-91488000D01*
X160601000Y-91485000D01*
X160601000Y-91483000D01*
X160600000Y-91480000D01*
X160600000Y-91478000D01*
X160600000Y-91475000D01*
X160600000Y-91175000D01*
X160600000Y-91172000D01*
X160600000Y-91170000D01*
X160599000Y-91167000D01*
X160599000Y-91165000D01*
X160598000Y-91162000D01*
X160598000Y-91160000D01*
X160597000Y-91157000D01*
X160596000Y-91155000D01*
X160595000Y-91152000D01*
X160593000Y-91150000D01*
X160592000Y-91148000D01*
X160590000Y-91146000D01*
X160589000Y-91144000D01*
X160587000Y-91142000D01*
X160585000Y-91140000D01*
X160583000Y-91138000D01*
X160581000Y-91136000D01*
X160579000Y-91135000D01*
X160577000Y-91133000D01*
X160575000Y-91132000D01*
X160573000Y-91130000D01*
X160570000Y-91129000D01*
X160568000Y-91128000D01*
X160565000Y-91127000D01*
X160563000Y-91127000D01*
X160560000Y-91126000D01*
X160558000Y-91126000D01*
X160555000Y-91125000D01*
X160553000Y-91125000D01*
X160550000Y-91125000D01*
X160400000Y-91125000D01*
X160397000Y-91125000D01*
X160395000Y-91125000D01*
X160392000Y-91126000D01*
X160390000Y-91126000D01*
X160387000Y-91127000D01*
X160385000Y-91127000D01*
X160382000Y-91128000D01*
X160380000Y-91129000D01*
X160377000Y-91130000D01*
X160375000Y-91132000D01*
X160373000Y-91133000D01*
X160371000Y-91135000D01*
X160369000Y-91136000D01*
X160367000Y-91138000D01*
X160365000Y-91140000D01*
X160363000Y-91142000D01*
X160361000Y-91144000D01*
X160360000Y-91146000D01*
X160358000Y-91148000D01*
X160357000Y-91150000D01*
X160355000Y-91152000D01*
X160354000Y-91155000D01*
X160353000Y-91157000D01*
X160352000Y-91160000D01*
X160352000Y-91162000D01*
X160351000Y-91165000D01*
X160351000Y-91167000D01*
X160350000Y-91170000D01*
X160350000Y-91172000D01*
X160350000Y-91175000D01*
X160350000Y-91475000D01*
X160350000Y-91478000D01*
X160350000Y-91480000D01*
X160349000Y-91483000D01*
X160349000Y-91485000D01*
X160348000Y-91488000D01*
X160348000Y-91490000D01*
X160347000Y-91493000D01*
X160346000Y-91495000D01*
X160345000Y-91498000D01*
X160343000Y-91500000D01*
X160342000Y-91502000D01*
X160340000Y-91504000D01*
X160339000Y-91506000D01*
X160337000Y-91508000D01*
X160335000Y-91510000D01*
X160333000Y-91512000D01*
X160331000Y-91514000D01*
X160329000Y-91515000D01*
X160327000Y-91517000D01*
X160325000Y-91518000D01*
X160323000Y-91520000D01*
X160320000Y-91521000D01*
X160318000Y-91522000D01*
X160315000Y-91523000D01*
X160313000Y-91523000D01*
X160310000Y-91524000D01*
X160308000Y-91524000D01*
X160305000Y-91525000D01*
X160303000Y-91525000D01*
X160300000Y-91525000D01*
X160150000Y-91525000D01*
X160147000Y-91525000D01*
X160145000Y-91525000D01*
X160142000Y-91524000D01*
X160140000Y-91524000D01*
X160137000Y-91523000D01*
X160135000Y-91523000D01*
X160132000Y-91522000D01*
X160130000Y-91521000D01*
X160127000Y-91520000D01*
X160125000Y-91518000D01*
X160123000Y-91517000D01*
X160121000Y-91515000D01*
X160119000Y-91514000D01*
X160117000Y-91512000D01*
X160115000Y-91510000D01*
X160113000Y-91508000D01*
X160111000Y-91506000D01*
X160110000Y-91504000D01*
X160108000Y-91502000D01*
X160107000Y-91500000D01*
X160105000Y-91498000D01*
X160104000Y-91495000D01*
X160103000Y-91493000D01*
X160102000Y-91490000D01*
X160102000Y-91488000D01*
X160101000Y-91485000D01*
X160101000Y-91483000D01*
X160100000Y-91480000D01*
X160100000Y-91478000D01*
X160100000Y-91475000D01*
X160100000Y-90375000D01*
X160100000Y-90372000D01*
X160100000Y-90370000D01*
X160101000Y-90367000D01*
X160101000Y-90365000D01*
X160102000Y-90362000D01*
X160102000Y-90360000D01*
X160103000Y-90357000D01*
X160104000Y-90355000D01*
X160105000Y-90352000D01*
X160107000Y-90350000D01*
X160108000Y-90348000D01*
X160110000Y-90346000D01*
X160111000Y-90344000D01*
X160113000Y-90342000D01*
X160115000Y-90340000D01*
X160117000Y-90338000D01*
X160119000Y-90336000D01*
X160121000Y-90335000D01*
X160123000Y-90333000D01*
X160125000Y-90332000D01*
X160127000Y-90330000D01*
X160130000Y-90329000D01*
X160132000Y-90328000D01*
X160135000Y-90327000D01*
X160137000Y-90327000D01*
X160140000Y-90326000D01*
X160142000Y-90326000D01*
X160145000Y-90325000D01*
X160147000Y-90325000D01*
X160150000Y-90325000D01*
X160800000Y-90325000D01*
X160803000Y-90325000D01*
X160805000Y-90325000D01*
X160808000Y-90326000D01*
G36*
X160808000Y-90326000D02*
G01*
X160810000Y-90326000D01*
X160813000Y-90327000D01*
X160815000Y-90327000D01*
X160818000Y-90328000D01*
X160820000Y-90329000D01*
X160823000Y-90330000D01*
X160825000Y-90332000D01*
X160827000Y-90333000D01*
X160829000Y-90335000D01*
X160831000Y-90336000D01*
X160833000Y-90338000D01*
X160835000Y-90340000D01*
X160837000Y-90342000D01*
X160839000Y-90344000D01*
X160840000Y-90346000D01*
X160842000Y-90348000D01*
X160843000Y-90350000D01*
X160845000Y-90352000D01*
X160846000Y-90355000D01*
X160847000Y-90357000D01*
X160848000Y-90360000D01*
X160848000Y-90362000D01*
X160849000Y-90365000D01*
X160849000Y-90367000D01*
X160850000Y-90370000D01*
X160850000Y-90372000D01*
X160850000Y-90375000D01*
X160850000Y-91475000D01*
X160850000Y-91478000D01*
X160850000Y-91480000D01*
X160849000Y-91483000D01*
X160849000Y-91485000D01*
X160848000Y-91488000D01*
X160848000Y-91490000D01*
X160847000Y-91493000D01*
X160846000Y-91495000D01*
X160845000Y-91498000D01*
X160843000Y-91500000D01*
X160842000Y-91502000D01*
X160840000Y-91504000D01*
X160839000Y-91506000D01*
X160837000Y-91508000D01*
X160835000Y-91510000D01*
X160833000Y-91512000D01*
X160831000Y-91514000D01*
X160829000Y-91515000D01*
X160827000Y-91517000D01*
X160825000Y-91518000D01*
X160823000Y-91520000D01*
X160820000Y-91521000D01*
X160818000Y-91522000D01*
X160815000Y-91523000D01*
X160813000Y-91523000D01*
X160810000Y-91524000D01*
X160808000Y-91524000D01*
X160805000Y-91525000D01*
X160803000Y-91525000D01*
X160800000Y-91525000D01*
X160650000Y-91525000D01*
X160647000Y-91525000D01*
X160645000Y-91525000D01*
X160642000Y-91524000D01*
X160640000Y-91524000D01*
X160637000Y-91523000D01*
X160635000Y-91523000D01*
X160632000Y-91522000D01*
X160630000Y-91521000D01*
X160627000Y-91520000D01*
X160625000Y-91518000D01*
X160623000Y-91517000D01*
X160621000Y-91515000D01*
X160619000Y-91514000D01*
X160617000Y-91512000D01*
X160615000Y-91510000D01*
X160613000Y-91508000D01*
X160611000Y-91506000D01*
X160610000Y-91504000D01*
X160608000Y-91502000D01*
X160607000Y-91500000D01*
X160605000Y-91498000D01*
X160604000Y-91495000D01*
X160603000Y-91493000D01*
X160602000Y-91490000D01*
X160602000Y-91488000D01*
X160601000Y-91485000D01*
X160601000Y-91483000D01*
X160600000Y-91480000D01*
X160600000Y-91478000D01*
X160600000Y-91475000D01*
X160600000Y-91175000D01*
X160600000Y-91172000D01*
X160600000Y-91170000D01*
X160599000Y-91167000D01*
X160599000Y-91165000D01*
X160598000Y-91162000D01*
X160598000Y-91160000D01*
X160597000Y-91157000D01*
X160596000Y-91155000D01*
X160595000Y-91152000D01*
X160593000Y-91150000D01*
X160592000Y-91148000D01*
X160590000Y-91146000D01*
X160589000Y-91144000D01*
X160587000Y-91142000D01*
X160585000Y-91140000D01*
X160583000Y-91138000D01*
X160581000Y-91136000D01*
X160579000Y-91135000D01*
X160577000Y-91133000D01*
X160575000Y-91132000D01*
X160573000Y-91130000D01*
X160570000Y-91129000D01*
X160568000Y-91128000D01*
X160565000Y-91127000D01*
X160563000Y-91127000D01*
X160560000Y-91126000D01*
X160558000Y-91126000D01*
X160555000Y-91125000D01*
X160553000Y-91125000D01*
X160550000Y-91125000D01*
X160400000Y-91125000D01*
X160397000Y-91125000D01*
X160395000Y-91125000D01*
X160392000Y-91126000D01*
X160390000Y-91126000D01*
X160387000Y-91127000D01*
X160385000Y-91127000D01*
X160382000Y-91128000D01*
X160380000Y-91129000D01*
X160377000Y-91130000D01*
X160375000Y-91132000D01*
X160373000Y-91133000D01*
X160371000Y-91135000D01*
X160369000Y-91136000D01*
X160367000Y-91138000D01*
X160365000Y-91140000D01*
X160363000Y-91142000D01*
X160361000Y-91144000D01*
X160360000Y-91146000D01*
X160358000Y-91148000D01*
X160357000Y-91150000D01*
X160355000Y-91152000D01*
X160354000Y-91155000D01*
X160353000Y-91157000D01*
X160352000Y-91160000D01*
X160352000Y-91162000D01*
X160351000Y-91165000D01*
X160351000Y-91167000D01*
X160350000Y-91170000D01*
X160350000Y-91172000D01*
X160350000Y-91175000D01*
X160350000Y-91475000D01*
X160350000Y-91478000D01*
X160350000Y-91480000D01*
X160349000Y-91483000D01*
X160349000Y-91485000D01*
X160348000Y-91488000D01*
X160348000Y-91490000D01*
X160347000Y-91493000D01*
X160346000Y-91495000D01*
X160345000Y-91498000D01*
X160343000Y-91500000D01*
X160342000Y-91502000D01*
X160340000Y-91504000D01*
X160339000Y-91506000D01*
X160337000Y-91508000D01*
X160335000Y-91510000D01*
X160333000Y-91512000D01*
X160331000Y-91514000D01*
X160329000Y-91515000D01*
X160327000Y-91517000D01*
X160325000Y-91518000D01*
X160323000Y-91520000D01*
X160320000Y-91521000D01*
X160318000Y-91522000D01*
X160315000Y-91523000D01*
X160313000Y-91523000D01*
X160310000Y-91524000D01*
X160308000Y-91524000D01*
X160305000Y-91525000D01*
X160303000Y-91525000D01*
X160300000Y-91525000D01*
X160150000Y-91525000D01*
X160147000Y-91525000D01*
X160145000Y-91525000D01*
X160142000Y-91524000D01*
X160140000Y-91524000D01*
X160137000Y-91523000D01*
X160135000Y-91523000D01*
X160132000Y-91522000D01*
X160130000Y-91521000D01*
X160127000Y-91520000D01*
X160125000Y-91518000D01*
X160123000Y-91517000D01*
X160121000Y-91515000D01*
X160119000Y-91514000D01*
X160117000Y-91512000D01*
X160115000Y-91510000D01*
X160113000Y-91508000D01*
X160111000Y-91506000D01*
X160110000Y-91504000D01*
X160108000Y-91502000D01*
X160107000Y-91500000D01*
X160105000Y-91498000D01*
X160104000Y-91495000D01*
X160103000Y-91493000D01*
X160102000Y-91490000D01*
X160102000Y-91488000D01*
X160101000Y-91485000D01*
X160101000Y-91483000D01*
X160100000Y-91480000D01*
X160100000Y-91478000D01*
X160100000Y-91475000D01*
X160100000Y-90375000D01*
X160100000Y-90372000D01*
X160100000Y-90370000D01*
X160101000Y-90367000D01*
X160101000Y-90365000D01*
X160102000Y-90362000D01*
X160102000Y-90360000D01*
X160103000Y-90357000D01*
X160104000Y-90355000D01*
X160105000Y-90352000D01*
X160107000Y-90350000D01*
X160108000Y-90348000D01*
X160110000Y-90346000D01*
X160111000Y-90344000D01*
X160113000Y-90342000D01*
X160115000Y-90340000D01*
X160117000Y-90338000D01*
X160119000Y-90336000D01*
X160121000Y-90335000D01*
X160123000Y-90333000D01*
X160125000Y-90332000D01*
X160127000Y-90330000D01*
X160130000Y-90329000D01*
X160132000Y-90328000D01*
X160135000Y-90327000D01*
X160137000Y-90327000D01*
X160140000Y-90326000D01*
X160142000Y-90326000D01*
X160145000Y-90325000D01*
X160147000Y-90325000D01*
X160150000Y-90325000D01*
X160800000Y-90325000D01*
X160803000Y-90325000D01*
X160805000Y-90325000D01*
X160808000Y-90326000D01*
G37*
%TO.C,U1*%
X147890000Y-84635000D02*
X146810000Y-84635000D01*
X146810000Y-83665000D01*
X147890000Y-83665000D01*
X147890000Y-84635000D01*
G36*
X147890000Y-84635000D02*
G01*
X146810000Y-84635000D01*
X146810000Y-83665000D01*
X147890000Y-83665000D01*
X147890000Y-84635000D01*
G37*
%TO.C,S1*%
X151350000Y-101870000D02*
X152050000Y-101870000D01*
X152050000Y-102670000D01*
X150550000Y-102670000D01*
X150550000Y-101170000D01*
X151350000Y-101170000D01*
X151350000Y-101870000D01*
G36*
X151350000Y-101870000D02*
G01*
X152050000Y-101870000D01*
X152050000Y-102670000D01*
X150550000Y-102670000D01*
X150550000Y-101170000D01*
X151350000Y-101170000D01*
X151350000Y-101870000D01*
G37*
X158950000Y-102670000D02*
X157450000Y-102670000D01*
X157450000Y-101870000D01*
X158150000Y-101870000D01*
X158150000Y-101170000D01*
X158950000Y-101170000D01*
X158950000Y-102670000D01*
G36*
X158950000Y-102670000D02*
G01*
X157450000Y-102670000D01*
X157450000Y-101870000D01*
X158150000Y-101870000D01*
X158150000Y-101170000D01*
X158950000Y-101170000D01*
X158950000Y-102670000D01*
G37*
%TD*%
D11*
%TO.C,C27*%
X136125000Y-97505000D03*
X136125000Y-96545000D03*
%TD*%
D12*
%TO.C,C31*%
X145830000Y-101745000D03*
X144870000Y-101745000D03*
%TD*%
D13*
%TO.C,D2*%
X147750000Y-102850000D03*
X147750000Y-101275000D03*
%TD*%
%TO.C,D4*%
X149450000Y-102850000D03*
X149450000Y-101275000D03*
%TD*%
D14*
%TO.C,D1*%
X148450000Y-68595000D03*
X148450000Y-72595000D03*
%TD*%
D15*
%TO.C,C17*%
X150730000Y-83825000D03*
X151690000Y-83825000D03*
%TD*%
D12*
%TO.C,C28*%
X145830000Y-100745000D03*
X144870000Y-100745000D03*
%TD*%
D16*
%TO.C,R17*%
X132020000Y-74495000D03*
X133040000Y-74495000D03*
%TD*%
D17*
%TO.C,R11*%
X155537500Y-95077500D03*
X155537500Y-96097500D03*
%TD*%
D14*
%TO.C,D3*%
X157250000Y-68595000D03*
X157250000Y-72595000D03*
%TD*%
D18*
%TO.C,R8*%
X151600000Y-98710000D03*
X151600000Y-97690000D03*
%TD*%
D19*
%TO.C,J5*%
X160400000Y-80495000D03*
X160400000Y-79495000D03*
X160400000Y-78495000D03*
X160400000Y-77495000D03*
X160400000Y-76495000D03*
X160400000Y-75495000D03*
D20*
X164275000Y-81795000D03*
X164275000Y-74195000D03*
%TD*%
D12*
%TO.C,C22*%
X147835000Y-81500000D03*
X146875000Y-81500000D03*
%TD*%
%TO.C,C29*%
X140085000Y-86295000D03*
X139125000Y-86295000D03*
%TD*%
D11*
%TO.C,C20*%
X154350000Y-72200000D03*
X154350000Y-71240000D03*
%TD*%
D21*
%TO.C,C21*%
X156600000Y-86325000D03*
X159550000Y-86325000D03*
%TD*%
D16*
%TO.C,R14*%
X135490000Y-84400000D03*
X136510000Y-84400000D03*
%TD*%
D11*
%TO.C,C24*%
X149150000Y-88855000D03*
X149150000Y-87895000D03*
%TD*%
D22*
%TO.C,Y1*%
X139800000Y-101200000D03*
X137600000Y-101200000D03*
X137600000Y-102800000D03*
X139800000Y-102800000D03*
%TD*%
D15*
%TO.C,C23*%
X150730000Y-84875000D03*
X151690000Y-84875000D03*
%TD*%
D23*
%TO.C,C3*%
X135800000Y-101420000D03*
X135800000Y-102970000D03*
%TD*%
D17*
%TO.C,R5*%
X162550000Y-86915000D03*
X162550000Y-87935000D03*
%TD*%
D11*
%TO.C,C18*%
X162550000Y-89905000D03*
X162550000Y-88945000D03*
%TD*%
D17*
%TO.C,R1*%
X136050000Y-92485000D03*
X136050000Y-93505000D03*
%TD*%
D24*
%TO.C,C11*%
X164250000Y-91925000D03*
X164250000Y-88975000D03*
%TD*%
D11*
%TO.C,C1*%
X154325000Y-69075000D03*
X154325000Y-68115000D03*
%TD*%
D17*
%TO.C,R12*%
X163650000Y-86625000D03*
X163650000Y-87645000D03*
%TD*%
D16*
%TO.C,R4*%
X150540000Y-93050000D03*
X151560000Y-93050000D03*
%TD*%
D25*
%TO.C,U2*%
X151834800Y-69230001D03*
X151834800Y-71059999D03*
X153765200Y-70145000D03*
%TD*%
D11*
%TO.C,C30*%
X150575000Y-90275000D03*
X150575000Y-89315000D03*
%TD*%
D26*
%TO.C,R13*%
X136510000Y-85500000D03*
X135490000Y-85500000D03*
%TD*%
D21*
%TO.C,C19*%
X156600000Y-83925000D03*
X159550000Y-83925000D03*
%TD*%
D27*
%TO.C,PS1*%
X160725000Y-88225000D03*
X160225000Y-88225000D03*
D28*
X161425000Y-89450000D03*
%TD*%
D17*
%TO.C,R2*%
X136050000Y-94525000D03*
X136050000Y-95545000D03*
%TD*%
D16*
%TO.C,R7*%
X150540000Y-92000000D03*
X151560000Y-92000000D03*
%TD*%
D29*
%TO.C,U3*%
X139600000Y-99195000D03*
X140100000Y-99195000D03*
X140600000Y-99195000D03*
X141100000Y-99195000D03*
X141600000Y-99195000D03*
X142100000Y-99195000D03*
X142600000Y-99195000D03*
X143100000Y-99195000D03*
X143600000Y-99195000D03*
X144100000Y-99195000D03*
X144600000Y-99195000D03*
X145100000Y-99195000D03*
X145600000Y-99195000D03*
X146100000Y-99195000D03*
X146600000Y-99195000D03*
X147100000Y-99195000D03*
D30*
X149025000Y-97270000D03*
X149025000Y-96770000D03*
X149025000Y-96270000D03*
X149025000Y-95770000D03*
X149025000Y-95270000D03*
X149025000Y-94770000D03*
X149025000Y-94270000D03*
X149025000Y-93770000D03*
X149025000Y-93270000D03*
X149025000Y-92770000D03*
X149025000Y-92270000D03*
X149025000Y-91770000D03*
X149025000Y-91270000D03*
X149025000Y-90770000D03*
X149025000Y-90270000D03*
X149025000Y-89770000D03*
D29*
X147100000Y-87845000D03*
X146600000Y-87845000D03*
X146100000Y-87845000D03*
X145600000Y-87845000D03*
X145100000Y-87845000D03*
X144600000Y-87845000D03*
X144100000Y-87845000D03*
X143600000Y-87845000D03*
X143100000Y-87845000D03*
X142600000Y-87845000D03*
X142100000Y-87845000D03*
X141600000Y-87845000D03*
X141100000Y-87845000D03*
X140600000Y-87845000D03*
X140100000Y-87845000D03*
X139600000Y-87845000D03*
D30*
X137675000Y-89770000D03*
X137675000Y-90270000D03*
X137675000Y-90770000D03*
X137675000Y-91270000D03*
X137675000Y-91770000D03*
X137675000Y-92270000D03*
X137675000Y-92770000D03*
X137675000Y-93270000D03*
X137675000Y-93770000D03*
X137675000Y-94270000D03*
X137675000Y-94770000D03*
X137675000Y-95270000D03*
X137675000Y-95770000D03*
X137675000Y-96270000D03*
X137675000Y-96770000D03*
X137675000Y-97270000D03*
%TD*%
D19*
%TO.C,J2*%
X133775000Y-78850000D03*
X133775000Y-79850000D03*
X133775000Y-80850000D03*
X133775000Y-81850000D03*
X133775000Y-82850000D03*
X133775000Y-83850000D03*
X133775000Y-84850000D03*
X133775000Y-85850000D03*
D20*
X129900000Y-77550000D03*
X129900000Y-87150000D03*
%TD*%
D31*
%TO.C,C34*%
X137500000Y-98215000D03*
X137500000Y-99175000D03*
%TD*%
D32*
%TO.C,Q1*%
X153162500Y-96187500D03*
X153162500Y-98087500D03*
X155037500Y-97137500D03*
%TD*%
D12*
%TO.C,C26*%
X138680000Y-87720000D03*
X137720000Y-87720000D03*
%TD*%
D33*
%TO.C,U1*%
X146350000Y-85695000D03*
X146750000Y-85695000D03*
X147150000Y-85695000D03*
X147550000Y-85695000D03*
X147950000Y-85695000D03*
X148350000Y-85695000D03*
D34*
X148895000Y-85150000D03*
X148895000Y-84750000D03*
X148895000Y-84350000D03*
X148895000Y-83950000D03*
X148895000Y-83550000D03*
X148895000Y-83150000D03*
D33*
X148350000Y-82605000D03*
X147950000Y-82605000D03*
X147550000Y-82605000D03*
X147150000Y-82605000D03*
X146750000Y-82605000D03*
X146350000Y-82605000D03*
D34*
X145805000Y-83150000D03*
X145805000Y-83550000D03*
X145805000Y-83950000D03*
X145805000Y-84350000D03*
X145805000Y-84750000D03*
X145805000Y-85150000D03*
%TD*%
D31*
%TO.C,C25*%
X150575000Y-96200000D03*
X150575000Y-97160000D03*
%TD*%
D17*
%TO.C,R6*%
X160950000Y-85490000D03*
X160950000Y-86510000D03*
%TD*%
D26*
%TO.C,R3*%
X154522500Y-94887500D03*
X153502500Y-94887500D03*
%TD*%
D35*
%TO.C,S1*%
X152650000Y-100070000D03*
X156850000Y-100070000D03*
%TD*%
D36*
%TO.C,C2*%
X141600000Y-101020000D03*
X143150000Y-101020000D03*
%TD*%
D16*
%TO.C,R16*%
X132030000Y-75595000D03*
X133050000Y-75595000D03*
%TD*%
D37*
%TO.C,J3*%
X144380000Y-74190000D03*
X143580000Y-74190000D03*
D38*
X142430000Y-74190000D03*
X141430000Y-74190000D03*
X140930000Y-74190000D03*
X139930000Y-74190000D03*
D37*
X137980000Y-74190000D03*
X138780000Y-74190000D03*
D38*
X139430000Y-74190000D03*
X140430000Y-74190000D03*
X141930000Y-74190000D03*
X142930000Y-74190000D03*
%TD*%
D19*
%TO.C,J1*%
X133700000Y-90195000D03*
X133700000Y-91195000D03*
X133700000Y-92195000D03*
X133700000Y-93195000D03*
X133700000Y-94195000D03*
X133700000Y-95195000D03*
D20*
X129825000Y-88895000D03*
X129825000Y-96495000D03*
%TD*%
M02*
